<?xml version="1.0" standalone="no"?>
<!DOCTYPE svg PUBLIC "-//W3C//DTD SVG 1.1//EN" "http://www.w3.org/Graphics/SVG/1.1/DTD/svg11.dtd" >
<svg xmlns="http://www.w3.org/2000/svg" xmlns:xlink="http://www.w3.org/1999/xlink" version="1.1">
<metadata></metadata>
<defs>
<font id="raleway_preziregular" horiz-adv-x="1218" >
<font-face units-per-em="2048" ascent="1638" descent="-410" />
<missing-glyph horiz-adv-x="522" />
<glyph horiz-adv-x="0" />
<glyph horiz-adv-x="682" />
<glyph horiz-adv-x="0" />
<glyph horiz-adv-x="0" />
<glyph unicode="&#xd;" horiz-adv-x="0" />
<glyph unicode=" "  horiz-adv-x="522" />
<glyph unicode="&#x09;" horiz-adv-x="522" />
<glyph unicode="&#xa0;" horiz-adv-x="522" />
<glyph unicode="!" horiz-adv-x="573" d="M176 94q0 46 32.5 78.5t76.5 32.5q46 0 78 -32.5t32 -78.5q0 -44 -32 -76t-78 -32q-44 0 -76.5 32t-32.5 76zM217 467v1001h139v-1001h-139z" />
<glyph unicode="&#x22;" horiz-adv-x="808" d="M205 973h123v481h-123v-481zM502 973h123v481h-123v-481z" />
<glyph unicode="#" horiz-adv-x="1392" d="M76 424v111h258l96 401h-266v104h293l100 414h119l-103 -414h388l100 414h119l-103 -414h238v-104h-264l-97 -401h275v-111h-301l-103 -424h-118l104 424h-387l-102 -424h-119l104 424h-231zM451 535h387l96 401h-387z" />
<glyph unicode="$" horiz-adv-x="1267" d="M78 199l72 116q73 -80 194 -134t264 -64v547l-12 4q-99 23 -166 44t-128 51.5t-96 68.5t-55 91.5t-20 123.5q0 188 128 296t343 119v207h76v-205q253 -9 436 -168l-70 -114q-62 68 -159 109.5t-217 45.5v-546q2 0 6.5 -1.5t7.5 -1.5q84 -19 145 -36t122 -41.5t101.5 -54 t73 -69t47.5 -91t15 -115.5q0 -191 -138 -290.5t-370 -102.5v-199h-76v201q-299 15 -524 209zM279 1067q0 -112 73.5 -166t255.5 -96v530q-167 -7 -248 -77t-81 -191zM668 115q175 0 270.5 64t95.5 188q0 60 -22 104t-71 77t-112.5 56t-160.5 47v-536z" />
<glyph unicode="%" horiz-adv-x="1462" d="M82 1180q0 123 89.5 209t217.5 86q127 0 216 -86t89 -209q0 -122 -89 -207.5t-216 -85.5t-217 85.5t-90 207.5zM133 55l572 697l557 710l71 -61l-571 -696l-559 -713zM186 1180q0 -88 60 -150.5t143 -62.5t142 63.5t59 149.5q0 88 -60 150.5t-141 62.5 q-84 0 -143.5 -63.5t-59.5 -149.5zM770 274q0 121 89.5 207t215.5 86q127 0 217 -85.5t90 -207.5q0 -123 -89.5 -208.5t-217.5 -85.5q-126 0 -215.5 85.5t-89.5 208.5zM874 274q0 -89 59.5 -151t141.5 -62q84 0 142.5 63t58.5 150t-60.5 150t-140.5 63q-83 0 -142 -63.5 t-59 -149.5z" />
<glyph unicode="&#x26;" horiz-adv-x="1366" d="M96 375q0 71 23.5 134t69.5 116.5t95.5 94.5t118.5 87q-111 120 -154.5 195t-43.5 151q0 135 104.5 227.5t259.5 92.5q145 0 242.5 -80.5t97.5 -206.5q0 -49 -17.5 -94.5t-43 -82t-70.5 -76.5t-85 -69t-101 -69l407 -426q88 166 88 360h119q-3 -250 -125 -446l273 -283 h-185l-168 176q-183 -196 -440 -196q-128 0 -233.5 49t-168.5 140t-63 206zM231 371q0 -87 51.5 -152t128 -96t164.5 -31q100 0 190 44t159 122l-441 465q-122 -85 -187 -167.5t-65 -184.5zM334 1157q0 -51 36 -108t142 -170q139 90 203.5 156t64.5 147q0 80 -59.5 131 t-151.5 51q-100 0 -167.5 -60.5t-67.5 -146.5z" />
<glyph unicode="'" horiz-adv-x="491" d="M184 969h123v481h-123v-481z" />
<glyph unicode="(" horiz-adv-x="550" d="M90 709q0 192 74 383t213 421l106 -51q-98 -146 -180 -363t-82 -397q0 -158 68.5 -346.5t191.5 -375.5l-104 -56q-287 427 -287 785z" />
<glyph unicode=")" horiz-adv-x="548" d="M66 1462l108 51q138 -232 211.5 -422t73.5 -382q0 -363 -287 -785l-102 56q122 188 191 376.5t69 345.5q0 180 -82.5 397.5t-181.5 362.5z" />
<glyph unicode="*" horiz-adv-x="657" d="M127 1290l23 74l141 -53v149h76v-149l141 53l22 -74l-139 -45l90 -127l-65 -45l-86 133l-88 -133l-64 45l88 127z" />
<glyph unicode="+" horiz-adv-x="849" d="M106 670v114h254v277h129v-277h254v-114h-254v-277h-129v277h-254z" />
<glyph unicode="," horiz-adv-x="460" d="M53 -287h117l186 482h-166z" />
<glyph unicode="-" horiz-adv-x="864" d="M133 494v129h598v-129h-598z" />
<glyph unicode="." horiz-adv-x="387" d="M96 100q0 42 30.5 72.5t72.5 30.5t72 -30.5t30 -72.5q0 -43 -29.5 -72.5t-72.5 -29.5t-73 29.5t-30 72.5z" />
<glyph unicode="/" horiz-adv-x="860" d="M31 0l655 1516l131 -43l-663 -1518z" />
<glyph unicode="0" horiz-adv-x="1400" d="M98 717q0 132 42.5 263t118.5 236.5t191.5 171.5t249.5 66q96 0 182 -32.5t150.5 -88.5t116 -128.5t84.5 -155.5t50 -167.5t17 -164.5q0 -106 -26.5 -212t-78.5 -199.5t-123 -166t-167.5 -115.5t-204.5 -44q-114 3 -213.5 49t-169.5 120.5t-120.5 169.5t-74.5 196.5 t-24 201.5zM244 717q3 -110 33.5 -215.5t85.5 -194.5t142.5 -143.5t194.5 -54.5q89 0 165 38.5t128.5 101t90.5 143t55.5 163.5t17.5 162q0 86 -19.5 172.5t-58.5 164.5t-93 138.5t-128 96.5t-158 36q-89 0 -165.5 -38.5t-129 -101.5t-89.5 -143.5t-54.5 -163t-17.5 -161.5z " />
<glyph unicode="1" horiz-adv-x="851" d="M86 1272l324 201h141v-1473h-141v1317l-254 -158z" />
<glyph unicode="2" horiz-adv-x="1189" d="M98 0v29q0 132 26 233t79 176t122.5 128t168.5 100q29 14 81.5 36t86 37.5t78.5 39t74 48.5t56.5 58t40.5 75.5t13 92.5q0 123 -81 205.5t-233 82.5q-75 0 -142.5 -20t-118 -54t-84.5 -66t-62 -68l-92 90q17 21 36 42t68.5 62t103 70t136 52.5t170.5 23.5 q109 0 197 -33.5t142.5 -92t83.5 -133t29 -159.5q0 -41 -6 -78.5t-20.5 -70t-29.5 -60t-40.5 -53t-46 -45t-54.5 -40.5t-56.5 -34t-61.5 -31.5t-60.5 -28t-62.5 -26.5q-148 -62 -236 -137.5t-120.5 -151.5t-32.5 -172h829v-127h-981z" />
<glyph unicode="3" horiz-adv-x="1196" d="M98 319l86 78q8 -111 121 -197.5t279 -86.5q157 0 260.5 78.5t103.5 201.5q0 134 -126 211.5t-341 77.5h-69v121h69q203 0 315.5 67t112.5 195q0 126 -98 204.5t-238 78.5q-131 0 -228.5 -58t-137.5 -149l-96 94q56 109 183 173.5t277 64.5q208 0 346 -116t138 -288 q0 -124 -73 -205.5t-212 -115.5q145 -28 233.5 -130.5t88.5 -240.5q0 -118 -70.5 -209.5t-185.5 -138.5t-252 -47q-194 0 -328.5 93t-157.5 244z" />
<glyph unicode="4" horiz-adv-x="1165" d="M53 389v125l758 940h96v-938h180v-127h-180v-389h-139v389h-715zM203 516h577v721z" />
<glyph unicode="5" horiz-adv-x="1138" d="M82 260l94 70q56 -102 157 -163t218 -61q154 0 257 99t103 254q0 149 -100 245.5t-248 96.5q-96 0 -180.5 -43t-138.5 -121h-131l163 817h703v-129h-598l-102 -522q112 121 301 121q200 0 336.5 -130.5t136.5 -332.5q0 -140 -68 -251t-182.5 -170.5t-253.5 -59.5 q-154 0 -278.5 75.5t-188.5 204.5z" />
<glyph unicode="6" horiz-adv-x="1234" d="M106 588q0 431 144.5 653.5t392.5 222.5q144 0 259 -72t175 -198l-90 -82q-43 105 -136 167t-208 62q-183 0 -291.5 -168t-109.5 -466q44 120 154.5 192t248.5 72q137 0 252 -65.5t181.5 -178.5t66.5 -248q0 -208 -149.5 -353.5t-366.5 -145.5q-233 0 -378 164t-145 444z M252 479q0 -154 113 -265.5t268 -111.5t267 111t112 266t-112.5 266t-268.5 111q-155 0 -267 -111t-112 -266z" />
<glyph unicode="7" horiz-adv-x="1067" d="M63 1325v129h1006l-737 -1454h-156l672 1325h-785z" />
<glyph unicode="8" horiz-adv-x="1214" d="M102 412q0 130 86.5 227.5t204.5 138.5q-104 43 -171.5 123t-67.5 182q0 70 26.5 130.5t71 104t103 75t123 46.5t130.5 15q83 0 163 -25t145.5 -70t106 -116.5t40.5 -157.5q0 -102 -69.5 -183t-174.5 -124q127 -44 210 -143.5t83 -231.5q0 -123 -70.5 -220t-186 -148 t-253.5 -51q-216 0 -358 124.5t-142 303.5zM246 412q0 -91 56 -162t138 -106t170 -35q89 0 171 37t136 108.5t54 159.5q0 93 -56.5 164.5t-139 106t-171.5 34.5q-90 0 -171.5 -37t-134 -109t-52.5 -161zM293 1077q0 -76 49 -134.5t119.5 -86t144.5 -27.5q75 0 146 28.5 t120.5 88t49.5 135.5q0 112 -94 179t-224 67q-126 0 -218.5 -69t-92.5 -181z" />
<glyph unicode="9" horiz-adv-x="1234" d="M90 965q0 103 40 195.5t108.5 159t163.5 105.5t202 39q234 0 378 -163t144 -443q0 -434 -143.5 -656t-392.5 -222q-143 0 -257.5 72t-174.5 200l88 80q43 -103 137 -165.5t209 -62.5q183 0 292 168t109 465q-44 -120 -154.5 -192t-248.5 -72q-137 0 -252 66t-181.5 179 t-66.5 247zM225 967q0 -155 112 -267t267 -112t268 111.5t113 265.5t-114 266t-269 112t-266 -111t-111 -265z" />
<glyph unicode=":" horiz-adv-x="385" d="M131 82q0 38 27 65t65 27t65 -27t27 -65t-27 -65t-65 -27t-65 27t-27 65zM131 977q0 38 27 65t65 27t65 -27t27 -65t-27 -65t-65 -27t-65 27t-27 65z" />
<glyph unicode=";" horiz-adv-x="419" d="M-8 -287h117l186 482h-166zM115 971q0 46 32 78t76 32q46 0 78.5 -32t32.5 -78q0 -44 -32.5 -76.5t-78.5 -32.5q-44 0 -76 32.5t-32 76.5z" />
<glyph unicode="&#x3c;" horiz-adv-x="1040" d="M68 489v76l858 516v-149l-656 -402l656 -399v-154z" />
<glyph unicode="=" horiz-adv-x="897" d="M139 397v101h619v-101h-619zM139 633v100h619v-100h-619z" />
<glyph unicode="&#x3e;" horiz-adv-x="1040" d="M113 -23v154l655 399l-655 402v149l858 -516v-76z" />
<glyph unicode="?" horiz-adv-x="974" d="M72 1208q56 123 173.5 194t254.5 71q77 0 147.5 -24.5t127 -71.5t90.5 -124t34 -172q0 -45 -9 -85t-20.5 -68.5t-36.5 -57.5t-42 -45.5t-54 -40.5t-54 -34t-60 -33q-37 -20 -57.5 -33t-49 -39.5t-43.5 -54.5t-26 -73.5t-11 -102.5h-119q0 132 42 212.5t133 135.5 q16 9 58 32.5t65.5 37.5t58.5 42.5t54 56t33.5 69.5t14.5 90q0 126 -82 196t-196 70q-105 0 -194.5 -59t-135.5 -150zM270 96q0 46 32.5 78.5t76.5 32.5q46 0 78 -32.5t32 -78.5q0 -44 -32 -76t-78 -32q-44 0 -76.5 32t-32.5 76z" />
<glyph unicode="@" horiz-adv-x="1714" d="M92 471q0 170 64 317t170.5 246t245.5 155t288 56q152 0 290 -58t241 -160t164 -251t61 -321q0 -32 -2 -65t-9.5 -84.5t-19.5 -96t-36 -92.5t-55 -82t-79.5 -56t-107.5 -22q-92 0 -131 47t-50 129q-62 -59 -151 -96t-187 -37q-145 0 -231 80t-86 205q0 78 34.5 135.5 t92.5 88.5t123.5 45.5t138.5 14.5q118 0 250 -43q-2 149 -56.5 227t-187.5 78q-161 0 -291 -102l-45 100q166 113 347 113q65 0 117.5 -14t88 -36.5t62 -57t41 -70t23.5 -81.5t11.5 -84.5t2.5 -86.5v-264q0 -103 18 -149t76 -46t100.5 41t64 107t31 130t9.5 128 q0 193 -86.5 352.5t-239 251.5t-338.5 92q-184 0 -337.5 -87t-244 -244.5t-90.5 -352.5q0 -190 85 -348t237 -250t338 -92q154 0 321 82l33 -84q-169 -88 -354 -88q-153 0 -291.5 59.5t-240.5 161.5t-162 248t-60 311zM575 289q0 -84 62 -137.5t158 -53.5q98 0 190 45 q78 36 105.5 88.5t27.5 120.5v82q-9 1 -50 13t-97.5 22t-114.5 10t-106 -9.5t-88.5 -30.5t-63.5 -59.5t-23 -90.5z" />
<glyph unicode="A" horiz-adv-x="1384" d="M25 0l608 1454h121l604 -1454h-152l-188 455h-653l-187 -455h-153zM395 567h590l-293 719z" />
<glyph unicode="B" horiz-adv-x="1363" d="M182 0v1454h701q98 0 175.5 -55.5t116.5 -139t39 -176.5q0 -110 -55.5 -202t-152.5 -136q124 -37 197 -137.5t73 -232.5q0 -106 -55.5 -192.5t-148.5 -134.5t-204 -48h-686zM326 125h542q109 0 187 82.5t78 191.5q0 110 -72.5 193.5t-177.5 83.5h-557v-551zM326 793h499 q105 0 176.5 80t71.5 188q0 112 -67 190t-168 78h-512v-536z" />
<glyph unicode="C" horiz-adv-x="1404" d="M86 737q0 133 47 261t132.5 232t219 168t291.5 64q188 0 328.5 -86.5t208.5 -230.5l-113 -70q-45 92 -119 152t-151 83t-162 23q-101 0 -189 -34.5t-151.5 -93.5t-109 -136.5t-67.5 -164t-22 -175.5q0 -160 71 -300.5t197.5 -226t276.5 -85.5q86 0 169 27.5t159.5 90 t120.5 152.5l118 -61q-45 -104 -140.5 -182.5t-208 -117t-226.5 -38.5q-116 0 -223 42t-189 115.5t-143 168t-93 204t-32 219.5z" />
<glyph unicode="D" horiz-adv-x="1464" d="M182 0v1454h494q136 0 250 -37t195.5 -103t138.5 -156.5t84.5 -199t27.5 -229.5q0 -331 -189.5 -530t-506.5 -199h-494zM326 127h350q175 0 302 80t189 214.5t62 307.5q0 267 -146.5 432.5t-406.5 165.5h-350v-1200z" />
<glyph unicode="E" horiz-adv-x="1247" d="M182 0v1454h959v-127h-815v-524h710v-121h-710v-555h833v-127h-977z" />
<glyph unicode="F" horiz-adv-x="1206" d="M182 0v1454h955v-127h-811v-534h684v-119h-684v-674h-144z" />
<glyph unicode="G" horiz-adv-x="1499" d="M47 731q0 149 53.5 283.5t147.5 233.5t229 157.5t291 58.5q181 0 350.5 -89.5t257.5 -229.5l-123 -80q-65 110 -202.5 190t-290.5 80q-127 0 -235.5 -50t-181 -133.5t-113 -194.5t-40.5 -232q0 -97 26 -187.5t76 -166t118.5 -132.5t158.5 -88.5t191 -31.5q109 0 208.5 39 t170.5 104.5t118 149.5t60 174h-430v129h579q0 -5 -1 -41t-1 -43q-11 -127 -67 -243.5t-145 -204.5t-215 -140.5t-267 -52.5q-131 0 -246 38.5t-201.5 107.5t-149 161.5t-94.5 203.5t-32 230z" />
<glyph unicode="H" horiz-adv-x="1511" d="M182 0v1454h144v-647h862v647h141v-1454h-141v680h-862v-680h-144z" />
<glyph unicode="I" horiz-adv-x="507" d="M182 0v1454h144v-1454h-144z" />
<glyph unicode="J" horiz-adv-x="985" d="M10 246q51 -121 162 -195t244 -74q95 0 179 29t150 84.5t103 146.5q35 84 35 190v17v1010h-144v-999q0 -90 -26.5 -157.5t-72.5 -107t-102 -58.5t-122 -19q-95 0 -169.5 53.5t-109.5 138.5z" />
<glyph unicode="K" horiz-adv-x="1316" d="M182 0v1452h144v-844l800 846h158l-594 -639l625 -815h-158l-557 731l-274 -285v-446h-144z" />
<glyph unicode="L" horiz-adv-x="1193" d="M182 0v1454h144v-1327h839v-127h-983z" />
<glyph unicode="M" horiz-adv-x="1796" d="M182 0v1454h148l567 -995l571 995h146v-1454h-144v1194l-530 -924h-84l-530 924v-1194h-144z" />
<glyph unicode="N" horiz-adv-x="1581" d="M182 0v1454h111l962 -1210v1208h144v-1452h-125l-948 1188v-1188h-144z" />
<glyph unicode="O" horiz-adv-x="1538" d="M86 727q0 144 53 278.5t142.5 235.5t218 162t270.5 61q118 0 226 -41.5t189.5 -113.5t142 -166t91.5 -201.5t31 -216.5q0 -144 -52.5 -278t-142 -235t-217.5 -161.5t-270 -60.5q-148 0 -277.5 63t-217 166t-137.5 235.5t-50 272.5zM229 727q0 -118 40 -228t109.5 -194 t171.5 -135t218 -51q120 0 223 53t171 139t106.5 194.5t38.5 221.5q0 158 -68 296t-193 224t-278 86q-120 0 -223 -52.5t-171 -138t-106.5 -194t-38.5 -221.5z" />
<glyph unicode="P" horiz-adv-x="1273" d="M182 0v1454h602q120 0 221.5 -67.5t156.5 -172t55 -217.5q0 -120 -52 -224.5t-149.5 -170t-218.5 -65.5h-471v-537h-144zM326 664h465q125 0 203.5 98t78.5 235q0 136 -87.5 233t-207.5 97h-452v-663z" />
<glyph unicode="Q" horiz-adv-x="1533" d="M86 727q0 144 53 278.5t142.5 235.5t218 162t270.5 61q118 0 226 -41.5t189.5 -113.5t142 -166t91.5 -201.5t31 -216.5q0 -147 -54 -283t-151 -239l137 -160l-86 -63l-131 149q-179 -139 -397 -139q-119 1 -226.5 41.5t-189.5 111.5t-142.5 163.5t-92 201t-31.5 219.5z M229 727q0 -118 40 -228t109.5 -194t171.5 -135t218 -51q174 0 313 110l-153 172l88 68l141 -162q72 86 111 196t39 224q0 158 -68 296.5t-193 225t-278 86.5q-96 0 -182.5 -34t-150.5 -93.5t-111 -136.5t-71 -165.5t-24 -178.5z" />
<glyph unicode="R" horiz-adv-x="1337" d="M182 0v1454h615q120 0 220.5 -67.5t155 -172t54.5 -217.5q0 -160 -90 -283.5t-234 -152.5l357 -561h-162l-342 537h-430v-537h-144zM326 664h475q83 0 148.5 47.5t99.5 123t34 162.5q0 133 -87.5 231.5t-207.5 98.5h-462v-663z" />
<glyph unicode="S" horiz-adv-x="1243" d="M66 199l71 116q82 -88 219.5 -144t296.5 -56q176 0 272.5 64t96.5 188q0 53 -19 93.5t-51 70t-90 54.5t-120.5 43t-157.5 40q-99 23 -166 44t-128 51.5t-96 68.5t-55 91.5t-20 123.5q0 198 142.5 307.5t375.5 109.5q273 0 465 -168l-70 -114q-64 71 -167 113t-230 42 q-187 0 -278 -70.5t-91 -199.5q0 -51 16 -89.5t44 -65.5t81.5 -49.5t111.5 -38.5t151 -36q84 -19 145 -36t122 -41.5t101.5 -54t73 -69t47.5 -91t15 -115.5q0 -130 -68.5 -220t-184.5 -131.5t-272 -41.5q-337 0 -583 211z" />
<glyph unicode="T" horiz-adv-x="1249" d="M35 1327v127h1179v-127h-518v-1327h-143v1327h-518z" />
<glyph unicode="U" horiz-adv-x="1546" d="M162 721v733h141v-733q0 -96 14 -180t48 -163t86 -135.5t134 -90t187 -33.5q107 0 190.5 34.5t135.5 91.5t85.5 136.5t46.5 162.5t13 177v733h143v-733q0 -121 -20.5 -226.5t-67 -199.5t-116 -160.5t-174 -105.5t-234.5 -39q-134 0 -240 41t-175 109t-114 163.5 t-64 198.5t-19 219z" />
<glyph unicode="V" horiz-adv-x="1390" d="M27 1454h149l520 -1276l518 1276h150l-606 -1454h-125z" />
<glyph unicode="W" horiz-adv-x="2174" d="M43 1454h160l389 -1247l409 1247h156l426 -1247l389 1247h160l-463 -1454h-149l-439 1223l-426 -1223h-149z" />
<glyph unicode="X" horiz-adv-x="1294" d="M10 1454h162l477 -635l477 635h158l-559 -737l543 -717h-158l-461 614l-461 -614h-161l542 717z" />
<glyph unicode="Y" horiz-adv-x="1333" d="M33 1454h157l476 -782l479 782h155l-563 -913v-541h-143v545z" />
<glyph unicode="Z" horiz-adv-x="1288" d="M63 0v113l990 1214h-973v127h1139v-113l-977 -1214h975v-127h-1154z" />
<glyph unicode="[" horiz-adv-x="528" d="M180 -82v1598h244v-117h-113v-1364h113v-117h-244z" />
<glyph unicode="\" horiz-adv-x="860" d="M31 1473l131 43l655 -1516l-123 -45z" />
<glyph unicode="]" horiz-adv-x="528" d="M102 35h115v1364h-115v117h246v-1598h-246v117z" />
<glyph unicode="^" horiz-adv-x="1103" d="M88 621l406 833h118l404 -833h-123l-340 702l-346 -702h-119z" />
<glyph unicode="_" horiz-adv-x="1046" d="M133 0h780v-127h-780v127z" />
<glyph unicode="`" horiz-adv-x="454" d="M66 1538h192l182 -317h-82z" />
<glyph unicode="a" horiz-adv-x="1110" d="M68 311q0 81 39.5 144.5t105 101t142.5 57t159 19.5q194 0 315 -55v96q0 139 -80.5 223t-220.5 84q-158 0 -342 -127l-49 92q210 139 404 139q205 0 316.5 -115.5t111.5 -307.5v-662h-133v168q-71 -93 -180.5 -140.5t-233.5 -47.5q-150 0 -252 95.5t-102 235.5zM201 322 q0 -103 75 -169.5t179 -66.5q101 0 195.5 38.5t144.5 111.5q34 40 34 79v174q-145 56 -297 56q-60 0 -116.5 -12.5t-105.5 -38t-79 -70t-30 -102.5z" />
<glyph unicode="b" horiz-adv-x="1263" d="M154 0v1495h139v-651q158 241 405 241q108 0 201 -47.5t154 -125.5t95 -177.5t34 -204.5q0 -148 -66 -274t-183 -201t-257 -75q-123 0 -229.5 62.5t-167.5 164.5v-207h-125zM293 365q10 -70 68 -132t135 -96.5t147 -34.5q113 0 205 61.5t142 159t50 207.5 q0 112 -47.5 210.5t-136 160.5t-197.5 62q-119 0 -215 -75.5t-151 -191.5v-331z" />
<glyph unicode="c" horiz-adv-x="1124" d="M80 537q0 151 67 276t190 198.5t277 73.5q149 0 263 -68t172 -186l-136 -43q-44 82 -125.5 128.5t-179.5 46.5q-164 0 -275.5 -122t-111.5 -304q0 -180 115 -307.5t274 -127.5q102 0 194.5 54.5t117.5 128.5l137 -41q-45 -116 -167.5 -190t-275.5 -74q-152 0 -275.5 76 t-192 203t-68.5 278z" />
<glyph unicode="d" horiz-adv-x="1265" d="M82 530q0 150 62 276.5t174 202.5t249 76q127 0 230.5 -66.5t175.5 -174.5v651h139v-1495h-139v199q-63 -100 -164.5 -159.5t-216.5 -59.5q-108 0 -204.5 45.5t-162.5 121.5t-104.5 176t-38.5 207zM225 530q0 -114 52.5 -212.5t144.5 -157t201 -58.5q71 0 149 35 t135.5 98t65.5 132v329q-38 111 -147.5 189t-221.5 78q-110 0 -198.5 -63.5t-134.5 -161.5t-46 -208z" />
<glyph unicode="e" horiz-adv-x="1202" d="M80 537q0 148 68 273.5t191 200t273 74.5q152 0 274.5 -75.5t188.5 -200t66 -270.5q0 -48 -2 -56h-914q13 -171 127 -284t269 -113q105 0 197 53.5t130 139.5l121 -33q-50 -118 -175.5 -192t-279.5 -74q-151 0 -274.5 76t-191.5 203.5t-68 277.5zM223 590h785 q-13 169 -125 278t-269 109q-158 0 -269.5 -109.5t-121.5 -277.5z" />
<glyph unicode="f" horiz-adv-x="706" d="M59 954v111h148v31q0 212 82.5 316t232.5 104q116 0 213 -70l-63 -94q-63 49 -133 49q-100 0 -146.5 -71t-46.5 -230v-35h295v-111h-295v-954h-139v954h-148z" />
<glyph unicode="g" horiz-adv-x="1265" d="M82 530q0 148 62 274.5t176.5 203.5t257.5 77q244 0 409 -241v223h125v-1071q0 -144 -72 -248.5t-188.5 -154.5t-261.5 -50q-176 0 -290 62t-189 180l86 68q61 -98 165 -148.5t228 -50.5q79 0 147.5 21.5t121.5 63t83.5 108t30.5 149.5v211q-61 -101 -168 -161t-223 -60 q-142 0 -258 77.5t-179 201.5t-63 265zM223 528q0 -113 53 -211t145 -156.5t200 -58.5q122 0 227.5 82t124.5 183v329q-44 116 -149 191.5t-220 75.5q-114 0 -203 -65.5t-133.5 -163.5t-44.5 -206z" />
<glyph unicode="h" horiz-adv-x="1193" d="M154 0v1495h139v-670q63 120 176 190t244 70q175 0 256.5 -121.5t81.5 -338.5v-625h-140v596q0 362 -245 362q-120 0 -228.5 -88t-144.5 -217v-653h-139z" />
<glyph unicode="i" horiz-adv-x="446" d="M127 1403q0 38 27 65t65 27t65 -27t27 -65t-27 -65t-65 -27t-65 27t-27 65zM154 0v1067h139v-1067h-139z" />
<glyph unicode="j" horiz-adv-x="446" d="M127 1403q0 38 27 65t65 27t65 -27t27 -65t-27 -65t-65 -27t-65 27t-27 65zM154 -436v1495h139v-1495h-139z" />
<glyph unicode="k" horiz-adv-x="1085" d="M154 0v1495h139v-1016l600 586h158l-437 -436l453 -629h-152l-393 547l-229 -213v-334h-139z" />
<glyph unicode="l" horiz-adv-x="468" d="M166 0v1495h139v-1495h-139z" />
<glyph unicode="m" horiz-adv-x="1882" d="M154 0v1067h127v-242q66 124 172.5 192t234.5 68q131 0 214 -75t102 -199q149 274 411 274q172 0 249 -119.5t77 -340.5v-625h-139v596q0 362 -236 362q-120 0 -215.5 -85t-134.5 -222v-651h-139v596q0 188 -57.5 275t-176.5 87t-214.5 -84t-135.5 -221v-653h-139z" />
<glyph unicode="n" horiz-adv-x="1193" d="M154 0v1067h127v-242q65 118 187.5 189t264.5 71q87 0 149.5 -31.5t99 -93.5t53 -144t16.5 -191v-625h-140v596q0 188 -55.5 275t-173.5 87q-125 0 -238 -87.5t-151 -217.5v-653h-139z" />
<glyph unicode="o" d="M80 530q0 111 40 212.5t109 177t168 120.5t211 45q150 0 272.5 -76t190.5 -203t68 -276q0 -148 -67.5 -273.5t-190 -201t-273.5 -75.5t-273 75.5t-188.5 201t-66.5 273.5zM221 528q0 -178 113.5 -302t273.5 -124t274.5 126t114.5 304t-114.5 304.5t-274.5 126.5 q-104 0 -193 -58t-141.5 -158.5t-52.5 -218.5z" />
<glyph unicode="p" horiz-adv-x="1263" d="M154 -436v1503h125v-207q66 102 172 163.5t225 61.5q142 0 259.5 -79t182 -205.5t64.5 -268.5q0 -150 -60.5 -276t-172 -201t-251.5 -75q-128 0 -233.5 66.5t-171.5 174.5v-657h-139zM293 371q48 -117 149 -193t217 -76q111 0 200 62.5t135 160t46 207.5 q0 174 -116 302.5t-281 128.5q-70 0 -147 -35.5t-135 -98.5t-68 -131v-327z" />
<glyph unicode="q" horiz-adv-x="1263" d="M82 532q0 147 67 274t184.5 203t256.5 76q121 0 227 -63t168 -164v209h125v-1503h-139v657q-76 -118 -180 -179.5t-226 -61.5q-140 0 -252 78t-171.5 203.5t-59.5 270.5zM223 530q0 -115 48.5 -212.5t137.5 -156.5t199 -59q118 0 211 70.5t152 181.5v330 q-17 109 -127.5 194t-227.5 85q-111 0 -202.5 -63t-141 -162t-49.5 -208z" />
<glyph unicode="r" horiz-adv-x="718" d="M154 0v1067h131v-256q60 123 160 192.5t214 69.5q17 0 27 -2v-127q-141 -5 -246 -78.5t-147 -201.5v-664h-139z" />
<glyph unicode="s" horiz-adv-x="997" d="M59 139l64 94q178 -147 383 -147q129 0 205.5 53.5t76.5 147.5q0 35 -14 62t-35.5 45.5t-66.5 36t-87.5 29t-117.5 29.5q-83 20 -133.5 36t-98.5 38t-72.5 48t-39 63.5t-14.5 87.5q0 104 55 178.5t143.5 109.5t200.5 35q120 0 221 -39.5t164 -105.5l-68 -82 q-59 60 -143.5 91.5t-177.5 31.5q-116 0 -189 -50t-73 -149q0 -34 10.5 -58.5t27 -41t53.5 -31.5t73 -25t102 -26q92 -22 150 -39.5t114 -42.5t86 -54t48 -70t18 -95q0 -146 -113.5 -232.5t-302.5 -86.5q-127 0 -245.5 41t-203.5 118z" />
<glyph unicode="t" horiz-adv-x="686" d="M72 956v111h147v272h139v-272h246v-111h-246v-733q4 -67 38 -89.5t91 -22.5q62 0 127 36l41 -110q-110 -49 -211 -49q-94 0 -159.5 62t-65.5 165v741h-147z" />
<glyph unicode="u" horiz-adv-x="1208" d="M143 440v627h140v-602q0 -64 6.5 -115t23.5 -99t45.5 -79.5t74 -50.5t106.5 -19q124 0 228.5 84.5t147.5 208.5v672h140v-1067h-135v233q-62 -117 -178 -185t-248 -68q-82 0 -144 24.5t-101 66t-63 102t-33.5 125t-9.5 142.5z" />
<glyph unicode="v" horiz-adv-x="1091" d="M39 1067h143l367 -938l369 938h135l-435 -1067h-145z" />
<glyph unicode="w" horiz-adv-x="1697" d="M45 1067h145l308 -893l284 893h133l285 -893l307 893h146l-375 -1067h-148l-280 856l-285 -856h-145z" />
<glyph unicode="x" horiz-adv-x="1032" d="M31 0l407 530l-407 537h149l320 -418l16 -31l16 31l320 418h149l-407 -537l407 -530h-149l-320 416l-16 28l-16 -28l-320 -416h-149z" />
<glyph unicode="y" horiz-adv-x="1110" d="M27 1067h145l395 -938l365 938h133l-555 -1376q-27 -69 -85.5 -108.5t-143.5 -39.5q-63 0 -93 6l13 125q24 -4 51 -4q35 0 55 5t39 20t35 45.5t37 79t51 122.5q15 37 23 58z" />
<glyph unicode="z" horiz-adv-x="1007" d="M63 0v94l721 869h-704v104h856v-94l-719 -869h717v-104h-871z" />
<glyph unicode="{" horiz-adv-x="530" d="M109 686v107q38 0 58.5 36.5t20.5 71.5v553q0 33 16 47.5t32 14.5h192v-117h-113v-535q0 -77 -55 -127q29 -25 42 -61t13 -66v-557h113v-116h-192q-20 0 -34 14.5t-14 46.5v575q0 42 -21.5 75.5t-57.5 37.5z" />
<glyph unicode="|" horiz-adv-x="473" d="M176 -266v1853h121v-1853h-121z" />
<glyph unicode="}" horiz-adv-x="530" d="M102 53h113v557q0 81 53 127q-53 48 -53 127v535h-113v117h193q15 0 31 -14.5t16 -47.5v-553q0 -35 20 -71.5t58 -36.5v-107q-36 -4 -57 -37t-21 -76v-575q0 -32 -14.5 -46.5t-32.5 -14.5h-193v116z" />
<glyph unicode="~" horiz-adv-x="1046" d="M135 494q0 10 7 32.5t24.5 53.5t41.5 58.5t63 47t85 19.5q42 0 88 -18.5t80 -41t78 -41t82 -18.5q29 0 54 10t40.5 24.5t26.5 30t15.5 26.5t4.5 15h88q0 -6 -6.5 -25.5t-24.5 -49.5t-42.5 -57t-66.5 -46.5t-91 -19.5q-45 0 -94 18.5t-84 40.5t-76.5 40.5t-73.5 18.5 q-27 0 -50.5 -12t-37.5 -28.5t-24.5 -34.5t-14.5 -29.5t-4 -13.5h-88z" />
<glyph unicode="&#xa1;" horiz-adv-x="573" d="M182 1354q0 46 32 78t77 32q46 0 78 -32t32 -78q0 -44 -32.5 -76.5t-77.5 -32.5q-44 0 -76.5 32.5t-32.5 76.5zM221 -4v1001h139v-1001h-139z" />
<glyph unicode="&#xa2;" horiz-adv-x="1148" d="M88 528q0 103 34 199t94.5 171.5t151 125t197.5 59.5v238h76v-238q294 -9 416 -252l-133 -43q-91 160 -283 170v-854q55 3 115.5 25.5t111 64.5t64.5 91l137 -41q-31 -83 -107 -145.5t-159.5 -90.5t-161.5 -28v-226h-76v228q-135 11 -246 93t-171 202.5t-60 250.5z M231 528q0 -153 95 -273.5t239 -143.5v843q-102 -10 -180 -75t-116 -157t-38 -194z" />
<glyph unicode="&#xa3;" horiz-adv-x="1021" d="M106 651v111h193q-11 22 -45.5 83t-49 91t-29.5 81t-15 97q0 146 108 248t262 102q110 0 210 -57.5t161 -157.5l-82 -86q-50 85 -129 135t-164 50q-100 0 -168.5 -70.5t-68.5 -171.5q0 -54 20.5 -107.5t62 -126.5t58.5 -110h365v-111h-324q16 -62 16 -123 q0 -103 -47.5 -197.5t-163.5 -219.5q74 18 150 18q60 0 152 -18.5t139 -18.5q72 0 182 37l35 -106q-108 -54 -223 -54q-61 0 -169.5 24.5t-172.5 24.5q-103 0 -222 -34l-36 102q140 139 197 236.5t57 197.5q0 59 -21 131h-238z" />
<glyph unicode="&#xa4;" horiz-adv-x="1099" d="M109 315l145 146q-74 104 -74 227q0 130 72 227l-143 146l67 67l143 -145q93 80 230 80q128 0 231 -80l144 145l69 -67l-147 -148q72 -98 72 -225q0 -126 -74 -225l149 -148l-61 -59l-152 141q-96 -80 -231 -80q-131 0 -234 80l-145 -141zM297 686q0 -112 74 -191 t178 -79t178 80t74 194q0 115 -73.5 194t-178.5 79t-178.5 -80.5t-73.5 -196.5z" />
<glyph unicode="&#xa5;" horiz-adv-x="1384" d="M59 1454h156l475 -782l479 782h158l-442 -704h172v-99h-228l-67 -110v-56h297v-98h-297v-387h-144v387h-292v98h292v60l-63 106h-229v99h176z" />
<glyph unicode="&#xa6;" horiz-adv-x="479" d="M178 -266v833h123v-833h-123zM178 754v833h123v-833h-123z" />
<glyph unicode="&#xa7;" horiz-adv-x="1036" d="M96 1110q0 154 122 254t292 100q122 0 214 -54t150 -140l-110 -51q-30 60 -102 89t-152 29q-115 0 -194.5 -60.5t-79.5 -170.5q0 -49 19 -86t44.5 -57t66.5 -33t70.5 -17.5t69.5 -7.5q64 -5 116.5 -15.5t109 -33t95 -55t63.5 -86.5t25 -123q0 -125 -61 -193 q94 -58 94 -209q0 -94 -39 -167.5t-102 -116.5t-134.5 -64.5t-144.5 -21.5q-219 0 -401 186l92 86q145 -139 303 -139q114 0 198.5 61.5t84.5 169.5q0 46 -18 79.5t-41.5 51.5t-64 30t-66.5 15.5t-68 6.5q-400 36 -400 325q0 113 54 182q-45 32 -75 96.5t-30 139.5zM283 674 q0 -58 24 -98.5t60.5 -59.5t87 -31t96 -16t95 -11t77.5 -18q28 22 43.5 62.5t15.5 85.5q0 56 -25 97t-67.5 62.5t-86 31.5t-93.5 12q-42 1 -62 2.5t-52 7.5t-62 18q-51 -48 -51 -145z" />
<glyph unicode="&#xa8;" horiz-adv-x="673" d="M57 1395q0 38 27.5 65t65.5 27t65 -27t27 -65t-27 -65t-65 -27t-65.5 27t-27.5 65zM432 1395q0 38 27 65t65 27t65 -27t27 -65t-27 -65t-65 -27t-65 27t-27 65z" />
<glyph unicode="&#xa9;" horiz-adv-x="1703" d="M98 727q0 156 57 293t156.5 234.5t239 153.5t299.5 56q214 0 387 -95.5t271 -264.5t98 -377q0 -157 -57.5 -294.5t-157.5 -235.5t-240.5 -154.5t-300.5 -56.5t-299.5 56.5t-239 154.5t-156.5 235.5t-57 294.5zM170 725q0 -189 88 -343t243.5 -241.5t348.5 -87.5 q191 0 347 84t246.5 237.5t90.5 348.5q0 143 -52 268t-142.5 214.5t-217.5 140.5t-272 51q-192 0 -347.5 -87t-244 -241t-88.5 -344zM387 727q0 70 18 138t55.5 129.5t91.5 108.5t132 75t170 28q136 0 241.5 -59.5t151.5 -167.5l-135 -43q-37 81 -109.5 114t-148.5 33 q-78 0 -141.5 -31t-102.5 -82.5t-59.5 -114t-20.5 -128.5q0 -81 30.5 -149.5t78.5 -112t105.5 -68t113.5 -24.5q80 0 157.5 43t110.5 112l136 -39q-15 -39 -50 -79.5t-84.5 -76.5t-118.5 -58.5t-143 -22.5q-126 0 -234.5 57.5t-176.5 167.5t-68 250z" />
<glyph unicode="&#xaa;" horiz-adv-x="888" d="M98 934q0 98 85.5 160.5t219.5 62.5q126 0 207 -37v58q0 88 -51 139t-143 51q-109 0 -234 -84l-41 76q143 94 285 94q144 0 225.5 -76t81.5 -213v-444h-102l-2 121q-51 -64 -126.5 -98.5t-162.5 -34.5q-102 0 -172 65t-70 160zM213 942q0 -60 46 -100.5t114 -40.5 q66 0 124 24t89 64q24 24 24 53v107q-70 32 -188 32q-94 0 -151.5 -38t-57.5 -101z" />
<glyph unicode="&#xab;" horiz-adv-x="1173" d="M84 489v76l508 365v-121l-395 -279l395 -274v-121zM535 489v76l509 365v-121l-395 -279l395 -274v-121z" />
<glyph unicode="&#xac;" horiz-adv-x="1191" d="M150 618v127h899v-487h-123v360h-776z" />
<glyph unicode="&#xad;" horiz-adv-x="1167" d="M133 494v129h899v-129h-899z" />
<glyph unicode="&#xae;" horiz-adv-x="1703" d="M98 727q0 208 97.5 377t270 264.5t386.5 95.5q213 0 385.5 -95.5t270.5 -264.5t98 -377q0 -157 -57.5 -294.5t-157 -235.5t-239.5 -154.5t-300 -56.5t-300.5 56.5t-240 154.5t-156.5 235.5t-57 294.5zM172 727q0 -190 87.5 -345t243.5 -243t349 -88q191 0 345.5 84 t244.5 239t90 351q0 189 -88 343t-243.5 241.5t-348.5 87.5t-349 -87.5t-243.5 -241t-87.5 -341.5zM539 260v928h391q116 0 196 -90.5t80 -202.5q0 -101 -59 -179.5t-152 -97.5l228 -358h-119l-217 344h-240v-344h-108zM647 698h283q81 0 125.5 55t44.5 142q0 85 -50.5 140 t-127.5 55h-275v-392z" />
<glyph unicode="&#xaf;" horiz-adv-x="811" d="M111 1358v96h591v-96h-591z" />
<glyph unicode="&#xb0;" horiz-adv-x="544" d="M102 1315q0 70 49.5 119t120.5 49q72 0 121 -48.5t49 -119.5q0 -73 -49 -122.5t-121 -49.5q-71 0 -120.5 49.5t-49.5 122.5zM182 1313q0 -37 27 -64q26 -26 63 -26q40 0 66 26q24 27 24 64q0 36 -24 63t-66 27q-39 0 -63 -27q-27 -27 -27 -63z" />
<glyph unicode="&#xb1;" horiz-adv-x="956" d="M147 125v117h662v-117h-662zM147 688v117h267v287h129v-287h266v-117h-266v-287h-129v287h-267z" />
<glyph unicode="&#xb2;" horiz-adv-x="794" d="M74 834q0 153 61 237t197 137q17 7 63 23.5t67 25t55.5 27t51 35.5t30 43t13.5 57q0 66 -54.5 109t-154.5 43q-157 0 -260 -113l-61 64q10 15 33.5 35t64 45t103.5 42t133 17q144 0 221.5 -67.5t77.5 -176.5q0 -41 -12.5 -75.5t-38.5 -61t-50 -45t-64 -36t-62 -25.5 t-62 -21q-126 -41 -183 -103.5t-57 -127.5h519v-88h-631z" />
<glyph unicode="&#xb3;" horiz-adv-x="798" d="M72 1004l55 59q7 -55 80.5 -102.5t179.5 -47.5q102 0 171 40.5t69 105.5q0 71 -82.5 111t-222.5 40h-48v84h48q131 0 203.5 34.5t72.5 101.5q0 66 -63 106.5t-154 40.5q-83 0 -145.5 -31t-94.5 -84l-61 70q36 59 119 94t182 35q135 0 225 -64t90 -161q0 -70 -47.5 -116 t-138.5 -65q94 -13 151.5 -71t57.5 -137q0 -102 -96.5 -164t-233.5 -62q-128 0 -215 50t-102 133z" />
<glyph unicode="&#xb4;" horiz-adv-x="454" d="M66 1221l182 317h192l-293 -317h-81z" />
<glyph unicode="&#xb5;" horiz-adv-x="1269" d="M168 -434v1501h139v-602q0 -183 62.5 -273t189.5 -90q123 0 229.5 80.5t153.5 212.5v672h139v-1067h-123v242q-55 -112 -168.5 -187t-238.5 -75q-95 0 -159 47t-93 127v-588h-131z" />
<glyph unicode="&#xb6;" horiz-adv-x="1232" d="M70 961q0 232 152 362.5t425 130.5h494v-111h-144v-1507h-123v637h-151v-637h-121v637q-246 3 -389 133.5t-143 354.5zM190 965q0 -92 32.5 -164.5t90 -117.5t130.5 -69.5t159 -29.5v759q-197 -1 -304.5 -102t-107.5 -276zM723 584h151v759h-151v-759z" />
<glyph unicode="&#xb7;" horiz-adv-x="387" d="M96 618q0 42 30.5 72.5t72.5 30.5t72 -30.5t30 -72.5q0 -43 -29.5 -72.5t-72.5 -29.5t-73 29.5t-30 72.5z" />
<glyph unicode="&#xb8;" horiz-adv-x="579" d="M45 -322l35 64q76 -37 180 -37q117 0 117 72q0 73 -103 73q-81 0 -163 -28l116 215l68 -27l-72 -114q30 12 78 12q72 0 114 -32.5t42 -92.5q0 -69 -54 -106t-155 -37q-102 0 -203 38z" />
<glyph unicode="&#xb9;" horiz-adv-x="557" d="M70 1548l196 113h92v-830h-92v725l-151 -81z" />
<glyph unicode="&#xba;" horiz-adv-x="919" d="M90 1081q0 155 104.5 264t264.5 109t265 -109t105 -264q0 -153 -104.5 -262.5t-265.5 -109.5t-265 109.5t-104 262.5zM207 1079q0 -113 73.5 -191.5t178.5 -78.5t178.5 79.5t73.5 194.5q0 114 -73.5 192.5t-178.5 78.5q-103 0 -177.5 -80t-74.5 -195z" />
<glyph unicode="&#xbb;" horiz-adv-x="1173" d="M129 135v121l395 274l-395 279v121l510 -365v-76zM582 135v121l395 274l-395 279v121l508 -365v-76z" />
<glyph unicode="&#xbc;" horiz-adv-x="1689" d="M90 1384l197 113h92v-829h-92v725l-156 -93zM272 55l572 697l557 710l72 -61l-572 -696l-559 -713zM940 211v86l496 520h63v-516h117v-90h-117v-211h-92v211h-467zM1038 301h371v391z" />
<glyph unicode="&#xbd;" horiz-adv-x="1769" d="M90 1384l197 113h92v-829h-92v725l-156 -93zM203 55l571 697l557 710l72 -61l-572 -696l-559 -713zM1057 0q0 154 60 239t192 138q16 6 52 19t55.5 21t49.5 21.5t47 27t34.5 31.5t25.5 40.5t8 48.5q0 66 -53 109.5t-150 43.5q-150 0 -254 -114l-59 65q13 16 34.5 34.5 t61.5 44t100.5 42t129.5 16.5q140 0 215 -67t75 -176q0 -28 -6.5 -53t-15 -44t-27 -38t-31 -31t-38.5 -26.5t-38.5 -21t-43 -18.5t-39.5 -15l-39 -13q-123 -42 -175 -105t-52 -129h507v-90h-626z" />
<glyph unicode="&#xbe;" horiz-adv-x="1714" d="M86 840l55 59q7 -55 80.5 -102t179.5 -47q102 0 171 40t69 105q0 71 -82.5 111.5t-222.5 40.5h-47v83h47q131 0 203.5 34.5t72.5 101.5q0 66 -63 106.5t-154 40.5q-83 0 -145 -31t-94 -84l-62 70q36 59 119 94t182 35q135 0 225.5 -64t90.5 -161q0 -141 -187 -180 q94 -13 151.5 -71.5t57.5 -137.5q0 -102 -96.5 -164t-233.5 -62q-128 0 -215 50t-102 133zM340 55l571 697l557 710l72 -61l-571 -696l-559 -713zM958 211v86l496 520h64v-516h116v-90h-116v-211h-93v211h-467zM1057 301h370v391z" />
<glyph unicode="&#xbf;" horiz-adv-x="960" d="M74 -45q0 45 9 85t20.5 68.5t36.5 57.5t42 45.5t54 40.5t54 34t60 33q37 20 57.5 33.5t49 39.5t43.5 54.5t26 74t11 102.5h118q0 -132 -41.5 -213t-132.5 -136q-16 -10 -57.5 -33t-65.5 -37t-59 -42.5t-54 -55.5t-33.5 -69t-14.5 -90q0 -126 82 -196t196 -70 q106 0 195 58.5t135 149.5l96 -61q-56 -123 -173.5 -193.5t-254.5 -70.5q-77 0 -147.5 24.5t-127 71.5t-90.5 123.5t-34 171.5zM483 930q0 46 32.5 78t76.5 32q46 0 78 -32t32 -78q0 -44 -32 -76.5t-78 -32.5q-44 0 -76.5 32.5t-32.5 76.5z" />
<glyph unicode="&#xc0;" horiz-adv-x="1384" d="M25 0l608 1454h121l604 -1454h-152l-188 455h-653l-187 -455h-153zM340 1925h192l183 -317h-82zM395 567h590l-293 719z" />
<glyph unicode="&#xc1;" horiz-adv-x="1384" d="M25 0l608 1454h121l604 -1454h-152l-188 455h-653l-187 -455h-153zM395 567h590l-293 719zM676 1604l182 317h193l-293 -317h-82z" />
<glyph unicode="&#xc2;" horiz-adv-x="1384" d="M25 0l608 1454h121l604 -1454h-152l-188 455h-653l-187 -455h-153zM352 1608l293 317h92l293 -317h-192l-146 235l-147 -235h-193zM395 567h590l-293 719z" />
<glyph unicode="&#xc3;" horiz-adv-x="1384" d="M25 0l608 1454h121l604 -1454h-152l-188 455h-653l-187 -455h-153zM367 1677q0 16 8 43t26.5 62.5t58.5 60.5t93 25q48 0 92.5 -21.5t86 -43t83.5 -21.5q30 0 53 10t34.5 23t18.5 28.5t9 24.5t2 14h86q0 -11 -4.5 -30t-18.5 -47.5t-35 -52.5t-58.5 -41t-84.5 -17 q-52 0 -99.5 20.5t-87.5 41t-75 20.5q-31 0 -53.5 -13.5t-32 -33t-13 -32.5t-3.5 -20h-86zM395 567h590l-293 719z" />
<glyph unicode="&#xc4;" horiz-adv-x="1384" d="M25 0l608 1454h121l604 -1454h-152l-188 455h-653l-187 -455h-153zM395 567h590l-293 719zM412 1782q0 38 27 65t65 27t65 -27t27 -65t-27 -65t-65 -27t-65 27t-27 65zM786 1782q0 38 27.5 65t65.5 27t65 -27t27 -65t-27 -65t-65 -27t-65.5 27t-27.5 65z" />
<glyph unicode="&#xc5;" horiz-adv-x="1384" d="M25 0l608 1454h121l604 -1454h-152l-188 455h-653l-187 -455h-153zM395 567h590l-293 719zM516 1769q0 70 49.5 113t126.5 43t125.5 -43t48.5 -113t-48.5 -112.5t-125.5 -42.5t-126.5 42.5t-49.5 112.5zM596 1769q0 -39 27.5 -65.5t68.5 -26.5q38 0 67 26.5t29 65.5 q0 41 -28 67t-68 26t-68 -26t-28 -67z" />
<glyph unicode="&#xc6;" horiz-adv-x="1968" d="M-53 0l936 1454h985v-127h-807v-522h696v-127h-696v-551h825v-127h-964v455h-531l-289 -455h-155zM457 582h454v700z" />
<glyph unicode="&#xc7;" horiz-adv-x="1398" d="M86 737q0 133 47 261t132.5 232t219 168t291.5 64q188 0 328.5 -86.5t208.5 -230.5l-113 -70q-45 92 -119 152t-151 83t-162 23q-101 0 -189 -34.5t-151.5 -93.5t-109 -136.5t-67.5 -164t-22 -175.5q0 -160 71 -300.5t197.5 -226t276.5 -85.5q86 0 169 27.5t159.5 90 t120.5 152.5l118 -61q-45 -104 -140.5 -182.5t-208 -117t-226.5 -38.5q-116 0 -223 42t-189 115.5t-143 168t-93 204t-32 219.5zM563 -322l35 64q76 -37 180 -37q117 0 117 72q0 73 -102 73q-82 0 -164 -28l116 215l68 -27l-72 -114q30 12 78 12q72 0 114 -32.5t42 -92.5 q0 -69 -54 -106t-155 -37q-102 0 -203 38z" />
<glyph unicode="&#xc8;" horiz-adv-x="1247" d="M182 0v1454h959v-127h-815v-524h710v-121h-710v-555h833v-127h-977zM403 1921h193l182 -317h-82z" />
<glyph unicode="&#xc9;" horiz-adv-x="1247" d="M182 0v1454h959v-127h-815v-524h710v-121h-710v-555h833v-127h-977zM553 1604l182 317h193l-293 -317h-82z" />
<glyph unicode="&#xca;" horiz-adv-x="1247" d="M182 0v1454h959v-127h-815v-524h710v-121h-710v-555h833v-127h-977zM340 1602l293 317h92l293 -317h-193l-145 235l-148 -235h-192z" />
<glyph unicode="&#xcb;" horiz-adv-x="1247" d="M182 0v1454h959v-127h-815v-524h710v-121h-710v-555h833v-127h-977zM389 1780q0 38 27 65t65 27t65 -27t27 -65t-27 -65t-65 -27t-65 27t-27 65zM764 1780q0 38 27 65t65 27t65 -27t27 -65t-27 -65t-65 -27t-65 27t-27 65z" />
<glyph unicode="&#xcc;" horiz-adv-x="507" d="M-25 1921h193l182 -317h-82zM182 0v1454h144v-1454h-144z" />
<glyph unicode="&#xcd;" horiz-adv-x="507" d="M182 0v1454h144v-1454h-144zM219 1604l182 317h193l-293 -317h-82z" />
<glyph unicode="&#xce;" horiz-adv-x="507" d="M-86 1602l293 317h92l293 -317h-193l-145 235l-148 -235h-192zM182 0v1454h144v-1454h-144z" />
<glyph unicode="&#xcf;" horiz-adv-x="507" d="M-25 1780q0 38 27.5 65t65.5 27t65 -27t27 -65t-27 -65t-65 -27t-65.5 27t-27.5 65zM182 0v1454h144v-1454h-144zM350 1780q0 38 27 65t65 27t65.5 -27t27.5 -65t-27.5 -65t-65.5 -27t-65 27t-27 65z" />
<glyph unicode="&#xd0;" horiz-adv-x="1476" d="M70 676v110h125v668h493q136 0 250 -37t195.5 -103t138.5 -156.5t84.5 -199t27.5 -229.5q0 -331 -189.5 -530t-506.5 -199h-493v676h-125zM338 127h350q175 0 302 80t189 214.5t62 307.5q0 267 -146.5 432.5t-406.5 165.5h-350v-541h348v-110h-348v-549z" />
<glyph unicode="&#xd1;" horiz-adv-x="1581" d="M182 0v1454h111l962 -1210v1208h144v-1452h-125l-948 1188v-1188h-144zM465 1677q0 16 8 43t26.5 62.5t58.5 60.5t93 25q48 0 92.5 -21.5t86 -43t83.5 -21.5q30 0 53 10t34.5 23t18.5 28.5t9 24.5t2 14h86q0 -11 -4.5 -30t-18.5 -47.5t-35 -52.5t-58.5 -41t-84.5 -17 q-52 0 -99.5 20.5t-87.5 41t-75 20.5q-31 0 -53.5 -13.5t-32 -33t-13 -32.5t-3.5 -20h-86z" />
<glyph unicode="&#xd2;" horiz-adv-x="1538" d="M86 727q0 144 53 278.5t142.5 235.5t218 162t270.5 61q118 0 226 -41.5t189.5 -113.5t142 -166t91.5 -201.5t31 -216.5q0 -144 -52.5 -278t-142 -235t-217.5 -161.5t-270 -60.5q-148 0 -277.5 63t-217 166t-137.5 235.5t-50 272.5zM229 727q0 -118 40 -228t109.5 -194 t171.5 -135t218 -51q120 0 223 53t171 139t106.5 194.5t38.5 221.5q0 158 -68 296t-193 224t-278 86q-120 0 -223 -52.5t-171 -138t-106.5 -194t-38.5 -221.5zM420 1921h192l183 -317h-82z" />
<glyph unicode="&#xd3;" horiz-adv-x="1538" d="M86 727q0 144 53 278.5t142.5 235.5t218 162t270.5 61q118 0 226 -41.5t189.5 -113.5t142 -166t91.5 -201.5t31 -216.5q0 -144 -52.5 -278t-142 -235t-217.5 -161.5t-270 -60.5q-148 0 -277.5 63t-217 166t-137.5 235.5t-50 272.5zM229 727q0 -118 40 -228t109.5 -194 t171.5 -135t218 -51q120 0 223 53t171 139t106.5 194.5t38.5 221.5q0 158 -68 296t-193 224t-278 86q-120 0 -223 -52.5t-171 -138t-106.5 -194t-38.5 -221.5zM707 1604l182 317h192l-293 -317h-81z" />
<glyph unicode="&#xd4;" horiz-adv-x="1538" d="M86 727q0 144 53 278.5t142.5 235.5t218 162t270.5 61q118 0 226 -41.5t189.5 -113.5t142 -166t91.5 -201.5t31 -216.5q0 -144 -52.5 -278t-142 -235t-217.5 -161.5t-270 -60.5q-148 0 -277.5 63t-217 166t-137.5 235.5t-50 272.5zM229 727q0 -118 40 -228t109.5 -194 t171.5 -135t218 -51q120 0 223 53t171 139t106.5 194.5t38.5 221.5q0 158 -68 296t-193 224t-278 86q-120 0 -223 -52.5t-171 -138t-106.5 -194t-38.5 -221.5zM434 1604l293 317h92l293 -317h-192l-146 235l-147 -235h-193z" />
<glyph unicode="&#xd5;" horiz-adv-x="1538" d="M86 727q0 144 53 278.5t142.5 235.5t218 162t270.5 61q118 0 226 -41.5t189.5 -113.5t142 -166t91.5 -201.5t31 -216.5q0 -144 -52.5 -278t-142 -235t-217.5 -161.5t-270 -60.5q-148 0 -277.5 63t-217 166t-137.5 235.5t-50 272.5zM229 727q0 -118 40 -228t109.5 -194 t171.5 -135t218 -51q120 0 223 53t171 139t106.5 194.5t38.5 221.5q0 158 -68 296t-193 224t-278 86q-120 0 -223 -52.5t-171 -138t-106.5 -194t-38.5 -221.5zM444 1677q0 11 4.5 31t17.5 48.5t32.5 52.5t54.5 41.5t78 17.5q48 0 92.5 -21.5t86 -43t83.5 -21.5q30 0 53 10 t34.5 23t18.5 28.5t9 24.5t2 14h86q0 -11 -4.5 -30t-18.5 -47.5t-35 -52.5t-58.5 -41t-84.5 -17q-52 0 -99.5 20.5t-87.5 41t-75 20.5q-31 0 -53.5 -13.5t-32 -32.5t-13.5 -32.5t-4 -20.5h-86z" />
<glyph unicode="&#xd6;" horiz-adv-x="1538" d="M86 727q0 144 53 278.5t142.5 235.5t218 162t270.5 61q118 0 226 -41.5t189.5 -113.5t142 -166t91.5 -201.5t31 -216.5q0 -144 -52.5 -278t-142 -235t-217.5 -161.5t-270 -60.5q-148 0 -277.5 63t-217 166t-137.5 235.5t-50 272.5zM229 727q0 -118 40 -228t109.5 -194 t171.5 -135t218 -51q120 0 223 53t171 139t106.5 194.5t38.5 221.5q0 158 -68 296t-193 224t-278 86q-120 0 -223 -52.5t-171 -138t-106.5 -194t-38.5 -221.5zM481 1780q0 38 27 65t65 27t65.5 -27t27.5 -65t-27.5 -65t-65.5 -27t-65 27t-27 65zM856 1780q0 38 27 65t65 27 t65 -27t27 -65t-27 -65t-65 -27t-65 27t-27 65z" />
<glyph unicode="&#xd7;" horiz-adv-x="935" d="M131 311l248 246l-246 248l90 88l244 -246l248 248l88 -90l-246 -248l250 -248l-90 -88l-250 248l-248 -248z" />
<glyph unicode="&#xd8;" horiz-adv-x="1538" d="M86 727q0 144 53 278.5t142.5 235.5t218 162t270.5 61q183 0 342 -102l62 92h157l-117 -174q111 -108 173.5 -255t62.5 -300q0 -144 -52.5 -278t-142 -235t-217.5 -161.5t-270 -60.5q-188 0 -344 100l-59 -90h-158l112 170q-110 106 -171.5 253t-61.5 304zM229 727 q0 -125 43.5 -240t122.5 -202l643 966q-125 82 -270 82q-120 0 -223 -52.5t-171 -138t-106.5 -194t-38.5 -221.5zM496 199q122 -80 272 -80q120 0 223 53t171 139t106.5 194.5t38.5 221.5q0 123 -44.5 237.5t-123.5 200.5z" />
<glyph unicode="&#xd9;" horiz-adv-x="1546" d="M162 721v733h141v-733q0 -96 14 -180t48 -163t86 -135.5t134 -90t187 -33.5q107 0 190.5 34.5t135.5 91.5t85.5 136.5t46.5 162.5t13 177v733h143v-733q0 -121 -20.5 -226.5t-67 -199.5t-116 -160.5t-174 -105.5t-234.5 -39q-134 0 -240 41t-175 109t-114 163.5 t-64 198.5t-19 219zM543 1921h192l183 -317h-82z" />
<glyph unicode="&#xda;" horiz-adv-x="1546" d="M162 721v733h141v-733q0 -96 14 -180t48 -163t86 -135.5t134 -90t187 -33.5q107 0 190.5 34.5t135.5 91.5t85.5 136.5t46.5 162.5t13 177v733h143v-733q0 -121 -20.5 -226.5t-67 -199.5t-116 -160.5t-174 -105.5t-234.5 -39q-134 0 -240 41t-175 109t-114 163.5 t-64 198.5t-19 219zM666 1604l182 317h192l-292 -317h-82z" />
<glyph unicode="&#xdb;" horiz-adv-x="1546" d="M162 721v733h141v-733q0 -96 14 -180t48 -163t86 -135.5t134 -90t187 -33.5q107 0 190.5 34.5t135.5 91.5t85.5 136.5t46.5 162.5t13 177v733h143v-733q0 -121 -20.5 -226.5t-67 -199.5t-116 -160.5t-174 -105.5t-234.5 -39q-134 0 -240 41t-175 109t-114 163.5 t-64 198.5t-19 219zM434 1604l293 317h92l293 -317h-192l-146 235l-147 -235h-193z" />
<glyph unicode="&#xdc;" horiz-adv-x="1546" d="M162 721v733h141v-733q0 -96 14 -180t48 -163t86 -135.5t134 -90t187 -33.5q107 0 190.5 34.5t135.5 91.5t85.5 136.5t46.5 162.5t13 177v733h143v-733q0 -121 -20.5 -226.5t-67 -199.5t-116 -160.5t-174 -105.5t-234.5 -39q-134 0 -240 41t-175 109t-114 163.5 t-64 198.5t-19 219zM487 1780q0 38 27.5 65t65.5 27t65 -27t27 -65t-27 -65t-65 -27t-65.5 27t-27.5 65zM862 1780q0 38 27 65t65 27t65.5 -27t27.5 -65t-27.5 -65t-65.5 -27t-65 27t-27 65z" />
<glyph unicode="&#xdd;" horiz-adv-x="1333" d="M33 1454h157l476 -782l479 782h155l-563 -913v-541h-143v545zM596 1604l182 317h193l-293 -317h-82z" />
<glyph unicode="&#xde;" horiz-adv-x="1234" d="M182 0v1454h144v-289h419q121 0 222.5 -67.5t156 -171.5t54.5 -217q0 -120 -51.5 -224.5t-148.5 -170.5t-218 -66h-434v-248h-144zM326 377h428q84 0 149.5 48t99 123t33.5 161q0 132 -87.5 230.5t-207.5 98.5h-415v-661z" />
<glyph unicode="&#xdf;" horiz-adv-x="1128" d="M154 0v1055q0 181 114 294t295 113q164 0 272.5 -91.5t108.5 -235.5q0 -108 -62.5 -198t-152.5 -112q150 -32 236 -141t86 -260q0 -203 -152 -315.5t-412 -120.5v129q197 3 308.5 82t111.5 233q0 144 -94.5 233t-247.5 89h-39v127h37q109 0 178.5 65t69.5 168 q0 105 -72.5 165t-179.5 60q-130 0 -201 -86t-71 -219v-1034h-133z" />
<glyph unicode="&#xe0;" horiz-adv-x="1110" d="M68 311q0 81 39.5 144.5t105 101t142.5 57t159 19.5q194 0 315 -55v96q0 139 -80.5 223t-220.5 84q-158 0 -342 -127l-49 92q210 139 404 139q205 0 316.5 -115.5t111.5 -307.5v-662h-133v168q-71 -93 -180.5 -140.5t-233.5 -47.5q-150 0 -252 95.5t-102 235.5zM201 322 q0 -103 75 -169.5t179 -66.5q101 0 195.5 38.5t144.5 111.5q34 40 34 79v174q-145 56 -297 56q-60 0 -116.5 -12.5t-105.5 -38t-79 -70t-30 -102.5zM203 1538h192l183 -317h-82z" />
<glyph unicode="&#xe1;" horiz-adv-x="1116" d="M68 311q0 81 39.5 144.5t105 101t142.5 57t159 19.5q194 0 315 -55v96q0 139 -80.5 223t-220.5 84q-158 0 -342 -127l-49 92q210 139 404 139q205 0 316.5 -115.5t111.5 -307.5v-662h-133v168q-71 -93 -180.5 -140.5t-233.5 -47.5q-150 0 -252 95.5t-102 235.5zM201 322 q0 -103 75 -169.5t179 -66.5q101 0 195.5 38.5t144.5 111.5q34 40 34 79v174q-145 56 -297 56q-60 0 -116.5 -12.5t-105.5 -38t-79 -70t-30 -102.5zM453 1221l182 317h192l-292 -317h-82z" />
<glyph unicode="&#xe2;" horiz-adv-x="1110" d="M68 311q0 81 39.5 144.5t105 101t142.5 57t159 19.5q194 0 315 -55v96q0 139 -80.5 223t-220.5 84q-158 0 -342 -127l-49 92q210 139 404 139q205 0 316.5 -115.5t111.5 -307.5v-662h-133v168q-71 -93 -180.5 -140.5t-233.5 -47.5q-150 0 -252 95.5t-102 235.5zM201 322 q0 -103 75 -169.5t179 -66.5q101 0 195.5 38.5t144.5 111.5q34 40 34 79v174q-145 56 -297 56q-60 0 -116.5 -12.5t-105.5 -38t-79 -70t-30 -102.5zM215 1221l293 317h92l293 -317h-193l-145 235l-147 -235h-193z" />
<glyph unicode="&#xe3;" horiz-adv-x="1110" d="M68 311q0 81 39.5 144.5t105 101t142.5 57t159 19.5q194 0 315 -55v96q0 139 -80.5 223t-220.5 84q-158 0 -342 -127l-49 92q210 139 404 139q205 0 316.5 -115.5t111.5 -307.5v-662h-133v168q-71 -93 -180.5 -140.5t-233.5 -47.5q-150 0 -252 95.5t-102 235.5zM201 322 q0 -103 75 -169.5t179 -66.5q101 0 195.5 38.5t144.5 111.5q34 40 34 79v174q-145 56 -297 56q-60 0 -116.5 -12.5t-105.5 -38t-79 -70t-30 -102.5zM229 1290q0 11 4.5 31t17.5 48.5t32.5 52.5t54.5 41.5t78 17.5q48 0 92.5 -21.5t86 -43t83.5 -21.5q30 0 53 10t34.5 23 t18.5 28.5t9 24.5t2 14h86q0 -11 -4.5 -30t-18.5 -47.5t-35 -52.5t-58.5 -41t-84.5 -17q-52 0 -99.5 20.5t-87.5 41t-75 20.5q-31 0 -53.5 -13.5t-32 -32.5t-13.5 -32.5t-4 -20.5h-86z" />
<glyph unicode="&#xe4;" horiz-adv-x="1116" d="M68 311q0 81 39.5 144.5t105 101t142.5 57t159 19.5q194 0 315 -55v96q0 139 -80.5 223t-220.5 84q-158 0 -342 -127l-49 92q210 139 404 139q205 0 316.5 -115.5t111.5 -307.5v-662h-133v168q-71 -93 -180.5 -140.5t-233.5 -47.5q-150 0 -252 95.5t-102 235.5zM201 322 q0 -103 75 -169.5t179 -66.5q101 0 195.5 38.5t144.5 111.5q34 40 34 79v174q-145 56 -297 56q-60 0 -116.5 -12.5t-105.5 -38t-79 -70t-30 -102.5zM242 1395q0 38 27 65t65 27t65 -27t27 -65t-27 -65t-65 -27t-65 27t-27 65zM616 1395q0 38 27.5 65t65.5 27t65 -27t27 -65 t-27 -65t-65 -27t-65.5 27t-27.5 65z" />
<glyph unicode="&#xe5;" horiz-adv-x="1110" d="M68 311q0 81 39.5 144.5t105 101t142.5 57t159 19.5q194 0 315 -55v96q0 139 -80.5 223t-220.5 84q-158 0 -342 -127l-49 92q210 139 404 139q205 0 316.5 -115.5t111.5 -307.5v-662h-133v168q-71 -93 -180.5 -140.5t-233.5 -47.5q-150 0 -252 95.5t-102 235.5zM201 322 q0 -103 75 -169.5t179 -66.5q101 0 195.5 38.5t144.5 111.5q34 40 34 79v174q-145 56 -297 56q-60 0 -116.5 -12.5t-105.5 -38t-79 -70t-30 -102.5zM379 1382q0 70 49.5 113t126.5 43t125.5 -43t48.5 -113t-48.5 -112.5t-125.5 -42.5t-126.5 42.5t-49.5 112.5zM459 1382 q0 -39 27.5 -65.5t68.5 -26.5q38 0 67 26.5t29 65.5q0 41 -28 67t-68 26t-68 -26t-28 -67z" />
<glyph unicode="&#xe6;" horiz-adv-x="1908" d="M68 311q0 141 124 231.5t320 90.5q143 0 274 -41q7 90 35 156q-20 110 -97 171.5t-198 61.5q-158 0 -342 -127l-49 92q210 139 404 139q131 0 225.5 -55.5t142.5 -157.5q68 98 175 155.5t233 57.5q152 0 274.5 -75t189.5 -201t68 -277q0 -5 -1 -25t-1 -24h-927 q13 -171 130.5 -284t278.5 -113q105 0 197.5 54t128.5 139l123 -33q-52 -118 -176.5 -192t-278.5 -74q-137 0 -252.5 63.5t-187.5 171.5q-63 -116 -193.5 -175.5t-267.5 -59.5q-149 0 -250.5 95.5t-101.5 235.5zM199 322q0 -99 74 -167.5t180 -68.5q108 0 200 41t140 109 q33 38 36 71q-39 77 -43 197q-121 41 -256 41q-148 0 -239.5 -61.5t-91.5 -161.5zM918 578h796q-14 175 -126 287t-275 112t-274.5 -113t-120.5 -286z" />
<glyph unicode="&#xe7;" horiz-adv-x="1124" d="M80 537q0 151 67 276t190 198.5t277 73.5q149 0 263 -68t172 -186l-136 -43q-44 82 -125.5 128.5t-179.5 46.5q-164 0 -275.5 -122t-111.5 -304q0 -180 115 -307.5t274 -127.5q102 0 194.5 54.5t117.5 128.5l137 -41q-45 -116 -167.5 -190t-275.5 -74q-152 0 -275.5 76 t-192 203t-68.5 278zM418 -322l35 64q76 -37 180 -37q117 0 117 72q0 73 -103 73q-82 0 -164 -28l117 215l68 -27l-72 -114q30 12 78 12q72 0 113.5 -32.5t41.5 -92.5q0 -69 -53.5 -106t-154.5 -37q-102 0 -203 38z" />
<glyph unicode="&#xe8;" horiz-adv-x="1202" d="M80 537q0 148 68 273.5t191 200t273 74.5q152 0 274.5 -75.5t188.5 -200t66 -270.5q0 -48 -2 -56h-914q13 -171 127 -284t269 -113q105 0 197 53.5t130 139.5l121 -33q-50 -118 -175.5 -192t-279.5 -74q-151 0 -274.5 76t-191.5 203.5t-68 277.5zM223 590h785 q-13 169 -125 278t-269 109q-158 0 -269.5 -109.5t-121.5 -277.5zM344 1538h193l182 -317h-82z" />
<glyph unicode="&#xe9;" horiz-adv-x="1202" d="M80 537q0 148 68 273.5t191 200t273 74.5q152 0 274.5 -75.5t188.5 -200t66 -270.5q0 -48 -2 -56h-914q13 -171 127 -284t269 -113q105 0 197 53.5t130 139.5l121 -33q-50 -118 -175.5 -192t-279.5 -74q-151 0 -274.5 76t-191.5 203.5t-68 277.5zM223 590h785 q-13 169 -125 278t-269 109q-158 0 -269.5 -109.5t-121.5 -277.5zM543 1221l182 317h193l-293 -317h-82z" />
<glyph unicode="&#xea;" horiz-adv-x="1202" d="M80 537q0 148 68 273.5t191 200t273 74.5q152 0 274.5 -75.5t188.5 -200t66 -270.5q0 -48 -2 -56h-914q13 -171 127 -284t269 -113q105 0 197 53.5t130 139.5l121 -33q-50 -118 -175.5 -192t-279.5 -74q-151 0 -274.5 76t-191.5 203.5t-68 277.5zM223 590h785 q-13 169 -125 278t-269 109q-158 0 -269.5 -109.5t-121.5 -277.5zM289 1221l293 317h92l293 -317h-193l-145 235l-148 -235h-192z" />
<glyph unicode="&#xeb;" horiz-adv-x="1202" d="M80 537q0 148 68 273.5t191 200t273 74.5q152 0 274.5 -75.5t188.5 -200t66 -270.5q0 -48 -2 -56h-914q13 -171 127 -284t269 -113q105 0 197 53.5t130 139.5l121 -33q-50 -118 -175.5 -192t-279.5 -74q-151 0 -274.5 76t-191.5 203.5t-68 277.5zM223 590h785 q-13 169 -125 278t-269 109q-158 0 -269.5 -109.5t-121.5 -277.5zM336 1395q0 38 27 65t65 27t65 -27t27 -65t-27 -65t-65 -27t-65 27t-27 65zM711 1395q0 38 27 65t65 27t65 -27t27 -65t-27 -65t-65 -27t-65 27t-27 65z" />
<glyph unicode="&#xec;" horiz-adv-x="446" d="M-57 1538h192l182 -317h-81zM154 0v1067h139v-1067h-139z" />
<glyph unicode="&#xed;" horiz-adv-x="446" d="M154 0v1067h139v-1067h-139zM182 1221l183 317h192l-293 -317h-82z" />
<glyph unicode="&#xee;" horiz-adv-x="446" d="M-119 1221l293 317h92l293 -317h-192l-146 235l-147 -235h-193zM154 0v1067h139v-1067h-139z" />
<glyph unicode="&#xef;" horiz-adv-x="446" d="M-59 1395q0 38 27 65t65 27t65 -27t27 -65t-27 -65t-65 -27t-65 27t-27 65zM154 0v1067h139v-1067h-139zM315 1395q0 38 27.5 65t65.5 27t65 -27t27 -65t-27 -65t-65 -27t-65.5 27t-27.5 65z" />
<glyph unicode="&#xf0;" horiz-adv-x="1232" d="M86 477q0 132 67.5 246t183.5 181t251 67q134 0 247 -66.5t169 -173.5q-22 142 -83 267t-182 243l-229 -143l-45 63l217 133q-112 97 -293 201h197q115 -70 205 -147l178 112l45 -61l-168 -105q299 -296 299 -727q0 -129 -43 -240t-116.5 -186.5t-172 -118t-207.5 -42.5 q-105 0 -201 39t-166 105.5t-111.5 158.5t-41.5 194zM227 475q0 -155 112 -264t271 -109q163 0 278.5 116.5t115.5 275.5q0 151 -113.5 255.5t-274.5 104.5t-275 -111t-114 -268z" />
<glyph unicode="&#xf1;" horiz-adv-x="1193" d="M154 0v1067h127v-242q65 118 187.5 189t264.5 71q87 0 149.5 -31.5t99 -93.5t53 -144t16.5 -191v-625h-140v596q0 188 -55.5 275t-173.5 87q-125 0 -238 -87.5t-151 -217.5v-653h-139zM272 1290q0 11 4.5 31t17.5 48.5t32.5 52.5t54.5 41.5t78 17.5q48 0 92.5 -21.5 t86 -43t83.5 -21.5q30 0 53 10t34.5 23t18.5 28.5t9 24.5t2 14h86q0 -11 -4.5 -30t-18.5 -47.5t-35 -52.5t-58.5 -41t-84.5 -17q-52 0 -99.5 20.5t-87.5 41t-75 20.5q-31 0 -53.5 -13.5t-32 -32.5t-13.5 -32.5t-4 -20.5h-86z" />
<glyph unicode="&#xf2;" d="M80 530q0 111 40 212.5t109 177t168 120.5t211 45q150 0 272.5 -76t190.5 -203t68 -276q0 -148 -67.5 -273.5t-190 -201t-273.5 -75.5t-273 75.5t-188.5 201t-66.5 273.5zM221 528q0 -178 113.5 -302t273.5 -124t274.5 126t114.5 304t-114.5 304.5t-274.5 126.5 q-104 0 -193 -58t-141.5 -158.5t-52.5 -218.5zM328 1538h192l182 -317h-81z" />
<glyph unicode="&#xf3;" d="M80 530q0 111 40 212.5t109 177t168 120.5t211 45q150 0 272.5 -76t190.5 -203t68 -276q0 -148 -67.5 -273.5t-190 -201t-273.5 -75.5t-273 75.5t-188.5 201t-66.5 273.5zM221 528q0 -178 113.5 -302t273.5 -124t274.5 126t114.5 304t-114.5 304.5t-274.5 126.5 q-104 0 -193 -58t-141.5 -158.5t-52.5 -218.5zM557 1221l182 317h193l-293 -317h-82z" />
<glyph unicode="&#xf4;" d="M80 530q0 111 40 212.5t109 177t168 120.5t211 45q150 0 272.5 -76t190.5 -203t68 -276q0 -148 -67.5 -273.5t-190 -201t-273.5 -75.5t-273 75.5t-188.5 201t-66.5 273.5zM221 528q0 -178 113.5 -302t273.5 -124t274.5 126t114.5 304t-114.5 304.5t-274.5 126.5 q-104 0 -193 -58t-141.5 -158.5t-52.5 -218.5zM266 1221l293 317h92l293 -317h-192l-146 235l-147 -235h-193z" />
<glyph unicode="&#xf5;" d="M80 530q0 111 40 212.5t109 177t168 120.5t211 45q150 0 272.5 -76t190.5 -203t68 -276q0 -148 -67.5 -273.5t-190 -201t-273.5 -75.5t-273 75.5t-188.5 201t-66.5 273.5zM221 528q0 -178 113.5 -302t273.5 -124t274.5 126t114.5 304t-114.5 304.5t-274.5 126.5 q-104 0 -193 -58t-141.5 -158.5t-52.5 -218.5zM285 1290q0 16 8 43t26.5 62.5t58.5 60.5t93 25q48 0 92.5 -21.5t86 -43t83.5 -21.5q30 0 53 10t34.5 23t18.5 28.5t9 24.5t2 14h86q0 -11 -4.5 -30t-18.5 -47.5t-35 -52.5t-58.5 -41t-84.5 -17q-52 0 -99.5 20.5t-87.5 41 t-75 20.5q-31 0 -53.5 -13.5t-32 -33t-13 -32.5t-3.5 -20h-86z" />
<glyph unicode="&#xf6;" d="M80 530q0 111 40 212.5t109 177t168 120.5t211 45q150 0 272.5 -76t190.5 -203t68 -276q0 -148 -67.5 -273.5t-190 -201t-273.5 -75.5t-273 75.5t-188.5 201t-66.5 273.5zM221 528q0 -178 113.5 -302t273.5 -124t274.5 126t114.5 304t-114.5 304.5t-274.5 126.5 q-104 0 -193 -58t-141.5 -158.5t-52.5 -218.5zM328 1395q0 38 27 65t65 27t65 -27t27 -65t-27 -65t-65 -27t-65 27t-27 65zM702 1395q0 38 27.5 65t65.5 27t65 -27t27 -65t-27 -65t-65 -27t-65.5 27t-27.5 65z" />
<glyph unicode="&#xf7;" horiz-adv-x="1099" d="M135 520v117h826v-117h-826zM453 909q0 38 27 65t65 27t65 -27t27 -65t-27 -65t-65 -27t-65 27t-27 65zM455 242q0 38 27 65t65 27t65 -27t27 -65t-27 -65t-65 -27t-65 27t-27 65z" />
<glyph unicode="&#xf8;" d="M80 530q0 111 40 212.5t109 177t168 120.5t211 45q153 0 277 -79l47 65h96l-84 -110q91 -77 143 -190.5t52 -240.5q0 -148 -67.5 -273.5t-190 -201t-273.5 -75.5q-152 0 -278 77l-45 -59h-95l80 104q-90 77 -140 189t-50 239zM221 528q0 -193 129 -319l459 690 q-92 64 -201 64q-104 0 -193 -58t-141.5 -158.5t-52.5 -218.5zM408 164q91 -62 200 -62q160 0 274.5 126t114.5 304q0 94 -35 177t-96 143z" />
<glyph unicode="&#xf9;" horiz-adv-x="1208" d="M143 440v627h140v-602q0 -64 6.5 -115t23.5 -99t45.5 -79.5t74 -50.5t106.5 -19q124 0 228.5 84.5t147.5 208.5v672h140v-1067h-135v233q-62 -117 -178 -185t-248 -68q-82 0 -144 24.5t-101 66t-63 102t-33.5 125t-9.5 142.5zM252 1538h192l183 -317h-82z" />
<glyph unicode="&#xfa;" horiz-adv-x="1216" d="M143 440v627h140v-602q0 -64 6.5 -115t23.5 -99t45.5 -79.5t74 -50.5t106.5 -19q124 0 228.5 84.5t147.5 208.5v672h140v-1067h-135v233q-62 -117 -178 -185t-248 -68q-82 0 -144 24.5t-101 66t-63 102t-33.5 125t-9.5 142.5zM537 1221l182 317h192l-293 -317h-81z" />
<glyph unicode="&#xfb;" horiz-adv-x="1208" d="M143 440v627h140v-602q0 -64 6.5 -115t23.5 -99t45.5 -79.5t74 -50.5t106.5 -19q124 0 228.5 84.5t147.5 208.5v672h140v-1067h-135v233q-62 -117 -178 -185t-248 -68q-82 0 -144 24.5t-101 66t-63 102t-33.5 125t-9.5 142.5zM264 1221l293 317h92l293 -317h-192 l-146 235l-147 -235h-193z" />
<glyph unicode="&#xfc;" horiz-adv-x="1216" d="M143 440v627h140v-602q0 -64 6.5 -115t23.5 -99t45.5 -79.5t74 -50.5t106.5 -19q124 0 228.5 84.5t147.5 208.5v672h140v-1067h-135v233q-62 -117 -178 -185t-248 -68q-82 0 -144 24.5t-101 66t-63 102t-33.5 125t-9.5 142.5zM313 1395q0 38 27.5 65t65.5 27t65 -27 t27 -65t-27 -65t-65 -27t-65.5 27t-27.5 65zM688 1395q0 38 27 65t65 27t65 -27t27 -65t-27 -65t-65 -27t-65 27t-27 65z" />
<glyph unicode="&#xfd;" horiz-adv-x="1110" d="M27 1067h145l395 -938l365 938h133l-555 -1376q-27 -69 -85.5 -108.5t-143.5 -39.5q-63 0 -93 6l13 125q24 -4 51 -4q35 0 55 5t39 20t35 45.5t37 79t51 122.5q15 37 23 58zM510 1221l182 317h193l-293 -317h-82z" />
<glyph unicode="&#xfe;" horiz-adv-x="1234" d="M154 -436v1890h141v-565q141 201 356 201q114 0 211.5 -50.5t160.5 -131.5t98.5 -180.5t35.5 -201.5q-3 -147 -72 -275t-189 -206t-263 -78q-107 0 -198 53.5t-140 131.5v-588h-141zM295 352q0 -63 54.5 -124t132.5 -96.5t149 -35.5q108 0 197 62t137.5 160.5t48.5 209.5 q0 113 -45.5 212t-131 161t-192.5 62q-115 0 -204 -70.5t-146 -179.5v-361z" />
<glyph unicode="&#xff;" horiz-adv-x="1110" d="M27 1067h145l395 -938l365 938h133l-555 -1376q-27 -69 -85.5 -108.5t-143.5 -39.5q-63 0 -93 6l13 125q24 -4 51 -4q35 0 55 5t39 20t35 45.5t37 79t51 122.5q15 37 23 58zM291 1395q0 38 27 65t65 27t65 -27t27 -65t-27 -65t-65 -27t-65 27t-27 65zM666 1395 q0 38 27 65t65 27t65 -27t27 -65t-27 -65t-65 -27t-65 27t-27 65z" />
<glyph unicode="&#x100;" horiz-adv-x="1384" d="M25 0l608 1454h121l604 -1454h-152l-188 455h-653l-187 -455h-153zM395 567h590l-293 719zM397 1741v96h592v-96h-592z" />
<glyph unicode="&#x101;" horiz-adv-x="1110" d="M68 311q0 81 39.5 144.5t105 101t142.5 57t159 19.5q194 0 315 -55v96q0 139 -80.5 223t-220.5 84q-158 0 -342 -127l-49 92q210 139 404 139q205 0 316.5 -115.5t111.5 -307.5v-662h-133v168q-71 -93 -180.5 -140.5t-233.5 -47.5q-150 0 -252 95.5t-102 235.5zM201 322 q0 -103 75 -169.5t179 -66.5q101 0 195.5 38.5t144.5 111.5q34 40 34 79v174q-145 56 -297 56q-60 0 -116.5 -12.5t-105.5 -38t-79 -70t-30 -102.5zM258 1358v96h592v-96h-592z" />
<glyph unicode="&#x102;" horiz-adv-x="1384" d="M25 0l608 1454h121l604 -1454h-152l-188 455h-653l-187 -455h-153zM395 567h590l-293 719zM442 1925h105q0 -63 42.5 -113.5t96.5 -50.5q52 0 92.5 48t48.5 116h103q0 -105 -71.5 -177.5t-172.5 -72.5q-103 0 -173.5 72t-70.5 178z" />
<glyph unicode="&#x103;" horiz-adv-x="1110" d="M68 311q0 81 39.5 144.5t105 101t142.5 57t159 19.5q194 0 315 -55v96q0 139 -80.5 223t-220.5 84q-158 0 -342 -127l-49 92q210 139 404 139q205 0 316.5 -115.5t111.5 -307.5v-662h-133v168q-71 -93 -180.5 -140.5t-233.5 -47.5q-150 0 -252 95.5t-102 235.5zM201 322 q0 -103 75 -169.5t179 -66.5q101 0 195.5 38.5t144.5 111.5q34 40 34 79v174q-145 56 -297 56q-60 0 -116.5 -12.5t-105.5 -38t-79 -70t-30 -102.5zM305 1538h105q0 -63 42.5 -113.5t96.5 -50.5q52 0 92.5 48t48.5 116h103q0 -105 -71.5 -177.5t-172.5 -72.5 q-103 0 -173.5 72t-70.5 178z" />
<glyph unicode="&#x104;" horiz-adv-x="1384" d="M25 0l608 1454h121l604 -1454h-152l-188 455h-653l-187 -455h-153zM395 567h590l-293 719zM1102 -209q0 117 209 244l45 -35q-90 -57 -129 -101t-39 -89q0 -76 106 -91l-39 -77q-74 15 -113.5 54.5t-39.5 94.5z" />
<glyph unicode="&#x105;" horiz-adv-x="1110" d="M68 311q0 81 39.5 144.5t105 101t142.5 57t159 19.5q194 0 315 -55v96q0 139 -80.5 223t-220.5 84q-158 0 -342 -127l-49 92q210 139 404 139q205 0 316.5 -115.5t111.5 -307.5v-662h-133v168q-71 -93 -180.5 -140.5t-233.5 -47.5q-150 0 -252 95.5t-102 235.5zM201 322 q0 -103 75 -169.5t179 -66.5q101 0 195.5 38.5t144.5 111.5q34 40 34 79v174q-145 56 -297 56q-60 0 -116.5 -12.5t-105.5 -38t-79 -70t-30 -102.5zM713 -209q0 117 209 244l45 -35q-90 -57 -129 -101t-39 -89q0 -76 106 -91l-39 -77q-74 15 -113.5 54.5t-39.5 94.5z" />
<glyph unicode="&#x106;" horiz-adv-x="1404" d="M86 737q0 133 47 261t132.5 232t219 168t291.5 64q188 0 328.5 -86.5t208.5 -230.5l-113 -70q-45 92 -119 152t-151 83t-162 23q-101 0 -189 -34.5t-151.5 -93.5t-109 -136.5t-67.5 -164t-22 -175.5q0 -160 71 -300.5t197.5 -226t276.5 -85.5q86 0 169 27.5t159.5 90 t120.5 152.5l118 -61q-45 -104 -140.5 -182.5t-208 -117t-226.5 -38.5q-116 0 -223 42t-189 115.5t-143 168t-93 204t-32 219.5zM741 1602l183 317h192l-293 -317h-82z" />
<glyph unicode="&#x107;" horiz-adv-x="1124" d="M80 537q0 151 67 276t190 198.5t277 73.5q149 0 263 -68t172 -186l-136 -43q-44 82 -125.5 128.5t-179.5 46.5q-164 0 -275.5 -122t-111.5 -304q0 -180 115 -307.5t274 -127.5q102 0 194.5 54.5t117.5 128.5l137 -41q-45 -116 -167.5 -190t-275.5 -74q-152 0 -275.5 76 t-192 203t-68.5 278zM580 1221l182 317h192l-292 -317h-82z" />
<glyph unicode="&#x108;" horiz-adv-x="1404" d="M86 737q0 133 47 261t132.5 232t219 168t291.5 64q188 0 328.5 -86.5t208.5 -230.5l-113 -70q-45 92 -119 152t-151 83t-162 23q-101 0 -189 -34.5t-151.5 -93.5t-109 -136.5t-67.5 -164t-22 -175.5q0 -160 71 -300.5t197.5 -226t276.5 -85.5q86 0 169 27.5t159.5 90 t120.5 152.5l118 -61q-45 -104 -140.5 -182.5t-208 -117t-226.5 -38.5q-116 0 -223 42t-189 115.5t-143 168t-93 204t-32 219.5zM428 1599l293 318h92l293 -318h-193l-145 236l-147 -236h-193z" />
<glyph unicode="&#x109;" horiz-adv-x="1124" d="M80 537q0 151 67 276t190 198.5t277 73.5q149 0 263 -68t172 -186l-136 -43q-44 82 -125.5 128.5t-179.5 46.5q-164 0 -275.5 -122t-111.5 -304q0 -180 115 -307.5t274 -127.5q102 0 194.5 54.5t117.5 128.5l137 -41q-45 -116 -167.5 -190t-275.5 -74q-152 0 -275.5 76 t-192 203t-68.5 278zM266 1221l293 317h92l293 -317h-192l-146 235l-147 -235h-193z" />
<glyph unicode="&#x10a;" horiz-adv-x="1404" d="M86 737q0 133 47 261t132.5 232t219 168t291.5 64q188 0 328.5 -86.5t208.5 -230.5l-113 -70q-45 92 -119 152t-151 83t-162 23q-101 0 -189 -34.5t-151.5 -93.5t-109 -136.5t-67.5 -164t-22 -175.5q0 -160 71 -300.5t197.5 -226t276.5 -85.5q86 0 169 27.5t159.5 90 t120.5 152.5l118 -61q-45 -104 -140.5 -182.5t-208 -117t-226.5 -38.5q-116 0 -223 42t-189 115.5t-143 168t-93 204t-32 219.5zM649 1786q0 38 27 65t65 27t65.5 -27t27.5 -65t-27.5 -65t-65.5 -27t-65 27t-27 65z" />
<glyph unicode="&#x10b;" horiz-adv-x="1124" d="M80 537q0 151 67 276t190 198.5t277 73.5q149 0 263 -68t172 -186l-136 -43q-44 82 -125.5 128.5t-179.5 46.5q-164 0 -275.5 -122t-111.5 -304q0 -180 115 -307.5t274 -127.5q102 0 194.5 54.5t117.5 128.5l137 -41q-45 -116 -167.5 -190t-275.5 -74q-152 0 -275.5 76 t-192 203t-68.5 278zM498 1403q0 38 27 65t65 27t65 -27t27 -65t-27 -65t-65 -27t-65 27t-27 65z" />
<glyph unicode="&#x10c;" horiz-adv-x="1404" d="M86 737q0 133 47 261t132.5 232t219 168t291.5 64q188 0 328.5 -86.5t208.5 -230.5l-113 -70q-45 92 -119 152t-151 83t-162 23q-101 0 -189 -34.5t-151.5 -93.5t-109 -136.5t-67.5 -164t-22 -175.5q0 -160 71 -300.5t197.5 -226t276.5 -85.5q86 0 169 27.5t159.5 90 t120.5 152.5l118 -61q-45 -104 -140.5 -182.5t-208 -117t-226.5 -38.5q-116 0 -223 42t-189 115.5t-143 168t-93 204t-32 219.5zM434 1917h193l147 -236l146 236h192l-293 -318h-92z" />
<glyph unicode="&#x10d;" horiz-adv-x="1124" d="M80 537q0 151 67 276t190 198.5t277 73.5q149 0 263 -68t172 -186l-136 -43q-44 82 -125.5 128.5t-179.5 46.5q-164 0 -275.5 -122t-111.5 -304q0 -180 115 -307.5t274 -127.5q102 0 194.5 54.5t117.5 128.5l137 -41q-45 -116 -167.5 -190t-275.5 -74q-152 0 -275.5 76 t-192 203t-68.5 278zM276 1538h193l147 -235l146 235h192l-292 -317h-93z" />
<glyph unicode="&#x10e;" horiz-adv-x="1464" d="M182 0v1454h494q136 0 250 -37t195.5 -103t138.5 -156.5t84.5 -199t27.5 -229.5q0 -331 -189.5 -530t-506.5 -199h-494zM326 127h350q175 0 302 80t189 214.5t62 307.5q0 267 -146.5 432.5t-406.5 165.5h-350v-1200zM336 1925h192l148 -235l145 235h193l-293 -317h-92z " />
<glyph unicode="&#x10f;" horiz-adv-x="1273" d="M72 530q0 150 62 276.5t174 202.5t249 76q127 0 230.5 -66.5t175.5 -174.5v651h139v-1495h-139v199q-63 -100 -164.5 -159.5t-216.5 -59.5q-108 0 -204.5 45.5t-162.5 121.5t-104.5 176t-38.5 207zM215 530q0 -114 52 -212.5t144 -157t201 -58.5q71 0 149 35t136 98 t66 132v329q-38 111 -147.5 189t-221.5 78q-110 0 -198.5 -63.5t-134.5 -161.5t-46 -208zM1204 1141l72 315h131l-109 -315h-94z" />
<glyph unicode="&#x110;" horiz-adv-x="1476" d="M70 676v110h125v668h493q136 0 250 -37t195.5 -103t138.5 -156.5t84.5 -199t27.5 -229.5q0 -331 -189.5 -530t-506.5 -199h-493v676h-125zM338 127h350q175 0 302 80t189 214.5t62 307.5q0 267 -146.5 432.5t-406.5 165.5h-350v-541h348v-110h-348v-549z" />
<glyph unicode="&#x111;" horiz-adv-x="1265" d="M82 530q0 150 62 276.5t174 202.5t249 76q127 0 230.5 -66.5t175.5 -174.5v651h139v-1495h-139v199q-63 -100 -164.5 -159.5t-216.5 -59.5q-108 0 -204.5 45.5t-162.5 121.5t-104.5 176t-38.5 207zM225 530q0 -114 52.5 -212.5t144.5 -157t201 -58.5q71 0 149 35 t135.5 98t65.5 132v329q-38 111 -147.5 189t-221.5 78q-110 0 -198.5 -63.5t-134.5 -161.5t-46 -208zM737 1264v94h518v-94h-518z" />
<glyph unicode="&#x112;" horiz-adv-x="1247" d="M182 0v1454h959v-127h-815v-524h710v-121h-710v-555h833v-127h-977zM365 1745v96h591v-96h-591z" />
<glyph unicode="&#x113;" horiz-adv-x="1202" d="M80 537q0 148 68 273.5t191 200t273 74.5q152 0 274.5 -75.5t188.5 -200t66 -270.5q0 -48 -2 -56h-914q13 -171 127 -284t269 -113q105 0 197 53.5t130 139.5l121 -33q-50 -118 -175.5 -192t-279.5 -74q-151 0 -274.5 76t-191.5 203.5t-68 277.5zM223 590h785 q-13 169 -125 278t-269 109q-158 0 -269.5 -109.5t-121.5 -277.5zM315 1358v96h592v-96h-592z" />
<glyph unicode="&#x114;" horiz-adv-x="1247" d="M182 0v1454h959v-127h-815v-524h710v-121h-710v-555h833v-127h-977zM412 1925h104q0 -63 42.5 -113.5t96.5 -50.5q52 0 93 48t49 116h102q0 -105 -71.5 -177.5t-172.5 -72.5q-103 0 -173 72t-70 178z" />
<glyph unicode="&#x115;" horiz-adv-x="1202" d="M80 537q0 148 68 273.5t191 200t273 74.5q152 0 274.5 -75.5t188.5 -200t66 -270.5q0 -48 -2 -56h-914q13 -171 127 -284t269 -113q105 0 197 53.5t130 139.5l121 -33q-50 -118 -175.5 -192t-279.5 -74q-151 0 -274.5 76t-191.5 203.5t-68 277.5zM223 590h785 q-13 169 -125 278t-269 109q-158 0 -269.5 -109.5t-121.5 -277.5zM362 1538h105q0 -63 42.5 -113.5t96.5 -50.5q52 0 93 48t49 116h102q0 -105 -71.5 -177.5t-172.5 -72.5q-103 0 -173.5 72t-70.5 178z" />
<glyph unicode="&#x116;" horiz-adv-x="1247" d="M182 0v1454h959v-127h-815v-524h710v-121h-710v-555h833v-127h-977zM569 1790q0 38 27.5 65t65.5 27t65 -27t27 -65t-27 -65t-65 -27t-65.5 27t-27.5 65z" />
<glyph unicode="&#x117;" horiz-adv-x="1202" d="M80 537q0 148 68 273.5t191 200t273 74.5q152 0 274.5 -75.5t188.5 -200t66 -270.5q0 -48 -2 -56h-914q13 -171 127 -284t269 -113q105 0 197 53.5t130 139.5l121 -33q-50 -118 -175.5 -192t-279.5 -74q-151 0 -274.5 76t-191.5 203.5t-68 277.5zM223 590h785 q-13 169 -125 278t-269 109q-158 0 -269.5 -109.5t-121.5 -277.5zM520 1403q0 38 27 65t65 27t65.5 -27t27.5 -65t-27.5 -65t-65.5 -27t-65 27t-27 65z" />
<glyph unicode="&#x118;" horiz-adv-x="1247" d="M182 0v1454h959v-127h-815v-524h710v-121h-710v-555h833v-127h-977zM903 -209q0 117 209 244l45 -35q-90 -57 -129 -101t-39 -89q0 -76 107 -91l-39 -77q-74 15 -114 54.5t-40 94.5z" />
<glyph unicode="&#x119;" horiz-adv-x="1202" d="M80 537q0 148 68 273.5t191 200t273 74.5q152 0 274.5 -75.5t188.5 -200t66 -270.5q0 -48 -2 -56h-914q13 -171 127 -284t269 -113q105 0 197 53.5t130 139.5l121 -33q-50 -118 -175.5 -192t-279.5 -74q-151 0 -274.5 76t-191.5 203.5t-68 277.5zM223 590h785 q-13 169 -125 278t-269 109q-158 0 -269.5 -109.5t-121.5 -277.5zM446 -209q0 117 209 244l45 -35q-90 -57 -129 -101t-39 -89q0 -76 107 -91l-39 -77q-74 15 -114 54.5t-40 94.5z" />
<glyph unicode="&#x11a;" horiz-adv-x="1247" d="M182 0v1454h959v-127h-815v-524h710v-121h-710v-555h833v-127h-977zM322 1925h192l148 -235l145 235h192l-292 -317h-93z" />
<glyph unicode="&#x11b;" horiz-adv-x="1202" d="M80 537q0 148 68 273.5t191 200t273 74.5q152 0 274.5 -75.5t188.5 -200t66 -270.5q0 -48 -2 -56h-914q13 -171 127 -284t269 -113q105 0 197 53.5t130 139.5l121 -33q-50 -118 -175.5 -192t-279.5 -74q-151 0 -274.5 76t-191.5 203.5t-68 277.5zM223 590h785 q-13 169 -125 278t-269 109q-158 0 -269.5 -109.5t-121.5 -277.5zM272 1538h193l147 -235l146 235h192l-293 -317h-92z" />
<glyph unicode="&#x11c;" horiz-adv-x="1499" d="M47 731q0 149 53.5 283.5t147.5 233.5t229 157.5t291 58.5q181 0 350.5 -89.5t257.5 -229.5l-123 -80q-65 110 -202.5 190t-290.5 80q-127 0 -235.5 -50t-181 -133.5t-113 -194.5t-40.5 -232q0 -97 26 -187.5t76 -166t118.5 -132.5t158.5 -88.5t191 -31.5q109 0 208.5 39 t170.5 104.5t118 149.5t60 174h-430v129h579q0 -5 -1 -41t-1 -43q-11 -127 -67 -243.5t-145 -204.5t-215 -140.5t-267 -52.5q-131 0 -246 38.5t-201.5 107.5t-149 161.5t-94.5 203.5t-32 230zM428 1608l293 317h92l293 -317h-193l-145 235l-147 -235h-193z" />
<glyph unicode="&#x11d;" horiz-adv-x="1263" d="M82 530q0 148 62 274.5t176.5 203.5t257.5 77q244 0 409 -241v223h125v-1071q0 -144 -72 -248.5t-188.5 -154.5t-261.5 -50q-176 0 -290 62t-189 180l86 68q61 -98 165 -148.5t228 -50.5q79 0 147.5 21.5t121.5 63t83.5 108t30.5 149.5v211q-61 -101 -168 -161t-223 -60 q-142 0 -258 77.5t-179 201.5t-63 265zM223 528q0 -113 53 -211t145 -156.5t200 -58.5q122 0 227.5 82t124.5 183v329q-44 116 -149 191.5t-220 75.5q-114 0 -203 -65.5t-133.5 -163.5t-44.5 -206zM299 1221l293 317h92l293 -317h-193l-145 235l-147 -235h-193z" />
<glyph unicode="&#x11e;" horiz-adv-x="1499" d="M47 731q0 149 53.5 283.5t147.5 233.5t229 157.5t291 58.5q181 0 350.5 -89.5t257.5 -229.5l-123 -80q-65 110 -202.5 190t-290.5 80q-127 0 -235.5 -50t-181 -133.5t-113 -194.5t-40.5 -232q0 -97 26 -187.5t76 -166t118.5 -132.5t158.5 -88.5t191 -31.5q109 0 208.5 39 t170.5 104.5t118 149.5t60 174h-430v129h579q0 -5 -1 -41t-1 -43q-11 -127 -67 -243.5t-145 -204.5t-215 -140.5t-267 -52.5q-131 0 -246 38.5t-201.5 107.5t-149 161.5t-94.5 203.5t-32 230zM518 1925h105q0 -63 42.5 -113.5t96.5 -50.5q52 0 92.5 48t48.5 116h103 q0 -105 -71.5 -177.5t-172.5 -72.5q-103 0 -173.5 72t-70.5 178z" />
<glyph unicode="&#x11f;" horiz-adv-x="1265" d="M82 530q0 148 62 274.5t176.5 203.5t257.5 77q244 0 409 -241v223h125v-1071q0 -144 -72 -248.5t-188.5 -154.5t-261.5 -50q-176 0 -290 62t-189 180l86 68q61 -98 165 -148.5t228 -50.5q79 0 147.5 21.5t121.5 63t83.5 108t30.5 149.5v211q-61 -101 -168 -161t-223 -60 q-142 0 -258 77.5t-179 201.5t-63 265zM223 528q0 -113 53 -211t145 -156.5t200 -58.5q122 0 227.5 82t124.5 183v329q-44 116 -149 191.5t-220 75.5q-114 0 -203 -65.5t-133.5 -163.5t-44.5 -206zM383 1538h104q0 -63 43 -113.5t97 -50.5q52 0 92.5 48t48.5 116h102 q0 -105 -71.5 -177.5t-171.5 -72.5q-103 0 -173.5 72t-70.5 178z" />
<glyph unicode="&#x120;" horiz-adv-x="1499" d="M47 731q0 149 53.5 283.5t147.5 233.5t229 157.5t291 58.5q181 0 350.5 -89.5t257.5 -229.5l-123 -80q-65 110 -202.5 190t-290.5 80q-127 0 -235.5 -50t-181 -133.5t-113 -194.5t-40.5 -232q0 -97 26 -187.5t76 -166t118.5 -132.5t158.5 -88.5t191 -31.5q109 0 208.5 39 t170.5 104.5t118 149.5t60 174h-430v129h579q0 -5 -1 -41t-1 -43q-11 -127 -67 -243.5t-145 -204.5t-215 -140.5t-267 -52.5q-131 0 -246 38.5t-201.5 107.5t-149 161.5t-94.5 203.5t-32 230zM676 1790q0 38 27 65t65 27t65 -27t27 -65t-27 -65t-65 -27t-65 27t-27 65z" />
<glyph unicode="&#x121;" horiz-adv-x="1263" d="M82 530q0 148 62 274.5t176.5 203.5t257.5 77q244 0 409 -241v223h125v-1071q0 -144 -72 -248.5t-188.5 -154.5t-261.5 -50q-176 0 -290 62t-189 180l86 68q61 -98 165 -148.5t228 -50.5q79 0 147.5 21.5t121.5 63t83.5 108t30.5 149.5v211q-61 -101 -168 -161t-223 -60 q-142 0 -258 77.5t-179 201.5t-63 265zM223 528q0 -113 53 -211t145 -156.5t200 -58.5q122 0 227.5 82t124.5 183v329q-44 116 -149 191.5t-220 75.5q-114 0 -203 -65.5t-133.5 -163.5t-44.5 -206zM514 1403q0 38 27 65t65 27t65 -27t27 -65t-27 -65t-65 -27t-65 27t-27 65z " />
<glyph unicode="&#x122;" horiz-adv-x="1466" d="M47 731q0 149 53.5 283.5t147.5 233.5t229 157.5t291 58.5q181 0 350.5 -89.5t257.5 -229.5l-123 -80q-65 110 -202.5 190t-290.5 80q-127 0 -235.5 -50t-181 -133.5t-113 -194.5t-40.5 -232q0 -97 26 -187.5t76 -166t118.5 -132.5t158.5 -88.5t191 -31.5q109 0 208.5 39 t170.5 104.5t118 149.5t60 174h-430v129h579q0 -5 -1 -41t-1 -43q-11 -127 -67 -243.5t-145 -204.5t-215 -140.5t-267 -52.5q-131 0 -246 38.5t-201.5 107.5t-149 161.5t-94.5 203.5t-32 230zM580 -438h90l139 338h-131z" />
<glyph unicode="&#x123;" horiz-adv-x="1263" d="M82 530q0 148 62 274.5t176.5 203.5t257.5 77q244 0 409 -241v223h125v-1071q0 -144 -72 -248.5t-188.5 -154.5t-261.5 -50q-176 0 -290 62t-189 180l86 68q61 -98 165 -148.5t228 -50.5q79 0 147.5 21.5t121.5 63t83.5 108t30.5 149.5v211q-61 -101 -168 -161t-223 -60 q-142 0 -258 77.5t-179 201.5t-63 265zM223 528q0 -113 53 -211t145 -156.5t200 -58.5q122 0 227.5 82t124.5 183v329q-44 116 -149 191.5t-220 75.5q-114 0 -203 -65.5t-133.5 -163.5t-44.5 -206zM561 1221h131l99 338h-91z" />
<glyph unicode="&#x124;" horiz-adv-x="1511" d="M182 0v1454h144v-647h862v647h141v-1454h-141v680h-862v-680h-144zM420 1602l293 317h92l293 -317h-193l-145 235l-148 -235h-192z" />
<glyph unicode="&#x125;" horiz-adv-x="1193" d="M154 0v1495h139v-670q63 120 176 190t244 70q175 0 256.5 -121.5t81.5 -338.5v-625h-140v596q0 362 -245 362q-120 0 -228.5 -88t-144.5 -217v-653h-139zM281 1608l292 317h93l292 -317h-192l-145 235l-148 -235h-192z" />
<glyph unicode="&#x126;" horiz-adv-x="1531" d="M90 1126v80h103v248h143v-248h862v248h141v-248h103v-80h-103v-1126h-141v680h-862v-680h-143v1126h-103zM336 807h862v319h-862v-319z" />
<glyph unicode="&#x127;" horiz-adv-x="1193" d="M29 1264v94h125v137h139v-137h252v-94h-252v-439q63 120 176 190t244 70q175 0 256.5 -121.5t81.5 -338.5v-625h-140v596q0 362 -245 362q-120 0 -228.5 -88t-144.5 -217v-653h-139v1264h-125z" />
<glyph unicode="&#x128;" horiz-adv-x="507" d="M-70 1673q0 11 4.5 31t17.5 48.5t32.5 52.5t54.5 41.5t78 17.5q48 0 92.5 -21.5t86 -43t83.5 -21.5q30 0 53 10t34.5 23t18.5 28.5t9 24.5t2 14h86q0 -11 -4.5 -30t-18.5 -47.5t-35 -52.5t-58.5 -41t-84.5 -17q-52 0 -99.5 20.5t-87.5 41t-75 20.5q-31 0 -53.5 -13.5 t-32 -32.5t-13.5 -32.5t-4 -20.5h-86zM182 0v1454h144v-1454h-144z" />
<glyph unicode="&#x129;" horiz-adv-x="446" d="M-100 1290q0 16 8 43t26.5 62.5t58.5 60.5t93 25q48 0 92.5 -21.5t86 -43t83.5 -21.5q30 0 53 10t34.5 23t18.5 28.5t9 24.5t2 14h86q0 -11 -4.5 -30t-18.5 -47.5t-35 -52.5t-58.5 -41t-84.5 -17q-52 0 -99.5 20.5t-87.5 41t-75 20.5q-31 0 -53.5 -13.5t-32 -33 t-13 -32.5t-3.5 -20h-86zM154 0v1067h139v-1067h-139z" />
<glyph unicode="&#x12a;" horiz-adv-x="507" d="M-41 1741v96h592v-96h-592zM182 0v1454h144v-1454h-144z" />
<glyph unicode="&#x12b;" horiz-adv-x="446" d="M-72 1358v96h592v-96h-592zM154 0v1067h139v-1067h-139z" />
<glyph unicode="&#x12c;" horiz-adv-x="507" d="M4 1925h105q0 -63 42.5 -113.5t96.5 -50.5q52 0 92.5 48t48.5 116h103q0 -105 -71.5 -177.5t-172.5 -72.5q-103 0 -173.5 72t-70.5 178zM182 0v1454h144v-1454h-144z" />
<glyph unicode="&#x12d;" horiz-adv-x="446" d="M-27 1538h105q0 -63 42.5 -113.5t96.5 -50.5q52 0 92.5 48t48.5 116h103q0 -105 -71.5 -177.5t-172.5 -72.5q-103 0 -173.5 72t-70.5 178zM154 0v1067h139v-1067h-139z" />
<glyph unicode="&#x12e;" horiz-adv-x="507" d="M72 -209q0 102 153 209h-43v1454h144v-1454q-90 -57 -129 -101t-39 -89q0 -76 106 -91l-39 -77q-74 15 -113.5 54.5t-39.5 94.5z" />
<glyph unicode="&#x12f;" horiz-adv-x="446" d="M39 -209q0 101 154 209h-39v1067h139v-1067q-90 -57 -129 -101t-39 -89q0 -76 106 -91l-38 -77q-74 15 -114 54.5t-40 94.5zM133 1403q0 38 27 65t65 27t65 -27t27 -65t-27 -65t-65 -27t-65 27t-27 65z" />
<glyph unicode="&#x130;" horiz-adv-x="507" d="M162 1786q0 38 27 65t65 27t65 -27t27 -65t-27 -65t-65 -27t-65 27t-27 65zM182 0v1454h144v-1454h-144z" />
<glyph unicode="&#x131;" horiz-adv-x="446" d="M154 0v1067h139v-1067h-139z" />
<glyph unicode="&#x132;" horiz-adv-x="1492" d="M182 0v1454h144v-1454h-144zM518 246q51 -121 162 -195t244 -74q95 0 179 29t150 84.5t103.5 146.5t34.5 207v1010h-144v-999q0 -90 -26.5 -157.5t-72.5 -107t-102 -58.5t-122 -19q-95 0 -169.5 53.5t-109.5 138.5z" />
<glyph unicode="&#x133;" horiz-adv-x="907" d="M133 1403q0 38 27 65t65 27t65 -27t27 -65t-27 -65t-65 -27t-65 27t-27 65zM154 0v1067h139v-1067h-139zM207 -291l67 94q54 -49 150 -49q74 0 132 55.5t58 135.5v1122h140v-1114q0 -137 -95 -230.5t-219 -93.5q-147 0 -233 80zM592 1403q0 38 27 65t65 27t65 -27t27 -65 t-27 -65t-65 -27t-65 27t-27 65z" />
<glyph unicode="&#x134;" horiz-adv-x="985" d="M10 246q51 -121 162 -195t244 -74q95 0 179 29t150 84.5t103.5 146.5t34.5 207v1010h-144v-999q0 -90 -26.5 -157.5t-72.5 -107t-102 -58.5t-122 -19q-95 0 -169.5 53.5t-109.5 138.5zM449 1597l292 318h93l292 -318h-192l-146 236l-147 -236h-192z" />
<glyph unicode="&#x135;" horiz-adv-x="446" d="M-117 1221l293 317h92l293 -317h-192l-146 235l-147 -235h-193zM154 -436v1495h139v-1495h-139z" />
<glyph unicode="&#x136;" horiz-adv-x="1316" d="M182 0v1452h144v-844l800 846h158l-594 -639l625 -815h-158l-557 731l-274 -285v-446h-144zM549 -438h90l139 338h-131z" />
<glyph unicode="&#x137;" horiz-adv-x="1085" d="M154 0v1495h139v-1016l600 586h158l-437 -436l453 -629h-152l-393 547l-229 -213v-334h-139zM424 -438h90l139 338h-131z" />
<glyph unicode="&#x138;" horiz-adv-x="1085" d="M154 0v1067h139v-588l600 586h158l-437 -436l453 -629h-152l-393 547l-229 -213v-334h-139z" />
<glyph unicode="&#x139;" horiz-adv-x="1193" d="M182 0v1454h144v-1327h839v-127h-983zM231 1597l183 318h192l-293 -318h-82z" />
<glyph unicode="&#x13a;" horiz-adv-x="557" d="M166 0v1495h139v-1495h-139zM199 1602l182 317h192l-292 -317h-82z" />
<glyph unicode="&#x13b;" horiz-adv-x="1193" d="M182 0v1454h144v-1327h839v-127h-983zM522 -438h90l140 338h-131z" />
<glyph unicode="&#x13c;" horiz-adv-x="557" d="M109 -438h90l139 338h-131zM215 0v1495h139v-1495h-139z" />
<glyph unicode="&#x13d;" horiz-adv-x="1193" d="M182 0v1454h144v-1327h839v-127h-983zM438 1141l72 315h131l-109 -315h-94z" />
<glyph unicode="&#x13e;" horiz-adv-x="557" d="M166 0v1495h139v-1495h-139zM371 1141l71 315h131l-108 -315h-94z" />
<glyph unicode="&#x13f;" horiz-adv-x="1193" d="M182 0v1454h144v-1327h839v-127h-983zM711 827q0 42 30 72.5t72 30.5t72 -30.5t30 -72.5q0 -43 -29.5 -72.5t-72.5 -29.5t-72.5 29.5t-29.5 72.5z" />
<glyph unicode="&#x140;" horiz-adv-x="643" d="M141 0v1495h140v-1495h-140zM418 653q0 42 30 72.5t72 30.5t72.5 -30.5t30.5 -72.5q0 -43 -30 -72.5t-73 -29.5t-72.5 29.5t-29.5 72.5z" />
<glyph unicode="&#x141;" horiz-adv-x="1208" d="M33 551l164 135v768h143v-649l317 264l64 -86l-381 -317v-539h840v-127h-983v547l-99 -80z" />
<glyph unicode="&#x142;" horiz-adv-x="468" d="M-37 666l508 401l57 -74l-510 -401zM166 0v1495h139v-1495h-139z" />
<glyph unicode="&#x143;" horiz-adv-x="1581" d="M182 0v1454h111l962 -1210v1208h144v-1452h-125l-948 1188v-1188h-144zM676 1606l182 317h193l-293 -317h-82z" />
<glyph unicode="&#x144;" horiz-adv-x="1193" d="M154 0v1067h127v-242q65 118 187.5 189t264.5 71q87 0 149.5 -31.5t99 -93.5t53 -144t16.5 -191v-625h-140v596q0 188 -55.5 275t-173.5 87q-125 0 -238 -87.5t-151 -217.5v-653h-139zM557 1221l182 317h193l-293 -317h-82z" />
<glyph unicode="&#x145;" horiz-adv-x="1581" d="M182 0v1454h111l962 -1210v1208h144v-1452h-125l-948 1188v-1188h-144zM639 -438h90l139 338h-131z" />
<glyph unicode="&#x146;" horiz-adv-x="1193" d="M154 0v1067h127v-242q65 118 187.5 189t264.5 71q87 0 149.5 -31.5t99 -93.5t53 -144t16.5 -191v-625h-140v596q0 188 -55.5 275t-173.5 87q-125 0 -238 -87.5t-151 -217.5v-653h-139zM446 -438h91l139 338h-131z" />
<glyph unicode="&#x147;" horiz-adv-x="1581" d="M182 0v1454h111l962 -1210v1208h144v-1452h-125l-948 1188v-1188h-144zM430 1919h193l147 -236l145 236h193l-293 -317h-92z" />
<glyph unicode="&#x148;" horiz-adv-x="1193" d="M154 0v1067h127v-242q65 118 187.5 189t264.5 71q87 0 149.5 -31.5t99 -93.5t53 -144t16.5 -191v-625h-140v596q0 188 -55.5 275t-173.5 87q-125 0 -238 -87.5t-151 -217.5v-653h-139zM279 1538h192l147 -235l146 235h192l-292 -317h-93z" />
<glyph unicode="&#x149;" horiz-adv-x="1193" d="M-31 1221l166 274h172l-248 -274h-90zM154 0v1067h127v-242q65 118 187.5 189t264.5 71q87 0 149.5 -31.5t99 -93.5t53 -144t16.5 -191v-625h-140v596q0 188 -55.5 275t-173.5 87q-125 0 -238 -87.5t-151 -217.5v-653h-139z" />
<glyph unicode="&#x14a;" horiz-adv-x="1568" d="M182 0v1454h109l954 -1204v1202h141v-1503q0 -136 -96 -228t-219 -92q-145 0 -233 80l69 94q52 -49 148 -49q74 0 133 56t59 135v73l-921 1168v-1186h-144z" />
<glyph unicode="&#x14b;" horiz-adv-x="1193" d="M154 0v1067h127v-242q65 118 187.5 189t264.5 71q87 0 149.5 -31.5t99 -93.5t53 -144t16.5 -191v-672q0 -137 -95 -230.5t-219 -93.5q-147 0 -233 80l67 94q54 -49 150 -49q74 0 132 55.5t58 135.5v651q0 188 -55.5 275t-173.5 87q-125 0 -238 -87.5t-151 -217.5v-653 h-139z" />
<glyph unicode="&#x14c;" horiz-adv-x="1538" d="M86 727q0 144 53 278.5t142.5 235.5t218 162t270.5 61q118 0 226 -41.5t189.5 -113.5t142 -166t91.5 -201.5t31 -216.5q0 -144 -52.5 -278t-142 -235t-217.5 -161.5t-270 -60.5q-148 0 -277.5 63t-217 166t-137.5 235.5t-50 272.5zM229 727q0 -118 40 -228t109.5 -194 t171.5 -135t218 -51q120 0 223 53t171 139t106.5 194.5t38.5 221.5q0 158 -68 296t-193 224t-278 86q-120 0 -223 -52.5t-171 -138t-106.5 -194t-38.5 -221.5zM475 1741v96h592v-96h-592z" />
<glyph unicode="&#x14d;" d="M80 530q0 111 40 212.5t109 177t168 120.5t211 45q150 0 272.5 -76t190.5 -203t68 -276q0 -148 -67.5 -273.5t-190 -201t-273.5 -75.5t-273 75.5t-188.5 201t-66.5 273.5zM221 528q0 -178 113.5 -302t273.5 -124t274.5 126t114.5 304t-114.5 304.5t-274.5 126.5 q-104 0 -193 -58t-141.5 -158.5t-52.5 -218.5zM313 1358v96h592v-96h-592z" />
<glyph unicode="&#x14e;" horiz-adv-x="1538" d="M86 727q0 144 53 278.5t142.5 235.5t218 162t270.5 61q118 0 226 -41.5t189.5 -113.5t142 -166t91.5 -201.5t31 -216.5q0 -144 -52.5 -278t-142 -235t-217.5 -161.5t-270 -60.5q-148 0 -277.5 63t-217 166t-137.5 235.5t-50 272.5zM229 727q0 -118 40 -228t109.5 -194 t171.5 -135t218 -51q120 0 223 53t171 139t106.5 194.5t38.5 221.5q0 158 -68 296t-193 224t-278 86q-120 0 -223 -52.5t-171 -138t-106.5 -194t-38.5 -221.5zM520 1925h105q0 -63 42.5 -113.5t96.5 -50.5q52 0 92.5 48t48.5 116h103q0 -105 -71.5 -177.5t-172.5 -72.5 q-103 0 -173.5 72t-70.5 178z" />
<glyph unicode="&#x14f;" d="M80 530q0 111 40 212.5t109 177t168 120.5t211 45q150 0 272.5 -76t190.5 -203t68 -276q0 -148 -67.5 -273.5t-190 -201t-273.5 -75.5t-273 75.5t-188.5 201t-66.5 273.5zM221 528q0 -178 113.5 -302t273.5 -124t274.5 126t114.5 304t-114.5 304.5t-274.5 126.5 q-104 0 -193 -58t-141.5 -158.5t-52.5 -218.5zM360 1538h105q0 -63 42.5 -113.5t96.5 -50.5q52 0 92.5 48t48.5 116h103q0 -105 -71.5 -177.5t-172.5 -72.5q-103 0 -173.5 72t-70.5 178z" />
<glyph unicode="&#x150;" horiz-adv-x="1538" d="M86 727q0 144 53 278.5t142.5 235.5t218 162t270.5 61q118 0 226 -41.5t189.5 -113.5t142 -166t91.5 -201.5t31 -216.5q0 -144 -52.5 -278t-142 -235t-217.5 -161.5t-270 -60.5q-148 0 -277.5 63t-217 166t-137.5 235.5t-50 272.5zM229 727q0 -118 40 -228t109.5 -194 t171.5 -135t218 -51q120 0 223 53t171 139t106.5 194.5t38.5 221.5q0 158 -68 296t-193 224t-278 86q-120 0 -223 -52.5t-171 -138t-106.5 -194t-38.5 -221.5zM567 1604l183 317h192l-293 -317h-82zM872 1604l183 317h192l-293 -317h-82z" />
<glyph unicode="&#x151;" d="M80 530q0 111 40 212.5t109 177t168 120.5t211 45q150 0 272.5 -76t190.5 -203t68 -276q0 -148 -67.5 -273.5t-190 -201t-273.5 -75.5t-273 75.5t-188.5 201t-66.5 273.5zM221 528q0 -178 113.5 -302t273.5 -124t274.5 126t114.5 304t-114.5 304.5t-274.5 126.5 q-104 0 -193 -58t-141.5 -158.5t-52.5 -218.5zM391 1221l182 317h193l-293 -317h-82zM696 1221l183 317h192l-293 -317h-82z" />
<glyph unicode="&#x152;" horiz-adv-x="2361" d="M86 727q0 144 53 278.5t142.5 235.5t218 162t270.5 61q183 0 326.5 -107t214.5 -272v369h948v-127h-805v-522h694v-127h-694v-551h823v-127h-966v369q-71 -167 -217 -273t-324 -106q-148 0 -277.5 63t-217.5 166t-138.5 235.5t-50.5 272.5zM229 727q0 -118 40 -228 t109.5 -194t171.5 -135t218 -51q120 0 223 52.5t171 139t106.5 195.5t38.5 223q0 157 -68 295t-193 224.5t-278 86.5q-96 0 -182.5 -34t-150.5 -93.5t-111 -136.5t-71 -165.5t-24 -178.5z" />
<glyph unicode="&#x153;" horiz-adv-x="2117" d="M80 528q0 154 69.5 282t191.5 201.5t269 73.5q155 0 277 -90.5t178 -246.5q57 160 178.5 248.5t284.5 88.5q234 0 381 -166.5t147 -435.5h-913q14 -167 131.5 -282t277.5 -115q111 0 203.5 53.5t126.5 139.5l119 -33q-52 -118 -179 -192t-276 -74q-152 0 -280.5 90.5 t-196.5 242.5q-68 -156 -190 -244.5t-273 -88.5q-146 0 -267 72.5t-190 198.5t-69 277zM221 526q0 -179 112.5 -301.5t274.5 -122.5q163 0 276 124t113 304q0 181 -113 307t-274 126t-275 -128t-114 -309zM1141 578h780q-10 173 -123.5 286t-271.5 113t-267 -113t-118 -286z " />
<glyph unicode="&#x154;" horiz-adv-x="1337" d="M182 0v1454h615q120 0 220.5 -67.5t155 -172t54.5 -217.5q0 -160 -90 -283.5t-234 -152.5l357 -561h-162l-342 537h-430v-537h-144zM326 664h475q83 0 148.5 47.5t99.5 123t34 162.5q0 133 -87.5 231.5t-207.5 98.5h-462v-663zM623 1608l182 317h192l-292 -317h-82z" />
<glyph unicode="&#x155;" horiz-adv-x="718" d="M154 0v1067h131v-256q60 123 160 192.5t214 69.5q17 0 27 -2v-127q-141 -5 -246 -78.5t-147 -201.5v-664h-139zM193 1221l182 317h192l-293 -317h-81z" />
<glyph unicode="&#x156;" horiz-adv-x="1337" d="M182 0v1454h615q120 0 220.5 -67.5t155 -172t54.5 -217.5q0 -160 -90 -283.5t-234 -152.5l357 -561h-162l-342 537h-430v-537h-144zM326 664h475q83 0 148.5 47.5t99.5 123t34 162.5q0 133 -87.5 231.5t-207.5 98.5h-462v-663zM518 -438h90l140 338h-132z" />
<glyph unicode="&#x157;" horiz-adv-x="718" d="M59 -438h91l139 338h-131zM154 0v1067h131v-256q60 123 160 192.5t214 69.5q17 0 27 -2v-127q-141 -5 -246 -78.5t-147 -201.5v-664h-139z" />
<glyph unicode="&#x158;" horiz-adv-x="1337" d="M182 0v1454h615q120 0 220.5 -67.5t155 -172t54.5 -217.5q0 -160 -90 -283.5t-234 -152.5l357 -561h-162l-342 537h-430v-537h-144zM297 1921h192l148 -235l145 235h193l-293 -317h-92zM326 664h475q83 0 148.5 47.5t99.5 123t34 162.5q0 133 -87.5 231.5t-207.5 98.5 h-462v-663z" />
<glyph unicode="&#x159;" horiz-adv-x="718" d="M43 1538h193l147 -235l145 235h193l-293 -317h-92zM154 0v1067h131v-256q60 123 160 192.5t214 69.5q17 0 27 -2v-127q-141 -5 -246 -78.5t-147 -201.5v-664h-139z" />
<glyph unicode="&#x15a;" horiz-adv-x="1243" d="M66 199l71 116q82 -88 219.5 -144t296.5 -56q176 0 272.5 64t96.5 188q0 53 -19 93.5t-51 70t-90 54.5t-120.5 43t-157.5 40q-99 23 -166 44t-128 51.5t-96 68.5t-55 91.5t-20 123.5q0 198 142.5 307.5t375.5 109.5q273 0 465 -168l-70 -114q-64 71 -167 113t-230 42 q-187 0 -278 -70.5t-91 -199.5q0 -51 16 -89.5t44 -65.5t81.5 -49.5t111.5 -38.5t151 -36q84 -19 145 -36t122 -41.5t101.5 -54t73 -69t47.5 -91t15 -115.5q0 -130 -68.5 -220t-184.5 -131.5t-272 -41.5q-337 0 -583 211zM590 1599l182 318h193l-293 -318h-82z" />
<glyph unicode="&#x15b;" horiz-adv-x="997" d="M59 139l64 94q178 -147 383 -147q129 0 205.5 53.5t76.5 147.5q0 35 -14 62t-35.5 45.5t-66.5 36t-87.5 29t-117.5 29.5q-83 20 -133.5 36t-98.5 38t-72.5 48t-39 63.5t-14.5 87.5q0 104 55 178.5t143.5 109.5t200.5 35q120 0 221 -39.5t164 -105.5l-68 -82 q-59 60 -143.5 91.5t-177.5 31.5q-116 0 -189 -50t-73 -149q0 -34 10.5 -58.5t27 -41t53.5 -31.5t73 -25t102 -26q92 -22 150 -39.5t114 -42.5t86 -54t48 -70t18 -95q0 -146 -113.5 -232.5t-302.5 -86.5q-127 0 -245.5 41t-203.5 118zM453 1221l182 317h192l-292 -317h-82z " />
<glyph unicode="&#x15c;" horiz-adv-x="1243" d="M66 199l71 116q82 -88 219.5 -144t296.5 -56q176 0 272.5 64t96.5 188q0 53 -19 93.5t-51 70t-90 54.5t-120.5 43t-157.5 40q-99 23 -166 44t-128 51.5t-96 68.5t-55 91.5t-20 123.5q0 198 142.5 307.5t375.5 109.5q273 0 465 -168l-70 -114q-64 71 -167 113t-230 42 q-187 0 -278 -70.5t-91 -199.5q0 -51 16 -89.5t44 -65.5t81.5 -49.5t111.5 -38.5t151 -36q84 -19 145 -36t122 -41.5t101.5 -54t73 -69t47.5 -91t15 -115.5q0 -130 -68.5 -220t-184.5 -131.5t-272 -41.5q-337 0 -583 211zM285 1602l293 317h92l293 -317h-193l-145 235 l-148 -235h-192z" />
<glyph unicode="&#x15d;" horiz-adv-x="997" d="M59 139l64 94q178 -147 383 -147q129 0 205.5 53.5t76.5 147.5q0 35 -14 62t-35.5 45.5t-66.5 36t-87.5 29t-117.5 29.5q-83 20 -133.5 36t-98.5 38t-72.5 48t-39 63.5t-14.5 87.5q0 104 55 178.5t143.5 109.5t200.5 35q120 0 221 -39.5t164 -105.5l-68 -82 q-59 60 -143.5 91.5t-177.5 31.5q-116 0 -189 -50t-73 -149q0 -34 10.5 -58.5t27 -41t53.5 -31.5t73 -25t102 -26q92 -22 150 -39.5t114 -42.5t86 -54t48 -70t18 -95q0 -146 -113.5 -232.5t-302.5 -86.5q-127 0 -245.5 41t-203.5 118zM164 1221l293 317h92l293 -317h-193 l-145 235l-148 -235h-192z" />
<glyph unicode="&#x15e;" horiz-adv-x="1245" d="M66 199l71 116q82 -88 219.5 -144t296.5 -56q176 0 272.5 64t96.5 188q0 53 -19 93.5t-51 70t-90 54.5t-120.5 43t-157.5 40q-99 23 -166 44t-128 51.5t-96 68.5t-55 91.5t-20 123.5q0 198 142.5 307.5t375.5 109.5q273 0 465 -168l-70 -114q-64 71 -167 113t-230 42 q-187 0 -278 -70.5t-91 -199.5q0 -51 16 -89.5t44 -65.5t81.5 -49.5t111.5 -38.5t151 -36q84 -19 145 -36t122 -41.5t101.5 -54t73 -69t47.5 -91t15 -115.5q0 -184 -128 -283t-346 -108l-57 -94q30 12 78 12q72 0 114 -32.5t42 -92.5q0 -69 -54 -106t-155 -37 q-102 0 -203 38l35 64q76 -37 180 -37q117 0 117 72q0 73 -103 73q-82 0 -164 -28l91 166q-321 9 -555 211z" />
<glyph unicode="&#x15f;" horiz-adv-x="999" d="M59 139l64 94q178 -147 383 -147q129 0 205.5 53.5t76.5 147.5q0 35 -14 62t-35.5 45.5t-66.5 36t-87.5 29t-117.5 29.5q-83 20 -133.5 36t-98.5 38t-72.5 48t-39 63.5t-14.5 87.5q0 104 55 178.5t143.5 109.5t200.5 35q120 0 221 -39.5t164 -105.5l-68 -82 q-59 60 -143.5 91.5t-177.5 31.5q-116 0 -189 -50t-73 -149q0 -34 10.5 -58.5t27 -41t53.5 -31.5t73 -25t102 -26q92 -22 150 -39.5t114 -42.5t86 -54t48 -70t18 -95q0 -137 -102 -222.5t-275 -94.5l-53 -86q30 12 77 12q72 0 114 -32.5t42 -92.5q0 -69 -54 -106t-155 -37 q-102 0 -203 38l35 64q76 -37 180 -37q117 0 117 72q0 73 -102 73q-82 0 -164 -28l86 160q-118 6 -225 46t-183 111z" />
<glyph unicode="&#x160;" horiz-adv-x="1243" d="M66 199l71 116q82 -88 219.5 -144t296.5 -56q176 0 272.5 64t96.5 188q0 53 -19 93.5t-51 70t-90 54.5t-120.5 43t-157.5 40q-99 23 -166 44t-128 51.5t-96 68.5t-55 91.5t-20 123.5q0 198 142.5 307.5t375.5 109.5q273 0 465 -168l-70 -114q-64 71 -167 113t-230 42 q-187 0 -278 -70.5t-91 -199.5q0 -51 16 -89.5t44 -65.5t81.5 -49.5t111.5 -38.5t151 -36q84 -19 145 -36t122 -41.5t101.5 -54t73 -69t47.5 -91t15 -115.5q0 -130 -68.5 -220t-184.5 -131.5t-272 -41.5q-337 0 -583 211zM291 1921h192l148 -235l145 235h193l-293 -317h-92z " />
<glyph unicode="&#x161;" horiz-adv-x="997" d="M59 139l64 94q178 -147 383 -147q129 0 205.5 53.5t76.5 147.5q0 35 -14 62t-35.5 45.5t-66.5 36t-87.5 29t-117.5 29.5q-83 20 -133.5 36t-98.5 38t-72.5 48t-39 63.5t-14.5 87.5q0 104 55 178.5t143.5 109.5t200.5 35q120 0 221 -39.5t164 -105.5l-68 -82 q-59 60 -143.5 91.5t-177.5 31.5q-116 0 -189 -50t-73 -149q0 -34 10.5 -58.5t27 -41t53.5 -31.5t73 -25t102 -26q92 -22 150 -39.5t114 -42.5t86 -54t48 -70t18 -95q0 -146 -113.5 -232.5t-302.5 -86.5q-127 0 -245.5 41t-203.5 118zM158 1538h192l148 -235l145 235h193 l-293 -317h-92z" />
<glyph unicode="&#x162;" horiz-adv-x="1247" d="M33 1327v127h1179v-127h-518v-1327h-20l-66 -104q30 12 78 12q72 0 114 -32.5t42 -92.5q0 -69 -54 -106t-155 -37q-102 0 -203 38l35 64q76 -37 180 -37q117 0 117 72q0 73 -103 73q-81 0 -163 -28l96 178h-41v1327h-518z" />
<glyph unicode="&#x163;" horiz-adv-x="686" d="M72 956v111h147v272h139v-272h246v-111h-246v-733q4 -67 38 -89.5t91 -22.5q62 0 127 36l41 -110q-110 -49 -211 -49q-94 0 -159.5 62t-65.5 165v741h-147zM233 -322l35 64q76 -37 181 -37q116 0 116 72q0 73 -102 73q-82 0 -164 -28l117 215l67 -27l-71 -114 q30 12 77 12q72 0 114 -32.5t42 -92.5q0 -69 -54 -106t-155 -37q-102 0 -203 38z" />
<glyph unicode="&#x164;" horiz-adv-x="1249" d="M35 1327v127h1179v-127h-518v-1327h-143v1327h-518zM272 1919h193l147 -236l146 236h192l-293 -317h-92z" />
<glyph unicode="&#x165;" horiz-adv-x="686" d="M72 956v111h147v272h139v-272h246v-111h-246v-733q4 -67 38 -89.5t91 -22.5q62 0 127 36l41 -110q-110 -49 -211 -49q-94 0 -159.5 62t-65.5 165v741h-147zM453 1141l71 315h131l-108 -315h-94z" />
<glyph unicode="&#x166;" horiz-adv-x="1312" d="M35 1327v127h1179v-127h-518v-1327h-143v1327h-518zM174 752v94h944v-94h-944z" />
<glyph unicode="&#x167;" horiz-adv-x="690" d="M72 956v111h147v272h139v-272h246v-111h-246v-733q4 -67 38 -89.5t91 -22.5q62 0 127 36l41 -110q-110 -49 -211 -49q-94 0 -159.5 62t-65.5 165v741h-147zM92 629v94h494v-94h-494z" />
<glyph unicode="&#x168;" horiz-adv-x="1546" d="M162 721v733h141v-733q0 -96 14 -180t48 -163t86 -135.5t134 -90t187 -33.5q107 0 190.5 34.5t135.5 91.5t85.5 136.5t46.5 162.5t13 177v733h143v-733q0 -121 -20.5 -226.5t-67 -199.5t-116 -160.5t-174 -105.5t-234.5 -39q-134 0 -240 41t-175 109t-114 163.5 t-64 198.5t-19 219zM451 1673q0 16 8 43t26.5 62.5t58.5 60.5t93 25q48 0 92.5 -21.5t86 -43t83.5 -21.5q30 0 53 10t34.5 23t18.5 28.5t9 24.5t2 14h86q0 -11 -4.5 -30t-18.5 -47.5t-35 -52.5t-58.5 -41t-84.5 -17q-52 0 -99.5 20.5t-87.5 41t-75 20.5q-31 0 -53.5 -13.5 t-32 -33t-13 -32.5t-3.5 -20h-86z" />
<glyph unicode="&#x169;" horiz-adv-x="1216" d="M143 440v627h140v-602q0 -363 247 -363q124 0 231 80.5t154 212.5v672h140v-887q0 -57 49 -57v-123q-33 -4 -62 -4q-50 2 -80 35t-30 88v123q-68 -123 -188 -192.5t-257 -69.5q-344 0 -344 460zM272 1290q0 11 4.5 31t17.5 48.5t32.5 52.5t54.5 41.5t78 17.5 q48 0 92.5 -21.5t86 -43t83.5 -21.5q30 0 53 10t34.5 23t18.5 28.5t9 24.5t2 14h86q0 -11 -4.5 -30t-18.5 -47.5t-35 -52.5t-58.5 -41t-84.5 -17q-52 0 -99.5 20.5t-87.5 41t-75 20.5q-31 0 -53.5 -13.5t-32 -32.5t-13.5 -32.5t-4 -20.5h-86z" />
<glyph unicode="&#x16a;" horiz-adv-x="1546" d="M162 721v733h141v-733q0 -96 14 -180t48 -163t86 -135.5t134 -90t187 -33.5q107 0 190.5 34.5t135.5 91.5t85.5 136.5t46.5 162.5t13 177v733h143v-733q0 -121 -20.5 -226.5t-67 -199.5t-116 -160.5t-174 -105.5t-234.5 -39q-134 0 -240 41t-175 109t-114 163.5 t-64 198.5t-19 219zM487 1747v96h592v-96h-592z" />
<glyph unicode="&#x16b;" horiz-adv-x="1208" d="M143 440v627h140v-602q0 -64 6.5 -115t23.5 -99t45.5 -79.5t74 -50.5t106.5 -19q124 0 228.5 84.5t147.5 208.5v672h140v-1067h-135v233q-62 -117 -178 -185t-248 -68q-82 0 -144 24.5t-101 66t-63 102t-33.5 125t-9.5 142.5zM307 1358v96h592v-96h-592z" />
<glyph unicode="&#x16c;" horiz-adv-x="1546" d="M162 721v733h141v-733q0 -96 14 -180t48 -163t86 -135.5t134 -90t187 -33.5q107 0 190.5 34.5t135.5 91.5t85.5 136.5t46.5 162.5t13 177v733h143v-733q0 -121 -20.5 -226.5t-67 -199.5t-116 -160.5t-174 -105.5t-234.5 -39q-134 0 -240 41t-175 109t-114 163.5 t-64 198.5t-19 219zM524 1925h105q0 -63 42.5 -113.5t96.5 -50.5q52 0 92.5 48t48.5 116h103q0 -105 -71.5 -177.5t-172.5 -72.5q-103 0 -173.5 72t-70.5 178z" />
<glyph unicode="&#x16d;" horiz-adv-x="1208" d="M143 440v627h140v-602q0 -64 6.5 -115t23.5 -99t45.5 -79.5t74 -50.5t106.5 -19q124 0 228.5 84.5t147.5 208.5v672h140v-1067h-135v233q-62 -117 -178 -185t-248 -68q-82 0 -144 24.5t-101 66t-63 102t-33.5 125t-9.5 142.5zM354 1538h105q0 -63 42.5 -113.5t96.5 -50.5 q52 0 92.5 48t48.5 116h103q0 -105 -71.5 -177.5t-172.5 -72.5q-103 0 -173.5 72t-70.5 178z" />
<glyph unicode="&#x16e;" horiz-adv-x="1546" d="M162 721v733h141v-733q0 -96 14 -180t48 -163t86 -135.5t134 -90t187 -33.5q107 0 190.5 34.5t135.5 91.5t85.5 136.5t46.5 162.5t13 177v733h143v-733q0 -121 -20.5 -226.5t-67 -199.5t-116 -160.5t-174 -105.5t-234.5 -39q-134 0 -240 41t-175 109t-114 163.5 t-64 198.5t-19 219zM598 1765q0 70 49.5 113t126.5 43t125.5 -43t48.5 -113t-48.5 -112.5t-125.5 -42.5t-126.5 42.5t-49.5 112.5zM678 1765q0 -39 27.5 -65.5t68.5 -26.5q38 0 67 26.5t29 65.5q0 41 -28 67t-68 26t-68 -26t-28 -67z" />
<glyph unicode="&#x16f;" horiz-adv-x="1208" d="M143 440v627h140v-602q0 -64 6.5 -115t23.5 -99t45.5 -79.5t74 -50.5t106.5 -19q124 0 228.5 84.5t147.5 208.5v672h140v-1067h-135v233q-62 -117 -178 -185t-248 -68q-82 0 -144 24.5t-101 66t-63 102t-33.5 125t-9.5 142.5zM428 1382q0 70 49.5 113t126.5 43t125.5 -43 t48.5 -113t-48.5 -112.5t-125.5 -42.5t-126.5 42.5t-49.5 112.5zM508 1382q0 -39 27.5 -65.5t68.5 -26.5q38 0 67 26.5t29 65.5q0 41 -28 67t-68 26t-68 -26t-28 -67z" />
<glyph unicode="&#x170;" horiz-adv-x="1546" d="M162 721v733h141v-733q0 -96 14 -180t48 -163t86 -135.5t134 -90t187 -33.5q107 0 190.5 34.5t135.5 91.5t85.5 136.5t46.5 162.5t13 177v733h143v-733q0 -121 -20.5 -226.5t-67 -199.5t-116 -160.5t-174 -105.5t-234.5 -39q-134 0 -240 41t-175 109t-114 163.5 t-64 198.5t-19 219zM567 1604l183 317h192l-293 -317h-82zM872 1604l183 317h192l-293 -317h-82z" />
<glyph unicode="&#x171;" horiz-adv-x="1216" d="M143 440v627h140v-602q0 -64 6.5 -115t23.5 -99t45.5 -79.5t74 -50.5t106.5 -19q124 0 228.5 84.5t147.5 208.5v672h140v-1067h-135v233q-62 -117 -178 -185t-248 -68q-82 0 -144 24.5t-101 66t-63 102t-33.5 125t-9.5 142.5zM391 1221l182 317h193l-293 -317h-82z M696 1221l183 317h192l-293 -317h-82z" />
<glyph unicode="&#x172;" horiz-adv-x="1548" d="M162 721v733h141v-733q0 -96 14 -180t48 -163t86 -135.5t134 -90t187 -33.5q107 0 190.5 34.5t135.5 91.5t85.5 136.5t46.5 162.5t13 177v733h143v-733q0 -117 -19.5 -220.5t-63 -195.5t-109 -158.5t-162.5 -108t-219 -46.5q-88 -56 -126 -100t-38 -89q0 -75 107 -90 l-39 -78q-74 15 -114 55t-40 95q0 101 152 209q-120 8 -216 53t-158 113.5t-103 160.5t-58.5 191t-17.5 209z" />
<glyph unicode="&#x173;" horiz-adv-x="1208" d="M143 440v627h140v-602q0 -64 6.5 -115t23.5 -99t45.5 -79.5t74 -50.5t106.5 -19q124 0 228.5 84.5t147.5 208.5v672h140v-1067h-135v233q-62 -117 -178 -185t-248 -68q-82 0 -144 24.5t-101 66t-63 102t-33.5 125t-9.5 142.5zM801 -209q0 117 209 244l45 -35 q-90 -57 -129 -101t-39 -89q0 -76 106 -91l-39 -77q-74 15 -113.5 54.5t-39.5 94.5z" />
<glyph unicode="&#x174;" horiz-adv-x="2174" d="M43 1454h160l389 -1247l409 1247h156l426 -1247l389 1247h160l-463 -1454h-149l-439 1223l-426 -1223h-149zM733 1599l293 318h92l293 -318h-192l-146 236l-147 -236h-193z" />
<glyph unicode="&#x175;" horiz-adv-x="1697" d="M45 1067h145l308 -893l284 893h133l285 -893l307 893h146l-375 -1067h-148l-280 856l-285 -856h-145zM500 1221l293 317h92l293 -317h-193l-145 235l-148 -235h-192z" />
<glyph unicode="&#x176;" horiz-adv-x="1333" d="M33 1454h157l476 -782l479 782h155l-563 -913v-541h-143v545zM326 1604l292 317h93l293 -317h-193l-145 235l-148 -235h-192z" />
<glyph unicode="&#x177;" horiz-adv-x="1110" d="M27 1067h145l395 -938l365 938h133l-555 -1376q-27 -69 -85.5 -108.5t-143.5 -39.5q-63 0 -93 6l13 125q24 -4 51 -4q35 0 55 5t39 20t35 45.5t37 79t51 122.5q15 37 23 58zM221 1221l293 317h92l293 -317h-192l-146 235l-147 -235h-193z" />
<glyph unicode="&#x178;" horiz-adv-x="1333" d="M33 1454h157l476 -782l479 782h155l-563 -913v-541h-143v545zM387 1780q0 38 27 65t65 27t65 -27t27 -65t-27 -65t-65 -27t-65 27t-27 65zM762 1780q0 38 27 65t65 27t65 -27t27 -65t-27 -65t-65 -27t-65 27t-27 65z" />
<glyph unicode="&#x179;" horiz-adv-x="1288" d="M63 0v113l990 1214h-973v127h1139v-113l-977 -1214h975v-127h-1154zM563 1602l182 317h193l-293 -317h-82z" />
<glyph unicode="&#x17a;" horiz-adv-x="1007" d="M63 0v94l721 869h-704v104h856v-94l-719 -869h717v-104h-871zM426 1221l182 317h193l-293 -317h-82z" />
<glyph unicode="&#x17b;" horiz-adv-x="1288" d="M63 0v113l990 1214h-973v127h1139v-113l-977 -1214h975v-127h-1154zM547 1784q0 38 27 65t65 27t65 -27t27 -65t-27 -65t-65 -27t-65 27t-27 65z" />
<glyph unicode="&#x17c;" horiz-adv-x="1007" d="M63 0v94l721 869h-704v104h856v-94l-719 -869h717v-104h-871zM416 1403q0 38 27 65t65 27t65 -27t27 -65t-27 -65t-65 -27t-65 27t-27 65z" />
<glyph unicode="&#x17d;" horiz-adv-x="1288" d="M63 0v113l990 1214h-973v127h1139v-113l-977 -1214h975v-127h-1154zM332 1917h192l148 -236l145 236h193l-293 -318h-92z" />
<glyph unicode="&#x17e;" horiz-adv-x="1007" d="M63 0v94l721 869h-704v104h856v-94l-719 -869h717v-104h-871zM184 1538h193l147 -235l146 235h192l-293 -317h-92z" />
<glyph unicode="&#x18f;" horiz-adv-x="1509" d="M59 717q0 57 4 67h1203q-22 235 -174 391t-359 156q-149 0 -272.5 -79.5t-167.5 -204.5l-135 61q72 157 237 256.5t353 99.5q138 0 262.5 -58.5t215 -158t144 -238t53.5 -290.5q0 -151 -53 -286.5t-143 -233t-215 -154.5t-264 -57q-141 0 -269 57.5t-220 155.5 t-146 232.5t-54 283.5zM213 659q9 -152 82 -276.5t192.5 -195t260.5 -70.5q139 0 255 70t187 194.5t80 277.5h-1057z" />
<glyph unicode="&#x192;" horiz-adv-x="1077" d="M61 -291l70 94q52 -49 150 -49q73 0 131.5 56t58.5 135v886h-149v111h149v154q0 195 83.5 307.5t229.5 112.5q60 0 120.5 -18.5t103.5 -49.5l-41 -100q-60 47 -158 47q-97 0 -148 -76t-51 -219v-158h293v-111h-293v-882q0 -137 -95.5 -228.5t-219.5 -91.5q-148 0 -234 80 z" />
<glyph unicode="&#x1c4;" horiz-adv-x="2750" d="M182 0v1454h494q136 0 250 -37t195.5 -103t138.5 -156.5t84.5 -199t27.5 -229.5q0 -331 -189.5 -530t-506.5 -199h-494zM326 127h350q175 0 302 80t189 214.5t62 307.5q0 267 -146.5 432.5t-406.5 165.5h-350v-1200zM1524 0v113l989 1214h-973v127h1139v-113l-977 -1214 h975v-127h-1153zM1759 1917h193l147 -236l146 236h192l-293 -318h-92z" />
<glyph unicode="&#x1c5;" horiz-adv-x="2469" d="M182 0v1454h494q136 0 250 -37t195.5 -103t138.5 -156.5t84.5 -199t27.5 -229.5q0 -331 -189.5 -530t-506.5 -199h-494zM326 127h350q175 0 302 80t189 214.5t62 307.5q0 267 -146.5 432.5t-406.5 165.5h-350v-1200zM1505 0v94l721 869h-704v104h856v-94l-719 -869h717 v-104h-871zM1587 1538h193l147 -235l146 235h192l-293 -317h-92z" />
<glyph unicode="&#x1c6;" horiz-adv-x="2273" d="M82 530q0 150 62 276.5t174 202.5t249 76q127 0 230.5 -66.5t175.5 -174.5v651h139v-1495h-139v199q-63 -100 -164.5 -159.5t-216.5 -59.5q-108 0 -204.5 45.5t-162.5 121.5t-104.5 176t-38.5 207zM225 530q0 -114 52.5 -212.5t144.5 -157t201 -58.5q71 0 149 35 t135.5 98t65.5 132v329q-38 111 -147.5 189t-221.5 78q-110 0 -198.5 -63.5t-134.5 -161.5t-46 -208zM1329 0v94l721 869h-704v104h856v-94l-719 -869h717v-104h-871zM1434 1538h192l148 -235l145 235h192l-292 -317h-93z" />
<glyph unicode="&#x1c7;" horiz-adv-x="2179" d="M182 0v1454h144v-1327h839v-127h-983zM1184 246q51 -121 161.5 -195t243.5 -74q95 0 179 29t150 84.5t103.5 146.5t34.5 207v1010h-143v-999q0 -90 -26.5 -157.5t-73 -107t-102.5 -58.5t-122 -19q-94 0 -168.5 53t-109.5 139z" />
<glyph unicode="&#x1c8;" horiz-adv-x="1652" d="M182 0v1454h144v-1327h839v-127h-983zM1321 1403q0 38 27 65t65 27t65 -27t27 -65t-27 -65t-65 -27t-65 27t-27 65zM1348 -436v1495h139v-1495h-139z" />
<glyph unicode="&#x1c9;" horiz-adv-x="1017" d="M201 0v1495h139v-1495h-139zM698 1403q0 38 27.5 65t65.5 27t65 -27t27 -65t-27 -65t-65 -27t-65.5 27t-27.5 65zM725 -436v1495h139v-1495h-139z" />
<glyph unicode="&#x1ca;" horiz-adv-x="2566" d="M182 0v1454h111l962 -1210v1208h144v-1452h-125l-948 1188v-1188h-144zM1513 246q51 -121 162 -195t244 -74q95 0 179 29t150 84.5t103.5 146.5t34.5 207v1010h-143v-999q0 -90 -26.5 -157.5t-73 -107t-102.5 -58.5t-122 -19q-95 0 -169.5 53.5t-109.5 138.5z" />
<glyph unicode="&#x1cb;" horiz-adv-x="2041" d="M182 0v1454h111l962 -1210v1208h144v-1452h-125l-948 1188v-1188h-144zM1710 1403q0 38 27 65t65 27t65 -27t27 -65t-27 -65t-65 -27t-65 27t-27 65zM1737 -436v1495h139v-1495h-139z" />
<glyph unicode="&#x1cc;" horiz-adv-x="1654" d="M154 0v1067h127v-242q65 118 187.5 189t264.5 71q87 0 149.5 -31.5t99 -93.5t53 -144t16.5 -191v-625h-140v596q0 188 -55.5 275t-173.5 87q-125 0 -238 -87.5t-151 -217.5v-653h-139zM1337 1403q0 38 27.5 65t65.5 27t65 -27t27 -65t-27 -65t-65 -27t-65.5 27t-27.5 65z M1364 -436v1495h139v-1495h-139z" />
<glyph unicode="&#x1ea;" horiz-adv-x="1538" d="M86 727q0 144 53 278.5t142.5 235.5t218 162t270.5 61q118 0 226 -41.5t189.5 -113.5t142 -166t91.5 -201.5t31 -216.5q0 -185 -82.5 -348.5t-230.5 -268t-328 -116.5q-88 -55 -126 -99.5t-38 -89.5q0 -75 107 -90l-39 -78q-74 15 -114 55t-40 95q0 101 152 209 q-137 11 -255.5 77.5t-198.5 167t-125.5 228t-45.5 260.5zM229 727q0 -118 40 -228t109.5 -194t171.5 -135t218 -51q120 0 223 53t171 139t106.5 194.5t38.5 221.5q0 158 -68 296t-193 224t-278 86q-120 0 -223 -52.5t-171 -138t-106.5 -194t-38.5 -221.5z" />
<glyph unicode="&#x1eb;" d="M80 530q0 111 40 212.5t109 177t168 120.5t211 45q150 0 272.5 -76t190.5 -203t68 -276q0 -206 -127.5 -361t-325.5 -183q-88 -56 -126 -100t-38 -89q0 -75 107 -90l-39 -78q-74 15 -114 55t-40 95q0 99 144 203q-144 7 -259.5 83t-178 198.5t-62.5 266.5zM221 528 q0 -178 113.5 -302t273.5 -124t274.5 126t114.5 304t-114.5 304.5t-274.5 126.5q-104 0 -193 -58t-141.5 -158.5t-52.5 -218.5z" />
<glyph unicode="&#x1f1;" horiz-adv-x="2721" d="M182 0v1454h494q136 0 250 -37t195.5 -103t138.5 -156.5t84.5 -199t27.5 -229.5q0 -331 -189.5 -530t-506.5 -199h-494zM326 127h350q175 0 302 80t189 214.5t62 307.5q0 267 -146.5 432.5t-406.5 165.5h-350v-1200zM1497 0v113l989 1214h-973v127h1139v-113l-977 -1214 h975v-127h-1153z" />
<glyph unicode="&#x1f2;" horiz-adv-x="2469" d="M182 0v1454h494q136 0 250 -37t195.5 -103t138.5 -156.5t84.5 -199t27.5 -229.5q0 -331 -189.5 -530t-506.5 -199h-494zM326 127h350q175 0 302 80t189 214.5t62 307.5q0 267 -146.5 432.5t-406.5 165.5h-350v-1200zM1528 0v94l721 869h-705v104h856v-94l-719 -869h717 v-104h-870z" />
<glyph unicode="&#x1f3;" horiz-adv-x="2279" d="M82 530q0 150 62 276.5t174 202.5t249 76q127 0 230.5 -66.5t175.5 -174.5v651h139v-1495h-139v199q-63 -100 -164.5 -159.5t-216.5 -59.5q-108 0 -204.5 45.5t-162.5 121.5t-104.5 176t-38.5 207zM225 530q0 -114 52.5 -212.5t144.5 -157t201 -58.5q71 0 149 35 t135.5 98t65.5 132v329q-38 111 -147.5 189t-221.5 78q-110 0 -198.5 -63.5t-134.5 -161.5t-46 -208zM1296 0v94l721 869h-704v104h856v-94l-719 -869h717v-104h-871z" />
<glyph unicode="&#x1f4;" horiz-adv-x="1466" d="M47 731q0 149 53.5 283.5t147.5 233.5t229 157.5t291 58.5q181 0 350.5 -89.5t257.5 -229.5l-123 -80q-65 110 -202.5 190t-290.5 80q-127 0 -235.5 -50t-181 -133.5t-113 -194.5t-40.5 -232q0 -97 26 -187.5t76 -166t118.5 -132.5t158.5 -88.5t191 -31.5q109 0 208.5 39 t170.5 104.5t118 149.5t60 174h-430v129h579q0 -5 -1 -41t-1 -43q-11 -127 -67 -243.5t-145 -204.5t-215 -140.5t-267 -52.5q-131 0 -246 38.5t-201.5 107.5t-149 161.5t-94.5 203.5t-32 230zM700 1597l183 318h192l-293 -318h-82z" />
<glyph unicode="&#x1f5;" horiz-adv-x="1263" d="M82 530q0 148 62 274.5t176.5 203.5t257.5 77q244 0 409 -241v223h125v-1071q0 -144 -72 -248.5t-188.5 -154.5t-261.5 -50q-176 0 -290 62t-189 180l86 68q61 -98 165 -148.5t228 -50.5q79 0 147.5 21.5t121.5 63t83.5 108t30.5 149.5v211q-61 -101 -168 -161t-223 -60 q-142 0 -258 77.5t-179 201.5t-63 265zM223 528q0 -113 53 -211t145 -156.5t200 -58.5q122 0 227.5 82t124.5 183v329q-44 116 -149 191.5t-220 75.5q-114 0 -203 -65.5t-133.5 -163.5t-44.5 -206zM541 1221l182 317h192l-292 -317h-82z" />
<glyph unicode="&#x1fa;" horiz-adv-x="1384" d="M25 0l591 1413q-75 37 -75 121q0 55 39 92t96 39l117 213h172l-197 -229q31 -16 53.5 -45.5t22.5 -69.5q0 -41 -20 -72.5t-54 -46.5l588 -1415h-152l-188 455h-653l-187 -455h-153zM395 567h590l-293 719zM610 1534q0 -34 23.5 -57t58.5 -23q33 0 58.5 23t25.5 57 q0 35 -24 56.5t-60 21.5q-35 0 -58.5 -21.5t-23.5 -56.5z" />
<glyph unicode="&#x1fb;" horiz-adv-x="1116" d="M68 311q0 81 39.5 144.5t105 101t142.5 57t159 19.5q194 0 315 -55v96q0 139 -80.5 223t-220.5 84q-158 0 -342 -127l-49 92q210 139 404 139q205 0 316.5 -115.5t111.5 -307.5v-662h-133v168q-71 -93 -180.5 -140.5t-233.5 -47.5q-150 0 -252 95.5t-102 235.5zM201 322 q0 -103 75 -169.5t179 -66.5q101 0 195.5 38.5t144.5 111.5q34 40 34 79v174q-145 56 -297 56q-60 0 -116.5 -12.5t-105.5 -38t-79 -70t-30 -102.5zM367 1382q0 70 49.5 113t126.5 43t125.5 -43t48.5 -113t-48.5 -112.5t-125.5 -42.5t-126.5 42.5t-49.5 112.5zM446 1382 q0 -38 28 -65t69 -27q38 0 67 26.5t29 65.5q0 41 -28 67t-68 26q-41 0 -69 -26t-28 -67zM500 1599l182 318h192l-292 -318h-82z" />
<glyph unicode="&#x1fc;" horiz-adv-x="1968" d="M-53 0l936 1454h985v-127h-807v-522h696v-127h-696v-551h825v-127h-964v455h-531l-289 -455h-155zM457 582h454v700zM963 1602l182 317h192l-293 -317h-81z" />
<glyph unicode="&#x1fd;" horiz-adv-x="1908" d="M68 311q0 141 124 231.5t320 90.5q143 0 274 -41q7 90 35 156q-20 110 -97 171.5t-198 61.5q-158 0 -342 -127l-49 92q210 139 404 139q131 0 225.5 -55.5t142.5 -157.5q68 98 175 155.5t233 57.5q152 0 274.5 -75t189.5 -201t68 -277q0 -5 -1 -25t-1 -24h-927 q13 -171 130.5 -284t278.5 -113q105 0 197.5 54t128.5 139l123 -33q-52 -118 -176.5 -192t-278.5 -74q-137 0 -252.5 63.5t-187.5 171.5q-63 -116 -193.5 -175.5t-267.5 -59.5q-149 0 -250.5 95.5t-101.5 235.5zM199 322q0 -99 74 -167.5t180 -68.5q108 0 200 41t140 109 q33 38 36 71q-39 77 -43 197q-121 41 -256 41q-148 0 -239.5 -61.5t-91.5 -161.5zM905 1221l182 317h193l-293 -317h-82zM918 578h796q-14 175 -126 287t-275 112t-274.5 -113t-120.5 -286z" />
<glyph unicode="&#x1fe;" horiz-adv-x="1538" d="M86 727q0 144 53 278.5t142.5 235.5t218 162t270.5 61q183 0 342 -102l62 92h157l-117 -174q111 -108 173.5 -255t62.5 -300q0 -144 -52.5 -278t-142 -235t-217.5 -161.5t-270 -60.5q-188 0 -344 100l-59 -90h-158l112 170q-110 106 -171.5 253t-61.5 304zM229 727 q0 -125 43.5 -240t122.5 -202l643 966q-125 82 -270 82q-120 0 -223 -52.5t-171 -138t-106.5 -194t-38.5 -221.5zM496 199q122 -80 272 -80q120 0 223 53t171 139t106.5 194.5t38.5 221.5q0 123 -44.5 237.5t-123.5 200.5zM737 1602l183 317h192l-293 -317h-82z" />
<glyph unicode="&#x1ff;" d="M80 530q0 111 40 212.5t109 177t168 120.5t211 45q153 0 277 -79l47 65h96l-84 -110q91 -77 143 -190.5t52 -240.5q0 -148 -67.5 -273.5t-190 -201t-273.5 -75.5q-152 0 -278 77l-45 -59h-95l80 104q-90 77 -140 189t-50 239zM221 528q0 -193 129 -319l459 690 q-92 64 -201 64q-104 0 -193 -58t-141.5 -158.5t-52.5 -218.5zM408 164q91 -62 200 -62q160 0 274.5 126t114.5 304q0 94 -35 177t-96 143zM567 1221l183 317h192l-293 -317h-82z" />
<glyph unicode="&#x200;" horiz-adv-x="1384" d="M25 0l608 1454h121l604 -1454h-152l-188 455h-653l-187 -455h-153zM215 1878h172l180 -299h-90zM395 567h590l-293 719zM549 1878h172l180 -299h-90z" />
<glyph unicode="&#x201;" horiz-adv-x="1116" d="M68 311q0 141 125 231.5t321 90.5q177 0 315 -55v96q0 141 -81 224t-220 83q-161 0 -342 -127l-49 92q207 139 402 139q200 0 315 -112.5t115 -310.5v-482q0 -57 51 -57v-123q-34 -6 -53 -6q-52 0 -82.5 27t-32.5 73l-4 84q-73 -95 -185.5 -146.5t-240.5 -51.5 q-150 0 -252 95.5t-102 235.5zM72 1495h172l180 -299h-90zM201 322q0 -100 73.5 -168t180.5 -68t199.5 41t138.5 109q36 36 36 79v174q-147 56 -297 56q-148 0 -239.5 -61.5t-91.5 -161.5zM406 1495h172l180 -299h-90z" />
<glyph unicode="&#x202;" horiz-adv-x="1384" d="M25 0l608 1454h121l604 -1454h-152l-188 455h-653l-187 -455h-153zM395 567h590l-293 719zM449 1675q0 106 70 178t173 72q101 0 172.5 -72.5t71.5 -177.5h-102q-8 68 -49 116t-93 48q-54 0 -96.5 -50.5t-42.5 -113.5h-104z" />
<glyph unicode="&#x203;" horiz-adv-x="1110" d="M68 311q0 81 39.5 144.5t105 101t142.5 57t159 19.5q194 0 315 -55v96q0 139 -80.5 223t-220.5 84q-158 0 -342 -127l-49 92q210 139 404 139q205 0 316.5 -115.5t111.5 -307.5v-662h-133v168q-71 -93 -180.5 -140.5t-233.5 -47.5q-150 0 -252 95.5t-102 235.5zM201 322 q0 -103 75 -169.5t179 -66.5q101 0 195.5 38.5t144.5 111.5q34 40 34 79v174q-145 56 -297 56q-60 0 -116.5 -12.5t-105.5 -38t-79 -70t-30 -102.5zM311 1288q0 106 70.5 178t173.5 72q101 0 172.5 -72.5t71.5 -177.5h-103q-8 68 -48.5 116t-92.5 48q-54 0 -96.5 -50.5 t-42.5 -113.5h-105z" />
<glyph unicode="&#x204;" horiz-adv-x="1247" d="M182 0v1454h959v-127h-815v-524h710v-121h-710v-555h833v-127h-977zM215 1878h172l180 -299h-90zM549 1878h172l180 -299h-90z" />
<glyph unicode="&#x205;" horiz-adv-x="1202" d="M80 537q0 148 68 273.5t191 200t273 74.5q152 0 274.5 -75.5t188.5 -200t66 -270.5q0 -48 -2 -56h-914q13 -171 127 -284t269 -113q105 0 197 53.5t130 139.5l121 -33q-50 -118 -175.5 -192t-279.5 -74q-151 0 -274.5 76t-191.5 203.5t-68 277.5zM113 1495h172l180 -299 h-90zM223 590h785q-13 169 -125 278t-269 109q-158 0 -269.5 -109.5t-121.5 -277.5zM446 1495h172l181 -299h-90z" />
<glyph unicode="&#x206;" horiz-adv-x="1247" d="M182 0v1454h959v-127h-815v-524h710v-121h-710v-555h833v-127h-977zM418 1675q0 106 70.5 178t173.5 72q100 0 171.5 -72.5t71.5 -177.5h-102q-8 68 -48.5 116t-92.5 48q-54 0 -97 -50.5t-43 -113.5h-104z" />
<glyph unicode="&#x207;" horiz-adv-x="1202" d="M80 537q0 148 68 273.5t191 200t273 74.5q152 0 274.5 -75.5t188.5 -200t66 -270.5q0 -48 -2 -56h-914q13 -171 127 -284t269 -113q105 0 197 53.5t130 139.5l121 -33q-50 -118 -175.5 -192t-279.5 -74q-151 0 -274.5 76t-191.5 203.5t-68 277.5zM223 590h785 q-13 169 -125 278t-269 109q-158 0 -269.5 -109.5t-121.5 -277.5zM369 1288q0 106 70 178t173 72q101 0 172.5 -72.5t71.5 -177.5h-102q-8 68 -49 116t-93 48q-54 0 -96.5 -50.5t-42.5 -113.5h-104z" />
<glyph unicode="&#x208;" horiz-adv-x="507" d="M-219 1878h172l180 -299h-90zM115 1878h172l180 -299h-90zM182 0v1454h144v-1454h-144z" />
<glyph unicode="&#x209;" horiz-adv-x="446" d="M-240 1495h172l181 -299h-90zM94 1495h172l180 -299h-90zM154 0v1067h139v-1067h-139z" />
<glyph unicode="&#x20a;" horiz-adv-x="507" d="M10 1675q0 106 70.5 178t173.5 72q101 0 172.5 -72.5t71.5 -177.5h-103q-8 68 -48.5 116t-92.5 48q-54 0 -96.5 -50.5t-42.5 -113.5h-105zM182 0v1454h144v-1454h-144z" />
<glyph unicode="&#x20b;" horiz-adv-x="446" d="M-18 1288q0 106 70 178t173 72q101 0 172.5 -72.5t71.5 -177.5h-102q-8 68 -49 116t-93 48q-54 0 -96.5 -50.5t-42.5 -113.5h-104zM154 0v1067h139v-1067h-139z" />
<glyph unicode="&#x20c;" horiz-adv-x="1538" d="M86 727q0 144 53 278.5t142.5 235.5t218 162t270.5 61q118 0 226 -41.5t189.5 -113.5t142 -166t91.5 -201.5t31 -216.5q0 -144 -52.5 -278t-142 -235t-217.5 -161.5t-270 -60.5q-148 0 -277.5 63t-217 166t-137.5 235.5t-50 272.5zM229 727q0 -118 40 -228t109.5 -194 t171.5 -135t218 -51q120 0 223 53t171 139t106.5 194.5t38.5 221.5q0 158 -68 296t-193 224t-278 86q-120 0 -223 -52.5t-171 -138t-106.5 -194t-38.5 -221.5zM268 1878h172l181 -299h-91zM602 1878h172l180 -299h-90z" />
<glyph unicode="&#x20d;" d="M80 530q0 111 40 212.5t109 177t168 120.5t211 45q150 0 272.5 -76t190.5 -203t68 -276q0 -148 -67.5 -273.5t-190 -201t-273.5 -75.5t-273 75.5t-188.5 201t-66.5 273.5zM133 1495h172l180 -299h-90zM221 528q0 -178 113.5 -302t273.5 -124t274.5 126t114.5 304 t-114.5 304.5t-274.5 126.5q-104 0 -193 -58t-141.5 -158.5t-52.5 -218.5zM467 1495h172l180 -299h-90z" />
<glyph unicode="&#x20e;" horiz-adv-x="1538" d="M86 727q0 144 53 278.5t142.5 235.5t218 162t270.5 61q118 0 226 -41.5t189.5 -113.5t142 -166t91.5 -201.5t31 -216.5q0 -144 -52.5 -278t-142 -235t-217.5 -161.5t-270 -60.5q-148 0 -277.5 63t-217 166t-137.5 235.5t-50 272.5zM229 727q0 -118 40 -228t109.5 -194 t171.5 -135t218 -51q120 0 223 53t171 139t106.5 194.5t38.5 221.5q0 158 -68 296t-193 224t-278 86q-120 0 -223 -52.5t-171 -138t-106.5 -194t-38.5 -221.5zM526 1675q0 106 70.5 178t173.5 72q101 0 172.5 -72.5t71.5 -177.5h-103q-8 68 -48.5 116t-92.5 48 q-54 0 -96.5 -50.5t-42.5 -113.5h-105z" />
<glyph unicode="&#x20f;" d="M80 530q0 111 40 212.5t109 177t168 120.5t211 45q150 0 272.5 -76t190.5 -203t68 -276q0 -148 -67.5 -273.5t-190 -201t-273.5 -75.5t-273 75.5t-188.5 201t-66.5 273.5zM221 528q0 -178 113.5 -302t273.5 -124t274.5 126t114.5 304t-114.5 304.5t-274.5 126.5 q-104 0 -193 -58t-141.5 -158.5t-52.5 -218.5zM367 1288q0 106 70 178t173 72q101 0 172.5 -72.5t71.5 -177.5h-102q-8 68 -49 116t-93 48q-54 0 -96.5 -50.5t-42.5 -113.5h-104z" />
<glyph unicode="&#x210;" horiz-adv-x="1337" d="M145 1878h172l181 -299h-90zM182 0v1454h615q120 0 220.5 -67.5t155 -172t54.5 -217.5q0 -160 -90 -283.5t-234 -152.5l357 -561h-162l-342 537h-430v-537h-144zM326 664h475q83 0 148.5 47.5t99.5 123t34 162.5q0 133 -87.5 231.5t-207.5 98.5h-462v-663zM479 1878h172 l180 -299h-90z" />
<glyph unicode="&#x211;" horiz-adv-x="718" d="M-74 1495h172l181 -299h-91zM154 0v1067h131v-256q60 123 160 192.5t214 69.5q17 0 27 -2v-127q-141 -5 -246 -78.5t-147 -201.5v-664h-139zM260 1495h172l180 -299h-90z" />
<glyph unicode="&#x212;" horiz-adv-x="1337" d="M182 0v1454h615q120 0 220.5 -67.5t155 -172t54.5 -217.5q0 -160 -90 -283.5t-234 -152.5l357 -561h-162l-342 537h-430v-537h-144zM326 664h475q83 0 148.5 47.5t99.5 123t34 162.5q0 133 -87.5 231.5t-207.5 98.5h-462v-663zM426 1675q0 106 70.5 178t173.5 72 q100 0 171.5 -72.5t71.5 -177.5h-102q-8 68 -48.5 116t-92.5 48q-54 0 -97 -50.5t-43 -113.5h-104z" />
<glyph unicode="&#x213;" horiz-adv-x="718" d="M147 1288q0 106 70.5 178t173.5 72q101 0 172.5 -72.5t71.5 -177.5h-103q-8 68 -48.5 116t-92.5 48q-54 0 -96.5 -50.5t-42.5 -113.5h-105zM154 0v1067h131v-256q60 123 160 192.5t214 69.5q17 0 27 -2v-127q-141 -5 -246 -78.5t-147 -201.5v-664h-139z" />
<glyph unicode="&#x214;" horiz-adv-x="1546" d="M162 721v733h141v-733q0 -96 14 -180t48 -163t86 -135.5t134 -90t187 -33.5q107 0 190.5 34.5t135.5 91.5t85.5 136.5t46.5 162.5t13 177v733h143v-733q0 -121 -20.5 -226.5t-67 -199.5t-116 -160.5t-174 -105.5t-234.5 -39q-134 0 -240 41t-175 109t-114 163.5 t-64 198.5t-19 219zM330 1878h172l180 -299h-90zM664 1878h172l180 -299h-90z" />
<glyph unicode="&#x215;" horiz-adv-x="1208" d="M143 440v627h140v-602q0 -64 6.5 -115t23.5 -99t45.5 -79.5t74 -50.5t106.5 -19q124 0 228.5 84.5t147.5 208.5v672h140v-1067h-135v233q-62 -117 -178 -185t-248 -68q-82 0 -144 24.5t-101 66t-63 102t-33.5 125t-9.5 142.5zM154 1495h172l180 -299h-90zM487 1495h172 l181 -299h-90z" />
<glyph unicode="&#x216;" horiz-adv-x="1546" d="M162 721v733h141v-733q0 -96 14 -180t48 -163t86 -135.5t134 -90t187 -33.5q107 0 190.5 34.5t135.5 91.5t85.5 136.5t46.5 162.5t13 177v733h143v-733q0 -121 -20.5 -226.5t-67 -199.5t-116 -160.5t-174 -105.5t-234.5 -39q-134 0 -240 41t-175 109t-114 163.5 t-64 198.5t-19 219zM530 1675q0 106 70.5 178t173.5 72q101 0 172.5 -72.5t71.5 -177.5h-103q-8 68 -48.5 116t-92.5 48q-54 0 -96.5 -50.5t-42.5 -113.5h-105z" />
<glyph unicode="&#x217;" horiz-adv-x="1208" d="M143 440v627h140v-602q0 -64 6.5 -115t23.5 -99t45.5 -79.5t74 -50.5t106.5 -19q124 0 228.5 84.5t147.5 208.5v672h140v-1067h-135v233q-62 -117 -178 -185t-248 -68q-82 0 -144 24.5t-101 66t-63 102t-33.5 125t-9.5 142.5zM360 1288q0 106 70.5 178t173.5 72 q101 0 172.5 -72.5t71.5 -177.5h-103q-8 68 -48.5 116t-92.5 48q-54 0 -96.5 -50.5t-42.5 -113.5h-105z" />
<glyph unicode="&#x218;" horiz-adv-x="1243" d="M66 199l71 116q82 -88 219.5 -144t296.5 -56q176 0 272.5 64t96.5 188q0 53 -19 93.5t-51 70t-90 54.5t-120.5 43t-157.5 40q-99 23 -166 44t-128 51.5t-96 68.5t-55 91.5t-20 123.5q0 198 142.5 307.5t375.5 109.5q273 0 465 -168l-70 -114q-64 71 -167 113t-230 42 q-187 0 -278 -70.5t-91 -199.5q0 -51 16 -89.5t44 -65.5t81.5 -49.5t111.5 -38.5t151 -36q84 -19 145 -36t122 -41.5t101.5 -54t73 -69t47.5 -91t15 -115.5q0 -130 -68.5 -220t-184.5 -131.5t-272 -41.5q-337 0 -583 211zM489 -438h91l139 338h-131z" />
<glyph unicode="&#x219;" horiz-adv-x="997" d="M59 139l64 94q178 -147 383 -147q129 0 205.5 53.5t76.5 147.5q0 35 -14 62t-35.5 45.5t-66.5 36t-87.5 29t-117.5 29.5q-83 20 -133.5 36t-98.5 38t-72.5 48t-39 63.5t-14.5 87.5q0 104 55 178.5t143.5 109.5t200.5 35q120 0 221 -39.5t164 -105.5l-68 -82 q-59 60 -143.5 91.5t-177.5 31.5q-116 0 -189 -50t-73 -149q0 -34 10.5 -58.5t27 -41t53.5 -31.5t73 -25t102 -26q92 -22 150 -39.5t114 -42.5t86 -54t48 -70t18 -95q0 -146 -113.5 -232.5t-302.5 -86.5q-127 0 -245.5 41t-203.5 118zM346 -438h90l139 338h-131z" />
<glyph unicode="&#x21a;" horiz-adv-x="1249" d="M35 1327v127h1179v-127h-518v-1327h-143v1327h-518zM459 -438h90l139 338h-131z" />
<glyph unicode="&#x21b;" horiz-adv-x="686" d="M51 956v111h148v360h139v-360h246v-111h-246v-725q4 -56 40 -85t89 -29q87 0 162 47l37 -113q-1 -1 -20.5 -9.5t-32 -13.5t-37.5 -13.5t-46 -13.5t-50 -9t-56 -4q-96 0 -160.5 53.5t-64.5 151.5v763h-148zM248 -438h90l139 338h-131z" />
<glyph unicode="&#x2c6;" horiz-adv-x="675" d="M0 1221l293 317h92l293 -317h-193l-145 235l-147 -235h-193z" />
<glyph unicode="&#x2c7;" horiz-adv-x="675" d="M0 1538h193l147 -235l145 235h193l-293 -317h-92z" />
<glyph unicode="&#x2d8;" horiz-adv-x="577" d="M45 1538h105q0 -63 42.5 -113.5t96.5 -50.5q52 0 92.5 48t48.5 116h102q0 -105 -71.5 -177.5t-171.5 -72.5q-103 0 -173.5 72t-70.5 178z" />
<glyph unicode="&#x2d9;" horiz-adv-x="331" d="M74 1403q0 38 27 65t65 27t65 -27t27 -65t-27 -65t-65 -27t-65 27t-27 65z" />
<glyph unicode="&#x2da;" horiz-adv-x="507" d="M78 1382q0 70 49.5 113t126.5 43t125.5 -43t48.5 -113t-48.5 -112.5t-125.5 -42.5t-126.5 42.5t-49.5 112.5zM158 1382q0 -39 27.5 -65.5t68.5 -26.5q38 0 67 26.5t29 65.5q0 41 -28 67t-68 26t-68 -26t-28 -67z" />
<glyph unicode="&#x2db;" horiz-adv-x="491" d="M113 -209q0 117 209 244l45 -35q-90 -57 -129 -101t-39 -89q0 -76 106 -91l-39 -77q-74 15 -113.5 54.5t-39.5 94.5z" />
<glyph unicode="&#x2dc;" horiz-adv-x="831" d="M90 1290q0 16 8 43t26.5 62.5t58.5 60.5t93 25q48 0 92.5 -21.5t86.5 -43t84 -21.5q30 0 52.5 10t34 23t19 28.5t9 24.5t1.5 14h86q0 -15 -8.5 -41.5t-28.5 -61.5t-62.5 -60t-100.5 -25q-52 0 -99.5 20.5t-87.5 41t-75 20.5q-31 0 -53.5 -13.5t-32 -32.5t-13.5 -32.5 t-4 -20.5h-86z" />
<glyph unicode="&#x2dd;" horiz-adv-x="667" d="M57 1221l183 317h192l-293 -317h-82zM362 1221l183 317h192l-293 -317h-82z" />
<glyph unicode="&#x394;" horiz-adv-x="1325" d="M47 0v109l557 1345h119l555 -1345v-109h-1231zM205 127h915l-456 1159z" />
<glyph unicode="&#x3a9;" horiz-adv-x="1562" d="M92 0v127h391q-173 91 -272.5 256.5t-99.5 364.5q0 140 51.5 270.5t139 229t213 157.5t265.5 59q141 0 267 -59t214 -157.5t139.5 -229t51.5 -270.5q0 -199 -99.5 -364.5t-273.5 -256.5h389v-127h-591v127q130 37 230.5 136t151 226t50.5 259q0 110 -37.5 214.5t-104 187 t-168 133t-219.5 50.5q-117 0 -218 -50.5t-167 -133t-103.5 -187t-37.5 -214.5q0 -132 50.5 -259t150.5 -226t229 -136v-127h-592z" />
<glyph unicode="&#x3bc;" horiz-adv-x="1228" d="M154 -434v1501h139v-602q0 -183 62.5 -273t189.5 -90q123 0 229.5 80.5t153.5 212.5v672h139v-1067h-123v242q-55 -112 -168.5 -187t-238.5 -75q-95 0 -159 47t-93 127v-588h-131z" />
<glyph unicode="&#x3c0;" horiz-adv-x="1206" d="M51 940v127h1069v-127h-225v-698q0 -60 33 -93.5t92 -33.5q55 0 110 22l25 -112q-98 -37 -192 -37q-93 0 -148 55.5t-55 151.5v745h-410v-940h-135v940h-164z" />
<glyph unicode="&#x400;" horiz-adv-x="1247" d="M184 0v1454h959v-127h-815v-524h710v-121h-710v-555h833v-127h-977zM391 1915h193l182 -318h-82z" />
<glyph unicode="&#x401;" horiz-adv-x="1247" d="M184 0v1454h959v-127h-815v-524h710v-121h-710v-555h833v-127h-977zM385 1784q0 38 27 65t65 27t65 -27t27 -65t-27 -65t-65 -27t-65 27t-27 65zM760 1784q0 38 27 65t65 27t65 -27t27 -65t-27 -65t-65 -27t-65 27t-27 65z" />
<glyph unicode="&#x402;" horiz-adv-x="1435" d="M35 1327v127h1089v-127h-565v-545q140 131 369 131q215 0 332.5 -122.5t117.5 -352.5q0 -223 -109.5 -340.5t-322.5 -117.5q-123 0 -229 45l43 125q101 -48 186 -48q140 0 211.5 85.5t71.5 252.5q0 344 -320 344q-199 0 -350 -145v-639h-141v1327h-383z" />
<glyph unicode="&#x403;" horiz-adv-x="1062" d="M186 0v1454h838v-127h-696v-1327h-142zM471 1602l182 317h193l-293 -317h-82z" />
<glyph unicode="&#x404;" horiz-adv-x="1433" d="M86 737q0 106 28.5 209.5t88 197t142 164.5t198.5 112.5t250 41.5q201 0 339 -85t211 -232l-114 -70q-46 92 -122 152t-155.5 83t-167.5 23q-100 0 -186 -29.5t-148 -80t-108.5 -118.5t-72 -144t-33.5 -158h741v-121h-746q10 -152 82 -280t198 -206.5t280 -78.5 q88 0 173 27.5t164 90t125 152.5l119 -61q-71 -159 -231.5 -248.5t-358.5 -89.5q-123 0 -234 42.5t-194 115.5t-144 168t-92.5 203.5t-31.5 219.5z" />
<glyph unicode="&#x405;" horiz-adv-x="1243" d="M66 199l71 116q82 -88 219.5 -144t296.5 -56q176 0 272.5 64t96.5 188q0 53 -19 93.5t-51 70t-90 54.5t-120.5 43t-157.5 40q-99 23 -166 44t-128 51.5t-96 68.5t-55 91.5t-20 123.5q0 198 142.5 307.5t375.5 109.5q273 0 465 -168l-70 -114q-64 71 -167 113t-230 42 q-187 0 -278 -70.5t-91 -199.5q0 -51 16 -89.5t44 -65.5t81.5 -49.5t111.5 -38.5t151 -36q84 -19 145 -36t122 -41.5t101.5 -54t73 -69t47.5 -91t15 -115.5q0 -130 -68.5 -220t-184.5 -131.5t-272 -41.5q-337 0 -583 211z" />
<glyph unicode="&#x406;" horiz-adv-x="512" d="M184 0v1454h144v-1454h-144z" />
<glyph unicode="&#x407;" horiz-adv-x="512" d="M-25 1782q0 38 27.5 65t65.5 27t65 -27t27 -65t-27 -65t-65 -27t-65.5 27t-27.5 65zM184 0v1454h144v-1454h-144zM350 1782q0 38 27 65t65 27t65.5 -27t27.5 -65t-27.5 -65t-65.5 -27t-65 27t-27 65z" />
<glyph unicode="&#x408;" horiz-adv-x="985" d="M10 246q51 -121 162 -195t244 -74q95 0 179 29t150 84.5t103.5 146.5t34.5 207v1010h-144v-999q0 -90 -26.5 -157.5t-72.5 -107t-102 -58.5t-122 -19q-95 0 -169.5 53.5t-109.5 138.5z" />
<glyph unicode="&#x409;" horiz-adv-x="2043" d="M12 127q45 2 80 16.5t72 51.5t66 105.5t56 171t48.5 256t38.5 353.5l30 373h740v-616h409q195 0 314 -110.5t119 -305.5q0 -194 -119.5 -308t-311.5 -114h-553v1327h-466l-21 -258q-34 -393 -90.5 -625.5t-150 -343t-236.5 -110.5zM1143 125h411q141 0 214 81.5t73 215.5 q0 133 -71 212t-218 79h-409v-588z" />
<glyph unicode="&#x40a;" horiz-adv-x="2129" d="M186 0v1454h142v-616h747v616h142v-616h421q195 0 314 -110.5t119 -305.5q0 -194 -119.5 -308t-311.5 -114h-565v711h-747v-711h-142zM1217 125h423q141 0 214 81.5t73 215.5q0 133 -71 212t-218 79h-421v-588z" />
<glyph unicode="&#x40b;" horiz-adv-x="1449" d="M35 1327v127h1089v-127h-565v-539q166 117 389 117q203 0 310.5 -104.5t107.5 -317.5v-483h-139v455q0 173 -67.5 248t-221.5 75q-106 0 -204.5 -34t-174.5 -95v-649h-141v1327h-383z" />
<glyph unicode="&#x40c;" horiz-adv-x="1236" d="M186 0v1454h142v-645h221l475 645h164l-510 -700l563 -754h-164l-516 682h-233v-682h-142zM549 1602l182 317h193l-293 -317h-82z" />
<glyph unicode="&#x40d;" horiz-adv-x="1497" d="M186 0v1454h142v-1239l901 1239h119v-1454h-144v1219l-887 -1219h-131zM514 1915h193l182 -318h-82z" />
<glyph unicode="&#x40e;" horiz-adv-x="1273" d="M43 1454h152l452 -948l438 948h152l-526 -1112q-96 -201 -176 -278.5t-193 -77.5q-105 0 -160 32v125q63 -32 150 -32q77 0 131.5 51t116.5 188zM348 1876h88q0 -54 62 -94.5t151 -40.5q87 0 146 38t67 97h86q-2 -99 -82 -157t-217 -58q-138 0 -218.5 58t-82.5 157z" />
<glyph unicode="&#x40f;" horiz-adv-x="1421" d="M186 0v1454h144v-1327h762v1327h143v-1454h-455v-379h-141v379h-453z" />
<glyph unicode="&#x410;" horiz-adv-x="1384" d="M25 0l608 1454h121l604 -1454h-152l-188 455h-653l-187 -455h-153zM395 567h590l-293 719z" />
<glyph unicode="&#x411;" horiz-adv-x="1337" d="M186 0v1454h992v-127h-850v-489h501q197 0 316 -110.5t119 -305.5q0 -194 -119.5 -308t-313.5 -114h-645zM328 125h503q142 0 215.5 81.5t73.5 215.5t-71.5 212.5t-219.5 78.5h-501v-588z" />
<glyph unicode="&#x412;" horiz-adv-x="1368" d="M156 0v1454h700q98 0 176 -55.5t117 -139t39 -176.5q0 -110 -56 -202t-153 -136q124 -37 197 -137.5t73 -232.5q0 -161 -119 -268t-288 -107h-686zM299 125h543q109 0 186.5 82.5t77.5 191.5q0 110 -72.5 193.5t-177.5 83.5h-557v-551zM299 793h500q105 0 176.5 80 t71.5 188q0 112 -67.5 190t-168.5 78h-512v-536z" />
<glyph unicode="&#x413;" horiz-adv-x="1062" d="M186 0v1454h838v-127h-696v-1327h-142z" />
<glyph unicode="&#x414;" horiz-adv-x="1445" d="M35 127h33q45 5 77.5 20t66.5 52t59.5 103.5t50.5 169t44.5 254.5t36.5 355l31 373h762v-1327h207v-508h-127v381h-1112v-381h-129v508zM299 127h756v1200h-490l-20 -258q-33 -416 -90 -638.5t-156 -303.5z" />
<glyph unicode="&#x415;" horiz-adv-x="1247" d="M184 0v1454h959v-127h-815v-524h710v-121h-710v-555h833v-127h-977z" />
<glyph unicode="&#x416;" horiz-adv-x="1935" d="M6 0l488 754l-435 700h164l393 -645h273v645h158v-645h272l391 645h166l-436 -700l489 -754h-166l-424 682h-292v-682h-158v682h-293l-424 -682h-166z" />
<glyph unicode="&#x417;" horiz-adv-x="1071" d="M51 221l115 86q48 -87 135 -136.5t199 -49.5q150 0 245 82.5t95 216.5q0 145 -111.5 228t-306.5 83h-100v129h100q169 0 262.5 67t93.5 187q0 110 -74.5 167.5t-201.5 57.5q-99 0 -180 -39.5t-125 -105.5l-97 88q133 182 400 182q199 0 308.5 -89t109.5 -253 q0 -126 -63.5 -212t-182.5 -115q145 -20 228 -119t83 -248q0 -192 -138 -315t-353 -123q-146 0 -263 62t-178 169z" />
<glyph unicode="&#x418;" horiz-adv-x="1531" d="M186 0v1454h142v-1239l901 1239h119v-1454h-144v1219l-887 -1219h-131z" />
<glyph unicode="&#x419;" horiz-adv-x="1531" d="M186 0v1454h142v-1239l901 1239h119v-1454h-144v1219l-887 -1219h-131zM483 1876h88q0 -54 62.5 -94.5t152.5 -40.5q87 0 146 38t67 97h86q-3 -99 -83.5 -157t-217.5 -58t-217.5 58t-83.5 157z" />
<glyph unicode="&#x41a;" horiz-adv-x="1236" d="M186 0v1454h142v-645h221l475 645h164l-510 -700l563 -754h-164l-516 682h-233v-682h-142z" />
<glyph unicode="&#x41b;" horiz-adv-x="1331" d="M12 127q45 2 80 16.5t72 51.5t66 105.5t56 171t48.5 256t38.5 353.5l30 373h740v-1454h-142v1327h-466l-21 -258q-34 -393 -90.5 -625.5t-150 -343t-236.5 -110.5z" />
<glyph unicode="&#x41c;" horiz-adv-x="1802" d="M184 0v1454h148l567 -995l571 995h146v-1454h-143v1194l-531 -924h-84l-530 924v-1194h-144z" />
<glyph unicode="&#x41d;" horiz-adv-x="1517" d="M184 0v1454h144v-647h862v647h141v-1454h-141v680h-862v-680h-144z" />
<glyph unicode="&#x41e;" horiz-adv-x="1538" d="M88 727q0 144 53 278.5t142.5 235.5t218 162t270.5 61q118 0 226 -41.5t189.5 -113.5t142 -166t91.5 -201.5t31 -216.5q0 -144 -52.5 -278t-142 -235t-217.5 -161.5t-270 -60.5q-148 0 -277.5 63t-217 166t-137.5 235.5t-50 272.5zM231 727q0 -118 40 -228t109.5 -194 t171.5 -135t218 -51q120 0 223 53t171 139t106.5 194.5t38.5 221.5q0 158 -68 296t-193 224t-278 86q-120 0 -223 -52.5t-171 -138t-106.5 -194t-38.5 -221.5z" />
<glyph unicode="&#x41f;" horiz-adv-x="1492" d="M186 0v1454h1123v-1454h-144v1327h-837v-1327h-142z" />
<glyph unicode="&#x420;" horiz-adv-x="1275" d="M184 0v1454h602q120 0 221.5 -67.5t156.5 -172t55 -217.5q0 -120 -52 -224.5t-149.5 -170t-218.5 -65.5h-471v-537h-144zM328 664h465q125 0 203.5 98t78.5 235q0 136 -87.5 233t-207.5 97h-452v-663z" />
<glyph unicode="&#x421;" horiz-adv-x="1404" d="M86 737q0 133 47 261t132.5 232t219 168t291.5 64q188 0 328.5 -86.5t208.5 -230.5l-113 -70q-45 92 -119 152t-151 83t-162 23q-101 0 -189 -34.5t-151.5 -93.5t-109 -136.5t-67.5 -164t-22 -175.5q0 -160 71 -300.5t197.5 -226t276.5 -85.5q86 0 169 27.5t159.5 90 t120.5 152.5l118 -61q-45 -104 -140.5 -182.5t-208 -117t-226.5 -38.5q-116 0 -223 42t-189 115.5t-143 168t-93 204t-32 219.5z" />
<glyph unicode="&#x422;" horiz-adv-x="1247" d="M35 1327v127h1179v-127h-518v-1327h-143v1327h-518z" />
<glyph unicode="&#x423;" horiz-adv-x="1273" d="M43 1454h152l452 -948l438 948h152l-526 -1112q-96 -201 -176 -278.5t-193 -77.5q-105 0 -160 32v125q63 -32 150 -32q76 0 131.5 51t116.5 188z" />
<glyph unicode="&#x424;" horiz-adv-x="1517" d="M68 754q0 275 166.5 442.5t457.5 187.5v197h144v-197q285 -20 447.5 -187.5t162.5 -442.5t-163.5 -439.5t-446.5 -183.5v-207h-144v207q-290 19 -457 183.5t-167 439.5zM213 760q0 -222 126.5 -351.5t352.5 -146.5v989q-230 -17 -354.5 -143.5t-124.5 -347.5zM836 262 q220 19 343.5 148t123.5 350q0 220 -122 347t-345 144v-989z" />
<glyph unicode="&#x425;" horiz-adv-x="1294" d="M10 1454h162l477 -635l477 635h158l-559 -737l543 -717h-158l-461 614l-461 -614h-161l542 717z" />
<glyph unicode="&#x426;" horiz-adv-x="1482" d="M186 0v1454h144v-1327h762v1327h143v-1327h207v-508h-127v381h-1129z" />
<glyph unicode="&#x427;" horiz-adv-x="1251" d="M92 1067v387h144v-360q0 -218 74.5 -308t260.5 -90q114 0 208 23t145 61v674h143v-1454h-143v633q-160 -66 -371 -66q-124 0 -214 35t-143.5 102t-78.5 156.5t-25 206.5z" />
<glyph unicode="&#x428;" horiz-adv-x="1908" d="M186 0v1454h142v-1327h555v1327h143v-1327h555v1327h141v-1454h-1536z" />
<glyph unicode="&#x429;" horiz-adv-x="1972" d="M186 0v1454h144v-1327h555v1327h141v-1327h557v1327h141v-1327h207v-508h-127v381h-1618z" />
<glyph unicode="&#x42a;" horiz-adv-x="1507" d="M33 1327v127h596v-555h342q217 0 347 -118.5t130 -329.5q0 -207 -133 -329t-342 -122h-488v1327h-452zM629 125h344q164 0 248 89.5t84 236.5t-84 235t-250 88h-342v-649z" />
<glyph unicode="&#x42b;" horiz-adv-x="1677" d="M186 0v1454h142v-555h344q216 0 345.5 -118.5t129.5 -329.5q0 -207 -132 -329t-343 -122h-486zM328 125h344q164 0 248 89.5t84 236.5t-83.5 235t-248.5 88h-344v-649zM1348 0v1452h143v-1452h-143z" />
<glyph unicode="&#x42c;" horiz-adv-x="1206" d="M186 0v1454h142v-555h344q216 0 345.5 -118.5t129.5 -329.5q0 -207 -132 -329t-343 -122h-486zM328 125h344q164 0 248 89.5t84 236.5t-83.5 235t-248.5 88h-344v-649z" />
<glyph unicode="&#x42d;" horiz-adv-x="1433" d="M61 326l119 61q46 -90 125 -152.5t164.5 -90t173.5 -27.5q153 0 278.5 78.5t197 206.5t81.5 280h-743v121h741q-10 103 -49.5 196t-106 169t-168 120.5t-225.5 44.5q-65 0 -126 -13.5t-121 -42.5t-112 -80.5t-87 -121.5l-113 70q73 147 211.5 232t339.5 85q134 0 250 -42 t198 -112.5t141 -164t87.5 -197t28.5 -209.5q0 -111 -31.5 -219.5t-92.5 -203.5t-143.5 -168t-193.5 -115.5t-234 -42.5q-198 0 -358.5 89.5t-231.5 248.5z" />
<glyph unicode="&#x42e;" horiz-adv-x="2002" d="M186 0v1454h144v-659h280q20 304 199.5 486.5t443.5 182.5q193 0 344 -95.5t233.5 -264t82.5 -379.5q0 -165 -50.5 -303.5t-139 -233t-211 -146.5t-263.5 -52q-272 0 -447 187t-192 491h-280v-668h-144zM752 727q0 -280 137 -444t362 -164q236 0 377 168t141 440 q0 279 -143.5 442.5t-374.5 163.5q-228 0 -363.5 -166.5t-135.5 -439.5z" />
<glyph unicode="&#x42f;" horiz-adv-x="1294" d="M61 0l373 606q-133 44 -215 158.5t-82 257.5q0 110 56 208.5t161 161t234 62.5h522v-1454h-143v584h-385l-353 -584h-168zM283 1022q0 -130 81.5 -220.5t217.5 -90.5h385v616h-373q-132 0 -221.5 -88.5t-89.5 -216.5z" />
<glyph unicode="&#x430;" horiz-adv-x="1110" d="M68 311q0 81 39.5 144.5t105 101t142.5 57t159 19.5q194 0 315 -55v96q0 139 -80.5 223t-220.5 84q-158 0 -342 -127l-49 92q210 139 404 139q205 0 316.5 -115.5t111.5 -307.5v-662h-133v168q-71 -93 -180.5 -140.5t-233.5 -47.5q-150 0 -252 95.5t-102 235.5zM201 322 q0 -103 75 -169.5t179 -66.5q101 0 195.5 38.5t144.5 111.5q34 40 34 79v174q-145 56 -297 56q-60 0 -116.5 -12.5t-105.5 -38t-79 -70t-30 -102.5z" />
<glyph unicode="&#x431;" horiz-adv-x="1189" d="M117 616q0 364 141 564t410 264l319 74l27 -117l-338 -80q-182 -42 -287 -166t-131 -342q64 98 159.5 151.5t215.5 53.5q209 0 339 -145.5t130 -376.5t-137 -373.5t-367 -142.5q-233 0 -357 166t-124 470zM260 502q0 -176 96.5 -291t253.5 -115q158 0 254.5 112t96.5 286 q0 181 -97 288t-260 107q-154 0 -249 -104.5t-95 -282.5z" />
<glyph unicode="&#x432;" horiz-adv-x="1071" d="M160 0v1067h522q114 0 189 -76t75 -186q0 -78 -38.5 -148t-112.5 -102q90 -25 141 -94.5t51 -167.5q0 -128 -88.5 -210.5t-224.5 -82.5h-514zM295 104h364q84 0 138.5 59t54.5 138q0 77 -51.5 132.5t-136.5 55.5h-369v-385zM295 596h332q82 0 132 52.5t50 135.5 q0 77 -43.5 128t-124.5 51h-346v-367z" />
<glyph unicode="&#x433;" horiz-adv-x="849" d="M156 0v1067h651v-106h-514v-961h-137z" />
<glyph unicode="&#x434;" horiz-adv-x="1181" d="M37 121h61q63 15 102.5 77.5t69 196.5t58.5 383l32 289h625v-946h131v-451h-123v330h-839v-330h-117v451zM289 121h561v835h-361l-30 -237q-34 -255 -74.5 -398t-95.5 -200z" />
<glyph unicode="&#x435;" horiz-adv-x="1202" d="M80 537q0 148 68 273.5t191 200t273 74.5q152 0 274.5 -75.5t188.5 -200t66 -270.5q0 -48 -2 -56h-914q13 -171 127 -284t269 -113q105 0 197 53.5t130 139.5l121 -33q-50 -118 -175.5 -192t-279.5 -74q-151 0 -274.5 76t-191.5 203.5t-68 277.5zM223 590h785 q-13 169 -125 278t-269 109q-158 0 -269.5 -109.5t-121.5 -277.5z" />
<glyph unicode="&#x436;" horiz-adv-x="1540" d="M27 0l350 551l-316 516h158l279 -479h204v479h140v-479h205l278 479h154l-316 -516l353 -551h-158l-291 481h-225v-481h-140v481h-227l-291 -481h-157z" />
<glyph unicode="&#x437;" horiz-adv-x="837" d="M59 135l78 96q92 -129 254 -129q111 0 172.5 56t61.5 153q0 106 -74.5 163.5t-210.5 57.5h-72v109h72q108 0 169.5 47t61.5 131q0 72 -49 113t-135 41q-124 0 -223 -99l-70 80q113 131 301 131q139 0 222 -70t83 -186q0 -94 -50 -158t-136 -77q113 -15 179.5 -92.5 t66.5 -192.5q0 -147 -103.5 -238t-271.5 -91q-205 0 -326 155z" />
<glyph unicode="&#x438;" horiz-adv-x="1200" d="M156 0v1067h137v-870l637 870h112v-1067h-137v854l-624 -854h-125z" />
<glyph unicode="&#x439;" horiz-adv-x="1198" d="M156 0v1067h137v-870l637 870h112v-1067h-137v854l-624 -854h-125zM328 1466h88q3 -67 51.5 -96t146.5 -29t145.5 28t53.5 97h86q-4 -95 -79 -145.5t-206 -50.5q-132 0 -206 50.5t-80 145.5z" />
<glyph unicode="&#x43a;" horiz-adv-x="991" d="M156 0v1067h137v-471h139l354 471h156l-403 -516l438 -551h-156l-377 487h-151v-487h-137z" />
<glyph unicode="&#x43b;" horiz-adv-x="1101" d="M12 117q82 5 129.5 58t82.5 192.5t65 410.5l30 289h627v-1067h-137v956h-360l-29 -237q-36 -286 -84 -440t-117.5 -218t-183.5 -69z" />
<glyph unicode="&#x43c;" horiz-adv-x="1384" d="M156 0v1067h139l399 -719l400 719h135v-1067h-135v819l-359 -641h-82l-360 641v-819h-137z" />
<glyph unicode="&#x43d;" horiz-adv-x="1183" d="M156 0v1067h137v-461h598v461h137v-1067h-137v489h-598v-489h-137z" />
<glyph unicode="&#x43e;" d="M80 530q0 111 40 212.5t109 177t168 120.5t211 45q150 0 272.5 -76t190.5 -203t68 -276q0 -148 -67.5 -273.5t-190 -201t-273.5 -75.5t-273 75.5t-188.5 201t-66.5 273.5zM221 528q0 -178 113.5 -302t273.5 -124t274.5 126t114.5 304t-114.5 304.5t-274.5 126.5 q-104 0 -193 -58t-141.5 -158.5t-52.5 -218.5z" />
<glyph unicode="&#x43f;" horiz-adv-x="1153" d="M156 0v1067h839v-1067h-135v946h-567v-946h-137z" />
<glyph unicode="&#x440;" horiz-adv-x="1267" d="M156 -436v1503h125v-207q66 102 172 163.5t225 61.5q142 0 259.5 -79t182 -205.5t64.5 -268.5q0 -150 -60.5 -276t-172 -201t-251.5 -75q-128 0 -233.5 66.5t-171.5 174.5v-657h-139zM295 371q48 -117 149.5 -193t217.5 -76q111 0 199.5 62.5t134.5 160t46 207.5 q0 174 -116 302.5t-281 128.5q-70 0 -147 -35.5t-135 -98.5t-68 -131v-327z" />
<glyph unicode="&#x441;" horiz-adv-x="1124" d="M80 537q0 151 67 276t190 198.5t277 73.5q149 0 263 -68t172 -186l-136 -43q-44 82 -125.5 128.5t-179.5 46.5q-164 0 -275.5 -122t-111.5 -304q0 -180 115 -307.5t274 -127.5q102 0 194.5 54.5t117.5 128.5l137 -41q-45 -116 -167.5 -190t-275.5 -74q-152 0 -275.5 76 t-192 203t-68.5 278z" />
<glyph unicode="&#x442;" horiz-adv-x="970" d="M43 946v121h885v-121h-375v-946h-135v946h-375z" />
<glyph unicode="&#x443;" horiz-adv-x="1110" d="M31 1067h143l395 -938l367 938h133l-498 -1243q-62 -157 -125.5 -218t-156.5 -61t-142 49l7 123q54 -49 127 -49q57 0 104.5 71t110.5 261z" />
<glyph unicode="&#x444;" horiz-adv-x="1388" d="M80 528q0 232 147 382.5t400 170.5v414h139v-416q250 -20 396.5 -170.5t146.5 -380.5q0 -232 -146.5 -378t-396.5 -166v-420h-139v418q-252 19 -399.5 166t-147.5 380zM223 535q0 -186 107 -296.5t297 -127.5v837q-192 -15 -298 -122.5t-106 -290.5zM766 111 q188 19 293.5 129t105.5 295q0 181 -105 289.5t-294 123.5v-837z" />
<glyph unicode="&#x445;" horiz-adv-x="1032" d="M31 0l407 530l-407 537h149l320 -418l16 -31l16 31l320 418h149l-407 -537l407 -530h-149l-320 416l-16 28l-16 -28l-320 -416h-149z" />
<glyph unicode="&#x446;" horiz-adv-x="1165" d="M156 0v1067h137v-946h522v946h135v-946h178v-451h-120v330h-852z" />
<glyph unicode="&#x447;" horiz-adv-x="983" d="M86 778v289h137v-264q0 -147 57.5 -212t172.5 -65q160 0 235 60v481h139v-1067h-139v444q-99 -38 -260 -38q-180 0 -261 100t-81 272z" />
<glyph unicode="&#x448;" horiz-adv-x="1525" d="M156 0v1067h137v-946h401v946h137v-946h402v946h137v-1067h-1214z" />
<glyph unicode="&#x449;" horiz-adv-x="1583" d="M156 0v1067h137v-946h401v946h137v-946h402v946h137v-946h178v-451h-121v330h-1271z" />
<glyph unicode="&#x44a;" horiz-adv-x="1175" d="M43 946v121h479v-379h232q154 0 257 -91.5t103 -252.5t-103 -252.5t-257 -91.5h-367v946h-344zM522 119h232q106 0 164.5 60.5t58.5 164.5q0 103 -59.5 164t-163.5 61h-232v-450z" />
<glyph unicode="&#x44b;" horiz-adv-x="1308" d="M156 0v1067h137v-379h231q155 0 258 -91.5t103 -252.5t-104 -252.5t-257 -91.5h-368zM293 119h231q105 0 164.5 60.5t59.5 164.5q0 103 -60 164t-164 61h-231v-450zM1018 0v1067h135v-1067h-135z" />
<glyph unicode="&#x44c;" horiz-adv-x="944" d="M156 0v1067h137v-379h231q155 0 258 -91.5t103 -252.5t-104 -252.5t-257 -91.5h-368zM293 119h231q105 0 164.5 60.5t59.5 164.5q0 103 -60 164t-164 61h-231v-450z" />
<glyph unicode="&#x44d;" horiz-adv-x="1107" d="M59 240l107 47q47 -94 141 -144.5t195 -50.5q153 0 265.5 112t125.5 283h-547v113h543q-20 158 -125 266.5t-264 108.5q-98 0 -186 -44.5t-140 -139.5l-96 55q58 109 164.5 175t253.5 66q121 0 223.5 -46.5t168.5 -124t103 -176t37 -203.5q0 -107 -37.5 -206.5t-104 -177 t-168 -124.5t-220.5 -47q-149 0 -269 68t-170 190z" />
<glyph unicode="&#x44e;" horiz-adv-x="1521" d="M156 0v1067h135v-469h176q19 221 151.5 355t327.5 134q219 0 356.5 -157.5t137.5 -399.5q0 -249 -140 -399.5t-356 -150.5q-202 0 -332 135.5t-145 359.5h-176v-475h-135zM602 532q0 -202 93.5 -316t250.5 -114q165 0 259.5 116.5t94.5 313.5q0 199 -97.5 315t-256.5 116 q-158 0 -251 -118t-93 -313z" />
<glyph unicode="&#x44f;" horiz-adv-x="1013" d="M61 0l289 424q-102 29 -163.5 109t-61.5 202q0 145 99 238.5t253 93.5h381v-1067h-137v406h-232l-270 -406h-158zM262 735q0 -93 57 -151t148 -58h254v420h-238q-91 0 -156 -58.5t-65 -152.5z" />
<glyph unicode="&#x450;" horiz-adv-x="1202" d="M80 537q0 148 68 273.5t191 200t273 74.5q152 0 274.5 -75.5t188.5 -200t66 -270.5q0 -48 -2 -56h-914q13 -171 127 -284t269 -113q105 0 197 53.5t130 139.5l121 -33q-50 -118 -175.5 -192t-279.5 -74q-151 0 -274.5 76t-191.5 203.5t-68 277.5zM223 590h785 q-13 169 -125 278t-269 109q-158 0 -269.5 -109.5t-121.5 -277.5zM311 1538h193l182 -317h-82z" />
<glyph unicode="&#x451;" horiz-adv-x="1202" d="M80 537q0 148 68 273.5t191 200t273 74.5q152 0 274.5 -75.5t188.5 -200t66 -270.5q0 -48 -2 -56h-914q13 -171 127 -284t269 -113q105 0 197 53.5t130 139.5l121 -33q-50 -118 -175.5 -192t-279.5 -74q-151 0 -274.5 76t-191.5 203.5t-68 277.5zM223 590h785 q-13 169 -125 278t-269 109q-158 0 -269.5 -109.5t-121.5 -277.5zM324 1395q0 38 27 65t65 27t65 -27t27 -65t-27 -65t-65 -27t-65 27t-27 65zM698 1395q0 38 27.5 65t65.5 27t65 -27t27 -65t-27 -65t-65 -27t-65.5 27t-27.5 65z" />
<glyph unicode="&#x452;" horiz-adv-x="1198" d="M6 1212v105h150v178h139v-178h475v-105h-475v-491q53 138 164 218.5t252 80.5q344 0 344 -461v-606q0 -136 -95 -230t-227 -94q-141 0 -227 80l69 94q49 -49 144 -49q79 0 137.5 55.5t58.5 135.5v585q0 363 -249 363q-131 0 -233 -101.5t-138 -256.5v-535h-139v1212h-150 z" />
<glyph unicode="&#x453;" horiz-adv-x="851" d="M156 0v1067h651v-106h-514v-961h-137zM348 1221l182 317h193l-293 -317h-82z" />
<glyph unicode="&#x454;" horiz-adv-x="1107" d="M80 537q0 105 37 203.5t103 176t168 124t222 46.5q149 0 255.5 -66.5t162.5 -174.5l-94 -55q-53 95 -141 139.5t-185 44.5q-160 0 -265 -108t-126 -267h545v-113h-549q13 -171 125.5 -283t265.5 -112q101 0 195 50.5t143 144.5l107 -47q-51 -122 -171.5 -190t-269.5 -68 q-119 0 -220 47t-167.5 124.5t-103.5 177t-37 206.5z" />
<glyph unicode="&#x455;" horiz-adv-x="997" d="M59 139l64 94q178 -147 383 -147q129 0 205.5 53.5t76.5 147.5q0 35 -14 62t-35.5 45.5t-66.5 36t-87.5 29t-117.5 29.5q-83 20 -133.5 36t-98.5 38t-72.5 48t-39 63.5t-14.5 87.5q0 104 55 178.5t143.5 109.5t200.5 35q120 0 221 -39.5t164 -105.5l-68 -82 q-59 60 -143.5 91.5t-177.5 31.5q-116 0 -189 -50t-73 -149q0 -34 10.5 -58.5t27 -41t53.5 -31.5t73 -25t102 -26q92 -22 150 -39.5t114 -42.5t86 -54t48 -70t18 -95q0 -146 -113.5 -232.5t-302.5 -86.5q-127 0 -245.5 41t-203.5 118z" />
<glyph unicode="&#x456;" horiz-adv-x="450" d="M127 1403q0 38 27 65t65 27t65 -27t27 -65t-27 -65t-65 -27t-65 27t-27 65zM156 0v1067h139v-1067h-139z" />
<glyph unicode="&#x457;" horiz-adv-x="450" d="M-55 1395q0 38 27 65t65 27t65 -27t27 -65t-27 -65t-65 -27t-65 27t-27 65zM156 0v1067h139v-1067h-139zM319 1395q0 38 27.5 65t65.5 27t65 -27t27 -65t-27 -65t-65 -27t-65.5 27t-27.5 65z" />
<glyph unicode="&#x458;" horiz-adv-x="446" d="M127 1403q0 38 27 65t65 27t65 -27t27 -65t-27 -65t-65 -27t-65 27t-27 65zM154 -436v1495h139v-1495h-139z" />
<glyph unicode="&#x459;" horiz-adv-x="1634" d="M12 117q82 5 129.5 58t82.5 192.5t65 410.5l30 289h627v-426h301q136 0 227 -85.5t91 -236.5q0 -150 -91 -234.5t-227 -84.5h-438v956h-360l-29 -237q-36 -286 -84 -440t-117.5 -218t-183.5 -69zM946 119h301q86 0 133 54t47 146q0 94 -47 148.5t-133 54.5h-301v-403z " />
<glyph unicode="&#x45a;" horiz-adv-x="1638" d="M156 0v1067h137v-426h520v426h137v-426h301q136 0 227 -85.5t91 -236.5q0 -150 -91 -234.5t-227 -84.5h-438v520h-520v-520h-137zM950 119h301q86 0 133.5 54t47.5 146q0 94 -47.5 148.5t-133.5 54.5h-301v-403z" />
<glyph unicode="&#x45b;" horiz-adv-x="1198" d="M4 1212v105h152v178h139v-178h475v-105h-475v-485q50 135 161 214t255 79q344 0 344 -461v-559h-140v530q0 363 -251 363q-129 0 -230.5 -97.5t-138.5 -254.5v-541h-139v1212h-152z" />
<glyph unicode="&#x45c;" horiz-adv-x="991" d="M156 0v1067h137v-471h139l354 471h156l-403 -516l438 -551h-156l-377 487h-151v-487h-137zM434 1221l182 317h193l-293 -317h-82z" />
<glyph unicode="&#x45d;" horiz-adv-x="1165" d="M156 0v1067h137v-870l637 870h112v-1067h-137v854l-624 -854h-125zM354 1538h193l182 -317h-82z" />
<glyph unicode="&#x45e;" horiz-adv-x="1110" d="M31 1067h143l395 -938l367 938h133l-555 -1376q-29 -74 -77.5 -109.5t-123.5 -36.5q-58 0 -102 9v120q48 -8 100 -4q23 2 41.5 19t55 92t88.5 219zM283 1466h88q3 -67 51.5 -96t146.5 -29t145.5 28t53.5 97h86q-4 -95 -79 -145.5t-206 -50.5q-132 0 -206 50.5t-80 145.5z " />
<glyph unicode="&#x45f;" horiz-adv-x="1107" d="M156 0v1069h137v-948h522v948h135v-1069h-329v-330h-136v330h-329z" />
<glyph unicode="&#x490;" horiz-adv-x="1062" d="M186 0v1454h715l14 348h109v-475h-694v-1327h-144z" />
<glyph unicode="&#x491;" horiz-adv-x="870" d="M156 0v1067h563l14 330h92v-441h-532v-956h-137z" />
<glyph unicode="&#x4b0;" horiz-adv-x="1269" d="M4 1454h158l475 -782l477 782h154l-561 -907v-62h297v-98h-297v-387h-144v387h-295v98h295v60z" />
<glyph unicode="&#x4b1;" horiz-adv-x="1122" d="M14 1067h158l389 -834l393 834h154l-479 -961v-8h280v-98h-280v-436h-142v436h-276v98h276v8z" />
<glyph unicode="&#x1e0c;" horiz-adv-x="1464" d="M182 0v1454h494q136 0 250 -37t195.5 -103t138.5 -156.5t84.5 -199t27.5 -229.5q0 -331 -189.5 -530t-506.5 -199h-494zM326 127h350q175 0 302 80t189 214.5t62 307.5q0 267 -146.5 432.5t-406.5 165.5h-350v-1200zM592 -238q0 42 30 72.5t72 30.5t72.5 -30.5 t30.5 -72.5q0 -43 -30 -72.5t-73 -29.5t-72.5 29.5t-29.5 72.5z" />
<glyph unicode="&#x1e0d;" horiz-adv-x="1273" d="M82 530q0 150 62 276.5t174 202.5t249 76q127 0 230.5 -66.5t175.5 -174.5v651h139v-1495h-139v199q-63 -100 -164.5 -159.5t-216.5 -59.5q-108 0 -204.5 45.5t-162.5 121.5t-104.5 176t-38.5 207zM225 530q0 -114 52.5 -212.5t144.5 -157t201 -58.5q71 0 149 35 t135.5 98t65.5 132v329q-38 111 -147.5 189t-221.5 78q-110 0 -198.5 -63.5t-134.5 -161.5t-46 -208zM537 -238q0 42 30 72.5t72 30.5t72 -30.5t30 -72.5q0 -43 -29.5 -72.5t-72.5 -29.5t-72.5 29.5t-29.5 72.5z" />
<glyph unicode="&#x1e24;" horiz-adv-x="1511" d="M182 0v1454h144v-647h862v647h141v-1454h-141v680h-862v-680h-144zM659 -238q0 42 30.5 72.5t72.5 30.5t72 -30.5t30 -72.5q0 -43 -29.5 -72.5t-72.5 -29.5t-73 29.5t-30 72.5z" />
<glyph unicode="&#x1e25;" horiz-adv-x="1193" d="M154 0v1495h139v-670q63 120 176 190t244 70q175 0 256.5 -121.5t81.5 -338.5v-625h-140v596q0 362 -245 362q-120 0 -228.5 -88t-144.5 -217v-653h-139zM508 -238q0 42 30 72.5t72 30.5t72.5 -30.5t30.5 -72.5q0 -43 -30 -72.5t-73 -29.5t-72.5 29.5t-29.5 72.5z" />
<glyph unicode="&#x1e44;" horiz-adv-x="1581" d="M182 0v1454h111l962 -1210v1208h144v-1452h-125l-948 1188v-1188h-144zM707 1784q0 38 27 65t65 27t65 -27t27 -65t-27 -65t-65 -27t-65 27t-27 65z" />
<glyph unicode="&#x1e45;" horiz-adv-x="1193" d="M154 0v1067h127v-242q65 118 187.5 189t264.5 71q87 0 149.5 -31.5t99 -93.5t53 -144t16.5 -191v-625h-140v596q0 188 -55.5 275t-173.5 87q-125 0 -238 -87.5t-151 -217.5v-653h-139zM504 1403q0 38 27 65t65 27t65 -27t27 -65t-27 -65t-65 -27t-65 27t-27 65z" />
<glyph unicode="&#x1e5a;" horiz-adv-x="1337" d="M182 0v1454h615q120 0 220.5 -67.5t155 -172t54.5 -217.5q0 -160 -90 -283.5t-234 -152.5l357 -561h-162l-342 537h-430v-537h-144zM326 664h475q83 0 148.5 47.5t99.5 123t34 162.5q0 133 -87.5 231.5t-207.5 98.5h-462v-663zM559 -238q0 42 30.5 72.5t72.5 30.5 t72 -30.5t30 -72.5q0 -43 -29.5 -72.5t-72.5 -29.5t-73 29.5t-30 72.5z" />
<glyph unicode="&#x1e5b;" horiz-adv-x="718" d="M123 -238q0 42 30 72.5t72 30.5t72.5 -30.5t30.5 -72.5q0 -43 -30 -72.5t-73 -29.5t-72.5 29.5t-29.5 72.5zM154 0v1067h131v-256q60 123 160 192.5t214 69.5q17 0 27 -2v-127q-141 -5 -246 -78.5t-147 -201.5v-664h-139z" />
<glyph unicode="&#x1e62;" horiz-adv-x="1243" d="M66 199l71 116q82 -88 219.5 -144t296.5 -56q176 0 272.5 64t96.5 188q0 53 -19 93.5t-51 70t-90 54.5t-120.5 43t-157.5 40q-99 23 -166 44t-128 51.5t-96 68.5t-55 91.5t-20 123.5q0 198 142.5 307.5t375.5 109.5q273 0 465 -168l-70 -114q-64 71 -167 113t-230 42 q-187 0 -278 -70.5t-91 -199.5q0 -51 16 -89.5t44 -65.5t81.5 -49.5t111.5 -38.5t151 -36q84 -19 145 -36t122 -41.5t101.5 -54t73 -69t47.5 -91t15 -115.5q0 -130 -68.5 -220t-184.5 -131.5t-272 -41.5q-337 0 -583 211zM559 -238q0 42 30.5 72.5t72.5 30.5t72 -30.5 t30 -72.5q0 -43 -29.5 -72.5t-72.5 -29.5t-73 29.5t-30 72.5z" />
<glyph unicode="&#x1e63;" horiz-adv-x="997" d="M59 139l64 94q178 -147 383 -147q129 0 205.5 53.5t76.5 147.5q0 35 -14 62t-35.5 45.5t-66.5 36t-87.5 29t-117.5 29.5q-83 20 -133.5 36t-98.5 38t-72.5 48t-39 63.5t-14.5 87.5q0 104 55 178.5t143.5 109.5t200.5 35q120 0 221 -39.5t164 -105.5l-68 -82 q-59 60 -143.5 91.5t-177.5 31.5q-116 0 -189 -50t-73 -149q0 -34 10.5 -58.5t27 -41t53.5 -31.5t73 -25t102 -26q92 -22 150 -39.5t114 -42.5t86 -54t48 -70t18 -95q0 -146 -113.5 -232.5t-302.5 -86.5q-127 0 -245.5 41t-203.5 118zM412 -238q0 42 30 72.5t72 30.5 t72 -30.5t30 -72.5q0 -43 -29.5 -72.5t-72.5 -29.5t-72.5 29.5t-29.5 72.5z" />
<glyph unicode="&#x1e6c;" horiz-adv-x="1249" d="M35 1327v127h1179v-127h-518v-1327h-143v1327h-518zM532 -238q0 42 30.5 72.5t72.5 30.5t72 -30.5t30 -72.5q0 -43 -29.5 -72.5t-72.5 -29.5t-73 29.5t-30 72.5z" />
<glyph unicode="&#x1e6d;" horiz-adv-x="686" d="M72 956v111h147v272h139v-272h246v-111h-246v-733q4 -67 38 -89.5t91 -22.5q62 0 127 36l41 -110q-110 -49 -211 -49q-94 0 -159.5 62t-65.5 165v741h-147zM313 -238q0 42 30.5 72.5t72.5 30.5t72 -30.5t30 -72.5q0 -43 -29.5 -72.5t-72.5 -29.5t-73 29.5t-30 72.5z" />
<glyph unicode="&#x1e80;" horiz-adv-x="2174" d="M43 1454h160l389 -1247l409 1247h156l426 -1247l389 1247h160l-463 -1454h-149l-439 1223l-426 -1223h-149zM780 1921h193l182 -317h-82z" />
<glyph unicode="&#x1e81;" horiz-adv-x="1697" d="M45 1067h145l308 -893l284 893h133l285 -893l307 893h146l-375 -1067h-148l-280 856l-285 -856h-145zM561 1538h193l182 -317h-82z" />
<glyph unicode="&#x1e82;" horiz-adv-x="2174" d="M43 1454h160l389 -1247l409 1247h156l426 -1247l389 1247h160l-463 -1454h-149l-439 1223l-426 -1223h-149zM1065 1604l182 317h193l-293 -317h-82z" />
<glyph unicode="&#x1e83;" horiz-adv-x="1697" d="M45 1067h145l308 -893l284 893h133l285 -893l307 893h146l-375 -1067h-148l-280 856l-285 -856h-145zM823 1221l183 317h192l-293 -317h-82z" />
<glyph unicode="&#x1e84;" horiz-adv-x="2174" d="M43 1454h160l389 -1247l409 1247h156l426 -1247l389 1247h160l-463 -1454h-149l-439 1223l-426 -1223h-149zM793 1780q0 38 27 65t65 27t65 -27t27 -65t-27 -65t-65 -27t-65 27t-27 65zM1167 1780q0 38 27.5 65t65.5 27t65 -27t27 -65t-27 -65t-65 -27t-65.5 27t-27.5 65 z" />
<glyph unicode="&#x1e85;" horiz-adv-x="1697" d="M45 1067h145l308 -893l284 893h133l285 -893l307 893h146l-375 -1067h-148l-280 856l-285 -856h-145zM563 1395q0 38 27 65t65 27t65.5 -27t27.5 -65t-27.5 -65t-65.5 -27t-65 27t-27 65zM938 1395q0 38 27 65t65 27t65 -27t27 -65t-27 -65t-65 -27t-65 27t-27 65z" />
<glyph unicode="&#x1e92;" horiz-adv-x="1288" d="M63 0v113l990 1214h-973v127h1139v-113l-977 -1214h975v-127h-1154zM559 -238q0 42 30.5 72.5t72.5 30.5t72 -30.5t30 -72.5q0 -43 -29.5 -72.5t-72.5 -29.5t-73 29.5t-30 72.5z" />
<glyph unicode="&#x1e93;" horiz-adv-x="1007" d="M63 0v94l721 869h-704v104h856v-94l-719 -869h717v-104h-871zM397 -238q0 42 30.5 72.5t72.5 30.5t72 -30.5t30 -72.5q0 -43 -29.5 -72.5t-72.5 -29.5t-73 29.5t-30 72.5z" />
<glyph unicode="&#x1eb8;" horiz-adv-x="1247" d="M182 0v1454h959v-127h-815v-524h710v-121h-710v-555h833v-127h-977zM559 -238q0 42 30.5 72.5t72.5 30.5t72 -30.5t30 -72.5q0 -43 -29.5 -72.5t-72.5 -29.5t-73 29.5t-30 72.5z" />
<glyph unicode="&#x1eb9;" horiz-adv-x="1202" d="M80 537q0 148 68 273.5t191 200t273 74.5q152 0 274.5 -75.5t188.5 -200t66 -270.5q0 -48 -2 -56h-914q13 -171 127 -284t269 -113q105 0 197 53.5t130 139.5l121 -33q-50 -118 -175.5 -192t-279.5 -74q-151 0 -274.5 76t-191.5 203.5t-68 277.5zM223 590h785 q-13 169 -125 278t-269 109q-158 0 -269.5 -109.5t-121.5 -277.5zM514 -238q0 42 30 72.5t72 30.5t72.5 -30.5t30.5 -72.5q0 -43 -30 -72.5t-73 -29.5t-72.5 29.5t-29.5 72.5z" />
<glyph unicode="&#x1ebc;" horiz-adv-x="1247" d="M182 0v1454h959v-127h-815v-524h710v-121h-710v-555h833v-127h-977zM367 1673q0 16 8 43t26.5 62.5t58.5 60.5t93 25q48 0 92.5 -21.5t86 -43t83.5 -21.5q30 0 53 10t34.5 23t18.5 28.5t9 24.5t2 14h86q0 -11 -4.5 -30t-18.5 -47.5t-35 -52.5t-58.5 -41t-84.5 -17 q-52 0 -99.5 20.5t-87.5 41t-75 20.5q-31 0 -53.5 -13.5t-32 -33t-13 -32.5t-3.5 -20h-86z" />
<glyph unicode="&#x1ebd;" horiz-adv-x="1202" d="M80 537q0 148 68 273.5t191 200t273 74.5q152 0 274.5 -75.5t188.5 -200t66 -270.5q0 -48 -2 -56h-914q13 -171 127 -284t269 -113q105 0 197 53.5t130 139.5l121 -33q-50 -118 -175.5 -192t-279.5 -74q-151 0 -274.5 76t-191.5 203.5t-68 277.5zM223 590h785 q-13 169 -125 278t-269 109q-158 0 -269.5 -109.5t-121.5 -277.5zM285 1290q0 16 8 43t26.5 62.5t58.5 60.5t93 25q48 0 92.5 -21.5t86 -43t83.5 -21.5q30 0 53 10t34.5 23t18.5 28.5t9 24.5t2 14h86q0 -11 -4.5 -30t-18.5 -47.5t-35 -52.5t-58.5 -41t-84.5 -17 q-52 0 -99.5 20.5t-87.5 41t-75 20.5q-31 0 -53.5 -13.5t-32 -33t-13 -32.5t-3.5 -20h-86z" />
<glyph unicode="&#x1eca;" horiz-adv-x="507" d="M158 -238q0 42 30 72.5t72 30.5t72 -30.5t30 -72.5q0 -43 -29.5 -72.5t-72.5 -29.5t-72.5 29.5t-29.5 72.5zM182 0v1454h144v-1454h-144zM182 0v1454h144v-1454h-144z" />
<glyph unicode="&#x1ecb;" horiz-adv-x="446" d="M123 -238q0 42 30 72.5t72 30.5t72.5 -30.5t30.5 -72.5q0 -43 -30 -72.5t-73 -29.5t-72.5 29.5t-29.5 72.5zM127 1403q0 38 27 65t65 27t65 -27t27 -65t-27 -65t-65 -27t-65 27t-27 65zM154 0v1067h139v-1067h-139z" />
<glyph unicode="&#x1ecc;" horiz-adv-x="1538" d="M86 727q0 144 53 278.5t142.5 235.5t218 162t270.5 61q118 0 226 -41.5t189.5 -113.5t142 -166t91.5 -201.5t31 -216.5q0 -144 -52.5 -278t-142 -235t-217.5 -161.5t-270 -60.5q-148 0 -277.5 63t-217 166t-137.5 235.5t-50 272.5zM229 727q0 -118 40 -228t109.5 -194 t171.5 -135t218 -51q120 0 223 53t171 139t106.5 194.5t38.5 221.5q0 158 -68 296t-193 224t-278 86q-120 0 -223 -52.5t-171 -138t-106.5 -194t-38.5 -221.5zM668 -238q0 42 30 72.5t72 30.5t72 -30.5t30 -72.5q0 -43 -29.5 -72.5t-72.5 -29.5t-72.5 29.5t-29.5 72.5z" />
<glyph unicode="&#x1ecd;" d="M80 530q0 111 40 212.5t109 177t168 120.5t211 45q150 0 272.5 -76t190.5 -203t68 -276q0 -148 -67.5 -273.5t-190 -201t-273.5 -75.5t-273 75.5t-188.5 201t-66.5 273.5zM221 528q0 -178 113.5 -302t273.5 -124t274.5 126t114.5 304t-114.5 304.5t-274.5 126.5 q-104 0 -193 -58t-141.5 -158.5t-52.5 -218.5zM510 -238q0 42 30 72.5t72 30.5t72.5 -30.5t30.5 -72.5q0 -43 -30 -72.5t-73 -29.5t-72.5 29.5t-29.5 72.5z" />
<glyph unicode="&#x1ee4;" horiz-adv-x="1546" d="M162 721v733h141v-733q0 -96 14 -180t48 -163t86 -135.5t134 -90t187 -33.5q107 0 190.5 34.5t135.5 91.5t85.5 136.5t46.5 162.5t13 177v733h143v-733q0 -121 -20.5 -226.5t-67 -199.5t-116 -160.5t-174 -105.5t-234.5 -39q-134 0 -240 41t-175 109t-114 163.5 t-64 198.5t-19 219zM680 -238q0 42 30 72.5t72 30.5t72.5 -30.5t30.5 -72.5q0 -43 -30 -72.5t-73 -29.5t-72.5 29.5t-29.5 72.5z" />
<glyph unicode="&#x1ee5;" horiz-adv-x="1216" d="M143 440v627h140v-602q0 -64 6.5 -115t23.5 -99t45.5 -79.5t74 -50.5t106.5 -19q124 0 228.5 84.5t147.5 208.5v672h140v-1067h-135v233q-62 -117 -178 -185t-248 -68q-82 0 -144 24.5t-101 66t-63 102t-33.5 125t-9.5 142.5zM487 -238q0 42 30.5 72.5t72.5 30.5 t72 -30.5t30 -72.5q0 -43 -29.5 -72.5t-72.5 -29.5t-73 29.5t-30 72.5z" />
<glyph unicode="&#x1ef2;" horiz-adv-x="1333" d="M33 1454h157l476 -782l479 782h155l-563 -913v-541h-143v545zM399 1921h193l182 -317h-82z" />
<glyph unicode="&#x1ef3;" horiz-adv-x="1110" d="M27 1067h145l395 -938l365 938h133l-555 -1376q-27 -69 -85.5 -108.5t-143.5 -39.5q-63 0 -93 6l13 125q24 -4 51 -4q35 0 55 5t39 20t35 45.5t37 79t51 122.5q15 37 23 58zM324 1538h192l182 -317h-82z" />
<glyph unicode="&#x1ef8;" horiz-adv-x="1333" d="M33 1454h157l476 -782l479 782h155l-563 -913v-541h-143v545zM342 1673q0 16 8 43t26.5 62.5t58.5 60.5t93 25q48 0 92.5 -21.5t86.5 -43t84 -21.5q30 0 52.5 10t34 23t19 28.5t9 24.5t1.5 14h86q0 -15 -8.5 -41.5t-28.5 -61.5t-62.5 -60t-100.5 -25q-52 0 -99.5 20.5 t-88 41t-75.5 20.5q-31 0 -53.5 -13.5t-32 -33t-13 -32.5t-3.5 -20h-86z" />
<glyph unicode="&#x1ef9;" horiz-adv-x="1110" d="M27 1067h145l395 -938l365 938h133l-555 -1376q-27 -69 -85.5 -108.5t-143.5 -39.5q-63 0 -93 6l13 125q24 -4 51 -4q35 0 55 5t39 20t35 45.5t37 79t51 122.5q15 37 23 58zM246 1290q0 16 8 43t26.5 62.5t58.5 60.5t93 25q48 0 92.5 -21.5t86 -43t83.5 -21.5q30 0 53 10 t34.5 23t18.5 28.5t9 24.5t2 14h86q0 -11 -4.5 -30t-18.5 -47.5t-35 -52.5t-58.5 -41t-84.5 -17q-52 0 -99.5 20.5t-87.5 41t-75 20.5q-31 0 -53.5 -13.5t-32 -33t-13 -32.5t-3.5 -20h-86z" />
<glyph unicode="&#x2000;" horiz-adv-x="962" />
<glyph unicode="&#x2001;" horiz-adv-x="1925" />
<glyph unicode="&#x2002;" horiz-adv-x="1185" />
<glyph unicode="&#x2003;" horiz-adv-x="1875" />
<glyph unicode="&#x2004;" horiz-adv-x="641" />
<glyph unicode="&#x2005;" horiz-adv-x="481" />
<glyph unicode="&#x2006;" horiz-adv-x="320" />
<glyph unicode="&#x2007;" horiz-adv-x="320" />
<glyph unicode="&#x2008;" horiz-adv-x="240" />
<glyph unicode="&#x2009;" horiz-adv-x="385" />
<glyph unicode="&#x200a;" horiz-adv-x="106" />
<glyph unicode="&#x2010;" horiz-adv-x="864" d="M133 494v129h598v-129h-598z" />
<glyph unicode="&#x2011;" horiz-adv-x="864" d="M133 494v129h598v-129h-598z" />
<glyph unicode="&#x2012;" horiz-adv-x="864" d="M133 494v129h598v-129h-598z" />
<glyph unicode="&#x2013;" horiz-adv-x="1167" d="M133 494v129h899v-129h-899z" />
<glyph unicode="&#x2014;" horiz-adv-x="1845" d="M133 494v129h1579v-129h-1579z" />
<glyph unicode="&#x2018;" horiz-adv-x="491" d="M61 1016h166l138 481h-117z" />
<glyph unicode="&#x2019;" horiz-adv-x="491" d="M123 1016h117l186 481h-166z" />
<glyph unicode="&#x201a;" horiz-adv-x="522" d="M115 -287h116l187 482h-166z" />
<glyph unicode="&#x201c;" horiz-adv-x="778" d="M41 1016h166l137 481h-117zM369 1016h166l137 481h-117z" />
<glyph unicode="&#x201d;" horiz-adv-x="778" d="M123 1016h117l186 481h-166zM430 1016h117l186 481h-166z" />
<glyph unicode="&#x201e;" horiz-adv-x="778" d="M51 -268h117l199 524h-166zM358 -268h117l199 524h-166z" />
<glyph unicode="&#x2020;" horiz-adv-x="831" d="M80 492v126h270v969h133v-969h269v-126h-269v-758h-133v758h-270z" />
<glyph unicode="&#x2021;" horiz-adv-x="839" d="M84 326v129h270v225h-270v129h270v778h133v-778h269v-129h-269v-225h269v-129h-269v-592h-133v592h-270z" />
<glyph unicode="&#x2022;" horiz-adv-x="718" d="M170 709q0 78 58 136t137 58q80 0 137 -56.5t57 -137.5t-57 -138t-137 -57t-137.5 57t-57.5 138z" />
<glyph unicode="&#x2026;" horiz-adv-x="1081" d="M127 82q0 38 27 65t65 27t65 -27t27 -65t-27 -65t-65 -27t-65 27t-27 65zM487 84q0 38 27.5 65t65.5 27t65 -27t27 -65t-27 -65t-65 -27t-65.5 27t-27.5 65zM852 84q0 38 27 65t65 27t65 -27t27 -65t-27 -65t-65 -27t-65 27t-27 65z" />
<glyph unicode="&#x202f;" horiz-adv-x="385" />
<glyph unicode="&#x2030;" horiz-adv-x="2183" d="M94 1180q0 123 89.5 209t217.5 86t217 -86t89 -209q0 -122 -89.5 -207.5t-216.5 -85.5t-217 85.5t-90 207.5zM145 55l572 697l557 710l72 -61l-572 -696l-559 -713zM199 1180q0 -87 60 -150t142 -63q83 0 142 63.5t59 149.5q0 88 -60 150.5t-141 62.5q-84 0 -143 -63.5 t-59 -149.5zM782 274q0 121 89.5 207t215.5 86q128 0 218 -86t90 -207q0 -123 -90 -208.5t-218 -85.5q-126 0 -215.5 85.5t-89.5 208.5zM887 274q0 -89 59 -151t141 -62q84 0 142.5 63t58.5 150t-60.5 150t-140.5 63q-82 0 -141 -63.5t-59 -149.5zM1503 274q0 121 89.5 207 t215.5 86q128 0 218 -86t90 -207q0 -123 -90 -208.5t-218 -85.5q-126 0 -215.5 85.5t-89.5 208.5zM1608 274q0 -89 59 -151t141 -62q84 0 143.5 63t59.5 150t-60.5 150t-142.5 63t-141 -63.5t-59 -149.5z" />
<glyph unicode="&#x2039;" horiz-adv-x="720" d="M84 489v76l508 365v-121l-395 -279l395 -274v-121z" />
<glyph unicode="&#x203a;" horiz-adv-x="720" d="M129 135v121l395 274l-395 279v121l510 -365v-76z" />
<glyph unicode="&#x2044;" horiz-adv-x="315" d="M-442 55l571 697l557 710l72 -61l-572 -696l-559 -713z" />
<glyph unicode="&#x205f;" horiz-adv-x="481" />
<glyph unicode="&#x2070;" horiz-adv-x="937" d="M78 1245q0 75 27.5 148t77 132.5t125 96.5t163.5 37q92 0 168 -39.5t123 -101.5t72.5 -133t25.5 -140q0 -76 -27.5 -149.5t-76 -132.5t-123 -95.5t-162.5 -36.5q-75 0 -140.5 25.5t-110.5 67.5t-78 96t-48.5 111.5t-15.5 113.5zM172 1245q0 -79 33 -151t103 -122t163 -50 q72 0 130.5 31t94 79.5t54 104t18.5 108.5q0 78 -34 151t-103.5 123t-159.5 50q-72 0 -131.5 -31.5t-94.5 -80.5t-54 -104t-19 -108z" />
<glyph unicode="&#x2074;" horiz-adv-x="786" d="M49 1053v86l496 520h63v-518h117v-88h-117v-211h-92v211h-467zM147 1141h371v393z" />
<glyph unicode="&#x2075;" horiz-adv-x="765" d="M63 985l62 51q37 -55 102 -86.5t146 -31.5q100 0 166.5 51.5t66.5 134.5q0 86 -68.5 135t-158.5 49q-63 0 -121 -26.5t-90 -69.5h-84q9 43 55 237t51 230h459v-90h-389l-65 -269q75 62 192 62q133 0 223 -72.5t90 -185.5q0 -121 -95.5 -197t-235.5 -76 q-101 0 -183.5 41.5t-122.5 112.5z" />
<glyph unicode="&#x2076;" horiz-adv-x="825" d="M82 1174q0 238 94 361.5t258 123.5q93 0 168 -38.5t111 -107.5l-56 -59q-28 53 -90.5 86t-136.5 33q-119 0 -190 -86.5t-72 -239.5q30 60 103 96.5t157 36.5q141 0 236.5 -79t95.5 -195q0 -118 -98.5 -200.5t-239.5 -82.5q-153 0 -246.5 94.5t-93.5 256.5zM174 1106 q0 -81 74 -140t176 -59q101 0 174.5 58.5t73.5 138.5q0 81 -73.5 138.5t-176.5 57.5q-101 0 -174.5 -57.5t-73.5 -136.5z" />
<glyph unicode="&#x2077;" horiz-adv-x="727" d="M53 1569v90h658l-482 -817h-104l438 727h-510z" />
<glyph unicode="&#x2078;" horiz-adv-x="815" d="M78 1073q0 74 54 126.5t134 80.5q-68 24 -111.5 67.5t-43.5 102.5q0 92 91 150.5t206 58.5t204.5 -57.5t89.5 -149.5q0 -60 -43.5 -104.5t-113.5 -67.5q86 -28 138 -82t52 -129q0 -104 -97 -171t-235 -67q-140 0 -232.5 71t-92.5 171zM170 1079q0 -48 37 -84.5 t90.5 -54.5t110.5 -18q93 0 164 44t71 113q0 71 -73 115.5t-164 44.5q-92 0 -164 -45.5t-72 -114.5zM203 1444q0 -59 62.5 -94t140.5 -35t142 35.5t64 93.5q0 57 -61.5 92t-144.5 35t-143 -35t-60 -92z" />
<glyph unicode="&#x2079;" horiz-adv-x="825" d="M66 1376q0 118 98 200.5t239 82.5q152 0 246 -94t94 -256q0 -239 -94 -362.5t-258 -123.5q-91 0 -166.5 39.5t-113.5 108.5l57 57q30 -54 90.5 -86.5t136.5 -32.5q117 0 189 86.5t73 239.5q-31 -60 -104 -97.5t-158 -37.5q-139 0 -234 80t-95 196zM156 1378 q0 -80 73 -138t174 -58t173.5 58t72.5 136q0 80 -73.5 139.5t-174.5 59.5t-173 -58.5t-72 -138.5z" />
<glyph unicode="&#x2080;" horiz-adv-x="937" d="M78 240q0 75 27.5 148t77 132.5t125 96t163.5 36.5q92 0 168 -39t123 -101t72.5 -133t25.5 -140q0 -76 -27.5 -149.5t-76 -132.5t-123 -95.5t-162.5 -36.5q-75 0 -140.5 25.5t-110.5 67.5t-78 96t-48.5 111.5t-15.5 113.5zM172 240q0 -79 33 -151.5t103 -122.5t163 -50 q72 0 130.5 31.5t94 80.5t54 104t18.5 108q0 78 -34 151t-103.5 122.5t-159.5 49.5q-73 0 -132 -31t-94 -79.5t-54 -104t-19 -108.5z" />
<glyph unicode="&#x2081;" horiz-adv-x="587" d="M70 551l213 115h92v-830h-92v723l-168 -94z" />
<glyph unicode="&#x2082;" horiz-adv-x="800" d="M74 -164q0 154 61.5 239t196.5 138q16 6 53.5 19t57.5 21t51 21.5t48 27t35.5 31.5t26.5 40.5t8 48.5q0 66 -54.5 109.5t-154.5 43.5q-156 0 -260 -114l-61 65q12 16 35 35t64 44.5t103 42t132 16.5q144 0 221.5 -67.5t77.5 -176.5q0 -35 -11 -66t-25.5 -53.5t-42 -43.5 t-47.5 -33.5t-55.5 -27.5t-53 -20.5t-52.5 -17.5q-130 -42 -188 -105t-58 -127h535v-90h-643z" />
<glyph unicode="&#x2083;" horiz-adv-x="800" d="M72 8l55 58q7 -55 80.5 -102.5t179.5 -47.5q101 0 170.5 40.5t69.5 104.5q0 71 -83 112.5t-222 41.5h-48v82h48q132 0 204 34.5t72 102.5q0 64 -63.5 105t-153.5 41q-83 0 -145.5 -31t-94.5 -84l-61 70q36 59 119 94t182 35q135 0 225 -64.5t90 -159.5q0 -140 -186 -182 q94 -13 151.5 -71.5t57.5 -137.5q0 -102 -96 -162.5t-234 -60.5q-129 0 -215.5 49t-101.5 133z" />
<glyph unicode="&#x2084;" horiz-adv-x="786" d="M49 47v86l496 520h63v-516h117v-90h-117v-211h-92v211h-467zM147 137h371v391z" />
<glyph unicode="&#x2085;" horiz-adv-x="765" d="M63 -23l62 54q37 -55 102.5 -87t145.5 -32q100 0 166.5 52t66.5 134q0 86 -68.5 135.5t-158.5 49.5q-62 0 -120 -27t-91 -70h-84q9 43 55 237t51 230h459v-90h-389l-65 -266q71 59 192 59q134 0 223.5 -72.5t89.5 -187.5q0 -118 -96 -194t-235 -76q-100 0 -183 41.5 t-123 109.5z" />
<glyph unicode="&#x2086;" horiz-adv-x="827" d="M82 176q0 237 95 360t259 123q92 0 166.5 -38.5t112.5 -106.5l-58 -59q-28 54 -89 86t-136 32q-119 0 -190 -85.5t-72 -239.5q30 61 103 98t157 37q140 0 235 -80.5t95 -196.5q0 -117 -98 -198.5t-240 -81.5q-152 0 -246 94t-94 256zM176 106q0 -79 74.5 -137.5 t175.5 -58.5t173.5 58t72.5 136q0 82 -72.5 140.5t-175.5 58.5q-102 0 -175 -58.5t-73 -138.5z" />
<glyph unicode="&#x2087;" horiz-adv-x="727" d="M53 563v90h658l-482 -817h-104l440 727h-512z" />
<glyph unicode="&#x2088;" horiz-adv-x="815" d="M78 68q0 74 54.5 127t133.5 79q-68 24 -111.5 67.5t-43.5 102.5q0 93 91 151t206 58t204.5 -57.5t89.5 -149.5q0 -60 -43.5 -104.5t-113.5 -67.5q86 -28 138 -82t52 -129q0 -104 -97 -170.5t-235 -66.5q-140 0 -232.5 71t-92.5 171zM170 72q0 -69 74 -112.5t164 -43.5 q92 0 163.5 44.5t71.5 113.5q0 71 -73 115t-164 44q-93 0 -164.5 -45.5t-71.5 -115.5zM203 436q0 -57 63 -92t140 -35q78 0 142 36t64 93q0 58 -62 93.5t-144 35.5q-83 0 -143 -36.5t-60 -94.5z" />
<glyph unicode="&#x2089;" horiz-adv-x="829" d="M68 379q0 117 97 198.5t238 81.5q153 0 247.5 -94t94.5 -256q0 -237 -94 -360t-258 -123q-93 0 -168.5 38.5t-111.5 106.5l57 60q28 -54 89 -86.5t136 -32.5q119 0 190.5 86t71.5 238q-29 -59 -102.5 -96.5t-157.5 -37.5q-139 0 -234 80t-95 197zM156 379 q0 -79 73.5 -137t173.5 -58q101 0 174.5 57.5t73.5 137.5q0 79 -74.5 137.5t-175.5 58.5q-100 0 -172.5 -58t-72.5 -138z" />
<glyph unicode="&#x20a1;" horiz-adv-x="1128" d="M82 537q0 191 106.5 336.5t280.5 191.5v256h76v-240q46 4 69 4q40 0 60 -4v240h76v-252q102 -25 179 -86.5t122 -151.5l-138 -43q-44 82 -125 128.5t-178 46.5q-164 0 -275.5 -122t-111.5 -304q0 -180 115 -307.5t274 -127.5q102 0 194.5 54.5t117.5 128.5l137 -41 q-35 -90 -117.5 -156t-193.5 -92v-242h-76v230q-36 -4 -58 -4q-25 0 -71 4v-230h-76v246q-173 49 -280 198.5t-107 338.5z" />
<glyph unicode="&#x20a3;" horiz-adv-x="1253" d="M59 274v111h189v1069h952v-127h-811v-534h686v-119h-686v-289h273v-111h-273v-274h-141v274h-189z" />
<glyph unicode="&#x20a4;" horiz-adv-x="999" d="M100 717v88h170q-4 7 -26.5 47.5t-29 52.5t-22.5 46.5t-21.5 54.5t-11 50t-5.5 58q0 146 108.5 248t261.5 102q112 0 210.5 -57.5t160.5 -157.5l-80 -86q-49 85 -129.5 135t-165.5 50q-98 0 -166.5 -70.5t-68.5 -171.5q0 -37 13 -80.5t24.5 -67.5t43 -80t40.5 -73h382 v-88h-342q26 -72 33 -125h322v-86h-318q-5 -96 -53.5 -187t-159.5 -208q76 18 150 18q60 0 152 -18.5t139 -18.5q72 0 184 37l35 -106q-111 -54 -225 -54q-60 0 -168.5 24.5t-171.5 24.5q-106 0 -222 -34l-39 102q136 133 193.5 228.5t60.5 191.5h-231v86h225 q-12 66 -39 125h-213z" />
<glyph unicode="&#x20a6;" horiz-adv-x="1726" d="M76 555v88h180v127h-180v88h180v596h111l473 -596h489v594h144v-594h176v-88h-176v-127h176v-88h-176v-555h-125l-443 555h-506v-555h-143v555h-180zM399 643h435l-101 127h-334v-127zM399 858h263l-263 330v-330zM909 770l103 -127h317v127h-420zM1081 555l248 -311v311 h-248z" />
<glyph unicode="&#x20a9;" horiz-adv-x="2289" d="M84 651v88h315l-59 142h-256v86h219l-205 487h154l201 -487h544l-194 477h135l205 -516l207 516h137l-197 -477h547l201 487h155l-206 -487h217v-86h-254l-60 -142h314v-88h-351l-276 -651h-127l-305 719l-307 -719h-125l-277 651h-352zM487 881l58 -142h475l37 84 l-25 58h-545zM582 651l198 -485l203 485h-401zM1233 823l35 -84h477l57 142h-547zM1305 651l206 -485l199 485h-405z" />
<glyph unicode="&#x20ac;" horiz-adv-x="1640" d="M68 549l36 88h181q-6 50 -6 100v27h-152l37 88h123q18 119 72.5 227t139 194.5t206.5 137.5t264 51q188 0 328 -86.5t208 -230.5l-112 -70q-45 92 -119 152t-151 83t-162 23q-109 0 -202.5 -39.5t-158.5 -107.5t-108 -153t-60 -181h692l-37 -88h-665v-35q0 -45 6 -92h623 l-39 -88h-566q52 -188 195 -310t326 -122q86 0 168.5 27.5t159 90t120.5 152.5l119 -61q-45 -104 -140.5 -182.5t-208.5 -117t-227 -38.5q-121 0 -231.5 45.5t-193.5 123t-143 178.5t-89 214h-233z" />
<glyph unicode="&#x20b9;" horiz-adv-x="968" d="M88 1139v86h395q-92 102 -211 102h-184v127h803v-88h-361q68 -54 119 -141h242v-86h-203q23 -77 23 -142q0 -160 -90 -283.5t-234 -152.5l356 -561h-161l-422 664h127q123 0 201.5 99.5t78.5 233.5q0 70 -30 142h-449z" />
<glyph unicode="&#x2122;" horiz-adv-x="1488" d="M127 1360v98h487v-98h-194v-492h-98v492h-195zM709 868v586h135l174 -383l176 383h137v-586h-98v445l-172 -359h-82l-172 359v-445h-98z" />
<glyph unicode="&#x2153;" horiz-adv-x="1759" d="M90 1384l197 113h92v-829h-92v725l-156 -93zM209 55l571 697l557 710l72 -61l-571 -696l-559 -713zM1038 172l56 57q7 -55 80.5 -102t179.5 -47q101 0 170 40.5t69 104.5q0 71 -83 112.5t-222 41.5h-47v82h47q132 0 204.5 34.5t72.5 102.5q0 64 -63.5 104.5t-153.5 40.5 q-83 0 -145.5 -31t-94.5 -83l-61 69q36 59 119 94t182 35q135 0 225 -64t90 -159q0 -140 -186 -182q94 -13 151.5 -71.5t57.5 -137.5q0 -102 -96 -162.5t-234 -60.5q-129 0 -216 49t-102 133z" />
<glyph unicode="&#x2154;" horiz-adv-x="1783" d="M90 670q0 153 59.5 237t192.5 137q17 7 61 23.5t65 25.5t55 27t50.5 35t29.5 43t13 57q0 66 -53.5 109t-150.5 43q-151 0 -254 -113l-60 64q10 15 33 34.5t62.5 45t100.5 42.5t130 17q141 0 216 -67.5t75 -176.5q0 -35 -10.5 -66t-25 -53.5t-41 -43.5t-46.5 -33.5 t-55 -27.5t-52 -21t-51 -17q-128 -42 -182.5 -104.5t-54.5 -128.5h510v-88h-617zM315 55l572 697l557 710l72 -61l-572 -696l-559 -713zM1063 172l55 57q7 -55 80.5 -102t179.5 -47q101 0 170.5 40.5t69.5 104.5q0 71 -83 112.5t-222 41.5h-47v82h47q132 0 204 34.5 t72 102.5q0 64 -63.5 104.5t-153.5 40.5q-83 0 -145 -31t-94 -83l-62 69q36 59 119 94t182 35q135 0 225.5 -64t90.5 -159q0 -140 -187 -182q94 -13 151.5 -71.5t57.5 -137.5q0 -102 -96 -162.5t-234 -60.5q-129 0 -215.5 49t-101.5 133z" />
<glyph unicode="&#x215b;" horiz-adv-x="1757" d="M90 1384l197 113h92v-829h-92v725l-156 -93zM233 55l572 697l557 710l72 -61l-572 -696l-559 -713zM1026 231q0 74 54.5 127.5t133.5 79.5q-68 24 -111.5 67.5t-43.5 102.5q0 93 91 151t206 58t205 -57.5t90 -149.5q0 -60 -44 -104.5t-114 -67.5q86 -28 138 -82t52 -129 q0 -104 -96.5 -170.5t-234.5 -66.5q-140 0 -233 70.5t-93 170.5zM1118 236q0 -69 74 -112.5t164 -43.5q92 0 163.5 44.5t71.5 113.5q0 71 -73 115t-164 44q-93 0 -164.5 -45.5t-71.5 -115.5zM1151 600q0 -57 63 -92t140 -35q78 0 142.5 36t64.5 93t-62.5 93t-144.5 36 q-83 0 -143 -36.5t-60 -94.5z" />
<glyph unicode="&#x215c;" horiz-adv-x="1767" d="M88 840l55 59q7 -55 80.5 -102t179.5 -47q102 0 171 40t69 105q0 71 -82.5 111.5t-222.5 40.5h-47v83h47q131 0 203.5 34.5t72.5 101.5q0 66 -63 106.5t-154 40.5q-83 0 -145 -31t-94 -84l-62 70q36 59 119 94t182 35q135 0 225.5 -64t90.5 -161q0 -141 -187 -180 q94 -13 151.5 -71.5t57.5 -137.5q0 -102 -96 -164t-233 -62q-128 0 -215.5 50t-102.5 133zM285 55l571 697l557 710l72 -61l-572 -696l-559 -713zM1036 231q0 74 55 127.5t134 79.5q-68 24 -112 67.5t-44 102.5q0 93 91 151t206 58t205 -57.5t90 -149.5q0 -60 -44 -104.5 t-114 -67.5q86 -28 138.5 -82t52.5 -129q0 -104 -97 -170.5t-235 -66.5q-140 0 -233 70.5t-93 170.5zM1128 236q0 -69 74 -112.5t164 -43.5q92 0 164 44.5t72 113.5q0 71 -73.5 115t-164.5 44q-93 0 -164.5 -45.5t-71.5 -115.5zM1161 600q0 -57 63 -92t140 -35 q78 0 142.5 36t64.5 93t-62.5 93t-144.5 36q-83 0 -143 -36.5t-60 -94.5z" />
<glyph unicode="&#x215d;" horiz-adv-x="1773" d="M74 821l61 51q37 -55 102 -86.5t146 -31.5q100 0 166.5 51.5t66.5 134.5q0 86 -68.5 135t-158.5 49q-63 0 -121 -26.5t-90 -69.5h-84q9 44 55.5 237.5t51.5 229.5h458v-90h-389l-65 -268q74 61 192 61q134 0 224 -72.5t90 -185.5q0 -120 -96 -196t-236 -76 q-101 0 -183 41t-122 112zM270 55l572 697l557 710l71 -61l-571 -696l-559 -713zM1044 231q0 74 55 127.5t134 79.5q-68 24 -112 67.5t-44 102.5q0 93 91 151t206 58t205 -57.5t90 -149.5q0 -60 -44 -104.5t-114 -67.5q86 -28 138.5 -82t52.5 -129q0 -104 -97 -170.5 t-235 -66.5q-140 0 -233 70.5t-93 170.5zM1137 236q0 -69 73.5 -112.5t163.5 -43.5q92 0 164 44.5t72 113.5q0 71 -73.5 115t-164.5 44q-92 0 -163.5 -45t-71.5 -116zM1169 600q0 -57 63 -92t140 -35q78 0 142.5 36t64.5 93t-62.5 93t-144.5 36q-83 0 -143 -36.5t-60 -94.5z " />
<glyph unicode="&#x215e;" horiz-adv-x="1738" d="M88 1405v90h657l-481 -817h-104l438 727h-510zM139 55l572 697l557 710l71 -61l-571 -696l-559 -713zM1008 231q0 74 54.5 127.5t133.5 79.5q-68 24 -112 67.5t-44 102.5q0 93 91 151t206 58t205 -57.5t90 -149.5q0 -60 -43.5 -104.5t-113.5 -67.5q86 -28 138 -82 t52 -129q0 -104 -97 -170.5t-235 -66.5q-140 0 -232.5 70.5t-92.5 170.5zM1100 236q0 -69 73.5 -112.5t163.5 -43.5q92 0 164 44.5t72 113.5q0 71 -73.5 115t-164.5 44q-92 0 -163.5 -45t-71.5 -116zM1133 600q0 -57 62.5 -92t139.5 -35q78 0 142.5 36t64.5 93t-62.5 93 t-144.5 36q-83 0 -142.5 -36.5t-59.5 -94.5z" />
<glyph unicode="&#x2190;" horiz-adv-x="1863" d="M129 735l743 744l91 -93l-588 -587h1394v-129h-1394l588 -588l-91 -90z" />
<glyph unicode="&#x2191;" horiz-adv-x="1863" d="M207 772l743 744l744 -744l-90 -90l-588 588v-1397l-129 2v1395l-588 -588z" />
<glyph unicode="&#x2192;" horiz-adv-x="1863" d="M129 674v129h1395l-588 588l90 92l743 -744l-743 -743l-90 90l588 588h-1395z" />
<glyph unicode="&#x2193;" horiz-adv-x="1863" d="M207 616l92 91l588 -588v1394l129 3v-1397l588 588l90 -91l-744 -743z" />
<glyph unicode="&#x2196;" horiz-adv-x="1863" d="M315 14v1053h1051l-2 -129h-829l985 -987l-90 -90l-988 985v-832h-127z" />
<glyph unicode="&#x2197;" horiz-adv-x="1863" d="M326 -47l987 987h-832l-2 129h1053v-1053h-129v832l-987 -987z" />
<glyph unicode="&#x2198;" horiz-adv-x="1863" d="M324 1110l90 90l987 -985v829l129 3v-1051h-1053v127h832z" />
<glyph unicode="&#x2199;" horiz-adv-x="1863" d="M324 0v1051l129 -2v-830l987 985l90 -90l-985 -987h831v-127h-1052z" />
<glyph unicode="&#x2202;" horiz-adv-x="1159" d="M57 399q0 127 68.5 240t185.5 181.5t250 68.5q128 0 223 -64.5t125 -177.5q15 92 15 209q0 133 -23 228t-67.5 150.5t-103.5 81t-138 25.5q-94 0 -180 -33t-129 -85l-80 84q66 76 172 116.5t229 40.5q227 0 339 -154.5t112 -492.5q0 -404 -149 -620.5t-400 -216.5 q-194 0 -321.5 121t-127.5 298zM190 410q0 -130 91 -219t227 -89q103 0 189.5 55.5t133 139.5t46.5 174q0 125 -91.5 214t-222.5 89q-149 0 -261 -108.5t-112 -255.5z" />
<glyph unicode="&#x2206;" horiz-adv-x="1257" d="M14 0v109l557 1345h119l555 -1345v-109h-1231zM172 127h915l-456 1159z" />
<glyph unicode="&#x220f;" horiz-adv-x="1415" d="M63 1327v127h1287v-127h-164v-1511h-135v1511h-684v-1511h-136v1511h-168z" />
<glyph unicode="&#x2211;" horiz-adv-x="1083" d="M66 0v104l462 633l-450 623v94h903v-117h-715v-8l414 -573l-444 -617v-8h776v-131h-946z" />
<glyph unicode="&#x221a;" horiz-adv-x="915" d="M23 643v105h286l146 -621l241 1491h135l-303 -1618h-153l-182 643h-170z" />
<glyph unicode="&#x221e;" horiz-adv-x="1415" d="M92 721q0 140 93 239t229 99q57 0 103.5 -16.5t81 -48t59 -66t49.5 -82.5q26 49 50 83t58.5 66t80.5 48t103 16q144 0 232 -98t88 -242q0 -141 -92.5 -239.5t-229.5 -98.5q-103 0 -169 53t-117 148q-48 -95 -116 -148t-181 -53q-127 0 -224.5 101t-97.5 239zM207 721 q0 -109 62.5 -168t144.5 -59q46 0 83.5 17t67.5 50.5t51.5 68.5t45.5 87q-25 53 -45.5 88.5t-50.5 70t-68 51.5t-84 17q-82 0 -144.5 -57t-62.5 -166zM758 709q49 -104 103 -159.5t138 -55.5q83 0 145 59t62 168t-61.5 166t-145.5 57q-47 0 -84.5 -17.5t-66 -53.5t-48 -72 t-42.5 -92z" />
<glyph unicode="&#x222b;" horiz-adv-x="614" d="M18 -299l33 98q68 -28 119 -28q56 0 88.5 39t28.5 108l-86 1536q-5 98 48.5 161.5t149.5 63.5q43 0 100 -12t99 -31l-35 -98q-67 29 -121 29q-55 0 -86 -39t-28 -107l84 -1538q6 -105 -47 -165t-150 -60q-102 0 -197 43z" />
<glyph unicode="&#x2248;" horiz-adv-x="884" d="M133 467q58 80 160 80q50 0 99.5 -21.5t96.5 -43t91 -21.5q73 0 110 37l62 -74q-66 -70 -168 -70q-56 0 -109 21.5t-98.5 43t-81.5 21.5q-66 0 -96 -47zM133 700q56 78 160 78q50 0 99.5 -21.5t96.5 -43t91 -21.5q71 0 110 39l62 -67q-65 -76 -168 -76q-56 0 -109 21.5 t-98.5 43t-81.5 21.5q-66 0 -96 -47z" />
<glyph unicode="&#x2260;" horiz-adv-x="956" d="M170 397v101h223l78 135h-301v100h356l136 238l69 -33l-117 -205h172v-100h-227l-78 -135h305v-101h-362l-133 -237l-70 30l117 207h-168z" />
<glyph unicode="&#x2264;" horiz-adv-x="921" d="M127 707v77l651 326v-135l-448 -227l448 -224v-139zM129 125v117h659v-117h-659z" />
<glyph unicode="&#x2265;" horiz-adv-x="921" d="M133 125v117h662v-117h-662zM143 385v139l451 224l-451 227v135l654 -326v-77z" />
<glyph unicode="&#x25ca;" horiz-adv-x="1036" d="M61 750l381 745h150l381 -745l-381 -750h-150zM205 768l327 -659l310 616l-328 659z" />
<glyph unicode="&#x25fc;" horiz-adv-x="1064" d="M0 0v1065h1065v-1065h-1065z" />
<glyph unicode="&#xfb00;" horiz-adv-x="1228" d="M59 831v111h148v90q0 104 42.5 196t122 150t175.5 58q132 0 217 -56q45 62 114.5 99t153.5 37q23 0 45.5 -2.5t40.5 -6t36.5 -9t31 -10t27.5 -12t21.5 -11t18.5 -10t13 -7.5l-62 -98q-76 49 -162 49q-61 0 -106 -26.5t-69.5 -71.5t-36 -95t-11.5 -106v-158h338v-111h-338 v-831h-139v831h-334v-831h-139v831h-148zM346 942h334v141q0 117 39 191q-57 43 -166 43q-55 0 -97.5 -27t-65 -71t-33.5 -90t-11 -93v-94z" />
<glyph unicode="&#xfb01;" horiz-adv-x="1064" d="M113 831v111h147v154q0 84 22.5 158t67 133.5t118.5 94t169 34.5q101 0 180.5 -30t128.5 -67l-76 -96q-77 70 -225 70q-63 0 -111.5 -24t-77 -65.5t-43 -93t-14.5 -110.5v-158h535v-942h-139v831h-396v-831h-139v831h-147z" />
<glyph unicode="&#xfb02;" horiz-adv-x="1193" d="M59 831v111h148v164q0 187 94.5 298.5t276.5 111.5q174 0 268 -88.5t94 -231.5v-956q0 -48 30 -87.5t83 -39.5q14 0 31.5 2.5t32.5 5.5t28 6t21 5l8 3l28 -115q-3 -3 -30 -10t-74.5 -14.5t-89.5 -7.5q-95 0 -151 55.5t-56 136.5v989q0 42 -11.5 79.5t-36.5 71t-70 53.5 t-105 20q-79 0 -133 -48t-76.5 -116.5t-22.5 -149.5v-137h225v-111h-225v-831h-139v831h-148z" />
<glyph unicode="&#xfb03;" horiz-adv-x="1503" d="M59 831v111h148v90q0 107 34 196.5t109 148.5t180 59q130 0 232 -54q105 134 293 134q164 0 311 -97l-66 -100q-34 31 -98.5 52.5t-136.5 21.5q-63 0 -112 -26t-77.5 -69t-42.5 -93.5t-14 -104.5v-158h533v-942h-140v831h-393v-831h-139v831h-334v-831h-139v831h-148z M346 942h334v141q0 117 39 191q-56 41 -166 41q-55 0 -97.5 -27t-65 -70t-33.5 -89t-11 -93v-94z" />
<glyph unicode="&#xfb04;" horiz-adv-x="1673" d="M59 831v111h148v105q0 171 89.5 280t246.5 109q117 0 219 -54q97 134 293 134q174 0 268 -88.5t94 -231.5v-956q0 -48 30 -87.5t83 -39.5q15 0 33 2.5t33 5.5t28 6t21 5l8 3l26 -115q-1 -3 -28.5 -10t-74.5 -14.5t-89 -7.5q-95 0 -152 55.5t-57 136.5v989 q0 42 -11.5 79.5t-36 71t-69.5 53.5t-104 20q-80 0 -134 -48t-76 -116.5t-22 -149.5v-137h224v-111h-224v-831h-139v831h-340v-831h-139v831h-148zM346 942h340v141q0 130 31 193q-53 39 -150 39q-109 0 -165 -77.5t-56 -186.5v-109z" />
<glyph horiz-adv-x="1200" d="M35 0l512 1122h106l508 -1122h-135l-156 338h-542l-154 -338h-139zM358 451h480l-238 512z" />
<glyph horiz-adv-x="1200" d="M35 0l512 1122h106l508 -1122h-135l-156 338h-542l-154 -338h-139zM358 451h480l-238 512zM569 1221l183 317h192l-293 -317h-82z" />
<glyph horiz-adv-x="1200" d="M35 0l512 1122h106l508 -1122h-135l-156 338h-542l-154 -338h-139zM350 1538h105q0 -63 42.5 -113.5t96.5 -50.5q52 0 92.5 48t48.5 116h103q0 -105 -71.5 -177.5t-172.5 -72.5q-103 0 -173.5 72t-70.5 178zM358 451h480l-238 512z" />
<glyph horiz-adv-x="1200" d="M35 0l512 1122h106l508 -1122h-135l-156 338h-542l-154 -338h-139zM260 1221l293 317h92l293 -317h-193l-145 235l-147 -235h-193zM358 451h480l-238 512z" />
<glyph horiz-adv-x="1200" d="M35 0l512 1122h106l508 -1122h-135l-156 338h-542l-154 -338h-139zM319 1395q0 38 27.5 65t65.5 27t65 -27t27 -65t-27 -65t-65 -27t-65.5 27t-27.5 65zM358 451h480l-238 512zM694 1395q0 38 27 65t65 27t65.5 -27t27.5 -65t-27.5 -65t-65.5 -27t-65 27t-27 65z" />
<glyph horiz-adv-x="1200" d="M35 0l512 1122h106l508 -1122h-135l-156 338h-542l-154 -338h-139zM248 1538h192l183 -317h-82zM358 451h480l-238 512z" />
<glyph horiz-adv-x="1200" d="M35 0l512 1122h106l508 -1122h-135l-156 338h-542l-154 -338h-139zM303 1358v96h592v-96h-592zM358 451h480l-238 512z" />
<glyph horiz-adv-x="1200" d="M35 0l512 1122h106l508 -1122h-135l-156 338h-542l-154 -338h-139zM358 451h480l-238 512zM903 -209q0 117 209 244l45 -35q-90 -57 -129 -101t-39 -89q0 -76 107 -91l-39 -77q-74 15 -114 54.5t-40 94.5z" />
<glyph horiz-adv-x="1200" d="M35 0l512 1122h106l508 -1122h-135l-156 338h-542l-154 -338h-139zM358 451h480l-238 512zM424 1382q0 70 49.5 113t126.5 43t125.5 -43t48.5 -113t-48.5 -112.5t-125.5 -42.5t-126.5 42.5t-49.5 112.5zM504 1382q0 -39 27.5 -65.5t68.5 -26.5q38 0 67 26.5t29 65.5 q0 41 -28 67t-68 26t-68 -26t-28 -67z" />
<glyph horiz-adv-x="1200" d="M35 0l512 1122h106l508 -1122h-135l-156 338h-542l-154 -338h-139zM274 1290q0 11 4.5 31t17.5 48.5t32.5 52.5t54.5 41.5t78 17.5q48 0 92.5 -21.5t86 -43t83.5 -21.5q30 0 53 10t34.5 23t18.5 28.5t9 24.5t2 14h86q0 -11 -4.5 -30t-18.5 -47.5t-35 -52.5t-58.5 -41 t-84.5 -17q-52 0 -99.5 20.5t-87.5 41t-75 20.5q-31 0 -53.5 -13.5t-32 -32.5t-13.5 -32.5t-4 -20.5h-86zM358 451h480l-238 512z" />
<glyph horiz-adv-x="1638" d="M68 0l723 1122h761v-114h-608v-383h522v-107h-522v-405h623v-113h-746v338h-393l-221 -338h-139zM481 451h332v507z" />
<glyph horiz-adv-x="1185" d="M172 0v1122h592q122 0 198 -87t76 -199q0 -86 -45.5 -157t-126.5 -104q104 -29 165 -106t61 -180q0 -125 -101 -207t-246 -82h-573zM299 111h446q89 0 153.5 60.5t64.5 139.5q0 81 -59.5 142t-145.5 61h-459v-403zM299 618h412q86 0 144 57.5t58 137.5q0 84 -54 139.5 t-138 55.5h-422v-390z" />
<glyph d="M90 569q0 103 39.5 201.5t111.5 179t184.5 129.5t246.5 49q158 0 275.5 -67t176.5 -178l-102 -66q-37 70 -98 115.5t-124.5 62.5t-133.5 17q-105 0 -192 -39.5t-141.5 -104t-84 -143.5t-29.5 -162q0 -90 34.5 -173.5t94 -146t144 -100t178.5 -37.5q111 0 213.5 51 t156.5 152l109 -59q-59 -119 -198.5 -189.5t-288.5 -70.5q-122 0 -230.5 50t-182 131.5t-116.5 186t-43 211.5z" />
<glyph d="M90 569q0 103 39.5 201.5t111.5 179t184.5 129.5t246.5 49q158 0 275.5 -67t176.5 -178l-102 -66q-37 70 -98 115.5t-124.5 62.5t-133.5 17q-105 0 -192 -39.5t-141.5 -104t-84 -143.5t-29.5 -162q0 -90 34.5 -173.5t94 -146t144 -100t178.5 -37.5q111 0 213.5 51 t156.5 152l109 -59q-59 -119 -198.5 -189.5t-288.5 -70.5q-122 0 -230.5 50t-182 131.5t-116.5 186t-43 211.5zM627 1221l182 317h192l-292 -317h-82z" />
<glyph d="M90 569q0 103 39.5 201.5t111.5 179t184.5 129.5t246.5 49q158 0 275.5 -67t176.5 -178l-102 -66q-37 70 -98 115.5t-124.5 62.5t-133.5 17q-105 0 -192 -39.5t-141.5 -104t-84 -143.5t-29.5 -162q0 -90 34.5 -173.5t94 -146t144 -100t178.5 -37.5q111 0 213.5 51 t156.5 152l109 -59q-59 -119 -198.5 -189.5t-288.5 -70.5q-122 0 -230.5 50t-182 131.5t-116.5 186t-43 211.5zM334 1538h192l148 -235l145 235h193l-293 -317h-92z" />
<glyph d="M90 569q0 103 39.5 201.5t111.5 179t184.5 129.5t246.5 49q158 0 275.5 -67t176.5 -178l-102 -66q-37 70 -98 115.5t-124.5 62.5t-133.5 17q-105 0 -192 -39.5t-141.5 -104t-84 -143.5t-29.5 -162q0 -90 34.5 -173.5t94 -146t144 -100t178.5 -37.5q111 0 213.5 51 t156.5 152l109 -59q-59 -119 -198.5 -189.5t-288.5 -70.5q-122 0 -230.5 50t-182 131.5t-116.5 186t-43 211.5zM446 -322l35 64q76 -37 181 -37q116 0 116 72q0 73 -102 73q-82 0 -164 -28l117 215l67 -27l-71 -114q30 12 77 12q72 0 114 -32.5t42 -92.5q0 -69 -54 -106 t-155 -37q-102 0 -203 38z" />
<glyph d="M90 569q0 103 39.5 201.5t111.5 179t184.5 129.5t246.5 49q158 0 275.5 -67t176.5 -178l-102 -66q-37 70 -98 115.5t-124.5 62.5t-133.5 17q-105 0 -192 -39.5t-141.5 -104t-84 -143.5t-29.5 -162q0 -90 34.5 -173.5t94 -146t144 -100t178.5 -37.5q111 0 213.5 51 t156.5 152l109 -59q-59 -119 -198.5 -189.5t-288.5 -70.5q-122 0 -230.5 50t-182 131.5t-116.5 186t-43 211.5zM334 1221l293 317h92l293 -317h-193l-145 235l-148 -235h-192z" />
<glyph d="M90 569q0 103 39.5 201.5t111.5 179t184.5 129.5t246.5 49q158 0 275.5 -67t176.5 -178l-102 -66q-37 70 -98 115.5t-124.5 62.5t-133.5 17q-105 0 -192 -39.5t-141.5 -104t-84 -143.5t-29.5 -162q0 -90 34.5 -173.5t94 -146t144 -100t178.5 -37.5q111 0 213.5 51 t156.5 152l109 -59q-59 -119 -198.5 -189.5t-288.5 -70.5q-122 0 -230.5 50t-182 131.5t-116.5 186t-43 211.5zM582 1403q0 38 27 65t65 27t65 -27t27 -65t-27 -65t-65 -27t-65 27t-27 65z" />
<glyph horiz-adv-x="1271" d="M172 0v1122h418q115 0 211 -28.5t165 -79.5t117 -121t71.5 -153.5t23.5 -176.5q0 -256 -160.5 -409.5t-427.5 -153.5h-418zM299 115h291q218 0 337.5 124.5t119.5 323.5q0 200 -121 322.5t-336 122.5h-291v-893z" />
<glyph horiz-adv-x="1271" d="M172 0v1122h418q115 0 211 -28.5t165 -79.5t117 -121t71.5 -153.5t23.5 -176.5q0 -256 -160.5 -409.5t-427.5 -153.5h-418zM197 1538h192l148 -235l145 235h192l-292 -317h-93zM299 115h291q218 0 337.5 124.5t119.5 323.5q0 200 -121 322.5t-336 122.5h-291v-893z" />
<glyph horiz-adv-x="1476" d="M45 498v112h584v-112h-584zM172 0v1122h418q115 0 211 -28.5t165 -79.5t117 -121t71.5 -153.5t23.5 -176.5q0 -256 -160.5 -409.5t-427.5 -153.5h-418zM299 115h291q218 0 337.5 124.5t119.5 323.5q0 200 -121 322.5t-336 122.5h-291v-893z" />
<glyph horiz-adv-x="1087" d="M172 0v1122h809v-114h-682v-383h596v-107h-596v-403h698v-115h-825z" />
<glyph horiz-adv-x="1087" d="M172 0v1122h809v-114h-682v-383h596v-107h-596v-403h698v-115h-825zM530 1221l183 317h192l-293 -317h-82z" />
<glyph horiz-adv-x="1087" d="M172 0v1122h809v-114h-682v-383h596v-107h-596v-403h698v-115h-825zM328 1538h104q0 -63 42.5 -113.5t96.5 -50.5q52 0 93 48t49 116h102q0 -105 -71.5 -177.5t-172.5 -72.5q-103 0 -173 72t-70 178z" />
<glyph horiz-adv-x="1087" d="M172 0v1122h809v-114h-682v-383h596v-107h-596v-403h698v-115h-825zM238 1538h192l148 -235l145 235h192l-292 -317h-93z" />
<glyph horiz-adv-x="1087" d="M172 0v1122h809v-114h-682v-383h596v-107h-596v-403h698v-115h-825zM238 1221l292 317h93l292 -317h-192l-145 235l-148 -235h-192z" />
<glyph horiz-adv-x="1087" d="M172 0v1122h809v-114h-682v-383h596v-107h-596v-403h698v-115h-825zM297 1395q0 38 27 65t65 27t65 -27t27 -65t-27 -65t-65 -27t-65 27t-27 65zM672 1395q0 38 27 65t65 27t65 -27t27 -65t-27 -65t-65 -27t-65 27t-27 65z" />
<glyph horiz-adv-x="1087" d="M172 0v1122h809v-114h-682v-383h596v-107h-596v-403h698v-115h-825zM485 1403q0 38 27.5 65t65.5 27t65 -27t27 -65t-27 -65t-65 -27t-65.5 27t-27.5 65z" />
<glyph horiz-adv-x="1087" d="M172 0v1122h809v-114h-682v-383h596v-107h-596v-403h698v-115h-825zM225 1538h193l182 -317h-82z" />
<glyph horiz-adv-x="1087" d="M172 0v1122h809v-114h-682v-383h596v-107h-596v-403h698v-115h-825zM281 1358v96h591v-96h-591z" />
<glyph horiz-adv-x="1087" d="M172 0v1122h809v-114h-682v-383h596v-107h-596v-403h698v-115h-825zM741 -209q0 117 209 244l45 -35q-90 -57 -129 -101t-39 -89q0 -76 107 -91l-39 -77q-74 15 -114 54.5t-40 94.5z" />
<glyph horiz-adv-x="1050" d="M172 0v1122h803v-114h-676v-390h573v-110h-573v-508h-127z" />
<glyph horiz-adv-x="1267" d="M90 565q0 149 72 277.5t202.5 207t290.5 78.5q171 0 287 -65t178 -178l-100 -68q-56 99 -151.5 148t-217.5 49q-127 0 -227.5 -65.5t-152.5 -168t-52 -219.5q0 -122 59 -225.5t163 -165t227 -61.5q208 0 376 180v168h-268v98h379v-555h-111v156q-167 -164 -385 -164 q-119 0 -226.5 49t-181.5 129t-117.5 183.5t-43.5 211.5z" />
<glyph horiz-adv-x="1267" d="M84 561q0 154 70 283t198 205.5t287 76.5q139 0 270 -68.5t199 -176.5l-94 -62q-50 84 -156.5 145.5t-224.5 61.5q-130 0 -231.5 -65.5t-154 -171.5t-52.5 -232q0 -125 53.5 -231t155 -171t229.5 -65q111 0 206.5 52t152.5 134t71 175h-332v98h447q0 -4 -1 -31.5 t-1 -32.5q-9 -98 -52 -187.5t-111.5 -157.5t-165.5 -108t-206 -40q-167 0 -295.5 78.5t-195 207t-66.5 283.5zM508 1221l182 317h193l-293 -317h-82z" />
<glyph horiz-adv-x="1267" d="M84 561q0 154 70 283t198 205.5t287 76.5q139 0 270 -68.5t199 -176.5l-94 -62q-50 84 -156.5 145.5t-224.5 61.5q-130 0 -231.5 -65.5t-154 -171.5t-52.5 -232q0 -125 53.5 -231t155 -171t229.5 -65q111 0 206.5 52t152.5 134t71 175h-332v98h447q0 -4 -1 -31.5 t-1 -32.5q-9 -98 -52 -187.5t-111.5 -157.5t-165.5 -108t-206 -40q-167 0 -295.5 78.5t-195 207t-66.5 283.5zM369 1538h104q0 -63 42.5 -113.5t96.5 -50.5q52 0 93 48t49 116h102q0 -105 -71.5 -177.5t-172.5 -72.5q-103 0 -173 72t-70 178z" />
<glyph horiz-adv-x="1267" d="M84 561q0 154 70 283t198 205.5t287 76.5q139 0 270 -68.5t199 -176.5l-94 -62q-50 84 -156.5 145.5t-224.5 61.5q-130 0 -231.5 -65.5t-154 -171.5t-52.5 -232q0 -125 53.5 -231t155 -171t229.5 -65q111 0 206.5 52t152.5 134t71 175h-332v98h447q0 -4 -1 -31.5 t-1 -32.5q-9 -98 -52 -187.5t-111.5 -157.5t-165.5 -108t-206 -40q-167 0 -295.5 78.5t-195 207t-66.5 283.5zM291 1221l293 317h92l293 -317h-193l-145 235l-148 -235h-192z" />
<glyph horiz-adv-x="1267" d="M84 561q0 154 70 283t198 205.5t287 76.5q139 0 270 -68.5t199 -176.5l-94 -62q-50 84 -156.5 145.5t-224.5 61.5q-130 0 -231.5 -65.5t-154 -171.5t-52.5 -232q0 -125 53.5 -231t155 -171t229.5 -65q111 0 206.5 52t152.5 134t71 175h-332v98h447q0 -4 -1 -31.5 t-1 -32.5q-9 -98 -52 -187.5t-111.5 -157.5t-165.5 -108t-206 -40q-167 0 -295.5 78.5t-195 207t-66.5 283.5zM504 -438h90l139 338h-131z" />
<glyph horiz-adv-x="1267" d="M84 561q0 154 70 283t198 205.5t287 76.5q139 0 270 -68.5t199 -176.5l-94 -62q-50 84 -156.5 145.5t-224.5 61.5q-130 0 -231.5 -65.5t-154 -171.5t-52.5 -232q0 -125 53.5 -231t155 -171t229.5 -65q111 0 206.5 52t152.5 134t71 175h-332v98h447q0 -4 -1 -31.5 t-1 -32.5q-9 -98 -52 -187.5t-111.5 -157.5t-165.5 -108t-206 -40q-167 0 -295.5 78.5t-195 207t-66.5 283.5zM524 1403q0 38 27 65t65 27t65.5 -27t27.5 -65t-27.5 -65t-65.5 -27t-65 27t-27 65z" />
<glyph horiz-adv-x="1304" d="M166 0v1122h129v-489h715v489h127v-1122h-127v516h-715v-516h-129z" />
<glyph horiz-adv-x="1304" d="M166 0v1122h129v-489h715v489h127v-1122h-127v516h-715v-516h-129zM303 1221l293 317h92l293 -317h-193l-145 235l-147 -235h-193z" />
<glyph horiz-adv-x="471" d="M172 0v1120h127v-1120h-127z" />
<glyph horiz-adv-x="471" d="M172 0v1120h127v-1120h-127zM186 1227l183 317h192l-293 -317h-82z" />
<glyph horiz-adv-x="471" d="M-106 1227l292 317h93l292 -317h-192l-146 235l-147 -235h-192zM172 0v1120h127v-1120h-127z" />
<glyph horiz-adv-x="471" d="M-47 1401q0 38 27 65t65 27t65 -27t27 -65t-27 -65t-65 -27t-65 27t-27 65zM172 0v1120h127v-1120h-127zM328 1401q0 38 27 65t65 27t65 -27t27 -65t-27 -65t-65 -27t-65 27t-27 65z" />
<glyph horiz-adv-x="471" d="M141 1409q0 38 27 65t65 27t65.5 -27t27.5 -65t-27.5 -65t-65.5 -27t-65 27t-27 65zM172 0v1120h127v-1120h-127z" />
<glyph horiz-adv-x="471" d="M-119 1544h193l182 -317h-82zM172 0v1120h127v-1120h-127z" />
<glyph horiz-adv-x="471" d="M-63 1364v96h591v-96h-591zM172 0v1120h127v-1120h-127z" />
<glyph horiz-adv-x="471" d="M43 -209q0 117 209 244l45 -35q-90 -57 -129 -101t-39 -89q0 -76 107 -91l-39 -77q-74 15 -114 54.5t-40 94.5zM172 0v1120h127v-1120h-127z" />
<glyph horiz-adv-x="471" d="M-92 1296q0 16 8 43t26.5 62.5t58.5 60.5t93 25q48 0 92.5 -21.5t86 -43t83.5 -21.5q30 0 53 10t34.5 23t18.5 28.5t9 24.5t2 14h86q0 -11 -4.5 -30t-18.5 -47.5t-35 -52.5t-58.5 -41t-84.5 -17q-52 0 -99.5 20.5t-87.5 41t-75 20.5q-31 0 -53.5 -13.5t-32 -33t-13 -32.5 t-3.5 -20h-86zM172 0v1120h127v-1120h-127z" />
<glyph horiz-adv-x="870" d="M88 184q40 -93 125.5 -150t187.5 -57q74 0 139 22.5t116.5 65.5t80.5 113.5t27 159.5v780h-111v-772q0 -134 -72 -199t-180 -65q-72 0 -130 41.5t-85 107.5z" />
<glyph horiz-adv-x="870" d="M88 184q40 -93 125.5 -150t187.5 -57q74 0 139 22.5t116.5 65.5t80.5 113.5t27 159.5v780h-111v-772q0 -134 -72 -199t-180 -65q-72 0 -130 41.5t-85 107.5zM362 1221l293 317h93l292 -317h-192l-146 235l-147 -235h-193z" />
<glyph horiz-adv-x="1150" d="M172 0v1120h127v-633l664 635h143l-500 -493l524 -629h-139l-463 553l-229 -209v-344h-127z" />
<glyph horiz-adv-x="1150" d="M172 0v1120h127v-633l664 635h143l-500 -493l524 -629h-139l-463 553l-229 -209v-344h-127zM401 -438h91l139 338h-131z" />
<glyph horiz-adv-x="1013" d="M172 0v1122h127v-1007h678v-115h-805z" />
<glyph horiz-adv-x="1013" d="M172 0v1122h127v-1007h678v-115h-805zM209 1221l182 317h193l-293 -317h-82z" />
<glyph horiz-adv-x="1013" d="M172 0v1122h127v-1007h678v-115h-805zM393 776l72 316h131l-109 -316h-94z" />
<glyph horiz-adv-x="1013" d="M172 0v1122h127v-1007h678v-115h-805zM416 -438h90l139 338h-131z" />
<glyph horiz-adv-x="1013" d="M172 0v1122h127v-1007h678v-115h-805zM502 618q0 42 30 72.5t72 30.5t72.5 -30.5t30.5 -72.5q0 -43 -30 -72.5t-73 -29.5t-72.5 29.5t-29.5 72.5z" />
<glyph horiz-adv-x="1013" d="M-4 414l557 460l55 -77l-553 -459zM172 0v1122h127v-1007h678v-115h-805z" />
<glyph horiz-adv-x="1550" d="M172 0v1122h133l471 -745l471 745h133v-1122h-129v891l-438 -686h-74l-440 686v-891h-127z" />
<glyph horiz-adv-x="1370" d="M172 0v1122h98l799 -899v897h129v-1120h-111l-788 883v-883h-127z" />
<glyph horiz-adv-x="1370" d="M172 0v1122h98l799 -899v897h129v-1120h-111l-788 883v-883h-127zM639 1221l182 317h193l-293 -317h-82z" />
<glyph horiz-adv-x="1370" d="M172 0v1122h98l799 -899v897h129v-1120h-111l-788 883v-883h-127zM346 1538h193l147 -235l145 235h193l-293 -317h-92z" />
<glyph horiz-adv-x="1370" d="M172 0v1122h98l799 -899v897h129v-1120h-111l-788 883v-883h-127zM535 -438h90l139 338h-131z" />
<glyph horiz-adv-x="1370" d="M172 0v1122h98l799 -899v897h129v-1120h-111l-788 883v-883h-127zM360 1290q0 11 4.5 31t17.5 48.5t32.5 52.5t54.5 41.5t78 17.5q48 0 92.5 -21.5t86 -43t83.5 -21.5q30 0 53 10t34.5 23t18.5 28.5t9 24.5t2 14h86q0 -11 -4.5 -30t-18.5 -47.5t-35 -52.5t-58.5 -41 t-84.5 -17q-52 0 -99.5 20.5t-87.5 41t-75 20.5q-31 0 -53.5 -13.5t-32 -32.5t-13.5 -32.5t-4 -20.5h-86z" />
<glyph horiz-adv-x="1329" d="M90 561q0 110 44 213.5t119.5 181.5t183.5 125t229 47q125 0 234 -49.5t182 -130t115 -182.5t42 -207q0 -149 -74 -278.5t-206.5 -209t-292.5 -79.5q-166 0 -300 82.5t-205 211.5t-71 275zM219 561q0 -118 55.5 -221t159 -167t232.5 -64q131 0 234.5 67t156.5 169.5 t53 215.5q0 118 -56 221t-159 166.5t-229 63.5q-99 0 -184.5 -39.5t-142 -103.5t-88.5 -144.5t-32 -163.5z" />
<glyph horiz-adv-x="1329" d="M90 561q0 110 44 213.5t119.5 181.5t183.5 125t229 47q125 0 234 -49.5t182 -130t115 -182.5t42 -207q0 -149 -74 -278.5t-206.5 -209t-292.5 -79.5q-166 0 -300 82.5t-205 211.5t-71 275zM219 561q0 -118 55.5 -221t159 -167t232.5 -64q131 0 234.5 67t156.5 169.5 t53 215.5q0 118 -56 221t-159 166.5t-229 63.5q-99 0 -184.5 -39.5t-142 -103.5t-88.5 -144.5t-32 -163.5zM618 1221l183 317h192l-293 -317h-82z" />
<glyph horiz-adv-x="1329" d="M90 561q0 110 44 213.5t119.5 181.5t183.5 125t229 47q125 0 234 -49.5t182 -130t115 -182.5t42 -207q0 -149 -74 -278.5t-206.5 -209t-292.5 -79.5q-166 0 -300 82.5t-205 211.5t-71 275zM219 561q0 -118 55.5 -221t159 -167t232.5 -64q131 0 234.5 67t156.5 169.5 t53 215.5q0 118 -56 221t-159 166.5t-229 63.5q-99 0 -184.5 -39.5t-142 -103.5t-88.5 -144.5t-32 -163.5zM416 1538h104q0 -63 42.5 -113.5t96.5 -50.5q52 0 93 48t49 116h102q0 -105 -71.5 -177.5t-172.5 -72.5q-103 0 -173 72t-70 178z" />
<glyph horiz-adv-x="1329" d="M90 561q0 110 44 213.5t119.5 181.5t183.5 125t229 47q125 0 234 -49.5t182 -130t115 -182.5t42 -207q0 -149 -74 -278.5t-206.5 -209t-292.5 -79.5q-166 0 -300 82.5t-205 211.5t-71 275zM219 561q0 -118 55.5 -221t159 -167t232.5 -64q131 0 234.5 67t156.5 169.5 t53 215.5q0 118 -56 221t-159 166.5t-229 63.5q-99 0 -184.5 -39.5t-142 -103.5t-88.5 -144.5t-32 -163.5zM326 1221l292 317h93l293 -317h-193l-145 235l-148 -235h-192z" />
<glyph horiz-adv-x="1329" d="M90 561q0 110 44 213.5t119.5 181.5t183.5 125t229 47q125 0 234 -49.5t182 -130t115 -182.5t42 -207q0 -149 -74 -278.5t-206.5 -209t-292.5 -79.5q-166 0 -300 82.5t-205 211.5t-71 275zM219 561q0 -118 55.5 -221t159 -167t232.5 -64q131 0 234.5 67t156.5 169.5 t53 215.5q0 118 -56 221t-159 166.5t-229 63.5q-99 0 -184.5 -39.5t-142 -103.5t-88.5 -144.5t-32 -163.5zM385 1395q0 38 27 65t65 27t65 -27t27 -65t-27 -65t-65 -27t-65 27t-27 65zM760 1395q0 38 27 65t65 27t65 -27t27 -65t-27 -65t-65 -27t-65 27t-27 65z" />
<glyph horiz-adv-x="1329" d="M90 561q0 110 44 213.5t119.5 181.5t183.5 125t229 47q125 0 234 -49.5t182 -130t115 -182.5t42 -207q0 -149 -74 -278.5t-206.5 -209t-292.5 -79.5q-166 0 -300 82.5t-205 211.5t-71 275zM219 561q0 -118 55.5 -221t159 -167t232.5 -64q131 0 234.5 67t156.5 169.5 t53 215.5q0 118 -56 221t-159 166.5t-229 63.5q-99 0 -184.5 -39.5t-142 -103.5t-88.5 -144.5t-32 -163.5zM313 1538h193l182 -317h-82z" />
<glyph horiz-adv-x="1329" d="M90 561q0 110 44 213.5t119.5 181.5t183.5 125t229 47q125 0 234 -49.5t182 -130t115 -182.5t42 -207q0 -149 -74 -278.5t-206.5 -209t-292.5 -79.5q-166 0 -300 82.5t-205 211.5t-71 275zM219 561q0 -118 55.5 -221t159 -167t232.5 -64q131 0 234.5 67t156.5 169.5 t53 215.5q0 118 -56 221t-159 166.5t-229 63.5q-99 0 -184.5 -39.5t-142 -103.5t-88.5 -144.5t-32 -163.5zM422 1221l182 317h193l-293 -317h-82zM727 1221l182 317h193l-293 -317h-82z" />
<glyph horiz-adv-x="1329" d="M90 561q0 110 44 213.5t119.5 181.5t183.5 125t229 47q125 0 234 -49.5t182 -130t115 -182.5t42 -207q0 -149 -74 -278.5t-206.5 -209t-292.5 -79.5q-166 0 -300 82.5t-205 211.5t-71 275zM219 561q0 -118 55.5 -221t159 -167t232.5 -64q131 0 234.5 67t156.5 169.5 t53 215.5q0 118 -56 221t-159 166.5t-229 63.5q-99 0 -184.5 -39.5t-142 -103.5t-88.5 -144.5t-32 -163.5zM369 1358v96h592v-96h-592z" />
<glyph horiz-adv-x="1329" d="M90 561q0 110 44 213.5t119.5 181.5t183.5 125t229 47q125 0 234 -49.5t182 -130t115 -182.5t42 -207q0 -149 -74 -278.5t-206.5 -209t-292.5 -79.5q-166 0 -300 82.5t-205 211.5t-71 275zM219 561q0 -118 55.5 -221t159 -167t232.5 -64q131 0 234.5 67t156.5 169.5 t53 215.5q0 118 -56 221t-159 166.5t-229 63.5q-99 0 -184.5 -39.5t-142 -103.5t-88.5 -144.5t-32 -163.5zM227 -20l709 1163h137l-708 -1163h-138z" />
<glyph horiz-adv-x="1329" d="M90 561q0 110 44 213.5t119.5 181.5t183.5 125t229 47q125 0 234 -49.5t182 -130t115 -182.5t42 -207q0 -149 -74 -278.5t-206.5 -209t-292.5 -79.5q-166 0 -300 82.5t-205 211.5t-71 275zM219 561q0 -118 55.5 -221t159 -167t232.5 -64q131 0 234.5 67t156.5 169.5 t53 215.5q0 118 -56 221t-159 166.5t-229 63.5q-99 0 -184.5 -39.5t-142 -103.5t-88.5 -144.5t-32 -163.5zM340 1290q0 16 8 43t26.5 62.5t58.5 60.5t93 25q48 0 92.5 -21.5t86 -43t83.5 -21.5q30 0 53 10t34.5 23t18.5 28.5t9 24.5t2 14h86q0 -15 -8.5 -41.5t-28.5 -61.5 t-62.5 -60t-100.5 -25q-52 0 -99.5 20.5t-88 41t-75.5 20.5q-31 0 -53.5 -13.5t-32 -33t-13 -32.5t-3.5 -20h-86z" />
<glyph horiz-adv-x="1112" d="M172 0v1122h506q103 0 189 -53t131.5 -134t45.5 -169q0 -93 -43 -174t-125.5 -132.5t-185.5 -51.5h-391v-408h-127zM299 522h385q103 0 167 70.5t64 173.5q0 100 -71.5 171t-171.5 71h-373v-486z" />
<glyph horiz-adv-x="1327" d="M90 561q0 110 44 213.5t119.5 181.5t183.5 125t229 47q125 0 234 -49.5t182 -130t115 -182.5t42 -207q0 -112 -44.5 -216t-123.5 -183l115 -127l-78 -53l-109 118q-148 -106 -333 -106q-166 0 -300 82.5t-205 211.5t-71 275zM219 561q0 -118 55.5 -221t159 -167 t232.5 -64q141 0 254 79l-154 170l78 56l145 -164q121 133 121 311q0 118 -56 221.5t-159 167.5t-229 64q-79 0 -150.5 -26t-124.5 -70t-92.5 -102t-59.5 -123.5t-20 -131.5z" />
<glyph horiz-adv-x="1167" d="M172 0v1122h518q154 0 260.5 -110t106.5 -246q0 -120 -75.5 -215t-195.5 -119l299 -432h-147l-283 408h-356v-408h-127zM299 522h395q101 0 166.5 72t65.5 172q0 98 -72 170t-172 72h-383v-486z" />
<glyph horiz-adv-x="1167" d="M172 0v1122h518q154 0 260.5 -110t106.5 -246q0 -120 -75.5 -215t-195.5 -119l299 -432h-147l-283 408h-356v-408h-127zM299 522h395q101 0 166.5 72t65.5 172q0 98 -72 170t-172 72h-383v-486zM483 1221l183 317h192l-293 -317h-82z" />
<glyph horiz-adv-x="1167" d="M172 0v1122h518q154 0 260.5 -110t106.5 -246q0 -120 -75.5 -215t-195.5 -119l299 -432h-147l-283 408h-356v-408h-127zM190 1538h193l147 -235l146 235h192l-293 -317h-92zM299 522h395q101 0 166.5 72t65.5 172q0 98 -72 170t-172 72h-383v-486z" />
<glyph horiz-adv-x="1075" d="M74 150l63 106q72 -69 183.5 -111.5t244.5 -42.5q139 0 218 47t79 136q0 39 -15.5 69t-42.5 52t-74.5 40.5t-99.5 32t-130 29.5q-101 21 -167 43.5t-117 56.5t-74 82.5t-23 116.5q0 153 119.5 237t312.5 84q237 0 387 -129l-59 -102q-119 119 -330 119q-299 0 -299 -197 q0 -37 13.5 -64.5t37 -47t68 -36.5t92 -29t123.5 -28q70 -15 119.5 -28t100 -32t83 -41.5t59 -53t39 -70.5t12.5 -90q0 -154 -119 -231.5t-317 -77.5q-279 0 -487 160z" />
<glyph horiz-adv-x="1075" d="M74 150l63 106q72 -69 183.5 -111.5t244.5 -42.5q139 0 218 47t79 136q0 39 -15.5 69t-42.5 52t-74.5 40.5t-99.5 32t-130 29.5q-101 21 -167 43.5t-117 56.5t-74 82.5t-23 116.5q0 153 119.5 237t312.5 84q237 0 387 -129l-59 -102q-119 119 -330 119q-299 0 -299 -197 q0 -37 13.5 -64.5t37 -47t68 -36.5t92 -29t123.5 -28q70 -15 119.5 -28t100 -32t83 -41.5t59 -53t39 -70.5t12.5 -90q0 -154 -119 -231.5t-317 -77.5q-279 0 -487 160zM492 1221l182 317h192l-293 -317h-81z" />
<glyph horiz-adv-x="1075" d="M74 150l63 106q72 -69 183.5 -111.5t244.5 -42.5q139 0 218 47t79 136q0 39 -15.5 69t-42.5 52t-74.5 40.5t-99.5 32t-130 29.5q-101 21 -167 43.5t-117 56.5t-74 82.5t-23 116.5q0 153 119.5 237t312.5 84q237 0 387 -129l-59 -102q-119 119 -330 119q-299 0 -299 -197 q0 -37 13.5 -64.5t37 -47t68 -36.5t92 -29t123.5 -28q70 -15 119.5 -28t100 -32t83 -41.5t59 -53t39 -70.5t12.5 -90q0 -154 -119 -231.5t-317 -77.5q-279 0 -487 160zM199 1538h192l148 -235l145 235h193l-293 -317h-92z" />
<glyph horiz-adv-x="1075" d="M74 150l63 106q72 -69 183.5 -111.5t244.5 -42.5q139 0 218 47t79 136q0 39 -15.5 69t-42.5 52t-74.5 40.5t-99.5 32t-130 29.5q-101 21 -167 43.5t-117 56.5t-74 82.5t-23 116.5q0 153 119.5 237t312.5 84q237 0 387 -129l-59 -102q-119 119 -330 119q-299 0 -299 -197 q0 -37 13.5 -64.5t37 -47t68 -36.5t92 -29t123.5 -28q70 -15 119.5 -28t100 -32t83 -41.5t59 -53t39 -70.5t12.5 -90q0 -154 -119 -231.5t-317 -77.5q-279 0 -487 160zM199 1221l293 317h92l293 -317h-193l-145 235l-148 -235h-192z" />
<glyph horiz-adv-x="1087" d="M45 1008v114h995v-114h-432v-1008h-127v1008h-436z" />
<glyph horiz-adv-x="1087" d="M45 1008v114h995v-114h-432v-1008h-127v1008h-436zM203 1538h192l148 -235l145 235h193l-293 -317h-92z" />
<glyph horiz-adv-x="1335" d="M154 555v567h127v-567q0 -90 19.5 -166t62.5 -141t120 -102t183 -37q88 0 156.5 25.5t111 67.5t70 101t38.5 120.5t11 131.5v567h127v-567q0 -94 -17 -175.5t-55.5 -153.5t-97 -123.5t-145.5 -81t-197 -29.5q-112 0 -201 31.5t-146.5 84t-96 125.5t-54.5 152.5t-16 169.5 z" />
<glyph horiz-adv-x="1335" d="M154 555v567h127v-567q0 -90 19.5 -166t62.5 -141t120 -102t183 -37q88 0 156.5 25.5t111 67.5t70 101t38.5 120.5t11 131.5v567h127v-567q0 -94 -17 -175.5t-55.5 -153.5t-97 -123.5t-145.5 -81t-197 -29.5q-112 0 -201 31.5t-146.5 84t-96 125.5t-54.5 152.5t-16 169.5 zM621 1221l182 317h192l-293 -317h-81z" />
<glyph horiz-adv-x="1335" d="M154 555v567h127v-567q0 -90 19.5 -166t62.5 -141t120 -102t183 -37q88 0 156.5 25.5t111 67.5t70 101t38.5 120.5t11 131.5v567h127v-567q0 -94 -17 -175.5t-55.5 -153.5t-97 -123.5t-145.5 -81t-197 -29.5q-112 0 -201 31.5t-146.5 84t-96 125.5t-54.5 152.5t-16 169.5 zM418 1538h104q0 -63 43 -113.5t97 -50.5q52 0 92.5 48t48.5 116h102q0 -105 -71.5 -177.5t-171.5 -72.5q-103 0 -173.5 72t-70.5 178z" />
<glyph horiz-adv-x="1335" d="M154 555v567h127v-567q0 -90 19.5 -166t62.5 -141t120 -102t183 -37q88 0 156.5 25.5t111 67.5t70 101t38.5 120.5t11 131.5v567h127v-567q0 -94 -17 -175.5t-55.5 -153.5t-97 -123.5t-145.5 -81t-197 -29.5q-112 0 -201 31.5t-146.5 84t-96 125.5t-54.5 152.5t-16 169.5 zM328 1221l293 317h92l293 -317h-193l-145 235l-148 -235h-192z" />
<glyph horiz-adv-x="1335" d="M154 555v567h127v-567q0 -90 19.5 -166t62.5 -141t120 -102t183 -37q88 0 156.5 25.5t111 67.5t70 101t38.5 120.5t11 131.5v567h127v-567q0 -94 -17 -175.5t-55.5 -153.5t-97 -123.5t-145.5 -81t-197 -29.5q-112 0 -201 31.5t-146.5 84t-96 125.5t-54.5 152.5t-16 169.5 zM387 1395q0 38 27 65t65 27t65 -27t27 -65t-27 -65t-65 -27t-65 27t-27 65zM762 1395q0 38 27 65t65 27t65 -27t27 -65t-27 -65t-65 -27t-65 27t-27 65z" />
<glyph horiz-adv-x="1335" d="M154 555v567h127v-567q0 -90 19.5 -166t62.5 -141t120 -102t183 -37q88 0 156.5 25.5t111 67.5t70 101t38.5 120.5t11 131.5v567h127v-567q0 -94 -17 -175.5t-55.5 -153.5t-97 -123.5t-145.5 -81t-197 -29.5q-112 0 -201 31.5t-146.5 84t-96 125.5t-54.5 152.5t-16 169.5 zM315 1538h193l182 -317h-82z" />
<glyph horiz-adv-x="1335" d="M154 555v567h127v-567q0 -90 19.5 -166t62.5 -141t120 -102t183 -37q88 0 156.5 25.5t111 67.5t70 101t38.5 120.5t11 131.5v567h127v-567q0 -94 -17 -175.5t-55.5 -153.5t-97 -123.5t-145.5 -81t-197 -29.5q-112 0 -201 31.5t-146.5 84t-96 125.5t-54.5 152.5t-16 169.5 zM367 1221l182 317h192l-292 -317h-82zM672 1221l182 317h193l-293 -317h-82z" />
<glyph horiz-adv-x="1335" d="M154 555v567h127v-567q0 -90 19.5 -166t62.5 -141t120 -102t183 -37q88 0 156.5 25.5t111 67.5t70 101t38.5 120.5t11 131.5v567h127v-567q0 -94 -17 -175.5t-55.5 -153.5t-97 -123.5t-145.5 -81t-197 -29.5q-112 0 -201 31.5t-146.5 84t-96 125.5t-54.5 152.5t-16 169.5 zM371 1358v96h592v-96h-592z" />
<glyph horiz-adv-x="1335" d="M154 555v567h127v-567q0 -90 19.5 -166t62.5 -141t120 -102t183 -37q88 0 156.5 25.5t111 67.5t70 101t38.5 120.5t11 131.5v567h127v-567q0 -94 -17 -175.5t-55.5 -153.5t-97 -123.5t-145.5 -81t-197 -29.5q-112 0 -201 31.5t-146.5 84t-96 125.5t-54.5 152.5t-16 169.5 zM514 -209q0 117 209 244l45 -35q-90 -57 -129 -101t-39 -89q0 -76 107 -91l-39 -77q-74 15 -114 54.5t-40 94.5z" />
<glyph horiz-adv-x="1335" d="M154 555v567h127v-567q0 -90 19.5 -166t62.5 -141t120 -102t183 -37q88 0 156.5 25.5t111 67.5t70 101t38.5 120.5t11 131.5v567h127v-567q0 -94 -17 -175.5t-55.5 -153.5t-97 -123.5t-145.5 -81t-197 -29.5q-112 0 -201 31.5t-146.5 84t-96 125.5t-54.5 152.5t-16 169.5 zM492 1382q0 70 49.5 113t126.5 43t125.5 -43t48.5 -113t-48.5 -112.5t-125.5 -42.5t-126.5 42.5t-49.5 112.5zM571 1382q0 -38 28 -65t69 -27q38 0 67 26.5t29 65.5q0 41 -28 67t-68 26q-41 0 -69 -26t-28 -67z" />
<glyph horiz-adv-x="1335" d="M154 555v567h127v-567q0 -90 19.5 -166t62.5 -141t120 -102t183 -37q88 0 156.5 25.5t111 67.5t70 101t38.5 120.5t11 131.5v567h127v-567q0 -94 -17 -175.5t-55.5 -153.5t-97 -123.5t-145.5 -81t-197 -29.5q-112 0 -201 31.5t-146.5 84t-96 125.5t-54.5 152.5t-16 169.5 zM342 1290q0 16 8 43t26.5 62.5t58.5 60.5t93 25q48 0 92.5 -21.5t86.5 -43t84 -21.5q30 0 52.5 10t34 23t19 28.5t9 24.5t1.5 14h86q0 -15 -8.5 -41.5t-28.5 -61.5t-62.5 -60t-100.5 -25q-52 0 -99.5 20.5t-88 41t-75.5 20.5q-31 0 -53.5 -13.5t-32 -33t-13 -32.5t-3.5 -20 h-86z" />
<glyph horiz-adv-x="1204" d="M37 1122h135l432 -944l428 944h135l-510 -1122h-110z" />
<glyph horiz-adv-x="1843" d="M37 1122h139l442 -966l222 473l-211 485h121l170 -393l172 393h120l-215 -485l228 -473l440 966h141l-518 -1122h-112l-254 541l-254 -541h-115z" />
<glyph horiz-adv-x="1843" d="M74 1122h151l324 -940l299 940h139l299 -940l324 940h153l-395 -1122h-154l-294 899l-299 -899h-154zM553 1221l293 317h92l293 -317h-193l-145 235l-148 -235h-192z" />
<glyph horiz-adv-x="1132" d="M27 1122h143l395 -477l396 477h143l-469 -569l455 -553h-142l-383 461l-381 -461h-143l455 553z" />
<glyph horiz-adv-x="1150" d="M41 1122h139l395 -594l398 594h141l-475 -708v-414h-129v416z" />
<glyph horiz-adv-x="1150" d="M41 1122h139l395 -594l398 594h141l-475 -708v-414h-129v416zM528 1221l183 317h192l-293 -317h-82z" />
<glyph horiz-adv-x="1150" d="M41 1122h139l395 -594l398 594h141l-475 -708v-414h-129v416zM236 1221l292 317h93l292 -317h-192l-146 235l-147 -235h-192z" />
<glyph horiz-adv-x="1150" d="M41 1122h139l395 -594l398 594h141l-475 -708v-414h-129v416zM295 1395q0 38 27 65t65 27t65 -27t27 -65t-27 -65t-65 -27t-65 27t-27 65zM670 1395q0 38 27 65t65 27t65 -27t27 -65t-27 -65t-65 -27t-65 27t-27 65z" />
<glyph horiz-adv-x="1130" d="M76 0v100l821 908h-809v114h961v-102l-813 -905h811v-115h-971z" />
<glyph horiz-adv-x="1130" d="M76 0v100l821 908h-809v114h961v-102l-813 -905h811v-115h-971zM518 1221l182 317h193l-293 -317h-82z" />
<glyph horiz-adv-x="1130" d="M76 0v100l821 908h-809v114h961v-102l-813 -905h811v-115h-971zM225 1538h193l147 -235l146 235h192l-293 -317h-92z" />
</font>
</defs>
</svg>
