<?xml version="1.0" standalone="no"?>
<!DOCTYPE svg PUBLIC "-//W3C//DTD SVG 1.1//EN" "http://www.w3.org/Graphics/SVG/1.1/DTD/svg11.dtd" >
<svg xmlns="http://www.w3.org/2000/svg" xmlns:xlink="http://www.w3.org/1999/xlink" version="1.1">
<metadata></metadata>
<defs>
<font id="raleway_prezibold" horiz-adv-x="522" >
<font-face units-per-em="2048" ascent="1638" descent="-410" />
<missing-glyph horiz-adv-x="491" />
<glyph horiz-adv-x="0" />
<glyph horiz-adv-x="682" />
<glyph horiz-adv-x="0" />
<glyph horiz-adv-x="0" />
<glyph unicode="&#xd;" horiz-adv-x="0" />
<glyph unicode=" "  horiz-adv-x="491" />
<glyph unicode="&#x09;" horiz-adv-x="491" />
<glyph unicode="&#xa0;" horiz-adv-x="491" />
<glyph unicode="!" horiz-adv-x="628" d="M150 147q0 64 49 113t114 49t115.5 -49t50.5 -113q0 -65 -50.5 -114t-115.5 -49t-114 49t-49 114zM178 547v921h275v-921h-275z" />
<glyph unicode="&#x22;" horiz-adv-x="804" d="M125 981v500h233v-500h-233zM446 981v500h234v-500h-234z" />
<glyph unicode="#" horiz-adv-x="1476" d="M76 383v205h278l68 280h-250v193h297l96 393h221l-98 -393h246l94 393h221l-96 -393h250v-193h-299l-66 -280h269v-205h-318l-94 -383h-221l96 383h-246l-92 -383h-221l94 383h-229zM573 588h246l66 280h-244z" />
<glyph unicode="$" horiz-adv-x="1298" d="M70 172l125 244q42 -44 164.5 -101.5t254.5 -72.5v352q-42 10 -73 20q-109 31 -182 63.5t-127 78.5t-78.5 107.5t-24.5 144.5q0 199 130.5 317.5t336.5 134.5v209h123v-207q242 -19 448 -159l-125 -230q-34 36 -135 82t-207 57v-354l52 -12q93 -24 159.5 -47.5t128 -59 t98.5 -79t59 -105t22 -139.5q0 -108 -40 -191t-110.5 -133t-158 -76t-191.5 -30v-226h-123v228q-143 11 -280.5 58.5t-245.5 125.5zM420 1053q0 -66 45.5 -102.5t148.5 -67.5v331q-96 -6 -145 -47t-49 -114zM700 238q106 3 162 41t56 108q0 65 -53.5 105t-164.5 75v-329z " />
<glyph unicode="%" horiz-adv-x="1609" d="M72 1165q0 129 98.5 219.5t239.5 90.5t239.5 -90.5t98.5 -219.5q0 -130 -98.5 -220.5t-239.5 -90.5t-239.5 90.5t-98.5 220.5zM186 96l578 674l532 700l125 -110l-559 -662l-551 -712zM264 1165q0 -72 43 -123t103 -51t102.5 51.5t42.5 122.5q0 70 -43 121t-102 51 q-60 0 -103 -51.5t-43 -120.5zM862 289q0 130 98.5 220.5t239.5 90.5q142 0 240 -90t98 -221q0 -129 -98 -219t-240 -90q-141 0 -239.5 90t-98.5 219zM1055 289q0 -70 43 -121t102 -51q60 0 103 51.5t43 120.5q0 71 -43.5 122.5t-102.5 51.5q-60 0 -102.5 -51.5 t-42.5 -122.5z" />
<glyph unicode="&#x26;" horiz-adv-x="1458" d="M82 412q0 124 69 218.5t187 176.5q-88 99 -124 169.5t-36 147.5q0 155 114 252t286 97q103 0 189.5 -35t142 -110t55.5 -177q0 -111 -64.5 -200.5t-183.5 -174.5l278 -291q66 142 66 312h223q-3 -277 -127 -482l301 -315h-360l-115 121q-182 -141 -410 -141 q-219 0 -355 126.5t-136 305.5zM346 410q0 -89 72.5 -152t181.5 -63q126 0 236 84l-336 354q-76 -55 -115 -108t-39 -115zM428 1133q0 -35 24.5 -70.5t100.5 -116.5q82 57 121 102.5t39 98.5q0 55 -38 89t-97 34q-65 0 -107.5 -39.5t-42.5 -97.5z" />
<glyph unicode="'" horiz-adv-x="481" d="M125 981v500h233v-500h-233z" />
<glyph unicode="(" horiz-adv-x="634" d="M70 711q0 190 78.5 389t226.5 450l209 -88q-36 -55 -77 -136t-83.5 -184t-70 -220.5t-27.5 -216.5q0 -281 252 -713l-201 -101q-307 459 -307 820z" />
<glyph unicode=")" horiz-adv-x="632" d="M49 1462l211 88q147 -249 225 -448.5t78 -390.5q0 -361 -307 -820l-201 101q252 423 252 713q0 99 -27.5 216.5t-70 220.5t-83.5 184t-77 136z" />
<glyph unicode="*" horiz-adv-x="706" d="M104 1255l37 119l150 -63l-10 157h145l-10 -157l147 63l37 -119l-143 -45l96 -145l-107 -70l-92 154l-94 -154l-106 70l96 145z" />
<glyph unicode="+" horiz-adv-x="862" d="M96 616v222h211v231h248v-231h211v-222h-211v-231h-248v231h-211z" />
<glyph unicode="," horiz-adv-x="475" d="M16 -287h197l197 482h-256z" />
<glyph unicode="-" horiz-adv-x="856" d="M119 438v248h620v-248h-620z" />
<glyph unicode="." horiz-adv-x="493" d="M76 156q0 69 52.5 121.5t121.5 52.5q68 0 121 -52.5t53 -121.5t-53 -121.5t-121 -52.5q-69 0 -121.5 53t-52.5 121z" />
<glyph unicode="/" horiz-adv-x="921" d="M12 0l654 1526l256 -90l-652 -1530z" />
<glyph unicode="0" horiz-adv-x="1257" d="M100 600q0 133 40.5 249t110.5 198t168 129t210 47q150 0 270.5 -80t189 -223t68.5 -320t-68.5 -319t-189 -221.5t-270.5 -79.5t-271 79.5t-189.5 221.5t-68.5 319zM375 600q0 -165 70 -267t184 -102q111 0 181.5 102.5t70.5 266.5t-70.5 267.5t-181.5 103.5 q-114 0 -184 -103t-70 -268z" />
<glyph unicode="1" horiz-adv-x="1011" d="M90 719v256q69 0 189.5 76.5t142.5 117.5h280v-921h261v-248h-832v248h291v620q-38 -49 -147 -99t-185 -50z" />
<glyph unicode="2" horiz-adv-x="1155" d="M78 0q0 191 68 310.5t253 221.5q36 20 88.5 48t78.5 42t61 35t51.5 34.5t34 32.5t24 37t6.5 40q0 64 -50.5 106.5t-139.5 42.5q-154 0 -287 -157l-176 202q69 72 207.5 133.5t304.5 61.5q206 0 323 -95.5t117 -252.5q0 -55 -18.5 -105t-43.5 -84t-67 -69t-71.5 -54 t-75.5 -45q-50 -27 -85.5 -48.5t-88 -55.5t-91 -68t-57.5 -65h621v-248h-987z" />
<glyph unicode="3" horiz-adv-x="1142" d="M57 -104l156 194q110 -141 311 -141q256 0 256 201q0 107 -76.5 164t-228.5 57h-57v204h63q124 0 195.5 56t71.5 145q0 81 -56 123.5t-151 42.5q-93 0 -168 -42.5t-123 -121.5l-172 193q63 94 198.5 151.5t294.5 57.5q209 0 339 -100t130 -263q0 -123 -72 -218t-188 -116 q128 -22 206.5 -122t78.5 -242q0 -192 -144.5 -306t-388.5 -114q-311 0 -475 197z" />
<glyph unicode="4" horiz-adv-x="1169" d="M41 45v244l686 880h186v-878h181v-246h-181v-305h-274v305h-598zM315 291h355v463z" />
<glyph unicode="5" horiz-adv-x="1134" d="M59 -53l158 164q57 -80 143.5 -127t178.5 -47q111 0 181.5 67.5t70.5 175.5q0 105 -67 171.5t-169 66.5q-68 0 -126 -30.5t-93 -84.5h-240l168 866h717v-249h-518l-60 -326q56 59 191 59q207 0 342 -130.5t135 -336.5q0 -218 -151 -354.5t-383 -136.5q-158 0 -285 67.5 t-193 184.5z" />
<glyph unicode="6" horiz-adv-x="1243" d="M94 647q0 392 150 604.5t413 212.5q137 0 253.5 -59.5t195.5 -169.5l-158 -172q-50 77 -128 120.5t-167 43.5q-137 0 -219 -110.5t-86 -305.5q43 75 123.5 117.5t181.5 42.5q141 0 258 -64t183.5 -175.5t66.5 -246.5q0 -140 -69.5 -255.5t-192 -182.5t-270.5 -67 q-249 0 -392 177t-143 490zM362 485q0 -110 80 -192t189 -82q108 0 188 81t80 193q0 110 -79.5 188.5t-188.5 78.5q-112 0 -190.5 -78t-78.5 -189z" />
<glyph unicode="7" horiz-adv-x="1148" d="M57 944v250h1094l-721 -1454h-311l600 1204h-662z" />
<glyph unicode="8" horiz-adv-x="1236" d="M90 440q0 113 67.5 201.5t159.5 136.5q-78 38 -130 113t-52 160q0 93 44 171.5t115 128t155 76.5t169 27q67 0 135 -16t131.5 -50t112 -80.5t78 -112.5t29.5 -142q0 -86 -54.5 -162.5t-134.5 -112.5q99 -49 165.5 -139.5t66.5 -208.5q0 -131 -72.5 -234.5t-193 -158.5 t-265.5 -55q-221 0 -373.5 130t-152.5 328zM369 446q0 -95 75.5 -156t173.5 -61q99 0 174.5 62.5t75.5 154.5q0 98 -75.5 158t-176.5 60t-174 -61t-73 -157zM414 1042q0 -80 62.5 -126t141.5 -46q78 0 141.5 47.5t63.5 126.5q0 73 -60 119.5t-147 46.5q-85 0 -143.5 -47 t-58.5 -121z" />
<glyph unicode="9" horiz-adv-x="1206" d="M66 664q0 213 152.5 359t377.5 146q249 0 393 -177t144 -490q0 -392 -151 -604.5t-413 -212.5q-137 0 -254 59.5t-196 169.5l157 172q50 -77 128.5 -120.5t168.5 -43.5q137 0 219 110.5t85 305.5q-42 -74 -123 -117t-183 -43q-215 0 -360 140t-145 346zM328 664 q0 -110 79 -188.5t189 -78.5t189 78.5t79 188.5t-79.5 192t-188.5 82t-188.5 -81t-79.5 -193z" />
<glyph unicode=":" horiz-adv-x="505" d="M86 147q0 66 51 116t117 50q65 0 116.5 -50.5t51.5 -115.5q0 -67 -51.5 -117t-116.5 -50q-66 0 -117 50.5t-51 116.5zM86 928q0 66 51 116t117 50q65 0 116.5 -50.5t51.5 -115.5q0 -67 -51.5 -117.5t-116.5 -50.5q-66 0 -117 51t-51 117z" />
<glyph unicode=";" horiz-adv-x="530" d="M16 -287h197l197 482h-256zM121 928q0 66 51 116t117 50q65 0 116.5 -50.5t51.5 -115.5q0 -67 -51.5 -117.5t-116.5 -50.5q-66 0 -117 51t-51 117z" />
<glyph unicode="&#x3c;" horiz-adv-x="1054" d="M66 457v133l864 522v-291l-465 -291l465 -278v-307z" />
<glyph unicode="=" horiz-adv-x="892" d="M127 295v178h641v-178h-641zM127 657v179h641v-179h-641z" />
<glyph unicode="&#x3e;" horiz-adv-x="1054" d="M125 -55v307l465 278l-465 291v291l864 -522v-133z" />
<glyph unicode="?" horiz-adv-x="995" d="M70 1208q53 124 169.5 194.5t258.5 70.5q81 0 154.5 -24t135.5 -70.5t99 -126.5t37 -183q0 -122 -54 -200t-161 -144q-19 -12 -54.5 -32t-55.5 -32t-47 -33t-41.5 -40.5t-25 -48t-10.5 -62.5h-225q0 110 36 187t132 133q12 7 47.5 26.5t59 33t56.5 38.5t53 49t35 58 t15 71q0 81 -57.5 128.5t-137.5 47.5q-141 0 -241 -164zM221 137q0 60 47 105t107 45t106.5 -45t46.5 -105q0 -62 -46 -107.5t-107 -45.5q-60 0 -107 46t-47 107z" />
<glyph unicode="@" horiz-adv-x="1730" d="M86 471q0 142 41.5 265.5t114.5 213.5t171 155t213 97.5t238 32.5q121 0 233.5 -32t209 -97.5t168 -157t112.5 -218.5t41 -275q0 -32 -1.5 -64t-9 -83t-20 -94.5t-36 -90.5t-56 -80t-82 -54.5t-110.5 -21.5q-173 0 -195 168q-64 -64 -155.5 -101.5t-192.5 -37.5 q-149 0 -231 79t-82 208q0 81 33 141t89.5 93.5t121.5 49t139 15.5q128 0 231 -45q0 122 -51.5 186.5t-181.5 64.5q-165 0 -273 -90l-53 146q153 102 352 102q74 0 132 -14.5t96.5 -37t66 -59t42 -70.5t22.5 -81.5t10 -82.5t2 -83v-196q0 -54 3 -89t12.5 -71t32 -54 t56.5 -18q42 0 74.5 28t50.5 68.5t30 93.5t15.5 96t3.5 83q0 189 -82 340.5t-232.5 238t-342.5 86.5q-190 0 -339.5 -84t-232.5 -232.5t-83 -336.5q0 -182 77.5 -332t223 -238.5t332.5 -88.5q89 0 159.5 19t159.5 58l33 -106q-168 -82 -357 -82q-153 0 -289 56.5t-236.5 156 t-159 244.5t-58.5 313zM621 289q0 -70 44 -111t121 -41q102 0 179 41q104 49 104 152v78q-133 43 -229 43q-101 0 -160 -39t-59 -123z" />
<glyph unicode="A" horiz-adv-x="1376" d="M10 0l555 1454h250l553 -1454h-291l-135 362h-508l-133 -362h-291zM481 561h410l-201 572z" />
<glyph unicode="B" horiz-adv-x="1392" d="M152 0v1454h778q98 0 176 -55.5t117 -139t39 -176.5q0 -109 -55 -202t-154 -136q126 -37 198 -133.5t72 -236.5q0 -118 -64.5 -204.5t-169.5 -128.5t-235 -42h-702zM434 240h420q76 0 130 55t54 133q0 80 -49.5 137.5t-120.5 57.5h-434v-383zM434 846h377q73 0 122.5 50 t49.5 134q0 82 -45.5 132t-114.5 50h-389v-366z" />
<glyph unicode="C" horiz-adv-x="1404" d="M63 737q0 134 49.5 263t138.5 232t227 166.5t302 63.5q195 0 344.5 -86t221.5 -231l-218 -150q-35 78 -97 128.5t-125.5 69.5t-133.5 19q-102 0 -184.5 -42.5t-133 -112.5t-77.5 -154.5t-27 -173.5q0 -129 53 -241t152 -181t221 -69q70 0 137 21.5t128.5 73t93.5 126.5 l231 -133q-43 -104 -141.5 -182.5t-217 -117t-239.5 -38.5t-232 42t-195.5 115.5t-148 168t-96.5 204t-33 219.5z" />
<glyph unicode="D" horiz-adv-x="1466" d="M152 0v1454h528q173 0 311.5 -56.5t226 -156t133.5 -230t46 -282.5q0 -331 -195.5 -530t-521.5 -199h-528zM434 248h246q203 0 317.5 134.5t114.5 346.5q0 215 -115 346t-317 131h-246v-958z" />
<glyph unicode="E" horiz-adv-x="1230" d="M152 0v1454h991v-248h-709v-350h613v-229h-613v-379h727v-248h-1009z" />
<glyph unicode="F" horiz-adv-x="1175" d="M152 0v1454h976v-248h-694v-375h578v-229h-578v-602h-282z" />
<glyph unicode="G" horiz-adv-x="1576" d="M57 735q0 147 54 280t150 232.5t237.5 158t306.5 58.5q196 0 352 -80.5t252 -224.5l-213 -164q-20 35 -51 69t-80 70t-121.5 58t-155.5 22q-136 0 -239 -67.5t-155 -177t-52 -242.5q0 -129 50 -238t153 -179t241 -70q171 0 292.5 83.5t133.5 208.5h-329v236h622 q0 -2 -1 -67t-1 -70q-5 -128 -61 -246t-147 -204.5t-217 -138.5t-265 -52q-161 0 -303 60t-240.5 161t-155.5 237.5t-57 286.5z" />
<glyph unicode="H" horiz-adv-x="1525" d="M152 0v1454h282v-588h660v588h280v-1454h-280v621h-660v-621h-282z" />
<glyph unicode="I" horiz-adv-x="585" d="M152 0v1454h282v-1454h-282z" />
<glyph unicode="J" horiz-adv-x="1040" d="M-31 315q42 -157 171 -247.5t298 -90.5q108 0 203.5 35t168.5 100.5t114 169.5q39 96 39 215v17v940h-279v-930q0 -142 -67 -211t-171 -69q-90 0 -146.5 43t-90.5 137z" />
<glyph unicode="K" horiz-adv-x="1370" d="M152 0v1452h282v-690l610 692h312l-557 -645l592 -809h-318l-452 629l-187 -195v-434h-282z" />
<glyph unicode="L" horiz-adv-x="1196" d="M152 0v1454h282v-1206h742v-248h-1024z" />
<glyph unicode="M" horiz-adv-x="1771" d="M152 0v1454h303l430 -827l434 827h301v-1454h-283v963l-374 -717h-154l-375 717v-963h-282z" />
<glyph unicode="N" horiz-adv-x="1562" d="M152 0v1454h219l757 -954v952h283v-1452h-229l-748 932v-932h-282z" />
<glyph unicode="O" horiz-adv-x="1548" d="M63 727q0 144 54.5 278.5t148 235.5t227.5 162t285 61q123 0 235 -41.5t196 -114t146.5 -166t95 -201.5t32.5 -218q0 -143 -54 -276.5t-146.5 -234.5t-226 -161.5t-284.5 -60.5q-124 0 -236 40.5t-197 111.5t-148 164t-95.5 201.5t-32.5 219.5zM350 727q0 -128 49 -237.5 t147.5 -179.5t227.5 -70q99 0 181 42t134 111.5t80.5 156t28.5 177.5q0 128 -50.5 237.5t-149 178.5t-224.5 69q-99 0 -181 -42t-134 -111t-80.5 -155t-28.5 -177z" />
<glyph unicode="P" horiz-adv-x="1275" d="M152 0v1454h616q97 0 184.5 -42t148 -110t95.5 -155t35 -176q0 -125 -56 -235t-161.5 -179.5t-235.5 -69.5h-344v-487h-282zM434 735h328q79 0 130.5 65t51.5 171q0 108 -57.5 171.5t-136.5 63.5h-316v-471z" />
<glyph unicode="Q" horiz-adv-x="1546" d="M63 727q0 144 54.5 278.5t148 235.5t227.5 162t285 61q123 0 235 -41.5t196 -114t146.5 -166t95 -201.5t32.5 -218q0 -139 -50.5 -269t-140.5 -231l154 -180l-160 -115l-145 166q-167 -104 -369 -104q-124 1 -236 41.5t-197 111.5t-148 163.5t-95.5 201t-32.5 219.5z M350 727q0 -128 49 -237.5t147.5 -179.5t227.5 -70q106 0 193 49l-136 155l158 119l123 -137q86 134 86 301q0 128 -50.5 238t-149 179.5t-224.5 69.5q-99 0 -181 -42t-134 -111.5t-80.5 -156t-28.5 -177.5z" />
<glyph unicode="R" horiz-adv-x="1361" d="M152 0v1454h643q129 0 237 -71.5t166.5 -181.5t58.5 -230q0 -140 -71.5 -256.5t-190.5 -167.5l332 -547h-317l-297 487h-279v-487h-282zM434 735h354q78 0 131.5 68.5t53.5 167.5t-60 167t-137 68h-342v-471z" />
<glyph unicode="S" horiz-adv-x="1255" d="M45 172l125 244q52 -52 197.5 -115t291.5 -63q115 0 174.5 38.5t59.5 110.5q0 83 -99 135q-63 32 -258 86l-1 1h-1h-1l-1 1h-1h-1h-1l-1 1h-1h-1l-1 1h-1h-1h-1l-1 1h-1h-1l-1 1h-2q-109 31 -182 63.5t-127 78.5t-78.5 107.5t-24.5 144.5q0 144 72 249t190.5 156 t268.5 51q270 0 508 -161l-125 -230q-37 41 -156 92.5t-235 51.5q-114 0 -173 -42.5t-59 -121.5q0 -22 4.5 -40.5t17 -34.5t25 -28t38 -24t45.5 -20.5t58.5 -20t65.5 -19t78 -20.5q93 -24 159.5 -47.5t128 -59t98.5 -79t59 -105t22 -139.5q0 -113 -43.5 -198.5t-120 -135.5 t-170.5 -74t-205 -24q-163 0 -323.5 49.5t-286.5 138.5z" />
<glyph unicode="T" horiz-adv-x="1267" d="M29 1206v248h1210v-248h-465v-1206h-280v1206h-465z" />
<glyph unicode="U" horiz-adv-x="1536" d="M131 713v741h283v-741q0 -96 18.5 -177.5t58 -149.5t110 -107t165.5 -39q97 0 168.5 39.5t111 108.5t58 149.5t18.5 175.5v741h281v-741q0 -153 -37 -281t-111.5 -228.5t-199 -157t-287.5 -56.5q-135 0 -244 39.5t-181.5 106.5t-121 160t-69.5 196.5t-21 220.5z" />
<glyph unicode="V" horiz-adv-x="1384" d="M4 1454h297l393 -1100l389 1100h297l-567 -1454h-238z" />
<glyph unicode="W" horiz-adv-x="2271" d="M20 1454h318l311 -1032l330 1032h305l340 -1030l307 1030h322l-457 -1454h-291l-372 993l-365 -993h-293z" />
<glyph unicode="X" horiz-adv-x="1323" d="M-6 1454h307l363 -541l360 541h305l-518 -737l502 -717h-305l-344 520l-347 -520h-307l502 717z" />
<glyph unicode="Y" horiz-adv-x="1351" d="M8 1454h307l359 -700l364 700h305l-528 -946v-508h-280v512z" />
<glyph unicode="Z" horiz-adv-x="1284" d="M61 0v213l822 993h-799v248h1124v-213l-794 -993h800v-248h-1153z" />
<glyph unicode="[" horiz-adv-x="647" d="M168 -82v1598h383v-220h-129v-1159h129v-219h-383z" />
<glyph unicode="\" horiz-adv-x="921" d="M12 1436l256 90l654 -1526l-258 -94z" />
<glyph unicode="]" horiz-adv-x="647" d="M94 -82v219h131v1159h-131v220h385v-1598h-385z" />
<glyph unicode="^" horiz-adv-x="1198" d="M80 621l405 833h230l403 -833h-225l-293 602l-299 -602h-221z" />
<glyph unicode="_" horiz-adv-x="972" d="M111 0h751v-248h-751v248z" />
<glyph unicode="`" d="M8 1538h301l180 -317h-174z" />
<glyph unicode="a" horiz-adv-x="1157" d="M51 319q0 107 64 187t166.5 120t226.5 40q156 0 262 -48v62q0 105 -61.5 163t-178.5 58q-161 0 -335 -121l-84 174q210 138 446 138q234 0 360.5 -116.5t126.5 -326.5v-649h-264v150q-121 -170 -362 -170q-157 0 -262 96.5t-105 242.5zM311 342q0 -71 54 -116.5 t131 -45.5q66 0 129.5 23t99.5 67q45 36 45 78v123q-103 41 -217 41q-98 0 -170 -45t-72 -125z" />
<glyph unicode="b" horiz-adv-x="1298" d="M125 0v1495h274v-610q58 99 152.5 153t216.5 54q136 0 244.5 -77t166.5 -204.5t58 -278.5q0 -153 -65 -279.5t-180.5 -199.5t-256.5 -73q-121 0 -217.5 54.5t-152.5 151.5v-186h-240zM399 393q27 -79 103 -129.5t157 -50.5q129 0 213 92.5t84 224.5q0 134 -80 231 t-200 97q-88 0 -162.5 -59t-114.5 -150v-256z" />
<glyph unicode="c" horiz-adv-x="1155" d="M57 537q0 151 67.5 276t198 202t300.5 77t296 -74t189 -201l-268 -82q-34 58 -92 90.5t-127 32.5q-120 0 -200.5 -90t-80.5 -231q0 -139 82 -231.5t199 -92.5q73 0 135.5 36t87.5 91l268 -82q-57 -125 -186 -201.5t-301 -76.5q-127 0 -235 45.5t-180 122t-112.5 177.5 t-40.5 212z" />
<glyph unicode="d" horiz-adv-x="1298" d="M59 537q0 153 62 280t172 201t244 74q116 0 211 -56.5t153 -150.5v610h275v-1495h-275v168q-53 -90 -138 -139t-194 -49q-146 0 -263 74t-182 201.5t-65 281.5zM344 530q0 -134 84.5 -225.5t210.5 -91.5q83 0 159.5 51.5t102.5 128.5v256q-33 91 -112.5 150t-165.5 59 q-120 0 -199.5 -98t-79.5 -230z" />
<glyph unicode="e" horiz-adv-x="1226" d="M57 530q0 153 68 280.5t199 204.5t301 77q128 0 234.5 -45t177 -121.5t109 -175.5t38.5 -209q0 -57 -6 -92h-830q10 -122 92 -195.5t193 -73.5q83 0 155.5 40.5t98.5 105.5l235 -66q-60 -126 -192.5 -203t-306.5 -77q-168 0 -299 76t-199 200.5t-68 273.5zM344 627h557 q-10 119 -88.5 192.5t-191.5 73.5q-112 0 -190 -73.5t-87 -192.5z" />
<glyph unicode="f" horiz-adv-x="757" d="M49 807v209h141v65q0 199 97.5 317t261.5 118q130 0 264 -64l-55 -207q-70 39 -150 39q-70 0 -106.5 -49t-36.5 -143v-76h262v-209h-262v-807h-275v807h-141z" />
<glyph unicode="g" horiz-adv-x="1298" d="M61 537q0 154 63 280.5t178 200.5t259 74q121 0 216 -55t159 -152v188h240v-1022q0 -155 -77.5 -271.5t-212 -176.5t-306.5 -60q-169 0 -290.5 57t-211.5 167l149 145q62 -75 155.5 -118.5t197.5 -43.5q66 0 123 18t102 53.5t70.5 94.5t25.5 135v135q-53 -91 -149 -141.5 t-207 -50.5q-140 0 -251.5 74t-172 198t-60.5 271zM342 528q0 -133 85 -224t210 -91q87 0 160.5 52t103.5 128v256q-36 93 -114.5 151t-165.5 58q-122 0 -200.5 -98.5t-78.5 -231.5z" />
<glyph unicode="h" horiz-adv-x="1236" d="M125 0v1495h274v-621q60 103 162 160.5t223 57.5q338 0 338 -422v-670h-274v602q0 124 -47 186t-133 62q-78 0 -158.5 -64t-110.5 -159v-627h-274z" />
<glyph unicode="i" d="M115 1358q0 60 45.5 104.5t105.5 44.5q59 0 105.5 -45t46.5 -104q0 -61 -46.5 -106.5t-105.5 -45.5q-60 0 -105.5 46t-45.5 106zM129 0v1073h274v-1073h-274z" />
<glyph unicode="j" d="M115 1358q0 60 45.5 104.5t105.5 44.5q59 0 105.5 -45t46.5 -104q0 -61 -46.5 -106.5t-105.5 -45.5q-60 0 -105.5 46t-45.5 106zM129 -436v1509h274v-1509h-274z" />
<glyph unicode="k" horiz-adv-x="1142" d="M125 0v1495h274v-907l430 483h293l-399 -455l428 -616h-293l-311 465l-148 -146v-319h-274z" />
<glyph unicode="l" horiz-adv-x="534" d="M129 0v1495h274v-1495h-274z" />
<glyph unicode="m" horiz-adv-x="1906" d="M125 0v1073h248v-199q60 104 163.5 161t235.5 57q127 0 204 -63.5t99 -164.5q65 110 166.5 169t228.5 59q322 0 322 -422v-670h-274v602q0 125 -43 186.5t-123 61.5q-82 0 -153.5 -63t-102.5 -162v-625h-275v602q0 248 -166 248q-81 0 -153.5 -62t-102.5 -161v-627h-274z " />
<glyph unicode="n" horiz-adv-x="1236" d="M125 0v1073h248v-199q60 102 173.5 160t252.5 58q78 0 136.5 -24.5t93.5 -63.5t56.5 -96t29 -113.5t7.5 -124.5v-670h-274v602q0 248 -170 248q-85 0 -167 -64t-112 -159v-627h-274z" />
<glyph unicode="o" horiz-adv-x="1241" d="M57 535q0 112 40 213t111 177.5t178.5 121.5t234.5 45q169 0 298.5 -77.5t196 -203t66.5 -276.5q0 -111 -39 -211.5t-109.5 -177t-177.5 -121.5t-235 -45q-103 0 -193 29.5t-157 81.5t-116 121.5t-73.5 152t-24.5 170.5zM340 535q0 -140 80.5 -231t200.5 -91 q119 0 199.5 92t80.5 232q0 139 -80.5 230t-199.5 91t-200 -92t-81 -231z" />
<glyph unicode="p" horiz-adv-x="1298" d="M125 -436v1509h240v-184q61 96 156 149.5t214 53.5q141 0 257 -75t180.5 -201.5t64.5 -276.5q0 -155 -60 -283t-168 -202t-241 -74q-123 0 -218.5 55t-150.5 153v-624h-274zM399 426q37 -92 114 -152.5t163 -60.5q121 0 200.5 97t79.5 229q0 135 -85 227t-212 92 q-80 0 -156.5 -51.5t-103.5 -128.5v-252z" />
<glyph unicode="q" horiz-adv-x="1298" d="M61 539q0 153 65.5 279.5t181 200t255.5 73.5q120 0 215.5 -55t155.5 -150v186h240v-1509h-275v624q-60 -102 -154 -155t-215 -53q-134 0 -242 75t-167.5 203t-59.5 281zM342 530q0 -135 81.5 -226t209.5 -91q163 0 266 176v254q-23 90 -103 152.5t-167 62.5 q-123 0 -205 -97.5t-82 -230.5z" />
<glyph unicode="r" horiz-adv-x="792" d="M125 0v1073h252v-229q56 107 150 175t182 68q43 0 55 -2v-249q-128 -2 -225.5 -50t-139.5 -137v-649h-274z" />
<glyph unicode="s" horiz-adv-x="1017" d="M45 145l102 172q198 -141 377 -141q82 0 129 31t47 88q0 54 -48.5 81t-186.5 64q-219 59 -301 119.5t-82 179.5q0 161 119 258t303 97q250 0 420 -148l-111 -166q-158 119 -311 119q-73 0 -118.5 -30.5t-45.5 -90.5q0 -53 42 -77.5t169 -57.5q232 -58 324 -125.5 t92 -198.5q0 -156 -117.5 -247.5t-317.5 -91.5q-136 0 -266 43.5t-219 121.5z" />
<glyph unicode="t" horiz-adv-x="786" d="M45 862v211h141v348h275v-348h225v-211h-225v-524q0 -54 28 -79.5t74 -25.5q58 0 150 39l55 -217q-164 -73 -303 -73q-59 0 -108 15t-88 45.5t-61 82.5t-22 121v616h-141z" />
<glyph unicode="u" horiz-adv-x="1243" d="M115 401v672h274v-612q0 -248 186 -248q79 0 152 52t117 143v665h274v-1073h-264v184q-57 -99 -160 -151.5t-225 -52.5q-354 0 -354 421z" />
<glyph unicode="v" horiz-adv-x="1124" d="M18 1073h283l272 -850l275 850h258l-395 -1073h-297z" />
<glyph unicode="w" horiz-adv-x="1783" d="M20 1073h285l246 -745l213 745h258l213 -745l246 745h280l-366 -1073h-297l-207 647l-205 -647h-295z" />
<glyph unicode="x" horiz-adv-x="1087" d="M8 0l387 535l-381 538h281l231 -336l17 -37l20 37l230 336h282l-383 -538l389 -535h-282l-238 334l-18 35l-17 -35l-235 -334h-283z" />
<glyph unicode="y" horiz-adv-x="1126" d="M12 1073h283l291 -835l258 835h258l-451 -1286q-39 -116 -135.5 -186t-230.5 -70q-68 0 -138 23v237q78 -20 123 -20q56 0 90.5 47t75.5 182z" />
<glyph unicode="z" horiz-adv-x="1009" d="M53 0v168l598 713h-573v192h862v-168l-594 -712h604v-193h-897z" />
<glyph unicode="{" horiz-adv-x="649" d="M86 643v193q41 0 71.5 43.5t30.5 89.5v485q0 34 15.5 48t32.5 14h311v-220h-113v-417q0 -79 -69 -142q69 -62 69 -141v-440h113v-219h-311q-18 0 -33 14t-15 47v508q0 52 -30.5 90.5t-71.5 46.5z" />
<glyph unicode="|" horiz-adv-x="557" d="M162 -266v1853h233v-1853h-233z" />
<glyph unicode="}" horiz-adv-x="649" d="M102 -63v219h113v440q0 79 72 141q-72 65 -72 142v417h-113v220h314q16 0 31.5 -14.5t15.5 -47.5v-485q0 -46 30.5 -89.5t71.5 -43.5v-193q-43 -8 -72.5 -46t-29.5 -91v-508q0 -32 -15 -46.5t-32 -14.5h-314z" />
<glyph unicode="~" horiz-adv-x="1161" d="M115 467q0 13 6.5 36.5t19 54.5t36 62t53 57.5t74 43t95.5 16.5q62 0 126.5 -27.5t124 -55t110.5 -27.5q32 0 58.5 10t41 24t24.5 30.5t13.5 27t3.5 14.5h152q0 -12 -8.5 -39t-31 -67t-54 -75t-85 -60t-116.5 -25q-62 0 -127.5 26.5t-125.5 53t-108 26.5q-32 0 -57 -11 t-38 -25.5t-22 -31t-11.5 -26t-2.5 -12.5h-151z" />
<glyph unicode="&#xa1;" horiz-adv-x="624" d="M150 1313q0 64 49 113t114 49t115.5 -49t50.5 -113q0 -65 -50.5 -114.5t-115.5 -49.5q-64 0 -113.5 49.5t-49.5 114.5zM176 -10v921h275v-921h-275z" />
<glyph unicode="&#xa2;" horiz-adv-x="1212" d="M80 528q0 140 55.5 258t167 200t262.5 104v231h123v-231q144 -5 260.5 -75.5t181.5 -197.5l-266 -82q-29 51 -75.5 80.5t-100.5 34.5v-631q59 10 111.5 43t68.5 78l269 -82q-38 -88 -120 -153.5t-168 -95t-161 -29.5v-226h-123v228q-137 11 -250 93t-174 202.5t-61 250.5 zM362 528q0 -102 56 -185t147 -112v607q-92 -18 -147.5 -107.5t-55.5 -202.5z" />
<glyph unicode="&#xa3;" horiz-adv-x="1116" d="M104 178q111 93 165.5 188t54.5 207h-207v207h147q-5 10 -29 59.5t-31.5 68t-22.5 57.5t-20 70.5t-5 64.5q0 152 122.5 258t299.5 106q124 0 236 -57.5t187 -157.5l-143 -168q-51 71 -130.5 115.5t-154.5 44.5t-123.5 -48t-48.5 -120q0 -42 16.5 -87t48.5 -108t46 -98 h377v-207h-332q0 -97 -39 -180t-133 -180q82 25 156 25q51 0 142 -17.5t136 -17.5q66 0 154 33l67 -205q-114 -62 -235 -62q-62 0 -187.5 30t-191.5 30q-115 0 -262 -45z" />
<glyph unicode="&#xa4;" horiz-adv-x="1130" d="M94 332l142 141q-64 98 -64 217q0 126 61 217l-139 142l111 112l143 -147q92 61 219 61q121 0 215 -59l142 145l112 -112l-139 -138q64 -98 64 -221q0 -122 -66 -219l141 -139l-102 -103l-148 140q-96 -60 -219 -60q-129 0 -223 62l-149 -142zM375 690q0 -91 55 -150 t137 -59t136.5 59.5t54.5 151.5t-54.5 150.5t-136.5 58.5t-137 -59.5t-55 -151.5z" />
<glyph unicode="&#xa5;" horiz-adv-x="1458" d="M59 1454h306l360 -700l362 700h308l-361 -631h150v-178h-246l-74 -137v-62h322v-178h-322v-268h-280v268h-318v178h318v66l-70 133h-246v178h152z" />
<glyph unicode="&#xa6;" horiz-adv-x="563" d="M166 -266v807h233v-807h-233zM166 780v807h233v-807h-233z" />
<glyph unicode="&#xa7;" horiz-adv-x="1089" d="M88 1075q0 159 127 274t305 115q68 0 130 -17.5t105.5 -42t84.5 -61.5t64.5 -66t49.5 -65l-211 -100q-28 52 -82 80.5t-124 28.5q-75 0 -123.5 -39t-48.5 -103q0 -70 45.5 -97.5t126.5 -29.5q64 -2 124 -13.5t118.5 -37.5t101.5 -63.5t69.5 -97t26.5 -132.5 q0 -54 -13 -99.5t-30 -68.5q72 -65 72 -209q0 -85 -29.5 -156t-76.5 -117.5t-108 -78t-121.5 -45.5t-119.5 -14q-77 0 -149.5 21.5t-128.5 56.5t-95 68t-69 67l176 168q115 -121 254 -121q73 0 127.5 38.5t54.5 102.5q0 34 -14 57t-40.5 34t-51 15.5t-58.5 6.5 q-201 13 -312.5 109.5t-111.5 254.5q0 77 39 152q-34 32 -59 92t-25 133zM399 662q0 -45 20 -73.5t54.5 -40.5t69.5 -17t75.5 -10t61.5 -13q37 32 37 92q0 47 -28.5 78t-65 42t-76.5 11q-60 0 -115 19q-33 -33 -33 -88z" />
<glyph unicode="&#xa8;" horiz-adv-x="935" d="M66 1346q0 60 45.5 104.5t105.5 44.5q59 0 105.5 -45t46.5 -104q0 -61 -46.5 -106.5t-105.5 -45.5q-60 0 -105.5 46t-45.5 106zM571 1350q0 60 46 104.5t106 44.5q59 0 105 -45t46 -104q0 -61 -46 -106.5t-105 -45.5q-60 0 -106 46t-46 106z" />
<glyph unicode="&#xa9;" horiz-adv-x="1722" d="M88 727q0 156 58 293t159.5 234.5t244 153.5t304.5 56q166 0 311 -56t248 -153.5t162 -234.5t59 -293q0 -157 -59 -294.5t-162 -235.5t-248 -154.5t-311 -56.5q-162 0 -304.5 56.5t-244 154.5t-159.5 235.5t-58 294.5zM197 725q0 -177 85 -323t236 -230t336 -84 q187 0 340 80t241.5 226t88.5 331q0 132 -51 250t-139 203t-213 134.5t-267 49.5q-184 0 -335 -84t-236.5 -230t-85.5 -323zM356 727q0 95 33 181t95 155t161.5 110t222.5 41q160 0 278.5 -70t174.5 -192l-266 -82q-28 58 -79.5 84.5t-109.5 26.5q-104 0 -166.5 -73.5 t-62.5 -180.5q0 -117 70 -186.5t161 -69.5q60 0 113 31t80 84l268 -80q-51 -113 -172 -190.5t-285 -77.5q-150 0 -268.5 64.5t-183 176t-64.5 248.5z" />
<glyph unicode="&#xaa;" horiz-adv-x="909" d="M82 928q0 107 86 175t221 68q98 0 170 -32v39q0 68 -39 105.5t-114 37.5q-105 0 -226 -82l-61 125q140 96 305 96q160 0 248 -79t88 -228v-444h-156l-14 118q-49 -64 -117 -98.5t-145 -34.5q-104 0 -175 67t-71 167zM270 946q0 -44 33.5 -74t83.5 -30q41 0 80.5 15 t62.5 40q29 26 29 53v80q-64 25 -135 25q-68 0 -111 -30t-43 -79z" />
<glyph unicode="&#xab;" horiz-adv-x="1329" d="M72 457v133l540 387v-223l-321 -224l321 -211v-225zM670 457v133l538 387v-223l-321 -224l321 -211v-225z" />
<glyph unicode="&#xac;" horiz-adv-x="1253" d="M121 573v246h999v-602h-233v356h-766z" />
<glyph unicode="&#xad;" horiz-adv-x="1234" d="M119 438v248h999v-248h-999z" />
<glyph unicode="&#xae;" horiz-adv-x="1722" d="M88 727q0 156 58.5 293t160 234.5t244.5 153.5t307 56t308 -56t247 -153.5t162 -234.5t59 -293q0 -157 -59 -294.5t-162 -235.5t-247 -154.5t-308 -56.5q-219 0 -395.5 96.5t-275.5 266t-99 378.5zM203 727q0 -178 83.5 -324.5t234 -231.5t337.5 -85q185 0 336 80.5 t238.5 227t87.5 329.5q0 178 -85.5 324.5t-237.5 230.5t-339 84q-140 0 -262.5 -49.5t-208.5 -134.5t-135 -202t-49 -249zM526 279v901h400q120 0 203 -93.5t83 -207.5q0 -86 -45 -159t-118 -102l211 -339h-220l-188 303h-131v-303h-195zM721 750h188q51 0 81 34t30 95 q0 62 -33 95.5t-82 33.5h-184v-258z" />
<glyph unicode="&#xaf;" horiz-adv-x="858" d="M123 1296v170h614v-170h-614z" />
<glyph unicode="&#xb0;" horiz-adv-x="583" d="M82 1280q0 87 59.5 145t149.5 58q92 0 151.5 -58t59.5 -145q0 -97 -59 -157t-152 -60q-91 0 -150 61t-59 156zM215 1272q0 -30 21 -51q29 -25 55 -25q34 0 55 25q21 21 21 51t-21 55q-20 23 -55 23q-29 0 -55 -23q-21 -25 -21 -55z" />
<glyph unicode="&#xb1;" horiz-adv-x="966" d="M121 57v222h725v-222h-725zM121 662v219h239v260h246v-260h240v-219h-240v-261h-246v261h-239z" />
<glyph unicode="&#xb2;" horiz-adv-x="851" d="M61 797q0 167 59.5 256t209.5 149q16 6 47.5 18.5t49 19t44.5 19t42.5 21.5t34 23.5t28.5 28t17 31.5t7 38q0 54 -45.5 82t-130.5 28q-152 0 -252 -100l-104 119q40 52 141.5 96.5t239.5 44.5q162 0 248.5 -72t86.5 -200q0 -51 -18.5 -94t-45 -71.5t-66 -52.5t-71 -36.5 t-69.5 -24.5q-107 -33 -167 -75.5t-60 -88.5h473v-159h-699z" />
<glyph unicode="&#xb3;" horiz-adv-x="833" d="M57 946l88 121q18 -43 84 -81t160 -38q90 0 149.5 28t59.5 79q0 112 -303 112h-49v150h47q276 0 276 106q0 46 -53.5 71.5t-120.5 25.5q-148 0 -231 -103l-105 131q45 57 137.5 90t196.5 33q150 0 250 -68t100 -169q0 -71 -51 -118.5t-143 -64.5q98 -13 156.5 -75.5 t58.5 -147.5q0 -80 -54.5 -137t-136.5 -82t-180 -25q-129 0 -218 42.5t-118 119.5z" />
<glyph unicode="&#xb4;" d="M49 1221l180 317h301l-307 -317h-174z" />
<glyph unicode="&#xb5;" horiz-adv-x="1359" d="M158 -434v1507h274v-612q0 -248 184 -248q79 0 153.5 50.5t119.5 144.5v665h274v-1073h-223l-10 201q-39 -81 -135.5 -151t-196.5 -70q-72 0 -119.5 37.5t-64.5 82.5l18 -534h-274z" />
<glyph unicode="&#xb6;" horiz-adv-x="1345" d="M72 934q0 248 151 384t426 136h602v-205h-143v-1413h-231v590h-105v-590h-233v590q-212 1 -339.5 140t-127.5 368zM301 940q0 -136 67.5 -218t170.5 -91v618q-113 -6 -175.5 -89t-62.5 -220zM772 631h105v618h-105v-618z" />
<glyph unicode="&#xb7;" horiz-adv-x="460" d="M57 651q0 69 52.5 121.5t121.5 52.5q68 0 121.5 -52.5t53.5 -121.5t-53.5 -121.5t-121.5 -52.5q-69 0 -121.5 53t-52.5 121z" />
<glyph unicode="&#xb8;" horiz-adv-x="667" d="M43 -360l55 100q27 -15 79 -27t104 -12q114 0 114 68q0 67 -106 67q-65 0 -164 -24l125 245l106 -32l-71 -111q24 8 65 8q77 0 125.5 -36t48.5 -107q0 -81 -67 -130.5t-195 -49.5q-121 0 -219 41z" />
<glyph unicode="&#xb9;" horiz-adv-x="610" d="M37 1536l221 135h166v-872h-166v696l-154 -90z" />
<glyph unicode="&#xba;" horiz-adv-x="907" d="M74 1077q0 161 104 272t277 111t277 -111t104 -272q0 -103 -44 -189t-132.5 -140t-204.5 -54t-204.5 54t-132.5 140t-44 189zM276 1075q0 -90 51.5 -149.5t127.5 -59.5q75 0 125.5 59.5t50.5 151.5t-50 150.5t-126 58.5t-127.5 -59t-51.5 -152z" />
<glyph unicode="&#xbb;" horiz-adv-x="1329" d="M119 94v225l323 211l-323 224v223l540 -387v-133zM715 94v225l323 211l-323 224v223l540 -387v-133z" />
<glyph unicode="&#xbc;" horiz-adv-x="1906" d="M59 1364l222 135h165v-872h-165v696l-154 -90zM362 96l578 674l533 700l124 -110l-559 -662l-551 -712zM1096 190v158l503 516h111v-514h125v-160h-125v-190h-162v190h-452zM1253 350h301v314z" />
<glyph unicode="&#xbd;" horiz-adv-x="1957" d="M57 1362l222 135h165v-872h-165v696l-154 -90zM281 96l577 674l533 700l125 -110l-560 -662l-550 -712zM1165 0q0 166 59 255t208 151q16 7 52.5 21t54 22t47 22t45 26t32.5 28.5t24 35.5t7 41q0 54 -44.5 83.5t-127.5 29.5q-145 0 -248 -103l-103 119q40 52 139.5 96.5 t235.5 44.5q159 0 243.5 -71.5t84.5 -200.5q0 -50 -18 -92.5t-43.5 -69.5t-64.5 -50.5t-69 -35.5t-69 -24q-99 -31 -153 -75t-62 -93h481v-160h-711z" />
<glyph unicode="&#xbe;" horiz-adv-x="1923" d="M80 772l88 121q25 -46 89.5 -81.5t154.5 -35.5q91 0 150 27.5t59 77.5q0 114 -304 114h-49v150h47q277 0 277 106q0 44 -53.5 69.5t-120.5 25.5q-148 0 -232 -101l-104 131q44 57 136.5 89t197.5 32q150 0 250 -68t100 -169q0 -71 -51.5 -118t-143.5 -65 q98 -13 156.5 -74.5t58.5 -146.5q0 -80 -54.5 -137.5t-136 -83t-179.5 -25.5q-129 0 -218 42.5t-118 119.5zM424 96l577 674l533 700l125 -110l-559 -662l-551 -712zM1110 190v158l504 516h110v-514h125v-160h-125v-190h-161v190h-453zM1268 350h301v314z" />
<glyph unicode="&#xbf;" horiz-adv-x="980" d="M63 -33q0 84 28.5 149.5t73 108t114.5 86.5q19 12 54.5 32t55.5 32t46.5 33t41 40.5t25 48t10.5 62.5h225q0 -110 -36 -186.5t-132 -132.5q-11 -7 -47 -26.5t-59 -33t-56.5 -39t-53.5 -49.5t-35 -58t-15 -71q0 -81 57.5 -128.5t137.5 -47.5q141 0 241 164l179 -123 q-53 -124 -170 -194t-259 -70q-81 0 -154.5 23.5t-135.5 70.5t-99 126.5t-37 182.5zM463 897q0 60 46.5 105t106.5 45t107 -45t47 -105q0 -62 -46.5 -108t-107.5 -46q-60 0 -106.5 46.5t-46.5 107.5z" />
<glyph unicode="&#xc0;" horiz-adv-x="1376" d="M10 0l555 1454h250l553 -1454h-291l-135 362h-508l-133 -362h-291zM279 1919h301l180 -317h-174zM481 561h410l-201 572z" />
<glyph unicode="&#xc1;" horiz-adv-x="1376" d="M10 0l555 1454h250l553 -1454h-291l-135 362h-508l-133 -362h-291zM481 561h410l-201 572zM612 1602l181 317h301l-308 -317h-174z" />
<glyph unicode="&#xc2;" horiz-adv-x="1376" d="M10 0l555 1454h250l553 -1454h-291l-135 362h-508l-133 -362h-291zM276 1602l308 317h213l307 -317h-301l-113 198l-112 -198h-302zM481 561h410l-201 572z" />
<glyph unicode="&#xc3;" horiz-adv-x="1376" d="M10 0l555 1454h250l553 -1454h-291l-135 362h-508l-133 -362h-291zM303 1608q0 18 7.5 47t25.5 67t44 70.5t69 55t94 22.5q42 0 81 -15t64 -33t59 -33t66 -15q28 0 49 10t32 23.5t18 29.5t8.5 25t1.5 14h151q0 -14 -7.5 -42t-27 -66.5t-46.5 -72.5t-72 -57.5t-99 -23.5 q-52 0 -100 23t-89.5 46t-78.5 23q-26 0 -45.5 -10t-29 -22.5t-15.5 -28.5t-7 -24.5t-1 -12.5h-152zM481 561h410l-201 572z" />
<glyph unicode="&#xc4;" horiz-adv-x="1376" d="M10 0l555 1454h250l553 -1454h-291l-135 362h-508l-133 -362h-291zM283 1726q0 60 45.5 105t105.5 45q59 0 105.5 -45.5t46.5 -104.5q0 -61 -46.5 -106t-105.5 -45q-60 0 -105.5 45.5t-45.5 105.5zM481 561h410l-201 572zM788 1731q0 60 46 104.5t106 44.5 q59 0 105.5 -45t46.5 -104q0 -61 -46.5 -106.5t-105.5 -45.5q-60 0 -106 46t-46 106z" />
<glyph unicode="&#xc5;" horiz-adv-x="1376" d="M10 0l555 1454h250l553 -1454h-291l-135 362h-508l-133 -362h-291zM463 1741q0 84 61 131t164 47t164 -47t61 -131q0 -85 -61 -132.5t-164 -47.5t-164 47.5t-61 132.5zM481 561h410l-201 572zM594 1741q0 -35 27 -59.5t67 -24.5q38 0 66 24t28 60q0 37 -26.5 59.5 t-67.5 22.5q-40 0 -67 -22.5t-27 -59.5z" />
<glyph unicode="&#xc6;" horiz-adv-x="1978" d="M-51 0l907 1454h1034v-248h-682v-342h572v-248h-572v-368h701v-248h-979v362h-467l-215 -362h-299zM584 608h325v529z" />
<glyph unicode="&#xc7;" horiz-adv-x="1404" d="M63 737q0 134 49.5 263t138.5 232t227 166.5t302 63.5q195 0 344.5 -86t221.5 -231l-218 -150q-35 78 -97 128.5t-125.5 69.5t-133.5 19q-102 0 -184.5 -42.5t-133 -112.5t-77.5 -154.5t-27 -173.5q0 -129 53 -241t152 -181t221 -69q70 0 137 21.5t128.5 73t93.5 126.5 l231 -133q-43 -104 -141.5 -182.5t-217 -117t-239.5 -38.5t-232 42t-195.5 115.5t-148 168t-96.5 204t-33 219.5zM461 -360l55 100q28 -15 79 -27t103 -12q115 0 115 68q0 67 -106 67q-65 0 -164 -24l125 245l106 -32l-72 -111q24 8 66 8q77 0 125.5 -36t48.5 -107 q0 -81 -67 -130.5t-195 -49.5q-121 0 -219 41z" />
<glyph unicode="&#xc8;" horiz-adv-x="1230" d="M152 0v1454h991v-248h-709v-350h613v-229h-613v-379h727v-248h-1009zM227 1919h301l181 -317h-174z" />
<glyph unicode="&#xc9;" horiz-adv-x="1230" d="M152 0v1454h991v-248h-709v-350h613v-229h-613v-379h727v-248h-1009zM561 1602l180 317h301l-307 -317h-174z" />
<glyph unicode="&#xca;" horiz-adv-x="1230" d="M152 0v1454h991v-248h-709v-350h613v-229h-613v-379h727v-248h-1009zM225 1602l307 317h213l308 -317h-301l-113 198l-113 -198h-301z" />
<glyph unicode="&#xcb;" horiz-adv-x="1230" d="M152 0v1454h991v-248h-709v-350h613v-229h-613v-379h727v-248h-1009zM231 1726q0 60 46 105t106 45q59 0 105.5 -45.5t46.5 -104.5q0 -61 -46.5 -106t-105.5 -45q-60 0 -106 45.5t-46 105.5zM737 1731q0 60 46 104.5t106 44.5q59 0 105 -45t46 -104q0 -61 -46 -106.5 t-105 -45.5q-60 0 -106 46t-46 106z" />
<glyph unicode="&#xcc;" horiz-adv-x="585" d="M-117 1919h301l181 -317h-175zM152 0v1454h282v-1454h-282z" />
<glyph unicode="&#xcd;" horiz-adv-x="585" d="M152 0v1454h282v-1454h-282zM217 1602l180 317h301l-307 -317h-174z" />
<glyph unicode="&#xce;" horiz-adv-x="585" d="M-119 1602l307 317h213l308 -317h-301l-113 198l-113 -198h-301zM152 0v1454h282v-1454h-282z" />
<glyph unicode="&#xcf;" horiz-adv-x="585" d="M-113 1726q0 60 46 105t106 45q59 0 105 -45t46 -105q0 -61 -46 -106t-105 -45q-60 0 -106 45.5t-46 105.5zM152 0v1454h282v-1454h-282zM393 1731q0 60 46 104.5t106 44.5q59 0 105 -45t46 -104q0 -61 -46 -106.5t-105 -45.5q-60 0 -106 46t-46 106z" />
<glyph unicode="&#xd0;" horiz-adv-x="1466" d="M63 629v205h666v-205h-666zM160 0v1454h528q173 0 311.5 -56.5t226 -156t133.5 -230t46 -282.5q0 -331 -195.5 -530t-521.5 -199h-528zM442 248h246q203 0 317.5 134.5t114.5 346.5q0 215 -115 346t-317 131h-246v-958z" />
<glyph unicode="&#xd1;" horiz-adv-x="1562" d="M152 0v1454h219l757 -954v952h283v-1452h-229l-748 932v-932h-282zM373 1608q0 24 13 63.5t38.5 86t75 79.5t112.5 33q53 0 100 -24t89 -48t82 -24q28 0 49 10t31.5 23.5t17.5 29.5t8.5 25t1.5 14h152q0 -14 -7.5 -42t-27 -66.5t-46.5 -72.5t-72 -57.5t-99 -23.5 q-52 0 -100 23t-89.5 46t-78.5 23q-26 0 -45.5 -10t-29 -22.5t-15.5 -28.5t-7.5 -24.5t-1.5 -12.5h-151z" />
<glyph unicode="&#xd2;" horiz-adv-x="1548" d="M63 727q0 144 54.5 278.5t148 235.5t227.5 162t285 61q123 0 235 -41.5t196 -114t146.5 -166t95 -201.5t32.5 -218q0 -143 -54 -276.5t-146.5 -234.5t-226 -161.5t-284.5 -60.5q-124 0 -236 40.5t-197 111.5t-148 164t-95.5 201.5t-32.5 219.5zM350 727q0 -128 49 -237.5 t147.5 -179.5t227.5 -70q99 0 181 42t134 111.5t80.5 156t28.5 177.5q0 128 -50.5 237.5t-149 178.5t-224.5 69q-99 0 -181 -42t-134 -111t-80.5 -155t-28.5 -177zM365 1919h301l180 -317h-174z" />
<glyph unicode="&#xd3;" horiz-adv-x="1548" d="M63 727q0 144 54.5 278.5t148 235.5t227.5 162t285 61q123 0 235 -41.5t196 -114t146.5 -166t95 -201.5t32.5 -218q0 -143 -54 -276.5t-146.5 -234.5t-226 -161.5t-284.5 -60.5q-124 0 -236 40.5t-197 111.5t-148 164t-95.5 201.5t-32.5 219.5zM350 727q0 -128 49 -237.5 t147.5 -179.5t227.5 -70q99 0 181 42t134 111.5t80.5 156t28.5 177.5q0 128 -50.5 237.5t-149 178.5t-224.5 69q-99 0 -181 -42t-134 -111t-80.5 -155t-28.5 -177zM698 1602l181 317h301l-308 -317h-174z" />
<glyph unicode="&#xd4;" horiz-adv-x="1548" d="M63 727q0 144 54.5 278.5t148 235.5t227.5 162t285 61q123 0 235 -41.5t196 -114t146.5 -166t95 -201.5t32.5 -218q0 -143 -54 -276.5t-146.5 -234.5t-226 -161.5t-284.5 -60.5q-124 0 -236 40.5t-197 111.5t-148 164t-95.5 201.5t-32.5 219.5zM350 727q0 -128 49 -237.5 t147.5 -179.5t227.5 -70q99 0 181 42t134 111.5t80.5 156t28.5 177.5q0 128 -50.5 237.5t-149 178.5t-224.5 69q-99 0 -181 -42t-134 -111t-80.5 -155t-28.5 -177zM362 1602l308 317h213l307 -317h-301l-113 198l-112 -198h-302z" />
<glyph unicode="&#xd5;" horiz-adv-x="1548" d="M63 727q0 144 54.5 278.5t148 235.5t227.5 162t285 61q123 0 235 -41.5t196 -114t146.5 -166t95 -201.5t32.5 -218q0 -143 -54 -276.5t-146.5 -234.5t-226 -161.5t-284.5 -60.5q-124 0 -236 40.5t-197 111.5t-148 164t-95.5 201.5t-32.5 219.5zM350 727q0 -128 49 -237.5 t147.5 -179.5t227.5 -70q99 0 181 42t134 111.5t80.5 156t28.5 177.5q0 128 -50.5 237.5t-149 178.5t-224.5 69q-99 0 -181 -42t-134 -111t-80.5 -155t-28.5 -177zM389 1608q0 18 7.5 47t25.5 67t44 70.5t69 55t94 22.5q42 0 81 -15t64 -33t59 -33t66 -15q28 0 49 10 t32 23.5t18 29.5t8.5 25t1.5 14h151q0 -14 -7.5 -42t-27 -66.5t-46.5 -72.5t-72 -57.5t-99 -23.5q-52 0 -100 23t-89.5 46t-78.5 23q-26 0 -45.5 -10t-29 -22.5t-15.5 -28.5t-7 -24.5t-1 -12.5h-152z" />
<glyph unicode="&#xd6;" horiz-adv-x="1548" d="M63 727q0 144 54.5 278.5t148 235.5t227.5 162t285 61q123 0 235 -41.5t196 -114t146.5 -166t95 -201.5t32.5 -218q0 -143 -54 -276.5t-146.5 -234.5t-226 -161.5t-284.5 -60.5q-124 0 -236 40.5t-197 111.5t-148 164t-95.5 201.5t-32.5 219.5zM350 727q0 -128 49 -237.5 t147.5 -179.5t227.5 -70q99 0 181 42t134 111.5t80.5 156t28.5 177.5q0 128 -50.5 237.5t-149 178.5t-224.5 69q-99 0 -181 -42t-134 -111t-80.5 -155t-28.5 -177zM369 1726q0 60 45.5 105t105.5 45q59 0 105.5 -45.5t46.5 -104.5q0 -61 -46.5 -106t-105.5 -45 q-60 0 -105.5 45.5t-45.5 105.5zM874 1731q0 60 46 104.5t106 44.5q59 0 105.5 -45t46.5 -104q0 -61 -46.5 -106.5t-105.5 -45.5q-60 0 -106 46t-46 106z" />
<glyph unicode="&#xd7;" horiz-adv-x="976" d="M106 354l209 209l-200 203l172 170l200 -201l203 203l170 -172l-201 -203l211 -211l-172 -170l-211 211l-211 -211z" />
<glyph unicode="&#xd8;" horiz-adv-x="1548" d="M63 727q0 144 54.5 278.5t148 235.5t227.5 162t285 61q123 0 235 -41.5t196 -114t146.5 -166t95 -201.5t32.5 -218q0 -143 -54 -276.5t-146.5 -234.5t-226 -161.5t-284.5 -60.5q-124 0 -236 40.5t-197 111.5t-148 164t-95.5 201.5t-32.5 219.5zM342 0l653 1526l256 -90 l-651 -1530zM350 727q0 -128 49 -237.5t147.5 -179.5t227.5 -70q99 0 181 42t134 111.5t80.5 156t28.5 177.5q0 128 -50.5 237.5t-149 178.5t-224.5 69q-99 0 -181 -42t-134 -111t-80.5 -155t-28.5 -177z" />
<glyph unicode="&#xd9;" horiz-adv-x="1536" d="M131 713v741h283v-741q0 -96 18.5 -177.5t58 -149.5t110 -107t165.5 -39q97 0 168.5 39.5t111 108.5t58 149.5t18.5 175.5v741h281v-741q0 -153 -37 -281t-111.5 -228.5t-199 -157t-287.5 -56.5q-135 0 -244 39.5t-181.5 106.5t-121 160t-69.5 196.5t-21 220.5zM358 1919 h301l181 -317h-174z" />
<glyph unicode="&#xda;" horiz-adv-x="1536" d="M131 713v741h283v-741q0 -96 18.5 -177.5t58 -149.5t110 -107t165.5 -39q97 0 168.5 39.5t111 108.5t58 149.5t18.5 175.5v741h281v-741q0 -153 -37 -281t-111.5 -228.5t-199 -157t-287.5 -56.5q-135 0 -244 39.5t-181.5 106.5t-121 160t-69.5 196.5t-21 220.5zM692 1602 l180 317h302l-308 -317h-174z" />
<glyph unicode="&#xdb;" horiz-adv-x="1536" d="M131 713v741h283v-741q0 -96 18.5 -177.5t58 -149.5t110 -107t165.5 -39q97 0 168.5 39.5t111 108.5t58 149.5t18.5 175.5v741h281v-741q0 -153 -37 -281t-111.5 -228.5t-199 -157t-287.5 -56.5q-135 0 -244 39.5t-181.5 106.5t-121 160t-69.5 196.5t-21 220.5zM356 1602 l308 317h213l307 -317h-301l-113 198l-113 -198h-301z" />
<glyph unicode="&#xdc;" horiz-adv-x="1536" d="M131 713v741h283v-741q0 -96 18.5 -177.5t58 -149.5t110 -107t165.5 -39q97 0 168.5 39.5t111 108.5t58 149.5t18.5 175.5v741h281v-741q0 -153 -37 -281t-111.5 -228.5t-199 -157t-287.5 -56.5q-135 0 -244 39.5t-181.5 106.5t-121 160t-69.5 196.5t-21 220.5zM362 1726 q0 60 46 105t106 45q59 0 105.5 -45.5t46.5 -104.5q0 -61 -46.5 -106t-105.5 -45q-60 0 -106 45.5t-46 105.5zM868 1731q0 60 46 104.5t106 44.5q59 0 105 -45t46 -104q0 -61 -46 -106.5t-105 -45.5q-60 0 -106 46t-46 106z" />
<glyph unicode="&#xdd;" horiz-adv-x="1351" d="M8 1454h307l359 -700l364 700h305l-528 -946v-508h-280v512zM600 1602l180 317h301l-307 -317h-174z" />
<glyph unicode="&#xde;" horiz-adv-x="1236" d="M152 0v1454h282v-262h299q97 0 184.5 -42t148 -109.5t95.5 -154.5t35 -177q0 -126 -56 -236t-160.5 -179t-234.5 -69h-311v-225h-282zM434 473h297q79 0 131.5 69t52.5 167q0 99 -59 167t-137 68h-285v-471z" />
<glyph unicode="&#xdf;" horiz-adv-x="1142" d="M125 0v1069q0 171 129.5 282t325.5 111q174 0 286.5 -92t112.5 -244q0 -104 -52 -190t-126 -113q132 -37 208 -141.5t76 -251.5q0 -91 -31 -165t-84.5 -124t-128 -84.5t-158 -50.5t-177.5 -18v252q133 2 213 57t80 164q0 101 -69 161t-165 60h-43v246h39q73 0 115.5 41.5 t42.5 109.5q0 54 -28 89.5t-62.5 48t-71.5 12.5q-89 0 -130.5 -62.5t-41.5 -144.5v-1022h-260z" />
<glyph unicode="&#xe0;" horiz-adv-x="1157" d="M51 319q0 107 64 187t166.5 120t226.5 40q156 0 262 -48v62q0 105 -61.5 163t-178.5 58q-161 0 -335 -121l-84 174q210 138 446 138q234 0 360.5 -116.5t126.5 -326.5v-649h-264v150q-121 -170 -362 -170q-157 0 -262 96.5t-105 242.5zM147 1538h302l180 -317h-174z M311 342q0 -71 54 -116.5t131 -45.5q66 0 129.5 23t99.5 67q45 36 45 78v123q-103 41 -217 41q-98 0 -170 -45t-72 -125z" />
<glyph unicode="&#xe1;" horiz-adv-x="1157" d="M51 319q0 107 64 187t166.5 120t226.5 40q156 0 262 -48v62q0 105 -61.5 163t-178.5 58q-161 0 -335 -121l-84 174q210 138 446 138q234 0 360.5 -116.5t126.5 -326.5v-649h-264v150q-121 -170 -362 -170q-157 0 -262 96.5t-105 242.5zM311 342q0 -71 54 -116.5 t131 -45.5q66 0 129.5 23t99.5 67q45 36 45 78v123q-103 41 -217 41q-98 0 -170 -45t-72 -125zM481 1221l181 317h301l-308 -317h-174z" />
<glyph unicode="&#xe2;" horiz-adv-x="1157" d="M51 319q0 107 64 187t166.5 120t226.5 40q156 0 262 -48v62q0 105 -61.5 163t-178.5 58q-161 0 -335 -121l-84 174q210 138 446 138q234 0 360.5 -116.5t126.5 -326.5v-649h-264v150q-121 -170 -362 -170q-157 0 -262 96.5t-105 242.5zM145 1221l308 317h213l307 -317 h-301l-113 198l-113 -198h-301zM311 342q0 -71 54 -116.5t131 -45.5q66 0 129.5 23t99.5 67q45 36 45 78v123q-103 41 -217 41q-98 0 -170 -45t-72 -125z" />
<glyph unicode="&#xe3;" horiz-adv-x="1157" d="M51 319q0 107 64 187t166.5 120t226.5 40q156 0 262 -48v62q0 105 -61.5 163t-178.5 58q-161 0 -335 -121l-84 174q210 138 446 138q234 0 360.5 -116.5t126.5 -326.5v-649h-264v150q-121 -170 -362 -170q-157 0 -262 96.5t-105 242.5zM172 1227q0 18 7.5 47t25.5 67 t44 70.5t69 55t94 22.5q42 0 81 -15t64 -33t59 -33t66 -15q28 0 49 10t32 23.5t18 29.5t8.5 25t1.5 14h151q0 -14 -7.5 -42t-27 -66.5t-46.5 -72.5t-72 -57.5t-99 -23.5q-52 0 -100 23t-89.5 46t-78.5 23q-26 0 -45.5 -10t-29 -22.5t-15.5 -28.5t-7 -24.5t-1 -12.5h-152z M311 342q0 -71 54 -116.5t131 -45.5q66 0 129.5 23t99.5 67q45 36 45 78v123q-103 41 -217 41q-98 0 -170 -45t-72 -125z" />
<glyph unicode="&#xe4;" horiz-adv-x="1157" d="M51 319q0 107 64 187t166.5 120t226.5 40q156 0 262 -48v62q0 105 -61.5 163t-178.5 58q-161 0 -335 -121l-84 174q210 138 446 138q234 0 360.5 -116.5t126.5 -326.5v-649h-264v150q-121 -170 -362 -170q-157 0 -262 96.5t-105 242.5zM152 1346q0 60 45.5 104.5 t105.5 44.5q59 0 105.5 -45t46.5 -104q0 -61 -46.5 -106.5t-105.5 -45.5q-60 0 -105.5 46t-45.5 106zM311 342q0 -71 54 -116.5t131 -45.5q66 0 129.5 23t99.5 67q45 36 45 78v123q-103 41 -217 41q-98 0 -170 -45t-72 -125zM657 1350q0 60 46 104.5t106 44.5 q59 0 105.5 -45t46.5 -104q0 -61 -46.5 -106.5t-105.5 -45.5q-60 0 -106 46t-46 106z" />
<glyph unicode="&#xe5;" horiz-adv-x="1157" d="M51 319q0 107 64 187t166.5 120t226.5 40q156 0 262 -48v62q0 105 -61.5 163t-178.5 58q-161 0 -335 -121l-84 174q210 138 446 138q234 0 360.5 -116.5t126.5 -326.5v-649h-264v150q-121 -170 -362 -170q-157 0 -262 96.5t-105 242.5zM311 342q0 -71 54 -116.5 t131 -45.5q66 0 129.5 23t99.5 67q45 36 45 78v123q-103 41 -217 41q-98 0 -170 -45t-72 -125zM332 1360q0 84 61 131t164 47t164 -47t61 -131q0 -85 -61 -132.5t-164 -47.5t-164 47.5t-61 132.5zM463 1360q0 -35 27 -59.5t67 -24.5q38 0 66 24t28 60q0 37 -26.5 59.5 t-67.5 22.5q-40 0 -67 -22.5t-27 -59.5z" />
<glyph unicode="&#xe6;" horiz-adv-x="1918" d="M51 319q0 153 128 250t329 97q142 0 242 -41q5 57 16 90q-18 186 -236 186q-160 0 -337 -121l-84 174q212 138 448 138q248 0 375 -152q149 152 381 152q170 0 299.5 -77t196 -202t67.5 -276q0 -19 -6 -88h-840q9 -123 93 -196t202 -73q83 0 155.5 40.5t98.5 105.5 l236 -66q-62 -127 -194 -203.5t-306 -76.5q-148 0 -267.5 59t-193.5 162q-67 -109 -189.5 -165t-246.5 -56q-157 0 -262 96.5t-105 242.5zM309 342q0 -69 54.5 -115.5t132.5 -46.5q69 0 130.5 24.5t98.5 65.5q45 33 45 74q-13 26 -20 133q-103 35 -197 35q-106 0 -175 -48 t-69 -122zM1026 618h567q-11 123 -89 199t-195 76t-195.5 -76t-87.5 -199z" />
<glyph unicode="&#xe7;" horiz-adv-x="1155" d="M57 537q0 151 67.5 276t198 202t300.5 77t296 -74t189 -201l-268 -82q-34 58 -92 90.5t-127 32.5q-120 0 -200.5 -90t-80.5 -231q0 -139 82 -231.5t199 -92.5q73 0 135.5 36t87.5 91l268 -82q-57 -125 -186 -201.5t-301 -76.5q-127 0 -235 45.5t-180 122t-112.5 177.5 t-40.5 212zM336 -360l55 100q28 -15 79 -27t103 -12q115 0 115 68q0 67 -106 67q-65 0 -164 -24l125 245l106 -32l-71 -111q24 8 65 8q77 0 125.5 -36t48.5 -107q0 -81 -67 -130.5t-195 -49.5q-121 0 -219 41z" />
<glyph unicode="&#xe8;" horiz-adv-x="1226" d="M57 530q0 153 68 280.5t199 204.5t301 77q128 0 234.5 -45t177 -121.5t109 -175.5t38.5 -209q0 -57 -6 -92h-830q10 -122 92 -195.5t193 -73.5q83 0 155.5 40.5t98.5 105.5l235 -66q-60 -126 -192.5 -203t-306.5 -77q-168 0 -299 76t-199 200.5t-68 273.5zM205 1538h301 l180 -317h-174zM344 627h557q-10 119 -88.5 192.5t-191.5 73.5q-112 0 -190 -73.5t-87 -192.5z" />
<glyph unicode="&#xe9;" horiz-adv-x="1226" d="M57 530q0 153 68 280.5t199 204.5t301 77q128 0 234.5 -45t177 -121.5t109 -175.5t38.5 -209q0 -57 -6 -92h-830q10 -122 92 -195.5t193 -73.5q83 0 155.5 40.5t98.5 105.5l235 -66q-60 -126 -192.5 -203t-306.5 -77q-168 0 -299 76t-199 200.5t-68 273.5zM344 627h557 q-10 119 -88.5 192.5t-191.5 73.5q-112 0 -190 -73.5t-87 -192.5zM539 1221l180 317h301l-307 -317h-174z" />
<glyph unicode="&#xea;" horiz-adv-x="1226" d="M57 530q0 153 68 280.5t199 204.5t301 77q128 0 234.5 -45t177 -121.5t109 -175.5t38.5 -209q0 -57 -6 -92h-830q10 -122 92 -195.5t193 -73.5q83 0 155.5 40.5t98.5 105.5l235 -66q-60 -126 -192.5 -203t-306.5 -77q-168 0 -299 76t-199 200.5t-68 273.5zM203 1221 l307 317h213l307 -317h-301l-113 198l-112 -198h-301zM344 627h557q-10 119 -88.5 192.5t-191.5 73.5q-112 0 -190 -73.5t-87 -192.5z" />
<glyph unicode="&#xeb;" horiz-adv-x="1226" d="M57 530q0 153 68 280.5t199 204.5t301 77q128 0 234.5 -45t177 -121.5t109 -175.5t38.5 -209q0 -57 -6 -92h-830q10 -122 92 -195.5t193 -73.5q83 0 155.5 40.5t98.5 105.5l235 -66q-60 -126 -192.5 -203t-306.5 -77q-168 0 -299 76t-199 200.5t-68 273.5zM209 1346 q0 60 45.5 104.5t105.5 44.5q59 0 105.5 -45t46.5 -104q0 -61 -46.5 -106.5t-105.5 -45.5q-60 0 -105.5 46t-45.5 106zM344 627h557q-10 119 -88.5 192.5t-191.5 73.5q-112 0 -190 -73.5t-87 -192.5zM715 1350q0 60 45.5 104.5t105.5 44.5q59 0 105.5 -45t46.5 -104 q0 -61 -46.5 -106.5t-105.5 -45.5q-60 0 -105.5 46t-45.5 106z" />
<glyph unicode="&#xec;" d="M-147 1538h301l180 -317h-174zM125 0v1073h274v-1073h-274z" />
<glyph unicode="&#xed;" d="M125 0v1073h274v-1073h-274zM186 1221l181 317h301l-308 -317h-174z" />
<glyph unicode="&#xee;" d="M-150 1221l308 317h213l307 -317h-301l-113 198l-112 -198h-302zM125 0v1073h274v-1073h-274z" />
<glyph unicode="&#xef;" d="M-143 1346q0 60 45.5 104.5t105.5 44.5q59 0 105.5 -45t46.5 -104q0 -61 -46.5 -106.5t-105.5 -45.5q-60 0 -105.5 46t-45.5 106zM125 0v1073h274v-1073h-274zM362 1350q0 60 46 104.5t106 44.5q59 0 105.5 -45t46.5 -104q0 -61 -46.5 -106.5t-105.5 -45.5q-60 0 -106 46 t-46 106z" />
<glyph unicode="&#xf0;" horiz-adv-x="1255" d="M63 477q0 133 66 246t180 178.5t250 65.5q104 0 197 -43.5t151 -116.5q-47 211 -184 369l-191 -107l-79 107l174 96q-129 114 -328 223h352q100 -54 185 -127l161 92l80 -108l-145 -80q125 -145 190.5 -324t65.5 -354q0 -281 -158.5 -447.5t-408.5 -166.5 q-156 0 -283.5 64.5t-201 178.5t-73.5 254zM346 479q0 -114 79.5 -190t199.5 -76q121 0 201.5 78.5t80.5 193.5q0 113 -79.5 186.5t-198.5 73.5q-121 0 -202 -76t-81 -190z" />
<glyph unicode="&#xf1;" horiz-adv-x="1236" d="M125 0v1073h248v-199q60 102 173.5 160t252.5 58q78 0 136.5 -24.5t93.5 -63.5t56.5 -96t29 -113.5t7.5 -124.5v-670h-274v602q0 248 -170 248q-85 0 -167 -64t-112 -159v-627h-274zM233 1227q0 18 7.5 47t25.5 67t44 70.5t69 55t94 22.5q42 0 81 -15t64 -33t59 -33 t66 -15q28 0 49 10t32 23.5t18 29.5t8.5 25t1.5 14h152q0 -14 -7.5 -42t-27 -66.5t-46.5 -72.5t-72 -57.5t-99 -23.5q-52 0 -100.5 23t-90 46t-78.5 23q-26 0 -45.5 -10t-29 -22.5t-15.5 -28.5t-7 -24.5t-1 -12.5h-152z" />
<glyph unicode="&#xf2;" horiz-adv-x="1241" d="M57 535q0 112 40 213t111 177.5t178.5 121.5t234.5 45q169 0 298.5 -77.5t196 -203t66.5 -276.5q0 -111 -39 -211.5t-109.5 -177t-177.5 -121.5t-235 -45q-103 0 -193 29.5t-157 81.5t-116 121.5t-73.5 152t-24.5 170.5zM211 1538h301l180 -317h-174zM340 535 q0 -140 80.5 -231t200.5 -91q119 0 199.5 92t80.5 232q0 139 -80.5 230t-199.5 91t-200 -92t-81 -231z" />
<glyph unicode="&#xf3;" horiz-adv-x="1241" d="M57 535q0 112 40 213t111 177.5t178.5 121.5t234.5 45q169 0 298.5 -77.5t196 -203t66.5 -276.5q0 -111 -39 -211.5t-109.5 -177t-177.5 -121.5t-235 -45q-103 0 -193 29.5t-157 81.5t-116 121.5t-73.5 152t-24.5 170.5zM340 535q0 -140 80.5 -231t200.5 -91 q119 0 199.5 92t80.5 232q0 139 -80.5 230t-199.5 91t-200 -92t-81 -231zM545 1221l180 317h301l-307 -317h-174z" />
<glyph unicode="&#xf4;" horiz-adv-x="1241" d="M57 535q0 112 40 213t111 177.5t178.5 121.5t234.5 45q169 0 298.5 -77.5t196 -203t66.5 -276.5q0 -111 -39 -211.5t-109.5 -177t-177.5 -121.5t-235 -45q-103 0 -193 29.5t-157 81.5t-116 121.5t-73.5 152t-24.5 170.5zM209 1221l307 317h213l307 -317h-301l-112 198 l-113 -198h-301zM340 535q0 -140 80.5 -231t200.5 -91q119 0 199.5 92t80.5 232q0 139 -80.5 230t-199.5 91t-200 -92t-81 -231z" />
<glyph unicode="&#xf5;" horiz-adv-x="1241" d="M57 535q0 112 40 213t111 177.5t178.5 121.5t234.5 45q169 0 298.5 -77.5t196 -203t66.5 -276.5q0 -111 -39 -211.5t-109.5 -177t-177.5 -121.5t-235 -45q-103 0 -193 29.5t-157 81.5t-116 121.5t-73.5 152t-24.5 170.5zM236 1227q0 24 13 63.5t38.5 86t75 79.5t112.5 33 q42 0 81 -15t64 -33t59 -33t66 -15q28 0 49 10t32 23.5t18 29.5t8.5 25t1.5 14h152q0 -14 -7.5 -42t-27 -66.5t-46.5 -72.5t-72 -57.5t-99 -23.5q-52 0 -100.5 23t-90 46t-78.5 23q-26 0 -45.5 -10t-29 -22.5t-15.5 -28.5t-7 -24.5t-1 -12.5h-151zM340 535q0 -140 80.5 -231 t200.5 -91q119 0 199.5 92t80.5 232q0 139 -80.5 230t-199.5 91t-200 -92t-81 -231z" />
<glyph unicode="&#xf6;" horiz-adv-x="1241" d="M57 535q0 112 40 213t111 177.5t178.5 121.5t234.5 45q169 0 298.5 -77.5t196 -203t66.5 -276.5q0 -111 -39 -211.5t-109.5 -177t-177.5 -121.5t-235 -45q-103 0 -193 29.5t-157 81.5t-116 121.5t-73.5 152t-24.5 170.5zM215 1346q0 60 46 104.5t106 44.5q59 0 105 -45 t46 -104q0 -61 -46 -106.5t-105 -45.5q-60 0 -106 46t-46 106zM340 535q0 -140 80.5 -231t200.5 -91q119 0 199.5 92t80.5 232q0 139 -80.5 230t-199.5 91t-200 -92t-81 -231zM721 1350q0 60 45.5 104.5t105.5 44.5q59 0 105.5 -45t46.5 -104q0 -61 -46.5 -106.5 t-105.5 -45.5q-60 0 -105.5 46t-45.5 106z" />
<glyph unicode="&#xf7;" horiz-adv-x="1046" d="M111 500v219h827v-219h-827zM356 229q0 66 51 116t117 50q65 0 116.5 -50.5t51.5 -115.5q0 -67 -51.5 -117.5t-116.5 -50.5q-66 0 -117 51t-51 117zM356 993q0 66 51 116t117 50q65 0 116.5 -50.5t51.5 -115.5q0 -67 -51.5 -117.5t-116.5 -50.5q-66 0 -117 51t-51 117z " />
<glyph unicode="&#xf8;" horiz-adv-x="1241" d="M57 535q0 112 40 213t111 177.5t178.5 121.5t234.5 45q169 0 298.5 -77.5t196 -203t66.5 -276.5q0 -111 -39 -211.5t-109.5 -177t-177.5 -121.5t-235 -45q-103 0 -193 29.5t-157 81.5t-116 121.5t-73.5 152t-24.5 170.5zM102 -8l869 1089h155l-868 -1089h-156zM340 535 q0 -140 80.5 -231t200.5 -91q119 0 199.5 92t80.5 232q0 139 -80.5 230t-199.5 91t-200 -92t-81 -231z" />
<glyph unicode="&#xf9;" horiz-adv-x="1243" d="M115 401v672h274v-612q0 -248 186 -248q79 0 152 52t117 143v665h274v-1073h-264v184q-57 -99 -160 -151.5t-225 -52.5q-354 0 -354 421zM213 1538h301l180 -317h-174z" />
<glyph unicode="&#xfa;" horiz-adv-x="1243" d="M115 401v672h274v-612q0 -248 186 -248q79 0 152 52t117 143v665h274v-1073h-264v184q-57 -99 -160 -151.5t-225 -52.5q-354 0 -354 421zM547 1221l180 317h301l-307 -317h-174z" />
<glyph unicode="&#xfb;" horiz-adv-x="1243" d="M115 401v672h274v-612q0 -248 186 -248q79 0 152 52t117 143v665h274v-1073h-264v184q-57 -99 -160 -151.5t-225 -52.5q-354 0 -354 421zM211 1221l307 317h213l307 -317h-301l-112 198l-113 -198h-301z" />
<glyph unicode="&#xfc;" horiz-adv-x="1243" d="M115 401v672h274v-612q0 -248 186 -248q79 0 152 52t117 143v665h274v-1073h-264v184q-57 -99 -160 -151.5t-225 -52.5q-354 0 -354 421zM217 1346q0 60 46 104.5t106 44.5q59 0 105 -45t46 -104q0 -61 -46 -106.5t-105 -45.5q-60 0 -106 46t-46 106zM723 1350 q0 60 45.5 104.5t105.5 44.5q59 0 105.5 -45t46.5 -104q0 -61 -46.5 -106.5t-105.5 -45.5q-60 0 -105.5 46t-45.5 106z" />
<glyph unicode="&#xfd;" horiz-adv-x="1126" d="M12 1073h283l291 -835l258 835h258l-451 -1286q-39 -116 -135.5 -186t-230.5 -70q-68 0 -138 23v237q78 -20 123 -20q56 0 90.5 47t75.5 182zM487 1221l181 317h301l-307 -317h-175z" />
<glyph unicode="&#xfe;" horiz-adv-x="1230" d="M125 -436v1890h281v-465q83 115 247 115q93 0 176.5 -33.5t145.5 -91t108 -132t69.5 -157.5t23.5 -166q-1 -150 -73.5 -282t-197 -211.5t-268.5 -79.5q-86 0 -145.5 31.5t-85.5 72.5v-491h-281zM406 360q0 -57 72.5 -109t150.5 -52q114 0 190 96t76 233t-71 232.5 t-187 95.5q-143 0 -231 -168v-328z" />
<glyph unicode="&#xff;" horiz-adv-x="1126" d="M12 1073h283l291 -835l258 835h258l-451 -1286q-39 -116 -135.5 -186t-230.5 -70q-68 0 -138 23v237q78 -20 123 -20q56 0 90.5 47t75.5 182zM158 1346q0 60 45.5 104.5t105.5 44.5q59 0 105.5 -45t46.5 -104q0 -61 -46.5 -106.5t-105.5 -45.5q-60 0 -105.5 46t-45.5 106 zM664 1350q0 60 45.5 104.5t105.5 44.5q59 0 105.5 -45t46.5 -104q0 -61 -46.5 -106.5t-105.5 -45.5q-60 0 -105.5 46t-45.5 106z" />
<glyph unicode="&#x100;" horiz-adv-x="1376" d="M10 0l555 1454h250l553 -1454h-291l-135 362h-508l-133 -362h-291zM381 1677v170h614v-170h-614zM481 561h410l-201 572z" />
<glyph unicode="&#x101;" horiz-adv-x="1157" d="M51 319q0 107 64 187t166.5 120t226.5 40q156 0 262 -48v62q0 105 -61.5 163t-178.5 58q-161 0 -335 -121l-84 174q210 138 446 138q234 0 360.5 -116.5t126.5 -326.5v-649h-264v150q-121 -170 -362 -170q-157 0 -262 96.5t-105 242.5zM250 1296v170h614v-170h-614z M311 342q0 -71 54 -116.5t131 -45.5q66 0 129.5 23t99.5 67q45 36 45 78v123q-103 41 -217 41q-98 0 -170 -45t-72 -125z" />
<glyph unicode="&#x102;" horiz-adv-x="1376" d="M10 0l555 1454h250l553 -1454h-291l-135 362h-508l-133 -362h-291zM379 1919h170q0 -70 42.5 -122t98.5 -52q54 0 94.5 49.5t46.5 124.5h170q0 -137 -88 -227t-223 -90t-223 90t-88 227zM481 561h410l-201 572z" />
<glyph unicode="&#x103;" horiz-adv-x="1157" d="M51 319q0 107 64 187t166.5 120t226.5 40q156 0 262 -48v62q0 105 -61.5 163t-178.5 58q-161 0 -335 -121l-84 174q210 138 446 138q234 0 360.5 -116.5t126.5 -326.5v-649h-264v150q-121 -170 -362 -170q-157 0 -262 96.5t-105 242.5zM248 1538h170q0 -70 42.5 -122 t98.5 -52q54 0 94.5 49.5t46.5 124.5h170q0 -137 -88 -227t-223 -90t-223 90t-88 227zM311 342q0 -71 54 -116.5t131 -45.5q66 0 129.5 23t99.5 67q45 36 45 78v123q-103 41 -217 41q-98 0 -170 -45t-72 -125z" />
<glyph unicode="&#x104;" horiz-adv-x="1376" d="M10 0l555 1454h250l553 -1454h-291l-135 362h-508l-133 -362h-291zM481 561h410l-201 572zM1032 -223q0 69 61.5 137.5t182.5 128.5l80 -43q-158 -94 -158 -174q0 -75 127 -84l-57 -143q-115 17 -175.5 65t-60.5 113z" />
<glyph unicode="&#x105;" horiz-adv-x="1157" d="M51 319q0 107 64 187t166.5 120t226.5 40q156 0 262 -48v62q0 105 -61.5 163t-178.5 58q-161 0 -335 -121l-84 174q210 138 446 138q234 0 360.5 -116.5t126.5 -326.5v-649h-264v150q-121 -170 -362 -170q-157 0 -262 96.5t-105 242.5zM311 342q0 -71 54 -116.5 t131 -45.5q66 0 129.5 23t99.5 67q45 36 45 78v123q-103 41 -217 41q-98 0 -170 -45t-72 -125zM717 -223q0 69 61.5 137.5t182.5 128.5l79 -43q-157 -93 -157 -174q0 -75 127 -84l-58 -143q-115 17 -175 65t-60 113z" />
<glyph unicode="&#x106;" horiz-adv-x="1404" d="M63 737q0 134 49.5 263t138.5 232t227 166.5t302 63.5q195 0 344.5 -86t221.5 -231l-218 -150q-35 78 -97 128.5t-125.5 69.5t-133.5 19q-102 0 -184.5 -42.5t-133 -112.5t-77.5 -154.5t-27 -173.5q0 -129 53 -241t152 -181t221 -69q70 0 137 21.5t128.5 73t93.5 126.5 l231 -133q-43 -104 -141.5 -182.5t-217 -117t-239.5 -38.5t-232 42t-195.5 115.5t-148 168t-96.5 204t-33 219.5zM627 1602l180 317h301l-307 -317h-174z" />
<glyph unicode="&#x107;" horiz-adv-x="1155" d="M57 537q0 151 67.5 276t198 202t300.5 77t296 -74t189 -201l-268 -82q-34 58 -92 90.5t-127 32.5q-120 0 -200.5 -90t-80.5 -231q0 -139 82 -231.5t199 -92.5q73 0 135.5 36t87.5 91l268 -82q-57 -125 -186 -201.5t-301 -76.5q-127 0 -235 45.5t-180 122t-112.5 177.5 t-40.5 212zM502 1221l180 317h301l-307 -317h-174z" />
<glyph unicode="&#x108;" horiz-adv-x="1404" d="M63 737q0 134 49.5 263t138.5 232t227 166.5t302 63.5q195 0 344.5 -86t221.5 -231l-218 -150q-35 78 -97 128.5t-125.5 69.5t-133.5 19q-102 0 -184.5 -42.5t-133 -112.5t-77.5 -154.5t-27 -173.5q0 -129 53 -241t152 -181t221 -69q70 0 137 21.5t128.5 73t93.5 126.5 l231 -133q-43 -104 -141.5 -182.5t-217 -117t-239.5 -38.5t-232 42t-195.5 115.5t-148 168t-96.5 204t-33 219.5zM291 1602l307 317h213l307 -317h-301l-112 198l-113 -198h-301z" />
<glyph unicode="&#x109;" horiz-adv-x="1155" d="M57 537q0 151 67.5 276t198 202t300.5 77t296 -74t189 -201l-268 -82q-34 58 -92 90.5t-127 32.5q-120 0 -200.5 -90t-80.5 -231q0 -139 82 -231.5t199 -92.5q73 0 135.5 36t87.5 91l268 -82q-57 -125 -186 -201.5t-301 -76.5q-127 0 -235 45.5t-180 122t-112.5 177.5 t-40.5 212zM166 1221l307 317h213l307 -317h-301l-112 198l-113 -198h-301z" />
<glyph unicode="&#x10a;" horiz-adv-x="1404" d="M63 737q0 134 49.5 263t138.5 232t227 166.5t302 63.5q195 0 344.5 -86t221.5 -231l-218 -150q-35 78 -97 128.5t-125.5 69.5t-133.5 19q-102 0 -184.5 -42.5t-133 -112.5t-77.5 -154.5t-27 -173.5q0 -129 53 -241t152 -181t221 -69q70 0 137 21.5t128.5 73t93.5 126.5 l231 -133q-43 -104 -141.5 -182.5t-217 -117t-239.5 -38.5t-232 42t-195.5 115.5t-148 168t-96.5 204t-33 219.5zM543 1737q0 63 48 110t111 47q62 0 111 -47.5t49 -109.5q0 -64 -49 -112t-111 -48q-63 0 -111 48.5t-48 111.5z" />
<glyph unicode="&#x10b;" horiz-adv-x="1155" d="M57 537q0 151 67.5 276t198 202t300.5 77t296 -74t189 -201l-268 -82q-34 58 -92 90.5t-127 32.5q-120 0 -200.5 -90t-80.5 -231q0 -139 82 -231.5t199 -92.5q73 0 135.5 36t87.5 91l268 -82q-57 -125 -186 -201.5t-301 -76.5q-127 0 -235 45.5t-180 122t-112.5 177.5 t-40.5 212zM418 1356q0 63 48.5 110t111.5 47q62 0 110.5 -47.5t48.5 -109.5q0 -64 -48.5 -112t-110.5 -48q-63 0 -111.5 48.5t-48.5 111.5z" />
<glyph unicode="&#x10c;" horiz-adv-x="1404" d="M63 737q0 134 49.5 263t138.5 232t227 166.5t302 63.5q195 0 344.5 -86t221.5 -231l-218 -150q-35 78 -97 128.5t-125.5 69.5t-133.5 19q-102 0 -184.5 -42.5t-133 -112.5t-77.5 -154.5t-27 -173.5q0 -129 53 -241t152 -181t221 -69q70 0 137 21.5t128.5 73t93.5 126.5 l231 -133q-43 -104 -141.5 -182.5t-217 -117t-239.5 -38.5t-232 42t-195.5 115.5t-148 168t-96.5 204t-33 219.5zM297 1919h301l113 -199l112 199h301l-307 -317h-213z" />
<glyph unicode="&#x10d;" horiz-adv-x="1155" d="M57 537q0 151 67.5 276t198 202t300.5 77t296 -74t189 -201l-268 -82q-34 58 -92 90.5t-127 32.5q-120 0 -200.5 -90t-80.5 -231q0 -139 82 -231.5t199 -92.5q73 0 135.5 36t87.5 91l268 -82q-57 -125 -186 -201.5t-301 -76.5q-127 0 -235 45.5t-180 122t-112.5 177.5 t-40.5 212zM172 1538h301l113 -199l112 199h301l-307 -317h-213z" />
<glyph unicode="&#x10e;" horiz-adv-x="1466" d="M152 0v1454h528q173 0 311.5 -56.5t226 -156t133.5 -230t46 -282.5q0 -331 -195.5 -530t-521.5 -199h-528zM274 1919h301l113 -199l113 199h301l-307 -317h-213zM434 248h246q203 0 317.5 134.5t114.5 346.5q0 215 -115 346t-317 131h-246v-958z" />
<glyph unicode="&#x10f;" horiz-adv-x="1298" d="M59 537q0 153 62 280t172 201t244 74q116 0 211 -56.5t153 -150.5v610h275v-1495h-275v168q-53 -90 -138 -139t-194 -49q-146 0 -263 74t-182 201.5t-65 281.5zM344 530q0 -134 84.5 -225.5t210.5 -91.5q83 0 159.5 51.5t102.5 128.5v256q-33 91 -112.5 150t-165.5 59 q-120 0 -199.5 -98t-79.5 -230zM1229 1141l71 315h232l-109 -315h-194z" />
<glyph unicode="&#x110;" horiz-adv-x="1466" d="M63 629v205h666v-205h-666zM160 0v1454h528q173 0 311.5 -56.5t226 -156t133.5 -230t46 -282.5q0 -331 -195.5 -530t-521.5 -199h-528zM442 248h246q203 0 317.5 134.5t114.5 346.5q0 215 -115 346t-317 131h-246v-958z" />
<glyph unicode="&#x111;" horiz-adv-x="1298" d="M59 537q0 153 62 280t172 201t244 74q116 0 211 -56.5t153 -150.5v610h275v-1495h-275v168q-53 -90 -138 -139t-194 -49q-146 0 -263 74t-182 201.5t-65 281.5zM344 530q0 -134 84.5 -225.5t210.5 -91.5q83 0 159.5 51.5t102.5 128.5v256q-33 91 -112.5 150t-165.5 59 q-120 0 -199.5 -98t-79.5 -230zM690 1210v170h615v-170h-615z" />
<glyph unicode="&#x112;" horiz-adv-x="1230" d="M152 0v1454h991v-248h-709v-350h613v-229h-613v-379h727v-248h-1009zM330 1677v170h614v-170h-614z" />
<glyph unicode="&#x113;" horiz-adv-x="1226" d="M57 530q0 153 68 280.5t199 204.5t301 77q128 0 234.5 -45t177 -121.5t109 -175.5t38.5 -209q0 -57 -6 -92h-830q10 -122 92 -195.5t193 -73.5q83 0 155.5 40.5t98.5 105.5l235 -66q-60 -126 -192.5 -203t-306.5 -77q-168 0 -299 76t-199 200.5t-68 273.5zM307 1296v170 h615v-170h-615zM344 627h557q-10 119 -88.5 192.5t-191.5 73.5q-112 0 -190 -73.5t-87 -192.5z" />
<glyph unicode="&#x114;" horiz-adv-x="1230" d="M152 0v1454h991v-248h-709v-350h613v-229h-613v-379h727v-248h-1009zM328 1919h170q0 -70 42.5 -122t98.5 -52q54 0 94.5 49.5t46.5 124.5h170q0 -137 -88 -227t-223 -90t-223 90t-88 227z" />
<glyph unicode="&#x115;" horiz-adv-x="1226" d="M57 530q0 153 68 280.5t199 204.5t301 77q128 0 234.5 -45t177 -121.5t109 -175.5t38.5 -209q0 -57 -6 -92h-830q10 -122 92 -195.5t193 -73.5q83 0 155.5 40.5t98.5 105.5l235 -66q-60 -126 -192.5 -203t-306.5 -77q-168 0 -299 76t-199 200.5t-68 273.5zM305 1538h170 q0 -70 42.5 -122t98.5 -52q54 0 95 49.5t47 124.5h170q0 -137 -88.5 -227t-223.5 -90t-223 90t-88 227zM344 627h557q-10 119 -88.5 192.5t-191.5 73.5q-112 0 -190 -73.5t-87 -192.5z" />
<glyph unicode="&#x116;" horiz-adv-x="1230" d="M152 0v1454h991v-248h-709v-350h613v-229h-613v-379h727v-248h-1009zM477 1737q0 63 48.5 110t111.5 47q62 0 111 -47.5t49 -109.5q0 -64 -49 -112t-111 -48q-63 0 -111.5 48.5t-48.5 111.5z" />
<glyph unicode="&#x117;" horiz-adv-x="1226" d="M57 530q0 153 68 280.5t199 204.5t301 77q128 0 234.5 -45t177 -121.5t109 -175.5t38.5 -209q0 -57 -6 -92h-830q10 -122 92 -195.5t193 -73.5q83 0 155.5 40.5t98.5 105.5l235 -66q-60 -126 -192.5 -203t-306.5 -77q-168 0 -299 76t-199 200.5t-68 273.5zM344 627h557 q-10 119 -88.5 192.5t-191.5 73.5q-112 0 -190 -73.5t-87 -192.5zM455 1356q0 63 48 110t111 47q62 0 111 -47.5t49 -109.5q0 -64 -49 -112t-111 -48q-63 0 -111 48.5t-48 111.5z" />
<glyph unicode="&#x118;" horiz-adv-x="1230" d="M152 0v1454h991v-248h-709v-350h613v-229h-613v-379h727v-248h-1009zM834 -223q0 69 61 137.5t182 128.5l80 -43q-158 -94 -158 -174q0 -75 127 -84l-57 -143q-115 17 -175 65t-60 113z" />
<glyph unicode="&#x119;" horiz-adv-x="1226" d="M57 530q0 153 68 280.5t199 204.5t301 77q128 0 234.5 -45t177 -121.5t109 -175.5t38.5 -209q0 -57 -6 -92h-830q10 -122 92 -195.5t193 -73.5q83 0 155.5 40.5t98.5 105.5l235 -66q-60 -126 -192.5 -203t-306.5 -77q-168 0 -299 76t-199 200.5t-68 273.5zM344 627h557 q-10 119 -88.5 192.5t-191.5 73.5q-112 0 -190 -73.5t-87 -192.5zM428 -223q0 69 61.5 137.5t182.5 128.5l80 -43q-158 -94 -158 -174q0 -75 127 -84l-57 -143q-115 17 -175.5 65t-60.5 113z" />
<glyph unicode="&#x11a;" horiz-adv-x="1230" d="M152 0v1454h991v-248h-709v-350h613v-229h-613v-379h727v-248h-1009zM231 1919h301l113 -199l113 199h301l-307 -317h-213z" />
<glyph unicode="&#x11b;" horiz-adv-x="1226" d="M57 530q0 153 68 280.5t199 204.5t301 77q128 0 234.5 -45t177 -121.5t109 -175.5t38.5 -209q0 -57 -6 -92h-830q10 -122 92 -195.5t193 -73.5q83 0 155.5 40.5t98.5 105.5l235 -66q-60 -126 -192.5 -203t-306.5 -77q-168 0 -299 76t-199 200.5t-68 273.5zM209 1538h301 l113 -199l112 199h301l-307 -317h-213zM344 627h557q-10 119 -88.5 192.5t-191.5 73.5q-112 0 -190 -73.5t-87 -192.5z" />
<glyph unicode="&#x11c;" horiz-adv-x="1576" d="M57 735q0 147 54 280t150 232.5t237.5 158t306.5 58.5q196 0 352 -80.5t252 -224.5l-213 -164q-20 35 -51 69t-80 70t-121.5 58t-155.5 22q-136 0 -239 -67.5t-155 -177t-52 -242.5q0 -129 50 -238t153 -179t241 -70q171 0 292.5 83.5t133.5 208.5h-329v236h622 q0 -2 -1 -67t-1 -70q-5 -128 -61 -246t-147 -204.5t-217 -138.5t-265 -52q-161 0 -303 60t-240.5 161t-155.5 237.5t-57 286.5zM354 1602l308 317h212l308 -317h-301l-113 198l-113 -198h-301z" />
<glyph unicode="&#x11d;" horiz-adv-x="1298" d="M61 537q0 154 63 280.5t178 200.5t259 74q121 0 216 -55t159 -152v188h240v-1022q0 -155 -77.5 -271.5t-212 -176.5t-306.5 -60q-169 0 -290.5 57t-211.5 167l149 145q62 -75 155.5 -118.5t197.5 -43.5q66 0 123 18t102 53.5t70.5 94.5t25.5 135v135q-53 -91 -149 -141.5 t-207 -50.5q-140 0 -251.5 74t-172 198t-60.5 271zM238 1221l307 317h213l307 -317h-301l-113 198l-112 -198h-301zM342 528q0 -133 85 -224t210 -91q87 0 160.5 52t103.5 128v256q-36 93 -114.5 151t-165.5 58q-122 0 -200.5 -98.5t-78.5 -231.5z" />
<glyph unicode="&#x11e;" horiz-adv-x="1576" d="M57 735q0 147 54 280t150 232.5t237.5 158t306.5 58.5q196 0 352 -80.5t252 -224.5l-213 -164q-20 35 -51 69t-80 70t-121.5 58t-155.5 22q-136 0 -239 -67.5t-155 -177t-52 -242.5q0 -129 50 -238t153 -179t241 -70q171 0 292.5 83.5t133.5 208.5h-329v236h622 q0 -2 -1 -67t-1 -70q-5 -128 -61 -246t-147 -204.5t-217 -138.5t-265 -52q-161 0 -303 60t-240.5 161t-155.5 237.5t-57 286.5zM457 1919h170q0 -70 42.5 -122t98.5 -52q54 0 94.5 49.5t46.5 124.5h170q0 -137 -88 -227t-223 -90t-223 90t-88 227z" />
<glyph unicode="&#x11f;" horiz-adv-x="1298" d="M61 537q0 154 63 280.5t178 200.5t259 74q121 0 216 -55t159 -152v188h240v-1022q0 -155 -77.5 -271.5t-212 -176.5t-306.5 -60q-169 0 -290.5 57t-211.5 167l149 145q62 -75 155.5 -118.5t197.5 -43.5q66 0 123 18t102 53.5t70.5 94.5t25.5 135v135q-53 -91 -149 -141.5 t-207 -50.5q-140 0 -251.5 74t-172 198t-60.5 271zM340 1538h170q0 -70 42.5 -122t98.5 -52q54 0 95 49.5t47 124.5h170q0 -137 -88.5 -227t-223.5 -90t-223 90t-88 227zM342 528q0 -133 85 -224t210 -91q87 0 160.5 52t103.5 128v256q-36 93 -114.5 151t-165.5 58 q-122 0 -200.5 -98.5t-78.5 -231.5z" />
<glyph unicode="&#x120;" horiz-adv-x="1576" d="M57 735q0 147 54 280t150 232.5t237.5 158t306.5 58.5q196 0 352 -80.5t252 -224.5l-213 -164q-20 35 -51 69t-80 70t-121.5 58t-155.5 22q-136 0 -239 -67.5t-155 -177t-52 -242.5q0 -129 50 -238t153 -179t241 -70q171 0 292.5 83.5t133.5 208.5h-329v236h622 q0 -2 -1 -67t-1 -70q-5 -128 -61 -246t-147 -204.5t-217 -138.5t-265 -52q-161 0 -303 60t-240.5 161t-155.5 237.5t-57 286.5zM606 1737q0 63 48.5 110t111.5 47q62 0 111 -47.5t49 -109.5q0 -64 -49 -112t-111 -48q-63 0 -111.5 48.5t-48.5 111.5z" />
<glyph unicode="&#x121;" horiz-adv-x="1298" d="M61 537q0 154 63 280.5t178 200.5t259 74q121 0 216 -55t159 -152v188h240v-1022q0 -155 -77.5 -271.5t-212 -176.5t-306.5 -60q-169 0 -290.5 57t-211.5 167l149 145q62 -75 155.5 -118.5t197.5 -43.5q66 0 123 18t102 53.5t70.5 94.5t25.5 135v135q-53 -91 -149 -141.5 t-207 -50.5q-140 0 -251.5 74t-172 198t-60.5 271zM342 528q0 -133 85 -224t210 -91q87 0 160.5 52t103.5 128v256q-36 93 -114.5 151t-165.5 58q-122 0 -200.5 -98.5t-78.5 -231.5zM489 1356q0 63 48.5 110t111.5 47q62 0 111 -47.5t49 -109.5q0 -64 -49 -112t-111 -48 q-63 0 -111.5 48.5t-48.5 111.5z" />
<glyph unicode="&#x122;" horiz-adv-x="1576" d="M57 735q0 147 54 280t150 232.5t237.5 158t306.5 58.5q196 0 352 -80.5t252 -224.5l-213 -164q-20 35 -51 69t-80 70t-121.5 58t-155.5 22q-136 0 -239 -67.5t-155 -177t-52 -242.5q0 -129 50 -238t153 -179t241 -70q171 0 292.5 83.5t133.5 208.5h-329v236h622 q0 -2 -1 -67t-1 -70q-5 -128 -61 -246t-147 -204.5t-217 -138.5t-265 -52q-161 0 -303 60t-240.5 161t-155.5 237.5t-57 286.5zM539 -438h157l140 338h-199z" />
<glyph unicode="&#x123;" horiz-adv-x="1298" d="M61 537q0 154 63 280.5t178 200.5t259 74q121 0 216 -55t159 -152v188h240v-1022q0 -155 -77.5 -271.5t-212 -176.5t-306.5 -60q-169 0 -290.5 57t-211.5 167l149 145q62 -75 155.5 -118.5t197.5 -43.5q66 0 123 18t102 53.5t70.5 94.5t25.5 135v135q-53 -91 -149 -141.5 t-207 -50.5q-140 0 -251.5 74t-172 198t-60.5 271zM342 528q0 -133 85 -224t210 -91q87 0 160.5 52t103.5 128v256q-36 93 -114.5 151t-165.5 58q-122 0 -200.5 -98.5t-78.5 -231.5zM530 1190h199l98 338h-157z" />
<glyph unicode="&#x124;" horiz-adv-x="1525" d="M152 0v1454h282v-588h660v588h280v-1454h-280v621h-660v-621h-282zM352 1602l307 317h213l308 -317h-301l-113 198l-113 -198h-301z" />
<glyph unicode="&#x125;" horiz-adv-x="1236" d="M125 0v1495h274v-621q60 103 162 160.5t223 57.5q338 0 338 -422v-670h-274v602q0 124 -47 186t-133 62q-78 0 -158.5 -64t-110.5 -159v-627h-274zM207 1602l307 317h213l307 -317h-301l-112 198l-113 -198h-301z" />
<glyph unicode="&#x126;" horiz-adv-x="1542" d="M57 1112v135h103v207h282v-207h660v207h280v-207h103v-135h-103v-1112h-280v621h-660v-621h-282v1112h-103zM442 866h660v246h-660v-246z" />
<glyph unicode="&#x127;" horiz-adv-x="1236" d="M33 1223v161h608v-161h-608zM125 0v1495h274v-621q60 103 162 160.5t223 57.5q338 0 338 -422v-670h-274v602q0 124 -47 186t-133 62q-78 0 -158.5 -64t-110.5 -159v-627h-274z" />
<glyph unicode="&#x128;" horiz-adv-x="585" d="M-92 1608q0 24 13 63.5t38.5 86t75 79.5t112.5 33q53 0 100 -24t89 -48t82 -24q28 0 49 10t31.5 23.5t17.5 29.5t8.5 25t1.5 14h152q0 -14 -7.5 -42t-27 -66.5t-46.5 -72.5t-72 -57.5t-99 -23.5q-52 0 -100 23t-89.5 46t-78.5 23q-26 0 -45.5 -10t-29 -22.5t-15.5 -28.5 t-7.5 -24.5t-1.5 -12.5h-151zM152 0v1454h282v-1454h-282z" />
<glyph unicode="&#x129;" d="M-123 1227q0 18 7.5 47t25.5 67t44 70.5t69 55t94 22.5q42 0 81 -15t64 -33t59 -33t66 -15q28 0 49 10t32 23.5t18 29.5t8.5 25t1.5 14h151q0 -14 -7.5 -42t-27 -66.5t-46.5 -72.5t-72 -57.5t-99 -23.5q-52 0 -100 23t-89.5 46t-78.5 23q-26 0 -45.5 -10t-29 -22.5 t-15.5 -28.5t-7 -24.5t-1 -12.5h-152zM125 0v1073h274v-1073h-274z" />
<glyph unicode="&#x12a;" horiz-adv-x="585" d="M-14 1677v170h614v-170h-614zM152 0v1454h282v-1454h-282z" />
<glyph unicode="&#x12b;" d="M-45 1296v170h614v-170h-614zM125 0v1073h274v-1073h-274z" />
<glyph unicode="&#x12c;" horiz-adv-x="585" d="M-16 1919h170q0 -70 42.5 -122t98.5 -52q54 0 94.5 49.5t46.5 124.5h170q0 -137 -88 -227t-223 -90t-223 90t-88 227zM152 0v1454h282v-1454h-282z" />
<glyph unicode="&#x12d;" d="M-47 1538h170q0 -70 42.5 -122t98.5 -52q54 0 95 49.5t47 124.5h169q0 -137 -88 -227t-223 -90t-223 90t-88 227zM125 0v1073h274v-1073h-274z" />
<glyph unicode="&#x12e;" horiz-adv-x="585" d="M152 0v1454h282v-1454h-282zM203 -223q0 69 61 137.5t182 128.5l80 -43q-157 -93 -157 -174q0 -75 127 -84l-58 -143q-115 17 -175 65t-60 113z" />
<glyph unicode="&#x12f;" d="M76 -223q0 69 61 137.5t182 128.5l80 -43q-157 -93 -157 -174q0 -75 127 -84l-58 -143q-115 17 -175 65t-60 113zM102 1356q0 63 48.5 110t111.5 47q62 0 111 -47.5t49 -109.5q0 -64 -49 -112t-111 -48q-63 0 -111.5 48.5t-48.5 111.5zM125 0v1073h274v-1073h-274z" />
<glyph unicode="&#x130;" horiz-adv-x="585" d="M133 1737q0 63 48.5 110t111.5 47q62 0 111 -47.5t49 -109.5q0 -64 -49 -112t-111 -48q-63 0 -111.5 48.5t-48.5 111.5zM152 0v1454h282v-1454h-282z" />
<glyph unicode="&#x131;" d="M125 0v1073h274v-1073h-274z" />
<glyph unicode="&#x132;" horiz-adv-x="1626" d="M152 0v1454h282v-1454h-282zM555 315q42 -157 171 -247.5t298 -90.5q108 0 203.5 35t168.5 100.5t114 169t38 232.5v940h-278v-930q0 -142 -67 -211t-171 -69q-90 0 -146.5 43t-90.5 137z" />
<glyph unicode="&#x133;" horiz-adv-x="1044" d="M115 1358q0 60 45.5 104.5t105.5 44.5q59 0 105.5 -45t46.5 -104q0 -61 -46.5 -106.5t-105.5 -45.5q-60 0 -105.5 46t-45.5 106zM129 0v1073h274v-1073h-274zM637 1358q0 60 45.5 104.5t105.5 44.5q59 0 105.5 -45t46.5 -104q0 -61 -46.5 -106.5t-105.5 -45.5 q-60 0 -105.5 46t-45.5 106zM651 -436v1509h275v-1509h-275z" />
<glyph unicode="&#x134;" horiz-adv-x="1040" d="M-31 315q42 -157 171 -247.5t298 -90.5q108 0 203.5 35t168.5 100.5t114.5 169t38.5 232.5v940h-279v-930q0 -142 -67 -211t-171 -69q-90 0 -146.5 43t-90.5 137zM410 1602l307 317h213l307 -317h-301l-113 198l-112 -198h-301z" />
<glyph unicode="&#x135;" d="M-150 1221l308 317h213l307 -317h-301l-113 198l-112 -198h-302zM129 -436v1509h274v-1509h-274z" />
<glyph unicode="&#x136;" horiz-adv-x="1370" d="M152 0v1452h282v-690l610 692h312l-557 -645l592 -809h-318l-452 629l-187 -195v-434h-282zM485 -438h158l139 338h-198z" />
<glyph unicode="&#x137;" horiz-adv-x="1142" d="M125 0v1495h274v-907l430 483h293l-399 -455l428 -616h-293l-311 465l-148 -146v-319h-274zM371 -438h157l140 338h-199z" />
<glyph unicode="&#x138;" horiz-adv-x="1142" d="M125 0v1073h274v-485l430 483h293l-399 -455l428 -616h-293l-311 465l-148 -146v-319h-274z" />
<glyph unicode="&#x139;" horiz-adv-x="1196" d="M152 0v1454h282v-1206h742v-248h-1024zM229 1602l181 317h301l-308 -317h-174z" />
<glyph unicode="&#x13a;" horiz-adv-x="534" d="M129 0v1495h274v-1495h-274zM193 1602l180 317h301l-307 -317h-174z" />
<glyph unicode="&#x13b;" horiz-adv-x="1196" d="M152 0v1454h282v-1206h742v-248h-1024zM397 -438h158l139 338h-198z" />
<glyph unicode="&#x13c;" horiz-adv-x="534" d="M68 -438h157l140 338h-199zM129 0v1495h274v-1495h-274z" />
<glyph unicode="&#x13d;" horiz-adv-x="1196" d="M152 0v1454h282v-1206h742v-248h-1024zM522 1141l72 315h231l-108 -315h-195z" />
<glyph unicode="&#x13e;" horiz-adv-x="534" d="M129 0v1495h274v-1495h-274zM457 1141l71 315h232l-109 -315h-194z" />
<glyph unicode="&#x13f;" horiz-adv-x="1196" d="M152 0v1454h282v-1206h742v-248h-1024zM610 774q0 69 52.5 121.5t121.5 52.5q68 0 121 -52.5t53 -121.5t-53 -121.5t-121 -52.5q-69 0 -121.5 53t-52.5 121z" />
<glyph unicode="&#x140;" horiz-adv-x="534" d="M129 0v1495h274v-1495h-274zM487 737q0 69 53 121.5t122 52.5q68 0 121 -52.5t53 -121.5t-53 -121.5t-121 -52.5q-69 0 -122 53t-53 121z" />
<glyph unicode="&#x141;" horiz-adv-x="1216" d="M-4 645l682 430l86 -141l-684 -432zM166 0v1454h283v-1206h741v-248h-1024z" />
<glyph unicode="&#x142;" horiz-adv-x="704" d="M-8 694l600 379l86 -141l-602 -381zM129 0v1495h274v-1495h-274z" />
<glyph unicode="&#x143;" horiz-adv-x="1562" d="M152 0v1454h219l757 -954v952h283v-1452h-229l-748 932v-932h-282zM682 1602l180 317h301l-307 -317h-174z" />
<glyph unicode="&#x144;" horiz-adv-x="1236" d="M125 0v1073h248v-199q60 102 173.5 160t252.5 58q78 0 136.5 -24.5t93.5 -63.5t56.5 -96t29 -113.5t7.5 -124.5v-670h-274v602q0 248 -170 248q-85 0 -167 -64t-112 -159v-627h-274zM543 1221l180 317h301l-307 -317h-174z" />
<glyph unicode="&#x145;" horiz-adv-x="1562" d="M152 0v1454h219l757 -954v952h283v-1452h-229l-748 932v-932h-282zM582 -438h157l140 338h-199z" />
<glyph unicode="&#x146;" horiz-adv-x="1236" d="M125 0v1073h248v-199q60 102 173.5 160t252.5 58q78 0 136.5 -24.5t93.5 -63.5t56.5 -96t29 -113.5t7.5 -124.5v-670h-274v602q0 248 -170 248q-85 0 -167 -64t-112 -159v-627h-274zM418 -438h157l140 338h-199z" />
<glyph unicode="&#x147;" horiz-adv-x="1562" d="M152 0v1454h219l757 -954v952h283v-1452h-229l-748 932v-932h-282zM352 1919h301l113 -199l113 199h301l-308 -317h-213z" />
<glyph unicode="&#x148;" horiz-adv-x="1236" d="M125 0v1073h248v-199q60 102 173.5 160t252.5 58q78 0 136.5 -24.5t93.5 -63.5t56.5 -96t29 -113.5t7.5 -124.5v-670h-274v602q0 248 -170 248q-85 0 -167 -64t-112 -159v-627h-274zM213 1538h301l113 -199l112 199h301l-307 -317h-213z" />
<glyph unicode="&#x149;" horiz-adv-x="1236" d="M-72 1141l72 315h231l-108 -315h-195zM125 0v1073h248v-199q60 102 173.5 160t252.5 58q78 0 136.5 -24.5t93.5 -63.5t56.5 -96t29 -113.5t7.5 -124.5v-670h-274v602q0 248 -170 248q-85 0 -167 -64t-112 -159v-627h-274z" />
<glyph unicode="&#x14a;" horiz-adv-x="1536" d="M152 0v1454h217l733 -942v940h280v-1470q0 -168 -108 -275.5t-264 -107.5q-165 0 -273 96l119 186q45 -45 119 -45q55 0 94 38t39 97v86l-674 867v-924h-282z" />
<glyph unicode="&#x14b;" horiz-adv-x="1236" d="M125 0v1073h248v-199q60 102 173.5 160t252.5 58q78 0 136 -24.5t93 -63.5t56 -96t28.5 -113.5t7.5 -124.5v-678q0 -171 -107 -282t-263 -111q-165 0 -273 96l117 186q48 -45 121 -45q55 0 94 38t39 97v631q0 248 -170 248q-85 0 -167 -64t-112 -159v-627h-274z" />
<glyph unicode="&#x14c;" horiz-adv-x="1548" d="M63 727q0 144 54.5 278.5t148 235.5t227.5 162t285 61q123 0 235 -41.5t196 -114t146.5 -166t95 -201.5t32.5 -218q0 -143 -54 -276.5t-146.5 -234.5t-226 -161.5t-284.5 -60.5q-124 0 -236 40.5t-197 111.5t-148 164t-95.5 201.5t-32.5 219.5zM350 727q0 -128 49 -237.5 t147.5 -179.5t227.5 -70q99 0 181 42t134 111.5t80.5 156t28.5 177.5q0 128 -50.5 237.5t-149 178.5t-224.5 69q-99 0 -181 -42t-134 -111t-80.5 -155t-28.5 -177zM467 1677v170h614v-170h-614z" />
<glyph unicode="&#x14d;" horiz-adv-x="1241" d="M57 535q0 112 40 213t111 177.5t178.5 121.5t234.5 45q169 0 298.5 -77.5t196 -203t66.5 -276.5q0 -111 -39 -211.5t-109.5 -177t-177.5 -121.5t-235 -45q-103 0 -193 29.5t-157 81.5t-116 121.5t-73.5 152t-24.5 170.5zM313 1296v170h615v-170h-615zM340 535 q0 -140 80.5 -231t200.5 -91q119 0 199.5 92t80.5 232q0 139 -80.5 230t-199.5 91t-200 -92t-81 -231z" />
<glyph unicode="&#x14e;" horiz-adv-x="1548" d="M63 727q0 144 54.5 278.5t148 235.5t227.5 162t285 61q123 0 235 -41.5t196 -114t146.5 -166t95 -201.5t32.5 -218q0 -143 -54 -276.5t-146.5 -234.5t-226 -161.5t-284.5 -60.5q-124 0 -236 40.5t-197 111.5t-148 164t-95.5 201.5t-32.5 219.5zM350 727q0 -128 49 -237.5 t147.5 -179.5t227.5 -70q99 0 181 42t134 111.5t80.5 156t28.5 177.5q0 128 -50.5 237.5t-149 178.5t-224.5 69q-99 0 -181 -42t-134 -111t-80.5 -155t-28.5 -177zM465 1919h170q0 -70 42.5 -122t98.5 -52q54 0 95 49.5t47 124.5h169q0 -137 -88 -227t-223 -90t-223 90 t-88 227z" />
<glyph unicode="&#x14f;" horiz-adv-x="1241" d="M57 535q0 112 40 213t111 177.5t178.5 121.5t234.5 45q169 0 298.5 -77.5t196 -203t66.5 -276.5q0 -111 -39 -211.5t-109.5 -177t-177.5 -121.5t-235 -45q-103 0 -193 29.5t-157 81.5t-116 121.5t-73.5 152t-24.5 170.5zM311 1538h170q0 -70 43 -122t99 -52 q54 0 94.5 49.5t46.5 124.5h170q0 -137 -88 -227t-223 -90t-223.5 90t-88.5 227zM340 535q0 -140 80.5 -231t200.5 -91q119 0 199.5 92t80.5 232q0 139 -80.5 230t-199.5 91t-200 -92t-81 -231z" />
<glyph unicode="&#x150;" horiz-adv-x="1548" d="M63 727q0 144 54.5 278.5t148 235.5t227.5 162t285 61q123 0 235 -41.5t196 -114t146.5 -166t95 -201.5t32.5 -218q0 -143 -54 -276.5t-146.5 -234.5t-226 -161.5t-284.5 -60.5q-124 0 -236 40.5t-197 111.5t-148 164t-95.5 201.5t-32.5 219.5zM350 727q0 -128 49 -237.5 t147.5 -179.5t227.5 -70q99 0 181 42t134 111.5t80.5 156t28.5 177.5q0 128 -50.5 237.5t-149 178.5t-224.5 69q-99 0 -181 -42t-134 -111t-80.5 -155t-28.5 -177zM504 1602l180 317h301l-307 -317h-174zM891 1602l180 317h301l-307 -317h-174z" />
<glyph unicode="&#x151;" horiz-adv-x="1241" d="M57 535q0 112 40 213t111 177.5t178.5 121.5t234.5 45q169 0 298.5 -77.5t196 -203t66.5 -276.5q0 -111 -39 -211.5t-109.5 -177t-177.5 -121.5t-235 -45q-103 0 -193 29.5t-157 81.5t-116 121.5t-73.5 152t-24.5 170.5zM340 535q0 -140 80.5 -231t200.5 -91 q119 0 199.5 92t80.5 232q0 139 -80.5 230t-199.5 91t-200 -92t-81 -231zM350 1221l180 317h301l-307 -317h-174zM737 1221l181 317h301l-308 -317h-174z" />
<glyph unicode="&#x152;" horiz-adv-x="2222" d="M63 727q0 193 89.5 361.5t250.5 272t355 103.5q128 0 235 -61t178 -162v213h965v-248h-682v-342h571v-248h-571v-368h700v-248h-983v215q-72 -101 -181.5 -163t-235.5 -62q-150 0 -281 62.5t-219.5 166t-139.5 236t-51 272.5zM350 727q0 -128 47.5 -238t142 -179.5 t216.5 -69.5q95 0 173 42t127.5 112t76 156.5t26.5 178.5q0 94 -28.5 181.5t-79 155t-127.5 108t-168 40.5q-95 0 -173.5 -42t-128.5 -111.5t-77 -156t-27 -177.5z" />
<glyph unicode="&#x153;" horiz-adv-x="2070" d="M57 535q0 241 158.5 399t400.5 158q137 0 245 -64.5t179 -185.5q154 250 430 250q158 0 283.5 -69.5t197.5 -196t77 -289.5q0 -48 -7 -88h-827q7 -117 91.5 -196t201.5 -79q86 0 159 43t99 109l227 -66q-61 -129 -195.5 -204.5t-299.5 -75.5q-247 0 -435 241 q-95 -123 -197.5 -182t-228.5 -59q-241 0 -400 158t-159 397zM340 532q0 -138 79.5 -228.5t201.5 -90.5q121 0 200.5 92t79.5 230q0 140 -79.5 231.5t-200.5 91.5q-120 0 -200.5 -93.5t-80.5 -232.5zM1186 618h561q-10 122 -90.5 198.5t-194.5 76.5t-191.5 -77t-84.5 -198z " />
<glyph unicode="&#x154;" horiz-adv-x="1361" d="M152 0v1454h643q129 0 237 -71.5t166.5 -181.5t58.5 -230q0 -140 -71.5 -256.5t-190.5 -167.5l332 -547h-317l-297 487h-279v-487h-282zM434 735h354q78 0 131.5 68.5t53.5 167.5t-60 167t-137 68h-342v-471zM553 1602l180 317h301l-307 -317h-174z" />
<glyph unicode="&#x155;" horiz-adv-x="792" d="M125 0v1073h252v-229q56 107 150 175t182 68q43 0 55 -2v-249q-128 -2 -225.5 -50t-139.5 -137v-649h-274zM168 1221l180 317h301l-307 -317h-174z" />
<glyph unicode="&#x156;" horiz-adv-x="1361" d="M152 0v1454h643q129 0 237 -71.5t166.5 -181.5t58.5 -230q0 -140 -71.5 -256.5t-190.5 -167.5l332 -547h-317l-297 487h-279v-487h-282zM434 735h354q78 0 131.5 68.5t53.5 167.5t-60 167t-137 68h-342v-471zM481 -438h158l139 338h-198z" />
<glyph unicode="&#x157;" horiz-adv-x="792" d="M63 -438h158l139 338h-198zM125 0v1073h252v-229q56 107 150 175t182 68q43 0 55 -2v-249q-128 -2 -225.5 -50t-139.5 -137v-649h-274z" />
<glyph unicode="&#x158;" horiz-adv-x="1361" d="M152 0v1454h643q129 0 237 -71.5t166.5 -181.5t58.5 -230q0 -140 -71.5 -256.5t-190.5 -167.5l332 -547h-317l-297 487h-279v-487h-282zM223 1919h301l113 -199l113 199h301l-308 -317h-213zM434 735h354q78 0 131.5 68.5t53.5 167.5t-60 167t-137 68h-342v-471z" />
<glyph unicode="&#x159;" horiz-adv-x="792" d="M-8 1538h301l113 -199l112 199h301l-307 -317h-213zM125 0v1073h252v-229q56 107 150 175t182 68q43 0 55 -2v-249q-128 -2 -225.5 -50t-139.5 -137v-649h-274z" />
<glyph unicode="&#x15a;" horiz-adv-x="1255" d="M45 172l125 244q52 -52 197.5 -115t291.5 -63q115 0 174.5 38.5t59.5 110.5q0 83 -99 135q-63 32 -258 86l-1 1h-1h-1l-1 1h-1h-1h-1l-1 1h-1h-1l-1 1h-1h-1h-1l-1 1h-1h-1l-1 1h-2q-109 31 -182 63.5t-127 78.5t-78.5 107.5t-24.5 144.5q0 144 72 249t190.5 156 t268.5 51q270 0 508 -161l-125 -230q-37 41 -156 92.5t-235 51.5q-114 0 -173 -42.5t-59 -121.5q0 -22 4.5 -40.5t17 -34.5t25 -28t38 -24t45.5 -20.5t58.5 -20t65.5 -19t78 -20.5q93 -24 159.5 -47.5t128 -59t98.5 -79t59 -105t22 -139.5q0 -113 -43.5 -198.5t-120 -135.5 t-170.5 -74t-205 -24q-163 0 -323.5 49.5t-286.5 138.5zM553 1602l180 317h301l-307 -317h-174z" />
<glyph unicode="&#x15b;" horiz-adv-x="1017" d="M45 145l102 172q198 -141 377 -141q82 0 129 31t47 88q0 54 -48.5 81t-186.5 64q-219 59 -301 119.5t-82 179.5q0 161 119 258t303 97q250 0 420 -148l-111 -166q-158 119 -311 119q-73 0 -118.5 -30.5t-45.5 -90.5q0 -53 42 -77.5t169 -57.5q232 -58 324 -125.5 t92 -198.5q0 -156 -117.5 -247.5t-317.5 -91.5q-136 0 -266 43.5t-219 121.5zM434 1221l180 317h301l-307 -317h-174z" />
<glyph unicode="&#x15c;" horiz-adv-x="1255" d="M45 172l125 244q52 -52 197.5 -115t291.5 -63q115 0 174.5 38.5t59.5 110.5q0 83 -99 135q-63 32 -258 86l-1 1h-1h-1l-1 1h-1h-1h-1l-1 1h-1h-1l-1 1h-1h-1h-1l-1 1h-1h-1l-1 1h-2q-109 31 -182 63.5t-127 78.5t-78.5 107.5t-24.5 144.5q0 144 72 249t190.5 156 t268.5 51q270 0 508 -161l-125 -230q-37 41 -156 92.5t-235 51.5q-114 0 -173 -42.5t-59 -121.5q0 -22 4.5 -40.5t17 -34.5t25 -28t38 -24t45.5 -20.5t58.5 -20t65.5 -19t78 -20.5q93 -24 159.5 -47.5t128 -59t98.5 -79t59 -105t22 -139.5q0 -113 -43.5 -198.5t-120 -135.5 t-170.5 -74t-205 -24q-163 0 -323.5 49.5t-286.5 138.5zM217 1602l307 317h213l307 -317h-301l-112 198l-113 -198h-301z" />
<glyph unicode="&#x15d;" horiz-adv-x="1017" d="M45 145l102 172q198 -141 377 -141q82 0 129 31t47 88q0 54 -48.5 81t-186.5 64q-219 59 -301 119.5t-82 179.5q0 161 119 258t303 97q250 0 420 -148l-111 -166q-158 119 -311 119q-73 0 -118.5 -30.5t-45.5 -90.5q0 -53 42 -77.5t169 -57.5q232 -58 324 -125.5 t92 -198.5q0 -156 -117.5 -247.5t-317.5 -91.5q-136 0 -266 43.5t-219 121.5zM98 1221l308 317h212l308 -317h-301l-113 198l-113 -198h-301z" />
<glyph unicode="&#x15e;" horiz-adv-x="1255" d="M45 172l125 244q52 -52 197.5 -115t291.5 -63q115 0 174.5 38.5t59.5 110.5q0 83 -99 135q-63 32 -258 86l-1 1h-1h-1l-1 1h-1h-1h-1l-1 1h-1h-1l-1 1h-1h-1h-1l-1 1h-1h-1l-1 1h-2q-109 31 -182 63.5t-127 78.5t-78.5 107.5t-24.5 144.5q0 144 72 249t190.5 156 t268.5 51q270 0 508 -161l-125 -230q-37 41 -156 92.5t-235 51.5q-114 0 -173 -42.5t-59 -121.5q0 -22 4.5 -40.5t17 -34.5t25 -28t38 -24t45.5 -20.5t58.5 -20t65.5 -19t78 -20.5q93 -24 159.5 -47.5t128 -59t98.5 -79t59 -105t22 -139.5q0 -113 -43.5 -198.5t-120 -135.5 t-170.5 -74t-205 -24q-163 0 -323.5 49.5t-286.5 138.5zM387 -360l55 100q27 -15 79 -27t104 -12q114 0 114 68q0 67 -106 67q-65 0 -164 -24l125 245l106 -32l-71 -111q24 8 65 8q77 0 125.5 -36t48.5 -107q0 -81 -67 -130.5t-195 -49.5q-121 0 -219 41z" />
<glyph unicode="&#x15f;" horiz-adv-x="1017" d="M45 145l102 172q198 -141 377 -141q82 0 129 31t47 88q0 54 -48.5 81t-186.5 64q-219 59 -301 119.5t-82 179.5q0 161 119 258t303 97q250 0 420 -148l-111 -166q-158 119 -311 119q-73 0 -118.5 -30.5t-45.5 -90.5q0 -53 42 -77.5t169 -57.5q232 -58 324 -125.5 t92 -198.5q0 -156 -117.5 -247.5t-317.5 -91.5q-136 0 -266 43.5t-219 121.5zM268 -360l56 100q28 -15 79 -27t103 -12q115 0 115 68q0 67 -107 67q-65 0 -164 -24l125 245l107 -32l-72 -111q24 8 65 8q77 0 126 -36t49 -107q0 -81 -67.5 -130.5t-195.5 -49.5 q-121 0 -219 41z" />
<glyph unicode="&#x160;" horiz-adv-x="1255" d="M45 172l125 244q52 -52 197.5 -115t291.5 -63q115 0 174.5 38.5t59.5 110.5q0 83 -99 135q-63 32 -258 86l-1 1h-1h-1l-1 1h-1h-1h-1l-1 1h-1h-1l-1 1h-1h-1h-1l-1 1h-1h-1l-1 1h-2q-109 31 -182 63.5t-127 78.5t-78.5 107.5t-24.5 144.5q0 144 72 249t190.5 156 t268.5 51q270 0 508 -161l-125 -230q-37 41 -156 92.5t-235 51.5q-114 0 -173 -42.5t-59 -121.5q0 -22 4.5 -40.5t17 -34.5t25 -28t38 -24t45.5 -20.5t58.5 -20t65.5 -19t78 -20.5q93 -24 159.5 -47.5t128 -59t98.5 -79t59 -105t22 -139.5q0 -113 -43.5 -198.5t-120 -135.5 t-170.5 -74t-205 -24q-163 0 -323.5 49.5t-286.5 138.5zM223 1919h301l113 -199l113 199h301l-308 -317h-213z" />
<glyph unicode="&#x161;" horiz-adv-x="1017" d="M45 145l102 172q198 -141 377 -141q82 0 129 31t47 88q0 54 -48.5 81t-186.5 64q-219 59 -301 119.5t-82 179.5q0 161 119 258t303 97q250 0 420 -148l-111 -166q-158 119 -311 119q-73 0 -118.5 -30.5t-45.5 -90.5q0 -53 42 -77.5t169 -57.5q232 -58 324 -125.5 t92 -198.5q0 -156 -117.5 -247.5t-317.5 -91.5q-136 0 -266 43.5t-219 121.5zM104 1538h302l112 -199l113 199h301l-307 -317h-213z" />
<glyph unicode="&#x162;" horiz-adv-x="1267" d="M29 1206v248h1210v-248h-465v-1206h-280v1206h-465zM393 -360l56 100q28 -15 79 -27t103 -12q114 0 114 68q0 67 -106 67q-65 0 -164 -24l125 245l107 -32l-72 -111q24 8 65 8q77 0 125.5 -36t48.5 -107q0 -81 -67 -130.5t-195 -49.5q-121 0 -219 41z" />
<glyph unicode="&#x163;" horiz-adv-x="786" d="M45 862v211h141v348h275v-348h225v-211h-225v-524q0 -54 28 -79.5t74 -25.5q58 0 150 39l55 -217q-164 -73 -303 -73q-59 0 -108 15t-88 45.5t-61 82.5t-22 121v616h-141zM152 -360l55 100q28 -15 79 -27t103 -12q115 0 115 68q0 67 -107 67q-65 0 -164 -24l125 245 l107 -32l-72 -111q24 8 66 8q77 0 125.5 -36t48.5 -107q0 -81 -67 -130.5t-195 -49.5q-121 0 -219 41z" />
<glyph unicode="&#x164;" horiz-adv-x="1267" d="M29 1206v248h1210v-248h-465v-1206h-280v1206h-465zM229 1919h301l113 -199l113 199h301l-307 -317h-213z" />
<glyph unicode="&#x165;" horiz-adv-x="786" d="M45 862v211h141v348h275v-348h225v-211h-225v-524q0 -54 28 -79.5t74 -25.5q58 0 150 39l55 -217q-164 -73 -303 -73q-59 0 -108 15t-88 45.5t-61 82.5t-22 121v616h-141zM543 1141l71 315h232l-109 -315h-194z" />
<glyph unicode="&#x166;" horiz-adv-x="1318" d="M55 1206v248h1211v-248h-465v-430h389v-135h-389v-641h-281v641h-391v135h391v430h-465z" />
<glyph unicode="&#x167;" horiz-adv-x="788" d="M47 541v164h141v157h-141v211h141v348h275v-348h225v-211h-225v-157h225v-164h-225v-203q0 -54 28 -79.5t74 -25.5q58 0 150 39l55 -217q-164 -73 -303 -73q-59 0 -108 15t-88 45.5t-61 82.5t-22 121v295h-141z" />
<glyph unicode="&#x168;" horiz-adv-x="1536" d="M131 713v741h283v-741q0 -96 18.5 -177.5t58 -149.5t110 -107t165.5 -39q97 0 168.5 39.5t111 108.5t58 149.5t18.5 175.5v741h281v-741q0 -153 -37 -281t-111.5 -228.5t-199 -157t-287.5 -56.5q-135 0 -244 39.5t-181.5 106.5t-121 160t-69.5 196.5t-21 220.5zM383 1608 q0 18 7.5 47t25.5 67t44 70.5t69 55t94 22.5q42 0 81 -15t64 -33t59 -33t66 -15q28 0 49 10t31.5 23.5t17.5 29.5t8.5 25t1.5 14h152q0 -14 -7.5 -42t-27 -66.5t-46.5 -72.5t-72 -57.5t-99 -23.5q-52 0 -100 23t-89.5 46t-78.5 23q-26 0 -45.5 -10t-29 -22.5t-15.5 -28.5 t-7 -24.5t-1 -12.5h-152z" />
<glyph unicode="&#x169;" horiz-adv-x="1243" d="M115 401v672h274v-612q0 -248 186 -248q79 0 152 52t117 143v665h274v-1073h-264v184q-57 -99 -160 -151.5t-225 -52.5q-354 0 -354 421zM238 1227q0 24 13 63.5t38.5 86t75 79.5t112.5 33q53 0 100 -24t89 -48t82 -24q28 0 49 10t31.5 23.5t17.5 29.5t8.5 25t1.5 14h152 q0 -14 -7.5 -42t-27 -66.5t-46.5 -72.5t-72 -57.5t-99 -23.5q-52 0 -100.5 23t-90 46t-78.5 23q-26 0 -45.5 -10t-29 -22.5t-15.5 -28.5t-7 -24.5t-1 -12.5h-151z" />
<glyph unicode="&#x16a;" horiz-adv-x="1536" d="M131 713v741h283v-741q0 -96 18.5 -177.5t58 -149.5t110 -107t165.5 -39q97 0 168.5 39.5t111 108.5t58 149.5t18.5 175.5v741h281v-741q0 -153 -37 -281t-111.5 -228.5t-199 -157t-287.5 -56.5q-135 0 -244 39.5t-181.5 106.5t-121 160t-69.5 196.5t-21 220.5zM461 1677 v170h614v-170h-614z" />
<glyph unicode="&#x16b;" horiz-adv-x="1243" d="M115 401v672h274v-612q0 -248 186 -248q79 0 152 52t117 143v665h274v-1073h-264v184q-57 -99 -160 -151.5t-225 -52.5q-354 0 -354 421zM315 1296v170h615v-170h-615z" />
<glyph unicode="&#x16c;" horiz-adv-x="1536" d="M131 713v741h283v-741q0 -96 18.5 -177.5t58 -149.5t110 -107t165.5 -39q97 0 168.5 39.5t111 108.5t58 149.5t18.5 175.5v741h281v-741q0 -153 -37 -281t-111.5 -228.5t-199 -157t-287.5 -56.5q-135 0 -244 39.5t-181.5 106.5t-121 160t-69.5 196.5t-21 220.5zM459 1919 h170q0 -70 42.5 -122t98.5 -52q54 0 94.5 49.5t46.5 124.5h170q0 -137 -88 -227t-223 -90t-223 90t-88 227z" />
<glyph unicode="&#x16d;" horiz-adv-x="1243" d="M115 401v672h274v-612q0 -248 186 -248q79 0 152 52t117 143v665h274v-1073h-264v184q-57 -99 -160 -151.5t-225 -52.5q-354 0 -354 421zM313 1538h170q0 -70 43 -122t99 -52q54 0 94.5 49.5t46.5 124.5h170q0 -137 -88 -227t-223 -90t-223.5 90t-88.5 227z" />
<glyph unicode="&#x16e;" horiz-adv-x="1536" d="M131 713v741h283v-741q0 -96 18.5 -177.5t58 -149.5t110 -107t165.5 -39q97 0 168.5 39.5t111 108.5t58 149.5t18.5 175.5v741h281v-741q0 -153 -37 -281t-111.5 -228.5t-199 -157t-287.5 -56.5q-135 0 -244 39.5t-181.5 106.5t-121 160t-69.5 196.5t-21 220.5zM543 1741 q0 84 61 131t164 47t164 -47t61 -131q0 -85 -61 -132.5t-164 -47.5t-164 47.5t-61 132.5zM674 1741q0 -35 27 -59.5t67 -24.5q38 0 66 24t28 60q0 37 -26.5 59.5t-67.5 22.5q-40 0 -67 -22.5t-27 -59.5z" />
<glyph unicode="&#x16f;" horiz-adv-x="1243" d="M115 401v672h274v-612q0 -248 186 -248q79 0 152 52t117 143v665h274v-1073h-264v184q-57 -99 -160 -151.5t-225 -52.5q-354 0 -354 421zM397 1360q0 84 61.5 131t164.5 47t164 -47t61 -131q0 -85 -61 -132.5t-164 -47.5t-164.5 47.5t-61.5 132.5zM528 1360 q0 -35 27.5 -59.5t67.5 -24.5q38 0 66 24t28 60q0 37 -26.5 59.5t-67.5 22.5q-40 0 -67.5 -22.5t-27.5 -59.5z" />
<glyph unicode="&#x170;" horiz-adv-x="1536" d="M131 713v741h283v-741q0 -96 18.5 -177.5t58 -149.5t110 -107t165.5 -39q97 0 168.5 39.5t111 108.5t58 149.5t18.5 175.5v741h281v-741q0 -153 -37 -281t-111.5 -228.5t-199 -157t-287.5 -56.5q-135 0 -244 39.5t-181.5 106.5t-121 160t-69.5 196.5t-21 220.5zM498 1602 l180 317h301l-307 -317h-174zM885 1602l180 317h301l-307 -317h-174z" />
<glyph unicode="&#x171;" horiz-adv-x="1243" d="M115 401v672h274v-612q0 -248 186 -248q79 0 152 52t117 143v665h274v-1073h-264v184q-57 -99 -160 -151.5t-225 -52.5q-354 0 -354 421zM352 1221l180 317h302l-308 -317h-174zM739 1221l181 317h301l-308 -317h-174z" />
<glyph unicode="&#x172;" horiz-adv-x="1536" d="M131 713v741h283v-741q0 -96 18.5 -177.5t58 -149.5t110 -107t165.5 -39q97 0 168.5 39.5t111 108.5t58 149.5t18.5 175.5v741h281v-741q0 -153 -37 -281t-111.5 -228.5t-199 -157t-287.5 -56.5q-135 0 -244 39.5t-181.5 106.5t-121 160t-69.5 196.5t-21 220.5zM565 -223 q0 69 61.5 137.5t182.5 128.5l80 -43q-158 -94 -158 -174q0 -75 127 -84l-57 -143q-115 17 -175.5 65t-60.5 113z" />
<glyph unicode="&#x173;" horiz-adv-x="1243" d="M115 401v672h274v-612q0 -248 186 -248q79 0 152 52t117 143v665h274v-1073h-264v184q-57 -99 -160 -151.5t-225 -52.5q-354 0 -354 421zM795 -223q0 69 61 137.5t182 128.5l80 -43q-157 -93 -157 -174q0 -75 126 -84l-57 -143q-115 17 -175 65t-60 113z" />
<glyph unicode="&#x174;" horiz-adv-x="2271" d="M20 1454h318l311 -1032l330 1032h305l340 -1030l307 1030h322l-457 -1454h-291l-372 993l-365 -993h-293zM725 1602l307 317h213l307 -317h-301l-112 198l-113 -198h-301z" />
<glyph unicode="&#x175;" horiz-adv-x="1783" d="M20 1073h285l246 -745l213 745h258l213 -745l246 745h280l-366 -1073h-297l-207 647l-205 -647h-295zM481 1221l307 317h213l308 -317h-301l-113 198l-113 -198h-301z" />
<glyph unicode="&#x176;" horiz-adv-x="1351" d="M8 1454h307l359 -700l364 700h305l-528 -946v-508h-280v512zM264 1602l307 317h213l308 -317h-301l-113 198l-113 -198h-301z" />
<glyph unicode="&#x177;" horiz-adv-x="1126" d="M12 1073h283l291 -835l258 835h258l-451 -1286q-39 -116 -135.5 -186t-230.5 -70q-68 0 -138 23v237q78 -20 123 -20q56 0 90.5 47t75.5 182zM152 1221l307 317h213l307 -317h-301l-113 198l-112 -198h-301z" />
<glyph unicode="&#x178;" horiz-adv-x="1351" d="M8 1454h307l359 -700l364 700h305l-528 -946v-508h-280v512zM270 1726q0 60 46 105t106 45q59 0 105 -45t46 -105q0 -61 -46 -106t-105 -45q-60 0 -106 45.5t-46 105.5zM776 1731q0 60 46 104.5t106 44.5q59 0 105 -45t46 -104q0 -61 -46 -106.5t-105 -45.5 q-60 0 -106 46t-46 106z" />
<glyph unicode="&#x179;" horiz-adv-x="1284" d="M61 0v213l822 993h-799v248h1124v-213l-794 -993h800v-248h-1153zM567 1602l181 317h301l-308 -317h-174z" />
<glyph unicode="&#x17a;" horiz-adv-x="1009" d="M53 0v168l598 713h-573v192h862v-168l-594 -712h604v-193h-897zM430 1221l180 317h301l-307 -317h-174z" />
<glyph unicode="&#x17b;" horiz-adv-x="1284" d="M61 0v213l822 993h-799v248h1124v-213l-794 -993h800v-248h-1153zM483 1737q0 63 48.5 110t111.5 47q62 0 111 -47.5t49 -109.5q0 -64 -49 -112t-111 -48q-63 0 -111.5 48.5t-48.5 111.5z" />
<glyph unicode="&#x17c;" horiz-adv-x="1009" d="M53 0v168l598 713h-573v192h862v-168l-594 -712h604v-193h-897zM346 1356q0 63 48.5 110t111.5 47q62 0 111 -47.5t49 -109.5q0 -64 -49 -112t-111 -48q-63 0 -111.5 48.5t-48.5 111.5z" />
<glyph unicode="&#x17d;" horiz-adv-x="1284" d="M61 0v213l822 993h-799v248h1124v-213l-794 -993h800v-248h-1153zM238 1919h301l112 -199l113 199h301l-307 -317h-213z" />
<glyph unicode="&#x17e;" horiz-adv-x="1009" d="M53 0v168l598 713h-573v192h862v-168l-594 -712h604v-193h-897zM100 1538h301l113 -199l113 199h301l-307 -317h-213z" />
<glyph unicode="&#x18f;" horiz-adv-x="1527" d="M41 705q0 68 10 116h1104q-18 176 -132.5 283.5t-270.5 107.5q-118 0 -216 -62t-128 -161l-285 96q83 171 254 275t383 104q153 0 286 -61.5t223 -163t141.5 -233t51.5 -271.5q0 -146 -51 -281t-141 -238t-224 -164.5t-290 -61.5q-155 0 -291 61.5t-227.5 162.5 t-144 229.5t-52.5 261.5zM350 600q15 -158 131 -260t279 -102q158 0 268 101t123 261h-801z" />
<glyph unicode="&#x192;" horiz-adv-x="1122" d="M59 -305l119 186q45 -45 121 -45q55 0 93 38t38 97v766h-139v211h139v133q0 199 97.5 317t260.5 118q131 0 265 -64l-56 -207q-70 39 -149 39q-70 0 -106.5 -49t-36.5 -143v-144h262v-211h-262v-760q0 -165 -108.5 -271.5t-264.5 -106.5q-165 0 -273 96z" />
<glyph unicode="&#x1c4;" horiz-adv-x="2713" d="M152 0v1454h528q173 0 311.5 -56.5t226 -156t133.5 -230t46 -282.5q0 -331 -195.5 -530t-521.5 -199h-528zM434 248h246q203 0 317.5 134.5t114.5 346.5q0 215 -115 346t-317 131h-246v-958zM1491 0v213l821 993h-799v248h1125v-213l-795 -993h801v-248h-1153zM1667 1919 h301l113 -199l112 199h301l-307 -317h-213z" />
<glyph unicode="&#x1c5;" horiz-adv-x="2476" d="M152 0v1454h528q173 0 311.5 -56.5t226 -156t133.5 -230t46 -282.5q0 -331 -195.5 -530t-521.5 -199h-528zM434 248h246q203 0 317.5 134.5t114.5 346.5q0 215 -115 346t-317 131h-246v-958zM1520 0v168l598 713h-574v192h862v-168l-594 -712h605v-193h-897zM1567 1538 h301l112 -199l113 199h301l-307 -317h-213z" />
<glyph unicode="&#x1c6;" horiz-adv-x="2308" d="M59 537q0 153 62 280t172 201t244 74q116 0 211 -56.5t153 -150.5v610h275v-1495h-275v168q-53 -90 -138 -139t-194 -49q-146 0 -263 74t-182 201.5t-65 281.5zM344 530q0 -134 84.5 -225.5t210.5 -91.5q83 0 159.5 51.5t102.5 128.5v256q-33 91 -112.5 150t-165.5 59 q-120 0 -199.5 -98t-79.5 -230zM1352 0v168l598 713h-574v192h862v-168l-593 -712h604v-193h-897zM1399 1538h301l112 -199l113 199h301l-307 -317h-213z" />
<glyph unicode="&#x1c7;" horiz-adv-x="2236" d="M152 0v1454h282v-1206h742v-248h-1024zM1165 315q42 -157 171 -247.5t298 -90.5q108 0 203.5 35t168.5 100.5t114.5 169t38.5 232.5v940h-279v-930q0 -142 -67 -211t-171 -69q-90 0 -146.5 43t-90.5 137z" />
<glyph unicode="&#x1c8;" horiz-adv-x="1718" d="M152 0v1454h282v-1206h742v-248h-1024zM1311 1358q0 60 45.5 104.5t105.5 44.5q59 0 105.5 -45t46.5 -104q0 -61 -46.5 -106.5t-105.5 -45.5q-60 0 -105.5 46t-45.5 106zM1325 -436v1509h274v-1509h-274z" />
<glyph unicode="&#x1c9;" horiz-adv-x="1056" d="M129 0v1495h274v-1495h-274zM649 1358q0 60 46 104.5t106 44.5q59 0 105 -45t46 -104q0 -61 -46 -106.5t-105 -45.5q-60 0 -106 46t-46 106zM664 -436v1509h274v-1509h-274z" />
<glyph unicode="&#x1ca;" horiz-adv-x="2603" d="M152 0v1454h219l757 -954v952h283v-1452h-229l-748 932v-932h-282zM1532 315q42 -157 171 -247.5t298 -90.5q108 0 203.5 35t168.5 100.5t114 169t38 232.5v940h-278v-930q0 -142 -67 -211t-171 -69q-90 0 -146.5 43t-90.5 137z" />
<glyph unicode="&#x1cb;" horiz-adv-x="2084" d="M152 0v1454h219l757 -954v952h283v-1452h-229l-748 932v-932h-282zM1677 1358q0 60 46 104.5t106 44.5q59 0 105 -45t46 -104q0 -61 -46 -106.5t-105 -45.5q-60 0 -106 46t-46 106zM1692 -436v1509h274v-1509h-274z" />
<glyph unicode="&#x1cc;" horiz-adv-x="1759" d="M125 0v1073h248v-199q60 102 173.5 160t252.5 58q78 0 136.5 -24.5t93.5 -63.5t56.5 -96t29 -113.5t7.5 -124.5v-670h-274v602q0 248 -170 248q-85 0 -167 -64t-112 -159v-627h-274zM1352 1358q0 60 45.5 104.5t105.5 44.5q59 0 105.5 -45t46.5 -104q0 -61 -46.5 -106.5 t-105.5 -45.5q-60 0 -105.5 46t-45.5 106zM1366 -436v1509h274v-1509h-274z" />
<glyph unicode="&#x1ea;" horiz-adv-x="1548" d="M63 727q0 144 54.5 278.5t148 235.5t227.5 162t285 61q123 0 235 -41.5t196 -114t146.5 -166t95 -201.5t32.5 -218q0 -143 -54 -276.5t-146.5 -234.5t-226 -161.5t-284.5 -60.5q-124 0 -236 40.5t-197 111.5t-148 164t-95.5 201.5t-32.5 219.5zM350 727q0 -128 49 -237.5 t147.5 -179.5t227.5 -70q99 0 181 42t134 111.5t80.5 156t28.5 177.5q0 128 -50.5 237.5t-149 178.5t-224.5 69q-99 0 -181 -42t-134 -111t-80.5 -155t-28.5 -177zM547 -219q0 69 61.5 137.5t182.5 128.5l79 -43q-157 -93 -157 -174q0 -75 127 -84l-58 -143q-115 17 -175 65 t-60 113z" />
<glyph unicode="&#x1eb;" horiz-adv-x="1241" d="M57 535q0 112 40 213t111 177.5t178.5 121.5t234.5 45q169 0 298.5 -77.5t196 -203t66.5 -276.5q0 -111 -39 -211.5t-109.5 -177t-177.5 -121.5t-235 -45q-103 0 -193 29.5t-157 81.5t-116 121.5t-73.5 152t-24.5 170.5zM340 535q0 -140 80.5 -231t200.5 -91 q119 0 199.5 92t80.5 232q0 139 -80.5 230t-199.5 91t-200 -92t-81 -231zM403 -223q0 69 61.5 137.5t182.5 128.5l80 -43q-158 -94 -158 -174q0 -75 127 -84l-57 -143q-115 17 -175.5 65t-60.5 113z" />
<glyph unicode="&#x1f1;" horiz-adv-x="2713" d="M152 0v1454h528q173 0 311.5 -56.5t226 -156t133.5 -230t46 -282.5q0 -331 -195.5 -530t-521.5 -199h-528zM434 248h246q203 0 317.5 134.5t114.5 346.5q0 215 -115 346t-317 131h-246v-958zM1491 0v213l821 993h-799v248h1125v-213l-795 -993h801v-248h-1153z" />
<glyph unicode="&#x1f2;" horiz-adv-x="2476" d="M152 0v1454h528q173 0 311.5 -56.5t226 -156t133.5 -230t46 -282.5q0 -331 -195.5 -530t-521.5 -199h-528zM434 248h246q203 0 317.5 134.5t114.5 346.5q0 215 -115 346t-317 131h-246v-958zM1520 0v168l598 713h-574v192h862v-168l-594 -712h605v-193h-897z" />
<glyph unicode="&#x1f3;" horiz-adv-x="2308" d="M59 537q0 153 62 280t172 201t244 74q116 0 211 -56.5t153 -150.5v610h275v-1495h-275v168q-53 -90 -138 -139t-194 -49q-146 0 -263 74t-182 201.5t-65 281.5zM344 530q0 -134 84.5 -225.5t210.5 -91.5q83 0 159.5 51.5t102.5 128.5v256q-33 91 -112.5 150t-165.5 59 q-120 0 -199.5 -98t-79.5 -230zM1352 0v168l598 713h-574v192h862v-168l-593 -712h604v-193h-897z" />
<glyph unicode="&#x1f4;" horiz-adv-x="1576" d="M57 735q0 147 54 280t150 232.5t237.5 158t306.5 58.5q196 0 352 -80.5t252 -224.5l-213 -164q-20 35 -51 69t-80 70t-121.5 58t-155.5 22q-136 0 -239 -67.5t-155 -177t-52 -242.5q0 -129 50 -238t153 -179t241 -70q171 0 292.5 83.5t133.5 208.5h-329v236h622 q0 -2 -1 -67t-1 -70q-5 -128 -61 -246t-147 -204.5t-217 -138.5t-265 -52q-161 0 -303 60t-240.5 161t-155.5 237.5t-57 286.5zM690 1602l180 317h301l-307 -317h-174z" />
<glyph unicode="&#x1f5;" horiz-adv-x="1298" d="M61 537q0 154 63 280.5t178 200.5t259 74q121 0 216 -55t159 -152v188h240v-1022q0 -155 -77.5 -271.5t-212 -176.5t-306.5 -60q-169 0 -290.5 57t-211.5 167l149 145q62 -75 155.5 -118.5t197.5 -43.5q66 0 123 18t102 53.5t70.5 94.5t25.5 135v135q-53 -91 -149 -141.5 t-207 -50.5q-140 0 -251.5 74t-172 198t-60.5 271zM342 528q0 -133 85 -224t210 -91q87 0 160.5 52t103.5 128v256q-36 93 -114.5 151t-165.5 58q-122 0 -200.5 -98.5t-78.5 -231.5zM573 1221l181 317h301l-307 -317h-175z" />
<glyph unicode="&#x1fa;" horiz-adv-x="1376" d="M10 0l537 1409q-58 42 -58 119q0 62 39.5 102t108.5 51l108 193h273l-203 -219q72 -43 72 -127q0 -76 -56 -119l537 -1409h-291l-135 362h-508l-133 -362h-291zM481 561h410l-201 572zM606 1528q0 -31 23.5 -52.5t58.5 -21.5q33 0 58.5 21.5t25.5 52.5q0 33 -24 53.5 t-60 20.5q-35 0 -58.5 -20.5t-23.5 -53.5z" />
<glyph unicode="&#x1fb;" horiz-adv-x="1157" d="M51 319q0 107 64 187t166.5 120t226.5 40q156 0 262 -48v62q0 105 -61.5 163t-178.5 58q-161 0 -335 -121l-84 174q210 138 446 138q234 0 360.5 -116.5t126.5 -326.5v-649h-264v150q-121 -170 -362 -170q-157 0 -262 96.5t-105 242.5zM311 342q0 -71 54 -116.5 t131 -45.5q66 0 129.5 23t99.5 67q45 36 45 78v123q-103 41 -217 41q-98 0 -170 -45t-72 -125zM332 1360q0 84 61 131t164 47t164 -47t61 -131q0 -85 -61 -132.5t-164 -47.5t-164 47.5t-61 132.5zM453 1571l180 317h301l-307 -317h-174zM463 1360q0 -35 27 -59.5t67 -24.5 q38 0 66 24t28 60q0 37 -26.5 59.5t-67.5 22.5q-40 0 -67 -22.5t-27 -59.5z" />
<glyph unicode="&#x1fc;" horiz-adv-x="1978" d="M-51 0l907 1454h1034v-248h-682v-342h572v-248h-572v-368h701v-248h-979v362h-467l-215 -362h-299zM584 608h325v529zM940 1602l180 317h301l-307 -317h-174z" />
<glyph unicode="&#x1fd;" horiz-adv-x="1918" d="M51 319q0 153 128 250t329 97q142 0 242 -41q5 57 16 90q-18 186 -236 186q-160 0 -337 -121l-84 174q212 138 448 138q248 0 375 -152q149 152 381 152q170 0 299.5 -77t196 -202t67.5 -276q0 -19 -6 -88h-840q9 -123 93 -196t202 -73q83 0 155.5 40.5t98.5 105.5 l236 -66q-62 -127 -194 -203.5t-306 -76.5q-148 0 -267.5 59t-193.5 162q-67 -109 -189.5 -165t-246.5 -56q-157 0 -262 96.5t-105 242.5zM309 342q0 -69 54.5 -115.5t132.5 -46.5q69 0 130.5 24.5t98.5 65.5q45 33 45 74q-13 26 -20 133q-103 35 -197 35q-106 0 -175 -48 t-69 -122zM885 1221l180 317h301l-307 -317h-174zM1026 618h567q-11 123 -89 199t-195 76t-195.5 -76t-87.5 -199z" />
<glyph unicode="&#x1fe;" horiz-adv-x="1548" d="M63 727q0 144 54.5 278.5t148 235.5t227.5 162t285 61q123 0 235 -41.5t196 -114t146.5 -166t95 -201.5t32.5 -218q0 -143 -54 -276.5t-146.5 -234.5t-226 -161.5t-284.5 -60.5q-124 0 -236 40.5t-197 111.5t-148 164t-95.5 201.5t-32.5 219.5zM342 0l653 1526l256 -90 l-651 -1530zM350 727q0 -128 49 -237.5t147.5 -179.5t227.5 -70q99 0 181 42t134 111.5t80.5 156t28.5 177.5q0 128 -50.5 237.5t-149 178.5t-224.5 69q-99 0 -181 -42t-134 -111t-80.5 -155t-28.5 -177zM698 1602l181 317h301l-308 -317h-174z" />
<glyph unicode="&#x1ff;" horiz-adv-x="1241" d="M57 535q0 112 40 213t111 177.5t178.5 121.5t234.5 45q169 0 298.5 -77.5t196 -203t66.5 -276.5q0 -111 -39 -211.5t-109.5 -177t-177.5 -121.5t-235 -45q-103 0 -193 29.5t-157 81.5t-116 121.5t-73.5 152t-24.5 170.5zM102 -8l869 1089h155l-868 -1089h-156zM340 535 q0 -140 80.5 -231t200.5 -91q119 0 199.5 92t80.5 232q0 139 -80.5 230t-199.5 91t-200 -92t-81 -231zM545 1221l180 317h301l-307 -317h-174z" />
<glyph unicode="&#x200;" horiz-adv-x="1376" d="M10 0l555 1454h250l553 -1454h-291l-135 362h-508l-133 -362h-291zM113 1919h301l180 -317h-174zM481 561h410l-201 572zM500 1919h301l180 -317h-174z" />
<glyph unicode="&#x201;" horiz-adv-x="1157" d="M-18 1538h301l180 -317h-174zM51 319q0 107 64 187t166.5 120t226.5 40q156 0 262 -48v62q0 105 -61.5 163t-178.5 58q-161 0 -335 -121l-84 174q210 138 446 138q234 0 360.5 -116.5t126.5 -326.5v-649h-264v150q-121 -170 -362 -170q-157 0 -262 96.5t-105 242.5z M311 342q0 -71 54 -116.5t131 -45.5q66 0 129.5 23t99.5 67q45 36 45 78v123q-103 41 -217 41q-98 0 -170 -45t-72 -125zM369 1538h301l180 -317h-174z" />
<glyph unicode="&#x202;" horiz-adv-x="1376" d="M10 0l555 1454h250l553 -1454h-291l-135 362h-508l-133 -362h-291zM379 1602q0 137 88 227t223 90t223 -90t88 -227h-170q-6 75 -46.5 124.5t-94.5 49.5q-56 0 -98.5 -52t-42.5 -122h-170zM481 561h410l-201 572z" />
<glyph unicode="&#x203;" horiz-adv-x="1157" d="M51 319q0 107 64 187t166.5 120t226.5 40q156 0 262 -48v62q0 105 -61.5 163t-178.5 58q-161 0 -335 -121l-84 174q210 138 446 138q234 0 360.5 -116.5t126.5 -326.5v-649h-264v150q-121 -170 -362 -170q-157 0 -262 96.5t-105 242.5zM248 1221q0 137 88 227t223 90 t223 -90t88 -227h-170q-6 75 -46.5 124.5t-94.5 49.5q-56 0 -98.5 -52t-42.5 -122h-170zM311 342q0 -71 54 -116.5t131 -45.5q66 0 129.5 23t99.5 67q45 36 45 78v123q-103 41 -217 41q-98 0 -170 -45t-72 -125z" />
<glyph unicode="&#x204;" horiz-adv-x="1230" d="M61 1919h301l181 -317h-174zM152 0v1454h991v-248h-709v-350h613v-229h-613v-379h727v-248h-1009zM449 1919h301l180 -317h-174z" />
<glyph unicode="&#x205;" horiz-adv-x="1226" d="M39 1538h301l180 -317h-174zM57 530q0 153 68 280.5t199 204.5t301 77q128 0 234.5 -45t177 -121.5t109 -175.5t38.5 -209q0 -57 -6 -92h-830q10 -122 92 -195.5t193 -73.5q83 0 155.5 40.5t98.5 105.5l235 -66q-60 -126 -192.5 -203t-306.5 -77q-168 0 -299 76 t-199 200.5t-68 273.5zM344 627h557q-10 119 -88.5 192.5t-191.5 73.5q-112 0 -190 -73.5t-87 -192.5zM426 1538h301l180 -317h-174z" />
<glyph unicode="&#x206;" horiz-adv-x="1230" d="M152 0v1454h991v-248h-709v-350h613v-229h-613v-379h727v-248h-1009zM328 1602q0 137 88 227t223 90t223 -90t88 -227h-170q-6 75 -46.5 124.5t-94.5 49.5q-56 0 -98.5 -52t-42.5 -122h-170z" />
<glyph unicode="&#x207;" horiz-adv-x="1226" d="M57 530q0 153 68 280.5t199 204.5t301 77q128 0 234.5 -45t177 -121.5t109 -175.5t38.5 -209q0 -57 -6 -92h-830q10 -122 92 -195.5t193 -73.5q83 0 155.5 40.5t98.5 105.5l235 -66q-60 -126 -192.5 -203t-306.5 -77q-168 0 -299 76t-199 200.5t-68 273.5zM305 1221 q0 137 88 227t223 90t223.5 -90t88.5 -227h-170q-6 75 -47 124.5t-95 49.5q-56 0 -98.5 -52t-42.5 -122h-170zM344 627h557q-10 119 -88.5 192.5t-191.5 73.5q-112 0 -190 -73.5t-87 -192.5z" />
<glyph unicode="&#x208;" horiz-adv-x="585" d="M-283 1919h301l181 -317h-174zM104 1919h302l180 -317h-174zM152 0v1454h282v-1454h-282z" />
<glyph unicode="&#x209;" d="M-313 1538h301l180 -317h-174zM74 1538h301l180 -317h-174zM125 0v1073h274v-1073h-274z" />
<glyph unicode="&#x20a;" horiz-adv-x="585" d="M-16 1602q0 137 88 227t223 90t223 -90t88 -227h-170q-6 75 -46.5 124.5t-94.5 49.5q-56 0 -98.5 -52t-42.5 -122h-170zM152 0v1454h282v-1454h-282z" />
<glyph unicode="&#x20b;" d="M-47 1221q0 137 88 227t223 90t223 -90t88 -227h-169q-6 75 -47 124.5t-95 49.5q-56 0 -98.5 -52t-42.5 -122h-170zM125 0v1073h274v-1073h-274z" />
<glyph unicode="&#x20c;" horiz-adv-x="1548" d="M63 727q0 144 54.5 278.5t148 235.5t227.5 162t285 61q123 0 235 -41.5t196 -114t146.5 -166t95 -201.5t32.5 -218q0 -143 -54 -276.5t-146.5 -234.5t-226 -161.5t-284.5 -60.5q-124 0 -236 40.5t-197 111.5t-148 164t-95.5 201.5t-32.5 219.5zM199 1919h301l180 -317 h-174zM350 727q0 -128 49 -237.5t147.5 -179.5t227.5 -70q99 0 181 42t134 111.5t80.5 156t28.5 177.5q0 128 -50.5 237.5t-149 178.5t-224.5 69q-99 0 -181 -42t-134 -111t-80.5 -155t-28.5 -177zM586 1919h301l180 -317h-174z" />
<glyph unicode="&#x20d;" horiz-adv-x="1241" d="M45 1538h301l180 -317h-174zM57 535q0 112 40 213t111 177.5t178.5 121.5t234.5 45q169 0 298.5 -77.5t196 -203t66.5 -276.5q0 -111 -39 -211.5t-109.5 -177t-177.5 -121.5t-235 -45q-103 0 -193 29.5t-157 81.5t-116 121.5t-73.5 152t-24.5 170.5zM340 535 q0 -140 80.5 -231t200.5 -91q119 0 199.5 92t80.5 232q0 139 -80.5 230t-199.5 91t-200 -92t-81 -231zM432 1538h301l180 -317h-174z" />
<glyph unicode="&#x20e;" horiz-adv-x="1548" d="M63 727q0 144 54.5 278.5t148 235.5t227.5 162t285 61q123 0 235 -41.5t196 -114t146.5 -166t95 -201.5t32.5 -218q0 -143 -54 -276.5t-146.5 -234.5t-226 -161.5t-284.5 -60.5q-124 0 -236 40.5t-197 111.5t-148 164t-95.5 201.5t-32.5 219.5zM350 727q0 -128 49 -237.5 t147.5 -179.5t227.5 -70q99 0 181 42t134 111.5t80.5 156t28.5 177.5q0 128 -50.5 237.5t-149 178.5t-224.5 69q-99 0 -181 -42t-134 -111t-80.5 -155t-28.5 -177zM465 1602q0 137 88 227t223 90t223 -90t88 -227h-169q-6 75 -47 124.5t-95 49.5q-56 0 -98.5 -52t-42.5 -122 h-170z" />
<glyph unicode="&#x20f;" horiz-adv-x="1241" d="M57 535q0 112 40 213t111 177.5t178.5 121.5t234.5 45q169 0 298.5 -77.5t196 -203t66.5 -276.5q0 -111 -39 -211.5t-109.5 -177t-177.5 -121.5t-235 -45q-103 0 -193 29.5t-157 81.5t-116 121.5t-73.5 152t-24.5 170.5zM311 1221q0 137 88.5 227t223.5 90t223 -90 t88 -227h-170q-6 75 -46.5 124.5t-94.5 49.5q-56 0 -99 -52t-43 -122h-170zM340 535q0 -140 80.5 -231t200.5 -91q119 0 199.5 92t80.5 232q0 139 -80.5 230t-199.5 91t-200 -92t-81 -231z" />
<glyph unicode="&#x210;" horiz-adv-x="1361" d="M53 1919h301l181 -317h-175zM152 0v1454h643q129 0 237 -71.5t166.5 -181.5t58.5 -230q0 -140 -71.5 -256.5t-190.5 -167.5l332 -547h-317l-297 487h-279v-487h-282zM434 735h354q78 0 131.5 68.5t53.5 167.5t-60 167t-137 68h-342v-471zM440 1919h301l181 -317h-174z " />
<glyph unicode="&#x211;" horiz-adv-x="792" d="M-178 1538h301l180 -317h-174zM125 0v1073h252v-229q56 107 150 175t182 68q43 0 55 -2v-249q-128 -2 -225.5 -50t-139.5 -137v-649h-274zM209 1538h301l180 -317h-174z" />
<glyph unicode="&#x212;" horiz-adv-x="1361" d="M152 0v1454h643q129 0 237 -71.5t166.5 -181.5t58.5 -230q0 -140 -71.5 -256.5t-190.5 -167.5l332 -547h-317l-297 487h-279v-487h-282zM319 1602q0 137 88.5 227t223.5 90t223 -90t88 -227h-170q-6 75 -46.5 124.5t-94.5 49.5q-56 0 -99 -52t-43 -122h-170zM434 735h354 q78 0 131.5 68.5t53.5 167.5t-60 167t-137 68h-342v-471z" />
<glyph unicode="&#x213;" horiz-adv-x="792" d="M88 1221q0 137 88 227t223 90t223.5 -90t88.5 -227h-170q-6 75 -47 124.5t-95 49.5q-56 0 -98.5 -52t-42.5 -122h-170zM125 0v1073h252v-229q56 107 150 175t182 68q43 0 55 -2v-249q-128 -2 -225.5 -50t-139.5 -137v-649h-274z" />
<glyph unicode="&#x214;" horiz-adv-x="1536" d="M131 713v741h283v-741q0 -96 18.5 -177.5t58 -149.5t110 -107t165.5 -39q97 0 168.5 39.5t111 108.5t58 149.5t18.5 175.5v741h281v-741q0 -153 -37 -281t-111.5 -228.5t-199 -157t-287.5 -56.5q-135 0 -244 39.5t-181.5 106.5t-121 160t-69.5 196.5t-21 220.5zM193 1919 h301l180 -317h-174zM580 1919h301l180 -317h-174z" />
<glyph unicode="&#x215;" horiz-adv-x="1243" d="M47 1538h301l180 -317h-174zM115 401v672h274v-612q0 -248 186 -248q79 0 152 52t117 143v665h274v-1073h-264v184q-57 -99 -160 -151.5t-225 -52.5q-354 0 -354 421zM434 1538h301l180 -317h-174z" />
<glyph unicode="&#x216;" horiz-adv-x="1536" d="M131 713v741h283v-741q0 -96 18.5 -177.5t58 -149.5t110 -107t165.5 -39q97 0 168.5 39.5t111 108.5t58 149.5t18.5 175.5v741h281v-741q0 -153 -37 -281t-111.5 -228.5t-199 -157t-287.5 -56.5q-135 0 -244 39.5t-181.5 106.5t-121 160t-69.5 196.5t-21 220.5zM459 1602 q0 137 88 227t223 90t223 -90t88 -227h-170q-6 75 -46.5 124.5t-94.5 49.5q-56 0 -98.5 -52t-42.5 -122h-170z" />
<glyph unicode="&#x217;" horiz-adv-x="1243" d="M115 401v672h274v-612q0 -248 186 -248q79 0 152 52t117 143v665h274v-1073h-264v184q-57 -99 -160 -151.5t-225 -52.5q-354 0 -354 421zM313 1221q0 137 88.5 227t223.5 90t223 -90t88 -227h-170q-6 75 -46.5 124.5t-94.5 49.5q-56 0 -99 -52t-43 -122h-170z" />
<glyph unicode="&#x218;" horiz-adv-x="1255" d="M45 172l125 244q52 -52 197.5 -115t291.5 -63q115 0 174.5 38.5t59.5 110.5q0 83 -99 135q-63 32 -258 86l-1 1h-1h-1l-1 1h-1h-1h-1l-1 1h-1h-1l-1 1h-1h-1h-1l-1 1h-1h-1l-1 1h-2q-109 31 -182 63.5t-127 78.5t-78.5 107.5t-24.5 144.5q0 144 72 249t190.5 156 t268.5 51q270 0 508 -161l-125 -230q-37 41 -156 92.5t-235 51.5q-114 0 -173 -42.5t-59 -121.5q0 -22 4.5 -40.5t17 -34.5t25 -28t38 -24t45.5 -20.5t58.5 -20t65.5 -19t78 -20.5q93 -24 159.5 -47.5t128 -59t98.5 -79t59 -105t22 -139.5q0 -113 -43.5 -198.5t-120 -135.5 t-170.5 -74t-205 -24q-163 0 -323.5 49.5t-286.5 138.5zM428 -438h158l139 338h-199z" />
<glyph unicode="&#x219;" horiz-adv-x="1017" d="M45 145l102 172q198 -141 377 -141q82 0 129 31t47 88q0 54 -48.5 81t-186.5 64q-219 59 -301 119.5t-82 179.5q0 161 119 258t303 97q250 0 420 -148l-111 -166q-158 119 -311 119q-73 0 -118.5 -30.5t-45.5 -90.5q0 -53 42 -77.5t169 -57.5q232 -58 324 -125.5 t92 -198.5q0 -156 -117.5 -247.5t-317.5 -91.5q-136 0 -266 43.5t-219 121.5zM309 -438h158l139 338h-198z" />
<glyph unicode="&#x21a;" horiz-adv-x="1267" d="M29 1206v248h1210v-248h-465v-1206h-280v1206h-465zM434 -438h158l139 338h-199z" />
<glyph unicode="&#x21b;" horiz-adv-x="786" d="M45 862v211h141v348h275v-348h225v-211h-225v-524q0 -54 28 -79.5t74 -25.5q58 0 150 39l55 -217q-164 -73 -303 -73q-59 0 -108 15t-88 45.5t-61 82.5t-22 121v616h-141zM193 -438h157l139 338h-198z" />
<glyph unicode="&#x2c6;" horiz-adv-x="755" d="M-33 1221l307 317h213l308 -317h-301l-113 198l-113 -198h-301z" />
<glyph unicode="&#x2c7;" horiz-adv-x="755" d="M-33 1538h301l113 -199l113 199h301l-308 -317h-213z" />
<glyph unicode="&#x2d8;" horiz-adv-x="671" d="M27 1538h170q0 -70 42.5 -122t98.5 -52q54 0 94.5 49.5t46.5 124.5h170q0 -137 -88 -227t-223 -90t-223 90t-88 227z" />
<glyph unicode="&#x2d9;" horiz-adv-x="452" d="M66 1356q0 63 48 110t111 47q62 0 111 -47.5t49 -109.5q0 -64 -49 -112t-111 -48q-63 0 -111 48.5t-48 111.5z" />
<glyph unicode="&#x2da;" horiz-adv-x="536" d="M43 1360q0 84 61 131t164 47t164.5 -47t61.5 -131q0 -85 -61.5 -132.5t-164.5 -47.5t-164 47.5t-61 132.5zM174 1360q0 -35 27 -59.5t67 -24.5q38 0 66 24t28 60q0 37 -26.5 59.5t-67.5 22.5q-40 0 -67 -22.5t-27 -59.5z" />
<glyph unicode="&#x2db;" horiz-adv-x="593" d="M133 -223q0 69 61.5 137.5t182.5 128.5l80 -43q-158 -94 -158 -174q0 -75 127 -84l-57 -143q-115 17 -175.5 65t-60.5 113z" />
<glyph unicode="&#x2dc;" horiz-adv-x="894" d="M63 1227q0 18 7.5 47t25.5 67t44 70.5t69 55t94 22.5q42 0 81 -15t64 -33t59 -33t66 -15q28 0 49 10t32 23.5t18 29.5t8.5 25t1.5 14h152q0 -14 -7.5 -42t-27 -66.5t-46.5 -72.5t-72 -57.5t-99 -23.5q-52 0 -100.5 23t-90 46t-78.5 23q-26 0 -45.5 -10t-29 -22.5 t-15.5 -28.5t-7 -24.5t-1 -12.5h-152z" />
<glyph unicode="&#x2dd;" horiz-adv-x="749" d="M-25 1221l181 317h301l-307 -317h-175zM362 1221l181 317h301l-307 -317h-175z" />
<glyph unicode="&#x394;" horiz-adv-x="1335" d="M37 0v213l518 1241h229l512 -1241v-213h-1259zM326 248h692l-348 893z" />
<glyph unicode="&#x3a9;" horiz-adv-x="1585" d="M78 0v209h338q-149 84 -233.5 228t-84.5 321q0 138 53.5 267t144.5 225.5t221.5 155t275.5 58.5t275.5 -58.5t222 -155t145 -225.5t53.5 -267q0 -177 -85 -321t-235 -228h340v-209h-628v209q98 36 174 123t115.5 198.5t39.5 227.5q0 85 -29.5 166t-82 145.5t-132.5 103.5 t-173 39t-173 -39t-132 -103.5t-81.5 -145.5t-29.5 -166q0 -179 91 -337t239 -212v-209h-629z" />
<glyph unicode="&#x3bc;" horiz-adv-x="1286" d="M125 -434v1507h274v-612q0 -248 185 -248q79 0 153 50.5t119 144.5v665h274v-1073h-223l-10 201q-39 -81 -135.5 -151t-196.5 -70q-72 0 -119.5 37.5t-64.5 82.5l18 -534h-274z" />
<glyph unicode="&#x3c0;" horiz-adv-x="1314" d="M53 831v238h1161v-238h-196v-487q0 -60 28 -92.5t82 -32.5q49 0 109 29l39 -209q-119 -55 -264 -55q-125 0 -196 69.5t-71 194.5v583h-268v-831h-270v831h-154z" />
<glyph unicode="&#x400;" horiz-adv-x="1236" d="M158 0v1454h991v-248h-709v-350h613v-229h-613v-379h727v-248h-1009zM209 1919h301l180 -317h-174z" />
<glyph unicode="&#x401;" horiz-adv-x="1236" d="M158 0v1454h991v-248h-709v-350h613v-229h-613v-379h727v-248h-1009zM213 1726q0 60 46 105t106 45q59 0 105 -45t46 -105q0 -61 -46 -106t-105 -45q-60 0 -106 45.5t-46 105.5zM719 1731q0 60 45.5 104.5t105.5 44.5q59 0 105.5 -45t46.5 -104q0 -61 -46.5 -106.5 t-105.5 -45.5q-60 0 -105.5 46t-45.5 106z" />
<glyph unicode="&#x402;" horiz-adv-x="1505" d="M29 1212v242h1157v-242h-561v-393q144 119 356 119q229 0 359 -129t130 -356q0 -226 -122 -349.5t-349 -123.5q-134 0 -256 45l76 231q90 -43 164 -43q98 0 151.5 59.5t53.5 180.5q0 247 -232 247q-181 0 -331 -135v-565h-277v1212h-319z" />
<glyph unicode="&#x403;" horiz-adv-x="1071" d="M158 0v1454h886v-248h-606v-1206h-280zM461 1602l180 317h301l-307 -317h-174z" />
<glyph unicode="&#x404;" horiz-adv-x="1429" d="M66 737q0 107 30 211t91.5 197t146.5 163.5t204 112t255 41.5q205 0 352.5 -85t222.5 -232l-217 -150q-35 78 -99 128.5t-130 69.5t-138 19q-89 0 -163 -29t-123.5 -79.5t-82 -113t-46.5 -134.5h581v-227h-590q27 -168 142 -279.5t286 -111.5q72 0 141 21.5t132.5 73 t97.5 126.5l232 -133q-45 -106 -140.5 -183.5t-216.5 -116t-254 -38.5q-125 0 -238.5 42t-199 115.5t-148.5 168.5t-95.5 204t-32.5 219z" />
<glyph unicode="&#x405;" horiz-adv-x="1255" d="M45 172l125 244q52 -52 197.5 -115t291.5 -63q115 0 174.5 38.5t59.5 110.5q0 83 -99 135q-63 32 -258 86l-1 1h-1h-1l-1 1h-1h-1h-1l-1 1h-1h-1l-1 1h-1h-1h-1l-1 1h-1h-1l-1 1h-2q-109 31 -182 63.5t-127 78.5t-78.5 107.5t-24.5 144.5q0 144 72 249t190.5 156 t268.5 51q270 0 508 -161l-125 -230q-37 41 -156 92.5t-235 51.5q-114 0 -173 -42.5t-59 -121.5q0 -22 4.5 -40.5t17 -34.5t25 -28t38 -24t45.5 -20.5t58.5 -20t65.5 -19t78 -20.5q93 -24 159.5 -47.5t128 -59t98.5 -79t59 -105t22 -139.5q0 -113 -43.5 -198.5t-120 -135.5 t-170.5 -74t-205 -24q-163 0 -323.5 49.5t-286.5 138.5z" />
<glyph unicode="&#x406;" horiz-adv-x="598" d="M158 0v1454h282v-1454h-282z" />
<glyph unicode="&#x407;" horiz-adv-x="585" d="M-113 1726q0 60 46 105t106 45q59 0 105 -45t46 -105q0 -61 -46 -106t-105 -45q-60 0 -106 45.5t-46 105.5zM152 0v1454h282v-1454h-282zM393 1731q0 60 46 104.5t106 44.5q59 0 105 -45t46 -104q0 -61 -46 -106.5t-105 -45.5q-60 0 -106 46t-46 106z" />
<glyph unicode="&#x408;" horiz-adv-x="1040" d="M-31 315q42 -157 171 -247.5t298 -90.5q108 0 203.5 35t168.5 100.5t114.5 169t38.5 232.5v940h-279v-930q0 -142 -67 -211t-171 -69q-90 0 -146.5 43t-90.5 137z" />
<glyph unicode="&#x409;" horiz-adv-x="2138" d="M20 240q51 4 86 16.5t69 44t57 86t44.5 143.5t38 214.5t31.5 299.5l35 410h881v-563h356q212 0 342.5 -117t130.5 -325q0 -211 -128 -330t-335 -119h-647v1206h-344l-19 -221q-19 -229 -47 -390t-71.5 -282t-108 -190.5t-150.5 -103t-204 -33.5zM1262 240h340 q98 0 150 56t52 155q0 96 -52.5 153.5t-149.5 57.5h-340v-422z" />
<glyph unicode="&#x40a;" horiz-adv-x="2199" d="M158 0v1454h280v-569h604v569h281v-563h356q212 0 342.5 -117t130.5 -325q0 -211 -127.5 -330t-334.5 -119h-648v637h-604v-637h-280zM1323 240h340q99 0 151 51.5t52 150.5q0 96 -52.5 148.5t-150.5 52.5h-340v-403z" />
<glyph unicode="&#x40b;" horiz-adv-x="1503" d="M29 1212v242h1138v-242h-542v-370q147 94 358 94q212 0 330.5 -110.5t118.5 -331.5v-494h-277v393q0 148 -54 216.5t-177 68.5q-165 0 -299 -100v-578h-277v1212h-319z" />
<glyph unicode="&#x40c;" horiz-adv-x="1337" d="M158 0v1454h280v-598h115l442 598h320l-522 -702l569 -752h-315l-467 602h-142v-602h-280zM594 1602l180 317h301l-307 -317h-174z" />
<glyph unicode="&#x40d;" horiz-adv-x="1552" d="M158 0v1454h280v-1020l742 1020h215v-1454h-281v997l-731 -997h-225zM367 1919h301l180 -317h-174z" />
<glyph unicode="&#x40e;" horiz-adv-x="1302" d="M12 1454h305l357 -784l332 784h297l-512 -1106q-93 -201 -179.5 -281.5t-218.5 -80.5q-49 0 -110 13.5t-99 39.5l37 233q78 -43 146 -43q62 0 105.5 35.5t74.5 120.5zM305 1876h168q0 -54 58.5 -93.5t138.5 -39.5q76 0 130.5 37.5t65.5 95.5h166q-1 -127 -101.5 -204 t-260.5 -77q-162 0 -263 77t-102 204z" />
<glyph unicode="&#x40f;" horiz-adv-x="1456" d="M158 0v1454h282v-1206h576v1206h280v-1454h-436v-360h-268v360h-434z" />
<glyph unicode="&#x410;" horiz-adv-x="1376" d="M10 0l555 1454h250l553 -1454h-291l-135 362h-508l-133 -362h-291zM481 561h410l-201 572z" />
<glyph unicode="&#x411;" horiz-adv-x="1368" d="M158 0v1454h1063v-248h-783v-334h402q217 0 345 -114t128 -318q0 -209 -124.5 -324.5t-338.5 -115.5h-692zM438 240h385q98 0 150.5 53.5t52.5 148.5q0 92 -53 146.5t-150 54.5h-385v-403z" />
<glyph unicode="&#x412;" horiz-adv-x="1396" d="M135 0v1454h778q98 0 176 -55.5t117 -139t39 -176.5q0 -109 -55 -202t-154 -136q127 -37 199 -133.5t72 -236.5q0 -118 -64.5 -204.5t-169.5 -128.5t-235 -42h-703zM418 240h420q76 0 130 55t54 133q0 80 -49.5 137.5t-120.5 57.5h-434v-383zM418 846h377q73 0 122.5 50 t49.5 134q0 82 -45.5 132t-114.5 50h-389v-366z" />
<glyph unicode="&#x413;" horiz-adv-x="1071" d="M158 0v1454h886v-248h-606v-1206h-280z" />
<glyph unicode="&#x414;" horiz-adv-x="1550" d="M35 248h51q63 2 105 35t79 120.5t63 242t48 398.5l37 410h880v-1206h215v-610h-264v362h-948v-362h-266v610zM471 248h545v958h-342l-21 -221q-25 -286 -68.5 -463.5t-113.5 -273.5z" />
<glyph unicode="&#x415;" horiz-adv-x="1236" d="M158 0v1454h991v-248h-709v-350h613v-229h-613v-379h727v-248h-1009z" />
<glyph unicode="&#x416;" horiz-adv-x="2068" d="M-18 0l524 752l-477 702h317l393 -598h150v598h293v-598h147l393 598h320l-477 -702l524 -752h-317l-410 602h-180v-602h-293v602h-180l-412 -602h-315z" />
<glyph unicode="&#x417;" horiz-adv-x="1124" d="M35 199l164 196q133 -153 323 -153q109 0 178.5 58.5t69.5 158.5q0 97 -75.5 157t-217.5 60h-151v209h135q130 0 200 48t70 136q0 77 -52.5 118.5t-148.5 41.5q-182 0 -303 -137l-159 176q89 100 204.5 149t272.5 49q213 0 332.5 -93t119.5 -269q0 -116 -56.5 -203.5 t-168.5 -122.5q134 -26 208.5 -119t74.5 -231q0 -199 -148 -318.5t-379 -119.5q-305 0 -493 209z" />
<glyph unicode="&#x418;" horiz-adv-x="1552" d="M158 0v1454h280v-1020l742 1020h215v-1454h-281v997l-731 -997h-225z" />
<glyph unicode="&#x419;" horiz-adv-x="1552" d="M158 0v1454h280v-1020l742 1020h215v-1454h-281v997l-731 -997h-225zM446 1876h168q0 -54 58.5 -93.5t138.5 -39.5q76 0 131 38t64 95h168q-1 -127 -101.5 -204t-261.5 -77q-162 0 -263 77t-102 204z" />
<glyph unicode="&#x41a;" horiz-adv-x="1337" d="M158 0v1454h280v-598h115l442 598h320l-522 -702l569 -752h-315l-467 602h-142v-602h-280z" />
<glyph unicode="&#x41b;" horiz-adv-x="1421" d="M20 240q51 4 86 16.5t69 44t57 86t44.5 143.5t38 214.5t31.5 299.5l35 410h881v-1454h-281v1206h-344l-19 -221q-16 -191 -37.5 -333t-54 -256.5t-76 -190t-104 -125.5t-135.5 -72t-174 -22z" />
<glyph unicode="&#x41c;" horiz-adv-x="1783" d="M158 0v1454h303l430 -827l434 827h301v-1454h-283v963l-374 -717h-154l-375 717v-963h-282z" />
<glyph unicode="&#x41d;" horiz-adv-x="1538" d="M158 0v1454h282v-588h660v588h280v-1454h-280v621h-660v-621h-282z" />
<glyph unicode="&#x41e;" horiz-adv-x="1548" d="M66 727q0 144 54.5 278.5t147.5 235.5t227 162t285 61q123 0 235 -41.5t196 -114t146.5 -166t95 -201.5t32.5 -218q0 -143 -54 -276.5t-146.5 -234.5t-226 -161.5t-284.5 -60.5q-154 0 -288.5 62.5t-225 166t-142.5 236t-52 272.5zM352 727q0 -128 49 -237.5 t147.5 -179.5t227.5 -70q99 0 181 42t134 111.5t80.5 156t28.5 177.5q0 128 -50.5 237.5t-149 178.5t-224.5 69q-99 0 -181 -42t-134 -111t-80.5 -155t-28.5 -177z" />
<glyph unicode="&#x41f;" horiz-adv-x="1515" d="M158 0v1454h1198v-1454h-281v1206h-637v-1206h-280z" />
<glyph unicode="&#x420;" horiz-adv-x="1282" d="M158 0v1454h616q97 0 184.5 -42t148 -110t95.5 -155t35 -176q0 -125 -56 -235t-161.5 -179.5t-235.5 -69.5h-344v-487h-282zM440 735h328q79 0 130.5 65t51.5 171q0 108 -57.5 171.5t-136.5 63.5h-316v-471z" />
<glyph unicode="&#x421;" horiz-adv-x="1404" d="M63 737q0 134 49.5 263t138.5 232t227 166.5t302 63.5q195 0 344.5 -86t221.5 -231l-218 -150q-35 78 -97 128.5t-125.5 69.5t-133.5 19q-102 0 -184.5 -42.5t-133 -112.5t-77.5 -154.5t-27 -173.5q0 -129 53 -241t152 -181t221 -69q70 0 137 21.5t128.5 73t93.5 126.5 l231 -133q-43 -104 -141.5 -182.5t-217 -117t-239.5 -38.5t-232 42t-195.5 115.5t-148 168t-96.5 204t-33 219.5z" />
<glyph unicode="&#x422;" horiz-adv-x="1267" d="M29 1206v248h1210v-248h-465v-1206h-280v1206h-465z" />
<glyph unicode="&#x423;" horiz-adv-x="1302" d="M12 1454h305l357 -784l332 784h297l-512 -1106q-93 -201 -179.5 -281.5t-218.5 -80.5q-49 0 -110 13.5t-99 39.5l37 233q78 -43 146 -43q61 0 105 36t75 120z" />
<glyph unicode="&#x424;" horiz-adv-x="1603" d="M53 743q0 268 157 438t460 203v191h272v-191q298 -33 452 -203t154 -438t-155.5 -434t-450.5 -198v-183h-272v183q-301 30 -459 196.5t-158 435.5zM328 750q0 -332 342 -383v757q-174 -23 -258 -116t-84 -258zM942 367q332 52 332 383q0 328 -332 374v-757z" />
<glyph unicode="&#x425;" horiz-adv-x="1323" d="M-6 1454h307l363 -541l360 541h305l-518 -737l502 -717h-305l-344 520l-347 -520h-307l502 717z" />
<glyph unicode="&#x426;" horiz-adv-x="1542" d="M160 0v1454h280v-1206h568v1206h280v-1206h217v-610h-266v362h-1079z" />
<glyph unicode="&#x427;" horiz-adv-x="1300" d="M76 1014v440h278v-360q0 -172 60 -247t209 -75q161 0 241 53v629h279v-1454h-279v567q-67 -28 -139.5 -40.5t-187.5 -12.5q-125 0 -216 37.5t-143.5 106.5t-77 157t-24.5 199z" />
<glyph unicode="&#x428;" horiz-adv-x="2017" d="M158 0v1454h280v-1206h430v1206h281v-1206h430v1206h281v-1454h-1702z" />
<glyph unicode="&#x429;" horiz-adv-x="2115" d="M160 0v1454h280v-1206h428v1206h283v-1206h428v1206h283v-1206h215v-610h-265v362h-1652z" />
<glyph unicode="&#x42a;" horiz-adv-x="1556" d="M27 1217v237h696v-512h278q228 0 367 -123.5t139 -343.5q0 -223 -137.5 -349t-359.5 -126h-568v1217h-415zM723 240h262q115 0 175.5 63t60.5 174q0 107 -62.5 172.5t-173.5 65.5h-262v-475z" />
<glyph unicode="&#x42b;" horiz-adv-x="1839" d="M158 0v1454h280v-512h279q228 0 367 -123.5t139 -343.5q0 -222 -137.5 -348.5t-358.5 -126.5h-569zM438 240h262q116 0 177 63t61 174q0 107 -63 172.5t-175 65.5h-262v-475zM1399 0v1452h282v-1452h-282z" />
<glyph unicode="&#x42c;" horiz-adv-x="1271" d="M158 0v1454h280v-512h279q228 0 367 -123.5t139 -343.5q0 -222 -137.5 -348.5t-358.5 -126.5h-569zM438 240h262q116 0 177 63t61 174q0 107 -63 172.5t-175 65.5h-262v-475z" />
<glyph unicode="&#x42d;" horiz-adv-x="1429" d="M39 326l231 133q34 -75 97.5 -126.5t132.5 -73t141 -21.5q171 0 285 111t141 280h-590v227h584q-15 72 -47.5 134.5t-82.5 113t-123.5 79.5t-162.5 29q-72 0 -138 -19t-129.5 -69.5t-98.5 -128.5l-218 150q75 147 222 232t354 85q136 0 255 -41.5t204 -112t146.5 -163.5 t91.5 -197t30 -211q0 -110 -32.5 -219t-96 -204t-148.5 -168.5t-199 -115.5t-239 -42q-203 0 -373 90t-237 248z" />
<glyph unicode="&#x42e;" horiz-adv-x="2062" d="M160 0v1454h280v-596h222q38 273 219.5 439.5t439.5 166.5q198 0 352 -97.5t237 -266t83 -377.5q0 -219 -88 -386.5t-241.5 -257t-348.5 -89.5q-264 0 -443 171.5t-213 448.5h-219v-610h-280zM940 727q0 -228 100 -357.5t279 -129.5q186 0 287.5 132t101.5 355 q0 228 -104.5 356.5t-286.5 128.5q-180 0 -278.5 -130.5t-98.5 -354.5z" />
<glyph unicode="&#x42f;" horiz-adv-x="1351" d="M43 0l356 573q-126 52 -201 165t-75 259q0 121 59 225.5t166 168t238 63.5h608v-1454h-281v539h-231l-328 -539h-311zM408 997q0 -97 57.5 -157t144.5 -60h303v432h-297q-83 0 -145.5 -60t-62.5 -155z" />
<glyph unicode="&#x430;" horiz-adv-x="1157" d="M51 319q0 107 64 187t166.5 120t226.5 40q156 0 262 -48v62q0 105 -61.5 163t-178.5 58q-161 0 -335 -121l-84 174q210 138 446 138q234 0 360.5 -116.5t126.5 -326.5v-649h-264v150q-121 -170 -362 -170q-157 0 -262 96.5t-105 242.5zM311 342q0 -71 54 -116.5 t131 -45.5q66 0 129.5 23t99.5 67q45 36 45 78v123q-103 41 -217 41q-98 0 -170 -45t-72 -125z" />
<glyph unicode="&#x431;" horiz-adv-x="1245" d="M90 635q0 241 63.5 404.5t185 256t312.5 134.5l398 88l18 -232l-412 -92q-130 -30 -204.5 -112.5t-100.5 -233.5q133 162 357 162q196 0 335.5 -146.5t139.5 -357.5q0 -228 -149.5 -377t-401.5 -149q-264 0 -402.5 167.5t-138.5 487.5zM371 512q0 -133 75.5 -218 t192.5 -85q116 0 188 81.5t72 213.5q0 122 -74 199t-194 77q-115 0 -187.5 -74.5t-72.5 -193.5z" />
<glyph unicode="&#x432;" horiz-adv-x="1140" d="M131 0v1073h635q116 0 192 -79t76 -191q0 -76 -39.5 -145t-117.5 -101q202 -57 202 -266q0 -145 -101 -218t-284 -73h-563zM403 199h271q58 0 94.5 38.5t36.5 94.5q0 58 -35 95.5t-94 37.5h-273v-266zM403 625h234q58 0 92.5 33.5t34.5 93.5q0 54 -30.5 88t-88.5 34h-242 v-249z" />
<glyph unicode="&#x433;" horiz-adv-x="882" d="M129 0v1073h721v-227h-449v-846h-272z" />
<glyph unicode="&#x434;" horiz-adv-x="1288" d="M31 238h57q66 9 103 55t60 146.5t44 301.5l37 332h751v-835h144v-545h-244v307h-717v-307h-235v545zM426 238h385v606h-240l-20 -162q-38 -308 -125 -444z" />
<glyph unicode="&#x435;" horiz-adv-x="1226" d="M57 530q0 153 68 280.5t199 204.5t301 77q128 0 234.5 -45t177 -121.5t109 -175.5t38.5 -209q0 -57 -6 -92h-830q10 -122 92 -195.5t193 -73.5q83 0 155.5 40.5t98.5 105.5l235 -66q-60 -126 -192.5 -203t-306.5 -77q-168 0 -299 76t-199 200.5t-68 273.5zM344 627h557 q-10 119 -88.5 192.5t-191.5 73.5q-112 0 -190 -73.5t-87 -192.5z" />
<glyph unicode="&#x436;" horiz-adv-x="1703" d="M0 0l377 555l-344 518h309l266 -424h105v424h280v-424h107l264 424h309l-346 -518l379 -555h-322l-268 422h-123v-422h-278v422h-125l-268 -422h-322z" />
<glyph unicode="&#x437;" horiz-adv-x="901" d="M35 135l131 176q80 -102 233 -102q86 0 134.5 35t48.5 100q0 76 -56.5 115t-181.5 39h-84v157h82q95 0 149 37.5t54 98.5q0 50 -37 77t-100 27q-55 0 -114 -24t-108 -68l-116 153q157 136 366 136q152 0 251 -73t99 -204q0 -87 -47.5 -151.5t-128.5 -79.5 q114 -21 175 -94.5t61 -182.5q0 -145 -117.5 -236t-300.5 -91q-124 0 -227 40.5t-166 114.5z" />
<glyph unicode="&#x438;" horiz-adv-x="1241" d="M129 0v1073h272v-682l508 682h203v-1073h-272v664l-502 -664h-209z" />
<glyph unicode="&#x439;" horiz-adv-x="1241" d="M129 0v1073h272v-682l508 682h203v-1073h-272v664l-502 -664h-209zM311 1538h170q0 -70 43 -122t99 -52q54 0 94.5 49.5t46.5 124.5h170q0 -137 -88 -227t-223 -90t-223.5 90t-88.5 227z" />
<glyph unicode="&#x43a;" horiz-adv-x="1103" d="M129 0v1073h270v-426h62l325 426h295l-417 -520l450 -553h-311l-332 414h-72v-414h-270z" />
<glyph unicode="&#x43b;" horiz-adv-x="1173" d="M16 233q41 3 69.5 11.5t52.5 32t39.5 56.5t30 92.5t25.5 132t23 183.5l37 332h751v-1073h-272v844h-240l-20 -162q-17 -139 -37 -239t-48.5 -178.5t-62.5 -127.5t-83.5 -82t-108.5 -46.5t-139 -16.5z" />
<glyph unicode="&#x43c;" horiz-adv-x="1456" d="M129 0v1073h283l317 -571l318 571h280v-1073h-262v645l-272 -483h-129l-273 483v-645h-262z" />
<glyph unicode="&#x43d;" horiz-adv-x="1226" d="M129 0v1073h272v-405h426v405h273v-1073h-273v434h-426v-434h-272z" />
<glyph unicode="&#x43e;" horiz-adv-x="1241" d="M57 535q0 112 40 213t111 177.5t178.5 121.5t234.5 45q169 0 298.5 -77.5t196 -203t66.5 -276.5q0 -111 -39 -211.5t-109.5 -177t-177.5 -121.5t-235 -45q-103 0 -193 29.5t-157 81.5t-116 121.5t-73.5 152t-24.5 170.5zM340 535q0 -140 80.5 -231t200.5 -91 q119 0 199.5 92t80.5 232q0 139 -80.5 230t-199.5 91t-200 -92t-81 -231z" />
<glyph unicode="&#x43f;" horiz-adv-x="1196" d="M129 0v1073h940v-1073h-272v836h-396v-836h-272z" />
<glyph unicode="&#x440;" horiz-adv-x="1300" d="M129 -436v1509h240v-184q61 96 156 149.5t214 53.5q141 0 257 -75t180.5 -201.5t64.5 -276.5q0 -155 -60 -283t-168 -202t-241 -74q-123 0 -218.5 55t-150.5 153v-624h-274zM403 426q37 -92 114 -152.5t163 -60.5q121 0 201 97t80 229q0 135 -85 227t-212 92 q-80 0 -157 -52t-104 -128v-252z" />
<glyph unicode="&#x441;" horiz-adv-x="1155" d="M57 537q0 151 67.5 276t198 202t300.5 77t296 -74t189 -201l-268 -82q-34 58 -92 90.5t-127 32.5q-120 0 -200.5 -90t-80.5 -231q0 -139 82 -231.5t199 -92.5q73 0 135.5 36t87.5 91l268 -82q-57 -125 -186 -201.5t-301 -76.5q-127 0 -235 45.5t-180 122t-112.5 177.5 t-40.5 212z" />
<glyph unicode="&#x442;" horiz-adv-x="1011" d="M35 836v237h942v-237h-334v-836h-272v836h-336z" />
<glyph unicode="&#x443;" horiz-adv-x="1126" d="M12 1073h283l291 -835l258 835h258l-422 -1212q-61 -172 -150.5 -250t-218.5 -78q-94 0 -155 39v235q63 -36 127 -36q53 0 89.5 52t63.5 177z" />
<glyph unicode="&#x444;" horiz-adv-x="1468" d="M57 532q0 226 141.5 373.5t403.5 177.5v412h275v-414q255 -32 393.5 -178.5t138.5 -370.5q0 -225 -139 -368t-393 -174v-426h-275v424q-261 28 -403 171.5t-142 372.5zM326 537q0 -282 276 -326v645q-276 -43 -276 -319zM877 213q264 48 264 324q0 271 -264 319v-643z " />
<glyph unicode="&#x445;" horiz-adv-x="1087" d="M8 0l387 535l-381 538h281l231 -336l17 -37l20 37l230 336h282l-383 -538l389 -535h-282l-238 334l-18 35l-17 -35l-235 -334h-283z" />
<glyph unicode="&#x446;" horiz-adv-x="1245" d="M129 0v1073h272v-835h357v835h272v-835h176v-545h-241v307h-836z" />
<glyph unicode="&#x447;" horiz-adv-x="1050" d="M68 723v350h264v-309q0 -197 164 -197q103 0 157 41v465h269v-1073h-269v383q-90 -33 -223 -33q-175 0 -268.5 105t-93.5 268z" />
<glyph unicode="&#x448;" horiz-adv-x="1673" d="M129 0v1073h272v-835h299v835h273v-835h299v835h272v-1073h-1415z" />
<glyph unicode="&#x449;" horiz-adv-x="1759" d="M129 0v1073h272v-835h299v835h273v-835h299v835h272v-835h178v-545h-243v307h-1350z" />
<glyph unicode="&#x44a;" horiz-adv-x="1257" d="M33 846v227h565v-340h209q180 0 295 -96t115 -268q0 -175 -112 -272t-288 -97h-491v846h-293zM598 215h188q72 0 113 39t41 111t-42.5 112.5t-109.5 40.5h-190v-303z" />
<glyph unicode="&#x44b;" horiz-adv-x="1509" d="M129 0v1073h272v-340h181q181 0 296 -96t115 -268q0 -175 -112 -272t-289 -97h-463zM401 215h162q70 0 111 39t41 111t-42.5 112.5t-109.5 40.5h-162v-303zM1110 0v1073h270v-1073h-270z" />
<glyph unicode="&#x44c;" horiz-adv-x="1060" d="M129 0v1073h272v-340h209q180 0 295 -96t115 -268q0 -175 -111.5 -272t-287.5 -97h-492zM401 215h189q72 0 112.5 39t40.5 111t-42.5 112.5t-108.5 40.5h-191v-303z" />
<glyph unicode="&#x44d;" horiz-adv-x="1128" d="M37 236l207 116q37 -69 112 -109t152 -40q103 0 178.5 67t97.5 179h-407v180h407q-25 108 -102 174.5t-184 66.5q-76 0 -146.5 -34.5t-113.5 -104.5l-187 123q61 108 179.5 174t273.5 66q128 0 236.5 -47t179.5 -124.5t111 -177t40 -206.5t-40.5 -207.5t-112 -178 t-178 -124.5t-230.5 -47q-159 0 -287 67t-186 187z" />
<glyph unicode="&#x44e;" horiz-adv-x="1607" d="M127 0v1073h272v-409h144q34 197 169 313.5t326 116.5q228 0 368 -157t140 -405q0 -254 -142.5 -403t-367.5 -149q-201 0 -333.5 121t-163.5 325h-140v-426h-272zM795 537q0 -155 64 -236.5t175 -81.5q118 0 183 83.5t65 236.5q0 152 -66.5 233.5t-179.5 81.5 q-114 0 -177.5 -83t-63.5 -234z" />
<glyph unicode="&#x44f;" horiz-adv-x="1103" d="M41 0l270 408q-99 35 -153 112.5t-54 196.5q0 162 108 260t275 98h488v-1075h-270v362h-146l-223 -362h-295zM381 713q0 -64 39 -103t96 -39h189v287h-185q-56 0 -97.5 -39.5t-41.5 -105.5z" />
<glyph unicode="&#x450;" horiz-adv-x="1226" d="M57 530q0 153 68 280.5t199 204.5t301 77q128 0 234.5 -45t177 -121.5t109 -175.5t38.5 -209q0 -57 -6 -92h-830q10 -122 92 -195.5t193 -73.5q83 0 155.5 40.5t98.5 105.5l235 -66q-60 -126 -192.5 -203t-306.5 -77q-168 0 -299 76t-199 200.5t-68 273.5zM205 1538h301 l180 -317h-174zM344 627h557q-10 119 -88.5 192.5t-191.5 73.5q-112 0 -190 -73.5t-87 -192.5z" />
<glyph unicode="&#x451;" horiz-adv-x="1226" d="M57 530q0 153 68 280.5t199 204.5t301 77q128 0 234.5 -45t177 -121.5t109 -175.5t38.5 -209q0 -57 -6 -92h-830q10 -122 92 -195.5t193 -73.5q83 0 155.5 40.5t98.5 105.5l235 -66q-60 -126 -192.5 -203t-306.5 -77q-168 0 -299 76t-199 200.5t-68 273.5zM209 1346 q0 60 45.5 104.5t105.5 44.5q59 0 105.5 -45t46.5 -104q0 -61 -46.5 -106.5t-105.5 -45.5q-60 0 -105.5 46t-45.5 106zM344 627h557q-10 119 -88.5 192.5t-191.5 73.5q-112 0 -190 -73.5t-87 -192.5zM715 1350q0 60 45.5 104.5t105.5 44.5q59 0 105.5 -45t46.5 -104 q0 -61 -46.5 -106.5t-105.5 -45.5q-60 0 -105.5 46t-45.5 106z" />
<glyph unicode="&#x452;" horiz-adv-x="1245" d="M-29 1155v172h158v168h274v-168h441v-172h-441v-407q52 119 154.5 185t230.5 66q75 0 134 -22t97 -59.5t62.5 -92t34.5 -115t10 -132.5v-586q0 -171 -106.5 -282t-269.5 -111q-159 0 -269 96l119 186q45 -45 117 -45q59 0 97 37.5t38 97.5v539q0 122 -46.5 185t-127.5 63 q-93 0 -168.5 -78t-106.5 -201v-479h-274v1155h-158z" />
<glyph unicode="&#x453;" horiz-adv-x="882" d="M129 0v1073h721v-227h-449v-846h-272zM367 1221l180 317h301l-307 -317h-174z" />
<glyph unicode="&#x454;" horiz-adv-x="1130" d="M57 539q0 110 40 210.5t112 177t181 122t237 45.5q154 0 273.5 -66.5t178.5 -173.5l-198 -135q-37 74 -110 112.5t-146 38.5q-108 0 -182 -68.5t-101 -172.5h410v-180h-408q22 -108 98.5 -177t178.5 -69q76 0 149 41.5t104 113.5l220 -122q-49 -117 -183 -185.5 t-290 -68.5q-124 0 -231 44.5t-179 120.5t-113 177.5t-41 214.5z" />
<glyph unicode="&#x455;" horiz-adv-x="1017" d="M45 145l102 172q198 -141 377 -141q82 0 129 31t47 88q0 54 -48.5 81t-186.5 64q-219 59 -301 119.5t-82 179.5q0 161 119 258t303 97q250 0 420 -148l-111 -166q-158 119 -311 119q-73 0 -118.5 -30.5t-45.5 -90.5q0 -53 42 -77.5t169 -57.5q232 -58 324 -125.5 t92 -198.5q0 -156 -117.5 -247.5t-317.5 -91.5q-136 0 -266 43.5t-219 121.5z" />
<glyph unicode="&#x456;" d="M115 1358q0 60 45.5 104.5t105.5 44.5q59 0 105.5 -45t46.5 -104q0 -61 -46.5 -106.5t-105.5 -45.5q-60 0 -105.5 46t-45.5 106zM129 0v1073h274v-1073h-274z" />
<glyph unicode="&#x457;" d="M-143 1346q0 60 45.5 104.5t105.5 44.5q59 0 105.5 -45t46.5 -104q0 -61 -46.5 -106.5t-105.5 -45.5q-60 0 -105.5 46t-45.5 106zM125 0v1073h274v-1073h-274zM362 1350q0 60 46 104.5t106 44.5q59 0 105.5 -45t46.5 -104q0 -61 -46.5 -106.5t-105.5 -45.5q-60 0 -106 46 t-46 106z" />
<glyph unicode="&#x458;" d="M115 1358q0 60 45.5 104.5t105.5 44.5q59 0 105.5 -45t46.5 -104q0 -61 -46.5 -106.5t-105.5 -45.5q-60 0 -105.5 46t-45.5 106zM129 -436v1509h274v-1509h-274z" />
<glyph unicode="&#x459;" horiz-adv-x="1699" d="M16 233q50 3 82 17t57.5 44t42.5 90.5t30.5 142.5t27.5 214l37 332h754v-383h227q166 0 271.5 -91t105.5 -251q0 -166 -101.5 -257t-265.5 -91h-510v844h-239l-21 -162q-17 -139 -37 -239t-49 -178.5t-63.5 -127.5t-84 -82t-108.5 -46.5t-139 -16.5zM1047 217h202 q56 0 88.5 33.5t32.5 95.5q0 63 -32.5 98t-86.5 35h-204v-262z" />
<glyph unicode="&#x45a;" horiz-adv-x="1724" d="M129 0v1073h272v-391h406v391h272v-383h219q166 0 271.5 -91t105.5 -251q0 -166 -101.5 -257t-264.5 -91h-502v444h-406v-444h-272zM1079 217h197q56 0 87.5 33.5t31.5 95.5q0 63 -32.5 98t-84.5 35h-199v-262z" />
<glyph unicode="&#x45b;" horiz-adv-x="1245" d="M-29 1155v172h158v168h274v-168h441v-172h-441v-403q51 117 152.5 182t232.5 65q338 0 338 -421v-578h-274v510q0 122 -46.5 185t-129.5 63q-92 0 -167 -75.5t-106 -199.5v-483h-274v1155h-158z" />
<glyph unicode="&#x45c;" horiz-adv-x="1103" d="M129 0v1073h270v-426h62l325 426h295l-417 -520l450 -553h-311l-332 414h-72v-414h-270zM477 1221l180 317h301l-307 -317h-174z" />
<glyph unicode="&#x45d;" horiz-adv-x="1241" d="M129 0v1073h272v-682l508 682h203v-1073h-272v664l-502 -664h-209zM211 1538h301l180 -317h-174z" />
<glyph unicode="&#x45e;" horiz-adv-x="1126" d="M12 1073h283l291 -835l258 835h258l-453 -1286q-88 -254 -336 -254q-68 0 -131 16v236q52 -14 107 -14q32 0 51.5 12.5t44.5 64t51 152.5zM248 1495h151q1 -76 49.5 -114t137.5 -38q176 0 188 152h150q-4 -127 -96 -200.5t-242 -73.5t-242 73.5t-96 200.5z" />
<glyph unicode="&#x45f;" horiz-adv-x="1169" d="M129 0v1073h272v-835h367v835h272v-1073h-329v-307h-256v307h-326z" />
<glyph unicode="&#x490;" horiz-adv-x="1071" d="M158 0v1454h645l14 338h230v-586h-607v-1206h-282z" />
<glyph unicode="&#x491;" horiz-adv-x="884" d="M129 0v1073h492l16 305h213v-534h-449v-844h-272z" />
<glyph unicode="&#x4b0;" horiz-adv-x="1288" d="M-20 1454h307l358 -700l363 700h303l-527 -940v-43h324v-178h-324v-293h-280v293h-322v178h322v41z" />
<glyph unicode="&#x4b1;" horiz-adv-x="1107" d="M-4 1073h297l260 -657l274 657h285l-422 -887v-8h279v-178h-291v-436h-254v436h-289v178h277v8z" />
<glyph unicode="&#x1e0c;" horiz-adv-x="1466" d="M152 0v1454h528q173 0 311.5 -56.5t226 -156t133.5 -230t46 -282.5q0 -331 -195.5 -530t-521.5 -199h-528zM434 248h246q203 0 317.5 134.5t114.5 346.5q0 215 -115 346t-317 131h-246v-958zM518 -274q0 63 48.5 110t111.5 47q62 0 111 -47.5t49 -109.5q0 -64 -49 -112 t-111 -48q-63 0 -111.5 48.5t-48.5 111.5z" />
<glyph unicode="&#x1e0d;" horiz-adv-x="1298" d="M59 537q0 153 62 280t172 201t244 74q116 0 211 -56.5t153 -150.5v610h275v-1495h-275v168q-53 -90 -138 -139t-194 -49q-146 0 -263 74t-182 201.5t-65 281.5zM344 530q0 -134 84.5 -225.5t210.5 -91.5q83 0 159.5 51.5t102.5 128.5v256q-33 91 -112.5 150t-165.5 59 q-120 0 -199.5 -98t-79.5 -230zM508 -274q0 63 48.5 110t111.5 47q62 0 110.5 -47.5t48.5 -109.5q0 -64 -48.5 -112t-110.5 -48q-63 0 -111.5 48.5t-48.5 111.5z" />
<glyph unicode="&#x1e24;" horiz-adv-x="1525" d="M152 0v1454h282v-588h660v588h280v-1454h-280v621h-660v-621h-282zM604 -274q0 63 48.5 110t111.5 47q62 0 111 -47.5t49 -109.5q0 -64 -49 -112t-111 -48q-63 0 -111.5 48.5t-48.5 111.5z" />
<glyph unicode="&#x1e25;" horiz-adv-x="1236" d="M125 0v1495h274v-621q60 103 162 160.5t223 57.5q338 0 338 -422v-670h-274v602q0 124 -47 186t-133 62q-78 0 -158.5 -64t-110.5 -159v-627h-274zM467 -274q0 63 48.5 110t111.5 47q62 0 110.5 -47.5t48.5 -109.5q0 -64 -48.5 -112t-110.5 -48q-63 0 -111.5 48.5 t-48.5 111.5z" />
<glyph unicode="&#x1e44;" horiz-adv-x="1562" d="M152 0v1454h219l757 -954v952h283v-1452h-229l-748 932v-932h-282zM598 1737q0 63 48.5 110t111.5 47q62 0 111 -47.5t49 -109.5q0 -64 -49 -112t-111 -48q-63 0 -111.5 48.5t-48.5 111.5z" />
<glyph unicode="&#x1e45;" horiz-adv-x="1236" d="M125 0v1073h248v-199q60 102 173.5 160t252.5 58q78 0 136.5 -24.5t93.5 -63.5t56.5 -96t29 -113.5t7.5 -124.5v-670h-274v602q0 248 -170 248q-85 0 -167 -64t-112 -159v-627h-274zM459 1356q0 63 48 110t111 47q62 0 111 -47.5t49 -109.5q0 -64 -49 -112t-111 -48 q-63 0 -111 48.5t-48 111.5z" />
<glyph unicode="&#x1e5a;" horiz-adv-x="1361" d="M152 0v1454h643q129 0 237 -71.5t166.5 -181.5t58.5 -230q0 -140 -71.5 -256.5t-190.5 -167.5l332 -547h-317l-297 487h-279v-487h-282zM434 735h354q78 0 131.5 68.5t53.5 167.5t-60 167t-137 68h-342v-471zM518 -274q0 63 48.5 110t111.5 47q62 0 111 -47.5t49 -109.5 q0 -64 -49 -112t-111 -48q-63 0 -111.5 48.5t-48.5 111.5z" />
<glyph unicode="&#x1e5b;" horiz-adv-x="792" d="M109 -274q0 63 48 110t111 47q62 0 111 -47.5t49 -109.5q0 -64 -49 -112t-111 -48q-63 0 -111 48.5t-48 111.5zM125 0v1073h252v-229q56 107 150 175t182 68q43 0 55 -2v-249q-128 -2 -225.5 -50t-139.5 -137v-649h-274z" />
<glyph unicode="&#x1e62;" horiz-adv-x="1255" d="M45 172l125 244q52 -52 197.5 -115t291.5 -63q115 0 174.5 38.5t59.5 110.5q0 83 -99 135q-63 32 -258 86l-1 1h-1h-1l-1 1h-1h-1h-1l-1 1h-1h-1l-1 1h-1h-1h-1l-1 1h-1h-1l-1 1h-2q-109 31 -182 63.5t-127 78.5t-78.5 107.5t-24.5 144.5q0 144 72 249t190.5 156 t268.5 51q270 0 508 -161l-125 -230q-37 41 -156 92.5t-235 51.5q-114 0 -173 -42.5t-59 -121.5q0 -22 4.5 -40.5t17 -34.5t25 -28t38 -24t45.5 -20.5t58.5 -20t65.5 -19t78 -20.5q93 -24 159.5 -47.5t128 -59t98.5 -79t59 -105t22 -139.5q0 -113 -43.5 -198.5t-120 -135.5 t-170.5 -74t-205 -24q-163 0 -323.5 49.5t-286.5 138.5zM494 -274q0 63 48 110t111 47q62 0 111 -47.5t49 -109.5q0 -64 -49 -112t-111 -48q-63 0 -111 48.5t-48 111.5z" />
<glyph unicode="&#x1e63;" horiz-adv-x="1017" d="M45 145l102 172q198 -141 377 -141q82 0 129 31t47 88q0 54 -48.5 81t-186.5 64q-219 59 -301 119.5t-82 179.5q0 161 119 258t303 97q250 0 420 -148l-111 -166q-158 119 -311 119q-73 0 -118.5 -30.5t-45.5 -90.5q0 -53 42 -77.5t169 -57.5q232 -58 324 -125.5 t92 -198.5q0 -156 -117.5 -247.5t-317.5 -91.5q-136 0 -266 43.5t-219 121.5zM346 -274q0 63 48.5 110t111.5 47q62 0 111 -47.5t49 -109.5q0 -64 -49 -112t-111 -48q-63 0 -111.5 48.5t-48.5 111.5z" />
<glyph unicode="&#x1e6c;" horiz-adv-x="1267" d="M29 1206v248h1210v-248h-465v-1206h-280v1206h-465zM471 -274q0 63 48.5 110t111.5 47q62 0 111 -47.5t49 -109.5q0 -64 -49 -112t-111 -48q-63 0 -111.5 48.5t-48.5 111.5z" />
<glyph unicode="&#x1e6d;" horiz-adv-x="786" d="M45 862v211h141v348h275v-348h225v-211h-225v-524q0 -54 28 -79.5t74 -25.5q58 0 150 39l55 -217q-164 -73 -303 -73q-59 0 -108 15t-88 45.5t-61 82.5t-22 121v616h-141zM274 -274q0 63 48.5 110t111.5 47q62 0 111 -47.5t49 -109.5q0 -64 -49 -112t-111 -48 q-63 0 -111.5 48.5t-48.5 111.5z" />
<glyph unicode="&#x1e80;" horiz-adv-x="2271" d="M20 1454h318l311 -1032l330 1032h305l340 -1030l307 1030h322l-457 -1454h-291l-372 993l-365 -993h-293zM727 1919h301l180 -317h-174z" />
<glyph unicode="&#x1e81;" horiz-adv-x="1783" d="M20 1073h285l246 -745l213 745h258l213 -745l246 745h280l-366 -1073h-297l-207 647l-205 -647h-295zM483 1538h301l181 -317h-174z" />
<glyph unicode="&#x1e82;" horiz-adv-x="2271" d="M20 1454h318l311 -1032l330 1032h305l340 -1030l307 1030h322l-457 -1454h-291l-372 993l-365 -993h-293zM1061 1602l180 317h301l-307 -317h-174z" />
<glyph unicode="&#x1e83;" horiz-adv-x="1783" d="M20 1073h285l246 -745l213 745h258l213 -745l246 745h280l-366 -1073h-297l-207 647l-205 -647h-295zM817 1221l180 317h301l-307 -317h-174z" />
<glyph unicode="&#x1e84;" horiz-adv-x="2271" d="M20 1454h318l311 -1032l330 1032h305l340 -1030l307 1030h322l-457 -1454h-291l-372 993l-365 -993h-293zM731 1726q0 60 46 105t106 45q59 0 105 -45t46 -105q0 -61 -46 -106t-105 -45q-60 0 -106 45.5t-46 105.5zM1237 1731q0 60 46 104.5t106 44.5q59 0 105 -45 t46 -104q0 -61 -46 -106.5t-105 -45.5q-60 0 -106 46t-46 106z" />
<glyph unicode="&#x1e85;" horiz-adv-x="1783" d="M20 1073h285l246 -745l213 745h258l213 -745l246 745h280l-366 -1073h-297l-207 647l-205 -647h-295zM487 1346q0 60 46 104.5t106 44.5q59 0 105.5 -45t46.5 -104q0 -61 -46.5 -106.5t-105.5 -45.5q-60 0 -106 46t-46 106zM993 1350q0 60 46 104.5t106 44.5 q59 0 105 -45t46 -104q0 -61 -46 -106.5t-105 -45.5q-60 0 -106 46t-46 106z" />
<glyph unicode="&#x1e92;" horiz-adv-x="1284" d="M61 0v213l822 993h-799v248h1124v-213l-794 -993h800v-248h-1153zM498 -274q0 63 48 110t111 47q62 0 111 -47.5t49 -109.5q0 -64 -49 -112t-111 -48q-63 0 -111 48.5t-48 111.5z" />
<glyph unicode="&#x1e93;" horiz-adv-x="1009" d="M53 0v168l598 713h-573v192h862v-168l-594 -712h604v-193h-897zM342 -274q0 63 48.5 110t111.5 47q62 0 111 -47.5t49 -109.5q0 -64 -49 -112t-111 -48q-63 0 -111.5 48.5t-48.5 111.5z" />
<glyph unicode="&#x1eb8;" horiz-adv-x="1230" d="M152 0v1454h991v-248h-709v-350h613v-229h-613v-379h727v-248h-1009zM496 -274q0 63 48 110t111 47q62 0 111 -47.5t49 -109.5q0 -64 -49 -112t-111 -48q-63 0 -111 48.5t-48 111.5z" />
<glyph unicode="&#x1eb9;" horiz-adv-x="1226" d="M57 530q0 153 68 280.5t199 204.5t301 77q128 0 234.5 -45t177 -121.5t109 -175.5t38.5 -209q0 -57 -6 -92h-830q10 -122 92 -195.5t193 -73.5q83 0 155.5 40.5t98.5 105.5l235 -66q-60 -126 -192.5 -203t-306.5 -77q-168 0 -299 76t-199 200.5t-68 273.5zM344 627h557 q-10 119 -88.5 192.5t-191.5 73.5q-112 0 -190 -73.5t-87 -192.5zM461 -274q0 63 48.5 110t111.5 47q62 0 110.5 -47.5t48.5 -109.5q0 -64 -48.5 -112t-110.5 -48q-63 0 -111.5 48.5t-48.5 111.5z" />
<glyph unicode="&#x1ebc;" horiz-adv-x="1230" d="M152 0v1454h991v-248h-709v-350h613v-229h-613v-379h727v-248h-1009zM252 1608q0 18 7.5 47t25.5 67t44 70.5t69 55t94 22.5q42 0 81 -15t64 -33t59 -33t66 -15q28 0 49 10t31.5 23.5t17.5 29.5t8.5 25t1.5 14h152q0 -14 -7.5 -42t-27 -66.5t-46.5 -72.5t-72 -57.5 t-99 -23.5q-52 0 -100 23t-89.5 46t-78.5 23q-26 0 -45.5 -10t-29 -22.5t-15.5 -28.5t-7.5 -24.5t-1.5 -12.5h-151z" />
<glyph unicode="&#x1ebd;" horiz-adv-x="1226" d="M57 530q0 153 68 280.5t199 204.5t301 77q128 0 234.5 -45t177 -121.5t109 -175.5t38.5 -209q0 -57 -6 -92h-830q10 -122 92 -195.5t193 -73.5q83 0 155.5 40.5t98.5 105.5l235 -66q-60 -126 -192.5 -203t-306.5 -77q-168 0 -299 76t-199 200.5t-68 273.5zM229 1227 q0 18 7.5 47t25.5 67t44 70.5t69 55t94 22.5q42 0 81 -15t64 -33t59 -33t66 -15q28 0 49 10t32 23.5t18 29.5t8.5 25t1.5 14h151q0 -11 -5.5 -33t-17 -52t-32 -60.5t-46.5 -57t-65.5 -43t-84.5 -16.5q-52 0 -100.5 23t-90 46t-78.5 23q-26 0 -45.5 -10t-29 -22.5 t-15.5 -28.5t-7 -24.5t-1 -12.5h-152zM344 627h557q-10 119 -88.5 192.5t-191.5 73.5q-112 0 -190 -73.5t-87 -192.5z" />
<glyph unicode="&#x1eca;" horiz-adv-x="585" d="M131 -274q0 63 48.5 110t111.5 47q62 0 111 -47.5t49 -109.5q0 -64 -49 -112t-111 -48q-63 0 -111.5 48.5t-48.5 111.5zM152 0v1454h282v-1454h-282z" />
<glyph unicode="&#x1ecb;" d="M109 -274q0 63 48 110t111 47q62 0 111 -47.5t49 -109.5q0 -64 -49 -112t-111 -48q-63 0 -111 48.5t-48 111.5zM115 1358q0 60 45.5 104.5t105.5 44.5q59 0 105.5 -45t46.5 -104q0 -61 -46.5 -106.5t-105.5 -45.5q-60 0 -105.5 46t-45.5 106zM129 0v1073h274v-1073h-274z " />
<glyph unicode="&#x1ecc;" horiz-adv-x="1548" d="M63 727q0 144 54.5 278.5t148 235.5t227.5 162t285 61q123 0 235 -41.5t196 -114t146.5 -166t95 -201.5t32.5 -218q0 -143 -54 -276.5t-146.5 -234.5t-226 -161.5t-284.5 -60.5q-124 0 -236 40.5t-197 111.5t-148 164t-95.5 201.5t-32.5 219.5zM350 727q0 -128 49 -237.5 t147.5 -179.5t227.5 -70q99 0 181 42t134 111.5t80.5 156t28.5 177.5q0 128 -50.5 237.5t-149 178.5t-224.5 69q-99 0 -181 -42t-134 -111t-80.5 -155t-28.5 -177zM614 -274q0 63 48.5 110t111.5 47q62 0 111 -47.5t49 -109.5q0 -64 -49 -112t-111 -48q-63 0 -111.5 48.5 t-48.5 111.5z" />
<glyph unicode="&#x1ecd;" horiz-adv-x="1241" d="M57 535q0 112 40 213t111 177.5t178.5 121.5t234.5 45q169 0 298.5 -77.5t196 -203t66.5 -276.5q0 -111 -39 -211.5t-109.5 -177t-177.5 -121.5t-235 -45q-103 0 -193 29.5t-157 81.5t-116 121.5t-73.5 152t-24.5 170.5zM340 535q0 -140 80.5 -231t200.5 -91 q119 0 199.5 92t80.5 232q0 139 -80.5 230t-199.5 91t-200 -92t-81 -231zM463 -274q0 63 48.5 110t111.5 47q62 0 110.5 -47.5t48.5 -109.5q0 -64 -48.5 -112t-110.5 -48q-63 0 -111.5 48.5t-48.5 111.5z" />
<glyph unicode="&#x1ee4;" horiz-adv-x="1536" d="M131 713v741h283v-741q0 -96 18.5 -177.5t58 -149.5t110 -107t165.5 -39q97 0 168.5 39.5t111 108.5t58 149.5t18.5 175.5v741h281v-741q0 -153 -37 -281t-111.5 -228.5t-199 -157t-287.5 -56.5q-135 0 -244 39.5t-181.5 106.5t-121 160t-69.5 196.5t-21 220.5zM610 -274 q0 63 48.5 110t111.5 47q62 0 111 -47.5t49 -109.5q0 -64 -49 -112t-111 -48q-63 0 -111.5 48.5t-48.5 111.5z" />
<glyph unicode="&#x1ee5;" horiz-adv-x="1265" d="M115 401v672h274v-612q0 -248 186 -248q79 0 152 52t117 143v665h274v-1073h-264v184q-57 -99 -160 -151.5t-225 -52.5q-354 0 -354 421zM453 -274q0 63 48 110t111 47q62 0 111 -47.5t49 -109.5q0 -64 -49 -112t-111 -48q-63 0 -111 48.5t-48 111.5z" />
<glyph unicode="&#x1ef2;" horiz-adv-x="1351" d="M8 1454h307l359 -700l364 700h305l-528 -946v-508h-280v512zM266 1919h301l181 -317h-175z" />
<glyph unicode="&#x1ef3;" horiz-adv-x="1126" d="M12 1073h283l291 -835l258 835h258l-451 -1286q-39 -116 -135.5 -186t-230.5 -70q-68 0 -138 23v237q78 -20 123 -20q56 0 90.5 47t75.5 182zM154 1538h301l180 -317h-174z" />
<glyph unicode="&#x1ef8;" horiz-adv-x="1351" d="M8 1454h307l359 -700l364 700h305l-528 -946v-508h-280v512zM291 1608q0 24 13 63.5t38.5 86t75 79.5t112.5 33q53 0 100 -24t89 -48t82 -24q28 0 49 10t31.5 23.5t17.5 29.5t8.5 25t1.5 14h152q0 -14 -7.5 -42t-27 -66.5t-46.5 -72.5t-72 -57.5t-99 -23.5q-52 0 -100 23 t-89.5 46t-78.5 23q-26 0 -45.5 -10t-29 -22.5t-15.5 -28.5t-7.5 -24.5t-1.5 -12.5h-151z" />
<glyph unicode="&#x1ef9;" horiz-adv-x="1126" d="M12 1073h283l291 -835l258 835h258l-451 -1286q-39 -116 -135.5 -186t-230.5 -70q-68 0 -138 23v237q78 -20 123 -20q56 0 90.5 47t75.5 182zM178 1227q0 18 7.5 47t25.5 67t44 70.5t69 55t94 22.5q42 0 81 -15t64 -33t59 -33t66 -15q28 0 49 10t32 23.5t18 29.5t8.5 25 t1.5 14h151q0 -14 -7.5 -42t-27 -66.5t-46.5 -72.5t-72 -57.5t-99 -23.5q-52 0 -100 23t-89.5 46t-78.5 23q-26 0 -45.5 -10t-29 -22.5t-15.5 -28.5t-7 -24.5t-1 -12.5h-152z" />
<glyph unicode="&#x2000;" horiz-adv-x="959" />
<glyph unicode="&#x2001;" horiz-adv-x="1919" />
<glyph unicode="&#x2002;" horiz-adv-x="1232" />
<glyph unicode="&#x2003;" horiz-adv-x="1902" />
<glyph unicode="&#x2004;" horiz-adv-x="639" />
<glyph unicode="&#x2005;" horiz-adv-x="479" />
<glyph unicode="&#x2006;" horiz-adv-x="319" />
<glyph unicode="&#x2007;" horiz-adv-x="319" />
<glyph unicode="&#x2008;" horiz-adv-x="239" />
<glyph unicode="&#x2009;" horiz-adv-x="383" />
<glyph unicode="&#x200a;" horiz-adv-x="106" />
<glyph unicode="&#x2010;" horiz-adv-x="856" d="M119 438v248h620v-248h-620z" />
<glyph unicode="&#x2011;" horiz-adv-x="856" d="M119 438v248h620v-248h-620z" />
<glyph unicode="&#x2012;" horiz-adv-x="856" d="M119 438v248h620v-248h-620z" />
<glyph unicode="&#x2013;" horiz-adv-x="1234" d="M119 438v248h999v-248h-999z" />
<glyph unicode="&#x2014;" horiz-adv-x="1900" d="M119 438v248h1663v-248h-1663z" />
<glyph unicode="&#x2018;" horiz-adv-x="503" d="M23 971h276l150 524h-197z" />
<glyph unicode="&#x2019;" horiz-adv-x="485" d="M39 981h197l229 524h-277z" />
<glyph unicode="&#x201a;" horiz-adv-x="512" d="M16 -287h197l197 482h-256z" />
<glyph unicode="&#x201c;" horiz-adv-x="888" d="M23 971h276l150 524h-197zM422 971h276l150 524h-197z" />
<glyph unicode="&#x201d;" horiz-adv-x="870" d="M23 981h196l230 524h-277zM422 981h196l230 524h-277z" />
<glyph unicode="&#x201e;" horiz-adv-x="884" d="M49 -268h197l229 524h-276zM449 -268h196l229 524h-276z" />
<glyph unicode="&#x2020;" horiz-adv-x="944" d="M72 432v246h270v909h260v-909h268v-246h-268v-698h-260v698h-270z" />
<glyph unicode="&#x2021;" horiz-adv-x="970" d="M86 209v246h270v229h-270v248h270v655h260v-655h269v-248h-269v-229h269v-246h-269v-475h-260v475h-270z" />
<glyph unicode="&#x2022;" horiz-adv-x="743" d="M158 717q0 88 62.5 150.5t150.5 62.5q89 0 152 -62.5t63 -150.5q0 -89 -63 -152t-152 -63q-88 0 -150.5 63t-62.5 152z" />
<glyph unicode="&#x2026;" horiz-adv-x="1351" d="M57 152q0 68 51.5 119t118.5 51q66 0 118 -51.5t52 -118.5t-52 -118.5t-118 -51.5q-67 0 -118.5 52t-51.5 118zM508 152q0 68 51 119t119 51q66 0 118 -51.5t52 -118.5t-52 -118.5t-118 -51.5q-67 0 -118.5 52t-51.5 118zM958 152q0 68 51 119t119 51q66 0 118 -51.5 t52 -118.5t-52 -118.5t-118 -51.5q-67 0 -118.5 52t-51.5 118z" />
<glyph unicode="&#x202f;" horiz-adv-x="383" />
<glyph unicode="&#x2030;" horiz-adv-x="2394" d="M82 1165q0 129 98.5 219.5t239.5 90.5t238.5 -90.5t97.5 -219.5q0 -131 -97.5 -221t-238.5 -90t-239.5 90.5t-98.5 220.5zM197 96l577 674l533 700l125 -110l-560 -662l-550 -712zM274 1165q0 -71 43.5 -122.5t102.5 -51.5q60 0 102.5 51.5t42.5 122.5q0 70 -43 121 t-102 51q-61 0 -103.5 -51t-42.5 -121zM872 289q0 130 98.5 220.5t239.5 90.5t239.5 -90.5t98.5 -220.5q0 -129 -98.5 -219t-239.5 -90t-239.5 90t-98.5 219zM1065 289q0 -71 42.5 -121.5t102.5 -50.5t103 51.5t43 120.5q0 71 -43.5 122.5t-102.5 51.5q-60 0 -102.5 -51.5 t-42.5 -122.5zM1653 289q0 130 98.5 220.5t239.5 90.5t239.5 -90.5t98.5 -220.5q0 -129 -98.5 -219t-239.5 -90t-239.5 90t-98.5 219zM1845 289q0 -70 43.5 -121t102.5 -51q60 0 102.5 51.5t42.5 120.5q0 72 -43 123t-102 51q-60 0 -103 -51.5t-43 -122.5z" />
<glyph unicode="&#x2039;" horiz-adv-x="733" d="M72 457v133l540 387v-223l-321 -224l321 -211v-225z" />
<glyph unicode="&#x203a;" horiz-adv-x="733" d="M119 94v225l323 211l-323 224v223l540 -387v-133z" />
<glyph unicode="&#x2044;" horiz-adv-x="409" d="M-414 96l578 674l532 700l125 -110l-559 -662l-551 -712z" />
<glyph unicode="&#x205f;" horiz-adv-x="479" />
<glyph unicode="&#x2070;" horiz-adv-x="997" d="M63 1231q0 62 19.5 125t57.5 119t90 99.5t122 69t148 25.5q82 0 154 -27.5t122 -72.5t86 -102.5t53 -117.5t17 -118q0 -80 -30.5 -157.5t-84.5 -139.5t-137 -100.5t-180 -38.5q-104 0 -189.5 40.5t-138 105t-81 140t-28.5 150.5zM231 1231q0 -66 29 -127.5t92.5 -104.5 t147.5 -43q66 0 119 26.5t84 68.5t47 88.5t16 91.5q0 67 -29 128t-91.5 103.5t-145.5 42.5q-66 0 -119.5 -26t-85 -67.5t-48 -88t-16.5 -92.5z" />
<glyph unicode="&#x2074;" horiz-adv-x="839" d="M43 995v158l504 516h110v-514h125v-160h-125v-188h-161v188h-453zM201 1155h301v313z" />
<glyph unicode="&#x2075;" horiz-adv-x="806" d="M51 940l96 109q40 -46 103.5 -72.5t138.5 -26.5q87 0 142 38t55 106q0 70 -56.5 109.5t-126.5 39.5q-53 0 -106.5 -26.5t-77.5 -67.5h-143q14 75 60 264.5t57 255.5h495v-162h-377l-51 -180q61 37 156 37q144 0 240 -77.5t96 -199.5q0 -129 -105.5 -210.5t-265.5 -81.5 q-107 0 -195.5 39t-134.5 106z" />
<glyph unicode="&#x2076;" horiz-adv-x="866" d="M70 1188q0 229 104.5 355t286.5 126q95 0 175.5 -34.5t129.5 -98.5l-94 -113q-31 41 -90 65.5t-127 24.5q-106 0 -169.5 -59t-64.5 -164q30 38 95 61t133 23q157 0 258.5 -82t101.5 -205q0 -128 -106.5 -214.5t-264.5 -86.5q-169 0 -268.5 106.5t-99.5 295.5zM227 1087 q0 -61 64 -106t151 -45t150 44.5t63 104.5q0 61 -62.5 104.5t-150.5 43.5q-89 0 -152 -43t-63 -103z" />
<glyph unicode="&#x2077;" horiz-adv-x="794" d="M49 1507v162h746l-508 -862h-185l437 700h-490z" />
<glyph unicode="&#x2078;" horiz-adv-x="860" d="M66 1061q0 133 174 207q-142 56 -142 166q0 67 50.5 122.5t126 84t155.5 28.5t155.5 -28t126 -83t50.5 -122q0 -57 -39.5 -100t-104.5 -68q177 -71 177 -211q0 -113 -107 -187.5t-258 -74.5q-154 0 -259 77t-105 189zM229 1075q0 -53 63 -86t140 -33q78 0 137.5 34 t59.5 85q0 53 -60.5 86t-138.5 33q-81 0 -141 -34t-60 -85zM262 1419q0 -42 51.5 -67t116.5 -25q63 0 115.5 26t52.5 66q0 41 -50 66.5t-118 25.5q-70 0 -119 -25.5t-49 -66.5z" />
<glyph unicode="&#x2079;" horiz-adv-x="866" d="M57 1366q0 128 106.5 215.5t264.5 87.5q169 0 269 -107.5t100 -297.5q0 -228 -104 -353t-287 -125q-95 0 -176 35t-132 99l97 110q32 -42 90 -66t127 -24q105 0 168.5 59t66.5 164q-31 -39 -96 -61.5t-133 -22.5q-156 0 -258.5 82.5t-102.5 204.5zM213 1368 q0 -60 62.5 -102.5t150.5 -42.5q87 0 149 42t62 101q0 62 -63 107t-150 45q-86 0 -148.5 -45t-62.5 -105z" />
<glyph unicode="&#x2080;" horiz-adv-x="997" d="M63 252q0 79 31 156.5t86 140.5t139 102t181 39q82 0 154 -27.5t122 -72.5t86 -102.5t53 -117.5t17 -118q0 -79 -30.5 -156.5t-84.5 -140t-137 -101t-180 -38.5q-104 0 -189.5 40.5t-138 105.5t-81 140t-28.5 150zM231 252q0 -66 29 -127.5t92.5 -104.5t147.5 -43 q66 0 119 26.5t84 68.5t47 88.5t16 91.5q0 67 -29 128t-91.5 103.5t-145.5 42.5q-66 0 -119.5 -26t-85 -67.5t-48 -88t-16.5 -92.5z" />
<glyph unicode="&#x2081;" horiz-adv-x="679" d="M74 563l221 135h166v-872h-166v696l-154 -90z" />
<glyph unicode="&#x2082;" horiz-adv-x="862" d="M61 -174q0 168 59 256.5t212 148.5q11 4 42 16t44 17t39.5 16t39 18.5t33 19.5t30 23t20.5 25t15.5 29.5t4.5 32.5q0 55 -45.5 84t-130.5 29q-151 0 -252 -101l-104 119q40 52 141.5 96.5t239.5 44.5q163 0 249 -72t86 -202q0 -50 -18.5 -93t-44.5 -71t-65.5 -51.5 t-71 -36t-70.5 -24.5q-106 -33 -166.5 -75.5t-60.5 -88.5h499v-160h-725z" />
<glyph unicode="&#x2083;" horiz-adv-x="833" d="M57 -23l88 119q25 -46 89.5 -81t154.5 -35t149.5 27.5t59.5 76.5q0 58 -79.5 87.5t-223.5 29.5h-49v147h47q276 0 276 107q0 46 -53 71t-121 25q-149 0 -231 -102l-105 131q44 57 136.5 88.5t197.5 31.5q150 0 250 -67.5t100 -167.5q0 -72 -51.5 -119.5t-142.5 -62.5 q98 -13 156.5 -76t58.5 -148q0 -80 -54.5 -136.5t-136.5 -81.5t-180 -25q-129 0 -218 42t-118 119z" />
<glyph unicode="&#x2084;" horiz-adv-x="837" d="M43 16v160l504 514h110v-514h125v-160h-125v-188h-161v188h-453zM201 176h301v316z" />
<glyph unicode="&#x2085;" horiz-adv-x="806" d="M49 -39l98 109q41 -46 104 -72.5t138 -26.5q85 0 140 38t55 108t-55.5 108.5t-125.5 38.5q-54 0 -107 -26t-79 -66h-143q13 65 58.5 255.5t57.5 262.5h498v-162h-379l-49 -178q68 37 156 37q144 0 240 -78t96 -200q0 -128 -106 -210.5t-267 -82.5q-107 0 -195.5 39.5 t-134.5 105.5z" />
<glyph unicode="&#x2086;" horiz-adv-x="868" d="M70 219q0 227 105.5 352t287.5 125q95 0 175 -33.5t130 -97.5l-94 -112q-32 41 -91 65.5t-126 24.5q-105 0 -169 -59.5t-67 -164.5q31 38 95.5 60t132.5 22q158 0 260 -81.5t102 -204.5q0 -125 -107 -212t-264 -87q-171 0 -270.5 106.5t-99.5 296.5zM229 115 q0 -61 64 -105.5t151 -44.5q86 0 148.5 44.5t62.5 105.5q0 62 -62 104.5t-151 42.5q-88 0 -150.5 -43t-62.5 -104z" />
<glyph unicode="&#x2087;" horiz-adv-x="796" d="M49 528v162h746l-508 -862h-185l437 700h-490z" />
<glyph unicode="&#x2088;" horiz-adv-x="860" d="M66 84q0 131 174 205q-142 56 -142 166q0 67 50.5 122.5t126 84t155.5 28.5q126 0 229 -66t103 -165q0 -59 -39.5 -102t-104.5 -68q177 -75 177 -209q0 -75 -50 -136t-133.5 -94.5t-181.5 -33.5q-154 0 -259 77t-105 191zM229 96q0 -53 63 -86t140 -33q78 0 137.5 34 t59.5 85q0 53 -60.5 86t-138.5 33q-81 0 -141 -33.5t-60 -85.5zM262 440q0 -41 52 -66.5t116 -25.5t116 26t52 68q0 40 -50 65t-118 25q-70 0 -119 -25.5t-49 -66.5z" />
<glyph unicode="&#x2089;" horiz-adv-x="870" d="M59 397q0 126 106.5 212.5t262.5 86.5q170 0 270.5 -107t100.5 -296q0 -228 -104.5 -352.5t-286.5 -124.5q-95 0 -176.5 34.5t-131.5 98.5l97 112q31 -43 89.5 -67.5t127.5 -24.5q104 0 168 60t65 164q-30 -39 -94.5 -61.5t-134.5 -22.5q-155 0 -257 82.5t-102 205.5z M215 397q0 -60 62.5 -102.5t150.5 -42.5q86 0 148.5 42.5t62.5 102.5t-63.5 105t-149.5 45q-87 0 -149 -44.5t-62 -105.5z" />
<glyph unicode="&#x20a1;" horiz-adv-x="1167" d="M66 537q0 182 96.5 324t267.5 200v260h127v-234q58 5 74 5q8 0 24.5 -1t24.5 -1v231h127v-254q105 -30 183.5 -95t123.5 -155l-266 -82q-35 59 -93 91t-128 32q-120 0 -200.5 -90t-80.5 -231q0 -139 82.5 -231.5t200.5 -92.5q71 0 133.5 36t89.5 91l266 -82 q-42 -91 -122 -157.5t-189 -98.5v-248h-127v228q-8 0 -24.5 -1t-24.5 -1q-28 0 -74 4v-230h-127v258q-169 58 -266.5 201.5t-97.5 323.5z" />
<glyph unicode="&#x20a3;" horiz-adv-x="1247" d="M66 213v186h163v1055h977v-248h-696v-375h580v-229h-580v-203h229v-186h-229v-213h-281v213h-163z" />
<glyph unicode="&#x20a4;" horiz-adv-x="1091" d="M90 449v169h236q-6 43 -25 93h-211v170h135q-61 129 -61 219q0 152 123.5 258t298.5 106q124 0 236.5 -57.5t189.5 -157.5l-146 -168q-51 71 -130 115.5t-152 44.5q-76 0 -125 -48t-49 -120q0 -29 10.5 -65t20.5 -59t32 -68h365v-170h-291q13 -39 20 -93h271v-169h-287 q-36 -111 -156 -236q79 25 156 25q50 0 140.5 -17.5t135.5 -17.5q69 0 154 33l68 -205q-111 -62 -236 -62q-61 0 -186.5 30t-192.5 30q-117 0 -260 -45l-59 194q155 130 198 271h-223z" />
<glyph unicode="&#x20a6;" horiz-adv-x="1763" d="M78 430v170h176v223h-176v168h176v463h219l367 -463h391v461h282v-461h173v-168h-173v-223h173v-170h-173v-430h-229l-346 430h-401v-430h-283v430h-176zM537 600h266l-180 223h-86v-223zM973 823l178 -223h80v223h-258z" />
<glyph unicode="&#x20a9;" horiz-adv-x="2355" d="M82 436v170h358l-73 180h-285v168h217l-201 500h303l183 -500h350l-182 496h260l164 -481l163 481h263l-187 -496h352l183 500h307l-203 -500h219v-168h-288l-74 -180h362v-170h-432l-176 -436h-238l-251 610l-252 -610h-238l-178 436h-426zM645 786l66 -180h213l69 180 h-348zM774 436l41 -112l43 112h-84zM1354 786l71 -180h215l66 180h-352zM1493 436l45 -112l41 112h-86z" />
<glyph unicode="&#x20ac;" horiz-adv-x="1634" d="M68 496l63 151h115q-6 43 -6 90v15h-144l62 151h100q26 113 84.5 212.5t145.5 177.5t208 123.5t260 45.5q195 0 344.5 -86t221.5 -231l-217 -150q-35 78 -97 128.5t-126 69.5t-134 19q-151 0 -252.5 -86.5t-142.5 -222.5h524l-61 -151h-490v-23q0 -41 6 -82h480l-62 -151 h-375q54 -118 153 -188t224 -70q70 0 137 21.5t128.5 73t93.5 126.5l231 -133q-43 -104 -141.5 -182.5t-217 -117t-239.5 -38.5q-118 0 -226.5 40.5t-192 110.5t-146 161t-98.5 196h-213z" />
<glyph unicode="&#x20b9;" horiz-adv-x="1095" d="M84 977v168h391q-60 80 -139 80h-252v229h936v-170h-322q55 -67 84 -139h238v-168h-205q0 -146 -75.5 -262.5t-204.5 -167.5l360 -547h-317l-459 717h227q80 0 132 74t52 186h-446z" />
<glyph unicode="&#x2122;" horiz-adv-x="1697" d="M127 1280v178h567v-178h-194v-438h-178v438h-195zM788 842v612h263l118 -321l119 321h264v-612h-178v383l-131 -297h-145l-131 297v-383h-179z" />
<glyph unicode="&#x2153;" horiz-adv-x="1961" d="M57 1362l222 135h165v-872h-165v696l-154 -90zM276 96l578 674l532 700l125 -110l-559 -662l-551 -712zM1184 152l88 118q25 -46 89.5 -82t154.5 -36t149 27.5t59 78.5q0 57 -79.5 86t-223.5 29h-49v147h47q129 0 203 26.5t74 80.5q0 46 -53 71t-121 25q-149 0 -232 -100 l-104 129q44 58 136 90t198 32q150 0 250 -67.5t100 -167.5q0 -72 -51.5 -119t-143.5 -65q98 -13 156.5 -75t58.5 -147q0 -61 -31 -108.5t-84 -76.5t-117.5 -43.5t-137.5 -14.5q-130 0 -218.5 42t-117.5 120z" />
<glyph unicode="&#x2154;" horiz-adv-x="2015" d="M82 625q0 166 58.5 254.5t205.5 150.5q14 6 53 21t55 22t47 22t45.5 26.5t32 28.5t24.5 36t7 41q0 54 -44.5 83t-127.5 29q-144 0 -248 -100l-102 117q40 52 139.5 96.5t235.5 44.5q160 0 245 -71.5t85 -200.5q0 -51 -18.5 -94t-44.5 -70.5t-66 -51t-69.5 -35.5 t-68.5 -24q-182 -55 -182 -166h424v-159h-686zM414 96l577 674l533 700l125 -110l-559 -662l-551 -712zM1237 152l88 118q25 -46 89.5 -82t154.5 -36q91 0 150 28t59 78q0 57 -79.5 86t-223.5 29h-50v147h48q129 0 202.5 26.5t73.5 80.5q0 46 -53 71t-121 25 q-149 0 -232 -100l-104 129q44 58 136 90t198 32q150 0 250 -67.5t100 -167.5q0 -72 -51 -119t-143 -65q98 -13 156.5 -75t58.5 -147q0 -80 -54.5 -136.5t-136.5 -81.5t-180 -25q-130 0 -218.5 42t-117.5 120z" />
<glyph unicode="&#x215b;" horiz-adv-x="1953" d="M59 1362l222 135h165v-872h-165v696l-154 -90zM303 96l578 674l532 700l125 -110l-559 -662l-551 -712zM1155 256q0 129 174 207q-62 24 -101.5 65.5t-39.5 100.5q0 67 50.5 121.5t126 83t155.5 28.5t155.5 -28t125.5 -82t50 -121q0 -57 -39 -100t-104 -68 q176 -74 176 -211q0 -113 -106.5 -187.5t-257.5 -74.5q-154 0 -259.5 77t-105.5 189zM1319 268q0 -51 63 -83.5t140 -32.5q79 0 137.5 33t58.5 85q0 53 -60 86t-138 33q-81 0 -141 -34.5t-60 -86.5zM1352 614q0 -42 51.5 -67t116.5 -25q63 0 115.5 26t52.5 66t-50.5 66.5 t-117.5 26.5q-69 0 -118.5 -26.5t-49.5 -66.5z" />
<glyph unicode="&#x215c;" horiz-adv-x="1972" d="M82 772l88 121q25 -46 89.5 -81.5t154.5 -35.5q91 0 150 27.5t59 77.5q0 114 -304 114h-49v150h47q277 0 277 106q0 44 -53.5 69.5t-120.5 25.5q-148 0 -232 -101l-104 131q44 57 136.5 89t197.5 32q150 0 250 -68t100 -169q0 -71 -51.5 -118t-143.5 -65 q98 -13 156.5 -74.5t58.5 -146.5q0 -80 -54.5 -137.5t-136 -83t-179.5 -25.5q-129 0 -218 42.5t-118 119.5zM369 96l577 674l533 700l125 -110l-560 -662l-550 -712zM1174 256q0 129 174 207q-142 56 -142 166q0 67 50.5 121.5t126 83t155.5 28.5q126 0 229 -66t103 -165 q0 -57 -39.5 -100t-104.5 -68q177 -75 177 -211q0 -113 -107 -187.5t-258 -74.5q-154 0 -259 77t-105 189zM1337 268q0 -51 63 -83.5t140 -32.5q79 0 138 33t59 85q0 53 -60.5 86t-138.5 33q-81 0 -141 -34.5t-60 -86.5zM1370 614q0 -42 51.5 -67t116.5 -25q63 0 115.5 26 t52.5 66t-50.5 66.5t-117.5 26.5q-69 0 -118.5 -26.5t-49.5 -66.5z" />
<glyph unicode="&#x215d;" horiz-adv-x="1998" d="M68 768l98 109q40 -46 103.5 -72.5t138.5 -26.5q86 0 140 37.5t54 106.5q0 70 -55 108.5t-125 38.5q-55 0 -107.5 -25.5t-78.5 -66.5h-144q13 66 59 256.5t58 261.5h498v-162h-379l-49 -178q61 37 155 37q144 0 240 -78.5t96 -200.5q0 -128 -106 -210t-267 -82 q-107 0 -195 39.5t-134 107.5zM369 96l577 674l533 700l125 -110l-560 -662l-550 -712zM1200 256q0 129 174 207q-62 24 -101.5 65.5t-39.5 100.5q0 67 50.5 121.5t126 83t155.5 28.5t155.5 -28t125.5 -82t50 -121q0 -57 -39 -100t-104 -68q176 -74 176 -211 q0 -113 -106.5 -187.5t-257.5 -74.5q-154 0 -259.5 77t-105.5 189zM1364 268q0 -51 63 -83.5t140 -32.5q79 0 137.5 33t58.5 85q0 53 -60 86t-138 33q-81 0 -141 -34.5t-60 -86.5zM1397 614q0 -42 51.5 -67t116.5 -25q63 0 115.5 26t52.5 66t-50.5 66.5t-117.5 26.5 q-69 0 -118.5 -26.5t-49.5 -66.5z" />
<glyph unicode="&#x215e;" horiz-adv-x="1900" d="M82 1333v162h745l-508 -860h-184l436 698h-489zM193 96l577 674l533 700l124 -110l-559 -662l-551 -712zM1100 256q0 129 174 207q-62 24 -101.5 65.5t-39.5 100.5q0 67 50 121.5t125.5 83t155.5 28.5q126 0 229 -66t103 -165q0 -57 -39 -100t-104 -68q176 -74 176 -211 q0 -113 -107 -187.5t-258 -74.5q-154 0 -259 77t-105 189zM1264 268q0 -51 62.5 -83.5t139.5 -32.5q79 0 138 33t59 85q0 53 -60.5 86t-138.5 33q-81 0 -140.5 -34.5t-59.5 -86.5zM1296 614q0 -42 51.5 -67t116.5 -25q63 0 115.5 26t52.5 66t-50.5 66.5t-117.5 26.5 q-69 0 -118.5 -26.5t-49.5 -66.5z" />
<glyph unicode="&#x2190;" horiz-adv-x="1863" d="M121 668l807 807l190 -195l-497 -477h1163v-273h-1163l499 -479l-190 -194z" />
<glyph unicode="&#x2191;" horiz-adv-x="1863" d="M143 690l807 807l809 -809l-192 -190l-480 499v-1163h-272v1163l-477 -497z" />
<glyph unicode="&#x2192;" horiz-adv-x="1863" d="M121 530v273h1163l-498 477l191 195l807 -807l-809 -811l-191 194l500 479h-1163z" />
<glyph unicode="&#x2193;" horiz-adv-x="1863" d="M143 641l195 190l477 -497v1163h272v-1163l480 500l192 -191l-809 -809z" />
<glyph unicode="&#x2196;" horiz-adv-x="1863" d="M268 -68v1141l1147 2l-4 -272l-692 14l823 -821l-192 -193l-824 822l15 -688z" />
<glyph unicode="&#x2197;" horiz-adv-x="1863" d="M268 -4l824 821l-693 -14l-4 272l1147 -2v-1141l-272 5l14 688l-823 -822z" />
<glyph unicode="&#x2198;" horiz-adv-x="1863" d="M268 1077l193 193l823 -821l-14 688l272 4v-1141l-1147 -2l4 272l693 -14z" />
<glyph unicode="&#x2199;" horiz-adv-x="1863" d="M268 0v1141l273 -4l-15 -688l824 821l192 -193l-823 -821l692 14l4 -272z" />
<glyph unicode="&#x2202;" horiz-adv-x="1173" d="M39 410q0 131 73.5 244t194.5 178t256 65q95 0 166 -36t105 -101q0 13 1 36.5t1 34.5q0 214 -63.5 310t-190.5 96q-66 0 -133 -23t-105 -61l-151 160q77 72 184 111.5t227 39.5q236 0 359.5 -165.5t123.5 -499.5q0 -387 -155.5 -603t-419.5 -216q-205 0 -339 123 t-134 307zM301 424q0 -97 66 -164t161 -67q105 0 187 82t82 190q0 95 -66 159t-162 64q-108 0 -188 -78t-80 -186z" />
<glyph unicode="&#x2206;" horiz-adv-x="1286" d="M14 0v213l516 1241h230l514 -1241v-213h-1260zM301 248h692l-348 893z" />
<glyph unicode="&#x220f;" horiz-adv-x="1482" d="M66 1217v237h1353v-237h-164v-1401h-268v1401h-491v-1401h-267v1401h-163z" />
<glyph unicode="&#x2211;" horiz-adv-x="1153" d="M66 0v186l438 543l-424 547v178h983v-211h-653v-8l372 -479l-403 -510v-8h700v-238h-1013z" />
<glyph unicode="&#x221a;" horiz-adv-x="1101" d="M16 584v192h406l137 -571l229 1413h246l-311 -1618h-330l-168 584h-209z" />
<glyph unicode="&#x221e;" horiz-adv-x="1466" d="M82 721q0 156 99.5 265.5t246.5 109.5q111 0 180.5 -46.5t124.5 -131.5q56 86 124 132t181 46q153 0 248.5 -109.5t95.5 -267.5q0 -156 -99.5 -265.5t-246.5 -109.5q-75 0 -134.5 23.5t-94.5 55.5t-70 81q-52 -75 -122.5 -117.5t-186.5 -42.5q-87 0 -167 51t-129.5 138.5 t-49.5 187.5zM289 721q0 -84 47 -126t110 -42q70 0 114.5 42t86.5 122q-42 83 -86 125.5t-115 42.5q-63 0 -110 -41t-47 -123zM821 709q39 -75 84.5 -115.5t114.5 -40.5q64 0 109 42t45 126q0 83 -45 123.5t-109 40.5q-74 0 -117 -44.5t-82 -131.5z" />
<glyph unicode="&#x222b;" horiz-adv-x="731" d="M16 -287l50 197q64 -27 100 -27q51 0 79 33.5t25 91.5l-77 1407q-6 121 62 192.5t196 71.5q136 0 266 -55l-49 -197q-64 27 -101 27q-52 0 -80.5 -33t-25.5 -92l78 -1407q7 -126 -61 -195t-197 -69q-135 0 -265 55z" />
<glyph unicode="&#x2248;" horiz-adv-x="919" d="M109 406q73 135 206 135q42 0 81 -15t64.5 -33.5t59.5 -33.5t66 -15q71 0 102 52l123 -88q-79 -134 -217 -134q-53 0 -101 23t-89 45.5t-78 22.5q-65 0 -93 -50zM109 723q71 135 206 135q53 0 100 -24t89 -48t82 -24q69 0 102 51l123 -82q-77 -139 -217 -139 q-53 0 -101 23t-89 46t-78 23q-67 0 -93 -51z" />
<glyph unicode="&#x2260;" horiz-adv-x="950" d="M154 303v178h211l86 168h-297v178h387l129 256l104 -55l-102 -201h123v-178h-213l-86 -168h299v-178h-389l-127 -250l-103 53l98 197h-120z" />
<glyph unicode="&#x2264;" horiz-adv-x="964" d="M102 57v222h723v-222h-723zM104 705v188l717 338v-262l-409 -164l409 -152v-266z" />
<glyph unicode="&#x2265;" horiz-adv-x="964" d="M137 57v222h725v-222h-725zM143 387v266l410 152l-410 164v262l717 -338v-188z" />
<glyph unicode="&#x25ca;" horiz-adv-x="1153" d="M45 750l381 745h303l381 -745l-381 -750h-303zM305 768l289 -580l270 537l-289 573z" />
<glyph unicode="&#x25fc;" horiz-adv-x="1075" d="M0 0v1075h1075v-1075h-1075z" />
<glyph unicode="&#xfb00;" horiz-adv-x="1314" d="M49 733v209h141v100q0 174 98 287t267 113q123 0 264 -60q103 134 287 134q48 0 100 -11.5t79 -21.5t77 -31l-53 -207q-80 37 -148 37q-80 0 -120 -54t-40 -136v-150h283v-209h-283v-733h-274v733h-262v-733h-275v733h-141zM465 942h262q0 41 5 131.5t13 106.5 q-57 28 -135 28q-74 0 -109.5 -42.5t-35.5 -114.5v-109z" />
<glyph unicode="&#xfb01;" horiz-adv-x="1163" d="M49 733v209h141v139q0 185 119 310t318 125q194 0 397 -134l-109 -204q-56 47 -127.5 75.5t-142.5 28.5q-87 0 -133.5 -54.5t-46.5 -135.5v-150h575v-942h-274v733h-301v-733h-275v733h-141z" />
<glyph unicode="&#xfb02;" horiz-adv-x="1345" d="M49 733v209h141v164q0 197 118.5 303.5t330.5 106.5q226 0 340.5 -107.5t114.5 -294.5v-764q0 -46 25 -83.5t73 -37.5q14 0 31 3t31.5 6.5t27.5 7.5t21 7l8 3l39 -221q-3 -3 -39.5 -15t-100 -24t-118.5 -12q-125 0 -199 66.5t-74 162.5v846q0 50 -7.5 87.5t-26 69.5 t-53.5 49t-85 17q-182 0 -182 -229v-111h178v-209h-178v-733h-275v733h-141z" />
<glyph unicode="&#xfb03;" horiz-adv-x="1701" d="M49 733v209h141v100q0 169 98.5 284.5t266.5 115.5q123 0 264 -60q121 134 342 134q189 0 400 -134l-109 -204q-52 45 -125 74.5t-139 29.5q-93 0 -140 -54.5t-47 -135.5v-150h578v-942h-276v733h-302v-733h-274v733h-262v-733h-275v733h-141zM465 942h262q0 41 5 131.5 t13 106.5q-57 28 -135 28q-74 0 -109.5 -43.5t-35.5 -113.5v-109z" />
<glyph unicode="&#xfb04;" horiz-adv-x="1884" d="M49 733v209h141v100q0 171 102 285.5t267 114.5q119 0 260 -60q119 134 359 134q225 0 339.5 -108t114.5 -294v-764q0 -46 25.5 -83.5t73.5 -37.5q22 0 50.5 6.5t48.5 13.5l21 7l37 -221q-3 -3 -39.5 -15t-100 -24t-118.5 -12q-123 0 -197.5 66.5t-74.5 162.5v854 q0 215 -178 215q-91 0 -133.5 -65t-42.5 -168v-107h178v-209h-178v-733h-275v733h-264v-733h-275v733h-141zM465 942h264q0 48 4 137.5t10 102.5q-53 26 -127 26q-72 0 -111.5 -45t-39.5 -110v-111z" />
<glyph horiz-adv-x="1214" d="M6 0l500 1145h203l497 -1145h-262l-115 268h-444l-115 -268h-264zM440 483h330l-162 361z" />
<glyph horiz-adv-x="1214" d="M6 0l500 1145h203l497 -1145h-262l-115 268h-444l-115 -268h-264zM440 483h330l-162 361zM532 1221l181 317h301l-307 -317h-175z" />
<glyph horiz-adv-x="1214" d="M6 0l500 1145h203l497 -1145h-262l-115 268h-444l-115 -268h-264zM299 1538h170q0 -70 42.5 -122t98.5 -52q54 0 95 49.5t47 124.5h170q0 -137 -88.5 -227t-223.5 -90t-223 90t-88 227zM440 483h330l-162 361z" />
<glyph horiz-adv-x="1214" d="M6 0l500 1145h203l497 -1145h-262l-115 268h-444l-115 -268h-264zM197 1221l307 317h213l307 -317h-301l-113 198l-112 -198h-301zM440 483h330l-162 361z" />
<glyph horiz-adv-x="1214" d="M6 0l500 1145h203l497 -1145h-262l-115 268h-444l-115 -268h-264zM203 1346q0 60 45.5 104.5t105.5 44.5q59 0 105.5 -45t46.5 -104q0 -61 -46.5 -106.5t-105.5 -45.5q-60 0 -105.5 46t-45.5 106zM440 483h330l-162 361zM709 1350q0 60 45.5 104.5t105.5 44.5 q59 0 105.5 -45t46.5 -104q0 -61 -46.5 -106.5t-105.5 -45.5q-60 0 -105.5 46t-45.5 106z" />
<glyph horiz-adv-x="1214" d="M6 0l500 1145h203l497 -1145h-262l-115 268h-444l-115 -268h-264zM199 1538h301l180 -317h-174zM440 483h330l-162 361z" />
<glyph horiz-adv-x="1214" d="M6 0l500 1145h203l497 -1145h-262l-115 268h-444l-115 -268h-264zM301 1296v170h614v-170h-614zM440 483h330l-162 361z" />
<glyph horiz-adv-x="1214" d="M6 0l500 1145h203l497 -1145h-262l-115 268h-444l-115 -268h-264zM440 483h330l-162 361zM877 -223q0 69 61 137.5t182 128.5l80 -43q-158 -94 -158 -174q0 -75 127 -84l-57 -143q-115 17 -175 65t-60 113z" />
<glyph horiz-adv-x="1214" d="M6 0l500 1145h203l497 -1145h-262l-115 268h-444l-115 -268h-264zM383 1360q0 84 61 131t164 47t164.5 -47t61.5 -131q0 -85 -61.5 -132.5t-164.5 -47.5t-164 47.5t-61 132.5zM440 483h330l-162 361zM514 1360q0 -35 27 -59.5t67 -24.5q38 0 66 24t28 60q0 37 -26.5 59.5 t-67.5 22.5q-40 0 -67 -22.5t-27 -59.5z" />
<glyph horiz-adv-x="1214" d="M6 0l500 1145h203l497 -1145h-262l-115 268h-444l-115 -268h-264zM223 1227q0 18 7.5 47t25.5 67t44 70.5t69 55t94 22.5q42 0 81 -15t64 -33t59 -33t66 -15q28 0 49 10t32 23.5t18 29.5t8.5 25t1.5 14h151q0 -14 -7.5 -42t-27 -66.5t-46.5 -72.5t-72 -57.5t-99 -23.5 q-52 0 -100 23t-89.5 46t-78.5 23q-26 0 -45.5 -10t-29 -22.5t-15.5 -28.5t-7 -24.5t-1 -12.5h-152zM440 483h330l-162 361z" />
<glyph horiz-adv-x="1679" d="M68 0l712 1145h815v-195h-536v-268h448v-197h-448v-290h553v-195h-772v285h-367l-172 -285h-233zM535 449h239v389z" />
<glyph horiz-adv-x="1220" d="M139 0v1145h674q125 0 205 -90t80 -205q0 -84 -47 -156t-131 -106q108 -30 169.5 -106t61.5 -189q0 -139 -116 -216t-290 -77h-606zM387 209h358q65 0 110.5 38.5t45.5 96.5q0 56 -41 96.5t-102 40.5h-371v-272zM387 676h322q61 0 102 34t41 95q0 58 -38 92.5t-95 34.5 h-332v-256z" />
<glyph horiz-adv-x="1214" d="M66 582q0 84 26 166t78 155t123.5 128t170 87.5t210.5 32.5q166 0 291.5 -67.5t185.5 -182.5l-190 -133q-41 86 -121.5 124t-171.5 38q-84 0 -153 -31.5t-111.5 -83t-65.5 -114t-23 -128.5q0 -148 101 -255t256 -107q91 0 174 41.5t121 124.5l204 -121 q-56 -122 -202 -194t-305 -72q-128 0 -241.5 51.5t-190.5 134.5t-121.5 189.5t-44.5 216.5z" />
<glyph horiz-adv-x="1214" d="M66 582q0 84 26 166t78 155t123.5 128t170 87.5t210.5 32.5q166 0 291.5 -67.5t185.5 -182.5l-190 -133q-41 86 -121.5 124t-171.5 38q-84 0 -153 -31.5t-111.5 -83t-65.5 -114t-23 -128.5q0 -148 101 -255t256 -107q91 0 174 41.5t121 124.5l204 -121 q-56 -122 -202 -194t-305 -72q-128 0 -241.5 51.5t-190.5 134.5t-121.5 189.5t-44.5 216.5zM532 1221l181 317h301l-307 -317h-175z" />
<glyph horiz-adv-x="1214" d="M66 582q0 84 26 166t78 155t123.5 128t170 87.5t210.5 32.5q166 0 291.5 -67.5t185.5 -182.5l-190 -133q-41 86 -121.5 124t-171.5 38q-84 0 -153 -31.5t-111.5 -83t-65.5 -114t-23 -128.5q0 -148 101 -255t256 -107q91 0 174 41.5t121 124.5l204 -121 q-56 -122 -202 -194t-305 -72q-128 0 -241.5 51.5t-190.5 134.5t-121.5 189.5t-44.5 216.5zM203 1538h301l112 -199l113 199h301l-307 -317h-213z" />
<glyph horiz-adv-x="1214" d="M66 582q0 84 26 166t78 155t123.5 128t170 87.5t210.5 32.5q166 0 291.5 -67.5t185.5 -182.5l-190 -133q-41 86 -121.5 124t-171.5 38q-84 0 -153 -31.5t-111.5 -83t-65.5 -114t-23 -128.5q0 -148 101 -255t256 -107q91 0 174 41.5t121 124.5l204 -121 q-56 -122 -202 -194t-305 -72q-128 0 -241.5 51.5t-190.5 134.5t-121.5 189.5t-44.5 216.5zM367 -360l55 100q28 -15 79 -27t103 -12q115 0 115 68q0 67 -107 67q-64 0 -163 -24l124 245l107 -32l-72 -111q24 8 66 8q77 0 125.5 -36t48.5 -107q0 -81 -67 -130.5t-195 -49.5 q-121 0 -219 41z" />
<glyph horiz-adv-x="1214" d="M66 582q0 84 26 166t78 155t123.5 128t170 87.5t210.5 32.5q166 0 291.5 -67.5t185.5 -182.5l-190 -133q-41 86 -121.5 124t-171.5 38q-84 0 -153 -31.5t-111.5 -83t-65.5 -114t-23 -128.5q0 -148 101 -255t256 -107q91 0 174 41.5t121 124.5l204 -121 q-56 -122 -202 -194t-305 -72q-128 0 -241.5 51.5t-190.5 134.5t-121.5 189.5t-44.5 216.5zM197 1221l307 317h213l307 -317h-301l-113 198l-112 -198h-301z" />
<glyph horiz-adv-x="1214" d="M66 582q0 84 26 166t78 155t123.5 128t170 87.5t210.5 32.5q166 0 291.5 -67.5t185.5 -182.5l-190 -133q-41 86 -121.5 124t-171.5 38q-84 0 -153 -31.5t-111.5 -83t-65.5 -114t-23 -128.5q0 -148 101 -255t256 -107q91 0 174 41.5t121 124.5l204 -121 q-56 -122 -202 -194t-305 -72q-128 0 -241.5 51.5t-190.5 134.5t-121.5 189.5t-44.5 216.5zM449 1356q0 63 48 110t111 47q62 0 111 -47.5t49 -109.5q0 -64 -49 -112t-111 -48q-63 0 -111 48.5t-48 111.5z" />
<glyph horiz-adv-x="1298" d="M139 0v1145h463q151 0 272 -44.5t197.5 -122.5t117 -181t40.5 -222q0 -261 -171.5 -418t-455.5 -157h-463zM387 217h215q178 0 276.5 99t98.5 259q0 158 -100 255.5t-275 97.5h-215v-711z" />
<glyph horiz-adv-x="1298" d="M139 0v1145h463q151 0 272 -44.5t197.5 -122.5t117 -181t40.5 -222q0 -261 -171.5 -418t-455.5 -157h-463zM182 1538h301l113 -199l113 199h301l-308 -317h-213zM387 217h215q178 0 276.5 99t98.5 259q0 158 -100 255.5t-275 97.5h-215v-711z" />
<glyph horiz-adv-x="1095" d="M139 0v1145h867v-217h-619v-244h535v-203h-535v-264h635v-217h-883z" />
<glyph horiz-adv-x="1095" d="M139 0v1145h867v-217h-619v-244h535v-203h-535v-264h635v-217h-883zM473 1221l180 317h301l-307 -317h-174z" />
<glyph horiz-adv-x="1095" d="M139 0v1145h867v-217h-619v-244h535v-203h-535v-264h635v-217h-883zM240 1538h170q0 -70 42.5 -122t98.5 -52q54 0 94.5 49.5t46.5 124.5h170q0 -137 -88 -227t-223 -90t-223 90t-88 227z" />
<glyph horiz-adv-x="1095" d="M139 0v1145h867v-217h-619v-244h535v-203h-535v-264h635v-217h-883zM143 1538h301l113 -199l113 199h301l-307 -317h-213z" />
<glyph horiz-adv-x="1095" d="M137 1221l307 317h213l308 -317h-301l-113 198l-113 -198h-301zM139 0v1145h867v-217h-619v-244h535v-203h-535v-264h635v-217h-883z" />
<glyph horiz-adv-x="1095" d="M139 0v1145h867v-217h-619v-244h535v-203h-535v-264h635v-217h-883zM143 1346q0 60 46 104.5t106 44.5q59 0 105 -45t46 -104q0 -61 -46 -106.5t-105 -45.5q-60 0 -106 46t-46 106zM649 1350q0 60 46 104.5t106 44.5q59 0 105 -45t46 -104q0 -61 -46 -106.5t-105 -45.5 q-60 0 -106 46t-46 106z" />
<glyph horiz-adv-x="1095" d="M139 0v1145h867v-217h-619v-244h535v-203h-535v-264h635v-217h-883zM389 1356q0 63 48.5 110t111.5 47q62 0 111 -47.5t49 -109.5q0 -64 -49 -112t-111 -48q-63 0 -111.5 48.5t-48.5 111.5z" />
<glyph horiz-adv-x="1095" d="M139 0v1145h867v-217h-619v-244h535v-203h-535v-264h635v-217h-883zM180 1538h301l181 -317h-175z" />
<glyph horiz-adv-x="1095" d="M139 0v1145h867v-217h-619v-244h535v-203h-535v-264h635v-217h-883zM242 1296v170h614v-170h-614z" />
<glyph horiz-adv-x="1095" d="M139 0v1145h867v-217h-619v-244h535v-203h-535v-264h635v-217h-883zM694 -223q0 69 61.5 137.5t182.5 128.5l80 -43q-158 -94 -158 -174q0 -75 127 -84l-57 -143q-115 17 -175.5 65t-60.5 113z" />
<glyph horiz-adv-x="1044" d="M139 0v1145h854v-217h-606v-266h506v-203h-506v-459h-248z" />
<glyph horiz-adv-x="1269" d="M96 578q0 111 40 214t110.5 183t176 128t228.5 48q145 0 258.5 -63t180.5 -177l-177 -139q-16 29 -37 56t-54.5 58t-81 49.5t-101.5 18.5q-98 0 -173 -57t-111 -142.5t-36 -183.5q0 -70 21 -137.5t59.5 -123t100.5 -90t137 -34.5q108 0 189 66.5t106 157.5h-252v194h491 q0 -2 -1 -53.5t-1 -54.5q-4 -102 -43 -194t-104.5 -161t-160.5 -110t-204 -41q-120 0 -226 49.5t-178.5 131.5t-114.5 188.5t-42 218.5z" />
<glyph horiz-adv-x="1269" d="M96 578q0 111 40 214t110.5 183t176 128t228.5 48q145 0 258.5 -63t180.5 -177l-177 -139q-16 29 -37 56t-54.5 58t-81 49.5t-101.5 18.5q-98 0 -173 -57t-111 -142.5t-36 -183.5q0 -70 21 -137.5t59.5 -123t100.5 -90t137 -34.5q108 0 189 66.5t106 157.5h-252v194h491 q0 -2 -1 -53.5t-1 -54.5q-4 -102 -43 -194t-104.5 -161t-160.5 -110t-204 -41q-120 0 -226 49.5t-178.5 131.5t-114.5 188.5t-42 218.5zM559 1221l180 317h301l-307 -317h-174z" />
<glyph horiz-adv-x="1269" d="M96 578q0 111 40 214t110.5 183t176 128t228.5 48q145 0 258.5 -63t180.5 -177l-177 -139q-16 29 -37 56t-54.5 58t-81 49.5t-101.5 18.5q-98 0 -173 -57t-111 -142.5t-36 -183.5q0 -70 21 -137.5t59.5 -123t100.5 -90t137 -34.5q108 0 189 66.5t106 157.5h-252v194h491 q0 -2 -1 -53.5t-1 -54.5q-4 -102 -43 -194t-104.5 -161t-160.5 -110t-204 -41q-120 0 -226 49.5t-178.5 131.5t-114.5 188.5t-42 218.5zM326 1538h170q0 -70 42.5 -122t98.5 -52q54 0 94.5 49.5t46.5 124.5h170q0 -137 -88 -227t-223 -90t-223 90t-88 227z" />
<glyph horiz-adv-x="1269" d="M96 578q0 111 40 214t110.5 183t176 128t228.5 48q145 0 258.5 -63t180.5 -177l-177 -139q-16 29 -37 56t-54.5 58t-81 49.5t-101.5 18.5q-98 0 -173 -57t-111 -142.5t-36 -183.5q0 -70 21 -137.5t59.5 -123t100.5 -90t137 -34.5q108 0 189 66.5t106 157.5h-252v194h491 q0 -2 -1 -53.5t-1 -54.5q-4 -102 -43 -194t-104.5 -161t-160.5 -110t-204 -41q-120 0 -226 49.5t-178.5 131.5t-114.5 188.5t-42 218.5zM223 1221l307 317h213l308 -317h-301l-113 198l-113 -198h-301z" />
<glyph horiz-adv-x="1269" d="M96 578q0 111 40 214t110.5 183t176 128t228.5 48q145 0 258.5 -63t180.5 -177l-177 -139q-16 29 -37 56t-54.5 58t-81 49.5t-101.5 18.5q-98 0 -173 -57t-111 -142.5t-36 -183.5q0 -70 21 -137.5t59.5 -123t100.5 -90t137 -34.5q108 0 189 66.5t106 157.5h-252v194h491 q0 -2 -1 -53.5t-1 -54.5q-4 -102 -43 -194t-104.5 -161t-160.5 -110t-204 -41q-120 0 -226 49.5t-178.5 131.5t-114.5 188.5t-42 218.5zM434 -438h158l139 338h-199z" />
<glyph horiz-adv-x="1269" d="M96 578q0 111 40 214t110.5 183t176 128t228.5 48q145 0 258.5 -63t180.5 -177l-177 -139q-16 29 -37 56t-54.5 58t-81 49.5t-101.5 18.5q-98 0 -173 -57t-111 -142.5t-36 -183.5q0 -70 21 -137.5t59.5 -123t100.5 -90t137 -34.5q108 0 189 66.5t106 157.5h-252v194h491 q0 -2 -1 -53.5t-1 -54.5q-4 -102 -43 -194t-104.5 -161t-160.5 -110t-204 -41q-120 0 -226 49.5t-178.5 131.5t-114.5 188.5t-42 218.5zM475 1356q0 63 48.5 110t111.5 47q62 0 111 -47.5t49 -109.5q0 -64 -49 -112t-111 -48q-63 0 -111.5 48.5t-48.5 111.5z" />
<glyph horiz-adv-x="1347" d="M139 0v1145h248v-451h574v451h247v-1145h-247v475h-574v-475h-248z" />
<glyph horiz-adv-x="1347" d="M139 0v1145h248v-451h574v451h247v-1145h-247v475h-574v-475h-248zM262 1221l307 317h213l308 -317h-302l-112 198l-113 -198h-301z" />
<glyph horiz-adv-x="526" d="M139 0v1145h248v-1145h-248z" />
<glyph horiz-adv-x="526" d="M139 0v1145h248v-1145h-248zM188 1221l181 317h301l-308 -317h-174z" />
<glyph horiz-adv-x="526" d="M-147 1221l307 317h213l307 -317h-301l-113 198l-112 -198h-301zM139 0v1145h248v-1145h-248z" />
<glyph horiz-adv-x="526" d="M-141 1346q0 60 45.5 104.5t105.5 44.5q59 0 105.5 -45t46.5 -104q0 -61 -46.5 -106.5t-105.5 -45.5q-60 0 -105.5 46t-45.5 106zM139 0v1145h248v-1145h-248zM365 1350q0 60 45.5 104.5t105.5 44.5q59 0 105.5 -45t46.5 -104q0 -61 -46.5 -106.5t-105.5 -45.5 q-60 0 -105.5 46t-45.5 106z" />
<glyph d="M115 1358q0 60 45.5 104.5t105.5 44.5q59 0 105.5 -45t46.5 -104q0 -61 -46.5 -106.5t-105.5 -45.5q-60 0 -105.5 46t-45.5 106zM129 0v1073h274v-1073h-274z" />
<glyph horiz-adv-x="526" d="M-145 1538h301l180 -317h-174zM139 0v1145h248v-1145h-248z" />
<glyph horiz-adv-x="526" d="M-43 1296v170h614v-170h-614zM139 0v1145h248v-1145h-248z" />
<glyph horiz-adv-x="526" d="M57 -223q0 69 61.5 137.5t182.5 128.5l80 -43q-158 -94 -158 -174q0 -75 127 -84l-57 -143q-115 17 -175.5 65t-60.5 113zM139 0v1145h248v-1145h-248z" />
<glyph horiz-adv-x="526" d="M-121 1227q0 18 7.5 47t25.5 67t44 70.5t69 55t94 22.5q42 0 81 -15t64 -33t59 -33t66 -15q28 0 49 10t32 23.5t18 29.5t8.5 25t1.5 14h151q0 -14 -7.5 -42t-27 -66.5t-46.5 -72.5t-72 -57.5t-99 -23.5q-52 0 -100 23t-89.5 46t-78.5 23q-26 0 -45.5 -10t-29 -22.5 t-15.5 -28.5t-7 -24.5t-1 -12.5h-152zM139 0v1145h248v-1145h-248z" />
<glyph horiz-adv-x="897" d="M55 244q33 -124 135.5 -195.5t235.5 -71.5q179 0 298.5 111.5t115.5 312.5v742h-219v-733q0 -113 -53.5 -167.5t-135.5 -54.5q-71 0 -115.5 34t-70.5 108z" />
<glyph horiz-adv-x="897" d="M55 244q33 -124 135.5 -195.5t235.5 -71.5q179 0 298.5 111.5t115.5 312.5v742h-219v-733q0 -113 -53.5 -167.5t-135.5 -54.5q-71 0 -115.5 34t-70.5 108zM307 1221l307 317h213l308 -317h-301l-113 198l-113 -198h-301z" />
<glyph horiz-adv-x="1216" d="M139 0v1145h248v-535l547 535h260l-487 -510l516 -635h-260l-406 496l-170 -152v-344h-248z" />
<glyph horiz-adv-x="1216" d="M139 0v1145h248v-535l547 535h260l-487 -510l516 -635h-260l-406 496l-170 -152v-344h-248zM408 -438h157l140 338h-199z" />
<glyph horiz-adv-x="995" d="M139 0v1145h248v-928h586v-217h-834z" />
<glyph horiz-adv-x="995" d="M139 0v1145h248v-928h586v-217h-834zM172 1221l180 317h301l-307 -317h-174z" />
<glyph horiz-adv-x="995" d="M139 0v1145h248v-928h586v-217h-834zM475 760l72 315h231l-108 -315h-195z" />
<glyph horiz-adv-x="995" d="M139 0v1145h248v-928h586v-217h-834zM297 -438h158l139 338h-199z" />
<glyph horiz-adv-x="1562" d="M139 0v1145h269l374 -619l375 619h264v-1145h-245v715l-328 -525h-135l-326 525v-715h-248z" />
<glyph horiz-adv-x="1378" d="M139 0v1145h193l659 -705v705h248v-1145h-201l-651 686v-686h-248z" />
<glyph horiz-adv-x="1378" d="M139 0v1145h193l659 -705v705h248v-1145h-201l-651 686v-686h-248zM614 1221l181 317h301l-308 -317h-174z" />
<glyph horiz-adv-x="1378" d="M139 0v1145h193l659 -705v705h248v-1145h-201l-651 686v-686h-248zM285 1538h301l112 -199l113 199h301l-307 -317h-213z" />
<glyph horiz-adv-x="1378" d="M139 0v1145h193l659 -705v705h248v-1145h-201l-651 686v-686h-248zM489 -438h158l139 338h-198z" />
<glyph horiz-adv-x="1378" d="M139 0v1145h193l659 -705v705h248v-1145h-201l-651 686v-686h-248zM305 1227q0 18 7.5 47t25.5 67t44 70.5t69 55t94 22.5q42 0 81 -15t64 -33t59 -33t66 -15q28 0 49 10t32 23.5t18 29.5t8.5 25t1.5 14h151q0 -14 -7.5 -42t-27 -66.5t-46.5 -72.5t-72 -57.5t-99 -23.5 q-52 0 -100 23t-89.5 46t-78.5 23q-26 0 -45.5 -10t-29 -22.5t-15.5 -28.5t-7 -24.5t-1 -12.5h-152z" />
<glyph horiz-adv-x="1337" d="M66 573q0 113 46 218t125 184.5t193 127.5t242 48q131 0 245 -50.5t190.5 -132.5t120.5 -187t44 -214q0 -112 -45.5 -216.5t-124.5 -184t-192.5 -127t-241.5 -47.5q-131 0 -245.5 49.5t-191.5 130.5t-121 186t-44 215zM315 571q0 -145 98 -252.5t257 -107.5 q82 0 150 31.5t110.5 83t66 115.5t23.5 132q0 93 -42 174t-123.5 132t-186.5 51q-81 0 -149.5 -31t-112 -82.5t-67.5 -115t-24 -130.5z" />
<glyph horiz-adv-x="1337" d="M66 573q0 113 46 218t125 184.5t193 127.5t242 48q131 0 245 -50.5t190.5 -132.5t120.5 -187t44 -214q0 -112 -45.5 -216.5t-124.5 -184t-192.5 -127t-241.5 -47.5q-131 0 -245.5 49.5t-191.5 130.5t-121 186t-44 215zM315 571q0 -145 98 -252.5t257 -107.5 q82 0 150 31.5t110.5 83t66 115.5t23.5 132q0 93 -42 174t-123.5 132t-186.5 51q-81 0 -149.5 -31t-112 -82.5t-67.5 -115t-24 -130.5zM594 1221l180 317h301l-307 -317h-174z" />
<glyph horiz-adv-x="1337" d="M66 573q0 113 46 218t125 184.5t193 127.5t242 48q131 0 245 -50.5t190.5 -132.5t120.5 -187t44 -214q0 -112 -45.5 -216.5t-124.5 -184t-192.5 -127t-241.5 -47.5q-131 0 -245.5 49.5t-191.5 130.5t-121 186t-44 215zM315 571q0 -145 98 -252.5t257 -107.5 q82 0 150 31.5t110.5 83t66 115.5t23.5 132q0 93 -42 174t-123.5 132t-186.5 51q-81 0 -149.5 -31t-112 -82.5t-67.5 -115t-24 -130.5zM360 1538h170q0 -70 43 -122t99 -52q54 0 94.5 49.5t46.5 124.5h170q0 -137 -88 -227t-223 -90t-223.5 90t-88.5 227z" />
<glyph horiz-adv-x="1337" d="M66 573q0 113 46 218t125 184.5t193 127.5t242 48q131 0 245 -50.5t190.5 -132.5t120.5 -187t44 -214q0 -112 -45.5 -216.5t-124.5 -184t-192.5 -127t-241.5 -47.5q-131 0 -245.5 49.5t-191.5 130.5t-121 186t-44 215zM258 1221l307 317h213l307 -317h-301l-112 198 l-113 -198h-301zM315 571q0 -145 98 -252.5t257 -107.5q82 0 150 31.5t110.5 83t66 115.5t23.5 132q0 93 -42 174t-123.5 132t-186.5 51q-81 0 -149.5 -31t-112 -82.5t-67.5 -115t-24 -130.5z" />
<glyph horiz-adv-x="1337" d="M66 573q0 113 46 218t125 184.5t193 127.5t242 48q131 0 245 -50.5t190.5 -132.5t120.5 -187t44 -214q0 -112 -45.5 -216.5t-124.5 -184t-192.5 -127t-241.5 -47.5q-131 0 -245.5 49.5t-191.5 130.5t-121 186t-44 215zM264 1346q0 60 46 104.5t106 44.5q59 0 105 -45 t46 -104q0 -61 -46 -106.5t-105 -45.5q-60 0 -106 46t-46 106zM315 571q0 -145 98 -252.5t257 -107.5q82 0 150 31.5t110.5 83t66 115.5t23.5 132q0 93 -42 174t-123.5 132t-186.5 51q-81 0 -149.5 -31t-112 -82.5t-67.5 -115t-24 -130.5zM770 1350q0 60 46 104.5t106 44.5 q59 0 105 -45t46 -104q0 -61 -46 -106.5t-105 -45.5q-60 0 -106 46t-46 106z" />
<glyph horiz-adv-x="1337" d="M66 573q0 113 46 218t125 184.5t193 127.5t242 48q131 0 245 -50.5t190.5 -132.5t120.5 -187t44 -214q0 -112 -45.5 -216.5t-124.5 -184t-192.5 -127t-241.5 -47.5q-131 0 -245.5 49.5t-191.5 130.5t-121 186t-44 215zM260 1538h301l180 -317h-174zM315 571 q0 -145 98 -252.5t257 -107.5q82 0 150 31.5t110.5 83t66 115.5t23.5 132q0 93 -42 174t-123.5 132t-186.5 51q-81 0 -149.5 -31t-112 -82.5t-67.5 -115t-24 -130.5z" />
<glyph horiz-adv-x="1337" d="M66 573q0 113 46 218t125 184.5t193 127.5t242 48q131 0 245 -50.5t190.5 -132.5t120.5 -187t44 -214q0 -112 -45.5 -216.5t-124.5 -184t-192.5 -127t-241.5 -47.5q-131 0 -245.5 49.5t-191.5 130.5t-121 186t-44 215zM315 571q0 -145 98 -252.5t257 -107.5 q82 0 150 31.5t110.5 83t66 115.5t23.5 132q0 93 -42 174t-123.5 132t-186.5 51q-81 0 -149.5 -31t-112 -82.5t-67.5 -115t-24 -130.5zM399 1221l181 317h301l-308 -317h-174zM786 1221l181 317h301l-307 -317h-175z" />
<glyph horiz-adv-x="1337" d="M66 573q0 113 46 218t125 184.5t193 127.5t242 48q131 0 245 -50.5t190.5 -132.5t120.5 -187t44 -214q0 -112 -45.5 -216.5t-124.5 -184t-192.5 -127t-241.5 -47.5q-131 0 -245.5 49.5t-191.5 130.5t-121 186t-44 215zM315 571q0 -145 98 -252.5t257 -107.5 q82 0 150 31.5t110.5 83t66 115.5t23.5 132q0 93 -42 174t-123.5 132t-186.5 51q-81 0 -149.5 -31t-112 -82.5t-67.5 -115t-24 -130.5zM362 1296v170h615v-170h-615z" />
<glyph horiz-adv-x="1337" d="M66 573q0 113 46 218t125 184.5t193 127.5t242 48q131 0 245 -50.5t190.5 -132.5t120.5 -187t44 -214q0 -112 -45.5 -216.5t-124.5 -184t-192.5 -127t-241.5 -47.5q-131 0 -245.5 49.5t-191.5 130.5t-121 186t-44 215zM285 1227q0 24 13 63.5t38.5 86t75 79.5t112.5 33 q53 0 100 -24t89 -48t82 -24q28 0 49 10t31.5 23.5t17.5 29.5t8.5 25t1.5 14h152q0 -14 -7.5 -42t-27 -66.5t-46.5 -72.5t-72 -57.5t-99 -23.5q-52 0 -100 23t-89.5 46t-78.5 23q-26 0 -45.5 -10t-29 -22.5t-15.5 -28.5t-7.5 -24.5t-1.5 -12.5h-151zM315 571 q0 -145 98 -252.5t257 -107.5q82 0 150 31.5t110.5 83t66 115.5t23.5 132q0 93 -42 174t-123.5 132t-186.5 51q-81 0 -149.5 -31t-112 -82.5t-67.5 -115t-24 -130.5z" />
<glyph horiz-adv-x="1130" d="M139 0v1145h539q86 0 162.5 -34t129 -88t83 -123.5t30.5 -139.5q0 -99 -48.5 -186.5t-140.5 -143t-206 -55.5h-301v-375h-248zM387 592h285q71 0 115 44t44 124q0 79 -49.5 123.5t-119.5 44.5h-275v-336z" />
<glyph horiz-adv-x="1337" d="M66 573q0 113 46 218.5t125 185.5t193 128t242 48q131 0 245 -50.5t190.5 -133.5t120.5 -188t44 -214q0 -104 -40.5 -203t-113.5 -178l131 -137l-133 -106l-129 135q-146 -86 -319 -86q-131 0 -245.5 49.5t-191.5 130.5t-121 186t-44 215zM315 571q0 -145 98 -251.5 t257 -106.5q87 0 155 35l-129 133l133 111l125 -134q66 97 66 215q0 93 -42 174.5t-123.5 133t-186.5 51.5q-81 0 -149.5 -31.5t-112 -83t-67.5 -115.5t-24 -131z" />
<glyph horiz-adv-x="1216" d="M139 0v1145h563q114 0 208.5 -57.5t145 -145t50.5 -182.5q0 -108 -61.5 -198.5t-165.5 -133.5l299 -428h-283l-266 375h-242v-375h-248zM387 592h309q68 0 114 48t46 120t-51 120t-119 48h-299v-336z" />
<glyph horiz-adv-x="1216" d="M139 0v1145h563q114 0 208.5 -57.5t145 -145t50.5 -182.5q0 -108 -61.5 -198.5t-165.5 -133.5l299 -428h-283l-266 375h-242v-375h-248zM387 592h309q68 0 114 48t46 120t-51 120t-119 48h-299v-336zM532 1221l181 317h301l-307 -317h-175z" />
<glyph horiz-adv-x="1216" d="M139 0v1145h563q114 0 208.5 -57.5t145 -145t50.5 -182.5q0 -108 -61.5 -198.5t-165.5 -133.5l299 -428h-283l-266 375h-242v-375h-248zM139 1538h301l113 -199l113 199h301l-308 -317h-213zM387 592h309q68 0 114 48t46 120t-51 120t-119 48h-299v-336z" />
<glyph horiz-adv-x="1089" d="M49 131l111 215q46 -48 165 -92.5t248 -44.5q90 0 139.5 26.5t49.5 73.5q0 59 -88 97q-51 22 -228 67q-183 46 -264.5 118t-81.5 202q0 170 128 265t323 95q228 0 432 -127l-106 -203q-43 37 -138.5 74t-191.5 37q-193 0 -193 -109q0 -56 54 -81.5t205 -62.5q13 -3 20 -5 q79 -19 135 -38t108 -47t83.5 -62.5t50 -83.5t18.5 -111q0 -92 -37 -161t-102.5 -109t-145.5 -59t-174 -19q-138 0 -276 38.5t-244 106.5z" />
<glyph horiz-adv-x="1089" d="M49 131l111 215q46 -48 165 -92.5t248 -44.5q90 0 139.5 26.5t49.5 73.5q0 59 -88 97q-51 22 -228 67q-183 46 -264.5 118t-81.5 202q0 170 128 265t323 95q228 0 432 -127l-106 -203q-43 37 -138.5 74t-191.5 37q-193 0 -193 -109q0 -56 54 -81.5t205 -62.5q13 -3 20 -5 q79 -19 135 -38t108 -47t83.5 -62.5t50 -83.5t18.5 -111q0 -92 -37 -161t-102.5 -109t-145.5 -59t-174 -19q-138 0 -276 38.5t-244 106.5zM469 1221l180 317h301l-307 -317h-174z" />
<glyph horiz-adv-x="1089" d="M49 131l111 215q46 -48 165 -92.5t248 -44.5q90 0 139.5 26.5t49.5 73.5q0 59 -88 97q-51 22 -228 67q-183 46 -264.5 118t-81.5 202q0 170 128 265t323 95q228 0 432 -127l-106 -203q-43 37 -138.5 74t-191.5 37q-193 0 -193 -109q0 -56 54 -81.5t205 -62.5q13 -3 20 -5 q79 -19 135 -38t108 -47t83.5 -62.5t50 -83.5t18.5 -111q0 -92 -37 -161t-102.5 -109t-145.5 -59t-174 -19q-138 0 -276 38.5t-244 106.5zM139 1538h301l113 -199l113 199h301l-308 -317h-213z" />
<glyph horiz-adv-x="1089" d="M49 131l111 215q46 -48 165 -92.5t248 -44.5q90 0 139.5 26.5t49.5 73.5q0 59 -88 97q-51 22 -228 67q-183 46 -264.5 118t-81.5 202q0 170 128 265t323 95q228 0 432 -127l-106 -203q-43 37 -138.5 74t-191.5 37q-193 0 -193 -109q0 -56 54 -81.5t205 -62.5q13 -3 20 -5 q79 -19 135 -38t108 -47t83.5 -62.5t50 -83.5t18.5 -111q0 -92 -37 -161t-102.5 -109t-145.5 -59t-174 -19q-138 0 -276 38.5t-244 106.5zM133 1221l307 317h213l308 -317h-302l-112 198l-113 -198h-301z" />
<glyph horiz-adv-x="1126" d="M35 928v217h1057v-217h-404v-928h-248v928h-405z" />
<glyph horiz-adv-x="1126" d="M35 928v217h1057v-217h-404v-928h-248v928h-405zM158 1538h301l112 -199l113 199h301l-307 -317h-213z" />
<glyph horiz-adv-x="1339" d="M123 559v586h248v-586q0 -71 16 -131t49.5 -110t92.5 -78.5t139 -28.5q83 0 144 29t94 80t48 110t15 129v586h248v-586q0 -121 -32 -222t-96.5 -179t-171.5 -122t-247 -44q-116 0 -209 30.5t-155.5 83t-104 125t-60 154.5t-18.5 174z" />
<glyph horiz-adv-x="1339" d="M123 559v586h248v-586q0 -71 16 -131t49.5 -110t92.5 -78.5t139 -28.5q83 0 144 29t94 80t48 110t15 129v586h248v-586q0 -121 -32 -222t-96.5 -179t-171.5 -122t-247 -44q-116 0 -209 30.5t-155.5 83t-104 125t-60 154.5t-18.5 174zM594 1221l180 317h301l-307 -317 h-174z" />
<glyph horiz-adv-x="1339" d="M123 559v586h248v-586q0 -71 16 -131t49.5 -110t92.5 -78.5t139 -28.5q83 0 144 29t94 80t48 110t15 129v586h248v-586q0 -121 -32 -222t-96.5 -179t-171.5 -122t-247 -44q-116 0 -209 30.5t-155.5 83t-104 125t-60 154.5t-18.5 174zM360 1538h170q0 -70 43 -122t99 -52 q54 0 94.5 49.5t46.5 124.5h170q0 -137 -88 -227t-223 -90t-223.5 90t-88.5 227z" />
<glyph horiz-adv-x="1339" d="M123 559v586h248v-586q0 -71 16 -131t49.5 -110t92.5 -78.5t139 -28.5q83 0 144 29t94 80t48 110t15 129v586h248v-586q0 -121 -32 -222t-96.5 -179t-171.5 -122t-247 -44q-116 0 -209 30.5t-155.5 83t-104 125t-60 154.5t-18.5 174zM258 1221l307 317h213l307 -317h-301 l-112 198l-113 -198h-301z" />
<glyph horiz-adv-x="1339" d="M123 559v586h248v-586q0 -71 16 -131t49.5 -110t92.5 -78.5t139 -28.5q83 0 144 29t94 80t48 110t15 129v586h248v-586q0 -121 -32 -222t-96.5 -179t-171.5 -122t-247 -44q-116 0 -209 30.5t-155.5 83t-104 125t-60 154.5t-18.5 174zM264 1346q0 60 46 104.5t106 44.5 q59 0 105 -45t46 -104q0 -61 -46 -106.5t-105 -45.5q-60 0 -106 46t-46 106zM770 1350q0 60 46 104.5t106 44.5q59 0 105 -45t46 -104q0 -61 -46 -106.5t-105 -45.5q-60 0 -106 46t-46 106z" />
<glyph horiz-adv-x="1339" d="M123 559v586h248v-586q0 -71 16 -131t49.5 -110t92.5 -78.5t139 -28.5q83 0 144 29t94 80t48 110t15 129v586h248v-586q0 -121 -32 -222t-96.5 -179t-171.5 -122t-247 -44q-116 0 -209 30.5t-155.5 83t-104 125t-60 154.5t-18.5 174zM260 1538h301l180 -317h-174z" />
<glyph horiz-adv-x="1339" d="M123 559v586h248v-586q0 -71 16 -131t49.5 -110t92.5 -78.5t139 -28.5q83 0 144 29t94 80t48 110t15 129v586h248v-586q0 -121 -32 -222t-96.5 -179t-171.5 -122t-247 -44q-116 0 -209 30.5t-155.5 83t-104 125t-60 154.5t-18.5 174zM399 1221l181 317h301l-308 -317 h-174zM786 1221l181 317h301l-307 -317h-175z" />
<glyph horiz-adv-x="1339" d="M123 559v586h248v-586q0 -71 16 -131t49.5 -110t92.5 -78.5t139 -28.5q83 0 144 29t94 80t48 110t15 129v586h248v-586q0 -121 -32 -222t-96.5 -179t-171.5 -122t-247 -44q-116 0 -209 30.5t-155.5 83t-104 125t-60 154.5t-18.5 174zM362 1296v170h615v-170h-615z" />
<glyph horiz-adv-x="1339" d="M123 559v586h248v-586q0 -71 16 -131t49.5 -110t92.5 -78.5t139 -28.5q83 0 144 29t94 80t48 110t15 129v586h248v-586q0 -121 -32 -222t-96.5 -179t-171.5 -122t-247 -44q-116 0 -209 30.5t-155.5 83t-104 125t-60 154.5t-18.5 174zM457 -223q0 69 61 137.5t182 128.5 l80 -43q-157 -93 -157 -174q0 -75 127 -84l-58 -143q-115 17 -175 65t-60 113z" />
<glyph horiz-adv-x="1339" d="M123 559v586h248v-586q0 -71 16 -131t49.5 -110t92.5 -78.5t139 -28.5q83 0 144 29t94 80t48 110t15 129v586h248v-586q0 -121 -32 -222t-96.5 -179t-171.5 -122t-247 -44q-116 0 -209 30.5t-155.5 83t-104 125t-60 154.5t-18.5 174zM444 1360q0 84 61.5 131t164.5 47 t164 -47t61 -131q0 -85 -61 -132.5t-164 -47.5t-164.5 47.5t-61.5 132.5zM575 1360q0 -35 27.5 -59.5t67.5 -24.5q38 0 66 24t28 60q0 37 -26.5 59.5t-67.5 22.5q-40 0 -67.5 -22.5t-27.5 -59.5z" />
<glyph horiz-adv-x="1339" d="M123 559v586h248v-586q0 -71 16 -131t49.5 -110t92.5 -78.5t139 -28.5q83 0 144 29t94 80t48 110t15 129v586h248v-586q0 -121 -32 -222t-96.5 -179t-171.5 -122t-247 -44q-116 0 -209 30.5t-155.5 83t-104 125t-60 154.5t-18.5 174zM285 1227q0 24 13 63.5t38.5 86 t75 79.5t112.5 33q53 0 100 -24t89 -48t82 -24q28 0 49 10t31.5 23.5t17.5 29.5t8.5 25t1.5 14h152q0 -14 -7.5 -42t-27 -66.5t-46.5 -72.5t-72 -57.5t-99 -23.5q-52 0 -100 23t-89.5 46t-78.5 23q-26 0 -45.5 -10t-29 -22.5t-15.5 -28.5t-7.5 -24.5t-1.5 -12.5h-151z" />
<glyph horiz-adv-x="1218" d="M8 1145h260l342 -797l340 797h260l-495 -1145h-209z" />
<glyph horiz-adv-x="1896" d="M72 1145h250l243 -813l260 813h240l268 -811l242 811h254l-361 -1145h-229l-293 780l-287 -780h-231z" />
<glyph horiz-adv-x="1896" d="M72 1145h250l243 -813l260 813h240l268 -811l242 811h254l-361 -1145h-229l-293 780l-287 -780h-231zM537 1221l307 317h213l307 -317h-301l-113 198l-112 -198h-301z" />
<glyph horiz-adv-x="1179" d="M4 1145h270l316 -406l315 406h269l-453 -580l438 -565h-268l-301 389l-299 -389h-273l441 565z" />
<glyph horiz-adv-x="1181" d="M8 1145h268l314 -535l315 535h271l-463 -750v-395h-246v397z" />
<glyph horiz-adv-x="1181" d="M8 1145h268l314 -535l315 535h271l-463 -750v-395h-246v397zM516 1221l180 317h301l-307 -317h-174z" />
<glyph horiz-adv-x="1181" d="M8 1145h268l314 -535l315 535h271l-463 -750v-395h-246v397zM180 1221l307 317h213l308 -317h-301l-113 198l-113 -198h-301z" />
<glyph horiz-adv-x="1181" d="M8 1145h268l314 -535l315 535h271l-463 -750v-395h-246v397zM186 1346q0 60 46 104.5t106 44.5q59 0 105 -45t46 -104q0 -61 -46 -106.5t-105 -45.5q-60 0 -106 46t-46 106zM692 1350q0 60 46 104.5t106 44.5q59 0 105 -45t46 -104q0 -61 -46 -106.5t-105 -45.5 q-60 0 -106 46t-46 106z" />
<glyph horiz-adv-x="1150" d="M68 0v186l714 742h-694v217h983v-187l-692 -741h696v-217h-1007z" />
<glyph horiz-adv-x="1150" d="M68 0v186l714 742h-694v217h983v-187l-692 -741h696v-217h-1007zM500 1221l180 317h301l-307 -317h-174z" />
<glyph horiz-adv-x="1150" d="M68 0v186l714 742h-694v217h983v-187l-692 -741h696v-217h-1007zM170 1538h301l113 -199l112 199h301l-307 -317h-213z" />
<glyph horiz-adv-x="1150" d="M68 0v186l714 742h-694v217h983v-187l-692 -741h696v-217h-1007zM416 1356q0 63 48 110t111 47q62 0 111 -47.5t49 -109.5q0 -64 -49 -112t-111 -48q-63 0 -111 48.5t-48 111.5z" />
<glyph horiz-adv-x="1257" d="M100 600q0 133 40.5 249t110.5 198t168 129t210 47q150 0 270.5 -80t189 -223t68.5 -320t-68.5 -319t-189 -221.5t-270.5 -79.5t-271 79.5t-189.5 221.5t-68.5 319zM375 600q0 -165 70 -267t184 -102q111 0 181.5 102.5t70.5 266.5t-70.5 267.5t-181.5 103.5 q-114 0 -184 -103t-70 -268z" />
<glyph horiz-adv-x="1011" d="M90 719v256q69 0 189.5 76.5t142.5 117.5h280v-921h261v-248h-832v248h291v620q-38 -49 -147 -99t-185 -50z" />
<glyph horiz-adv-x="1155" d="M78 0q0 191 68 310.5t253 221.5q36 20 88.5 48t78.5 42t61 35t51.5 34.5t34 32.5t24 37t6.5 40q0 64 -50.5 106.5t-139.5 42.5q-154 0 -287 -157l-176 202q69 72 207.5 133.5t304.5 61.5q206 0 323 -95.5t117 -252.5q0 -55 -18.5 -105t-43.5 -84t-67 -69t-71.5 -54 t-75.5 -45q-50 -27 -85.5 -48.5t-88 -55.5t-91 -68t-57.5 -65h621v-248h-987z" />
<glyph horiz-adv-x="1142" d="M57 -104l156 194q110 -141 311 -141q256 0 256 201q0 107 -76.5 164t-228.5 57h-57v204h63q124 0 195.5 56t71.5 145q0 81 -56 123.5t-151 42.5q-93 0 -168 -42.5t-123 -121.5l-172 193q63 94 198.5 151.5t294.5 57.5q209 0 339 -100t130 -263q0 -123 -72 -218t-188 -116 q128 -22 206.5 -122t78.5 -242q0 -192 -144.5 -306t-388.5 -114q-311 0 -475 197z" />
<glyph horiz-adv-x="1169" d="M41 45v244l686 880h186v-878h181v-246h-181v-305h-274v305h-598zM315 291h355v463z" />
<glyph horiz-adv-x="1134" d="M59 -53l158 164q57 -80 143.5 -127t178.5 -47q111 0 181.5 67.5t70.5 175.5q0 105 -67 171.5t-169 66.5q-68 0 -126 -30.5t-93 -84.5h-240l168 866h717v-249h-518l-60 -326q56 59 191 59q207 0 342 -130.5t135 -336.5q0 -218 -151 -354.5t-383 -136.5q-158 0 -285 67.5 t-193 184.5z" />
<glyph horiz-adv-x="1243" d="M94 647q0 392 150 604.5t413 212.5q137 0 253.5 -59.5t195.5 -169.5l-158 -172q-50 77 -128 120.5t-167 43.5q-137 0 -219 -110.5t-86 -305.5q43 75 123.5 117.5t181.5 42.5q141 0 258 -64t183.5 -175.5t66.5 -246.5q0 -140 -69.5 -255.5t-192 -182.5t-270.5 -67 q-249 0 -392 177t-143 490zM362 485q0 -110 80 -192t189 -82q108 0 188 81t80 193q0 110 -79.5 188.5t-188.5 78.5q-112 0 -190.5 -78t-78.5 -189z" />
<glyph horiz-adv-x="1148" d="M57 944v250h1094l-721 -1454h-311l600 1204h-662z" />
<glyph horiz-adv-x="1236" d="M90 440q0 113 67.5 201.5t159.5 136.5q-78 38 -130 113t-52 160q0 93 44 171.5t115 128t155 76.5t169 27q67 0 135 -16t131.5 -50t112 -80.5t78 -112.5t29.5 -142q0 -86 -54.5 -162.5t-134.5 -112.5q99 -49 165.5 -139.5t66.5 -208.5q0 -131 -72.5 -234.5t-193 -158.5 t-265.5 -55q-221 0 -373.5 130t-152.5 328zM369 446q0 -95 75.5 -156t173.5 -61q99 0 174.5 62.5t75.5 154.5q0 98 -75.5 158t-176.5 60t-174 -61t-73 -157zM414 1042q0 -80 62.5 -126t141.5 -46q78 0 141.5 47.5t63.5 126.5q0 73 -60 119.5t-147 46.5q-85 0 -143.5 -47 t-58.5 -121z" />
</font>
</defs>
</svg>
