<?xml version="1.0" standalone="no"?>
<!DOCTYPE svg PUBLIC "-//W3C//DTD SVG 1.1//EN" "http://www.w3.org/Graphics/SVG/1.1/DTD/svg11.dtd" >
<svg xmlns="http://www.w3.org/2000/svg" xmlns:xlink="http://www.w3.org/1999/xlink" version="1.1">
<metadata></metadata>
<defs>
<font id="raleway_prezimedium" horiz-adv-x="1210" >
<font-face units-per-em="2048" ascent="1638" descent="-410" />
<missing-glyph horiz-adv-x="518" />
<glyph horiz-adv-x="0" />
<glyph horiz-adv-x="682" />
<glyph horiz-adv-x="0" />
<glyph horiz-adv-x="0" />
<glyph unicode="&#xd;" horiz-adv-x="0" />
<glyph unicode=" "  horiz-adv-x="518" />
<glyph unicode="&#x09;" horiz-adv-x="518" />
<glyph unicode="&#xa0;" horiz-adv-x="518" />
<glyph unicode="!" horiz-adv-x="536" d="M141 127q0 53 37.5 91t89.5 38q51 0 89 -38.5t38 -90.5t-38 -89.5t-89 -37.5q-52 0 -89.5 37t-37.5 90zM178 492v976h180v-976h-180z" />
<glyph unicode="&#x22;" horiz-adv-x="663" d="M88 995v482h172v-482h-172zM426 995v482h172v-482h-172z" />
<glyph unicode="#" horiz-adv-x="1417" d="M76 412v139h264l88 364h-262v132h295l98 407h150l-101 -407h344l99 407h149l-100 -407h241v-132h-274l-88 -364h272v-139h-305l-100 -412h-150l103 412h-344l-101 -412h-149l102 412h-231zM487 551h344l89 364h-345z" />
<glyph unicode="$" horiz-adv-x="1273" d="M72 190l88 156q66 -69 186.5 -125t259.5 -67v489l-31 8q-95 23 -161 45.5t-123.5 54t-91.5 70t-53 91.5t-19 122q0 192 128.5 304t340.5 124v207h90v-207q253 -11 440 -164l-86 -149q-51 58 -151 101.5t-215 47.5v-485l26 -6q98 -22 168 -44.5t135 -56t104 -75.5 t62 -102.5t23 -137.5q0 -100 -38.5 -177.5t-107.5 -126t-159.5 -74t-200.5 -27.5v-205h-90v207q-301 18 -524 202zM317 1063q0 -98 65.5 -147.5t223.5 -88.5v471q-146 -7 -217.5 -68t-71.5 -167zM674 152q154 0 237.5 56.5t83.5 164.5q0 100 -76.5 154.5t-244.5 99.5v-475z " />
<glyph unicode="%" horiz-adv-x="1501" d="M76 1176q0 124 92 211.5t223 87.5q132 0 224 -87t92 -212t-92 -212t-224 -87q-131 0 -223 87.5t-92 211.5zM145 68l574 690l549 706l88 -75l-568 -687l-557 -712zM207 1176q0 -83 54.5 -142t129.5 -59q76 0 130 60.5t54 140.5q0 82 -55 141t-129 59q-76 0 -130 -60 t-54 -140zM795 279q0 124 92 211.5t223 87.5q132 0 223.5 -87t91.5 -212t-91.5 -212t-223.5 -87q-131 0 -223 87.5t-92 211.5zM926 279q0 -83 54.5 -142t129.5 -59q76 0 130 59.5t54 141.5t-55 141t-129 59q-76 0 -130 -60t-54 -140z" />
<glyph unicode="&#x26;" horiz-adv-x="1394" d="M92 385q0 70 22.5 132.5t65 115t89.5 93.5t110 83q-102 115 -142 188t-40 148q0 141 107 234.5t267 93.5q150 0 252.5 -82t102.5 -215q0 -60 -22 -113.5t-66.5 -101t-92 -85t-118.5 -83.5l370 -390q82 158 82 347h150q-3 -261 -125 -457l280 -293h-237l-152 158 q-184 -178 -432 -178q-202 0 -336.5 115.5t-134.5 289.5zM266 383q0 -119 93.5 -189.5t222.5 -70.5q182 0 315 139l-414 436q-105 -76 -161 -151t-56 -164zM362 1149q0 -45 32 -95t128 -153q121 77 179.5 137.5t58.5 132.5t-53.5 118t-135.5 46q-90 0 -149.5 -54.5 t-59.5 -131.5z" />
<glyph unicode="'" horiz-adv-x="430" d="M131 995v482h174v-482h-174z" />
<glyph unicode="(" horiz-adv-x="579" d="M86 709q0 133 41.5 277.5t100 264.5t149.5 273l139 -62q-95 -143 -178.5 -360.5t-83.5 -399.5q0 -313 258 -718l-133 -70q-293 436 -293 795z" />
<glyph unicode=")" horiz-adv-x="579" d="M63 1462l140 62q91 -153 149.5 -273t100 -264.5t41.5 -277.5q0 -359 -293 -795l-133 70q258 405 258 718q0 125 -45.5 280.5t-102.5 274t-115 205.5z" />
<glyph unicode="*" horiz-adv-x="673" d="M121 1280l26 86l144 -55l-6 151h104l-6 -151l143 55l27 -86l-141 -45l92 -133l-78 -51l-88 137l-90 -137l-76 51l90 133z" />
<glyph unicode="+" horiz-adv-x="851" d="M102 653v148h242v262h164v-262h242v-148h-242v-262h-164v262h-242z" />
<glyph unicode="," horiz-adv-x="432" d="M45 -287h145l187 482h-195z" />
<glyph unicode="-" horiz-adv-x="866" d="M131 477v164h604v-164h-604z" />
<glyph unicode="." horiz-adv-x="413" d="M92 106q0 53 36.5 90t88.5 37q51 0 88 -37.5t37 -89.5q0 -51 -37 -87.5t-88 -36.5q-52 0 -88.5 36.5t-36.5 87.5z" />
<glyph unicode="/" horiz-adv-x="860" d="M23 0l655 1516l164 -56l-664 -1517z" />
<glyph unicode="0" horiz-adv-x="1413" d="M96 717q0 105 27 210.5t80 200t125.5 167.5t170.5 116t208 43q98 0 185 -32.5t152.5 -88.5t118.5 -128.5t86 -155.5t50.5 -167.5t17.5 -164.5q0 -106 -27 -212t-80 -199.5t-125 -166t-170 -115.5t-208 -44q-116 2 -217 48t-172 120.5t-122 169.5t-75.5 197t-24.5 202z M283 717q3 -103 31 -202t78.5 -183t132.5 -135.5t182 -51.5q83 0 154.5 36.5t120 95.5t82.5 134.5t50 153t16 152.5q0 101 -29 201.5t-81 183.5t-134 134.5t-179 51.5q-103 0 -187 -55t-134 -141.5t-76.5 -183.5t-26.5 -191z" />
<glyph unicode="1" horiz-adv-x="903" d="M37 1227l377 243h184v-1470h-184v1280l-287 -186z" />
<glyph unicode="2" horiz-adv-x="1208" d="M94 0q0 187 45.5 316t127 208t216.5 146q29 14 79 36.5t83 38t76 38.5t70 47t53 55.5t38.5 71.5t12.5 87q0 114 -72.5 187.5t-208.5 73.5q-129 0 -228.5 -59.5t-164.5 -137.5l-117 117q19 23 43 47.5t74.5 63t106.5 67t137.5 49.5t167.5 21q111 0 200.5 -33.5t146 -92 t86.5 -134.5t30 -164q0 -56 -13.5 -106t-32.5 -88t-54.5 -74.5t-65.5 -61t-79 -53t-82 -45t-87 -41.5q-207 -97 -282.5 -186t-75.5 -230h774v-164h-1004z" />
<glyph unicode="3" horiz-adv-x="1198" d="M94 303l103 109q10 -99 114.5 -180.5t261.5 -81.5q144 0 240 70t96 183q0 125 -120.5 195t-331.5 70h-70v153h70q194 0 303.5 61.5t109.5 180.5q0 113 -88 181.5t-211 68.5q-125 0 -218 -56t-132 -139l-121 125q60 105 190 167.5t279 62.5q211 0 351.5 -115.5 t140.5 -286.5q0 -123 -73.5 -204.5t-209.5 -114.5q143 -26 230.5 -129.5t87.5 -241.5q0 -92 -43 -169t-115.5 -126.5t-166 -76.5t-196.5 -27q-189 0 -319.5 87.5t-161.5 233.5z" />
<glyph unicode="4" horiz-adv-x="1181" d="M55 371v161l740 922h125v-919h180v-164h-180v-371h-181v371h-684zM244 535h514v643z" />
<glyph unicode="5" horiz-adv-x="1142" d="M78 252l112 98q57 -96 153.5 -152.5t205.5 -56.5q141 0 234.5 90t93.5 230q0 135 -90.5 223t-223.5 88q-87 0 -164.5 -39.5t-124.5 -109.5h-163l163 831h707v-166h-573l-89 -463q92 103 267 103q203 0 339 -130.5t136 -332.5q0 -142 -68 -253t-185 -171.5t-261 -60.5 q-154 0 -279 73t-190 199z" />
<glyph unicode="6" horiz-adv-x="1241" d="M104 606q0 420 146 639t399 219q141 0 256.5 -68t181.5 -190l-110 -108q-44 95 -133.5 152t-196.5 57q-169 0 -269.5 -151t-103.5 -419q44 106 146 170t229 64q138 0 253.5 -65t182 -177.5t66.5 -247.5q0 -138 -68.5 -253t-188 -181.5t-263.5 -66.5q-238 0 -382.5 168 t-144.5 458zM287 481q0 -141 102.5 -243.5t243.5 -102.5t243.5 102t102.5 244q0 141 -102.5 242.5t-243.5 101.5q-142 0 -244 -101.5t-102 -242.5z" />
<glyph unicode="7" horiz-adv-x="1093" d="M84 1288v166h1014l-733 -1454h-203l649 1288h-727z" />
<glyph unicode="8" horiz-adv-x="1224" d="M100 420q0 125 81 220t192 138q-96 41 -159.5 119.5t-63.5 175.5q0 89 41.5 163t108.5 120.5t148 72t164 25.5q84 0 165.5 -25t149 -71.5t109 -120t41.5 -162.5q0 -97 -64.5 -177t-162.5 -120q118 -46 196 -142.5t78 -223.5q0 -126 -71 -225t-188 -151t-257 -52 q-217 0 -362.5 125.5t-145.5 310.5zM285 422q0 -82 50 -147t124 -97.5t155 -32.5q127 0 227.5 79.5t100.5 199.5q0 84 -50.5 149t-125.5 97t-156 32q-83 0 -156.5 -34t-121 -99t-47.5 -147zM332 1067q0 -102 87 -163.5t193 -61.5t193.5 63t87.5 166q0 99 -84 160t-199 61 q-114 0 -196 -62t-82 -163z" />
<glyph unicode="9" horiz-adv-x="1241" d="M90 963q0 138 68.5 253.5t188 181.5t263.5 66q238 0 382.5 -167t144.5 -457q0 -420 -146 -640t-399 -220q-141 0 -256.5 68.5t-181.5 191.5l110 108q44 -95 133.5 -152t196.5 -57q169 0 270.5 150.5t102.5 417.5q-44 -106 -146 -170t-229 -64q-210 0 -356 143t-146 347z M264 965q0 -141 102.5 -242.5t243.5 -101.5t243.5 101.5t102.5 240.5q0 141 -103.5 244.5t-244.5 103.5t-242.5 -102.5t-101.5 -243.5z" />
<glyph unicode=":" horiz-adv-x="411" d="M92 106q0 53 36.5 90t88.5 37q51 0 88 -37.5t37 -89.5q0 -51 -37 -87.5t-88 -36.5q-52 0 -88.5 36.5t-36.5 87.5zM92 942q0 53 36.5 90t88.5 37q51 0 88 -37.5t37 -89.5q0 -51 -37 -88t-88 -37q-52 0 -88.5 37t-36.5 88z" />
<glyph unicode=";" horiz-adv-x="452" d="M-4 -287h143l187 482h-193zM109 936q0 53 36 90t88 37q51 0 88 -37.5t37 -89.5q0 -51 -37 -88t-88 -37q-52 0 -88 37t-36 88z" />
<glyph unicode="&#x3c;" horiz-adv-x="1044" d="M68 479v94l860 519v-193l-598 -369l598 -362v-201z" />
<glyph unicode="=" horiz-adv-x="899" d="M137 367v122h625v-122h-625zM137 641v123h625v-123h-625z" />
<glyph unicode="&#x3e;" horiz-adv-x="1044" d="M117 -33v201l598 362l-598 369v193l860 -519v-94z" />
<glyph unicode="?" horiz-adv-x="980" d="M70 1208q54 123 172 194t256 71q78 0 149.5 -24.5t130 -71.5t93 -124t34.5 -174q0 -60 -14.5 -110t-35.5 -84t-59 -66.5t-68.5 -52t-80.5 -47.5q-31 -17 -43.5 -24t-39.5 -25t-39 -30.5t-30.5 -35.5t-27 -46t-15 -55.5t-6.5 -70.5h-151q0 114 40.5 196t131.5 140 q14 9 54 32t63.5 37.5t58 43t54 55.5t34 66.5t14.5 84.5q0 110 -74 173t-177 63q-98 0 -179 -56t-125 -139zM254 113q0 50 36 86.5t85 36.5t85 -36.5t36 -86.5q0 -49 -36 -85t-85 -36t-85 36t-36 85z" />
<glyph unicode="@" horiz-adv-x="1720" d="M94 471q0 137 41 259t113.5 213t168 157.5t209 100.5t232.5 34q151 0 287.5 -55.5t239.5 -155t164 -247.5t61 -322q0 -32 -2 -64.5t-9.5 -83t-19.5 -94.5t-35.5 -90.5t-54.5 -79.5t-78.5 -54.5t-105.5 -21.5q-50 0 -85 15t-53.5 43t-27.5 57t-13 68 q-62 -65 -153.5 -105.5t-194.5 -40.5q-146 0 -228.5 78t-82.5 201q0 62 22.5 111.5t59.5 81.5t87.5 53t103.5 29.5t110 8.5q126 0 252 -47q0 72 -11.5 124.5t-38.5 95t-76.5 64t-121.5 21.5q-158 0 -283 -94l-41 100q156 105 340 105q66 0 119.5 -13.5t89 -35.5t62 -56.5 t40.5 -69t22.5 -80t11 -83t2.5 -84.5v-244q0 -52 3 -85.5t13.5 -65.5t32 -47t55.5 -15q47 0 84 29t58.5 72t36 99.5t19.5 106t5 95.5q0 193 -86.5 352t-240.5 250.5t-343 91.5q-187 0 -341 -87.5t-243.5 -244t-89.5 -350.5q0 -113 31.5 -217.5t91 -189.5t139.5 -148.5 t182.5 -98t215.5 -34.5q149 0 315 78l29 -78q-165 -82 -346 -82q-151 0 -288 58t-237.5 158.5t-159.5 244.5t-59 309zM584 291q0 -78 55.5 -129t146.5 -51q97 0 189 45q73 34 99 82.5t26 111.5v76q-7 1 -49 13.5t-95 22t-108 9.5q-116 0 -190 -43t-74 -137z" />
<glyph unicode="A" horiz-adv-x="1386" d="M20 0l596 1454h156l594 -1454h-197l-172 426h-610l-170 -426h-197zM424 569h532l-262 672z" />
<glyph unicode="B" horiz-adv-x="1374" d="M174 0v1454h723q98 0 176 -55.5t117 -139t39 -176.5q0 -110 -55.5 -202.5t-153.5 -135.5q125 -37 197.5 -136t72.5 -234q0 -165 -123.5 -270t-302.5 -105h-690zM358 160h506q100 0 170 74t70 174q0 102 -65 176.5t-160 74.5h-521v-499zM358 809h463q96 0 161 70.5 t65 171.5q0 103 -60.5 173t-152.5 70h-476v-485z" />
<glyph unicode="C" horiz-adv-x="1396" d="M80 737q0 106 29.5 210.5t88.5 197t140.5 163.5t194 112.5t239.5 41.5q188 0 329.5 -86.5t211.5 -230.5l-146 -94q-31 66 -78 115.5t-101.5 76.5t-110 40t-113.5 13q-117 0 -214 -50t-157.5 -131.5t-93.5 -181t-33 -204.5q0 -151 65 -282.5t181.5 -212t257.5 -80.5 q80 0 156.5 25.5t148 85t111.5 145.5l153 -84q-44 -104 -139.5 -182.5t-209 -117t-228.5 -38.5q-145 0 -274 65t-217 171t-139.5 240.5t-51.5 272.5z" />
<glyph unicode="D" horiz-adv-x="1466" d="M174 0v1454h504q171 0 306 -56.5t220.5 -156t130.5 -230t45 -282.5q0 -331 -191 -530t-511 -199h-504zM358 164h320q164 0 282 74.5t176 201t58 289.5q0 252 -137 406.5t-379 154.5h-320v-1126z" />
<glyph unicode="E" horiz-adv-x="1239" d="M174 0v1454h969v-164h-785v-471h682v-153h-682v-502h803v-164h-987z" />
<glyph unicode="F" horiz-adv-x="1193" d="M174 0v1454h961v-164h-777v-485h654v-154h-654v-651h-184z" />
<glyph unicode="G" horiz-adv-x="1556" d="M59 735q0 145 56 278.5t153 233t236.5 158.5t296.5 59q213 0 367 -88.5t241 -236.5l-160 -95q-66 120 -188.5 185t-269.5 65q-116 0 -218 -48.5t-171.5 -128t-109.5 -181.5t-40 -209q0 -147 76 -278t206 -210t279 -79q92 0 182.5 28.5t163 78.5t117.5 125.5t45 162.5 h-391v168h596q0 -159 -43 -286t-113 -209t-166.5 -136.5t-197 -77t-209.5 -22.5q-153 0 -291.5 62.5t-235.5 165.5t-154 238.5t-57 276.5z" />
<glyph unicode="H" horiz-adv-x="1517" d="M174 0v1454h184v-629h801v629h184v-1454h-184v662h-801v-662h-184z" />
<glyph unicode="I" horiz-adv-x="532" d="M174 0v1454h184v-1454h-184z" />
<glyph unicode="J" horiz-adv-x="993" d="M-16 281l166 77q30 -90 100.5 -145t165.5 -55q130 0 216.5 79.5t86.5 241.5v975h184v-985v-17q0 -109 -37 -198q-39 -95 -108.5 -153t-157 -88.5t-184.5 -30.5q-142 0 -262 84t-170 215z" />
<glyph unicode="K" horiz-adv-x="1335" d="M174 0v1452h184v-803l750 805h199l-584 -641l616 -813h-200l-529 707l-252 -263v-444h-184z" />
<glyph unicode="L" horiz-adv-x="1196" d="M174 0v1454h184v-1290h811v-164h-995z" />
<glyph unicode="M" horiz-adv-x="1789" d="M174 0v1454h195l526 -944l528 944h193v-1454h-184v1124l-484 -862h-104l-486 862v-1124h-184z" />
<glyph unicode="N" horiz-adv-x="1576" d="M174 0v1454h143l902 -1132v1130h184v-1452h-156l-889 1110v-1110h-184z" />
<glyph unicode="O" horiz-adv-x="1531" d="M80 727q0 192 89 361t248.5 272.5t350.5 103.5q119 0 227 -41.5t189.5 -113.5t142 -166t92 -201.5t31.5 -216.5q0 -193 -88.5 -361t-247.5 -271t-350 -103q-148 0 -278 62.5t-217.5 166t-138 236t-50.5 272.5zM266 727q0 -111 36.5 -214.5t100.5 -182.5t158.5 -126.5 t204.5 -47.5q112 0 207.5 49.5t158 130.5t97.5 183t35 208q0 149 -62 278.5t-177.5 210t-258.5 80.5q-112 0 -208 -49t-158.5 -129.5t-98 -182t-35.5 -208.5z" />
<glyph unicode="P" horiz-adv-x="1275" d="M174 0v1454h606q123 0 226 -68.5t159 -175t56 -221.5q0 -121 -52.5 -227t-152 -173t-223.5 -67h-435v-522h-184zM358 686h424q112 0 182 88t70 215t-78.5 214t-185.5 87h-412v-604z" />
<glyph unicode="Q" horiz-adv-x="1527" d="M80 727q0 192 89 361t248.5 272.5t350.5 103.5q119 0 227 -41.5t189.5 -113.5t142 -166t92 -201.5t31.5 -216.5q0 -145 -52 -278.5t-145 -235.5l162 -191l-112 -73l-150 172q-176 -129 -389 -129q-148 1 -278 63.5t-217.5 165.5t-138 235.5t-50.5 272.5zM266 727 q0 -111 36.5 -214.5t100.5 -182.5t158.5 -126.5t204.5 -47.5q153 0 276 92l-147 178l115 72l129 -152q125 166 125 381q0 149 -62 279t-177.5 211t-258.5 81q-112 0 -208 -49.5t-158.5 -130t-98 -182.5t-35.5 -209z" />
<glyph unicode="R" horiz-adv-x="1345" d="M174 0v1454h623q93 0 176.5 -40.5t140 -106t90 -149t33.5 -169.5q0 -154 -84.5 -275.5t-220.5 -156.5l352 -557h-209l-332 522h-385v-522h-184zM358 686h441q111 0 181.5 89.5t70.5 213.5q0 122 -79.5 211.5t-185.5 89.5h-428v-604z" />
<glyph unicode="S" horiz-adv-x="1247" d="M59 190l88 156q73 -77 213 -135.5t295 -58.5q157 0 242.5 56.5t85.5 164.5q0 35 -10 64t-25.5 51.5t-45.5 42.5t-60 34.5t-78.5 30.5t-91.5 27.5t-109 27.5q-95 23 -161 45.5t-123.5 54t-91.5 70t-53 91.5t-19 122q0 136 68 234.5t185 147t269 48.5q273 0 477 -166 l-86 -149q-55 62 -163.5 106.5t-231.5 44.5q-165 0 -246.5 -62t-81.5 -175q0 -39 9.5 -69t32.5 -54t50.5 -41.5t75.5 -34t95 -28.5t120 -29q98 -22 168 -44.5t135 -56t104 -75.5t62 -102.5t23 -137.5q0 -136 -71 -229t-187.5 -134.5t-270.5 -41.5q-340 0 -592 204z" />
<glyph unicode="T" horiz-adv-x="1257" d="M35 1290v164h1188v-164h-502v-1290h-184v1290h-502z" />
<glyph unicode="U" horiz-adv-x="1546" d="M154 719v735h184v-735q0 -90 13 -169t44.5 -152.5t80 -126t124.5 -84t172 -31.5q71 0 130.5 16.5t104 46t79 71.5t57.5 90t37.5 105.5t21 114.5t6.5 119v735h185v-735q0 -121 -21 -227t-68.5 -199t-118.5 -159.5t-176 -105t-235 -38.5q-135 0 -242 40.5t-176.5 108.5 t-116 162.5t-66 198t-19.5 219.5z" />
<glyph unicode="V" horiz-adv-x="1392" d="M20 1454h195l481 -1223l480 1223h194l-594 -1454h-160z" />
<glyph unicode="W" horiz-adv-x="2205" d="M37 1454h207l366 -1182l385 1182h201l399 -1182l365 1182h209l-461 -1454h-192l-418 1174l-408 -1174h-192z" />
<glyph unicode="X" horiz-adv-x="1304" d="M6 1454h205l442 -606l443 606h202l-546 -737l530 -717h-203l-426 586l-426 -586h-204l530 717z" />
<glyph unicode="Y" horiz-adv-x="1341" d="M27 1454h202l441 -758l444 758h201l-553 -924v-530h-184v535z" />
<glyph unicode="Z" horiz-adv-x="1292" d="M66 0v143l938 1147h-920v164h1135v-143l-922 -1147h922v-164h-1153z" />
<glyph unicode="[" horiz-adv-x="552" d="M172 -82v1598h287v-148h-119v-1302h119v-148h-287z" />
<glyph unicode="\" horiz-adv-x="860" d="M23 1460l163 56l656 -1516l-156 -57z" />
<glyph unicode="]" horiz-adv-x="552" d="M94 66h119v1302h-119v148h287v-1598h-287v148z" />
<glyph unicode="^" horiz-adv-x="1132" d="M86 621l406 833h151l404 -833h-154l-326 671l-331 -671h-150z" />
<glyph unicode="_" horiz-adv-x="1030" d="M129 0h772v-164h-772v164z" />
<glyph unicode="`" horiz-adv-x="475" d="M27 1538h217l182 -317h-102z" />
<glyph unicode="a" horiz-adv-x="1124" d="M61 313q0 81 39 146t104 104t144 59.5t164 20.5q182 0 299 -53v86q0 129 -75.5 204.5t-207.5 75.5q-162 0 -340 -125l-59 117q209 139 416 139q213 0 329.5 -116.5t116.5 -313.5v-657h-174v162q-67 -91 -171 -136.5t-226 -45.5q-152 0 -255.5 96t-103.5 237zM233 328 q0 -93 69 -153t165 -60q90 0 175 33.5t130 97.5q39 42 39 80v157q-131 52 -272 52q-76 0 -143 -20t-115 -69t-48 -118z" />
<glyph unicode="b" horiz-adv-x="1275" d="M145 0v1495h181v-639q150 231 395 231q141 0 252.5 -80t169 -206t57.5 -271q0 -149 -66 -275t-182.5 -200.5t-257.5 -74.5q-122 0 -225.5 60.5t-163.5 160.5v-201h-160zM326 373q19 -97 120.5 -167.5t202.5 -70.5q157 0 262 118.5t105 276.5q0 105 -43.5 196.5 t-125 148.5t-181.5 57q-110 0 -199.5 -71t-140.5 -179v-309z" />
<glyph unicode="c" horiz-adv-x="1134" d="M74 537q0 151 66.5 275.5t191.5 199.5t284 75q156 0 273.5 -69.5t177.5 -190.5l-176 -55q-41 75 -115.5 117.5t-163.5 42.5q-150 0 -252 -113t-102 -282q0 -168 104.5 -285t251.5 -117q93 0 176.5 49t108.5 117l176 -53q-48 -119 -173 -193.5t-284 -74.5 q-157 0 -282.5 76.5t-193.5 203.5t-68 277z" />
<glyph unicode="d" horiz-adv-x="1277" d="M76 532q0 150 62 277t173.5 202.5t247.5 75.5q124 0 224.5 -63.5t168.5 -167.5v639h181v-1495h-181v188q-59 -97 -155.5 -152.5t-210.5 -55.5q-145 0 -263 76.5t-182.5 202.5t-64.5 273zM262 530q0 -163 106.5 -279t260.5 -116q103 0 204.5 72t118.5 168v307 q-36 105 -137 177.5t-205 72.5q-101 0 -182 -58.5t-123.5 -150t-42.5 -193.5z" />
<glyph unicode="e" d="M74 535q0 112 40.5 213t111.5 176t174 119t221 44t219.5 -44.5t169.5 -119.5t106.5 -174t38.5 -206q0 -46 -4 -70h-887q12 -156 116 -257t245 -101q99 0 185.5 49.5t119.5 128.5l155 -43q-53 -120 -180.5 -195t-286.5 -75q-157 0 -282.5 76t-193.5 202.5t-68 276.5z M260 606h725q-13 152 -116.5 249t-247.5 97t-247.5 -97.5t-113.5 -248.5z" />
<glyph unicode="f" horiz-adv-x="702" d="M57 928v141h146v23q0 196 88 310t239 114q130 0 236 -66l-45 -133q-65 45 -154 45t-136.5 -68t-47.5 -196v-29h285v-141h-285v-928h-180v928h-146z" />
<glyph unicode="g" horiz-adv-x="1277" d="M78 532q0 150 62 276.5t176 202.5t257 76q244 0 400 -231v213h160v-1057q0 -147 -73.5 -255t-195.5 -161t-276 -53q-174 0 -290.5 60.5t-195.5 175.5l105 92q62 -92 162.5 -140t218.5 -48q101 0 182 35t131.5 111t50.5 183v189q-60 -98 -163.5 -155.5t-217.5 -57.5 q-106 0 -199 45t-157 120t-100.5 174t-36.5 205zM260 528q0 -161 107 -277t260 -116q111 0 207 73.5t118 166.5v307q-43 109 -139.5 179.5t-202.5 70.5q-104 0 -186 -60t-123 -151.5t-41 -192.5z" />
<glyph unicode="h" horiz-adv-x="1208" d="M145 0v1495h181v-655q63 115 172 181t237 66q338 0 338 -448v-639h-180v598q0 163 -57.5 245.5t-167.5 82.5q-107 0 -207 -80.5t-135 -200.5v-645h-181z" />
<glyph unicode="i" horiz-adv-x="471" d="M119 1380q0 47 35 83t82 36t81.5 -35.5t34.5 -83.5q0 -47 -34.5 -82.5t-81.5 -35.5t-82 35.5t-35 82.5zM145 0v1069h181v-1069h-181z" />
<glyph unicode="j" horiz-adv-x="471" d="M119 1380q0 47 35 83t82 36t81.5 -35.5t34.5 -83.5q0 -47 -34.5 -82.5t-81.5 -35.5t-82 35.5t-35 82.5zM145 -436v1505h181v-1505h-181z" />
<glyph unicode="k" horiz-adv-x="1103" d="M145 0v1495h181v-983l548 555h199l-426 -442l447 -625h-195l-369 522l-204 -192v-330h-181z" />
<glyph unicode="l" horiz-adv-x="491" d="M156 0v1495h180v-1495h-180z" />
<glyph unicode="m" horiz-adv-x="1892" d="M145 0v1069h164v-229q65 119 170.5 183t235.5 64t211 -71t100 -189q144 260 408 260q323 0 323 -448v-639h-180v598q0 328 -215 328q-108 0 -196.5 -78.5t-125.5 -204.5v-643h-180v598q0 168 -53 248t-160 80t-195.5 -77.5t-125.5 -203.5v-645h-181z" />
<glyph unicode="n" horiz-adv-x="1208" d="M145 0v1069h164v-229q63 113 183.5 180t261.5 67q90 0 154 -33t99 -95.5t50.5 -140t15.5 -179.5v-639h-180v598q0 169 -52 248.5t-159 79.5q-112 0 -216 -80.5t-140 -200.5v-645h-181z" />
<glyph unicode="o" horiz-adv-x="1226" d="M74 532q0 149 67.5 275.5t192 203t278.5 76.5q155 0 280 -76.5t193 -203t68 -275.5q0 -111 -39.5 -211.5t-109.5 -176t-172 -120t-220 -44.5q-157 0 -281 76t-190.5 201.5t-66.5 274.5zM258 530q0 -167 103 -281t251 -114t252.5 116.5t104.5 283.5q0 165 -104.5 281 t-252.5 116q-146 0 -250 -117.5t-104 -284.5z" />
<glyph unicode="p" horiz-adv-x="1275" d="M145 -436v1505h160v-201q64 100 167 159.5t222 59.5q142 0 259.5 -77.5t182 -203.5t64.5 -271q0 -152 -60 -278.5t-170.5 -201.5t-248.5 -75q-127 0 -229.5 63t-165.5 168v-647h-181zM326 387q45 -108 139.5 -180t200.5 -72q102 0 183.5 58t124 149t42.5 193 q0 163 -106.5 280t-260.5 117q-100 0 -201.5 -72.5t-121.5 -167.5v-305z" />
<glyph unicode="q" horiz-adv-x="1275" d="M76 535q0 149 66.5 275.5t183 201.5t256.5 75q121 0 224 -60.5t165 -160.5v203h159v-1505h-180v647q-146 -231 -395 -231q-138 0 -249 77.5t-170.5 203.5t-59.5 274zM260 530q0 -164 101 -279.5t255 -115.5q108 0 192.5 63.5t141.5 166.5v307q-12 68 -64 128.5t-123.5 96 t-141.5 35.5q-102 0 -186 -58.5t-129.5 -150t-45.5 -193.5z" />
<glyph unicode="r" horiz-adv-x="743" d="M145 0v1069h168v-248q56 111 146.5 180t191.5 76q46 0 60 -2v-164q-136 -3 -239.5 -69.5t-145.5 -182.5v-659h-181z" />
<glyph unicode="s" horiz-adv-x="1011" d="M51 135l78 121q190 -143 387 -143q117 0 185.5 47t68.5 129q0 32 -12.5 56t-33 41t-62 33t-82.5 27.5t-111 28.5q-84 21 -138 38t-101.5 39.5t-73 50t-40 65.5t-14.5 88q0 104 55.5 180.5t147.5 113.5t207 37q117 0 222 -38t179 -103l-82 -108q-133 118 -323 118 q-105 0 -170.5 -44t-65.5 -132q0 -70 51 -100.5t201 -67.5q117 -28 187.5 -51.5t127.5 -58.5t81 -82.5t24 -114.5q0 -149 -115 -237t-309 -88q-130 0 -255.5 40.5t-213.5 114.5z" />
<glyph unicode="t" horiz-adv-x="720" d="M51 928v141h146v356h180v-356h239v-141h-239v-664q3 -56 36.5 -84t84.5 -28q82 0 157 45l43 -144q-151 -67 -260 -67q-105 0 -173 56.5t-68 166.5v719h-146z" />
<glyph unicode="u" horiz-adv-x="1220" d="M135 428v641h180v-606q0 -73 11 -129t36.5 -102.5t73 -71.5t115.5 -25q110 0 205 74.5t139 189.5v670h180v-1069h-174v219q-60 -112 -173 -175.5t-241 -63.5q-352 0 -352 448z" />
<glyph unicode="v" horiz-adv-x="1101" d="M33 1069h186l338 -911l340 911h172l-422 -1069h-192z" />
<glyph unicode="w" horiz-adv-x="1724" d="M37 1069h168l309 -868l283 868h131l282 -868l310 868h166l-373 -1069h-193l-258 793l-260 -793h-190z" />
<glyph unicode="x" horiz-adv-x="1050" d="M25 0l401 532l-399 537h188l293 -393l16 -33l19 33l291 393h190l-399 -537l401 -532h-190l-293 391l-19 31l-16 -31l-293 -391h-190z" />
<glyph unicode="y" horiz-adv-x="1116" d="M25 1069h186l364 -907l332 907h172l-520 -1350q-31 -79 -100.5 -129.5t-177.5 -50.5q-40 0 -86 10v160q70 -8 94 -8q49 0 82 53.5t106 245.5z" />
<glyph unicode="z" horiz-adv-x="1009" d="M61 0v117l684 821h-665v131h858v-117l-680 -821h682v-131h-879z" />
<glyph unicode="{" horiz-adv-x="555" d="M96 674v131q39 0 62.5 39.5t23.5 77.5v532q0 33 15.5 47.5t31.5 14.5h230v-148h-113v-500q0 -77 -59 -131q29 -26 44 -63t15 -68v-522h113v-147h-230q-18 0 -32.5 14.5t-14.5 46.5v555q0 45 -24 80t-62 41z" />
<glyph unicode="|" horiz-adv-x="491" d="M168 -266v1853h156v-1853h-156z" />
<glyph unicode="}" horiz-adv-x="555" d="M96 -63v147h113v522q0 32 14.5 68.5t44.5 62.5q-59 54 -59 131v500h-113v148h230q15 0 31 -14.5t16 -47.5v-532q0 -38 23.5 -77.5t62.5 -39.5v-131q-39 -6 -62.5 -40.5t-23.5 -80.5v-555q0 -32 -15 -46.5t-32 -14.5h-230z" />
<glyph unicode="~" horiz-adv-x="1089" d="M133 485q0 12 7.5 36.5t26 58.5t44.5 63.5t69 50.5t93 21q44 0 91.5 -18.5t82.5 -40t80 -40t84 -18.5q30 0 55 10t40.5 24.5t26 30.5t15 27t4.5 15h106q0 -7 -7 -29t-26 -55t-45.5 -63t-72 -51.5t-98.5 -21.5q-47 0 -97 18t-85.5 39.5t-78.5 39.5t-77 18q-28 0 -52 -11.5 t-38 -27.5t-23.5 -33.5t-13.5 -29t-4 -13.5h-107z" />
<glyph unicode="&#xa1;" horiz-adv-x="532" d="M141 1333q0 53 37.5 91t89.5 38q51 0 89 -38.5t38 -90.5t-38 -89.5t-89 -37.5q-52 0 -89.5 37t-37.5 90zM178 -6v977h180v-977h-180z" />
<glyph unicode="&#xa2;" horiz-adv-x="1167" d="M86 528q0 139 56.5 259t167 201t255.5 97v236h90v-236q147 -4 255 -71t169 -187l-174 -55q-40 72 -105.5 110.5t-144.5 43.5v-787q79 7 158.5 52t99.5 110l177 -53q-25 -64 -76.5 -116.5t-113.5 -84.5t-125.5 -49.5t-119.5 -17.5v-226h-90v228q-136 11 -247.5 93 t-171.5 202.5t-60 250.5zM270 528q0 -138 83.5 -247t211.5 -134v773q-134 -17 -214.5 -132.5t-80.5 -259.5z" />
<glyph unicode="&#xa3;" horiz-adv-x="1048" d="M109 115q131 124 187 220.5t56 196.5q0 50 -12 97h-231v139h178q-12 24 -42 80.5t-44.5 87.5t-28.5 80t-14 94q0 147 113.5 250.5t273.5 103.5q115 0 218 -57.5t169 -157.5l-101 -110q-50 80 -129 128t-161 48q-92 0 -154.5 -63.5t-62.5 -155.5q0 -50 19 -100 t58.5 -121.5t55.5 -106.5h366v-139h-321q8 -58 8 -88q0 -100 -45.5 -191t-155.5 -209q79 21 152 21q57 0 149 -18.5t138 -18.5q70 0 174 37l45 -137q-112 -56 -228 -56q-61 0 -174.5 25.5t-177.5 25.5q-117 0 -233 -36z" />
<glyph unicode="&#xa4;" horiz-adv-x="1101" d="M98 322l148 147q-68 100 -68 221q0 127 66 221l-146 148l84 84l146 -148q94 72 223 72q125 0 223 -72l146 148l84 -84l-148 -148q68 -96 68 -221q0 -123 -70 -221l150 -147l-74 -74l-152 141q-97 -74 -227 -74q-129 0 -229 74l-150 -141zM326 688q0 -104 65.5 -176 t159.5 -72t159.5 73t65.5 179q0 105 -65.5 176.5t-159.5 71.5t-159.5 -72.5t-65.5 -179.5z" />
<glyph unicode="&#xa5;" horiz-adv-x="1406" d="M59 1454h201l440 -758l445 758h203l-418 -682h166v-123h-234l-69 -119v-57h305v-123h-305v-350h-185v350h-301v123h301v62l-65 114h-236v123h170z" />
<glyph unicode="&#xa6;" horiz-adv-x="495" d="M170 -266v825h156v-825h-156zM170 762v825h156v-825h-156z" />
<glyph unicode="&#xa7;" horiz-adv-x="1058" d="M96 1102q0 101 58.5 185.5t152.5 130.5t199 46q250 0 395 -213l-139 -65q-32 59 -99.5 88t-146.5 29q-96 0 -166.5 -55t-70.5 -144q0 -181 239 -184q79 -1 150.5 -19t133.5 -54.5t99 -101.5t37 -151q0 -56 -16 -105t-41 -77q88 -60 88 -213q0 -94 -40 -169.5 t-104.5 -119.5t-137 -67t-144.5 -23q-238 0 -418 194l117 111q136 -133 295 -133q97 0 171 55t74 146q0 39 -14.5 68.5t-35 46.5t-53.5 27.5t-61 14.5t-65 6q-188 11 -298 99t-110 243q0 102 50 168q-42 34 -70.5 96.5t-28.5 139.5zM322 676q0 -54 21 -91.5t53 -55 t76.5 -28.5t85 -14t85 -9.5t70.5 -16.5q24 20 38.5 55.5t14.5 73.5q0 50 -22.5 87t-60 56.5t-77.5 29t-82 9.5q-91 0 -157 27q-45 -45 -45 -123z" />
<glyph unicode="&#xa8;" horiz-adv-x="753" d="M31 1376q0 48 34.5 83.5t81.5 35.5t82 -36t35 -83t-35 -83t-82 -36t-81.5 35.5t-34.5 83.5zM492 1372q0 48 34.5 83.5t81.5 35.5t82 -36t35 -83t-35 -83t-82 -36t-81.5 35.5t-34.5 83.5z" />
<glyph unicode="&#xa9;" horiz-adv-x="1712" d="M96 727q0 208 98 377t271 264.5t387 95.5q130 0 247.5 -36t211 -102.5t162.5 -156.5t106 -203.5t37 -238.5q0 -157 -58 -294.5t-159 -235.5t-243 -154.5t-304 -56.5q-160 0 -300.5 56.5t-240.5 154.5t-157.5 235.5t-57.5 294.5zM178 725q0 -185 87 -336.5t242 -238.5 t345 -87t345 82.5t245 234t90 343.5q0 187 -88 339t-243.5 238t-348.5 86q-142 0 -267.5 -50.5t-214.5 -138t-140.5 -210.5t-51.5 -262zM379 727q0 72 18.5 140.5t57.5 130.5t94 108.5t135 74t174 27.5q144 0 253.5 -62t158.5 -175l-174 -56q-35 75 -101.5 106.5 t-136.5 31.5q-138 0 -216.5 -97.5t-78.5 -228.5q0 -98 47 -174.5t114 -113t138 -36.5q74 0 144.5 39.5t101.5 104.5l174 -53q-38 -94 -151.5 -170t-262.5 -76q-133 0 -244 59.5t-178 170t-67 249.5z" />
<glyph unicode="&#xaa;" horiz-adv-x="897" d="M94 932q0 101 85.5 165t219.5 64q116 0 197 -35v52q0 83 -47.5 129.5t-134.5 46.5q-107 0 -232 -84l-47 92q143 94 291 94q149 0 232 -77t83 -218v-446h-116l-7 123q-51 -64 -123.5 -98.5t-156.5 -34.5q-103 0 -173.5 65.5t-70.5 161.5zM231 944q0 -56 42.5 -93.5 t105.5 -37.5q58 0 110 21.5t80 56.5q27 24 27 53v98q-69 31 -172 31q-87 0 -140 -35.5t-53 -93.5z" />
<glyph unicode="&#xab;" horiz-adv-x="1220" d="M82 479v94l518 371v-151l-373 -263l373 -256v-151zM578 479v94l518 371v-151l-373 -263l373 -256v-151z" />
<glyph unicode="&#xac;" d="M137 604v164h930v-522h-156v358h-774z" />
<glyph unicode="&#xad;" horiz-adv-x="1191" d="M131 477v164h930v-164h-930z" />
<glyph unicode="&#xae;" horiz-adv-x="1712" d="M96 727q0 156 57.5 293t157.5 234.5t241 153.5t302 56t302.5 -56t242.5 -153.5t159 -234.5t58 -293q0 -157 -58 -294.5t-159 -235.5t-242.5 -154.5t-302.5 -56.5t-302 56.5t-241 154.5t-157.5 235.5t-57.5 294.5zM182 727q0 -140 50.5 -263t139 -211.5t214 -140 t268.5 -51.5q189 0 343 83t243.5 235.5t89.5 345.5q0 139 -51.5 261.5t-140.5 210t-215 138.5t-269 51t-268.5 -51t-214 -138.5t-139 -209.5t-50.5 -260zM537 266v920h393q117 0 197.5 -91.5t80.5 -203.5q0 -96 -54.5 -174t-141.5 -99l223 -352h-150l-208 332h-207v-332 h-133zM670 715h254q72 0 112.5 49t40.5 127q0 77 -45.5 125.5t-113.5 48.5h-248v-350z" />
<glyph unicode="&#xaf;" horiz-adv-x="825" d="M115 1339v119h598v-119h-598z" />
<glyph unicode="&#xb0;" horiz-adv-x="557" d="M96 1305q0 75 53 126.5t130 51.5q78 0 130 -51.5t52 -126.5q0 -81 -52 -134t-130 -53q-77 0 -130 54t-53 133zM193 1300q0 -35 24 -59q27 -27 62 -27q37 0 61 27q25 25 25 59q0 33 -25 62q-21 24 -61 24q-38 0 -62 -24q-24 -27 -24 -62z" />
<glyph unicode="&#xb1;" horiz-adv-x="954" d="M137 104v148h680v-148h-680zM137 680v147h258v279h164v-279h258v-147h-258v-279h-164v279h-258z" />
<glyph unicode="&#xb2;" horiz-adv-x="811" d="M70 819q0 157 60.5 243t199.5 142q16 6 54.5 20t57 21.5t50 22t48 27t34.5 30.5t26 39.5t8 46.5q0 62 -51.5 100.5t-146.5 38.5q-155 0 -258 -108l-74 80q12 17 38 38t68.5 45t106.5 40t135 16q149 0 229 -69t80 -183q0 -49 -20 -90t-45.5 -66t-70.5 -48.5t-72.5 -33 t-73.5 -24.5q-205 -67 -205 -217h473v-111h-651z" />
<glyph unicode="&#xb3;" horiz-adv-x="806" d="M66 983l65 78q7 -48 79.5 -93.5t176.5 -45.5q98 0 163.5 36.5t65.5 96.5q0 67 -81.5 103t-223.5 36h-47v104h47q131 0 204 32t73 95q0 59 -60.5 95t-144.5 36q-81 0 -142 -29.5t-94 -80.5l-75 88q39 59 125 93t186 34q140 0 233 -65.5t93 -163.5q0 -70 -48.5 -116 t-140.5 -65q95 -13 153 -72.5t58 -140.5q0 -72 -48.5 -125.5t-125 -79.5t-168.5 -26q-128 0 -215.5 47.5t-107.5 128.5z" />
<glyph unicode="&#xb4;" horiz-adv-x="475" d="M59 1221l183 317h217l-297 -317h-103z" />
<glyph unicode="&#xb5;" horiz-adv-x="1286" d="M160 -434v1503h180v-606q0 -328 231 -328q109 0 207 71.5t144 192.5v670h180v-1069h-156v229q-52 -103 -160 -176t-225 -73q-89 0 -147.5 43.5t-83.5 113.5v-571h-170z" />
<glyph unicode="&#xb6;" horiz-adv-x="1265" d="M72 952q0 237 152 369.5t425 132.5h527v-139h-144v-1479h-155v623h-138v-623h-155v623q-235 3 -373.5 135.5t-138.5 357.5zM225 956q0 -166 101 -257t258 -101v717q-171 -3 -265 -98.5t-94 -260.5zM739 598h138v717h-138v-717z" />
<glyph unicode="&#xb7;" horiz-adv-x="413" d="M80 627q0 54 36.5 91.5t90.5 37.5t91.5 -37.5t37.5 -91.5q0 -53 -37.5 -90t-91.5 -37t-90.5 37t-36.5 90z" />
<glyph unicode="&#xb8;" horiz-adv-x="606" d="M45 -334l41 76q76 -39 180 -39q117 0 117 72q0 71 -104 71q-73 0 -164 -26l118 223l80 -29l-71 -112q29 10 73 10q74 0 118 -33.5t44 -97.5q0 -72 -58 -113t-167 -41q-104 0 -207 39z" />
<glyph unicode="&#xb9;" horiz-adv-x="573" d="M70 1546l194 115h115v-842h-115v715l-133 -78z" />
<glyph unicode="&#xba;" horiz-adv-x="917" d="M86 1079q0 157 104.5 267t268.5 110t268 -110t104 -267q0 -154 -104 -264t-268 -110t-268.5 110t-104.5 264zM233 1077q0 -104 66 -176t160 -72t159.5 73t65.5 179q0 105 -65.5 176.5t-159.5 71.5t-160 -72.5t-66 -179.5z" />
<glyph unicode="&#xbb;" horiz-adv-x="1220" d="M125 123v151l373 256l-373 263v151l518 -371v-94zM621 123v151l372 256l-372 263v151l518 -371v-94z" />
<glyph unicode="&#xbc;" horiz-adv-x="1757" d="M90 1382l195 115h114v-842h-114v715l-133 -78zM301 68l573 690l549 706l88 -75l-567 -687l-557 -712zM989 205v108l498 518h78v-516h121v-110h-121v-205h-113v205h-463zM1106 315h350v369z" />
<glyph unicode="&#xbd;" horiz-adv-x="1826" d="M90 1382l195 115h114v-842h-114v715l-133 -78zM225 68l574 690l549 706l88 -75l-568 -687l-557 -712zM1100 0q0 158 58.5 244t193.5 141q17 7 52 20t54.5 21t48.5 21.5t45.5 26.5t33.5 30.5t24.5 39t7.5 46.5q0 63 -50 102t-141 39q-148 0 -249 -110l-70 81 q13 17 37.5 38t65.5 45.5t102.5 40.5t130.5 16q144 0 220.5 -69t76.5 -185q0 -36 -10 -67t-24 -53.5t-40 -43.5t-45 -33t-52.5 -26.5t-50 -20l-49.5 -16.5q-196 -66 -196 -217h469v-111h-643z" />
<glyph unicode="&#xbe;" horiz-adv-x="1773" d="M82 819l65 78q7 -48 79.5 -93.5t176.5 -45.5q98 0 164 36.5t66 96.5q0 67 -81.5 103t-223.5 36h-47v105h47q131 0 203.5 32t72.5 95q0 59 -60.5 95t-144.5 36q-81 0 -141.5 -30t-93.5 -81l-76 88q39 59 125 93t186 34q140 0 233 -65.5t93 -163.5q0 -70 -48.5 -116 t-139.5 -65q95 -13 153 -72.5t58 -140.5q0 -72 -48.5 -125.5t-125 -79.5t-168.5 -26q-128 0 -216 47.5t-108 128.5zM365 68l573 690l549 706l88 -75l-567 -687l-557 -712zM1004 205v108l497 518h78v-516h121v-110h-121v-205h-113v205h-462zM1120 315h350v369z" />
<glyph unicode="&#xbf;" horiz-adv-x="968" d="M68 -43q0 60 14.5 110t35.5 84t59 66.5t68.5 52t80.5 47.5q31 17 43.5 24t39 25t39 31t30.5 35.5t26.5 45.5t15 55.5t6.5 70.5h152q0 -114 -40.5 -196t-131.5 -140q-14 -9 -54 -32t-63.5 -38t-58 -43t-54 -55t-34.5 -66.5t-15 -84.5q0 -110 74.5 -173t177.5 -63 q98 0 178.5 55.5t124.5 139.5l121 -80q-54 -123 -172 -193.5t-256 -70.5q-78 0 -149.5 24.5t-130 71t-93 123.5t-34.5 174zM477 915q0 50 36 86.5t85 36.5t85 -36.5t36 -86.5q0 -49 -35.5 -84.5t-85.5 -35.5t-85.5 35.5t-35.5 84.5z" />
<glyph unicode="&#xc0;" horiz-adv-x="1386" d="M20 0l596 1454h156l594 -1454h-197l-172 426h-610l-170 -426h-197zM330 1923h217l182 -317h-102zM424 569h532l-262 672z" />
<glyph unicode="&#xc1;" horiz-adv-x="1386" d="M20 0l596 1454h156l594 -1454h-197l-172 426h-610l-170 -426h-197zM424 569h532l-262 672zM653 1606l183 317h217l-297 -317h-103z" />
<glyph unicode="&#xc2;" horiz-adv-x="1386" d="M20 0l596 1454h156l594 -1454h-197l-172 426h-610l-170 -426h-197zM319 1606l297 317h156l297 -317h-217l-158 233l-157 -233h-218zM424 569h532l-262 672z" />
<glyph unicode="&#xc3;" horiz-adv-x="1386" d="M20 0l596 1454h156l594 -1454h-197l-172 426h-610l-170 -426h-197zM350 1657q0 18 9.5 48.5t30.5 69t64 66t99 27.5q49 0 94 -22t87 -44t83 -22q29 0 51.5 10t34 23t18.5 28.5t9 24.5t2 14h106q0 -12 -5.5 -34t-21 -53.5t-38.5 -58.5t-63 -46t-89 -19q-52 0 -99.5 21.5 t-88 43t-76.5 21.5q-31 0 -53 -13.5t-31 -33t-12.5 -32t-3.5 -19.5h-107zM424 569h532l-262 672z" />
<glyph unicode="&#xc4;" horiz-adv-x="1386" d="M20 0l596 1454h156l594 -1454h-197l-172 426h-610l-170 -426h-197zM346 1761q0 47 35 83t82 36t82 -36t35 -83t-35 -83t-82 -36t-82 36t-35 83zM424 569h532l-262 672zM807 1757q0 47 35 83t82 36t81.5 -35.5t34.5 -83.5t-34.5 -83.5t-81.5 -35.5t-82 36t-35 83z" />
<glyph unicode="&#xc5;" horiz-adv-x="1386" d="M20 0l596 1454h156l594 -1454h-197l-172 426h-610l-170 -426h-197zM424 569h532l-262 672zM500 1765q0 72 52 116t134 44q85 0 136.5 -44t51.5 -116q0 -73 -51.5 -116t-136.5 -43q-83 0 -134.5 43t-51.5 116zM594 1765q0 -37 27 -62.5t65 -25.5t67 25.5t29 62.5 q0 39 -27 63.5t-69 24.5q-38 0 -65 -24.5t-27 -63.5z" />
<glyph unicode="&#xc6;" horiz-adv-x="1968" d="M-51 0l928 1454h999v-164h-768v-467h657v-164h-657v-495h786v-164h-968v426h-510l-266 -426h-201zM498 590h415v649z" />
<glyph unicode="&#xc7;" horiz-adv-x="1396" d="M80 737q0 106 29.5 210.5t88.5 197t140.5 163.5t194 112.5t239.5 41.5q188 0 329.5 -86.5t211.5 -230.5l-146 -94q-31 66 -78 115.5t-101.5 76.5t-110 40t-113.5 13q-117 0 -214 -50t-157.5 -131.5t-93.5 -181t-33 -204.5q0 -151 65 -282.5t181.5 -212t257.5 -80.5 q80 0 156.5 25.5t148 85t111.5 145.5l153 -84q-44 -104 -139.5 -182.5t-209 -117t-228.5 -38.5q-145 0 -274 65t-217 171t-139.5 240.5t-51.5 272.5zM481 -334l41 76q76 -39 180 -39q117 0 117 72q0 71 -104 71q-73 0 -164 -26l119 223l80 -29l-72 -112q29 10 74 10 q74 0 117.5 -33.5t43.5 -97.5q0 -72 -58 -113t-167 -41q-104 0 -207 39z" />
<glyph unicode="&#xc8;" horiz-adv-x="1239" d="M174 0v1454h969v-164h-785v-471h682v-153h-682v-502h803v-164h-987zM303 1923h217l182 -317h-102z" />
<glyph unicode="&#xc9;" horiz-adv-x="1239" d="M174 0v1454h969v-164h-785v-471h682v-153h-682v-502h803v-164h-987zM627 1606l182 317h217l-297 -317h-102z" />
<glyph unicode="&#xca;" horiz-adv-x="1239" d="M174 0v1454h969v-164h-785v-471h682v-153h-682v-502h803v-164h-987zM293 1606l297 317h155l297 -317h-217l-157 233l-158 -233h-217z" />
<glyph unicode="&#xcb;" horiz-adv-x="1239" d="M174 0v1454h969v-164h-785v-471h682v-153h-682v-502h803v-164h-987zM319 1761q0 47 35 83t82 36t82 -36t35 -83t-35 -83t-82 -36t-82 36t-35 83zM780 1757q0 47 35 83t82 36t82 -36t35 -83t-35 -83t-82 -36t-82 36t-35 83z" />
<glyph unicode="&#xcc;" horiz-adv-x="532" d="M-98 1923h217l182 -317h-102zM174 0v1454h184v-1454h-184z" />
<glyph unicode="&#xcd;" horiz-adv-x="532" d="M174 0v1454h184v-1454h-184zM225 1606l183 317h217l-297 -317h-103z" />
<glyph unicode="&#xce;" horiz-adv-x="532" d="M-109 1606l297 317h156l297 -317h-217l-158 233l-157 -233h-218zM174 0v1454h184v-1454h-184z" />
<glyph unicode="&#xcf;" horiz-adv-x="532" d="M-82 1761q0 47 35 83t82 36t82 -36t35 -83t-35 -83t-82 -36t-82 36t-35 83zM174 0v1454h184v-1454h-184zM379 1757q0 47 35 83t82 36t81.5 -35.5t34.5 -83.5t-34.5 -83.5t-81.5 -35.5t-82 36t-35 83z" />
<glyph unicode="&#xd0;" horiz-adv-x="1478" d="M70 662v139h116v653h504q137 0 252 -37t197.5 -103t140 -156.5t85.5 -199t28 -229.5q0 -331 -191.5 -530t-511.5 -199h-504v662h-116zM371 164h319q164 0 282 74.5t176 201t58 289.5q0 252 -137 406.5t-379 154.5h-319v-489h329v-139h-329v-498z" />
<glyph unicode="&#xd1;" horiz-adv-x="1576" d="M174 0v1454h143l902 -1132v1130h184v-1452h-156l-889 1110v-1110h-184zM428 1657q0 18 9.5 48.5t30.5 69t64 66t99 27.5q49 0 94 -22t87 -44t83 -22q29 0 51.5 10t34 23t18.5 28.5t9 24.5t2 14h106q0 -12 -5.5 -34t-21 -53.5t-38.5 -58.5t-63 -46t-89 -19 q-52 0 -99.5 21.5t-88 43t-76.5 21.5q-31 0 -53 -13.5t-31 -33t-12.5 -32t-3.5 -19.5h-107z" />
<glyph unicode="&#xd2;" horiz-adv-x="1531" d="M80 727q0 192 89 361t248.5 272.5t350.5 103.5q119 0 227 -41.5t189.5 -113.5t142 -166t92 -201.5t31.5 -216.5q0 -193 -88.5 -361t-247.5 -271t-350 -103q-148 0 -278 62.5t-217.5 166t-138 236t-50.5 272.5zM266 727q0 -111 36.5 -214.5t100.5 -182.5t158.5 -126.5 t204.5 -47.5q112 0 207.5 49.5t158 130.5t97.5 183t35 208q0 149 -62 278.5t-177.5 210t-258.5 80.5q-112 0 -208 -49t-158.5 -129.5t-98 -182t-35.5 -208.5zM401 1923h217l183 -317h-103z" />
<glyph unicode="&#xd3;" horiz-adv-x="1531" d="M80 727q0 192 89 361t248.5 272.5t350.5 103.5q119 0 227 -41.5t189.5 -113.5t142 -166t92 -201.5t31.5 -216.5q0 -193 -88.5 -361t-247.5 -271t-350 -103q-148 0 -278 62.5t-217.5 166t-138 236t-50.5 272.5zM266 727q0 -111 36.5 -214.5t100.5 -182.5t158.5 -126.5 t204.5 -47.5q112 0 207.5 49.5t158 130.5t97.5 183t35 208q0 149 -62 278.5t-177.5 210t-258.5 80.5q-112 0 -208 -49t-158.5 -129.5t-98 -182t-35.5 -208.5zM725 1606l182 317h217l-297 -317h-102z" />
<glyph unicode="&#xd4;" horiz-adv-x="1531" d="M80 727q0 192 89 361t248.5 272.5t350.5 103.5q119 0 227 -41.5t189.5 -113.5t142 -166t92 -201.5t31.5 -216.5q0 -193 -88.5 -361t-247.5 -271t-350 -103q-148 0 -278 62.5t-217.5 166t-138 236t-50.5 272.5zM266 727q0 -111 36.5 -214.5t100.5 -182.5t158.5 -126.5 t204.5 -47.5q112 0 207.5 49.5t158 130.5t97.5 183t35 208q0 149 -62 278.5t-177.5 210t-258.5 80.5q-112 0 -208 -49t-158.5 -129.5t-98 -182t-35.5 -208.5zM391 1606l297 317h156l297 -317h-217l-158 233l-158 -233h-217z" />
<glyph unicode="&#xd5;" horiz-adv-x="1531" d="M80 727q0 192 89 361t248.5 272.5t350.5 103.5q119 0 227 -41.5t189.5 -113.5t142 -166t92 -201.5t31.5 -216.5q0 -193 -88.5 -361t-247.5 -271t-350 -103q-148 0 -278 62.5t-217.5 166t-138 236t-50.5 272.5zM266 727q0 -111 36.5 -214.5t100.5 -182.5t158.5 -126.5 t204.5 -47.5q112 0 207.5 49.5t158 130.5t97.5 183t35 208q0 149 -62 278.5t-177.5 210t-258.5 80.5q-112 0 -208 -49t-158.5 -129.5t-98 -182t-35.5 -208.5zM422 1657q0 18 9.5 48.5t30.5 69t64 66t99 27.5q49 0 94 -22t87 -44t83 -22q29 0 51.5 10t34 23t18.5 28.5t9 24.5 t2 14h106q0 -12 -5.5 -34t-21 -53.5t-38.5 -58.5t-63 -46t-89 -19q-52 0 -99.5 21.5t-88 43t-76.5 21.5q-25 0 -44.5 -9.5t-30 -22.5t-17 -28.5t-8 -24.5t-1.5 -13h-106z" />
<glyph unicode="&#xd6;" horiz-adv-x="1531" d="M80 727q0 192 89 361t248.5 272.5t350.5 103.5q119 0 227 -41.5t189.5 -113.5t142 -166t92 -201.5t31.5 -216.5q0 -193 -88.5 -361t-247.5 -271t-350 -103q-148 0 -278 62.5t-217.5 166t-138 236t-50.5 272.5zM266 727q0 -111 36.5 -214.5t100.5 -182.5t158.5 -126.5 t204.5 -47.5q112 0 207.5 49.5t158 130.5t97.5 183t35 208q0 149 -62 278.5t-177.5 210t-258.5 80.5q-112 0 -208 -49t-158.5 -129.5t-98 -182t-35.5 -208.5zM418 1761q0 47 35 83t82 36t81.5 -35.5t34.5 -83.5t-34.5 -83.5t-81.5 -35.5t-82 36t-35 83zM879 1757 q0 48 34.5 83.5t81.5 35.5t82 -36t35 -83t-35 -83t-82 -36t-81.5 35.5t-34.5 83.5z" />
<glyph unicode="&#xd7;" horiz-adv-x="950" d="M125 324l235 235l-231 234l115 112l231 -231l234 233l112 -114l-231 -234l237 -237l-114 -113l-238 237l-237 -237z" />
<glyph unicode="&#xd8;" horiz-adv-x="1531" d="M80 727q0 192 89 361t248.5 272.5t350.5 103.5q119 0 227 -41.5t189.5 -113.5t142 -166t92 -201.5t31.5 -216.5q0 -193 -88.5 -361t-247.5 -271t-350 -103q-148 0 -278 62.5t-217.5 166t-138 236t-50.5 272.5zM174 0l981 1454h203l-983 -1454h-201zM266 727 q0 -111 36.5 -214.5t100.5 -182.5t158.5 -126.5t204.5 -47.5q112 0 207.5 49.5t158 130.5t97.5 183t35 208q0 149 -62 278.5t-177.5 210t-258.5 80.5q-112 0 -208 -49t-158.5 -129.5t-98 -182t-35.5 -208.5z" />
<glyph unicode="&#xd9;" horiz-adv-x="1546" d="M154 719v735h184v-735q0 -90 13 -169t44.5 -152.5t80 -126t124.5 -84t172 -31.5q71 0 130.5 16.5t104 46t79 71.5t57.5 90t37.5 105.5t21 114.5t6.5 119v735h185v-735q0 -121 -21 -227t-68.5 -199t-118.5 -159.5t-176 -105t-235 -38.5q-135 0 -242 40.5t-176.5 108.5 t-116 162.5t-66 198t-19.5 219.5zM410 1923h217l182 -317h-102z" />
<glyph unicode="&#xda;" horiz-adv-x="1546" d="M154 719v735h184v-735q0 -90 13 -169t44.5 -152.5t80 -126t124.5 -84t172 -31.5q71 0 130.5 16.5t104 46t79 71.5t57.5 90t37.5 105.5t21 114.5t6.5 119v735h185v-735q0 -121 -21 -227t-68.5 -199t-118.5 -159.5t-176 -105t-235 -38.5q-135 0 -242 40.5t-176.5 108.5 t-116 162.5t-66 198t-19.5 219.5zM733 1606l182 317h218l-297 -317h-103z" />
<glyph unicode="&#xdb;" horiz-adv-x="1546" d="M154 719v735h184v-735q0 -90 13 -169t44.5 -152.5t80 -126t124.5 -84t172 -31.5q71 0 130.5 16.5t104 46t79 71.5t57.5 90t37.5 105.5t21 114.5t6.5 119v735h185v-735q0 -121 -21 -227t-68.5 -199t-118.5 -159.5t-176 -105t-235 -38.5q-135 0 -242 40.5t-176.5 108.5 t-116 162.5t-66 198t-19.5 219.5zM399 1606l297 317h156l297 -317h-217l-158 233l-158 -233h-217z" />
<glyph unicode="&#xdc;" horiz-adv-x="1546" d="M154 719v735h184v-735q0 -90 13 -169t44.5 -152.5t80 -126t124.5 -84t172 -31.5q71 0 130.5 16.5t104 46t79 71.5t57.5 90t37.5 105.5t21 114.5t6.5 119v735h185v-735q0 -121 -21 -227t-68.5 -199t-118.5 -159.5t-176 -105t-235 -38.5q-135 0 -242 40.5t-176.5 108.5 t-116 162.5t-66 198t-19.5 219.5zM426 1761q0 47 35 83t82 36t81.5 -35.5t34.5 -83.5t-34.5 -83.5t-81.5 -35.5t-82 36t-35 83zM887 1757q0 47 35 83t82 36t81.5 -35.5t34.5 -83.5t-34.5 -83.5t-81.5 -35.5t-82 36t-35 83z" />
<glyph unicode="&#xdd;" horiz-adv-x="1341" d="M27 1454h202l441 -758l444 758h201l-553 -924v-530h-184v535zM631 1606l182 317h217l-297 -317h-102z" />
<glyph unicode="&#xde;" horiz-adv-x="1236" d="M174 0v1454h184v-280h385q123 0 226 -68.5t159 -175t56 -221.5q0 -122 -52.5 -228t-152 -172.5t-223.5 -66.5h-398v-242h-184zM358 406h390q112 0 181.5 89.5t69.5 213.5q0 123 -78.5 212t-185.5 89h-377v-604z" />
<glyph unicode="&#xdf;" horiz-adv-x="1132" d="M145 0v1059q0 178 119.5 290.5t304.5 112.5q167 0 277 -91.5t110 -237.5q0 -108 -59.5 -197.5t-144.5 -112.5q144 -30 226.5 -139t82.5 -258q0 -204 -155 -317t-412 -121v166q177 3 278.5 73t101.5 213q0 132 -85 211.5t-224 79.5h-39v164h37q99 0 160 58t61 153 q0 98 -63.5 149.5t-157.5 51.5q-81 0 -138.5 -40t-82.5 -101t-25 -136v-1030h-172z" />
<glyph unicode="&#xe0;" horiz-adv-x="1124" d="M61 313q0 81 39 146t104 104t144 59.5t164 20.5q182 0 299 -53v86q0 129 -75.5 204.5t-207.5 75.5q-162 0 -340 -125l-59 117q209 139 416 139q213 0 329.5 -116.5t116.5 -313.5v-657h-174v162q-67 -91 -171 -136.5t-226 -45.5q-152 0 -255.5 96t-103.5 237zM199 1538 h217l182 -317h-102zM233 328q0 -93 69 -153t165 -60q90 0 175 33.5t130 97.5q39 42 39 80v157q-131 52 -272 52q-76 0 -143 -20t-115 -69t-48 -118z" />
<glyph unicode="&#xe1;" horiz-adv-x="1124" d="M61 313q0 81 39 146t104 104t144 59.5t164 20.5q182 0 299 -53v86q0 129 -75.5 204.5t-207.5 75.5q-162 0 -340 -125l-59 117q209 139 416 139q213 0 329.5 -116.5t116.5 -313.5v-657h-174v162q-67 -91 -171 -136.5t-226 -45.5q-152 0 -255.5 96t-103.5 237zM233 328 q0 -93 69 -153t165 -60q90 0 175 33.5t130 97.5q39 42 39 80v157q-131 52 -272 52q-76 0 -143 -20t-115 -69t-48 -118zM522 1221l183 317h217l-297 -317h-103z" />
<glyph unicode="&#xe2;" horiz-adv-x="1124" d="M61 313q0 81 39 146t104 104t144 59.5t164 20.5q182 0 299 -53v86q0 129 -75.5 204.5t-207.5 75.5q-162 0 -340 -125l-59 117q209 139 416 139q213 0 329.5 -116.5t116.5 -313.5v-657h-174v162q-67 -91 -171 -136.5t-226 -45.5q-152 0 -255.5 96t-103.5 237zM188 1221 l297 317h156l297 -317h-217l-158 233l-157 -233h-218zM233 328q0 -93 69 -153t165 -60q90 0 175 33.5t130 97.5q39 42 39 80v157q-131 52 -272 52q-76 0 -143 -20t-115 -69t-48 -118z" />
<glyph unicode="&#xe3;" horiz-adv-x="1124" d="M61 313q0 81 39 146t104 104t144 59.5t164 20.5q182 0 299 -53v86q0 129 -75.5 204.5t-207.5 75.5q-162 0 -340 -125l-59 117q209 139 416 139q213 0 329.5 -116.5t116.5 -313.5v-657h-174v162q-67 -91 -171 -136.5t-226 -45.5q-152 0 -255.5 96t-103.5 237zM219 1272 q0 18 9.5 48.5t30.5 69t64 66t99 27.5q49 0 94 -22t87 -44t83 -22q29 0 51.5 10t34 23t18.5 28.5t9 24.5t2 14h106q0 -12 -5.5 -34t-21 -53.5t-38.5 -58.5t-63 -46t-89 -19q-52 0 -99.5 21.5t-88 43t-76.5 21.5q-31 0 -53 -13.5t-31 -33t-12.5 -32t-3.5 -19.5h-107zM233 328 q0 -93 69 -153t165 -60q90 0 175 33.5t130 97.5q39 42 39 80v157q-131 52 -272 52q-76 0 -143 -20t-115 -69t-48 -118z" />
<glyph unicode="&#xe4;" horiz-adv-x="1124" d="M61 313q0 81 39 146t104 104t144 59.5t164 20.5q182 0 299 -53v86q0 129 -75.5 204.5t-207.5 75.5q-162 0 -340 -125l-59 117q209 139 416 139q213 0 329.5 -116.5t116.5 -313.5v-657h-174v162q-67 -91 -171 -136.5t-226 -45.5q-152 0 -255.5 96t-103.5 237zM215 1376 q0 47 35 83t82 36t82 -36t35 -83t-35 -83t-82 -36t-82 36t-35 83zM233 328q0 -93 69 -153t165 -60q90 0 175 33.5t130 97.5q39 42 39 80v157q-131 52 -272 52q-76 0 -143 -20t-115 -69t-48 -118zM676 1372q0 47 35 83t82 36t81.5 -35.5t34.5 -83.5t-34.5 -83.5t-81.5 -35.5 t-82 36t-35 83z" />
<glyph unicode="&#xe5;" horiz-adv-x="1124" d="M61 313q0 81 39 146t104 104t144 59.5t164 20.5q182 0 299 -53v86q0 129 -75.5 204.5t-207.5 75.5q-162 0 -340 -125l-59 117q209 139 416 139q213 0 329.5 -116.5t116.5 -313.5v-657h-174v162q-67 -91 -171 -136.5t-226 -45.5q-152 0 -255.5 96t-103.5 237zM233 328 q0 -93 69 -153t165 -60q90 0 175 33.5t130 97.5q39 42 39 80v157q-131 52 -272 52q-76 0 -143 -20t-115 -69t-48 -118zM369 1380q0 72 52 116t134 44q85 0 136.5 -44t51.5 -116q0 -73 -51.5 -116t-136.5 -43q-83 0 -134.5 43t-51.5 116zM463 1380q0 -37 27 -62.5t65 -25.5 t67 25.5t29 62.5q0 39 -27 63.5t-69 24.5q-38 0 -65 -24.5t-27 -63.5z" />
<glyph unicode="&#xe6;" horiz-adv-x="1910" d="M61 313q0 146 125.5 238t323.5 92q139 0 264 -41q8 83 29 135q-15 104 -87 161.5t-190 57.5q-159 0 -340 -125l-59 117q210 139 416 139q129 0 223.5 -50.5t146.5 -143.5q69 90 173 142t227 52q158 0 282.5 -75.5t191.5 -200.5t68 -276q0 -38 -4 -62h-907 q12 -157 121 -257.5t260 -100.5q99 0 185.5 49.5t119.5 128.5l156 -43q-53 -120 -180.5 -195t-286.5 -75q-142 0 -258.5 62t-188.5 169q-44 -78 -123 -132t-162.5 -76.5t-168.5 -22.5q-151 0 -254 96t-103 237zM231 328q0 -90 67.5 -151.5t166.5 -61.5q97 0 180 35.5 t127 95.5q36 36 39 71q-32 64 -37 179q-115 39 -237 39q-135 0 -220.5 -57.5t-85.5 -149.5zM942 590h741q-12 160 -116 261t-256 101t-256 -102t-113 -260z" />
<glyph unicode="&#xe7;" horiz-adv-x="1134" d="M74 537q0 151 66.5 275.5t191.5 199.5t284 75q156 0 273.5 -69.5t177.5 -190.5l-176 -55q-41 75 -115.5 117.5t-163.5 42.5q-150 0 -252 -113t-102 -282q0 -168 104.5 -285t251.5 -117q93 0 176.5 49t108.5 117l176 -53q-48 -119 -173 -193.5t-284 -74.5 q-157 0 -282.5 76.5t-193.5 203.5t-68 277zM350 -334l41 76q76 -39 180 -39q117 0 117 72q0 71 -104 71q-73 0 -164 -26l119 223l79 -29l-71 -112q29 10 74 10q74 0 117.5 -33.5t43.5 -97.5q0 -72 -58 -113t-167 -41q-104 0 -207 39z" />
<glyph unicode="&#xe8;" d="M74 535q0 112 40.5 213t111.5 176t174 119t221 44t219.5 -44.5t169.5 -119.5t106.5 -174t38.5 -206q0 -46 -4 -70h-887q12 -156 116 -257t245 -101q99 0 185.5 49.5t119.5 128.5l155 -43q-53 -120 -180.5 -195t-286.5 -75q-157 0 -282.5 76t-193.5 202.5t-68 276.5z M258 1538h217l182 -317h-102zM260 606h725q-13 152 -116.5 249t-247.5 97t-247.5 -97.5t-113.5 -248.5z" />
<glyph unicode="&#xe9;" d="M74 535q0 112 40.5 213t111.5 176t174 119t221 44t219.5 -44.5t169.5 -119.5t106.5 -174t38.5 -206q0 -46 -4 -70h-887q12 -156 116 -257t245 -101q99 0 185.5 49.5t119.5 128.5l155 -43q-53 -120 -180.5 -195t-286.5 -75q-157 0 -282.5 76t-193.5 202.5t-68 276.5z M260 606h725q-13 152 -116.5 249t-247.5 97t-247.5 -97.5t-113.5 -248.5zM582 1221l182 317h217l-297 -317h-102z" />
<glyph unicode="&#xea;" d="M74 535q0 112 40.5 213t111.5 176t174 119t221 44t219.5 -44.5t169.5 -119.5t106.5 -174t38.5 -206q0 -46 -4 -70h-887q12 -156 116 -257t245 -101q99 0 185.5 49.5t119.5 128.5l155 -43q-53 -120 -180.5 -195t-286.5 -75q-157 0 -282.5 76t-193.5 202.5t-68 276.5z M248 1221l297 317h155l297 -317h-217l-157 233l-158 -233h-217zM260 606h725q-13 152 -116.5 249t-247.5 97t-247.5 -97.5t-113.5 -248.5z" />
<glyph unicode="&#xeb;" d="M74 535q0 112 40.5 213t111.5 176t174 119t221 44t219.5 -44.5t169.5 -119.5t106.5 -174t38.5 -206q0 -46 -4 -70h-887q12 -156 116 -257t245 -101q99 0 185.5 49.5t119.5 128.5l155 -43q-53 -120 -180.5 -195t-286.5 -75q-157 0 -282.5 76t-193.5 202.5t-68 276.5z M260 606h725q-13 152 -116.5 249t-247.5 97t-247.5 -97.5t-113.5 -248.5zM274 1376q0 47 35 83t82 36t82 -36t35 -83t-35 -83t-82 -36t-82 36t-35 83zM735 1372q0 47 35 83t82 36t82 -36t35 -83t-35 -83t-82 -36t-82 36t-35 83z" />
<glyph unicode="&#xec;" horiz-adv-x="471" d="M-129 1538h217l182 -317h-102zM145 0v1069h181v-1069h-181z" />
<glyph unicode="&#xed;" horiz-adv-x="471" d="M145 0v1069h181v-1069h-181zM180 1221l182 317h218l-297 -317h-103z" />
<glyph unicode="&#xee;" horiz-adv-x="471" d="M-139 1221l297 317h155l297 -317h-217l-157 233l-158 -233h-217zM145 0v1069h181v-1069h-181z" />
<glyph unicode="&#xef;" horiz-adv-x="471" d="M-113 1376q0 47 35 83t82 36t82 -36t35 -83t-35 -83t-82 -36t-82 36t-35 83zM145 0v1069h181v-1069h-181zM348 1372q0 47 35 83t82 36t82 -36t35 -83t-35 -83t-82 -36t-82 36t-35 83z" />
<glyph unicode="&#xf0;" horiz-adv-x="1241" d="M80 477q0 132 67 245.5t182.5 180t250.5 66.5q126 0 232.5 -58.5t162.5 -156.5q-44 267 -238 467l-219 -131l-55 75l203 121q-118 103 -304 209h254q106 -63 191 -139l172 104l55 -76l-160 -94q147 -156 216 -341t69 -355q0 -139 -44.5 -256t-120 -194.5t-175.5 -120.5 t-211 -43q-143 0 -264 65.5t-192.5 180t-71.5 251.5zM264 477q0 -143 102 -242.5t248 -99.5q151 0 256 105t105 249q0 140 -102.5 236t-249.5 96q-150 0 -254.5 -100.5t-104.5 -243.5z" />
<glyph unicode="&#xf1;" horiz-adv-x="1208" d="M145 0v1069h164v-229q63 113 183.5 180t261.5 67q90 0 154 -33t99 -95.5t50.5 -140t15.5 -179.5v-639h-180v598q0 169 -52 248.5t-159 79.5q-112 0 -216 -80.5t-140 -200.5v-645h-181zM293 1272q0 18 9.5 48.5t30.5 69t64 66t99 27.5q49 0 94 -22t87 -44t83 -22 q29 0 51.5 10t34 23t18.5 28.5t8.5 24.5t1.5 14h107q0 -12 -5.5 -34t-21 -53.5t-38.5 -58.5t-63 -46t-89 -19q-52 0 -99.5 21.5t-88 43t-76.5 21.5q-25 0 -44.5 -9.5t-30 -22.5t-17 -28.5t-8 -24.5t-1.5 -13h-106z" />
<glyph unicode="&#xf2;" horiz-adv-x="1226" d="M74 532q0 149 67.5 275.5t192 203t278.5 76.5q155 0 280 -76.5t193 -203t68 -275.5q0 -111 -39.5 -211.5t-109.5 -176t-172 -120t-220 -44.5q-157 0 -281 76t-190.5 201.5t-66.5 274.5zM250 1538h217l182 -317h-102zM258 530q0 -167 103 -281t251 -114t252.5 116.5 t104.5 283.5q0 165 -104.5 281t-252.5 116q-146 0 -250 -117.5t-104 -284.5z" />
<glyph unicode="&#xf3;" horiz-adv-x="1226" d="M74 532q0 149 67.5 275.5t192 203t278.5 76.5q155 0 280 -76.5t193 -203t68 -275.5q0 -111 -39.5 -211.5t-109.5 -176t-172 -120t-220 -44.5q-157 0 -281 76t-190.5 201.5t-66.5 274.5zM258 530q0 -167 103 -281t251 -114t252.5 116.5t104.5 283.5q0 165 -104.5 281 t-252.5 116q-146 0 -250 -117.5t-104 -284.5zM573 1221l183 317h217l-297 -317h-103z" />
<glyph unicode="&#xf4;" horiz-adv-x="1226" d="M74 532q0 149 67.5 275.5t192 203t278.5 76.5q155 0 280 -76.5t193 -203t68 -275.5q0 -111 -39.5 -211.5t-109.5 -176t-172 -120t-220 -44.5q-157 0 -281 76t-190.5 201.5t-66.5 274.5zM240 1221l297 317h155l297 -317h-217l-158 233l-157 -233h-217zM258 530 q0 -167 103 -281t251 -114t252.5 116.5t104.5 283.5q0 165 -104.5 281t-252.5 116q-146 0 -250 -117.5t-104 -284.5z" />
<glyph unicode="&#xf5;" horiz-adv-x="1226" d="M74 532q0 149 67.5 275.5t192 203t278.5 76.5q155 0 280 -76.5t193 -203t68 -275.5q0 -111 -39.5 -211.5t-109.5 -176t-172 -120t-220 -44.5q-157 0 -281 76t-190.5 201.5t-66.5 274.5zM258 530q0 -167 103 -281t251 -114t252.5 116.5t104.5 283.5q0 165 -104.5 281 t-252.5 116q-146 0 -250 -117.5t-104 -284.5zM270 1272q0 18 9.5 48.5t30.5 69t64 66t99 27.5q49 0 94 -22t87 -44t83 -22q29 0 51.5 10t34 23t18.5 28.5t9 24.5t2 14h106q0 -12 -5.5 -34t-21 -53.5t-38.5 -58.5t-63 -46t-89 -19q-52 0 -99.5 21.5t-88 43t-76.5 21.5 q-31 0 -53 -13.5t-31 -33t-12.5 -32t-3.5 -19.5h-107z" />
<glyph unicode="&#xf6;" horiz-adv-x="1226" d="M74 532q0 149 67.5 275.5t192 203t278.5 76.5q155 0 280 -76.5t193 -203t68 -275.5q0 -111 -39.5 -211.5t-109.5 -176t-172 -120t-220 -44.5q-157 0 -281 76t-190.5 201.5t-66.5 274.5zM258 530q0 -167 103 -281t251 -114t252.5 116.5t104.5 283.5q0 165 -104.5 281 t-252.5 116q-146 0 -250 -117.5t-104 -284.5zM266 1376q0 47 35 83t82 36t82 -36t35 -83t-35 -83t-82 -36t-82 36t-35 83zM727 1372q0 47 35 83t82 36t82 -36t35 -83t-35 -83t-82 -36t-82 36t-35 83z" />
<glyph unicode="&#xf7;" horiz-adv-x="1091" d="M133 514v148h825v-148h-825zM420 240q0 53 36.5 90t88.5 37q51 0 88 -37.5t37 -89.5q0 -51 -37 -88t-88 -37q-52 0 -88.5 37t-36.5 88zM420 932q0 53 36.5 90t88.5 37q51 0 88 -37.5t37 -89.5q0 -51 -37 -88t-88 -37q-52 0 -88.5 37t-36.5 88z" />
<glyph unicode="&#xf8;" horiz-adv-x="1226" d="M74 532q0 149 67.5 275.5t192 203t278.5 76.5q157 0 283 -77l49 63h115l-92 -117q88 -78 137 -189t49 -235q0 -111 -39.5 -211.5t-109.5 -176t-172 -120t-220 -44.5q-159 0 -286 79l-50 -63h-112l92 115q-87 77 -134.5 187t-47.5 234zM258 530q0 -171 107 -284l432 628 q-91 58 -185 58q-146 0 -250 -117.5t-104 -284.5zM426 193q83 -58 186 -58q148 0 252.5 116.5t104.5 283.5q0 165 -109 284z" />
<glyph unicode="&#xf9;" horiz-adv-x="1220" d="M135 428v641h180v-606q0 -73 11 -129t36.5 -102.5t73 -71.5t115.5 -25q110 0 205 74.5t139 189.5v670h180v-1069h-174v219q-60 -112 -173 -175.5t-241 -63.5q-352 0 -352 448zM246 1538h217l182 -317h-102z" />
<glyph unicode="&#xfa;" horiz-adv-x="1220" d="M135 428v641h180v-606q0 -73 11 -129t36.5 -102.5t73 -71.5t115.5 -25q110 0 205 74.5t139 189.5v670h180v-1069h-174v219q-60 -112 -173 -175.5t-241 -63.5q-352 0 -352 448zM569 1221l183 317h217l-297 -317h-103z" />
<glyph unicode="&#xfb;" horiz-adv-x="1220" d="M135 428v641h180v-606q0 -73 11 -129t36.5 -102.5t73 -71.5t115.5 -25q110 0 205 74.5t139 189.5v670h180v-1069h-174v219q-60 -112 -173 -175.5t-241 -63.5q-352 0 -352 448zM236 1221l296 317h156l297 -317h-217l-158 233l-157 -233h-217z" />
<glyph unicode="&#xfc;" horiz-adv-x="1220" d="M135 428v641h180v-606q0 -73 11 -129t36.5 -102.5t73 -71.5t115.5 -25q110 0 205 74.5t139 189.5v670h180v-1069h-174v219q-60 -112 -173 -175.5t-241 -63.5q-352 0 -352 448zM262 1376q0 47 35 83t82 36t82 -36t35 -83t-35 -83t-82 -36t-82 36t-35 83zM723 1372 q0 47 35 83t82 36t81.5 -35.5t34.5 -83.5t-34.5 -83.5t-81.5 -35.5t-82 36t-35 83z" />
<glyph unicode="&#xfd;" horiz-adv-x="1116" d="M25 1069h186l364 -907l332 907h172l-520 -1350q-31 -79 -100.5 -129.5t-177.5 -50.5q-40 0 -86 10v160q70 -8 94 -8q49 0 82 53.5t106 245.5zM518 1221l182 317h218l-297 -317h-103z" />
<glyph unicode="&#xfe;" horiz-adv-x="1234" d="M145 -436v1890h185v-534q125 174 323 174q92 0 174 -33t142 -89.5t104.5 -129t67 -154t22.5 -162.5q-2 -147 -72 -276.5t-191.5 -208t-264.5 -78.5q-100 0 -182 46t-123 114v-559h-185zM330 354q0 -83 100 -155t201 -72q98 0 179 56.5t125 148.5t44 196q0 106 -41 197.5 t-119 148t-176 56.5q-103 0 -183 -62.5t-130 -162.5v-351z" />
<glyph unicode="&#xff;" horiz-adv-x="1116" d="M25 1069h186l364 -907l332 907h172l-520 -1350q-31 -79 -100.5 -129.5t-177.5 -50.5q-40 0 -86 10v160q70 -8 94 -8q49 0 82 53.5t106 245.5zM211 1376q0 47 35 83t82 36t81.5 -35.5t34.5 -83.5t-34.5 -83.5t-81.5 -35.5t-82 36t-35 83zM672 1372q0 48 34.5 83.5 t81.5 35.5t82 -36t35 -83t-35 -83t-82 -36t-81.5 35.5t-34.5 83.5z" />
<glyph unicode="&#x100;" horiz-adv-x="1386" d="M20 0l596 1454h156l594 -1454h-197l-172 426h-610l-170 -426h-197zM395 1724v119h598v-119h-598zM424 569h532l-262 672z" />
<glyph unicode="&#x101;" horiz-adv-x="1124" d="M61 313q0 81 39 146t104 104t144 59.5t164 20.5q182 0 299 -53v86q0 129 -75.5 204.5t-207.5 75.5q-162 0 -340 -125l-59 117q209 139 416 139q213 0 329.5 -116.5t116.5 -313.5v-657h-174v162q-67 -91 -171 -136.5t-226 -45.5q-152 0 -255.5 96t-103.5 237zM233 328 q0 -93 69 -153t165 -60q90 0 175 33.5t130 97.5q39 42 39 80v157q-131 52 -272 52q-76 0 -143 -20t-115 -69t-48 -118zM264 1339v119h598v-119h-598z" />
<glyph unicode="&#x102;" horiz-adv-x="1386" d="M20 0l596 1454h156l594 -1454h-197l-172 426h-610l-170 -426h-197zM399 1923h138q0 -72 46.5 -127t106.5 -55q59 0 104 52t52 130h135q0 -127 -84 -213t-207 -86t-207 86t-84 213zM424 569h532l-262 672z" />
<glyph unicode="&#x103;" horiz-adv-x="1124" d="M61 313q0 81 39 146t104 104t144 59.5t164 20.5q182 0 299 -53v86q0 129 -75.5 204.5t-207.5 75.5q-162 0 -340 -125l-59 117q209 139 416 139q213 0 329.5 -116.5t116.5 -313.5v-657h-174v162q-67 -91 -171 -136.5t-226 -45.5q-152 0 -255.5 96t-103.5 237zM233 328 q0 -93 69 -153t165 -60q90 0 175 33.5t130 97.5q39 42 39 80v157q-131 52 -272 52q-76 0 -143 -20t-115 -69t-48 -118zM268 1538h138q0 -72 46.5 -127t106.5 -55q59 0 104 52t52 130h135q0 -127 -84 -213t-207 -86t-207 86t-84 213z" />
<glyph unicode="&#x104;" horiz-adv-x="1386" d="M20 0l596 1454h156l594 -1454h-197l-172 426h-610l-170 -426h-197zM424 569h532l-262 672zM1083 -213q0 126 220 250l53 -37q-89 -55 -128.5 -99.5t-39.5 -88.5q0 -76 112 -88l-45 -95q-83 15 -127.5 57.5t-44.5 100.5z" />
<glyph unicode="&#x105;" horiz-adv-x="1124" d="M61 313q0 81 39 146t104 104t144 59.5t164 20.5q182 0 299 -53v86q0 129 -75.5 204.5t-207.5 75.5q-162 0 -340 -125l-59 117q209 139 416 139q213 0 329.5 -116.5t116.5 -313.5v-657h-174v162q-67 -91 -171 -136.5t-226 -45.5q-152 0 -255.5 96t-103.5 237zM233 328 q0 -93 69 -153t165 -60q90 0 175 33.5t130 97.5q39 42 39 80v157q-131 52 -272 52q-76 0 -143 -20t-115 -69t-48 -118zM715 -213q0 126 219 250l53 -37q-89 -55 -128.5 -99.5t-39.5 -88.5q0 -76 113 -88l-45 -95q-83 15 -127.5 57.5t-44.5 100.5z" />
<glyph unicode="&#x106;" horiz-adv-x="1396" d="M80 737q0 106 29.5 210.5t88.5 197t140.5 163.5t194 112.5t239.5 41.5q188 0 329.5 -86.5t211.5 -230.5l-146 -94q-31 66 -78 115.5t-101.5 76.5t-110 40t-113.5 13q-117 0 -214 -50t-157.5 -131.5t-93.5 -181t-33 -204.5q0 -151 65 -282.5t181.5 -212t257.5 -80.5 q80 0 156.5 25.5t148 85t111.5 145.5l153 -84q-44 -104 -139.5 -182.5t-209 -117t-228.5 -38.5q-145 0 -274 65t-217 171t-139.5 240.5t-51.5 272.5zM731 1614l182 317h217l-296 -317h-103z" />
<glyph unicode="&#x107;" horiz-adv-x="1134" d="M74 537q0 151 66.5 275.5t191.5 199.5t284 75q156 0 273.5 -69.5t177.5 -190.5l-176 -55q-41 75 -115.5 117.5t-163.5 42.5q-150 0 -252 -113t-102 -282q0 -168 104.5 -285t251.5 -117q93 0 176.5 49t108.5 117l176 -53q-48 -119 -173 -193.5t-284 -74.5 q-157 0 -282.5 76.5t-193.5 203.5t-68 277zM573 1221l183 317h217l-297 -317h-103z" />
<glyph unicode="&#x108;" horiz-adv-x="1396" d="M80 737q0 106 29.5 210.5t88.5 197t140.5 163.5t194 112.5t239.5 41.5q188 0 329.5 -86.5t211.5 -230.5l-146 -94q-31 66 -78 115.5t-101.5 76.5t-110 40t-113.5 13q-117 0 -214 -50t-157.5 -131.5t-93.5 -181t-33 -204.5q0 -151 65 -282.5t181.5 -212t257.5 -80.5 q80 0 156.5 25.5t148 85t111.5 145.5l153 -84q-44 -104 -139.5 -182.5t-209 -117t-228.5 -38.5q-145 0 -274 65t-217 171t-139.5 240.5t-51.5 272.5zM397 1614l297 317h156l297 -317h-217l-158 233l-158 -233h-217z" />
<glyph unicode="&#x109;" horiz-adv-x="1134" d="M74 537q0 151 66.5 275.5t191.5 199.5t284 75q156 0 273.5 -69.5t177.5 -190.5l-176 -55q-41 75 -115.5 117.5t-163.5 42.5q-150 0 -252 -113t-102 -282q0 -168 104.5 -285t251.5 -117q93 0 176.5 49t108.5 117l176 -53q-48 -119 -173 -193.5t-284 -74.5 q-157 0 -282.5 76.5t-193.5 203.5t-68 277zM240 1221l297 317h155l297 -317h-217l-158 233l-157 -233h-217z" />
<glyph unicode="&#x10a;" horiz-adv-x="1396" d="M80 737q0 106 29.5 210.5t88.5 197t140.5 163.5t194 112.5t239.5 41.5q188 0 329.5 -86.5t211.5 -230.5l-146 -94q-31 66 -78 115.5t-101.5 76.5t-110 40t-113.5 13q-117 0 -214 -50t-157.5 -131.5t-93.5 -181t-33 -204.5q0 -151 65 -282.5t181.5 -212t257.5 -80.5 q80 0 156.5 25.5t148 85t111.5 145.5l153 -84q-44 -104 -139.5 -182.5t-209 -117t-228.5 -38.5q-145 0 -274 65t-217 171t-139.5 240.5t-51.5 272.5zM655 1769q0 47 35 83t82 36t82 -36t35 -83t-35 -82.5t-82 -35.5t-82 35.5t-35 82.5z" />
<glyph unicode="&#x10b;" horiz-adv-x="1134" d="M74 537q0 151 66.5 275.5t191.5 199.5t284 75q156 0 273.5 -69.5t177.5 -190.5l-176 -55q-41 75 -115.5 117.5t-163.5 42.5q-150 0 -252 -113t-102 -282q0 -168 104.5 -285t251.5 -117q93 0 176.5 49t108.5 117l176 -53q-48 -119 -173 -193.5t-284 -74.5 q-157 0 -282.5 76.5t-193.5 203.5t-68 277zM498 1376q0 48 34.5 83.5t81.5 35.5t82 -36t35 -83t-35 -83t-82 -36t-81.5 35.5t-34.5 83.5z" />
<glyph unicode="&#x10c;" horiz-adv-x="1396" d="M80 737q0 106 29.5 210.5t88.5 197t140.5 163.5t194 112.5t239.5 41.5q188 0 329.5 -86.5t211.5 -230.5l-146 -94q-31 66 -78 115.5t-101.5 76.5t-110 40t-113.5 13q-117 0 -214 -50t-157.5 -131.5t-93.5 -181t-33 -204.5q0 -151 65 -282.5t181.5 -212t257.5 -80.5 q80 0 156.5 25.5t148 85t111.5 145.5l153 -84q-44 -104 -139.5 -182.5t-209 -117t-228.5 -38.5q-145 0 -274 65t-217 171t-139.5 240.5t-51.5 272.5zM397 1931h217l158 -233l158 233h217l-297 -317h-156z" />
<glyph unicode="&#x10d;" horiz-adv-x="1134" d="M74 537q0 151 66.5 275.5t191.5 199.5t284 75q156 0 273.5 -69.5t177.5 -190.5l-176 -55q-41 75 -115.5 117.5t-163.5 42.5q-150 0 -252 -113t-102 -282q0 -168 104.5 -285t251.5 -117q93 0 176.5 49t108.5 117l176 -53q-48 -119 -173 -193.5t-284 -74.5 q-157 0 -282.5 76.5t-193.5 203.5t-68 277zM240 1538h217l157 -233l158 233h217l-297 -317h-155z" />
<glyph unicode="&#x10e;" horiz-adv-x="1466" d="M174 0v1454h504q171 0 306 -56.5t220.5 -156t130.5 -230t45 -282.5q0 -331 -191 -530t-511 -199h-504zM358 164h320q164 0 282 74.5t176 201t58 289.5q0 252 -137 406.5t-379 154.5h-320v-1126zM358 1923h217l158 -233l158 233h217l-297 -317h-156z" />
<glyph unicode="&#x10f;" horiz-adv-x="1277" d="M76 532q0 150 62 277t173.5 202.5t247.5 75.5q124 0 224.5 -63.5t168.5 -167.5v639h181v-1495h-181v188q-59 -97 -155.5 -152.5t-210.5 -55.5q-145 0 -263 76.5t-182.5 202.5t-64.5 273zM262 530q0 -163 106.5 -279t260.5 -116q103 0 204.5 72t118.5 168v307 q-36 105 -137 177.5t-205 72.5q-101 0 -182 -58.5t-123.5 -150t-42.5 -193.5zM1249 1141l72 315h170l-109 -315h-133z" />
<glyph unicode="&#x110;" horiz-adv-x="1478" d="M70 662v139h116v653h504q137 0 252 -37t197.5 -103t140 -156.5t85.5 -199t28 -229.5q0 -331 -191.5 -530t-511.5 -199h-504v662h-116zM371 164h319q164 0 282 74.5t176 201t58 289.5q0 252 -137 406.5t-379 154.5h-319v-489h329v-139h-329v-498z" />
<glyph unicode="&#x111;" horiz-adv-x="1277" d="M76 532q0 150 62 277t173.5 202.5t247.5 75.5q124 0 224.5 -63.5t168.5 -167.5v639h181v-1495h-181v188q-59 -97 -155.5 -152.5t-210.5 -55.5q-145 0 -263 76.5t-182.5 202.5t-64.5 273zM262 530q0 -163 106.5 -279t260.5 -116q103 0 204.5 72t118.5 168v307 q-36 105 -137 177.5t-205 72.5q-101 0 -182 -58.5t-123.5 -150t-42.5 -193.5zM682 1204v119h598v-119h-598z" />
<glyph unicode="&#x112;" horiz-adv-x="1239" d="M174 0v1454h969v-164h-785v-471h682v-153h-682v-502h803v-164h-987zM369 1724v119h598v-119h-598z" />
<glyph unicode="&#x113;" d="M74 535q0 112 40.5 213t111.5 176t174 119t221 44t219.5 -44.5t169.5 -119.5t106.5 -174t38.5 -206q0 -46 -4 -70h-887q12 -156 116 -257t245 -101q99 0 185.5 49.5t119.5 128.5l155 -43q-53 -120 -180.5 -195t-286.5 -75q-157 0 -282.5 76t-193.5 202.5t-68 276.5z M260 606h725q-13 152 -116.5 249t-247.5 97t-247.5 -97.5t-113.5 -248.5zM324 1339v119h598v-119h-598z" />
<glyph unicode="&#x114;" horiz-adv-x="1239" d="M174 0v1454h969v-164h-785v-471h682v-153h-682v-502h803v-164h-987zM373 1923h137q0 -72 47 -127t107 -55q59 0 103.5 52t51.5 130h135q0 -127 -83.5 -213t-206.5 -86t-207 86t-84 213z" />
<glyph unicode="&#x115;" d="M74 535q0 112 40.5 213t111.5 176t174 119t221 44t219.5 -44.5t169.5 -119.5t106.5 -174t38.5 -206q0 -46 -4 -70h-887q12 -156 116 -257t245 -101q99 0 185.5 49.5t119.5 128.5l155 -43q-53 -120 -180.5 -195t-286.5 -75q-157 0 -282.5 76t-193.5 202.5t-68 276.5z M260 606h725q-13 152 -116.5 249t-247.5 97t-247.5 -97.5t-113.5 -248.5zM328 1538h137q0 -72 46.5 -127t106.5 -55q59 0 104 52t52 130h135q0 -127 -84 -213t-207 -86t-206.5 86t-83.5 213z" />
<glyph unicode="&#x116;" horiz-adv-x="1239" d="M174 0v1454h969v-164h-785v-471h682v-153h-682v-502h803v-164h-987zM551 1761q0 47 35 83t82 36t81.5 -35.5t34.5 -83.5t-34.5 -83.5t-81.5 -35.5t-82 36t-35 83z" />
<glyph unicode="&#x117;" d="M74 535q0 112 40.5 213t111.5 176t174 119t221 44t219.5 -44.5t169.5 -119.5t106.5 -174t38.5 -206q0 -46 -4 -70h-887q12 -156 116 -257t245 -101q99 0 185.5 49.5t119.5 128.5l155 -43q-53 -120 -180.5 -195t-286.5 -75q-157 0 -282.5 76t-193.5 202.5t-68 276.5z M260 606h725q-13 152 -116.5 249t-247.5 97t-247.5 -97.5t-113.5 -248.5zM506 1376q0 47 35 83t82 36t81.5 -35.5t34.5 -83.5t-34.5 -83.5t-81.5 -35.5t-82 36t-35 83z" />
<glyph unicode="&#x118;" horiz-adv-x="1239" d="M174 0v1454h969v-164h-785v-471h682v-153h-682v-502h803v-164h-987zM887 -213q0 126 219 250l53 -37q-89 -55 -128.5 -99.5t-39.5 -88.5q0 -76 113 -88l-45 -95q-83 15 -127.5 57.5t-44.5 100.5z" />
<glyph unicode="&#x119;" d="M74 535q0 112 40.5 213t111.5 176t174 119t221 44t219.5 -44.5t169.5 -119.5t106.5 -174t38.5 -206q0 -46 -4 -70h-887q12 -156 116 -257t245 -101q99 0 185.5 49.5t119.5 128.5l155 -43q-53 -120 -180.5 -195t-286.5 -75q-157 0 -282.5 76t-193.5 202.5t-68 276.5z M260 606h725q-13 152 -116.5 249t-247.5 97t-247.5 -97.5t-113.5 -248.5zM403 -213q0 126 220 250l53 -37q-89 -55 -128.5 -99.5t-39.5 -88.5q0 -76 113 -88l-46 -95q-83 15 -127.5 57.5t-44.5 100.5z" />
<glyph unicode="&#x11a;" horiz-adv-x="1239" d="M174 0v1454h969v-164h-785v-471h682v-153h-682v-502h803v-164h-987zM293 1923h217l158 -233l157 233h217l-297 -317h-155z" />
<glyph unicode="&#x11b;" d="M74 535q0 112 40.5 213t111.5 176t174 119t221 44t219.5 -44.5t169.5 -119.5t106.5 -174t38.5 -206q0 -46 -4 -70h-887q12 -156 116 -257t245 -101q99 0 185.5 49.5t119.5 128.5l155 -43q-53 -120 -180.5 -195t-286.5 -75q-157 0 -282.5 76t-193.5 202.5t-68 276.5z M248 1538h217l158 -233l157 233h217l-297 -317h-155zM260 606h725q-13 152 -116.5 249t-247.5 97t-247.5 -97.5t-113.5 -248.5z" />
<glyph unicode="&#x11c;" horiz-adv-x="1556" d="M59 735q0 145 56 278.5t153 233t236.5 158.5t296.5 59q213 0 367 -88.5t241 -236.5l-160 -95q-66 120 -188.5 185t-269.5 65q-116 0 -218 -48.5t-171.5 -128t-109.5 -181.5t-40 -209q0 -147 76 -278t206 -210t279 -79q92 0 182.5 28.5t163 78.5t117.5 125.5t45 162.5 h-391v168h596q0 -159 -43 -286t-113 -209t-166.5 -136.5t-197 -77t-209.5 -22.5q-153 0 -291.5 62.5t-235.5 165.5t-154 238.5t-57 276.5zM401 1616l297 317h156l297 -317h-217l-158 233l-158 -233h-217z" />
<glyph unicode="&#x11d;" horiz-adv-x="1277" d="M78 532q0 150 62 276.5t176 202.5t257 76q244 0 400 -231v213h160v-1057q0 -147 -73.5 -255t-195.5 -161t-276 -53q-174 0 -290.5 60.5t-195.5 175.5l105 92q62 -92 162.5 -140t218.5 -48q101 0 182 35t131.5 111t50.5 183v189q-60 -98 -163.5 -155.5t-217.5 -57.5 q-106 0 -199 45t-157 120t-100.5 174t-36.5 205zM260 528q0 -161 107 -277t260 -116q111 0 207 73.5t118 166.5v307q-43 109 -139.5 179.5t-202.5 70.5q-104 0 -186 -60t-123 -151.5t-41 -192.5zM264 1221l297 317h156l297 -317h-217l-158 233l-158 -233h-217z" />
<glyph unicode="&#x11e;" horiz-adv-x="1556" d="M59 735q0 145 56 278.5t153 233t236.5 158.5t296.5 59q213 0 367 -88.5t241 -236.5l-160 -95q-66 120 -188.5 185t-269.5 65q-116 0 -218 -48.5t-171.5 -128t-109.5 -181.5t-40 -209q0 -147 76 -278t206 -210t279 -79q92 0 182.5 28.5t163 78.5t117.5 125.5t45 162.5 h-391v168h596q0 -159 -43 -286t-113 -209t-166.5 -136.5t-197 -77t-209.5 -22.5q-153 0 -291.5 62.5t-235.5 165.5t-154 238.5t-57 276.5zM481 1933h137q0 -72 47 -127t107 -55q59 0 104 52t52 130h135q0 -127 -84 -213t-207 -86t-207 86t-84 213z" />
<glyph unicode="&#x11f;" horiz-adv-x="1277" d="M78 532q0 150 62 276.5t176 202.5t257 76q244 0 400 -231v213h160v-1057q0 -147 -73.5 -255t-195.5 -161t-276 -53q-174 0 -290.5 60.5t-195.5 175.5l105 92q62 -92 162.5 -140t218.5 -48q101 0 182 35t131.5 111t50.5 183v189q-60 -98 -163.5 -155.5t-217.5 -57.5 q-106 0 -199 45t-157 120t-100.5 174t-36.5 205zM260 528q0 -161 107 -277t260 -116q111 0 207 73.5t118 166.5v307q-43 109 -139.5 179.5t-202.5 70.5q-104 0 -186 -60t-123 -151.5t-41 -192.5zM344 1538h137q0 -72 47 -127t107 -55q59 0 104 52t52 130h135 q0 -127 -84 -213t-207 -86t-207 86t-84 213z" />
<glyph unicode="&#x120;" horiz-adv-x="1556" d="M59 735q0 145 56 278.5t153 233t236.5 158.5t296.5 59q213 0 367 -88.5t241 -236.5l-160 -95q-66 120 -188.5 185t-269.5 65q-116 0 -218 -48.5t-171.5 -128t-109.5 -181.5t-40 -209q0 -147 76 -278t206 -210t279 -79q92 0 182.5 28.5t163 78.5t117.5 125.5t45 162.5 h-391v168h596q0 -159 -43 -286t-113 -209t-166.5 -136.5t-197 -77t-209.5 -22.5q-153 0 -291.5 62.5t-235.5 165.5t-154 238.5t-57 276.5zM659 1772q0 47 35 82.5t82 35.5t82 -35.5t35 -82.5t-35 -83t-82 -36t-82 36t-35 83z" />
<glyph unicode="&#x121;" horiz-adv-x="1277" d="M78 532q0 150 62 276.5t176 202.5t257 76q244 0 400 -231v213h160v-1057q0 -147 -73.5 -255t-195.5 -161t-276 -53q-174 0 -290.5 60.5t-195.5 175.5l105 92q62 -92 162.5 -140t218.5 -48q101 0 182 35t131.5 111t50.5 183v189q-60 -98 -163.5 -155.5t-217.5 -57.5 q-106 0 -199 45t-157 120t-100.5 174t-36.5 205zM260 528q0 -161 107 -277t260 -116q111 0 207 73.5t118 166.5v307q-43 109 -139.5 179.5t-202.5 70.5q-104 0 -186 -60t-123 -151.5t-41 -192.5zM522 1376q0 47 35 83t82 36t82 -36t35 -83t-35 -83t-82 -36t-82 36t-35 83z " />
<glyph unicode="&#x122;" horiz-adv-x="1556" d="M59 735q0 145 56 278.5t153 233t236.5 158.5t296.5 59q213 0 367 -88.5t241 -236.5l-160 -95q-66 120 -188.5 185t-269.5 65q-116 0 -218 -48.5t-171.5 -128t-109.5 -181.5t-40 -209q0 -147 76 -278t206 -210t279 -79q92 0 182.5 28.5t163 78.5t117.5 125.5t45 162.5 h-391v168h596q0 -159 -43 -286t-113 -209t-166.5 -136.5t-197 -77t-209.5 -22.5q-153 0 -291.5 62.5t-235.5 165.5t-154 238.5t-57 276.5zM612 -449h103l139 338h-143z" />
<glyph unicode="&#x123;" horiz-adv-x="1277" d="M78 532q0 150 62 276.5t176 202.5t257 76q244 0 400 -231v213h160v-1057q0 -147 -73.5 -255t-195.5 -161t-276 -53q-174 0 -290.5 60.5t-195.5 175.5l105 92q62 -92 162.5 -140t218.5 -48q101 0 182 35t131.5 111t50.5 183v189q-60 -98 -163.5 -155.5t-217.5 -57.5 q-106 0 -199 45t-157 120t-100.5 174t-36.5 205zM260 528q0 -161 107 -277t260 -116q111 0 207 73.5t118 166.5v307q-43 109 -139.5 179.5t-202.5 70.5q-104 0 -186 -60t-123 -151.5t-41 -192.5zM532 1251h144l98 338h-102z" />
<glyph unicode="&#x124;" horiz-adv-x="1517" d="M174 0v1454h184v-629h801v629h184v-1454h-184v662h-801v-662h-184zM385 1606l297 317h156l297 -317h-217l-158 233l-158 -233h-217z" />
<glyph unicode="&#x125;" horiz-adv-x="1208" d="M145 0v1495h181v-655q63 115 172 181t237 66q338 0 338 -448v-639h-180v598q0 163 -57.5 245.5t-167.5 82.5q-107 0 -207 -80.5t-135 -200.5v-645h-181zM229 1606l297 317h156l297 -317h-217l-158 233l-158 -233h-217z" />
<glyph unicode="&#x126;" horiz-adv-x="1538" d="M82 1122v97h102v235h185v-235h800v235h185v-235h102v-97h-102v-1122h-185v662h-800v-662h-185v1122h-102zM369 825h800v297h-800v-297z" />
<glyph unicode="&#x127;" horiz-adv-x="1208" d="M31 1251v115h114v129h181v-129h249v-115h-249v-411q63 115 172 181t237 66q338 0 338 -448v-639h-180v598q0 163 -57.5 245.5t-167.5 82.5q-107 0 -207 -80.5t-135 -200.5v-645h-181v1251h-114z" />
<glyph unicode="&#x128;" horiz-adv-x="532" d="M-78 1657q0 18 9.5 48.5t30.5 69t64 66t99 27.5q49 0 94 -22t87 -44t83 -22q29 0 51.5 10t34 23t18.5 28.5t9 24.5t2 14h106q0 -12 -5.5 -34t-21 -53.5t-38.5 -58.5t-63 -46t-89 -19q-52 0 -99.5 21.5t-88 43t-76.5 21.5q-31 0 -53 -13.5t-31 -33t-12.5 -32t-3.5 -19.5 h-107zM174 0v1454h184v-1454h-184z" />
<glyph unicode="&#x129;" horiz-adv-x="471" d="M-109 1272q0 18 9.5 48.5t30.5 69t64 66t99 27.5q49 0 94 -22t87 -44t83 -22q29 0 51.5 10t34 23t18.5 28.5t9 24.5t2 14h107q0 -12 -5.5 -34t-21.5 -53.5t-39 -58.5t-63 -46t-89 -19q-52 0 -99.5 21.5t-88 43t-76.5 21.5q-31 0 -53 -13.5t-31 -33t-12.5 -32t-3.5 -19.5 h-107zM145 0v1069h181v-1069h-181z" />
<glyph unicode="&#x12a;" horiz-adv-x="532" d="M-33 1724v119h598v-119h-598zM174 0v1454h184v-1454h-184z" />
<glyph unicode="&#x12b;" horiz-adv-x="471" d="M-63 1339v119h598v-119h-598zM145 0v1069h181v-1069h-181z" />
<glyph unicode="&#x12c;" horiz-adv-x="532" d="M-29 1923h138q0 -72 46.5 -127t106.5 -55q59 0 104 52t52 130h135q0 -127 -84 -213t-207 -86t-207 86t-84 213zM174 0v1454h184v-1454h-184z" />
<glyph unicode="&#x12d;" horiz-adv-x="471" d="M-59 1538h137q0 -72 46.5 -127t106.5 -55q59 0 104 52t52 130h135q0 -127 -84 -213t-207 -86t-206.5 86t-83.5 213zM145 0v1069h181v-1069h-181z" />
<glyph unicode="&#x12e;" horiz-adv-x="532" d="M84 -213q0 126 219 250l53 -37q-89 -55 -128.5 -99.5t-39.5 -88.5q0 -76 113 -88l-45 -95q-83 15 -127.5 57.5t-44.5 100.5zM174 0v1454h184v-1454h-184z" />
<glyph unicode="&#x12f;" horiz-adv-x="471" d="M53 -213q0 126 219 250l54 -37q-89 -55 -128.5 -99.5t-39.5 -88.5q0 -76 112 -88l-45 -95q-83 15 -127.5 57.5t-44.5 100.5zM119 1376q0 47 35 83t82 36t81.5 -35.5t34.5 -83.5t-34.5 -83.5t-81.5 -35.5t-82 36t-35 83zM145 0v1069h181v-1069h-181z" />
<glyph unicode="&#x130;" horiz-adv-x="532" d="M150 1761q0 48 34.5 83.5t81.5 35.5t82 -36t35 -83t-35 -83t-82 -36t-81.5 35.5t-34.5 83.5zM174 0v1454h184v-1454h-184z" />
<glyph unicode="&#x131;" horiz-adv-x="471" d="M145 0v1069h181v-1069h-181z" />
<glyph unicode="&#x132;" horiz-adv-x="1525" d="M174 0v1454h184v-1454h-184zM516 281l166 77q30 -90 100.5 -145t165.5 -55q130 0 216.5 79.5t86.5 241.5v975h185v-985q3 -119 -37 -214.5t-109.5 -153.5t-157 -88.5t-184.5 -30.5q-142 0 -262 84t-170 215z" />
<glyph unicode="&#x133;" horiz-adv-x="942" d="M119 1380q0 47 35 83t82 36t81.5 -35.5t34.5 -83.5q0 -47 -34.5 -82.5t-81.5 -35.5t-82 35.5t-35 82.5zM145 0v1069h181v-1069h-181zM590 1380q0 47 35 83t82 36t81.5 -35.5t34.5 -83.5q0 -47 -34.5 -82.5t-81.5 -35.5t-82 35.5t-35 82.5zM616 -436v1505h181v-1505h-181z " />
<glyph unicode="&#x134;" horiz-adv-x="993" d="M-16 281l166 77q30 -90 100.5 -145t165.5 -55q130 0 216.5 79.5t86.5 241.5v975h184v-985q3 -119 -36.5 -214.5t-109 -153.5t-157 -88.5t-184.5 -30.5q-142 0 -262 84t-170 215zM434 1606l297 317h156l297 -317h-217l-158 233l-158 -233h-217z" />
<glyph unicode="&#x135;" horiz-adv-x="471" d="M-139 1221l297 317h155l297 -317h-217l-157 233l-158 -233h-217zM145 -436v1505h181v-1505h-181z" />
<glyph unicode="&#x136;" horiz-adv-x="1335" d="M174 0v1452h184v-803l750 805h199l-584 -641l616 -813h-200l-529 707l-252 -263v-444h-184zM500 -438h102l139 338h-143z" />
<glyph unicode="&#x137;" horiz-adv-x="1103" d="M145 0v1495h181v-983l548 555h199l-426 -442l447 -625h-195l-369 522l-204 -192v-330h-181zM385 -438h102l140 338h-144z" />
<glyph unicode="&#x138;" horiz-adv-x="1103" d="M145 0v1069h181v-557l548 555h199l-426 -442l447 -625h-195l-369 522l-204 -192v-330h-181z" />
<glyph unicode="&#x139;" horiz-adv-x="1196" d="M174 0v1454h184v-1290h811v-164h-995zM221 1606l182 317h218l-297 -317h-103z" />
<glyph unicode="&#x13a;" horiz-adv-x="491" d="M156 0v1495h180v-1495h-180zM180 1606l182 317h218l-297 -317h-103z" />
<glyph unicode="&#x13b;" horiz-adv-x="1196" d="M174 0v1454h184v-1290h811v-164h-995zM430 -438h102l140 338h-144z" />
<glyph unicode="&#x13c;" horiz-adv-x="491" d="M74 -438h102l139 338h-143zM156 0v1495h180v-1495h-180z" />
<glyph unicode="&#x13d;" horiz-adv-x="1196" d="M174 0v1454h184v-1290h811v-164h-995zM483 1141l72 315h170l-109 -315h-133z" />
<glyph unicode="&#x13e;" horiz-adv-x="491" d="M156 0v1495h180v-1495h-180zM438 1141l72 315h170l-109 -315h-133z" />
<glyph unicode="&#x13f;" horiz-adv-x="1196" d="M174 0v1454h184v-1290h811v-164h-995zM504 778q0 54 36.5 91.5t90.5 37.5t91.5 -37.5t37.5 -91.5q0 -53 -37.5 -90t-91.5 -37t-90.5 37t-36.5 90z" />
<glyph unicode="&#x140;" horiz-adv-x="491" d="M156 0v1495h180v-1495h-180zM451 717q0 54 36.5 91.5t90.5 37.5t91.5 -37.5t37.5 -91.5q0 -53 -37.5 -90t-91.5 -37t-90.5 37t-36.5 90z" />
<glyph unicode="&#x141;" d="M14 575l650 496l69 -86l-647 -500zM188 0v1454h185v-1290h811v-164h-996z" />
<glyph unicode="&#x142;" horiz-adv-x="630" d="M-2 670l555 399l70 -90l-553 -399zM193 0v1495h180v-1495h-180z" />
<glyph unicode="&#x143;" horiz-adv-x="1576" d="M174 0v1454h143l902 -1132v1130h184v-1452h-156l-889 1110v-1110h-184zM731 1606l182 317h217l-296 -317h-103z" />
<glyph unicode="&#x144;" horiz-adv-x="1208" d="M145 0v1069h164v-229q63 113 183.5 180t261.5 67q90 0 154 -33t99 -95.5t50.5 -140t15.5 -179.5v-639h-180v598q0 169 -52 248.5t-159 79.5q-112 0 -216 -80.5t-140 -200.5v-645h-181zM596 1221l182 317h217l-297 -317h-102z" />
<glyph unicode="&#x145;" horiz-adv-x="1576" d="M174 0v1454h143l902 -1132v1130h184v-1452h-156l-889 1110v-1110h-184zM621 -438h102l139 338h-143z" />
<glyph unicode="&#x146;" horiz-adv-x="1208" d="M145 0v1069h164v-229q63 113 183.5 180t261.5 67q90 0 154 -33t99 -95.5t50.5 -140t15.5 -179.5v-639h-180v598q0 169 -52 248.5t-159 79.5q-112 0 -216 -80.5t-140 -200.5v-645h-181zM444 -438h103l139 338h-143z" />
<glyph unicode="&#x147;" horiz-adv-x="1576" d="M174 0v1454h143l902 -1132v1130h184v-1452h-156l-889 1110v-1110h-184zM397 1923h217l158 -233l158 233h217l-297 -317h-156z" />
<glyph unicode="&#x148;" horiz-adv-x="1208" d="M145 0v1069h164v-229q63 113 183.5 180t261.5 67q90 0 154 -33t99 -95.5t50.5 -140t15.5 -179.5v-639h-180v598q0 169 -52 248.5t-159 79.5q-112 0 -216 -80.5t-140 -200.5v-645h-181zM262 1538h217l158 -233l158 233h217l-297 -317h-156z" />
<glyph unicode="&#x149;" horiz-adv-x="1208" d="M-18 1288l75 129l-6 78h230l-183 -248zM145 0v1069h164v-229q63 113 183.5 180t261.5 67q90 0 154 -33t99 -95.5t50.5 -140t15.5 -179.5v-639h-180v598q0 169 -52 248.5t-159 79.5q-112 0 -216 -80.5t-140 -200.5v-645h-181z" />
<glyph unicode="&#x14a;" horiz-adv-x="1560" d="M174 0v1454h141l887 -1124v1122h184v-1493q0 -146 -100 -243t-233 -97q-148 0 -244 86l84 121q50 -47 139 -47q68 0 121 50.5t53 123.5v78l-848 1075v-1106h-184z" />
<glyph unicode="&#x14b;" horiz-adv-x="1208" d="M145 0v1069h164v-229q63 113 183.5 180t261.5 67q90 0 154 -33t99 -95.5t50.5 -140t15.5 -179.5v-674q0 -149 -99 -247.5t-233 -98.5q-149 0 -245 86l84 121q52 -47 141 -47q68 0 120 50.5t52 123.5v645q0 169 -52 248.5t-159 79.5q-112 0 -216 -80.5t-140 -200.5v-645 h-181z" />
<glyph unicode="&#x14c;" horiz-adv-x="1531" d="M80 727q0 192 89 361t248.5 272.5t350.5 103.5q119 0 227 -41.5t189.5 -113.5t142 -166t92 -201.5t31.5 -216.5q0 -193 -88.5 -361t-247.5 -271t-350 -103q-148 0 -278 62.5t-217.5 166t-138 236t-50.5 272.5zM266 727q0 -111 36.5 -214.5t100.5 -182.5t158.5 -126.5 t204.5 -47.5q112 0 207.5 49.5t158 130.5t97.5 183t35 208q0 149 -62 278.5t-177.5 210t-258.5 80.5q-112 0 -208 -49t-158.5 -129.5t-98 -182t-35.5 -208.5zM467 1724v119h598v-119h-598z" />
<glyph unicode="&#x14d;" horiz-adv-x="1226" d="M74 532q0 149 67.5 275.5t192 203t278.5 76.5q155 0 280 -76.5t193 -203t68 -275.5q0 -111 -39.5 -211.5t-109.5 -176t-172 -120t-220 -44.5q-157 0 -281 76t-190.5 201.5t-66.5 274.5zM258 530q0 -167 103 -281t251 -114t252.5 116.5t104.5 283.5q0 165 -104.5 281 t-252.5 116q-146 0 -250 -117.5t-104 -284.5zM315 1339v119h598v-119h-598z" />
<glyph unicode="&#x14e;" horiz-adv-x="1531" d="M80 727q0 192 89 361t248.5 272.5t350.5 103.5q119 0 227 -41.5t189.5 -113.5t142 -166t92 -201.5t31.5 -216.5q0 -193 -88.5 -361t-247.5 -271t-350 -103q-148 0 -278 62.5t-217.5 166t-138 236t-50.5 272.5zM266 727q0 -111 36.5 -214.5t100.5 -182.5t158.5 -126.5 t204.5 -47.5q112 0 207.5 49.5t158 130.5t97.5 183t35 208q0 149 -62 278.5t-177.5 210t-258.5 80.5q-112 0 -208 -49t-158.5 -129.5t-98 -182t-35.5 -208.5zM471 1923h137q0 -72 47 -127t107 -55q59 0 104 52t52 130h135q0 -127 -84 -213t-207 -86t-207 86t-84 213z" />
<glyph unicode="&#x14f;" horiz-adv-x="1226" d="M74 532q0 149 67.5 275.5t192 203t278.5 76.5q155 0 280 -76.5t193 -203t68 -275.5q0 -111 -39.5 -211.5t-109.5 -176t-172 -120t-220 -44.5q-157 0 -281 76t-190.5 201.5t-66.5 274.5zM258 530q0 -167 103 -281t251 -114t252.5 116.5t104.5 283.5q0 165 -104.5 281 t-252.5 116q-146 0 -250 -117.5t-104 -284.5zM319 1538h138q0 -72 46.5 -127t106.5 -55q59 0 104 52t52 130h135q0 -127 -84 -213t-207 -86t-207 86t-84 213z" />
<glyph unicode="&#x150;" horiz-adv-x="1531" d="M80 727q0 192 89 361t248.5 272.5t350.5 103.5q119 0 227 -41.5t189.5 -113.5t142 -166t92 -201.5t31.5 -216.5q0 -193 -88.5 -361t-247.5 -271t-350 -103q-148 0 -278 62.5t-217.5 166t-138 236t-50.5 272.5zM266 727q0 -111 36.5 -214.5t100.5 -182.5t158.5 -126.5 t204.5 -47.5q112 0 207.5 49.5t158 130.5t97.5 183t35 208q0 149 -62 278.5t-177.5 210t-258.5 80.5q-112 0 -208 -49t-158.5 -129.5t-98 -182t-35.5 -208.5zM537 1606l182 317h217l-297 -317h-102zM879 1606l182 317h217l-297 -317h-102z" />
<glyph unicode="&#x151;" horiz-adv-x="1226" d="M74 532q0 149 67.5 275.5t192 203t278.5 76.5q155 0 280 -76.5t193 -203t68 -275.5q0 -111 -39.5 -211.5t-109.5 -176t-172 -120t-220 -44.5q-157 0 -281 76t-190.5 201.5t-66.5 274.5zM258 530q0 -167 103 -281t251 -114t252.5 116.5t104.5 283.5q0 165 -104.5 281 t-252.5 116q-146 0 -250 -117.5t-104 -284.5zM385 1221l182 317h217l-297 -317h-102zM727 1221l182 317h217l-297 -317h-102z" />
<glyph unicode="&#x152;" horiz-adv-x="2316" d="M80 727q0 192 89 361t248.5 272.5t350.5 103.5q165 0 298 -93t204 -238v321h952v-164h-768v-467h657v-164h-657v-495h787v-164h-971v322q-72 -146 -207 -239t-297 -93q-148 0 -278.5 63t-218.5 166t-138.5 235.5t-50.5 272.5zM266 727q0 -111 36.5 -214.5t100.5 -182.5 t158.5 -126.5t204.5 -47.5q112 0 207.5 49.5t158 130.5t97.5 183t35 210q0 148 -62 277.5t-177.5 210.5t-258.5 81q-112 0 -208 -49.5t-158.5 -130t-98 -182.5t-35.5 -209z" />
<glyph unicode="&#x153;" horiz-adv-x="2105" d="M74 530q0 155 70.5 283t194 201t273.5 73t268.5 -83t178.5 -228q63 150 179.5 230.5t272.5 80.5q229 0 376 -151.5t161 -400.5q0 -50 -2 -62h-887q12 -153 120 -256.5t255 -103.5q103 0 189.5 50.5t117.5 129.5l152 -43q-55 -121 -184 -195.5t-283 -74.5 q-144 0 -266.5 81.5t-198.5 223.5q-76 -146 -192 -225.5t-259 -79.5q-150 0 -273 72t-193 198.5t-70 279.5zM258 528q0 -167 102 -280t252 -113q151 0 254 115t103 282t-103 283.5t-252 116.5t-252.5 -117.5t-103.5 -286.5zM1155 590h719q-7 104 -58.5 187.5t-133 129 t-175.5 45.5q-145 0 -244 -102t-108 -260z" />
<glyph unicode="&#x154;" horiz-adv-x="1345" d="M174 0v1454h623q93 0 176.5 -40.5t140 -106t90 -149t33.5 -169.5q0 -154 -84.5 -275.5t-220.5 -156.5l352 -557h-209l-332 522h-385v-522h-184zM358 686h441q111 0 181.5 89.5t70.5 213.5q0 122 -79.5 211.5t-185.5 89.5h-428v-604zM578 1606l182 317h217l-297 -317h-102 z" />
<glyph unicode="&#x155;" horiz-adv-x="743" d="M145 0v1069h168v-248q56 111 146.5 180t191.5 76q46 0 60 -2v-164q-136 -3 -239.5 -69.5t-145.5 -182.5v-659h-181zM332 1221l182 317h217l-297 -317h-102z" />
<glyph unicode="&#x156;" horiz-adv-x="1345" d="M174 0v1454h623q93 0 176.5 -40.5t140 -106t90 -149t33.5 -169.5q0 -154 -84.5 -275.5t-220.5 -156.5l352 -557h-209l-332 522h-385v-522h-184zM358 686h441q111 0 181.5 89.5t70.5 213.5q0 122 -79.5 211.5t-185.5 89.5h-428v-604zM506 -438h102l140 338h-144z" />
<glyph unicode="&#x157;" horiz-adv-x="743" d="M18 -438h103l139 338h-143zM145 0v1069h168v-248q56 111 146.5 180t191.5 76q46 0 60 -2v-164q-136 -3 -239.5 -69.5t-145.5 -182.5v-659h-181z" />
<glyph unicode="&#x158;" horiz-adv-x="1345" d="M174 0v1454h623q93 0 176.5 -40.5t140 -106t90 -149t33.5 -169.5q0 -154 -84.5 -275.5t-220.5 -156.5l352 -557h-209l-332 522h-385v-522h-184zM244 1923h217l157 -233l158 233h217l-297 -317h-155zM358 686h441q111 0 181.5 89.5t70.5 213.5q0 122 -79.5 211.5 t-185.5 89.5h-428v-604z" />
<glyph unicode="&#x159;" horiz-adv-x="743" d="M-2 1538h217l158 -233l157 233h218l-297 -317h-156zM145 0v1069h168v-248q56 111 146.5 180t191.5 76q46 0 60 -2v-164q-136 -3 -239.5 -69.5t-145.5 -182.5v-659h-181z" />
<glyph unicode="&#x15a;" horiz-adv-x="1247" d="M59 190l88 156q73 -77 213 -135.5t295 -58.5q157 0 242.5 56.5t85.5 164.5q0 35 -10 64t-25.5 51.5t-45.5 42.5t-60 34.5t-78.5 30.5t-91.5 27.5t-109 27.5q-95 23 -161 45.5t-123.5 54t-91.5 70t-53 91.5t-19 122q0 136 68 234.5t185 147t269 48.5q273 0 477 -166 l-86 -149q-55 62 -163.5 106.5t-231.5 44.5q-165 0 -246.5 -62t-81.5 -175q0 -39 9.5 -69t32.5 -54t50.5 -41.5t75.5 -34t95 -28.5t120 -29q98 -22 168 -44.5t135 -56t104 -75.5t62 -102.5t23 -137.5q0 -136 -71 -229t-187.5 -134.5t-270.5 -41.5q-340 0 -592 204zM584 1606 l182 317h217l-297 -317h-102z" />
<glyph unicode="&#x15b;" horiz-adv-x="1011" d="M51 135l78 121q190 -143 387 -143q117 0 185.5 47t68.5 129q0 32 -12.5 56t-33 41t-62 33t-82.5 27.5t-111 28.5q-84 21 -138 38t-101.5 39.5t-73 50t-40 65.5t-14.5 88q0 104 55.5 180.5t147.5 113.5t207 37q117 0 222 -38t179 -103l-82 -108q-133 118 -323 118 q-105 0 -170.5 -44t-65.5 -132q0 -70 51 -100.5t201 -67.5q117 -28 187.5 -51.5t127.5 -58.5t81 -82.5t24 -114.5q0 -149 -115 -237t-309 -88q-130 0 -255.5 40.5t-213.5 114.5zM465 1221l182 317h217l-297 -317h-102z" />
<glyph unicode="&#x15c;" horiz-adv-x="1247" d="M59 190l88 156q73 -77 213 -135.5t295 -58.5q157 0 242.5 56.5t85.5 164.5q0 35 -10 64t-25.5 51.5t-45.5 42.5t-60 34.5t-78.5 30.5t-91.5 27.5t-109 27.5q-95 23 -161 45.5t-123.5 54t-91.5 70t-53 91.5t-19 122q0 136 68 234.5t185 147t269 48.5q273 0 477 -166 l-86 -149q-55 62 -163.5 106.5t-231.5 44.5q-165 0 -246.5 -62t-81.5 -175q0 -39 9.5 -69t32.5 -54t50.5 -41.5t75.5 -34t95 -28.5t120 -29q98 -22 168 -44.5t135 -56t104 -75.5t62 -102.5t23 -137.5q0 -136 -71 -229t-187.5 -134.5t-270.5 -41.5q-340 0 -592 204zM250 1606 l297 317h155l297 -317h-217l-157 233l-158 -233h-217z" />
<glyph unicode="&#x15d;" horiz-adv-x="1011" d="M51 135l78 121q190 -143 387 -143q117 0 185.5 47t68.5 129q0 32 -12.5 56t-33 41t-62 33t-82.5 27.5t-111 28.5q-84 21 -138 38t-101.5 39.5t-73 50t-40 65.5t-14.5 88q0 104 55.5 180.5t147.5 113.5t207 37q117 0 222 -38t179 -103l-82 -108q-133 118 -323 118 q-105 0 -170.5 -44t-65.5 -132q0 -70 51 -100.5t201 -67.5q117 -28 187.5 -51.5t127.5 -58.5t81 -82.5t24 -114.5q0 -149 -115 -237t-309 -88q-130 0 -255.5 40.5t-213.5 114.5zM131 1221l297 317h156l297 -317h-217l-158 233l-158 -233h-217z" />
<glyph unicode="&#x15e;" horiz-adv-x="1247" d="M59 190l88 156q73 -77 213 -135.5t295 -58.5q157 0 242.5 56.5t85.5 164.5q0 35 -10 64t-25.5 51.5t-45.5 42.5t-60 34.5t-78.5 30.5t-91.5 27.5t-109 27.5q-95 23 -161 45.5t-123.5 54t-91.5 70t-53 91.5t-19 122q0 136 68 234.5t185 147t269 48.5q273 0 477 -166 l-86 -149q-55 62 -163.5 106.5t-231.5 44.5q-165 0 -246.5 -62t-81.5 -175q0 -39 9.5 -69t32.5 -54t50.5 -41.5t75.5 -34t95 -28.5t120 -29q98 -22 168 -44.5t135 -56t104 -75.5t62 -102.5t23 -137.5q0 -136 -71 -229t-187.5 -134.5t-270.5 -41.5q-340 0 -592 204zM408 -334 l41 76q76 -39 180 -39q116 0 116 72q0 71 -104 71q-73 0 -164 -26l119 223l80 -29l-72 -112q29 10 74 10q74 0 118 -33.5t44 -97.5q0 -72 -58.5 -113t-167.5 -41q-103 0 -206 39z" />
<glyph unicode="&#x15f;" horiz-adv-x="1011" d="M51 135l78 121q190 -143 387 -143q117 0 185.5 47t68.5 129q0 32 -12.5 56t-33 41t-62 33t-82.5 27.5t-111 28.5q-84 21 -138 38t-101.5 39.5t-73 50t-40 65.5t-14.5 88q0 104 55.5 180.5t147.5 113.5t207 37q117 0 222 -38t179 -103l-82 -108q-133 118 -323 118 q-105 0 -170.5 -44t-65.5 -132q0 -70 51 -100.5t201 -67.5q117 -28 187.5 -51.5t127.5 -58.5t81 -82.5t24 -114.5q0 -149 -115 -237t-309 -88q-130 0 -255.5 40.5t-213.5 114.5zM289 -334l41 76q76 -39 180 -39q117 0 117 72q0 71 -105 71q-73 0 -164 -26l119 223l80 -29 l-72 -112q29 10 74 10q74 0 118 -33.5t44 -97.5q0 -72 -58 -113t-167 -41q-104 0 -207 39z" />
<glyph unicode="&#x160;" horiz-adv-x="1247" d="M59 190l88 156q73 -77 213 -135.5t295 -58.5q157 0 242.5 56.5t85.5 164.5q0 35 -10 64t-25.5 51.5t-45.5 42.5t-60 34.5t-78.5 30.5t-91.5 27.5t-109 27.5q-95 23 -161 45.5t-123.5 54t-91.5 70t-53 91.5t-19 122q0 136 68 234.5t185 147t269 48.5q273 0 477 -166 l-86 -149q-55 62 -163.5 106.5t-231.5 44.5q-165 0 -246.5 -62t-81.5 -175q0 -39 9.5 -69t32.5 -54t50.5 -41.5t75.5 -34t95 -28.5t120 -29q98 -22 168 -44.5t135 -56t104 -75.5t62 -102.5t23 -137.5q0 -136 -71 -229t-187.5 -134.5t-270.5 -41.5q-340 0 -592 204zM250 1923 h217l158 -233l157 233h217l-297 -317h-155z" />
<glyph unicode="&#x161;" horiz-adv-x="1011" d="M51 135l78 121q190 -143 387 -143q117 0 185.5 47t68.5 129q0 32 -12.5 56t-33 41t-62 33t-82.5 27.5t-111 28.5q-84 21 -138 38t-101.5 39.5t-73 50t-40 65.5t-14.5 88q0 104 55.5 180.5t147.5 113.5t207 37q117 0 222 -38t179 -103l-82 -108q-133 118 -323 118 q-105 0 -170.5 -44t-65.5 -132q0 -70 51 -100.5t201 -67.5q117 -28 187.5 -51.5t127.5 -58.5t81 -82.5t24 -114.5q0 -149 -115 -237t-309 -88q-130 0 -255.5 40.5t-213.5 114.5zM131 1538h217l158 -233l158 233h217l-297 -317h-156z" />
<glyph unicode="&#x162;" horiz-adv-x="1257" d="M35 1290v164h1188v-164h-502v-1290h-184v1290h-502zM412 -334l41 76q76 -39 180 -39q117 0 117 72q0 71 -105 71q-73 0 -164 -26l119 223l80 -29l-72 -112q29 10 74 10q74 0 118 -33.5t44 -97.5q0 -72 -58.5 -113t-167.5 -41q-103 0 -206 39z" />
<glyph unicode="&#x163;" horiz-adv-x="720" d="M51 928v141h146v356h180v-356h239v-141h-239v-664q3 -56 36.5 -84t84.5 -28q82 0 157 45l43 -144q-151 -67 -260 -67q-105 0 -173 56.5t-68 166.5v719h-146zM143 -334l41 76q29 -15 80 -27t101 -12q116 0 116 72q0 71 -104 71q-73 0 -164 -26l119 223l80 -29l-72 -112 q29 10 74 10q74 0 117.5 -33.5t43.5 -97.5q0 -72 -58 -113t-167 -41q-104 0 -207 39z" />
<glyph unicode="&#x164;" horiz-adv-x="1257" d="M35 1290v164h1188v-164h-502v-1290h-184v1290h-502zM254 1923h217l158 -233l157 233h218l-297 -317h-156z" />
<glyph unicode="&#x165;" horiz-adv-x="720" d="M51 928v141h146v356h180v-356h239v-141h-239v-664q3 -56 36.5 -84t84.5 -28q82 0 157 45l43 -144q-151 -67 -260 -67q-105 0 -173 56.5t-68 166.5v719h-146zM475 1141l72 315h170l-109 -315h-133z" />
<glyph unicode="&#x166;" horiz-adv-x="1314" d="M63 1290v164h1188v-164h-501v-477h432v-96h-432v-717h-185v717h-432v96h432v477h-502z" />
<glyph unicode="&#x167;" horiz-adv-x="722" d="M53 602v115h146v211h-146v141h146v356h180v-356h239v-141h-239v-211h239v-115h-239v-338q3 -56 36.5 -84t84.5 -28q82 0 157 45l43 -144q-151 -67 -260 -67q-105 0 -173 56.5t-68 166.5v393h-146z" />
<glyph unicode="&#x168;" horiz-adv-x="1546" d="M154 719v735h184v-735q0 -90 13 -169t44.5 -152.5t80 -126t124.5 -84t172 -31.5q71 0 130.5 16.5t104 46t79 71.5t57.5 90t37.5 105.5t21 114.5t6.5 119v735h185v-735q0 -121 -21 -227t-68.5 -199t-118.5 -159.5t-176 -105t-235 -38.5q-135 0 -242 40.5t-176.5 108.5 t-116 162.5t-66 198t-19.5 219.5zM430 1657q0 18 9.5 48.5t30.5 69t64 66t99 27.5q49 0 94 -22t87 -44t83 -22q29 0 51.5 10t34 23t18.5 28.5t9 24.5t2 14h106q0 -12 -5.5 -34t-21 -53.5t-38.5 -58.5t-63 -46t-89 -19q-52 0 -99.5 21.5t-88 43t-76.5 21.5q-31 0 -53 -13.5 t-31 -33t-12.5 -32t-3.5 -19.5h-107z" />
<glyph unicode="&#x169;" horiz-adv-x="1220" d="M135 428v641h180v-606q0 -73 11 -129t36.5 -102.5t73 -71.5t115.5 -25q110 0 205 74.5t139 189.5v670h180v-1069h-174v219q-60 -112 -173 -175.5t-241 -63.5q-352 0 -352 448zM266 1272q0 18 9.5 48.5t30.5 69t64 66t99 27.5q49 0 94 -22t87 -44t83 -22q29 0 51.5 10 t34 23t18.5 28.5t9 24.5t2 14h106q0 -12 -5.5 -34t-21 -53.5t-38.5 -58.5t-63 -46t-89 -19q-52 0 -99.5 21.5t-88 43t-76.5 21.5q-31 0 -53 -13.5t-31 -33t-12.5 -32t-3.5 -19.5h-107z" />
<glyph unicode="&#x16a;" horiz-adv-x="1546" d="M154 719v735h184v-735q0 -90 13 -169t44.5 -152.5t80 -126t124.5 -84t172 -31.5q71 0 130.5 16.5t104 46t79 71.5t57.5 90t37.5 105.5t21 114.5t6.5 119v735h185v-735q0 -121 -21 -227t-68.5 -199t-118.5 -159.5t-176 -105t-235 -38.5q-135 0 -242 40.5t-176.5 108.5 t-116 162.5t-66 198t-19.5 219.5zM475 1724v119h598v-119h-598z" />
<glyph unicode="&#x16b;" horiz-adv-x="1220" d="M135 428v641h180v-606q0 -73 11 -129t36.5 -102.5t73 -71.5t115.5 -25q110 0 205 74.5t139 189.5v670h180v-1069h-174v219q-60 -112 -173 -175.5t-241 -63.5q-352 0 -352 448zM311 1339v119h598v-119h-598z" />
<glyph unicode="&#x16c;" horiz-adv-x="1546" d="M154 719v735h184v-735q0 -90 13 -169t44.5 -152.5t80 -126t124.5 -84t172 -31.5q71 0 130.5 16.5t104 46t79 71.5t57.5 90t37.5 105.5t21 114.5t6.5 119v735h185v-735q0 -121 -21 -227t-68.5 -199t-118.5 -159.5t-176 -105t-235 -38.5q-135 0 -242 40.5t-176.5 108.5 t-116 162.5t-66 198t-19.5 219.5zM479 1923h137q0 -72 47 -127t107 -55q59 0 104 52t52 130h135q0 -127 -84 -213t-207 -86t-207 86t-84 213z" />
<glyph unicode="&#x16d;" horiz-adv-x="1220" d="M135 428v641h180v-606q0 -73 11 -129t36.5 -102.5t73 -71.5t115.5 -25q110 0 205 74.5t139 189.5v670h180v-1069h-174v219q-60 -112 -173 -175.5t-241 -63.5q-352 0 -352 448zM315 1538h138q0 -72 46.5 -127t106.5 -55q59 0 104 52t52 130h135q0 -127 -84 -213t-207 -86 t-207 86t-84 213z" />
<glyph unicode="&#x16e;" horiz-adv-x="1546" d="M154 719v735h184v-735q0 -90 13 -169t44.5 -152.5t80 -126t124.5 -84t172 -31.5q71 0 130.5 16.5t104 46t79 71.5t57.5 90t37.5 105.5t21 114.5t6.5 119v735h185v-735q0 -121 -21 -227t-68.5 -199t-118.5 -159.5t-176 -105t-235 -38.5q-135 0 -242 40.5t-176.5 108.5 t-116 162.5t-66 198t-19.5 219.5zM580 1765q0 72 52 116t134 44q85 0 136.5 -44t51.5 -116q0 -73 -51.5 -116t-136.5 -43q-83 0 -134.5 43t-51.5 116zM674 1765q0 -37 27 -62.5t65 -25.5t67 25.5t29 62.5q0 39 -27 63.5t-69 24.5q-38 0 -65 -24.5t-27 -63.5z" />
<glyph unicode="&#x16f;" horiz-adv-x="1220" d="M135 428v641h180v-606q0 -73 11 -129t36.5 -102.5t73 -71.5t115.5 -25q110 0 205 74.5t139 189.5v670h180v-1069h-174v219q-60 -112 -173 -175.5t-241 -63.5q-352 0 -352 448zM416 1380q0 72 52 116t134 44q85 0 137 -44t52 -116q0 -73 -52 -116t-137 -43 q-83 0 -134.5 43t-51.5 116zM510 1380q0 -37 27 -62.5t65 -25.5t67 25.5t29 62.5q0 39 -27 63.5t-69 24.5q-38 0 -65 -24.5t-27 -63.5z" />
<glyph unicode="&#x170;" horiz-adv-x="1546" d="M154 719v735h184v-735q0 -90 13 -169t44.5 -152.5t80 -126t124.5 -84t172 -31.5q71 0 130.5 16.5t104 46t79 71.5t57.5 90t37.5 105.5t21 114.5t6.5 119v735h185v-735q0 -121 -21 -227t-68.5 -199t-118.5 -159.5t-176 -105t-235 -38.5q-135 0 -242 40.5t-176.5 108.5 t-116 162.5t-66 198t-19.5 219.5zM545 1606l182 317h217l-297 -317h-102zM887 1606l182 317h217l-297 -317h-102z" />
<glyph unicode="&#x171;" horiz-adv-x="1220" d="M135 428v641h180v-606q0 -73 11 -129t36.5 -102.5t73 -71.5t115.5 -25q110 0 205 74.5t139 189.5v670h180v-1069h-174v219q-60 -112 -173 -175.5t-241 -63.5q-352 0 -352 448zM381 1221l182 317h217l-297 -317h-102zM723 1221l182 317h217l-297 -317h-102z" />
<glyph unicode="&#x172;" horiz-adv-x="1546" d="M154 719v735h184v-735q0 -90 13 -169t44.5 -152.5t80 -126t124.5 -84t172 -31.5q71 0 130.5 16.5t104 46t79 71.5t57.5 90t37.5 105.5t21 114.5t6.5 119v735h185v-735q0 -121 -21 -227t-68.5 -199t-118.5 -159.5t-176 -105t-235 -38.5q-135 0 -242 40.5t-176.5 108.5 t-116 162.5t-66 198t-19.5 219.5zM580 -213q0 126 219 250l53 -37q-89 -55 -128.5 -99.5t-39.5 -88.5q0 -76 113 -88l-45 -95q-83 15 -127.5 57.5t-44.5 100.5z" />
<glyph unicode="&#x173;" horiz-adv-x="1220" d="M135 428v641h180v-606q0 -73 11 -129t36.5 -102.5t73 -71.5t115.5 -25q110 0 205 74.5t139 189.5v670h180v-1069h-174v219q-60 -112 -173 -175.5t-241 -63.5q-352 0 -352 448zM801 -213q0 126 219 250l53 -37q-89 -55 -128.5 -99.5t-39.5 -88.5q0 -76 113 -88l-45 -95 q-83 15 -127.5 57.5t-44.5 100.5z" />
<glyph unicode="&#x174;" horiz-adv-x="2205" d="M37 1454h207l366 -1182l385 1182h201l399 -1182l365 1182h209l-461 -1454h-192l-418 1174l-408 -1174h-192zM729 1606l297 317h156l297 -317h-217l-158 233l-158 -233h-217z" />
<glyph unicode="&#x175;" horiz-adv-x="1724" d="M37 1069h168l309 -868l283 868h131l282 -868l310 868h166l-373 -1069h-193l-258 793l-260 -793h-190zM487 1221l297 317h156l297 -317h-217l-158 233l-157 -233h-218z" />
<glyph unicode="&#x176;" horiz-adv-x="1341" d="M27 1454h202l441 -758l444 758h201l-553 -924v-530h-184v535zM297 1606l297 317h156l297 -317h-218l-157 233l-158 -233h-217z" />
<glyph unicode="&#x177;" horiz-adv-x="1116" d="M25 1069h186l364 -907l332 907h172l-520 -1350q-31 -79 -100.5 -129.5t-177.5 -50.5q-40 0 -86 10v160q70 -8 94 -8q49 0 82 53.5t106 245.5zM184 1221l297 317h156l297 -317h-217l-158 233l-158 -233h-217z" />
<glyph unicode="&#x178;" horiz-adv-x="1341" d="M27 1454h202l441 -758l444 758h201l-553 -924v-530h-184v535zM324 1761q0 48 34.5 83.5t81.5 35.5t82 -36t35 -83t-35 -83t-82 -36t-81.5 35.5t-34.5 83.5zM784 1757q0 47 35 83t82 36t82 -36t35 -83t-35 -83t-82 -36t-82 36t-35 83z" />
<glyph unicode="&#x179;" horiz-adv-x="1292" d="M66 0v143l938 1147h-920v164h1135v-143l-922 -1147h922v-164h-1153zM606 1606l182 317h218l-297 -317h-103z" />
<glyph unicode="&#x17a;" horiz-adv-x="1009" d="M61 0v117l684 821h-665v131h858v-117l-680 -821h682v-131h-879zM465 1221l182 317h217l-297 -317h-102z" />
<glyph unicode="&#x17b;" horiz-adv-x="1292" d="M66 0v143l938 1147h-920v164h1135v-143l-922 -1147h922v-164h-1153zM530 1761q0 47 35 83t82 36t82 -36t35 -83t-35 -83t-82 -36t-82 36t-35 83z" />
<glyph unicode="&#x17c;" horiz-adv-x="1009" d="M61 0v117l684 821h-665v131h858v-117l-680 -821h682v-131h-879zM389 1376q0 47 35 83t82 36t82 -36t35 -83t-35 -83t-82 -36t-82 36t-35 83z" />
<glyph unicode="&#x17d;" horiz-adv-x="1292" d="M66 0v143l938 1147h-920v164h1135v-143l-922 -1147h922v-164h-1153zM272 1923h217l158 -233l158 233h217l-297 -317h-156z" />
<glyph unicode="&#x17e;" horiz-adv-x="1009" d="M61 0v117l684 821h-665v131h858v-117l-680 -821h682v-131h-879zM131 1538h217l158 -233l158 233h217l-297 -317h-156z" />
<glyph unicode="&#x18f;" horiz-adv-x="1507" d="M55 715q0 64 6 88h1162q-22 211 -161 351t-327 140q-141 0 -257 -76.5t-154 -195.5l-174 80q79 161 246.5 261.5t355.5 100.5q138 0 263 -58t214.5 -157t142.5 -236t53 -290q0 -152 -53 -288t-143.5 -233.5t-216.5 -154.5t-267 -57q-187 0 -346 97.5t-251.5 264.5 t-92.5 363zM254 643q12 -205 155.5 -346t340.5 -141q126 0 232 62.5t171 174t74 250.5h-973z" />
<glyph unicode="&#x192;" horiz-adv-x="1093" d="M61 -295l84 121q52 -47 142 -47q68 0 120 50.5t52 123.5v850h-146v141h146v148q0 196 88 310t239 114q130 0 236 -66l-45 -133q-65 45 -156 45q-89 0 -135.5 -68t-46.5 -196v-154h285v-141h-285v-846q0 -145 -99.5 -241.5t-232.5 -96.5q-150 0 -246 86z" />
<glyph unicode="&#x1c4;" horiz-adv-x="2732" d="M174 0v1454h504q171 0 306 -56.5t220.5 -156t130.5 -230t45 -282.5q0 -331 -191 -530t-511 -199h-504zM358 164h320q164 0 282 74.5t176 201t58 289.5q0 252 -137 406.5t-379 154.5h-320v-1126zM1505 0v143l938 1147h-919v164h1134v-143l-921 -1147h921v-164h-1153z M1712 1923h217l158 -233l158 233h217l-297 -317h-156z" />
<glyph unicode="&#x1c5;" horiz-adv-x="2476" d="M174 0v1454h504q171 0 306 -56.5t220.5 -156t130.5 -230t45 -282.5q0 -331 -191 -530t-511 -199h-504zM358 164h320q164 0 282 74.5t176 201t58 289.5q0 252 -137 406.5t-379 154.5h-320v-1126zM1528 0v117l684 821h-666v131h858v-117l-680 -821h682v-131h-878z M1597 1538h218l157 -233l158 233h217l-297 -317h-156z" />
<glyph unicode="&#x1c6;" horiz-adv-x="2287" d="M76 532q0 150 62 277t173.5 202.5t247.5 75.5q124 0 224.5 -63.5t168.5 -167.5v639h181v-1495h-181v188q-59 -97 -155.5 -152.5t-210.5 -55.5q-145 0 -263 76.5t-182.5 202.5t-64.5 273zM262 530q0 -163 106.5 -279t260.5 -116q103 0 204.5 72t118.5 168v307 q-36 105 -137 177.5t-205 72.5q-101 0 -182 -58.5t-123.5 -150t-42.5 -193.5zM1339 0v117l684 821h-665v131h858v-117l-680 -821h682v-131h-879zM1409 1538h217l158 -233l158 233h217l-297 -317h-156z" />
<glyph unicode="&#x1c7;" horiz-adv-x="2189" d="M174 0v1454h184v-1290h811v-164h-995zM1180 281l166 77q30 -90 100.5 -145t165.5 -55q130 0 216.5 79.5t86.5 241.5v975h184v-985q3 -119 -36.5 -214.5t-109 -153.5t-157 -88.5t-184.5 -30.5q-142 0 -262 84t-170 215z" />
<glyph unicode="&#x1c8;" horiz-adv-x="1667" d="M174 0v1454h184v-1290h811v-164h-995zM1315 1380q0 47 35 83t82 36t81.5 -35.5t34.5 -83.5q0 -47 -34.5 -82.5t-81.5 -35.5t-82 35.5t-35 82.5zM1341 -436v1505h181v-1505h-181z" />
<glyph unicode="&#x1c9;" horiz-adv-x="962" d="M156 0v1495h180v-1495h-180zM610 1380q0 47 35 83t82 36t82 -36t35 -83t-35 -82.5t-82 -35.5t-82 35.5t-35 82.5zM637 -436v1505h180v-1505h-180z" />
<glyph unicode="&#x1ca;" horiz-adv-x="2570" d="M174 0v1454h143l902 -1132v1130h184v-1452h-156l-889 1110v-1110h-184zM1561 281l165 77q30 -90 101 -145t166 -55q130 0 216.5 79.5t86.5 241.5v975h184v-985q3 -119 -36.5 -214.5t-109 -153.5t-157 -88.5t-184.5 -30.5q-142 0 -262 84t-170 215z" />
<glyph unicode="&#x1cb;" horiz-adv-x="2048" d="M174 0v1454h143l902 -1132v1130h184v-1452h-156l-889 1110v-1110h-184zM1696 1380q0 48 34.5 83.5t81.5 35.5t82 -36t35 -83t-35 -82.5t-82 -35.5t-81.5 35.5t-34.5 82.5zM1722 -436v1505h181v-1505h-181z" />
<glyph unicode="&#x1cc;" horiz-adv-x="1679" d="M145 0v1069h164v-229q63 113 183.5 180t261.5 67q90 0 154 -33t99 -95.5t50.5 -140t15.5 -179.5v-639h-180v598q0 169 -52 248.5t-159 79.5q-112 0 -216 -80.5t-140 -200.5v-645h-181zM1327 1380q0 47 35 83t82 36t82 -36t35 -83t-35 -82.5t-82 -35.5t-82 35.5t-35 82.5z M1354 -436v1505h180v-1505h-180z" />
<glyph unicode="&#x1ea;" horiz-adv-x="1531" d="M80 727q0 192 89 361t248.5 272.5t350.5 103.5q119 0 227 -41.5t189.5 -113.5t142 -166t92 -201.5t31.5 -216.5q0 -193 -88.5 -361t-247.5 -271t-350 -103q-148 0 -278 62.5t-217.5 166t-138 236t-50.5 272.5zM266 727q0 -111 36.5 -214.5t100.5 -182.5t158.5 -126.5 t204.5 -47.5q112 0 207.5 49.5t158 130.5t97.5 183t35 208q0 149 -62 278.5t-177.5 210t-258.5 80.5q-112 0 -208 -49t-158.5 -129.5t-98 -182t-35.5 -208.5zM580 -213q0 126 219 250l53 -37q-89 -55 -128.5 -99.5t-39.5 -88.5q0 -76 113 -88l-45 -95q-83 15 -127.5 57.5 t-44.5 100.5z" />
<glyph unicode="&#x1eb;" horiz-adv-x="1226" d="M74 532q0 149 67.5 275.5t192 203t278.5 76.5q155 0 280 -76.5t193 -203t68 -275.5q0 -111 -39.5 -211.5t-109.5 -176t-172 -120t-220 -44.5q-157 0 -281 76t-190.5 201.5t-66.5 274.5zM258 530q0 -167 103 -281t251 -114t252.5 116.5t104.5 283.5q0 165 -104.5 281 t-252.5 116q-146 0 -250 -117.5t-104 -284.5zM481 -213q0 126 219 250l54 -37q-89 -55 -128.5 -99.5t-39.5 -88.5q0 -76 112 -88l-45 -95q-83 15 -127.5 57.5t-44.5 100.5z" />
<glyph unicode="&#x1f1;" horiz-adv-x="2732" d="M174 0v1454h504q171 0 306 -56.5t220.5 -156t130.5 -230t45 -282.5q0 -331 -191 -530t-511 -199h-504zM358 164h320q164 0 282 74.5t176 201t58 289.5q0 252 -137 406.5t-379 154.5h-320v-1126zM1505 0v143l938 1147h-919v164h1134v-143l-921 -1147h921v-164h-1153z" />
<glyph unicode="&#x1f2;" horiz-adv-x="2476" d="M174 0v1454h504q171 0 306 -56.5t220.5 -156t130.5 -230t45 -282.5q0 -331 -191 -530t-511 -199h-504zM358 164h320q164 0 282 74.5t176 201t58 289.5q0 252 -137 406.5t-379 154.5h-320v-1126zM1528 0v117l684 821h-666v131h858v-117l-680 -821h682v-131h-878z" />
<glyph unicode="&#x1f3;" horiz-adv-x="2287" d="M76 532q0 150 62 277t173.5 202.5t247.5 75.5q124 0 224.5 -63.5t168.5 -167.5v639h181v-1495h-181v188q-59 -97 -155.5 -152.5t-210.5 -55.5q-145 0 -263 76.5t-182.5 202.5t-64.5 273zM262 530q0 -163 106.5 -279t260.5 -116q103 0 204.5 72t118.5 168v307 q-36 105 -137 177.5t-205 72.5q-101 0 -182 -58.5t-123.5 -150t-42.5 -193.5zM1339 0v117l684 821h-665v131h858v-117l-680 -821h682v-131h-879z" />
<glyph unicode="&#x1f4;" horiz-adv-x="1462" d="M80 731q0 145 52 279t140.5 234t216 160t269.5 60q203 0 342 -84.5t213 -232.5l-142 -98q-63 123 -171.5 186t-245.5 63q-143 0 -256.5 -81.5t-172.5 -211t-59 -278.5q0 -154 66 -285t183 -208.5t257 -77.5q239 0 428 229v201h-313v139h469v-725h-156v197 q-192 -207 -442 -207q-140 0 -267.5 63.5t-216.5 166.5t-141.5 237.5t-52.5 273.5zM690 1606l182 317h218l-297 -317h-103z" />
<glyph unicode="&#x1f5;" horiz-adv-x="1277" d="M78 532q0 150 62 276.5t176 202.5t257 76q244 0 400 -231v213h160v-1057q0 -147 -73.5 -255t-195.5 -161t-276 -53q-174 0 -290.5 60.5t-195.5 175.5l105 92q62 -92 162.5 -140t218.5 -48q101 0 182 35t131.5 111t50.5 183v189q-60 -98 -163.5 -155.5t-217.5 -57.5 q-106 0 -199 45t-157 120t-100.5 174t-36.5 205zM260 528q0 -161 107 -277t260 -116q111 0 207 73.5t118 166.5v307q-43 109 -139.5 179.5t-202.5 70.5q-104 0 -186 -60t-123 -151.5t-41 -192.5zM598 1221l182 317h217l-297 -317h-102z" />
<glyph unicode="&#x1fa;" horiz-adv-x="1386" d="M20 0l578 1411q-72 40 -72 121q0 58 44 99.5t120 41.5l139 252h230l-266 -278q65 -40 65 -115q0 -82 -70 -119l578 -1413h-197l-172 426h-610l-170 -426h-197zM424 569h532l-262 672zM610 1532q0 -33 23.5 -55.5t58.5 -22.5q33 0 58.5 22.5t25.5 55.5q0 35 -24 56.5 t-60 21.5q-35 0 -58.5 -21.5t-23.5 -56.5z" />
<glyph unicode="&#x1fb;" horiz-adv-x="1124" d="M61 313q0 81 39 146t104 104t144 59.5t164 20.5q182 0 299 -53v86q0 129 -75.5 204.5t-207.5 75.5q-162 0 -340 -125l-59 117q209 139 416 139q213 0 329.5 -116.5t116.5 -313.5v-657h-174v162q-67 -91 -171 -136.5t-226 -45.5q-152 0 -255.5 96t-103.5 237zM233 328 q0 -93 69 -153t165 -60q90 0 175 33.5t130 97.5q39 42 39 80v157q-131 52 -272 52q-76 0 -143 -20t-115 -69t-48 -118zM377 1380q0 72 52 116t134 44q85 0 137 -44t52 -116q0 -73 -52 -116t-137 -43q-83 0 -134.5 43t-51.5 116zM471 1380q0 -37 27 -62.5t65 -25.5t67 25.5 t29 62.5q0 39 -27 63.5t-69 24.5q-38 0 -65 -24.5t-27 -63.5zM498 1542l182 318h217l-297 -318h-102z" />
<glyph unicode="&#x1fc;" horiz-adv-x="1968" d="M-51 0l928 1454h999v-164h-768v-467h657v-164h-657v-495h786v-164h-968v426h-510l-266 -426h-201zM498 590h415v649zM944 1606l182 317h217l-296 -317h-103z" />
<glyph unicode="&#x1fd;" horiz-adv-x="1910" d="M61 313q0 146 125.5 238t323.5 92q139 0 264 -41q8 83 29 135q-15 104 -87 161.5t-190 57.5q-159 0 -340 -125l-59 117q210 139 416 139q129 0 223.5 -50.5t146.5 -143.5q69 90 173 142t227 52q158 0 282.5 -75.5t191.5 -200.5t68 -276q0 -38 -4 -62h-907 q12 -157 121 -257.5t260 -100.5q99 0 185.5 49.5t119.5 128.5l156 -43q-53 -120 -180.5 -195t-286.5 -75q-142 0 -258.5 62t-188.5 169q-44 -78 -123 -132t-162.5 -76.5t-168.5 -22.5q-151 0 -254 96t-103 237zM231 328q0 -90 67.5 -151.5t166.5 -61.5q97 0 180 35.5 t127 95.5q36 36 39 71q-32 64 -37 179q-115 39 -237 39q-135 0 -220.5 -57.5t-85.5 -149.5zM862 1221l182 317h218l-297 -317h-103zM942 590h741q-12 160 -116 261t-256 101t-256 -102t-113 -260z" />
<glyph unicode="&#x1fe;" horiz-adv-x="1531" d="M80 727q0 192 89 361t248.5 272.5t350.5 103.5q119 0 227 -41.5t189.5 -113.5t142 -166t92 -201.5t31.5 -216.5q0 -193 -88.5 -361t-247.5 -271t-350 -103q-148 0 -278 62.5t-217.5 166t-138 236t-50.5 272.5zM174 0l981 1454h203l-983 -1454h-201zM266 727 q0 -111 36.5 -214.5t100.5 -182.5t158.5 -126.5t204.5 -47.5q112 0 207.5 49.5t158 130.5t97.5 183t35 208q0 149 -62 278.5t-177.5 210t-258.5 80.5q-112 0 -208 -49t-158.5 -129.5t-98 -182t-35.5 -208.5zM725 1606l182 317h217l-297 -317h-102z" />
<glyph unicode="&#x1ff;" horiz-adv-x="1226" d="M74 532q0 149 67.5 275.5t192 203t278.5 76.5q157 0 283 -77l49 63h115l-92 -117q88 -78 137 -189t49 -235q0 -111 -39.5 -211.5t-109.5 -176t-172 -120t-220 -44.5q-159 0 -286 79l-50 -63h-112l92 115q-87 77 -134.5 187t-47.5 234zM258 530q0 -171 107 -284l432 628 q-91 58 -185 58q-146 0 -250 -117.5t-104 -284.5zM426 193q83 -58 186 -58q148 0 252.5 116.5t104.5 283.5q0 165 -109 284zM573 1221l183 317h217l-297 -317h-103z" />
<glyph unicode="&#x200;" horiz-adv-x="1386" d="M20 0l596 1454h156l594 -1454h-197l-172 426h-610l-170 -426h-197zM201 1923h217l182 -317h-102zM424 569h532l-262 672zM543 1923h217l182 -317h-102z" />
<glyph unicode="&#x201;" horiz-adv-x="1124" d="M61 313q0 81 39 146t104 104t144 59.5t164 20.5q182 0 299 -53v86q0 129 -75.5 204.5t-207.5 75.5q-162 0 -340 -125l-59 117q209 139 416 139q213 0 329.5 -116.5t116.5 -313.5v-657h-174v162q-67 -91 -171 -136.5t-226 -45.5q-152 0 -255.5 96t-103.5 237zM70 1538h217 l182 -317h-102zM233 328q0 -93 69 -153t165 -60q90 0 175 33.5t130 97.5q39 42 39 80v157q-131 52 -272 52q-76 0 -143 -20t-115 -69t-48 -118zM412 1538h217l182 -317h-102z" />
<glyph unicode="&#x202;" horiz-adv-x="1386" d="M20 0l596 1454h156l594 -1454h-197l-172 426h-610l-170 -426h-197zM399 1624q0 127 84 213t207 86t207 -86t84 -213h-135q-7 78 -52 130t-104 52q-60 0 -106.5 -55t-46.5 -127h-138zM424 569h532l-262 672z" />
<glyph unicode="&#x203;" horiz-adv-x="1124" d="M61 313q0 81 39 146t104 104t144 59.5t164 20.5q182 0 299 -53v86q0 129 -75.5 204.5t-207.5 75.5q-162 0 -340 -125l-59 117q209 139 416 139q213 0 329.5 -116.5t116.5 -313.5v-657h-174v162q-67 -91 -171 -136.5t-226 -45.5q-152 0 -255.5 96t-103.5 237zM233 328 q0 -93 69 -153t165 -60q90 0 175 33.5t130 97.5q39 42 39 80v157q-131 52 -272 52q-76 0 -143 -20t-115 -69t-48 -118zM268 1239q0 127 84 213t207 86t207 -86t84 -213h-135q-7 78 -52 130t-104 52q-60 0 -106.5 -55t-46.5 -127h-138z" />
<glyph unicode="&#x204;" horiz-adv-x="1239" d="M174 0v1454h969v-164h-785v-471h682v-153h-682v-502h803v-164h-987zM174 1923h217l182 -317h-102zM516 1923h217l182 -317h-102z" />
<glyph unicode="&#x205;" d="M74 535q0 112 40.5 213t111.5 176t174 119t221 44t219.5 -44.5t169.5 -119.5t106.5 -174t38.5 -206q0 -46 -4 -70h-887q12 -156 116 -257t245 -101q99 0 185.5 49.5t119.5 128.5l155 -43q-53 -120 -180.5 -195t-286.5 -75q-157 0 -282.5 76t-193.5 202.5t-68 276.5z M129 1538h217l182 -317h-102zM260 606h725q-13 152 -116.5 249t-247.5 97t-247.5 -97.5t-113.5 -248.5zM471 1538h217l182 -317h-102z" />
<glyph unicode="&#x206;" horiz-adv-x="1239" d="M174 0v1454h969v-164h-785v-471h682v-153h-682v-502h803v-164h-987zM373 1624q0 127 84 213t207 86t206.5 -86t83.5 -213h-135q-7 78 -51.5 130t-103.5 52q-60 0 -107 -55t-47 -127h-137z" />
<glyph unicode="&#x207;" d="M74 535q0 112 40.5 213t111.5 176t174 119t221 44t219.5 -44.5t169.5 -119.5t106.5 -174t38.5 -206q0 -46 -4 -70h-887q12 -156 116 -257t245 -101q99 0 185.5 49.5t119.5 128.5l155 -43q-53 -120 -180.5 -195t-286.5 -75q-157 0 -282.5 76t-193.5 202.5t-68 276.5z M260 606h725q-13 152 -116.5 249t-247.5 97t-247.5 -97.5t-113.5 -248.5zM328 1239q0 127 83.5 213t206.5 86t207 -86t84 -213h-135q-7 78 -52 130t-104 52q-60 0 -106.5 -55t-46.5 -127h-137z" />
<glyph unicode="&#x208;" horiz-adv-x="532" d="M-227 1923h217l182 -317h-102zM115 1923h217l182 -317h-102zM174 0v1454h184v-1454h-184z" />
<glyph unicode="&#x209;" horiz-adv-x="471" d="M-276 1538h217l182 -317h-103zM66 1538h217l182 -317h-103zM145 0v1069h181v-1069h-181z" />
<glyph unicode="&#x20a;" horiz-adv-x="532" d="M-29 1624q0 127 84 213t207 86t207 -86t84 -213h-135q-7 78 -52 130t-104 52q-60 0 -106.5 -55t-46.5 -127h-138zM174 0v1454h184v-1454h-184z" />
<glyph unicode="&#x20b;" horiz-adv-x="471" d="M-59 1239q0 127 83.5 213t206.5 86t207 -86t84 -213h-135q-7 78 -52 130t-104 52q-60 0 -106.5 -55t-46.5 -127h-137zM145 0v1069h181v-1069h-181z" />
<glyph unicode="&#x20c;" horiz-adv-x="1531" d="M80 727q0 192 89 361t248.5 272.5t350.5 103.5q119 0 227 -41.5t189.5 -113.5t142 -166t92 -201.5t31.5 -216.5q0 -193 -88.5 -361t-247.5 -271t-350 -103q-148 0 -278 62.5t-217.5 166t-138 236t-50.5 272.5zM266 727q0 -111 36.5 -214.5t100.5 -182.5t158.5 -126.5 t204.5 -47.5q112 0 207.5 49.5t158 130.5t97.5 183t35 208q0 149 -62 278.5t-177.5 210t-258.5 80.5q-112 0 -208 -49t-158.5 -129.5t-98 -182t-35.5 -208.5zM272 1923h217l183 -317h-103zM614 1923h217l183 -317h-103z" />
<glyph unicode="&#x20d;" horiz-adv-x="1226" d="M74 532q0 149 67.5 275.5t192 203t278.5 76.5q155 0 280 -76.5t193 -203t68 -275.5q0 -111 -39.5 -211.5t-109.5 -176t-172 -120t-220 -44.5q-157 0 -281 76t-190.5 201.5t-66.5 274.5zM121 1538h217l182 -317h-102zM258 530q0 -167 103 -281t251 -114t252.5 116.5 t104.5 283.5q0 165 -104.5 281t-252.5 116q-146 0 -250 -117.5t-104 -284.5zM463 1538h217l182 -317h-102z" />
<glyph unicode="&#x20e;" horiz-adv-x="1531" d="M80 727q0 192 89 361t248.5 272.5t350.5 103.5q119 0 227 -41.5t189.5 -113.5t142 -166t92 -201.5t31.5 -216.5q0 -193 -88.5 -361t-247.5 -271t-350 -103q-148 0 -278 62.5t-217.5 166t-138 236t-50.5 272.5zM266 727q0 -111 36.5 -214.5t100.5 -182.5t158.5 -126.5 t204.5 -47.5q112 0 207.5 49.5t158 130.5t97.5 183t35 208q0 149 -62 278.5t-177.5 210t-258.5 80.5q-112 0 -208 -49t-158.5 -129.5t-98 -182t-35.5 -208.5zM471 1624q0 127 84 213t207 86t207 -86t84 -213h-135q-7 78 -52 130t-104 52q-60 0 -107 -55t-47 -127h-137z" />
<glyph unicode="&#x20f;" horiz-adv-x="1226" d="M74 532q0 149 67.5 275.5t192 203t278.5 76.5q155 0 280 -76.5t193 -203t68 -275.5q0 -111 -39.5 -211.5t-109.5 -176t-172 -120t-220 -44.5q-157 0 -281 76t-190.5 201.5t-66.5 274.5zM258 530q0 -167 103 -281t251 -114t252.5 116.5t104.5 283.5q0 165 -104.5 281 t-252.5 116q-146 0 -250 -117.5t-104 -284.5zM319 1239q0 127 84 213t207 86t207 -86t84 -213h-135q-7 78 -52 130t-104 52q-60 0 -106.5 -55t-46.5 -127h-138z" />
<glyph unicode="&#x210;" horiz-adv-x="1345" d="M125 1923h217l182 -317h-102zM174 0v1454h623q93 0 176.5 -40.5t140 -106t90 -149t33.5 -169.5q0 -154 -84.5 -275.5t-220.5 -156.5l352 -557h-209l-332 522h-385v-522h-184zM358 686h441q111 0 181.5 89.5t70.5 213.5q0 122 -79.5 211.5t-185.5 89.5h-428v-604z M467 1923h217l182 -317h-102z" />
<glyph unicode="&#x211;" horiz-adv-x="743" d="M-121 1538h217l183 -317h-103zM145 0v1069h168v-248q56 111 146.5 180t191.5 76q46 0 60 -2v-164q-136 -3 -239.5 -69.5t-145.5 -182.5v-659h-181zM221 1538h217l183 -317h-103z" />
<glyph unicode="&#x212;" horiz-adv-x="1345" d="M174 0v1454h623q93 0 176.5 -40.5t140 -106t90 -149t33.5 -169.5q0 -154 -84.5 -275.5t-220.5 -156.5l352 -557h-209l-332 522h-385v-522h-184zM324 1624q0 127 83.5 213t206.5 86t207 -86t84 -213h-135q-7 78 -52 130t-104 52q-60 0 -106.5 -55t-46.5 -127h-137z M358 686h441q111 0 181.5 89.5t70.5 213.5q0 122 -79.5 211.5t-185.5 89.5h-428v-604z" />
<glyph unicode="&#x213;" horiz-adv-x="743" d="M78 1239q0 127 84 213t207 86t206.5 -86t83.5 -213h-135q-7 78 -51.5 130t-103.5 52q-60 0 -107 -55t-47 -127h-137zM145 0v1069h168v-248q56 111 146.5 180t191.5 76q46 0 60 -2v-164q-136 -3 -239.5 -69.5t-145.5 -182.5v-659h-181z" />
<glyph unicode="&#x214;" horiz-adv-x="1546" d="M154 719v735h184v-735q0 -90 13 -169t44.5 -152.5t80 -126t124.5 -84t172 -31.5q71 0 130.5 16.5t104 46t79 71.5t57.5 90t37.5 105.5t21 114.5t6.5 119v735h185v-735q0 -121 -21 -227t-68.5 -199t-118.5 -159.5t-176 -105t-235 -38.5q-135 0 -242 40.5t-176.5 108.5 t-116 162.5t-66 198t-19.5 219.5zM281 1923h217l182 -317h-102zM623 1923h217l182 -317h-102z" />
<glyph unicode="&#x215;" horiz-adv-x="1220" d="M117 1538h217l182 -317h-102zM135 428v641h180v-606q0 -73 11 -129t36.5 -102.5t73 -71.5t115.5 -25q110 0 205 74.5t139 189.5v670h180v-1069h-174v219q-60 -112 -173 -175.5t-241 -63.5q-352 0 -352 448zM459 1538h217l182 -317h-102z" />
<glyph unicode="&#x216;" horiz-adv-x="1546" d="M154 719v735h184v-735q0 -90 13 -169t44.5 -152.5t80 -126t124.5 -84t172 -31.5q71 0 130.5 16.5t104 46t79 71.5t57.5 90t37.5 105.5t21 114.5t6.5 119v735h185v-735q0 -121 -21 -227t-68.5 -199t-118.5 -159.5t-176 -105t-235 -38.5q-135 0 -242 40.5t-176.5 108.5 t-116 162.5t-66 198t-19.5 219.5zM479 1624q0 127 84 213t207 86t207 -86t84 -213h-135q-7 78 -52 130t-104 52q-60 0 -107 -55t-47 -127h-137z" />
<glyph unicode="&#x217;" horiz-adv-x="1220" d="M135 428v641h180v-606q0 -73 11 -129t36.5 -102.5t73 -71.5t115.5 -25q110 0 205 74.5t139 189.5v670h180v-1069h-174v219q-60 -112 -173 -175.5t-241 -63.5q-352 0 -352 448zM315 1239q0 127 84 213t207 86t207 -86t84 -213h-135q-7 78 -52 130t-104 52 q-60 0 -106.5 -55t-46.5 -127h-138z" />
<glyph unicode="&#x218;" horiz-adv-x="1247" d="M59 190l88 156q73 -77 213 -135.5t295 -58.5q157 0 242.5 56.5t85.5 164.5q0 35 -10 64t-25.5 51.5t-45.5 42.5t-60 34.5t-78.5 30.5t-91.5 27.5t-109 27.5q-95 23 -161 45.5t-123.5 54t-91.5 70t-53 91.5t-19 122q0 136 68 234.5t185 147t269 48.5q273 0 477 -166 l-86 -149q-55 62 -163.5 106.5t-231.5 44.5q-165 0 -246.5 -62t-81.5 -175q0 -39 9.5 -69t32.5 -54t50.5 -41.5t75.5 -34t95 -28.5t120 -29q98 -22 168 -44.5t135 -56t104 -75.5t62 -102.5t23 -137.5q0 -136 -71 -229t-187.5 -134.5t-270.5 -41.5q-340 0 -592 204zM457 -438 h102l139 338h-143z" />
<glyph unicode="&#x219;" horiz-adv-x="1011" d="M51 135l78 121q190 -143 387 -143q117 0 185.5 47t68.5 129q0 32 -12.5 56t-33 41t-62 33t-82.5 27.5t-111 28.5q-84 21 -138 38t-101.5 39.5t-73 50t-40 65.5t-14.5 88q0 104 55.5 180.5t147.5 113.5t207 37q117 0 222 -38t179 -103l-82 -108q-133 118 -323 118 q-105 0 -170.5 -44t-65.5 -132q0 -70 51 -100.5t201 -67.5q117 -28 187.5 -51.5t127.5 -58.5t81 -82.5t24 -114.5q0 -149 -115 -237t-309 -88q-130 0 -255.5 40.5t-213.5 114.5zM338 -438h102l140 338h-144z" />
<glyph unicode="&#x21a;" horiz-adv-x="1257" d="M35 1290v164h1188v-164h-502v-1290h-184v1290h-502zM461 -438h102l139 338h-143z" />
<glyph unicode="&#x21b;" horiz-adv-x="720" d="M51 928v141h146v356h180v-356h239v-141h-239v-664q3 -56 36.5 -84t84.5 -28q82 0 157 45l43 -144q-151 -67 -260 -67q-105 0 -173 56.5t-68 166.5v719h-146zM193 -438h102l139 338h-143z" />
<glyph unicode="&#x2c6;" horiz-adv-x="700" d="M-23 1221l297 317h156l297 -317h-217l-158 233l-157 -233h-218z" />
<glyph unicode="&#x2c7;" horiz-adv-x="700" d="M-23 1538h218l157 -233l158 233h217l-297 -317h-156z" />
<glyph unicode="&#x2d8;" horiz-adv-x="606" d="M8 1538h137q0 -72 47 -127t107 -55q59 0 104 52t52 130h135q0 -127 -84 -213t-207 -86t-207 86t-84 213z" />
<glyph unicode="&#x2d9;" horiz-adv-x="368" d="M66 1376q0 48 34.5 83.5t81.5 35.5t82 -36t35 -83t-35 -83t-82 -36t-81.5 35.5t-34.5 83.5z" />
<glyph unicode="&#x2da;" horiz-adv-x="516" d="M72 1380q0 72 52 116t134 44q85 0 136.5 -44t51.5 -116q0 -73 -51.5 -116t-136.5 -43q-83 0 -134.5 43t-51.5 116zM166 1380q0 -37 27 -62.5t65 -25.5t67 25.5t29 62.5q0 39 -27 63.5t-69 24.5q-38 0 -65 -24.5t-27 -63.5z" />
<glyph unicode="&#x2db;" horiz-adv-x="522" d="M119 -213q0 126 219 250l53 -37q-89 -55 -128.5 -99.5t-39.5 -88.5q0 -76 113 -88l-45 -95q-83 15 -127.5 57.5t-44.5 100.5z" />
<glyph unicode="&#x2dc;" horiz-adv-x="849" d="M82 1272q0 18 9.5 48.5t30.5 69t64 66t99 27.5q49 0 94 -22t87 -44t83 -22q29 0 51.5 10t34 23t18.5 28.5t9 24.5t2 14h106q0 -12 -5.5 -34t-21 -53.5t-38.5 -58.5t-63 -46t-89 -19q-52 0 -99.5 21.5t-88 43t-76.5 21.5q-25 0 -44.5 -9.5t-30 -22.5t-17 -28.5t-8 -24.5 t-1.5 -13h-106z" />
<glyph unicode="&#x2dd;" horiz-adv-x="692" d="M14 1221l183 317h217l-297 -317h-103zM356 1221l183 317h217l-297 -317h-103z" />
<glyph unicode="&#x394;" horiz-adv-x="1325" d="M45 0v137l543 1317h151l539 -1317v-137h-1233zM250 164h825l-411 1077z" />
<glyph unicode="&#x3a9;" horiz-adv-x="1556" d="M90 0v162h367q-161 90 -253.5 244.5t-92.5 341.5q0 140 51 270.5t139 229t213 157.5t264 59t264.5 -59t213 -157.5t139 -229t51.5 -270.5q0 -187 -92.5 -341.5t-253.5 -244.5h366v-162h-592v162q115 38 204 131t135.5 212t46.5 243q0 103 -34 200.5t-95 175t-153 125 t-200 47.5q-143 0 -255 -81t-169 -205t-57 -262q0 -124 46 -243t135.5 -212t203.5 -131v-162h-592z" />
<glyph unicode="&#x3bc;" horiz-adv-x="1243" d="M145 -434v1503h181v-606q0 -328 231 -328q109 0 206.5 71.5t143.5 192.5v670h180v-1069h-155v229q-52 -103 -160 -176t-225 -73q-89 0 -148 43.5t-84 113.5v-571h-170z" />
<glyph unicode="&#x3c0;" horiz-adv-x="1247" d="M51 905v164h1108v-164h-225v-629q0 -60 32 -93t89 -33q50 0 110 24l29 -145q-44 -19 -105.5 -31t-109.5 -12q-101 0 -160 60t-59 165v694h-371v-905h-174v905h-164z" />
<glyph unicode="&#x400;" horiz-adv-x="1241" d="M178 0v1454h969v-164h-785v-471h682v-153h-682v-502h803v-164h-987zM297 1923h217l182 -317h-102z" />
<glyph unicode="&#x401;" horiz-adv-x="1241" d="M178 0v1454h969v-164h-785v-471h682v-153h-682v-502h803v-164h-987zM313 1761q0 47 35 83t82 36t82 -36t35 -83t-35 -83t-82 -36t-82 36t-35 83zM774 1757q0 47 35 83t82 36t82 -36t35 -83t-35 -83t-82 -36t-82 36t-35 83z" />
<glyph unicode="&#x402;" horiz-adv-x="1456" d="M35 1290v164h1126v-164h-563v-495q69 60 164 92.5t201 32.5q208 0 323 -125t115 -359q0 -222 -106 -339t-314 -117q-128 0 -244 45l54 157q107 -47 188 -47q116 0 171.5 75t55.5 228q0 163 -64.5 240.5t-203.5 77.5q-186 0 -340 -142v-614h-184v1290h-379z" />
<glyph unicode="&#x403;" horiz-adv-x="1050" d="M178 0v1454h838v-164h-654v-1290h-184zM485 1606l183 317h217l-297 -317h-103z" />
<glyph unicode="&#x404;" horiz-adv-x="1435" d="M82 737q0 107 28.5 210.5t87.5 196.5t142 164t200.5 112.5t254.5 41.5q207 0 346.5 -84.5t214.5 -232.5l-146 -94q-63 128 -178 186.5t-246 58.5q-93 0 -172.5 -26.5t-137 -71t-100.5 -106t-67.5 -130t-34.5 -143.5h723v-153h-727q14 -140 80 -255t182 -186t261 -71 q84 0 164.5 25.5t155 85t116.5 145.5l153 -84q-71 -161 -230.5 -249.5t-367.5 -88.5q-126 0 -238.5 42.5t-196 115.5t-144.5 168t-92 203.5t-31 219.5z" />
<glyph unicode="&#x405;" horiz-adv-x="1247" d="M59 190l88 156q73 -77 213 -135.5t295 -58.5q157 0 242.5 56.5t85.5 164.5q0 35 -10 64t-25.5 51.5t-45.5 42.5t-60 34.5t-78.5 30.5t-91.5 27.5t-109 27.5q-95 23 -161 45.5t-123.5 54t-91.5 70t-53 91.5t-19 122q0 136 68 234.5t185 147t269 48.5q273 0 477 -166 l-86 -149q-55 62 -163.5 106.5t-231.5 44.5q-165 0 -246.5 -62t-81.5 -175q0 -39 9.5 -69t32.5 -54t50.5 -41.5t75.5 -34t95 -28.5t120 -29q98 -22 168 -44.5t135 -56t104 -75.5t62 -102.5t23 -137.5q0 -136 -71 -229t-187.5 -134.5t-270.5 -41.5q-340 0 -592 204z" />
<glyph unicode="&#x406;" horiz-adv-x="540" d="M178 0v1454h184v-1454h-184z" />
<glyph unicode="&#x407;" horiz-adv-x="532" d="M-82 1761q0 47 35 83t82 36t82 -36t35 -83t-35 -83t-82 -36t-82 36t-35 83zM174 0v1454h184v-1454h-184zM379 1757q0 47 35 83t82 36t81.5 -35.5t34.5 -83.5t-34.5 -83.5t-81.5 -35.5t-82 36t-35 83z" />
<glyph unicode="&#x408;" horiz-adv-x="993" d="M-16 281l166 77q30 -90 100.5 -145t165.5 -55q130 0 216.5 79.5t86.5 241.5v975h184v-985q3 -119 -36.5 -214.5t-109 -153.5t-157 -88.5t-184.5 -30.5q-142 0 -262 84t-170 215z" />
<glyph unicode="&#x409;" horiz-adv-x="2052" d="M14 164q57 3 97.5 22t81.5 74t70 152t54.5 257.5t44.5 387.5l33 397h770v-598h404q119 0 214 -47.5t153.5 -146t58.5 -234.5t-58.5 -234.5t-153.5 -146t-214 -47.5h-588v1290h-414l-20 -241q-48 -573 -160 -818t-340 -245zM1165 160h404q115 0 177 71.5t62 196.5 t-62 196.5t-177 71.5h-404v-536z" />
<glyph unicode="&#x40a;" horiz-adv-x="2131" d="M178 0v1454h184v-598h699v598h184v-598h404q119 0 214 -47.5t153.5 -146t58.5 -234.5t-58.5 -234.5t-153.5 -146t-214 -47.5h-588v692h-699v-692h-184zM1245 160h404q115 0 177 71.5t62 196.5t-62 196.5t-177 71.5h-404v-536z" />
<glyph unicode="&#x40b;" horiz-adv-x="1468" d="M35 1290v164h1126v-164h-563v-497q73 59 175.5 93t215.5 34q187 0 292 -98.5t105 -291.5v-530h-180v489q0 144 -55 205.5t-182 61.5q-210 0 -371 -142v-614h-184v1290h-379z" />
<glyph unicode="&#x40c;" horiz-adv-x="1275" d="M178 0v1454h184v-633h185l477 633h211l-518 -702l565 -752h-211l-504 657h-205v-657h-184zM598 1606l182 317h217l-297 -317h-102z" />
<glyph unicode="&#x40d;" horiz-adv-x="1533" d="M178 0v1454h184v-1173l842 1173h152v-1454h-185v1153l-827 -1153h-166zM403 1923h218l182 -317h-103z" />
<glyph unicode="&#x40e;" horiz-adv-x="1275" d="M39 1454h194l420 -895l398 895h194l-512 -1106q-92 -199 -177 -280.5t-208 -81.5q-99 0 -166 28v158q68 -27 152 -27q77 0 129.5 45.5t103.5 167.5zM342 1876h109q0 -56 59.5 -97.5t144.5 -41.5q81 0 136.5 39t66.5 100h107q-3 -112 -88 -176t-224 -64t-223.5 64 t-87.5 176z" />
<glyph unicode="&#x40f;" horiz-adv-x="1427" d="M180 0v1454h185v-1290h698v1290h184v-1454h-442v-379h-184v379h-441z" />
<glyph unicode="&#x410;" horiz-adv-x="1386" d="M20 0l596 1454h156l594 -1454h-197l-172 426h-610l-170 -426h-197zM424 569h532l-262 672z" />
<glyph unicode="&#x411;" horiz-adv-x="1347" d="M178 0v1454h1022v-164h-838v-434h486q119 0 214 -47.5t153.5 -146t58.5 -234.5q0 -203 -120.5 -315.5t-305.5 -112.5h-670zM362 160h486q115 0 177 71.5t62 196.5t-61.5 196.5t-177.5 71.5h-486v-536z" />
<glyph unicode="&#x412;" horiz-adv-x="1378" d="M137 0v1454h723q98 0 176 -55.5t117 -139t39 -176.5q0 -110 -55.5 -202.5t-153.5 -135.5q125 -37 197.5 -136t72.5 -234q0 -165 -123.5 -270t-302.5 -105h-690zM322 160h505q100 0 170 74t70 174q0 102 -65 176.5t-160 74.5h-520v-499zM322 809h462q96 0 161 70.5 t65 171.5q0 103 -60.5 173t-152.5 70h-475v-485z" />
<glyph unicode="&#x413;" horiz-adv-x="1050" d="M178 0v1454h838v-164h-654v-1290h-184z" />
<glyph unicode="&#x414;" horiz-adv-x="1466" d="M37 164h18q57 3 97.5 22t81.5 74t70 152t54.5 257.5t44.5 387.5l33 397h770v-1290h226v-545h-164v381h-1067v-381h-164v545zM350 164h672v1126h-414l-20 -241q-31 -369 -87 -579.5t-151 -305.5z" />
<glyph unicode="&#x415;" horiz-adv-x="1241" d="M178 0v1454h969v-164h-785v-471h682v-153h-682v-502h803v-164h-987z" />
<glyph unicode="&#x416;" horiz-adv-x="1990" d="M4 0l483 752l-436 702h211l385 -633h246v633h205v-633h245l386 633h210l-436 -702l484 -752h-211l-404 657h-274v-657h-205v657h-275l-403 -657h-211z" />
<glyph unicode="&#x417;" horiz-adv-x="1062" d="M45 217l148 109q100 -168 290 -168q134 0 222 76.5t88 195.5q0 128 -105 203.5t-287 75.5h-110v163h110q154 0 242 62.5t88 171.5q0 96 -67.5 147.5t-174.5 51.5q-92 0 -165 -36.5t-115 -101.5l-123 115q70 93 166.5 137.5t234.5 44.5q203 0 314.5 -89t111.5 -255 q0 -125 -62.5 -214t-170.5 -115q136 -17 217.5 -110.5t81.5 -238.5q0 -196 -143 -324t-361 -128q-144 0 -257 59.5t-173 167.5z" />
<glyph unicode="&#x418;" horiz-adv-x="1533" d="M178 0v1454h184v-1173l842 1173h152v-1454h-185v1153l-827 -1153h-166z" />
<glyph unicode="&#x419;" horiz-adv-x="1533" d="M178 0v1454h184v-1173l842 1173h152v-1454h-185v1153l-827 -1153h-166zM489 1876h109q0 -56 60 -97.5t145 -41.5q81 0 136.5 39t66.5 100h106q-3 -112 -87.5 -176t-223.5 -64t-224 64t-88 176z" />
<glyph unicode="&#x41a;" horiz-adv-x="1275" d="M178 0v1454h184v-633h185l477 633h211l-518 -702l565 -752h-211l-504 657h-205v-657h-184z" />
<glyph unicode="&#x41b;" horiz-adv-x="1345" d="M14 164q57 3 97.5 22t81.5 74t70 152t54.5 257.5t44.5 387.5l33 397h770v-1454h-184v1290h-414l-20 -241q-48 -573 -160 -818t-340 -245z" />
<glyph unicode="&#x41c;" horiz-adv-x="1798" d="M178 0v1454h195l526 -944l528 944h193v-1454h-184v1124l-484 -862h-104l-486 862v-1124h-184z" />
<glyph unicode="&#x41d;" horiz-adv-x="1525" d="M178 0v1454h184v-629h801v629h185v-1454h-185v662h-801v-662h-184z" />
<glyph unicode="&#x41e;" horiz-adv-x="1531" d="M82 727q0 192 89 361t248.5 272.5t350.5 103.5q119 0 227 -41.5t189.5 -113.5t142 -166t92 -201.5t31.5 -216.5q0 -193 -88.5 -361t-247.5 -271t-350 -103q-148 0 -278 62.5t-217.5 166t-138 236t-50.5 272.5zM268 727q0 -111 36.5 -214.5t100.5 -182.5t158.5 -126.5 t204.5 -47.5q112 0 207.5 49.5t158 130.5t97.5 183t35 208q0 149 -62 278.5t-177.5 210t-258.5 80.5q-112 0 -208 -49t-158.5 -129.5t-98 -182t-35.5 -208.5z" />
<glyph unicode="&#x41f;" horiz-adv-x="1515" d="M178 0v1454h1159v-1454h-184v1290h-791v-1290h-184z" />
<glyph unicode="&#x420;" horiz-adv-x="1280" d="M178 0v1454h606q123 0 226 -68.5t159 -175t56 -221.5q0 -121 -52.5 -227t-152 -173t-223.5 -67h-435v-522h-184zM362 686h424q112 0 182 88t70 215t-78.5 214t-185.5 87h-412v-604z" />
<glyph unicode="&#x421;" horiz-adv-x="1394" d="M80 737q0 106 29.5 210.5t88.5 197t140.5 163.5t194 112.5t239.5 41.5q188 0 329.5 -86.5t211.5 -230.5l-146 -94q-31 66 -78 115.5t-101.5 76.5t-110 40t-113.5 13q-117 0 -214 -50t-157.5 -131.5t-93.5 -181t-33 -204.5q0 -151 65 -282.5t181.5 -212t257.5 -80.5 q80 0 156.5 25.5t148 85t111.5 145.5l153 -84q-44 -104 -139.5 -182.5t-209 -117t-228.5 -38.5q-145 0 -274 65t-217 171t-139.5 240.5t-51.5 272.5z" />
<glyph unicode="&#x422;" horiz-adv-x="1257" d="M35 1290v164h1188v-164h-502v-1290h-184v1290h-502z" />
<glyph unicode="&#x423;" horiz-adv-x="1275" d="M39 1454h194l420 -895l398 895h194l-512 -1106q-92 -199 -177 -280.5t-208 -81.5q-99 0 -166 28v158q68 -27 154 -27q74 0 127.5 46t103.5 167z" />
<glyph unicode="&#x424;" horiz-adv-x="1527" d="M70 739q0 278 160.5 444t449.5 191v182h184v-182q279 -25 434.5 -192t155.5 -443q0 -274 -155.5 -438.5t-434.5 -187.5v-195h-184v195q-290 23 -450 187t-160 439zM256 748q0 -211 108 -329t316 -140v925q-424 -41 -424 -456zM864 279q198 23 301 142t103 327 q0 205 -102.5 320.5t-301.5 135.5v-925z" />
<glyph unicode="&#x425;" horiz-adv-x="1304" d="M6 1454h205l442 -606l443 606h202l-546 -737l530 -717h-203l-426 586l-426 -586h-204l530 717z" />
<glyph unicode="&#x426;" horiz-adv-x="1507" d="M180 0v1454h185v-1290h698v1290h184v-1290h226v-545h-164v381h-1129z" />
<glyph unicode="&#x427;" horiz-adv-x="1259" d="M88 1061v393h186v-358q0 -206 66.5 -287.5t239.5 -81.5q221 0 315 76v651h186v-1454h-186v614q-73 -28 -150.5 -40.5t-199.5 -12.5q-124 0 -214.5 37.5t-142.5 106.5t-76 157t-24 199z" />
<glyph unicode="&#x428;" horiz-adv-x="1937" d="M178 0v1454h184v-1290h515v1290h184v-1290h514v1290h184v-1454h-1581z" />
<glyph unicode="&#x429;" horiz-adv-x="2021" d="M180 0v1454h185v-1290h514v1290h184v-1290h514v1290h184v-1290h224v-545h-162v381h-1643z" />
<glyph unicode="&#x42a;" horiz-adv-x="1536" d="M35 1290v164h645v-536h311q138 0 247 -51t175 -156.5t66 -251.5q0 -145 -67.5 -251t-176.5 -157t-244 -51h-495v1290h-461zM680 160h311q148 0 224.5 79.5t76.5 219.5q0 138 -79 218.5t-222 80.5h-311v-598z" />
<glyph unicode="&#x42b;" horiz-adv-x="1693" d="M178 0v1454h184v-536h312q138 0 247 -51t174.5 -156.5t65.5 -251.5q0 -110 -39 -198.5t-106 -144.5t-154.5 -86t-187.5 -30h-496zM362 160h312q148 0 224.5 79.5t76.5 219.5q0 138 -79 218.5t-222 80.5h-312v-598zM1329 0v1452h184v-1452h-184z" />
<glyph unicode="&#x42c;" horiz-adv-x="1218" d="M178 0v1454h184v-536h312q138 0 247 -51t174.5 -156.5t65.5 -251.5q0 -110 -39 -198.5t-106 -144.5t-154.5 -86t-187.5 -30h-496zM362 160h312q148 0 224.5 79.5t76.5 219.5q0 138 -79 218.5t-222 80.5h-312v-598z" />
<glyph unicode="&#x42d;" horiz-adv-x="1435" d="M53 326l154 84q42 -86 116.5 -145.5t155 -85t164.5 -25.5q145 0 260.5 71t180.5 186t79 255h-725v153h723q-13 95 -50 178t-98 151.5t-155 108t-209 39.5q-131 0 -246 -58.5t-178 -186.5l-145 94q75 148 214.5 232.5t346.5 84.5q137 0 254.5 -41.5t200.5 -112.5t142 -164 t87.5 -196.5t28.5 -210.5q0 -111 -31 -219.5t-92.5 -203.5t-145 -168t-196 -115.5t-238.5 -42.5q-208 0 -367.5 88.5t-230.5 249.5z" />
<glyph unicode="&#x42e;" horiz-adv-x="2019" d="M180 0v1454h185v-639h264q16 195 104 343.5t228 227t311 78.5q146 0 269.5 -56t209.5 -153.5t134 -234.5t48 -295q0 -165 -50.5 -303.5t-139 -233t-211 -146.5t-264.5 -52q-269 0 -444 182.5t-197 478.5h-262v-651h-185zM811 727q0 -266 125 -418.5t334 -152.5 q221 0 349 156t128 415q0 265 -131 417t-346 152q-212 0 -335.5 -154.5t-123.5 -414.5z" />
<glyph unicode="&#x42f;" horiz-adv-x="1304" d="M57 0l361 590q-129 46 -211 162.5t-82 257.5q0 110 55.5 211.5t158.5 167t226 65.5h561v-1454h-184v563h-336l-334 -563h-215zM311 1010q0 -116 70.5 -199.5t181.5 -83.5h379v563h-367q-106 0 -185 -82.5t-79 -197.5z" />
<glyph unicode="&#x430;" horiz-adv-x="1124" d="M61 313q0 81 39 146t104 104t144 59.5t164 20.5q182 0 299 -53v86q0 129 -75.5 204.5t-207.5 75.5q-162 0 -340 -125l-59 117q209 139 416 139q213 0 329.5 -116.5t116.5 -313.5v-657h-174v162q-67 -91 -171 -136.5t-226 -45.5q-152 0 -255.5 96t-103.5 237zM233 328 q0 -93 69 -153t165 -60q90 0 175 33.5t130 97.5q39 42 39 80v157q-131 52 -272 52q-76 0 -143 -20t-115 -69t-48 -118z" />
<glyph unicode="&#x431;" horiz-adv-x="1208" d="M111 653q0 651 540 783l338 82l33 -148l-358 -88q-161 -41 -252.5 -143.5t-120.5 -286.5q145 174 362 174q204 0 339.5 -151.5t135.5 -378.5q0 -230 -143 -373t-375 -143q-244 0 -371.5 172t-127.5 501zM295 508q0 -164 94 -272.5t236 -108.5q141 0 230 102t89 263 q0 164 -92 267t-240 103q-141 0 -229 -98t-88 -256z" />
<glyph unicode="&#x432;" horiz-adv-x="1079" d="M154 0v1069h538q116 0 193.5 -73.5t77.5 -188.5q0 -76 -37 -146.5t-113 -101.5q89 -25 140 -92.5t51 -165.5q0 -136 -92.5 -218.5t-239.5 -82.5h-518zM330 133h321q79 0 128.5 51.5t49.5 124.5q0 71 -47 120.5t-127 49.5h-325v-346zM330 612h291q77 0 121 44t44 122 q0 70 -37 114t-114 44h-305v-324z" />
<glyph unicode="&#x433;" horiz-adv-x="868" d="M150 0v1069h679v-135h-503v-934h-176z" />
<glyph unicode="&#x434;" horiz-adv-x="1212" d="M37 156h61q51 12 83 43.5t58 104.5t43.5 179.5t36.5 286.5l33 299h666v-913h127v-492h-156v336h-803v-336h-149v492zM336 156h506v772h-324l-31 -232q-30 -225 -64.5 -350.5t-86.5 -189.5z" />
<glyph unicode="&#x435;" d="M74 535q0 112 40.5 213t111.5 176t174 119t221 44t219.5 -44.5t169.5 -119.5t106.5 -174t38.5 -206q0 -46 -4 -70h-887q12 -156 116 -257t245 -101q99 0 185.5 49.5t119.5 128.5l155 -43q-53 -120 -180.5 -195t-286.5 -75q-157 0 -282.5 76t-193.5 202.5t-68 276.5z M260 606h725q-13 152 -116.5 249t-247.5 97t-247.5 -97.5t-113.5 -248.5z" />
<glyph unicode="&#x436;" horiz-adv-x="1558" d="M25 0l340 549l-312 520h201l266 -475h170v475h180v-475h170l267 475h198l-311 -520l342 -549h-201l-264 459h-201v-459h-180v459h-201l-264 -459h-200z" />
<glyph unicode="&#x437;" horiz-adv-x="839" d="M53 135l97 125q92 -125 239 -125q99 0 152 46t53 132q0 98 -70 150.5t-202 52.5h-72v137h72q100 0 158.5 43t58.5 117q0 61 -43 97t-117 36q-105 0 -205 -90l-88 102q120 129 305 129q142 0 228 -71t86 -189q0 -94 -51.5 -158.5t-135.5 -74.5q117 -13 183.5 -88.5 t66.5 -192.5q0 -149 -106.5 -241t-278.5 -92q-205 0 -330 155z" />
<glyph unicode="&#x438;" horiz-adv-x="1204" d="M150 0v1069h176v-815l581 815h146v-1069h-176v799l-572 -799h-155z" />
<glyph unicode="&#x439;" horiz-adv-x="1202" d="M150 0v1069h176v-815l581 815h146v-1069h-176v799l-572 -799h-155zM311 1495h109q4 -80 54.5 -109.5t150.5 -29.5t150 29.5t54 109.5h109q-7 -112 -90 -169.5t-223 -57.5t-223.5 57.5t-90.5 169.5z" />
<glyph unicode="&#x43a;" horiz-adv-x="1024" d="M150 0v1069h176v-465h104l356 465h201l-420 -520l449 -549h-199l-366 469h-125v-469h-176z" />
<glyph unicode="&#x43b;" horiz-adv-x="1130" d="M8 147q46 4 77.5 15t59.5 39t46 69t35 113.5t30 162.5t27 224l32 299h666v-1069h-176v928h-324l-30 -232q-19 -143 -38.5 -245t-45.5 -182t-55 -130t-70.5 -83t-89.5 -47.5t-113 -18.5z" />
<glyph unicode="&#x43c;" horiz-adv-x="1382" d="M150 0v1069h180l362 -678l363 678h178v-1069h-176v754l-314 -580h-102l-315 580v-754h-176z" />
<glyph unicode="&#x43d;" horiz-adv-x="1191" d="M150 0v1069h176v-444h540v444h176v-1069h-176v475h-540v-475h-176z" />
<glyph unicode="&#x43e;" horiz-adv-x="1226" d="M74 532q0 149 67.5 275.5t192 203t278.5 76.5q155 0 280 -76.5t193 -203t68 -275.5q0 -111 -39.5 -211.5t-109.5 -176t-172 -120t-220 -44.5q-157 0 -281 76t-190.5 201.5t-66.5 274.5zM258 530q0 -167 103 -281t251 -114t252.5 116.5t104.5 283.5q0 165 -104.5 281 t-252.5 116q-146 0 -250 -117.5t-104 -284.5z" />
<glyph unicode="&#x43f;" horiz-adv-x="1161" d="M150 0v1069h862v-1069h-176v913h-510v-913h-176z" />
<glyph unicode="&#x440;" horiz-adv-x="1280" d="M150 -436v1505h159v-201q64 100 167 159.5t222 59.5q142 0 259.5 -77.5t182 -203.5t64.5 -271q0 -152 -60 -278.5t-170.5 -201.5t-248.5 -75q-127 0 -229.5 63t-165.5 168v-647h-180zM330 387q45 -108 139.5 -180t200.5 -72q102 0 183.5 58t124 149t42.5 193 q0 163 -106.5 280t-260.5 117q-100 0 -201.5 -72.5t-121.5 -167.5v-305z" />
<glyph unicode="&#x441;" horiz-adv-x="1134" d="M74 537q0 151 66.5 275.5t191.5 199.5t284 75q156 0 273.5 -69.5t177.5 -190.5l-176 -55q-41 75 -115.5 117.5t-163.5 42.5q-150 0 -252 -113t-102 -282q0 -168 104.5 -285t251.5 -117q93 0 176.5 49t108.5 117l176 -53q-48 -119 -173 -193.5t-284 -74.5 q-157 0 -282.5 76.5t-193.5 203.5t-68 277z" />
<glyph unicode="&#x442;" horiz-adv-x="978" d="M43 913v156h893v-156h-358v-913h-177v913h-358z" />
<glyph unicode="&#x443;" horiz-adv-x="1116" d="M25 1069h186l364 -907l332 907h172l-467 -1216q-67 -175 -138 -242.5t-177 -67.5q-54 0 -89.5 12.5t-64.5 43.5v157q63 -55 140 -55q56 0 103 68.5t91 230.5z" />
<glyph unicode="&#x444;" horiz-adv-x="1388" d="M74 528q0 231 141.5 380.5t392.5 174.5v412h180v-414q247 -26 387 -175.5t140 -377.5q0 -226 -140 -371.5t-387 -170.5v-422h-180v420q-252 23 -393 169.5t-141 374.5zM260 537q0 -170 88.5 -268.5t259.5 -118.5v763q-172 -19 -260 -114t-88 -262zM788 150 q166 22 253 120.5t87 266.5q0 164 -86.5 260t-253.5 116v-763z" />
<glyph unicode="&#x445;" horiz-adv-x="1050" d="M25 0l401 532l-399 537h188l293 -393l16 -33l19 33l291 393h190l-399 -537l401 -532h-190l-293 391l-19 31l-16 -31l-293 -391h-190z" />
<glyph unicode="&#x446;" horiz-adv-x="1181" d="M150 0v1069h176v-913h460v913h177v-913h194v-492h-156v336h-851z" />
<glyph unicode="&#x447;" horiz-adv-x="989" d="M82 770v299h178v-264q0 -135 51.5 -192.5t147.5 -57.5q148 0 203 51v463h178v-1069h-178v426q-95 -29 -242 -29q-75 0 -134 20.5t-96.5 54.5t-62.5 82.5t-35 101.5t-10 114z" />
<glyph unicode="&#x448;" horiz-adv-x="1517" d="M150 0v1069h176v-913h344v913h176v-913h346v913h176v-1069h-1218z" />
<glyph unicode="&#x449;" horiz-adv-x="1587" d="M150 0v1069h176v-913h344v913h176v-913h346v913h176v-913h195v-492h-156v336h-1257z" />
<glyph unicode="&#x44a;" horiz-adv-x="1187" d="M43 913v156h514v-369h203q71 0 136.5 -22t119 -64.5t85.5 -111.5t32 -156t-32 -155t-86 -108.5t-119.5 -61.5t-137.5 -21h-377v913h-338zM557 152h201q90 0 143 50t53 144q0 95 -56.5 149t-137.5 54h-203v-397z" />
<glyph unicode="&#x44b;" horiz-adv-x="1331" d="M150 0v1069h176v-369h202q71 0 136.5 -22t119 -64.5t85.5 -111.5t32 -156t-32 -155t-86 -108.5t-119.5 -61.5t-137.5 -21h-376zM326 152h200q90 0 143.5 50t53.5 144q0 95 -57 149t-138 54h-202v-397zM1006 0v1069h176v-1069h-176z" />
<glyph unicode="&#x44c;" horiz-adv-x="956" d="M150 0v1069h176v-369h202q71 0 136.5 -22t119 -64.5t85.5 -111.5t32 -156t-32 -155t-86 -108.5t-119.5 -61.5t-137.5 -21h-376zM326 152h200q90 0 143.5 50t53.5 144q0 95 -57 149t-138 54h-202v-397z" />
<glyph unicode="&#x44d;" horiz-adv-x="1107" d="M51 242l137 63q42 -87 131 -135.5t185 -48.5q136 0 237.5 96.5t118.5 253.5h-532v143h528q-24 145 -120 239.5t-238 94.5q-92 0 -175.5 -42t-134.5 -130l-118 72q58 108 166.5 175t259.5 67q122 0 225 -46.5t170.5 -123.5t105 -177t37.5 -208t-37 -207t-104 -176.5 t-170 -123.5t-227 -46q-155 0 -275 68.5t-170 191.5z" />
<glyph unicode="&#x44e;" horiz-adv-x="1523" d="M147 0v1069h177v-453h147q23 216 155.5 346t325.5 130q145 0 258 -73.5t174.5 -200.5t61.5 -286q0 -251 -139.5 -401.5t-358.5 -150.5q-199 0 -329 131t-150 350h-145v-461h-177zM645 535q0 -190 81 -294t224 -104q151 0 234.5 106t83.5 292t-86 291.5t-232 105.5 q-144 0 -224.5 -107t-80.5 -290z" />
<glyph unicode="&#x44f;" horiz-adv-x="1019" d="M53 0l264 418q-94 34 -151 112.5t-57 194.5q0 152 103 248t259 96h399v-1069h-176v387h-202l-234 -387h-205zM287 725q0 -83 53.5 -132.5t130.5 -49.5h223v370h-213q-76 0 -135 -51t-59 -137z" />
<glyph unicode="&#x450;" d="M74 535q0 112 40.5 213t111.5 176t174 119t221 44t219.5 -44.5t169.5 -119.5t106.5 -174t38.5 -206q0 -46 -4 -70h-887q12 -156 116 -257t245 -101q99 0 185.5 49.5t119.5 128.5l155 -43q-53 -120 -180.5 -195t-286.5 -75q-157 0 -282.5 76t-193.5 202.5t-68 276.5z M248 1538h217l182 -317h-102zM260 606h725q-13 152 -116.5 249t-247.5 97t-247.5 -97.5t-113.5 -248.5z" />
<glyph unicode="&#x451;" d="M74 535q0 112 40.5 213t111.5 176t174 119t221 44t219.5 -44.5t169.5 -119.5t106.5 -174t38.5 -206q0 -46 -4 -70h-887q12 -156 116 -257t245 -101q99 0 185.5 49.5t119.5 128.5l155 -43q-53 -120 -180.5 -195t-286.5 -75q-157 0 -282.5 76t-193.5 202.5t-68 276.5z M256 1376q0 47 35 83t82 36t81.5 -35.5t34.5 -83.5t-34.5 -83.5t-81.5 -35.5t-82 36t-35 83zM260 606h725q-13 152 -116.5 249t-247.5 97t-247.5 -97.5t-113.5 -248.5zM717 1372q0 47 35 83t82 36t81.5 -35.5t34.5 -83.5t-34.5 -83.5t-81.5 -35.5t-82 36t-35 83z" />
<glyph unicode="&#x452;" horiz-adv-x="1216" d="M0 1204v131h150v160h180v-160h463v-131h-463v-461q51 130 161 203.5t250 73.5q165 0 250.5 -114.5t85.5 -334.5v-606q0 -148 -97.5 -247t-242.5 -99q-141 0 -237 86l84 121q50 -47 133 -47q75 0 127.5 50.5t52.5 123.5v577q0 160 -57.5 244t-163.5 84q-120 0 -215.5 -94 t-130.5 -236v-528h-180v1204h-150z" />
<glyph unicode="&#x453;" horiz-adv-x="868" d="M150 0v1069h679v-135h-503v-934h-176zM377 1221l182 317h217l-297 -317h-102z" />
<glyph unicode="&#x454;" horiz-adv-x="1110" d="M74 535q0 108 37.5 208t105 177t170.5 123.5t225 46.5q151 0 259.5 -67t166.5 -175l-118 -72q-51 88 -134.5 130t-175.5 42q-141 0 -237.5 -94.5t-122.5 -239.5h530v-143h-534q18 -157 119.5 -253.5t238.5 -96.5q96 0 185 48.5t131 135.5l137 -63q-50 -123 -170 -191.5 t-275 -68.5q-124 0 -227 46t-170 123.5t-104 176.5t-37 207z" />
<glyph unicode="&#x455;" horiz-adv-x="1011" d="M51 135l78 121q190 -143 387 -143q117 0 185.5 47t68.5 129q0 32 -12.5 56t-33 41t-62 33t-82.5 27.5t-111 28.5q-84 21 -138 38t-101.5 39.5t-73 50t-40 65.5t-14.5 88q0 104 55.5 180.5t147.5 113.5t207 37q117 0 222 -38t179 -103l-82 -108q-133 118 -323 118 q-105 0 -170.5 -44t-65.5 -132q0 -70 51 -100.5t201 -67.5q117 -28 187.5 -51.5t127.5 -58.5t81 -82.5t24 -114.5q0 -149 -115 -237t-309 -88q-130 0 -255.5 40.5t-213.5 114.5z" />
<glyph unicode="&#x456;" horiz-adv-x="471" d="M119 1380q0 47 35 83t82 36t81.5 -35.5t34.5 -83.5q0 -47 -34.5 -82.5t-81.5 -35.5t-82 35.5t-35 82.5zM145 0v1069h181v-1069h-181z" />
<glyph unicode="&#x457;" horiz-adv-x="471" d="M-113 1376q0 47 35 83t82 36t82 -36t35 -83t-35 -83t-82 -36t-82 36t-35 83zM145 0v1069h181v-1069h-181zM348 1372q0 47 35 83t82 36t82 -36t35 -83t-35 -83t-82 -36t-82 36t-35 83z" />
<glyph unicode="&#x458;" horiz-adv-x="471" d="M119 1380q0 47 35 83t82 36t81.5 -35.5t34.5 -83.5q0 -47 -34.5 -82.5t-81.5 -35.5t-82 35.5t-35 82.5zM145 -436v1505h181v-1505h-181z" />
<glyph unicode="&#x459;" horiz-adv-x="1654" d="M8 147q46 4 77.5 15t59.5 39t46 69t35 113.5t30 162.5t27 224l32 299h666v-410h297q59 0 113.5 -21t99.5 -60.5t71.5 -105t26.5 -146.5q0 -158 -92.5 -242t-220.5 -84h-471v928h-324l-30 -232q-19 -143 -38.5 -245t-45.5 -182t-55 -130t-70.5 -83t-89.5 -47.5t-113 -18.5 zM981 152h295q62 0 98.5 45t36.5 129q0 86 -38 134t-95 48h-297v-356z" />
<glyph unicode="&#x45a;" horiz-adv-x="1638" d="M150 0v1069h176v-410h475v410h176v-410h285q59 0 113.5 -21t99.5 -60.5t71.5 -105t26.5 -146.5q0 -158 -92.5 -242t-220.5 -84h-459v504h-475v-504h-176zM977 152h283q62 0 98.5 45t36.5 129q0 86 -38 134t-95 48h-285v-356z" />
<glyph unicode="&#x45b;" horiz-adv-x="1214" d="M-2 1204v131h152v160h180v-160h463v-131h-463v-452q47 124 156.5 196t252.5 72q167 0 252.5 -114t85.5 -335v-571h-180v530q0 161 -57.5 244.5t-167.5 83.5q-119 0 -213 -88t-129 -233v-537h-180v1204h-152z" />
<glyph unicode="&#x45c;" horiz-adv-x="1024" d="M150 0v1069h176v-465h104l356 465h201l-420 -520l449 -549h-199l-366 469h-125v-469h-176zM457 1221l182 317h217l-297 -317h-102z" />
<glyph unicode="&#x45d;" horiz-adv-x="1204" d="M150 0v1069h176v-815l581 815h146v-1069h-176v799l-572 -799h-155zM236 1538h217l182 -317h-103z" />
<glyph unicode="&#x45e;" horiz-adv-x="1116" d="M25 1069h186l364 -907l332 907h172l-524 -1350q-35 -92 -96 -134t-158 -42q-47 0 -111 15v155q52 -14 103 -14q24 0 38 6t37 33t49 91t60 171zM354 1397h97q0 -39 37 -73t85 -34q45 0 80.5 31.5t44.5 75.5h95q0 -78 -63 -132.5t-157 -54.5q-95 0 -157 54.5t-62 132.5z " />
<glyph unicode="&#x45f;" horiz-adv-x="1112" d="M150 0v1071h176v-915h460v915h177v-1071h-320v-336h-176v336h-317z" />
<glyph unicode="&#x490;" horiz-adv-x="1052" d="M180 0v1454h680l14 336h144v-500h-653v-1290h-185z" />
<glyph unicode="&#x491;" horiz-adv-x="870" d="M150 0v1069h546l15 336h118v-477h-503v-928h-176z" />
<glyph unicode="&#x4b0;" horiz-adv-x="1257" d="M-12 1454h205l440 -758l440 758h197l-549 -913v-68h305v-123h-305v-350h-184v350h-301v123h301v62z" />
<glyph unicode="&#x4b1;" horiz-adv-x="1110" d="M2 1069h205l348 -776l356 776h197l-465 -938v-8h305v-123h-305v-436h-184v436h-301v123h301v8z" />
<glyph unicode="&#x1e0c;" horiz-adv-x="1466" d="M174 0v1454h504q171 0 306 -56.5t220.5 -156t130.5 -230t45 -282.5q0 -331 -191 -530t-511 -199h-504zM358 164h320q164 0 282 74.5t176 201t58 289.5q0 252 -137 406.5t-379 154.5h-320v-1126zM563 -264q0 47 35 83t82 36t82 -36t35 -83t-35 -83t-82 -36t-82 36t-35 83z " />
<glyph unicode="&#x1e0d;" horiz-adv-x="1277" d="M76 532q0 150 62 277t173.5 202.5t247.5 75.5q124 0 224.5 -63.5t168.5 -167.5v639h181v-1495h-181v188q-59 -97 -155.5 -152.5t-210.5 -55.5q-145 0 -263 76.5t-182.5 202.5t-64.5 273zM262 530q0 -163 106.5 -279t260.5 -116q103 0 204.5 72t118.5 168v307 q-36 105 -137 177.5t-205 72.5q-101 0 -182 -58.5t-123.5 -150t-42.5 -193.5zM520 -264q0 47 35 83t82 36t82 -36t35 -83t-35 -83t-82 -36t-82 36t-35 83z" />
<glyph unicode="&#x1e24;" horiz-adv-x="1517" d="M174 0v1454h184v-629h801v629h184v-1454h-184v662h-801v-662h-184zM641 -264q0 47 35 83t82 36t81.5 -35.5t34.5 -83.5t-34.5 -83.5t-81.5 -35.5t-82 36t-35 83z" />
<glyph unicode="&#x1e25;" horiz-adv-x="1208" d="M145 0v1495h181v-655q63 115 172 181t237 66q338 0 338 -448v-639h-180v598q0 163 -57.5 245.5t-167.5 82.5q-107 0 -207 -80.5t-135 -200.5v-645h-181zM498 -264q0 48 34.5 83.5t81.5 35.5t82 -36t35 -83t-35 -83t-82 -36t-81.5 35.5t-34.5 83.5z" />
<glyph unicode="&#x1e44;" horiz-adv-x="1576" d="M174 0v1454h143l902 -1132v1130h184v-1452h-156l-889 1110v-1110h-184zM655 1761q0 47 35 83t82 36t82 -36t35 -83t-35 -83t-82 -36t-82 36t-35 83z" />
<glyph unicode="&#x1e45;" horiz-adv-x="1208" d="M145 0v1069h164v-229q63 113 183.5 180t261.5 67q90 0 154 -33t99 -95.5t50.5 -140t15.5 -179.5v-639h-180v598q0 169 -52 248.5t-159 79.5q-112 0 -216 -80.5t-140 -200.5v-645h-181zM520 1376q0 47 35 83t82 36t82 -36t35 -83t-35 -83t-82 -36t-82 36t-35 83z" />
<glyph unicode="&#x1e5a;" horiz-adv-x="1345" d="M174 0v1454h623q93 0 176.5 -40.5t140 -106t90 -149t33.5 -169.5q0 -154 -84.5 -275.5t-220.5 -156.5l352 -557h-209l-332 522h-385v-522h-184zM358 686h441q111 0 181.5 89.5t70.5 213.5q0 122 -79.5 211.5t-185.5 89.5h-428v-604zM551 -264q0 47 35 83t82 36 t81.5 -35.5t34.5 -83.5t-34.5 -83.5t-81.5 -35.5t-82 36t-35 83z" />
<glyph unicode="&#x1e5b;" horiz-adv-x="743" d="M129 -264q0 47 35 83t82 36t81.5 -35.5t34.5 -83.5t-34.5 -83.5t-81.5 -35.5t-82 36t-35 83zM145 0v1069h168v-248q56 111 146.5 180t191.5 76q46 0 60 -2v-164q-136 -3 -239.5 -69.5t-145.5 -182.5v-659h-181z" />
<glyph unicode="&#x1e62;" horiz-adv-x="1247" d="M59 190l88 156q73 -77 213 -135.5t295 -58.5q157 0 242.5 56.5t85.5 164.5q0 35 -10 64t-25.5 51.5t-45.5 42.5t-60 34.5t-78.5 30.5t-91.5 27.5t-109 27.5q-95 23 -161 45.5t-123.5 54t-91.5 70t-53 91.5t-19 122q0 136 68 234.5t185 147t269 48.5q273 0 477 -166 l-86 -149q-55 62 -163.5 106.5t-231.5 44.5q-165 0 -246.5 -62t-81.5 -175q0 -39 9.5 -69t32.5 -54t50.5 -41.5t75.5 -34t95 -28.5t120 -29q98 -22 168 -44.5t135 -56t104 -75.5t62 -102.5t23 -137.5q0 -136 -71 -229t-187.5 -134.5t-270.5 -41.5q-340 0 -592 204zM496 -264 q0 48 34.5 83.5t81.5 35.5t82 -36t35 -83t-35 -83t-82 -36t-81.5 35.5t-34.5 83.5z" />
<glyph unicode="&#x1e63;" horiz-adv-x="1011" d="M51 135l78 121q190 -143 387 -143q117 0 185.5 47t68.5 129q0 32 -12.5 56t-33 41t-62 33t-82.5 27.5t-111 28.5q-84 21 -138 38t-101.5 39.5t-73 50t-40 65.5t-14.5 88q0 104 55.5 180.5t147.5 113.5t207 37q117 0 222 -38t179 -103l-82 -108q-133 118 -323 118 q-105 0 -170.5 -44t-65.5 -132q0 -70 51 -100.5t201 -67.5q117 -28 187.5 -51.5t127.5 -58.5t81 -82.5t24 -114.5q0 -149 -115 -237t-309 -88q-130 0 -255.5 40.5t-213.5 114.5zM399 -264q0 47 35 83t82 36t82 -36t35 -83t-35 -83t-82 -36t-82 36t-35 83z" />
<glyph unicode="&#x1e6c;" horiz-adv-x="1257" d="M35 1290v164h1188v-164h-502v-1290h-184v1290h-502zM510 -264q0 47 35 83t82 36t81.5 -35.5t34.5 -83.5t-34.5 -83.5t-81.5 -35.5t-82 36t-35 83z" />
<glyph unicode="&#x1e6d;" horiz-adv-x="720" d="M51 928v141h146v356h180v-356h239v-141h-239v-664q3 -56 36.5 -84t84.5 -28q82 0 157 45l43 -144q-151 -67 -260 -67q-105 0 -173 56.5t-68 166.5v719h-146zM317 -264q0 47 35 83t82 36t82 -36t35 -83t-35 -83t-82 -36t-82 36t-35 83z" />
<glyph unicode="&#x1e80;" horiz-adv-x="2205" d="M37 1454h207l366 -1182l385 1182h201l399 -1182l365 1182h209l-461 -1454h-192l-418 1174l-408 -1174h-192zM739 1923h217l183 -317h-103z" />
<glyph unicode="&#x1e81;" horiz-adv-x="1724" d="M37 1069h168l309 -868l283 868h131l282 -868l310 868h166l-373 -1069h-193l-258 793l-260 -793h-190zM498 1538h217l182 -317h-102z" />
<glyph unicode="&#x1e82;" horiz-adv-x="2205" d="M37 1454h207l366 -1182l385 1182h201l399 -1182l365 1182h209l-461 -1454h-192l-418 1174l-408 -1174h-192zM1063 1606l182 317h217l-297 -317h-102z" />
<glyph unicode="&#x1e83;" horiz-adv-x="1724" d="M37 1069h168l309 -868l283 868h131l282 -868l310 868h166l-373 -1069h-193l-258 793l-260 -793h-190zM821 1221l183 317h217l-297 -317h-103z" />
<glyph unicode="&#x1e84;" horiz-adv-x="2205" d="M37 1454h207l366 -1182l385 1182h201l399 -1182l365 1182h209l-461 -1454h-192l-418 1174l-408 -1174h-192zM756 1761q0 48 34.5 83.5t81.5 35.5t82 -36t35 -83t-35 -83t-82 -36t-81.5 35.5t-34.5 83.5zM1217 1757q0 48 34.5 83.5t81.5 35.5t82 -36t35 -83t-35 -83 t-82 -36t-81.5 35.5t-34.5 83.5z" />
<glyph unicode="&#x1e85;" horiz-adv-x="1724" d="M37 1069h168l309 -868l283 868h131l282 -868l310 868h166l-373 -1069h-193l-258 793l-260 -793h-190zM514 1376q0 47 35 83t82 36t82 -36t35 -83t-35 -83t-82 -36t-82 36t-35 83zM975 1372q0 47 35 83t82 36t81.5 -35.5t34.5 -83.5t-34.5 -83.5t-81.5 -35.5t-82 36 t-35 83z" />
<glyph unicode="&#x1e92;" horiz-adv-x="1292" d="M66 0v143l938 1147h-920v164h1135v-143l-922 -1147h922v-164h-1153zM530 -264q0 47 35 83t82 36t82 -36t35 -83t-35 -83t-82 -36t-82 36t-35 83z" />
<glyph unicode="&#x1e93;" horiz-adv-x="1009" d="M61 0v117l684 821h-665v131h858v-117l-680 -821h682v-131h-879zM399 -264q0 47 35 83t82 36t82 -36t35 -83t-35 -83t-82 -36t-82 36t-35 83z" />
<glyph unicode="&#x1eb8;" horiz-adv-x="1239" d="M174 0v1454h969v-164h-785v-471h682v-153h-682v-502h803v-164h-987zM530 -264q0 47 35 83t82 36t82 -36t35 -83t-35 -83t-82 -36t-82 36t-35 83z" />
<glyph unicode="&#x1eb9;" d="M74 535q0 112 40.5 213t111.5 176t174 119t221 44t219.5 -44.5t169.5 -119.5t106.5 -174t38.5 -206q0 -46 -4 -70h-887q12 -156 116 -257t245 -101q99 0 185.5 49.5t119.5 128.5l155 -43q-53 -120 -180.5 -195t-286.5 -75q-157 0 -282.5 76t-193.5 202.5t-68 276.5z M260 606h725q-13 152 -116.5 249t-247.5 97t-247.5 -97.5t-113.5 -248.5zM502 -264q0 48 34.5 83.5t81.5 35.5t82 -36t35 -83t-35 -83t-82 -36t-81.5 35.5t-34.5 83.5z" />
<glyph unicode="&#x1ebc;" horiz-adv-x="1239" d="M174 0v1454h969v-164h-785v-471h682v-153h-682v-502h803v-164h-987zM324 1657q0 18 9.5 48.5t30 69t63.5 66t99 27.5q49 0 94.5 -22t87.5 -44t83 -22q29 0 51.5 10t34 23t18.5 28.5t8.5 24.5t1.5 14h107q0 -12 -5.5 -34t-21 -53.5t-38.5 -58.5t-63 -46t-89 -19 q-52 0 -100 21.5t-88.5 43t-76.5 21.5q-31 0 -53 -13.5t-31 -33t-12.5 -32t-3.5 -19.5h-106z" />
<glyph unicode="&#x1ebd;" d="M74 535q0 112 40.5 213t111.5 176t174 119t221 44t219.5 -44.5t169.5 -119.5t106.5 -174t38.5 -206q0 -46 -4 -70h-887q12 -156 116 -257t245 -101q99 0 185.5 49.5t119.5 128.5l155 -43q-53 -120 -180.5 -195t-286.5 -75q-157 0 -282.5 76t-193.5 202.5t-68 276.5z M260 606h725q-13 152 -116.5 249t-247.5 97t-247.5 -97.5t-113.5 -248.5zM279 1272q0 18 9.5 48.5t30 69t63.5 66t99 27.5q49 0 94 -22t87 -44t83 -22q29 0 51.5 10t34 23t18.5 28.5t9 24.5t2 14h107q0 -12 -5.5 -34t-21 -53.5t-38.5 -58.5t-63 -46t-89 -19q-52 0 -100 21.5 t-88.5 43t-76.5 21.5q-31 0 -53 -13.5t-31 -33t-12.5 -32t-3.5 -19.5h-106z" />
<glyph unicode="&#x1eca;" horiz-adv-x="532" d="M150 -264q0 48 34.5 83.5t81.5 35.5t82 -36t35 -83t-35 -83t-82 -36t-81.5 35.5t-34.5 83.5zM174 0v1454h184v-1454h-184z" />
<glyph unicode="&#x1ecb;" horiz-adv-x="471" d="M119 1380q0 47 35 83t82 36t81.5 -35.5t34.5 -83.5q0 -47 -34.5 -82.5t-81.5 -35.5t-82 35.5t-35 82.5zM127 -264q0 47 35 83t82 36t81.5 -35.5t34.5 -83.5t-34.5 -83.5t-81.5 -35.5t-82 36t-35 83zM145 0v1069h181v-1069h-181z" />
<glyph unicode="&#x1ecc;" horiz-adv-x="1531" d="M80 727q0 192 89 361t248.5 272.5t350.5 103.5q119 0 227 -41.5t189.5 -113.5t142 -166t92 -201.5t31.5 -216.5q0 -193 -88.5 -361t-247.5 -271t-350 -103q-148 0 -278 62.5t-217.5 166t-138 236t-50.5 272.5zM266 727q0 -111 36.5 -214.5t100.5 -182.5t158.5 -126.5 t204.5 -47.5q112 0 207.5 49.5t158 130.5t97.5 183t35 208q0 149 -62 278.5t-177.5 210t-258.5 80.5q-112 0 -208 -49t-158.5 -129.5t-98 -182t-35.5 -208.5zM647 -264q0 47 35 83t82 36t82 -36t35 -83t-35 -83t-82 -36t-82 36t-35 83z" />
<glyph unicode="&#x1ecd;" horiz-adv-x="1226" d="M74 532q0 149 67.5 275.5t192 203t278.5 76.5q155 0 280 -76.5t193 -203t68 -275.5q0 -111 -39.5 -211.5t-109.5 -176t-172 -120t-220 -44.5q-157 0 -281 76t-190.5 201.5t-66.5 274.5zM258 530q0 -167 103 -281t251 -114t252.5 116.5t104.5 283.5q0 165 -104.5 281 t-252.5 116q-146 0 -250 -117.5t-104 -284.5zM506 -264q0 47 35 83t82 36t81.5 -35.5t34.5 -83.5t-34.5 -83.5t-81.5 -35.5t-82 36t-35 83z" />
<glyph unicode="&#x1ee4;" horiz-adv-x="1546" d="M154 719v735h184v-735q0 -90 13 -169t44.5 -152.5t80 -126t124.5 -84t172 -31.5q71 0 130.5 16.5t104 46t79 71.5t57.5 90t37.5 105.5t21 114.5t6.5 119v735h185v-735q0 -121 -21 -227t-68.5 -199t-118.5 -159.5t-176 -105t-235 -38.5q-135 0 -242 40.5t-176.5 108.5 t-116 162.5t-66 198t-19.5 219.5zM664 -264q0 48 34.5 83.5t81.5 35.5t82 -36t35 -83t-35 -83t-82 -36t-81.5 35.5t-34.5 83.5z" />
<glyph unicode="&#x1ee5;" horiz-adv-x="1220" d="M135 428v641h180v-606q0 -73 11 -129t36.5 -102.5t73 -71.5t115.5 -25q110 0 205 74.5t139 189.5v670h180v-1069h-174v219q-60 -112 -173 -175.5t-241 -63.5q-352 0 -352 448zM500 -264q0 48 34.5 83.5t81.5 35.5t82 -36t35 -83t-35 -83t-82 -36t-81.5 35.5t-34.5 83.5z " />
<glyph unicode="&#x1ef2;" horiz-adv-x="1341" d="M27 1454h202l441 -758l444 758h201l-553 -924v-530h-184v535zM307 1923h217l183 -317h-103z" />
<glyph unicode="&#x1ef3;" horiz-adv-x="1116" d="M25 1069h186l364 -907l332 907h172l-520 -1350q-31 -79 -100.5 -129.5t-177.5 -50.5q-40 0 -86 10v160q70 -8 94 -8q49 0 82 53.5t106 245.5zM195 1538h217l182 -317h-102z" />
<glyph unicode="&#x1ef8;" horiz-adv-x="1341" d="M27 1454h202l441 -758l444 758h201l-553 -924v-530h-184v535zM328 1657q0 18 9.5 48.5t30 69t63.5 66t99 27.5q49 0 94.5 -22t87.5 -44t83 -22q29 0 51.5 10t34 23t18.5 28.5t8.5 24.5t1.5 14h107q0 -12 -5.5 -34t-21 -53.5t-38.5 -58.5t-63 -46t-89 -19 q-52 0 -99.5 21.5t-88 43t-76.5 21.5q-25 0 -44.5 -9.5t-30 -22.5t-17 -28.5t-8 -24.5t-1.5 -13h-106z" />
<glyph unicode="&#x1ef9;" horiz-adv-x="1116" d="M25 1069h186l364 -907l332 907h172l-520 -1350q-31 -79 -100.5 -129.5t-177.5 -50.5q-40 0 -86 10v160q70 -8 94 -8q49 0 82 53.5t106 245.5zM215 1272q0 18 9.5 48.5t30.5 69t64 66t99 27.5q49 0 94 -22t87 -44t83 -22q29 0 51.5 10t34 23t18.5 28.5t9 24.5t2 14h106 q0 -12 -5.5 -34t-21 -53.5t-38.5 -58.5t-63 -46t-89 -19q-52 0 -99.5 21.5t-88 43t-76.5 21.5q-31 0 -53 -13.5t-31 -33t-12.5 -32t-3.5 -19.5h-107z" />
<glyph unicode="&#x2000;" horiz-adv-x="966" />
<glyph unicode="&#x2001;" horiz-adv-x="1933" />
<glyph unicode="&#x2002;" horiz-adv-x="1200" />
<glyph unicode="&#x2003;" horiz-adv-x="1884" />
<glyph unicode="&#x2004;" horiz-adv-x="644" />
<glyph unicode="&#x2005;" horiz-adv-x="483" />
<glyph unicode="&#x2006;" horiz-adv-x="322" />
<glyph unicode="&#x2007;" horiz-adv-x="322" />
<glyph unicode="&#x2008;" horiz-adv-x="241" />
<glyph unicode="&#x2009;" horiz-adv-x="386" />
<glyph unicode="&#x200a;" horiz-adv-x="107" />
<glyph unicode="&#x2010;" horiz-adv-x="866" d="M131 477v164h604v-164h-604z" />
<glyph unicode="&#x2011;" horiz-adv-x="866" d="M131 477v164h604v-164h-604z" />
<glyph unicode="&#x2012;" horiz-adv-x="866" d="M131 477v164h604v-164h-604z" />
<glyph unicode="&#x2013;" horiz-adv-x="1191" d="M131 477v164h930v-164h-930z" />
<glyph unicode="&#x2014;" horiz-adv-x="1865" d="M131 477v164h1604v-164h-1604z" />
<glyph unicode="&#x2018;" horiz-adv-x="423" d="M33 971h209l149 524h-149z" />
<glyph unicode="&#x2019;" horiz-adv-x="409" d="M23 971h149l209 524h-209z" />
<glyph unicode="&#x201a;" horiz-adv-x="432" d="M18 -268h150l209 524h-209z" />
<glyph unicode="&#x201c;" horiz-adv-x="706" d="M-41 971h209l149 524h-149zM336 971h209l149 524h-149z" />
<glyph unicode="&#x201d;" horiz-adv-x="692" d="M-41 971h150l208 524h-208zM336 971h149l209 524h-209z" />
<glyph unicode="&#x201e;" horiz-adv-x="714" d="M18 -268h150l209 524h-209zM395 -268h150l209 524h-209z" />
<glyph unicode="&#x2020;" horiz-adv-x="862" d="M76 473v164h270v950h172v-950h268v-164h-268v-739h-172v739h-270z" />
<glyph unicode="&#x2021;" horiz-adv-x="866" d="M78 291v164h270v227h-270v164h270v741h172v-741h268v-164h-268v-227h268v-164h-268v-557h-172v557h-270z" />
<glyph unicode="&#x2022;" horiz-adv-x="729" d="M172 711q0 78 57.5 135t135.5 57q79 0 135.5 -57t56.5 -135q0 -80 -56.5 -136.5t-135.5 -56.5q-78 0 -135.5 57t-57.5 136z" />
<glyph unicode="&#x2026;" horiz-adv-x="1093" d="M78 106q0 53 36.5 90t88.5 37q51 0 88 -37.5t37 -89.5q0 -51 -37 -87.5t-88 -36.5q-52 0 -88.5 36.5t-36.5 87.5zM444 106q0 53 36.5 90t88.5 37q51 0 88 -37.5t37 -89.5q0 -51 -37 -87.5t-88 -36.5q-52 0 -88.5 36.5t-36.5 87.5zM813 106q0 53 36.5 90t88.5 37 q51 0 88 -37.5t37 -89.5q0 -51 -37 -87.5t-88 -36.5q-52 0 -88.5 36.5t-36.5 87.5z" />
<glyph unicode="&#x202f;" horiz-adv-x="386" />
<glyph unicode="&#x2030;" horiz-adv-x="2244" d="M88 1176q0 124 92 211.5t223 87.5q132 0 224 -87t92 -212t-92 -212t-224 -87q-131 0 -223 87.5t-92 211.5zM158 68l573 690l549 706l88 -75l-567 -687l-557 -712zM219 1176q0 -83 55 -142t129 -59q76 0 130.5 60.5t54.5 140.5q0 82 -55.5 141t-129.5 59q-76 0 -130 -60 t-54 -140zM807 279q0 124 92 211.5t223 87.5q132 0 224 -87t92 -212t-92 -212t-224 -87q-131 0 -223 87.5t-92 211.5zM938 279q0 -83 54.5 -142t129.5 -59q76 0 130.5 59.5t54.5 141.5t-55.5 141t-129.5 59q-76 0 -130 -60t-54 -140zM1546 279q0 124 92.5 211.5t223.5 87.5 q132 0 223.5 -87t91.5 -212t-91.5 -212t-223.5 -87q-131 0 -223.5 87.5t-92.5 211.5zM1677 279q0 -83 55 -142t130 -59q76 0 130 59.5t54 141.5t-55 141t-129 59q-76 0 -130.5 -60t-54.5 -140z" />
<glyph unicode="&#x2039;" horiz-adv-x="724" d="M82 479v94l518 371v-151l-373 -263l373 -256v-151z" />
<glyph unicode="&#x203a;" horiz-adv-x="724" d="M125 123v151l373 256l-373 263v151l518 -371v-94z" />
<glyph unicode="&#x2044;" horiz-adv-x="344" d="M-434 68l573 690l549 706l88 -75l-567 -687l-557 -712z" />
<glyph unicode="&#x205f;" horiz-adv-x="483" />
<glyph unicode="&#x2070;" horiz-adv-x="956" d="M74 1237q0 76 28.5 151t79.5 135.5t129 98t168 37.5q95 0 174.5 -40t128 -103t75 -136t26.5 -143q0 -77 -28.5 -151.5t-79 -134.5t-128.5 -97t-168 -37q-96 0 -175.5 39t-128 101.5t-75 135t-26.5 144.5zM190 1237q0 -74 32 -143t100 -116.5t157 -47.5q70 0 127.5 29.5 t91.5 76t52 99t18 102.5q0 75 -33 144.5t-100.5 117t-155.5 47.5q-70 0 -127.5 -29.5t-91.5 -76t-52 -99.5t-18 -104z" />
<glyph unicode="&#x2074;" horiz-adv-x="802" d="M47 1032v109l498 518h78v-516h120v-111h-120v-203h-113v203h-463zM164 1143h350v368z" />
<glyph unicode="&#x2075;" horiz-adv-x="778" d="M59 969l72 69q39 -53 103 -82.5t143 -29.5q96 0 158.5 47t62.5 125q0 81 -64.5 127.5t-148.5 46.5q-60 0 -116 -26.5t-87 -69.5h-102q10 51 56 244t54 239h469v-113h-385l-61 -239q69 53 182 53q137 0 228.5 -74t91.5 -190q0 -123 -98.5 -201t-245.5 -78 q-102 0 -186.5 41.5t-125.5 110.5z" />
<glyph unicode="&#x2076;" horiz-adv-x="837" d="M78 1176q0 235 97.5 359t266.5 124q93 0 169.5 -37t117.5 -104l-67 -76q-29 50 -90.5 80t-133.5 30q-115 0 -184 -78.5t-70 -216.5q30 54 100.5 86.5t149.5 32.5q146 0 243 -80t97 -198q0 -122 -100.5 -205.5t-247.5 -83.5q-157 0 -252.5 98.5t-95.5 268.5zM190 1098 q0 -75 71.5 -130t168.5 -55q96 0 166 54.5t70 128.5q0 75 -70 128.5t-168 53.5t-168 -53t-70 -127z" />
<glyph unicode="&#x2077;" horiz-adv-x="747" d="M51 1546v113h684l-489 -830h-129l438 717h-504z" />
<glyph unicode="&#x2078;" horiz-adv-x="829" d="M74 1067q0 74 52 125.5t132 81.5q-67 24 -109.5 66.5t-42.5 101.5q0 64 47 114.5t116.5 76.5t144.5 26t144.5 -25.5t116 -75.5t46.5 -114q0 -59 -42.5 -103t-111.5 -67q84 -29 135.5 -83.5t51.5 -127.5q0 -107 -100.5 -176.5t-241.5 -69.5q-145 0 -241.5 73t-96.5 177z M188 1075q0 -65 70.5 -105t157.5 -40q88 0 155.5 41t67.5 104q0 65 -69.5 106.5t-155.5 41.5q-90 0 -158 -42t-68 -106zM221 1434q0 -54 59.5 -85.5t133.5 -31.5q73 0 133.5 32.5t60.5 84.5q0 53 -58 84.5t-136 31.5q-80 0 -136.5 -32t-56.5 -84z" />
<glyph unicode="&#x2079;" horiz-adv-x="837" d="M63 1370q0 122 100.5 205.5t246.5 83.5q157 0 253.5 -98.5t96.5 -268.5q0 -234 -98 -358.5t-267 -124.5q-93 0 -170.5 38t-118.5 105l70 74q29 -51 89.5 -81t133.5 -30q114 0 183.5 78.5t70.5 216.5q-30 -53 -101 -85.5t-151 -32.5q-144 0 -241 80.5t-97 197.5zM172 1372 q0 -73 70.5 -126.5t167.5 -53.5q96 0 165.5 53t69.5 125q0 75 -70 129.5t-167 54.5q-96 0 -166 -54t-70 -128z" />
<glyph unicode="&#x2080;" horiz-adv-x="956" d="M74 246q0 76 28.5 151t79.5 135.5t129 98t168 37.5q95 0 174.5 -40t128 -103t75 -136t26.5 -143q0 -77 -28.5 -151.5t-79 -134.5t-128.5 -97t-168 -37q-96 0 -175.5 39t-128 101.5t-75 135t-26.5 144.5zM190 246q0 -74 32 -143t100 -116.5t157 -47.5q70 0 127.5 29.5 t91.5 76t52 99t18 102.5q0 75 -33 144.5t-100.5 117t-155.5 47.5q-70 0 -127.5 -29.5t-91.5 -76t-52 -99.5t-18 -104z" />
<glyph unicode="&#x2081;" horiz-adv-x="616" d="M92 565l195 115h114v-842h-114v715l-133 -78z" />
<glyph unicode="&#x2082;" horiz-adv-x="819" d="M70 -164q0 158 61 244t201 141q17 7 62.5 23.5t66 25t55 26.5t50.5 34.5t29 41.5t13 54q0 64 -51.5 102.5t-146.5 38.5q-157 0 -258 -110l-74 82q14 17 39.5 37.5t68 45t106 40.5t134.5 16q150 0 229.5 -69t79.5 -185q0 -36 -10.5 -67t-25 -53.5t-40.5 -43t-46.5 -33 t-54.5 -26.5t-52 -20.5t-51 -16.5q-205 -66 -205 -217h487v-111h-667z" />
<glyph unicode="&#x2083;" horiz-adv-x="808" d="M66 2l65 76q7 -48 79.5 -93.5t176.5 -45.5q98 0 163.5 36.5t65.5 96.5q0 67 -82 104t-223 37h-47v102h47q131 0 204 32t73 95q0 59 -60.5 95t-144.5 36q-81 0 -142 -29.5t-94 -80.5l-75 88q39 59 125 93t186 34q139 0 232.5 -65t93.5 -162q0 -71 -48.5 -117.5 t-140.5 -65.5q95 -13 153 -72.5t58 -140.5q0 -72 -48.5 -125t-125 -78.5t-168.5 -25.5q-129 0 -216 47t-107 129z" />
<glyph unicode="&#x2084;" horiz-adv-x="800" d="M47 41v109l498 518h78v-516h120v-111h-120v-205h-113v205h-463zM164 152h350v368z" />
<glyph unicode="&#x2085;" horiz-adv-x="778" d="M59 -25l72 70q39 -52 103.5 -82.5t142.5 -30.5q95 0 158 48t63 126q0 81 -64.5 128t-148.5 47q-60 0 -116 -27t-87 -70h-102q10 51 56 244.5t54 239.5h469v-113h-385l-61 -240q70 54 182 54q137 0 228.5 -75t91.5 -192q0 -121 -98.5 -198.5t-245.5 -77.5 q-102 0 -186 40.5t-126 108.5z" />
<glyph unicode="&#x2086;" horiz-adv-x="839" d="M80 193q0 233 97.5 357t266.5 124q93 0 169.5 -37.5t117.5 -104.5l-67 -75q-29 51 -90 80.5t-134 29.5q-115 0 -184 -78t-70 -217q30 54 100.5 86.5t149.5 32.5q146 0 243 -80t97 -198q0 -120 -100.5 -203.5t-247.5 -83.5q-157 0 -252.5 98t-95.5 269zM193 113 q0 -75 71 -130t168 -55q96 0 166 54.5t70 128.5q0 75 -70 128.5t-168 53.5t-167.5 -53t-69.5 -127z" />
<glyph unicode="&#x2087;" horiz-adv-x="747" d="M51 555v113h684l-489 -832h-129l440 719h-506z" />
<glyph unicode="&#x2088;" horiz-adv-x="829" d="M74 76q0 74 52 125.5t132 81.5q-67 24 -109.5 66.5t-42.5 101.5q0 64 47 114.5t116.5 76.5t144.5 26t144.5 -25.5t116 -75.5t46.5 -114q0 -59 -42.5 -103t-111.5 -67q85 -31 136 -84.5t51 -126.5q0 -107 -100.5 -176.5t-241.5 -69.5q-145 0 -241.5 73t-96.5 177zM188 82 q0 -64 71 -103.5t157 -39.5q88 0 155.5 41t67.5 104q0 65 -69.5 106t-155.5 41q-90 0 -158 -42t-68 -107zM221 440q0 -52 59.5 -84t133.5 -32q73 0 133.5 33t60.5 85t-58.5 84.5t-135.5 32.5q-80 0 -136.5 -32.5t-56.5 -86.5z" />
<glyph unicode="&#x2089;" horiz-adv-x="841" d="M66 387q0 120 100 203.5t246 83.5q157 0 253.5 -98.5t96.5 -268.5q0 -234 -97.5 -357.5t-267.5 -123.5q-93 0 -170 37t-118 104l69 76q29 -51 89.5 -81t133.5 -30q114 0 183.5 77.5t70.5 215.5q-30 -53 -101.5 -86t-150.5 -33q-144 0 -240.5 81t-96.5 200zM174 387 q0 -73 70.5 -126.5t167.5 -53.5t166 53t69 127t-70 128t-167 54q-96 0 -166 -54t-70 -128z" />
<glyph unicode="&#x20a1;" horiz-adv-x="1140" d="M78 537q0 190 105.5 336.5t283.5 193.5v254h90v-238q40 4 64 4q39 0 59 -4v238h90v-252q102 -27 179 -90t122 -152l-176 -55q-41 75 -115.5 117.5t-163.5 42.5q-150 0 -252 -113t-102 -282q0 -168 104.5 -285t251.5 -117q93 0 176.5 49t108.5 117l176 -53 q-37 -90 -119 -156t-190 -94v-244h-90v230q-36 -4 -57 -4q-26 0 -66 4v-230h-90v246q-176 51 -282.5 199.5t-106.5 337.5z" />
<glyph unicode="&#x20a3;" horiz-adv-x="1253" d="M59 260v139h187v1055h960v-164h-776v-485h653v-154h-653v-252h242v-139h-242v-260h-184v260h-187z" />
<glyph unicode="&#x20a4;" horiz-adv-x="1024" d="M104 115q119 113 176 201.5t66 177.5h-242v106h238q-7 47 -37 121h-201v106h148q-33 61 -49 93.5t-32.5 86.5t-16.5 103q0 147 113.5 250.5t273.5 103.5q115 0 218 -57.5t169 -157.5l-101 -110q-50 80 -129 128t-161 48q-92 0 -155 -63.5t-63 -155.5q0 -26 5 -52 t18.5 -57.5t21 -48.5t30 -58t28.5 -53h397v-106h-348q23 -64 31 -121h317v-106h-317q-7 -84 -53 -166t-144 -187q79 21 152 21q57 0 148.5 -18.5t137.5 -18.5q71 0 175 37l45 -137q-112 -56 -228 -56q-61 0 -174.5 25.5t-177.5 25.5q-117 0 -233 -36z" />
<glyph unicode="&#x20a6;" horiz-adv-x="1748" d="M76 543v106h186v121h-186v107h186v577h144l458 -577h443v575h184v-575h180v-107h-180v-121h180v-106h-180v-543h-156l-436 543h-453v-543h-184v543h-186zM446 649h369l-96 121h-273v-121zM446 877h187l-187 233v-233zM950 770l97 -121h260v121h-357zM1130 543l177 -221 v221h-177z" />
<glyph unicode="&#x20a9;" horiz-adv-x="2326" d="M78 625v106h330l-60 141h-270v107h225l-197 475h199l189 -475h487l-186 467h174l192 -506l195 506h174l-187 -467h488l188 475h201l-199 -475h226v-107h-271l-59 -141h330v-106h-375l-260 -625h-160l-289 686l-291 -686h-159l-262 625h-373zM537 872l55 -141h420l35 82 l-25 59h-485zM635 625l164 -412l170 412h-334zM1278 813l33 -82h422l55 141h-488zM1356 625l172 -412l162 412h-334z" />
<glyph unicode="&#x20ac;" horiz-adv-x="1628" d="M68 530l45 107h159q-6 50 -6 100v21h-149l45 106h114q16 94 53.5 181t98 163t138 132.5t178.5 89t214 32.5q188 0 329.5 -86.5t211.5 -230.5l-145 -94q-31 66 -78 115.5t-102 76.5t-110.5 40t-113.5 13q-98 0 -182.5 -35.5t-144.5 -96t-100 -137t-58 -163.5h645l-45 -106 h-612v-29q0 -49 6 -92h579l-45 -107h-510q54 -166 182 -271t291 -105q80 0 156.5 25.5t148 85t111.5 145.5l154 -84q-44 -104 -140 -182.5t-209.5 -117t-228.5 -38.5q-119 0 -227.5 43.5t-191 118t-143 172t-91.5 208.5h-227z" />
<glyph unicode="&#x20b9;" horiz-adv-x="1021" d="M86 1100v106h387q-77 84 -180 84h-207v164h860v-106h-368q70 -64 110 -142h258v-106h-217q14 -65 14 -111q0 -154 -84.5 -275.5t-220.5 -156.5l353 -557h-209l-435 686h158q111 0 181.5 89.5t70.5 213.5q0 53 -20 111h-451z" />
<glyph unicode="&#x2122;" horiz-adv-x="1556" d="M129 1335v123h512v-123h-195v-475h-122v475h-195zM735 860v594h174l158 -364l158 364h176v-594h-123v426l-160 -340h-100l-160 340v-426h-123z" />
<glyph unicode="&#x2153;" horiz-adv-x="1820" d="M94 1382l195 115h114v-842h-114v715l-133 -78zM229 68l574 690l549 706l88 -75l-568 -687l-557 -712zM1081 166l66 76q7 -49 79.5 -94.5t176.5 -45.5q98 0 163.5 37t65.5 97q0 67 -82 104t-223 37h-47v102h47q131 0 204 32t73 95q0 59 -60.5 95t-144.5 36 q-81 0 -142 -29.5t-94 -80.5l-76 88q39 59 125 93t187 34q139 0 232 -65.5t93 -162.5q0 -143 -188 -182q95 -13 153 -72.5t58 -140.5q0 -72 -48.5 -125t-125 -78.5t-168.5 -25.5q-129 0 -216.5 47t-107.5 129z" />
<glyph unicode="&#x2154;" horiz-adv-x="1841" d="M86 655q0 158 58 244t192 141q16 6 53 20t55.5 21.5t48.5 22t46 27t34 30.5t25.5 39.5t7.5 46.5q0 62 -50 100.5t-142 38.5q-147 0 -250 -108l-70 80q11 17 36.5 38t66 45t102.5 40t131 16q144 0 220.5 -69t76.5 -183q0 -36 -10 -67t-24.5 -53.5t-40 -43.5t-45.5 -34 t-52.5 -27t-50.5 -20.5t-49 -16.5q-197 -67 -197 -217h457v-111h-629zM334 68l573 690l549 706l88 -75l-567 -687l-557 -712zM1104 166l65 76q7 -49 79.5 -94.5t176.5 -45.5q98 0 164 37t66 97q0 67 -82 104t-223 37h-47v102h47q131 0 203.5 32t72.5 95q0 59 -60.5 95 t-144.5 36q-163 0 -235 -110l-76 88q39 59 125 93t186 34q139 0 232.5 -65.5t93.5 -162.5q0 -143 -188 -182q95 -13 152.5 -72.5t57.5 -140.5q0 -72 -48.5 -125t-125 -78.5t-168.5 -25.5q-129 0 -216 47t-107 129z" />
<glyph unicode="&#x215b;" horiz-adv-x="1816" d="M92 1382l195 115h114v-842h-114v715l-133 -78zM254 68l573 690l549 706l88 -75l-567 -687l-557 -712zM1065 240q0 73 52 124.5t132 81.5q-66 24 -108.5 66.5t-42.5 101.5q0 64 46.5 114.5t116 76.5t144.5 26t144.5 -25.5t116 -75.5t46.5 -114q0 -59 -42.5 -103 t-110.5 -67q85 -31 135.5 -84t50.5 -126q0 -107 -100.5 -176.5t-241.5 -69.5q-145 0 -241.5 73t-96.5 177zM1180 246q0 -64 70.5 -104t156.5 -40q87 0 155 41.5t68 104.5q0 65 -69.5 106t-155.5 41q-90 0 -157.5 -42t-67.5 -107zM1212 604q0 -52 60 -84.5t133 -32.5 t133.5 33.5t60.5 85.5t-58.5 84.5t-135.5 32.5q-80 0 -136.5 -32.5t-56.5 -86.5z" />
<glyph unicode="&#x215c;" horiz-adv-x="1826" d="M84 819l66 78q7 -48 79.5 -93.5t176.5 -45.5q98 0 163.5 36.5t65.5 96.5q0 67 -81.5 103t-223.5 36h-47v105h47q131 0 203.5 32t72.5 95q0 59 -60.5 95t-144.5 36q-81 0 -141.5 -30t-93.5 -81l-76 88q39 59 125 93t186 34q140 0 233 -65.5t93 -163.5q0 -70 -48.5 -116 t-139.5 -65q95 -13 153 -72.5t58 -140.5q0 -72 -48.5 -125.5t-125 -79.5t-168.5 -26q-128 0 -216 47.5t-108 128.5zM307 68l574 690l549 706l88 -75l-568 -687l-557 -712zM1075 240q0 73 52.5 124.5t132.5 81.5q-67 24 -109.5 66.5t-42.5 101.5q0 64 46.5 114.5t116 76.5 t144.5 26t144.5 -25.5t116 -75.5t46.5 -114q0 -59 -42.5 -103t-110.5 -67q85 -31 135.5 -84t50.5 -126q0 -107 -100.5 -176.5t-241.5 -69.5q-145 0 -241.5 73t-96.5 177zM1190 246q0 -64 70.5 -104t156.5 -40q87 0 155 41.5t68 104.5q0 65 -69.5 106t-155.5 41 q-90 0 -157.5 -42t-67.5 -107zM1223 604q0 -52 59.5 -84.5t132.5 -32.5t134 33.5t61 85.5t-59 84.5t-136 32.5q-80 0 -136 -32.5t-56 -86.5z" />
<glyph unicode="&#x215d;" horiz-adv-x="1841" d="M72 805l71 69q39 -53 103 -82.5t143 -29.5q96 0 158.5 47t62.5 125q0 81 -64.5 127.5t-148.5 46.5q-60 0 -115.5 -26.5t-86.5 -69.5h-103q10 52 56.5 244.5t54.5 238.5h469v-113h-385l-62 -239q69 53 183 53q137 0 228 -74t91 -190q0 -123 -98.5 -201t-245.5 -78 q-102 0 -185.5 41.5t-125.5 110.5zM299 68l573 690l549 706l88 -75l-567 -687l-557 -712zM1090 240q0 73 52 124.5t132 81.5q-67 24 -109.5 66.5t-42.5 101.5q0 64 47 114.5t116.5 76.5t144.5 26t144.5 -25.5t116 -75.5t46.5 -114q0 -59 -42.5 -103t-111.5 -67 q85 -31 135.5 -84t50.5 -126q0 -107 -100.5 -176.5t-241.5 -69.5q-144 0 -240.5 73t-96.5 177zM1204 246q0 -64 71 -104t157 -40q87 0 155 41.5t68 104.5q0 65 -69.5 106t-155.5 41q-90 0 -158 -42t-68 -107zM1237 604q0 -52 60 -84.5t133 -32.5t133.5 33.5t60.5 85.5 t-58.5 84.5t-135.5 32.5q-80 0 -136.5 -32.5t-56.5 -86.5z" />
<glyph unicode="&#x215e;" horiz-adv-x="1789" d="M84 1382v113h684l-489 -829h-129l438 716h-504zM156 68l573 690l549 706l88 -75l-567 -687l-557 -712zM1036 240q0 73 52.5 124.5t132.5 81.5q-67 24 -109.5 66.5t-42.5 101.5q0 64 46.5 114.5t116 76.5t144.5 26t144.5 -25.5t116 -75.5t46.5 -114q0 -59 -42.5 -103 t-110.5 -67q85 -31 135.5 -84t50.5 -126q0 -107 -100.5 -176.5t-241.5 -69.5q-145 0 -241.5 73t-96.5 177zM1151 246q0 -64 70.5 -104t156.5 -40q88 0 156 41.5t68 104.5q0 65 -70 106t-156 41q-90 0 -157.5 -42t-67.5 -107zM1184 604q0 -52 59.5 -84.5t132.5 -32.5 t134 33.5t61 85.5t-59 84.5t-136 32.5q-80 0 -136 -32.5t-56 -86.5z" />
<glyph unicode="&#x2190;" horiz-adv-x="1863" d="M131 696l758 760l104 -106l-577 -578h1360v-149h-1360l579 -578l-106 -106z" />
<glyph unicode="&#x2191;" horiz-adv-x="1863" d="M195 762l757 758l760 -758l-106 -105l-578 578v-1360h-149v1360l-578 -580z" />
<glyph unicode="&#x2192;" horiz-adv-x="1863" d="M131 623v149h1360l-578 578l105 106l758 -760l-758 -757l-107 106l580 578h-1360z" />
<glyph unicode="&#x2193;" horiz-adv-x="1863" d="M195 633l106 106l578 -579v1360h149v-1360l578 577l106 -104l-760 -758z" />
<glyph unicode="&#x2196;" horiz-adv-x="1863" d="M319 207v1071l1074 2v-150h-818l961 -962l-104 -105l-963 961l2 -817h-152z" />
<glyph unicode="&#x2197;" horiz-adv-x="1863" d="M319 168l961 962h-817v150l1073 -2v-1071h-152l2 817l-962 -961z" />
<glyph unicode="&#x2198;" horiz-adv-x="1863" d="M319 1176l105 104l962 -961l-2 818h152v-1071l-1073 -3v150h817z" />
<glyph unicode="&#x2199;" horiz-adv-x="1863" d="M319 66v1071h152l-2 -818l963 961l104 -104l-961 -963h818v-150z" />
<glyph unicode="&#x2202;" horiz-adv-x="1150" d="M53 399q0 95 41 185t108.5 157t160.5 107.5t192 40.5q115 0 200.5 -52.5t116.5 -140.5q9 88 9 162q0 242 -76 345.5t-221 103.5q-85 0 -166 -30t-121 -77l-100 109q65 74 172.5 114.5t230.5 40.5q227 0 339 -154.5t112 -492.5q0 -404 -149 -620.5t-400 -216.5 q-194 0 -321.5 121t-127.5 298zM225 414q0 -118 80.5 -198.5t200.5 -80.5q133 0 233.5 100t100.5 232q0 117 -81 196.5t-200 79.5q-133 0 -233.5 -98t-100.5 -231z" />
<glyph unicode="&#x2206;" horiz-adv-x="1265" d="M16 0v137l543 1317h152l538 -1317v-137h-1233zM221 164h826l-412 1077z" />
<glyph unicode="&#x220f;" horiz-adv-x="1484" d="M66 1290v164h1353v-164h-164v-1474h-174v1474h-678v-1474h-174v1474h-163z" />
<glyph unicode="&#x2211;" horiz-adv-x="1118" d="M66 0v129l456 600l-442 610v115h938v-149h-692v-9l391 -540l-434 -584v-8h766v-164h-983z" />
<glyph unicode="&#x221a;" horiz-adv-x="950" d="M20 616v132h322l129 -590l229 1460h172l-311 -1618h-192l-176 616h-173z" />
<glyph unicode="&#x221e;" horiz-adv-x="1404" d="M88 721q0 140 94.5 239t233.5 99q56 0 101 -14.5t78.5 -42.5t57.5 -58.5t49 -73.5q52 91 116 140t171 49q146 0 236 -98.5t90 -241.5q0 -140 -94.5 -239t-233.5 -99q-70 0 -125.5 24.5t-89 59t-65.5 86.5q-31 -52 -64.5 -86t-92 -59t-134.5 -25q-127 0 -227.5 101.5 t-100.5 238.5zM231 721q0 -97 55.5 -147t129.5 -50q80 0 130.5 49.5t98.5 143.5q-48 96 -98 146t-131 50q-75 0 -130 -48.5t-55 -143.5zM764 709q45 -89 95.5 -137t129.5 -48q74 0 128 50t54 147q0 95 -54 143.5t-128 48.5q-44 0 -79 -15t-62 -46.5t-45 -63t-39 -79.5z" />
<glyph unicode="&#x222b;" horiz-adv-x="647" d="M16 -299l43 125q66 -25 111 -25q53 0 85.5 34.5t29.5 92.5l-86 1526q-5 98 53.5 161.5t163.5 63.5q48 0 110 -12t107 -31l-43 -125q-66 25 -113 25q-54 0 -86 -34t-29 -93l84 -1526q6 -105 -51.5 -165t-163.5 -60q-110 0 -215 43z" />
<glyph unicode="&#x2248;" horiz-adv-x="890" d="M129 444q63 97 176 97q49 0 94 -22t87 -44t83 -22q79 0 115 45l78 -92q-69 -84 -189 -84q-52 0 -99.5 21.5t-88 43t-76.5 21.5q-70 0 -98 -54zM129 715q62 96 176 96q49 0 94 -22t87 -44t83 -22q76 0 115 45l78 -82q-68 -94 -189 -94q-52 0 -99.5 21.5t-88 43t-76.5 21.5 q-71 0 -98 -53z" />
<glyph unicode="&#x2260;" horiz-adv-x="985" d="M180 367v122h219l84 152h-303v123h369l137 250l78 -45l-113 -205h154v-123h-219l-84 -152h303v-122h-371l-135 -250l-78 45l111 205h-152z" />
<glyph unicode="&#x2264;" horiz-adv-x="923" d="M115 705v94l676 334v-172l-414 -205l414 -199v-180zM117 104v148h680v-148h-680z" />
<glyph unicode="&#x2265;" horiz-adv-x="923" d="M127 104v148h680v-148h-680zM133 377v180l414 199l-414 205v172l676 -334v-94z" />
<glyph unicode="&#x25ca;" horiz-adv-x="1069" d="M57 750l381 745h193l381 -745l-381 -750h-193zM236 768l315 -635l299 592l-318 631z" />
<glyph unicode="&#x25fc;" horiz-adv-x="1064" d="M0 0v1065h1065v-1065h-1065z" />
<glyph unicode="&#xfb00;" horiz-adv-x="1230" d="M57 801v141h146v8q0 236 86 362t250 126q61 0 111 -9t76 -18.5t65 -28.5q99 134 264 134q53 0 99.5 -9.5t70.5 -19t53.5 -25t36.5 -18.5l-78 -127q-1 1 -16.5 10.5t-20.5 12t-20.5 10t-27 10t-29 5.5t-36.5 3q-72 0 -122 -42t-70.5 -101t-20.5 -127v-156h322v-141h-322 v-801h-180v801h-311v-801h-180v801h-146zM383 942h311q0 61 9 168t24 135q-31 21 -77.5 33t-84.5 12q-100 0 -141 -80t-41 -258v-10z" />
<glyph unicode="&#xfb01;" horiz-adv-x="1075" d="M57 801v141h146v127q0 213 103.5 330t291.5 117q48 0 94.5 -8.5t81 -21t67.5 -29t52 -29t37 -25.5t20 -14l-102 -113q-107 94 -240 94q-117 0 -171 -73.5t-54 -227.5v-127h547v-942h-180v801h-367v-801h-180v801h-146z" />
<glyph unicode="&#xfb02;" horiz-adv-x="1241" d="M57 801v141h146v164q0 190 101.5 300t291.5 110t290.5 -94.5t100.5 -250.5v-899q0 -23 8.5 -45.5t30 -44t58 -26t92.5 7.5l41 8l30 -156l-26 -4q-83 -17 -145.5 -18t-108.5 18.5t-76.5 46t-49.5 65t-26.5 75.5t-7.5 77v857q0 42 -10.5 80t-33 72t-65 54.5t-100.5 20.5 q-108 0 -161.5 -73.5t-53.5 -199.5v-145h211v-141h-211v-801h-180v801h-146z" />
<glyph unicode="&#xfb03;" horiz-adv-x="1566" d="M57 801v141h146v8q0 244 86 366t250 122q123 0 241 -56q111 134 307 134q173 0 351 -113l-90 -127q-40 35 -107.5 59.5t-136.5 24.5q-114 0 -172 -77.5t-58 -184.5v-156h547v-942h-180v801h-367v-801h-180v801h-311v-801h-180v801h-146zM383 942h311q0 134 7.5 199.5 t25.5 103.5q-64 43 -156 43q-102 0 -145 -77.5t-43 -258.5v-10z" />
<glyph unicode="&#xfb04;" horiz-adv-x="1738" d="M57 801v141h146v8q0 243 79 365.5t267 122.5q113 0 231 -56q103 134 314 134q189 0 289 -94.5t100 -250.5v-899q0 -64 34.5 -101t102.5 -21l88 20l35 -145l-180 -35q-122 -13 -191 71t-69 236v836q0 42 -10.5 80t-32.5 72t-64.5 54.5t-99.5 20.5q-45 0 -80 -15t-57 -35 t-38 -57.5t-23.5 -65.5t-11.5 -76.5t-4.5 -73.5t-0.5 -72v-15v-8h209v-141h-209v-801h-181v801h-317v-801h-180v801h-146zM383 942h317q0 67 6.5 173.5t18.5 131.5q-52 35 -141 35q-95 0 -148 -67.5t-53 -161.5v-111z" />
<glyph horiz-adv-x="1204" d="M27 0l508 1128h135l506 -1128h-175l-143 317h-512l-143 -317h-176zM383 461h434l-215 465z" />
<glyph horiz-adv-x="1204" d="M27 0l508 1128h135l506 -1128h-175l-143 317h-512l-143 -317h-176zM383 461h434l-215 465zM561 1221l182 317h218l-297 -317h-103z" />
<glyph horiz-adv-x="1204" d="M27 0l508 1128h135l506 -1128h-175l-143 317h-512l-143 -317h-176zM307 1538h137q0 -72 47 -127t107 -55q59 0 104 52t52 130h135q0 -127 -84 -213t-207 -86t-207 86t-84 213zM383 461h434l-215 465z" />
<glyph horiz-adv-x="1204" d="M27 0l508 1128h135l506 -1128h-175l-143 317h-512l-143 -317h-176zM227 1221l297 317h156l297 -317h-217l-158 233l-158 -233h-217zM383 461h434l-215 465z" />
<glyph horiz-adv-x="1204" d="M27 0l508 1128h135l506 -1128h-175l-143 317h-512l-143 -317h-176zM254 1376q0 47 35 83t82 36t81.5 -35.5t34.5 -83.5t-34.5 -83.5t-81.5 -35.5t-82 36t-35 83zM383 461h434l-215 465zM715 1372q0 48 34.5 83.5t81.5 35.5t82 -36t35 -83t-35 -83t-82 -36t-81.5 35.5 t-34.5 83.5z" />
<glyph horiz-adv-x="1204" d="M27 0l508 1128h135l506 -1128h-175l-143 317h-512l-143 -317h-176zM238 1538h217l182 -317h-102zM383 461h434l-215 465z" />
<glyph horiz-adv-x="1204" d="M27 0l508 1128h135l506 -1128h-175l-143 317h-512l-143 -317h-176zM303 1339v119h598v-119h-598zM383 461h434l-215 465z" />
<glyph horiz-adv-x="1204" d="M27 0l508 1128h135l506 -1128h-175l-143 317h-512l-143 -317h-176zM383 461h434l-215 465zM895 -213q0 126 219 250l53 -37q-89 -55 -128.5 -99.5t-39.5 -88.5q0 -76 113 -88l-45 -95q-83 15 -127.5 57.5t-44.5 100.5z" />
<glyph horiz-adv-x="1204" d="M27 0l508 1128h135l506 -1128h-175l-143 317h-512l-143 -317h-176zM383 461h434l-215 465zM408 1380q0 72 52 116t134 44q85 0 136.5 -44t51.5 -116q0 -73 -51.5 -116t-136.5 -43q-83 0 -134.5 43t-51.5 116zM502 1380q0 -37 27 -62.5t65 -25.5t67 25.5t29 62.5 q0 39 -27 63.5t-69 24.5q-38 0 -65 -24.5t-27 -63.5z" />
<glyph horiz-adv-x="1204" d="M27 0l508 1128h135l506 -1128h-175l-143 317h-512l-143 -317h-176zM258 1272q0 18 9.5 48.5t30.5 69t64 66t99 27.5q49 0 94 -22t87 -44t83 -22q29 0 51.5 10t34 23t18.5 28.5t9 24.5t2 14h106q0 -12 -5.5 -34t-21 -53.5t-38.5 -58.5t-63 -46t-89 -19q-52 0 -99.5 21.5 t-88 43t-76.5 21.5q-31 0 -53 -13.5t-31 -33t-12.5 -32t-3.5 -19.5h-107zM383 461h434l-215 465z" />
<glyph horiz-adv-x="1196" d="M162 0v1128h616q123 0 201 -87.5t78 -200.5q0 -85 -46 -156t-128 -104q105 -30 166 -106.5t61 -182.5q0 -130 -105 -210.5t-260 -80.5h-583zM326 141h419q82 0 140.5 54t58.5 127t-54 127.5t-132 54.5h-432v-363zM326 637h385q78 0 131 50t53 124q0 75 -49.5 124.5 t-124.5 49.5h-395v-348z" />
<glyph horiz-adv-x="1216" d="M82 573q0 103 40.5 202.5t113 180t187 130t249.5 49.5q160 0 281 -67t180 -179l-129 -86q-50 97 -142 140.5t-196 43.5q-98 0 -179.5 -37t-132.5 -97.5t-78.5 -135t-27.5 -152.5q0 -112 54 -210t151.5 -158t216.5 -60q104 0 201.5 49t146.5 144l137 -78 q-58 -121 -199 -191.5t-294 -70.5q-123 0 -233 50.5t-185 132.5t-118.5 187t-43.5 213z" />
<glyph horiz-adv-x="1216" d="M82 573q0 103 40.5 202.5t113 180t187 130t249.5 49.5q160 0 281 -67t180 -179l-129 -86q-50 97 -142 140.5t-196 43.5q-98 0 -179.5 -37t-132.5 -97.5t-78.5 -135t-27.5 -152.5q0 -112 54 -210t151.5 -158t216.5 -60q104 0 201.5 49t146.5 144l137 -78 q-58 -121 -199 -191.5t-294 -70.5q-123 0 -233 50.5t-185 132.5t-118.5 187t-43.5 213zM610 1221l183 317h217l-297 -317h-103z" />
<glyph horiz-adv-x="1216" d="M82 573q0 103 40.5 202.5t113 180t187 130t249.5 49.5q160 0 281 -67t180 -179l-129 -86q-50 97 -142 140.5t-196 43.5q-98 0 -179.5 -37t-132.5 -97.5t-78.5 -135t-27.5 -152.5q0 -112 54 -210t151.5 -158t216.5 -60q104 0 201.5 49t146.5 144l137 -78 q-58 -121 -199 -191.5t-294 -70.5q-123 0 -233 50.5t-185 132.5t-118.5 187t-43.5 213zM276 1538h218l157 -233l158 233h217l-297 -317h-156z" />
<glyph horiz-adv-x="1216" d="M82 573q0 103 40.5 202.5t113 180t187 130t249.5 49.5q160 0 281 -67t180 -179l-129 -86q-50 97 -142 140.5t-196 43.5q-98 0 -179.5 -37t-132.5 -97.5t-78.5 -135t-27.5 -152.5q0 -112 54 -210t151.5 -158t216.5 -60q104 0 201.5 49t146.5 144l137 -78 q-58 -121 -199 -191.5t-294 -70.5q-123 0 -233 50.5t-185 132.5t-118.5 187t-43.5 213zM391 -334l41 76q76 -39 180 -39q117 0 117 72q0 71 -104 71q-73 0 -164 -26l119 223l79 -29l-71 -112q29 10 74 10q74 0 117.5 -33.5t43.5 -97.5q0 -72 -58 -113t-167 -41 q-104 0 -207 39z" />
<glyph horiz-adv-x="1216" d="M82 573q0 103 40.5 202.5t113 180t187 130t249.5 49.5q160 0 281 -67t180 -179l-129 -86q-50 97 -142 140.5t-196 43.5q-98 0 -179.5 -37t-132.5 -97.5t-78.5 -135t-27.5 -152.5q0 -112 54 -210t151.5 -158t216.5 -60q104 0 201.5 49t146.5 144l137 -78 q-58 -121 -199 -191.5t-294 -70.5q-123 0 -233 50.5t-185 132.5t-118.5 187t-43.5 213zM276 1221l297 317h156l297 -317h-217l-158 233l-157 -233h-218z" />
<glyph horiz-adv-x="1216" d="M82 573q0 103 40.5 202.5t113 180t187 130t249.5 49.5q160 0 281 -67t180 -179l-129 -86q-50 97 -142 140.5t-196 43.5q-98 0 -179.5 -37t-132.5 -97.5t-78.5 -135t-27.5 -152.5q0 -112 54 -210t151.5 -158t216.5 -60q104 0 201.5 49t146.5 144l137 -78 q-58 -121 -199 -191.5t-294 -70.5q-123 0 -233 50.5t-185 132.5t-118.5 187t-43.5 213zM535 1376q0 48 34.5 83.5t81.5 35.5t82 -36t35 -83t-35 -83t-82 -36t-81.5 35.5t-34.5 83.5z" />
<glyph horiz-adv-x="1280" d="M162 0v1128h432q145 0 260.5 -43.5t189 -120.5t112 -178t38.5 -219q0 -258 -164 -412.5t-436 -154.5h-432zM326 145h268q206 0 319 117t113 305q0 187 -114.5 301.5t-317.5 114.5h-268v-838z" />
<glyph horiz-adv-x="1280" d="M162 0v1128h432q145 0 260.5 -43.5t189 -120.5t112 -178t38.5 -219q0 -258 -164 -412.5t-436 -154.5h-432zM225 1538h217l158 -233l158 233h217l-297 -317h-156zM326 145h268q206 0 319 117t113 305q0 187 -114.5 301.5t-317.5 114.5h-268v-838z" />
<glyph horiz-adv-x="1280" d="M68 526v136h489v-136h-489zM162 0v1128h432q145 0 260.5 -43.5t189 -120.5t112 -178t38.5 -219q0 -258 -164 -412.5t-436 -154.5h-432zM326 145h268q206 0 319 117t113 305q0 187 -114.5 301.5t-317.5 114.5h-268v-838z" />
<glyph horiz-adv-x="1085" d="M162 0v1128h827v-145h-663v-340h577v-135h-577v-363h680v-145h-844z" />
<glyph horiz-adv-x="1085" d="M162 0v1128h827v-145h-663v-340h577v-135h-577v-363h680v-145h-844zM479 1221l183 317h217l-297 -317h-103z" />
<glyph horiz-adv-x="1085" d="M162 0v1128h827v-145h-663v-340h577v-135h-577v-363h680v-145h-844zM291 1538h137q0 -72 47 -127t107 -55q59 0 103.5 52t51.5 130h135q0 -127 -83.5 -213t-206.5 -86t-207 86t-84 213z" />
<glyph horiz-adv-x="1085" d="M162 0v1128h827v-145h-663v-340h577v-135h-577v-363h680v-145h-844zM211 1538h217l158 -233l157 233h218l-297 -317h-156z" />
<glyph horiz-adv-x="1085" d="M162 0v1128h827v-145h-663v-340h577v-135h-577v-363h680v-145h-844zM211 1221l297 317h156l297 -317h-218l-157 233l-158 -233h-217z" />
<glyph horiz-adv-x="1085" d="M162 0v1128h827v-145h-663v-340h577v-135h-577v-363h680v-145h-844zM238 1376q0 48 34.5 83.5t81.5 35.5t82 -36t35 -83t-35 -83t-82 -36t-81.5 35.5t-34.5 83.5zM698 1372q0 47 35 83t82 36t82 -36t35 -83t-35 -83t-82 -36t-82 36t-35 83z" />
<glyph horiz-adv-x="1085" d="M162 0v1128h827v-145h-663v-340h577v-135h-577v-363h680v-145h-844zM469 1376q0 47 35 83t82 36t81.5 -35.5t34.5 -83.5t-34.5 -83.5t-81.5 -35.5t-82 36t-35 83z" />
<glyph horiz-adv-x="1085" d="M162 0v1128h827v-145h-663v-340h577v-135h-577v-363h680v-145h-844zM221 1538h217l183 -317h-103z" />
<glyph horiz-adv-x="1085" d="M162 0v1128h827v-145h-663v-340h577v-135h-577v-363h680v-145h-844zM287 1339v119h598v-119h-598z" />
<glyph horiz-adv-x="1085" d="M162 0v1128h827v-145h-663v-340h577v-135h-577v-363h680v-145h-844zM733 -213q0 126 219 250l54 -37q-89 -55 -128.5 -99.5t-39.5 -88.5q0 -76 112 -88l-45 -95q-83 15 -127.5 57.5t-44.5 100.5z" />
<glyph horiz-adv-x="1046" d="M162 0v1128h819v-145h-655v-352h553v-137h-553v-494h-164z" />
<glyph horiz-adv-x="1267" d="M84 569q0 113 43.5 217t119 181.5t183 123.5t229.5 46q169 0 296 -69.5t190 -182.5l-129 -74q-52 94 -150 146.5t-213 52.5q-120 0 -219 -66t-152 -168t-53 -213q0 -114 60 -216.5t162.5 -165t218.5 -62.5q157 0 277 91t120 220h-305v129h461q0 -126 -32 -225 t-85.5 -162.5t-127.5 -104.5t-153 -58t-168 -17q-119 0 -226.5 49t-183 129t-119.5 184.5t-44 214.5z" />
<glyph horiz-adv-x="1267" d="M84 569q0 113 43.5 217t119 181.5t183 123.5t229.5 46q169 0 296 -69.5t190 -182.5l-129 -74q-52 94 -150 146.5t-213 52.5q-120 0 -219 -66t-152 -168t-53 -213q0 -114 60 -216.5t162.5 -165t218.5 -62.5q157 0 277 91t120 220h-305v129h461q0 -126 -32 -225 t-85.5 -162.5t-127.5 -104.5t-153 -58t-168 -17q-119 0 -226.5 49t-183 129t-119.5 184.5t-44 214.5zM551 1221l182 317h217l-297 -317h-102z" />
<glyph horiz-adv-x="1267" d="M84 569q0 113 43.5 217t119 181.5t183 123.5t229.5 46q169 0 296 -69.5t190 -182.5l-129 -74q-52 94 -150 146.5t-213 52.5q-120 0 -219 -66t-152 -168t-53 -213q0 -114 60 -216.5t162.5 -165t218.5 -62.5q157 0 277 91t120 220h-305v129h461q0 -126 -32 -225 t-85.5 -162.5t-127.5 -104.5t-153 -58t-168 -17q-119 0 -226.5 49t-183 129t-119.5 184.5t-44 214.5zM340 1538h137q0 -72 47 -127t107 -55q59 0 103.5 52t51.5 130h136q0 -127 -84 -213t-207 -86t-207 86t-84 213z" />
<glyph horiz-adv-x="1267" d="M84 569q0 113 43.5 217t119 181.5t183 123.5t229.5 46q169 0 296 -69.5t190 -182.5l-129 -74q-52 94 -150 146.5t-213 52.5q-120 0 -219 -66t-152 -168t-53 -213q0 -114 60 -216.5t162.5 -165t218.5 -62.5q157 0 277 91t120 220h-305v129h461q0 -126 -32 -225 t-85.5 -162.5t-127.5 -104.5t-153 -58t-168 -17q-119 0 -226.5 49t-183 129t-119.5 184.5t-44 214.5zM260 1221l297 317h156l297 -317h-217l-158 233l-158 -233h-217z" />
<glyph horiz-adv-x="1267" d="M84 569q0 113 43.5 217t119 181.5t183 123.5t229.5 46q169 0 296 -69.5t190 -182.5l-129 -74q-52 94 -150 146.5t-213 52.5q-120 0 -219 -66t-152 -168t-53 -213q0 -114 60 -216.5t162.5 -165t218.5 -62.5q157 0 277 91t120 220h-305v129h461q0 -126 -32 -225 t-85.5 -162.5t-127.5 -104.5t-153 -58t-168 -17q-119 0 -226.5 49t-183 129t-119.5 184.5t-44 214.5zM467 -438h102l140 338h-144z" />
<glyph horiz-adv-x="1267" d="M84 569q0 113 43.5 217t119 181.5t183 123.5t229.5 46q169 0 296 -69.5t190 -182.5l-129 -74q-52 94 -150 146.5t-213 52.5q-120 0 -219 -66t-152 -168t-53 -213q0 -114 60 -216.5t162.5 -165t218.5 -62.5q157 0 277 91t120 220h-305v129h461q0 -126 -32 -225 t-85.5 -162.5t-127.5 -104.5t-153 -58t-168 -17q-119 0 -226.5 49t-183 129t-119.5 184.5t-44 214.5zM518 1376q0 47 35 83t82 36t82 -36t35 -83t-35 -83t-82 -36t-82 36t-35 83z" />
<glyph horiz-adv-x="1323" d="M162 0v1128h164v-477h671v477h164v-1128h-164v504h-671v-504h-164z" />
<glyph horiz-adv-x="1323" d="M162 0v1128h164v-477h671v477h164v-1128h-164v504h-671v-504h-164zM287 1221l297 317h155l297 -317h-217l-157 233l-158 -233h-217z" />
<glyph horiz-adv-x="487" d="M162 0v1128h164v-1128h-164z" />
<glyph horiz-adv-x="487" d="M162 0v1128h164v-1128h-164zM203 1221l182 317h217l-297 -317h-102z" />
<glyph horiz-adv-x="487" d="M-131 1221l297 317h156l296 -317h-217l-157 233l-158 -233h-217zM162 0v1128h164v-1128h-164z" />
<glyph horiz-adv-x="487" d="M-104 1376q0 48 34.5 83.5t81.5 35.5t82 -36t35 -83t-35 -83t-82 -36t-81.5 35.5t-34.5 83.5zM162 0v1128h164v-1128h-164zM356 1372q0 47 35 83t82 36t82 -36t35 -83t-35 -83t-82 -36t-82 36t-35 83z" />
<glyph horiz-adv-x="487" d="M127 1376q0 47 35 83t82 36t81.5 -35.5t34.5 -83.5t-34.5 -83.5t-81.5 -35.5t-82 36t-35 83zM162 0v1128h164v-1128h-164z" />
<glyph horiz-adv-x="487" d="M-121 1538h217l183 -317h-103zM162 0v1128h164v-1128h-164z" />
<glyph horiz-adv-x="487" d="M-55 1339v119h598v-119h-598zM162 0v1128h164v-1128h-164z" />
<glyph horiz-adv-x="487" d="M49 -213q0 126 219 250l54 -37q-89 -55 -128.5 -99.5t-39.5 -88.5q0 -76 112 -88l-45 -95q-83 15 -127.5 57.5t-44.5 100.5zM162 0v1128h164v-1128h-164z" />
<glyph horiz-adv-x="487" d="M-100 1272q0 18 9.5 48.5t30 69t63.5 66t99 27.5q49 0 94.5 -22t87.5 -44t83 -22q29 0 51.5 10t34 23t18.5 28.5t8.5 24.5t1.5 14h107q0 -12 -5.5 -34t-21 -53.5t-38.5 -58.5t-63 -46t-89 -19q-52 0 -100 21.5t-88.5 43t-76.5 21.5q-31 0 -53 -13.5t-31 -33t-12.5 -32 t-3.5 -19.5h-106zM162 0v1128h164v-1128h-164z" />
<glyph horiz-adv-x="878" d="M47 215l129 61q24 -71 79 -114t128 -43q101 0 169.5 62.5t68.5 189.5v757h143v-766q2 -94 -29 -168.5t-85 -119.5t-122 -68.5t-145 -23.5q-110 0 -204 65.5t-132 167.5z" />
<glyph horiz-adv-x="878" d="M47 215l129 61q24 -71 79 -114t128 -43q101 0 169.5 62.5t68.5 189.5v757h143v-766q2 -94 -29 -168.5t-85 -119.5t-122 -68.5t-145 -23.5q-110 0 -204 65.5t-132 167.5zM317 1221l297 317h156l297 -317h-217l-158 233l-157 -233h-218z" />
<glyph horiz-adv-x="1171" d="M162 0v1128h164v-604l628 604h179l-496 -497l522 -631h-176l-446 535l-211 -191v-344h-164z" />
<glyph horiz-adv-x="1171" d="M162 0v1128h164v-604l628 604h179l-496 -497l522 -631h-176l-446 535l-211 -191v-344h-164zM418 -438h102l139 338h-143z" />
<glyph horiz-adv-x="1007" d="M162 0v1128h164v-983h649v-145h-813z" />
<glyph horiz-adv-x="1007" d="M162 0v1128h164v-983h649v-145h-813zM201 1221l182 317h217l-297 -317h-102z" />
<glyph horiz-adv-x="1007" d="M162 0v1128h164v-983h649v-145h-813zM424 754l72 315h170l-109 -315h-133z" />
<glyph horiz-adv-x="1007" d="M162 0v1128h164v-983h649v-145h-813zM336 -438h102l140 338h-144z" />
<glyph horiz-adv-x="1007" d="M162 0v1128h164v-983h649v-145h-813zM459 610q0 54 36.5 91.5t90.5 37.5t91.5 -37.5t37.5 -91.5q0 -53 -37.5 -90t-91.5 -37t-90.5 37t-36.5 90z" />
<glyph horiz-adv-x="1007" d="M14 520l498 377l70 -86l-496 -381zM162 0v1128h164v-983h649v-145h-813z" />
<glyph horiz-adv-x="1554" d="M162 0v1128h174l442 -706l443 706h172v-1128h-164v838l-406 -637h-92l-405 637v-838h-164z" />
<glyph horiz-adv-x="1372" d="M162 0v1128h127l758 -839v839h163v-1128h-137l-747 823v-823h-164z" />
<glyph horiz-adv-x="1372" d="M162 0v1128h127l758 -839v839h163v-1128h-137l-747 823v-823h-164zM645 1221l182 317h217l-296 -317h-103z" />
<glyph horiz-adv-x="1372" d="M162 0v1128h127l758 -839v839h163v-1128h-137l-747 823v-823h-164zM311 1538h217l158 -233l158 233h217l-297 -317h-156z" />
<glyph horiz-adv-x="1372" d="M162 0v1128h127l758 -839v839h163v-1128h-137l-747 823v-823h-164zM518 -438h103l139 338h-144z" />
<glyph horiz-adv-x="1372" d="M162 0v1128h127l758 -839v839h163v-1128h-137l-747 823v-823h-164zM342 1272q0 18 9.5 48.5t30.5 69t64 66t99 27.5q49 0 94 -22t87 -44t83 -22q29 0 51.5 10t34 23t18.5 28.5t9 24.5t2 14h106q0 -12 -5.5 -34t-21 -53.5t-38.5 -58.5t-63 -46t-89 -19q-52 0 -99.5 21.5 t-88 43t-76.5 21.5q-31 0 -53 -13.5t-31 -33t-12.5 -32t-3.5 -19.5h-107z" />
<glyph horiz-adv-x="1331" d="M82 565q0 149 75.5 279.5t211.5 210.5t299 80q126 0 236.5 -49.5t185 -130.5t117 -184t42.5 -210q0 -149 -74.5 -279t-210 -210t-298.5 -80q-127 0 -237.5 48.5t-185.5 128.5t-118 183.5t-43 212.5zM248 563q0 -110 51 -206.5t148.5 -157t220.5 -60.5q93 0 172.5 37 t131 97.5t80.5 136.5t29 155q0 170 -117.5 296t-297.5 126q-124 0 -221.5 -63t-147 -159t-49.5 -202z" />
<glyph horiz-adv-x="1331" d="M82 565q0 149 75.5 279.5t211.5 210.5t299 80q126 0 236.5 -49.5t185 -130.5t117 -184t42.5 -210q0 -149 -74.5 -279t-210 -210t-298.5 -80q-127 0 -237.5 48.5t-185.5 128.5t-118 183.5t-43 212.5zM248 563q0 -110 51 -206.5t148.5 -157t220.5 -60.5q93 0 172.5 37 t131 97.5t80.5 136.5t29 155q0 170 -117.5 296t-297.5 126q-124 0 -221.5 -63t-147 -159t-49.5 -202zM625 1221l182 317h217l-297 -317h-102z" />
<glyph horiz-adv-x="1331" d="M82 565q0 149 75.5 279.5t211.5 210.5t299 80q126 0 236.5 -49.5t185 -130.5t117 -184t42.5 -210q0 -149 -74.5 -279t-210 -210t-298.5 -80q-127 0 -237.5 48.5t-185.5 128.5t-118 183.5t-43 212.5zM248 563q0 -110 51 -206.5t148.5 -157t220.5 -60.5q93 0 172.5 37 t131 97.5t80.5 136.5t29 155q0 170 -117.5 296t-297.5 126q-124 0 -221.5 -63t-147 -159t-49.5 -202zM371 1538h137q0 -72 47 -127t107 -55q59 0 103.5 52t51.5 130h135q0 -127 -83.5 -213t-206.5 -86t-207 86t-84 213z" />
<glyph horiz-adv-x="1331" d="M82 565q0 149 75.5 279.5t211.5 210.5t299 80q126 0 236.5 -49.5t185 -130.5t117 -184t42.5 -210q0 -149 -74.5 -279t-210 -210t-298.5 -80q-127 0 -237.5 48.5t-185.5 128.5t-118 183.5t-43 212.5zM248 563q0 -110 51 -206.5t148.5 -157t220.5 -60.5q93 0 172.5 37 t131 97.5t80.5 136.5t29 155q0 170 -117.5 296t-297.5 126q-124 0 -221.5 -63t-147 -159t-49.5 -202zM291 1221l297 317h155l297 -317h-217l-157 233l-158 -233h-217z" />
<glyph horiz-adv-x="1331" d="M82 565q0 149 75.5 279.5t211.5 210.5t299 80q126 0 236.5 -49.5t185 -130.5t117 -184t42.5 -210q0 -149 -74.5 -279t-210 -210t-298.5 -80q-127 0 -237.5 48.5t-185.5 128.5t-118 183.5t-43 212.5zM248 563q0 -110 51 -206.5t148.5 -157t220.5 -60.5q93 0 172.5 37 t131 97.5t80.5 136.5t29 155q0 170 -117.5 296t-297.5 126q-124 0 -221.5 -63t-147 -159t-49.5 -202zM317 1376q0 47 35 83t82 36t82 -36t35 -83t-35 -83t-82 -36t-82 36t-35 83zM778 1372q0 47 35 83t82 36t82 -36t35 -83t-35 -83t-82 -36t-82 36t-35 83z" />
<glyph horiz-adv-x="1331" d="M82 565q0 149 75.5 279.5t211.5 210.5t299 80q126 0 236.5 -49.5t185 -130.5t117 -184t42.5 -210q0 -149 -74.5 -279t-210 -210t-298.5 -80q-127 0 -237.5 48.5t-185.5 128.5t-118 183.5t-43 212.5zM248 563q0 -110 51 -206.5t148.5 -157t220.5 -60.5q93 0 172.5 37 t131 97.5t80.5 136.5t29 155q0 170 -117.5 296t-297.5 126q-124 0 -221.5 -63t-147 -159t-49.5 -202zM301 1538h217l182 -317h-102z" />
<glyph horiz-adv-x="1331" d="M82 565q0 149 75.5 279.5t211.5 210.5t299 80q126 0 236.5 -49.5t185 -130.5t117 -184t42.5 -210q0 -149 -74.5 -279t-210 -210t-298.5 -80q-127 0 -237.5 48.5t-185.5 128.5t-118 183.5t-43 212.5zM248 563q0 -110 51 -206.5t148.5 -157t220.5 -60.5q93 0 172.5 37 t131 97.5t80.5 136.5t29 155q0 170 -117.5 296t-297.5 126q-124 0 -221.5 -63t-147 -159t-49.5 -202zM436 1221l182 317h218l-297 -317h-103zM778 1221l183 317h217l-297 -317h-103z" />
<glyph horiz-adv-x="1331" d="M82 565q0 149 75.5 279.5t211.5 210.5t299 80q126 0 236.5 -49.5t185 -130.5t117 -184t42.5 -210q0 -149 -74.5 -279t-210 -210t-298.5 -80q-127 0 -237.5 48.5t-185.5 128.5t-118 183.5t-43 212.5zM248 563q0 -110 51 -206.5t148.5 -157t220.5 -60.5q93 0 172.5 37 t131 97.5t80.5 136.5t29 155q0 170 -117.5 296t-297.5 126q-124 0 -221.5 -63t-147 -159t-49.5 -202zM367 1339v119h598v-119h-598z" />
<glyph horiz-adv-x="1331" d="M82 565q0 149 75.5 279.5t211.5 210.5t299 80q126 0 236.5 -49.5t185 -130.5t117 -184t42.5 -210q0 -149 -74.5 -279t-210 -210t-298.5 -80q-127 0 -237.5 48.5t-185.5 128.5t-118 183.5t-43 212.5zM174 0l764 1130h158l-764 -1130h-158zM248 563q0 -110 51 -206.5 t148.5 -157t220.5 -60.5q93 0 172.5 37t131 97.5t80.5 136.5t29 155q0 170 -117.5 296t-297.5 126q-124 0 -221.5 -63t-147 -159t-49.5 -202z" />
<glyph horiz-adv-x="1331" d="M82 565q0 149 75.5 279.5t211.5 210.5t299 80q126 0 236.5 -49.5t185 -130.5t117 -184t42.5 -210q0 -149 -74.5 -279t-210 -210t-298.5 -80q-127 0 -237.5 48.5t-185.5 128.5t-118 183.5t-43 212.5zM248 563q0 -110 51 -206.5t148.5 -157t220.5 -60.5q93 0 172.5 37 t131 97.5t80.5 136.5t29 155q0 170 -117.5 296t-297.5 126q-124 0 -221.5 -63t-147 -159t-49.5 -202zM322 1272q0 18 9.5 48.5t30 69t63.5 66t99 27.5q49 0 94 -22t87 -44t83 -22q29 0 51.5 10t34 23t18.5 28.5t9 24.5t2 14h107q0 -12 -5.5 -34t-21 -53.5t-38.5 -58.5 t-63 -46t-89 -19q-52 0 -100 21.5t-88.5 43t-76.5 21.5q-31 0 -53 -13.5t-31 -33t-12.5 -32t-3.5 -19.5h-106z" />
<glyph horiz-adv-x="1118" d="M162 0v1128h516q80 0 152 -32t121 -83.5t77.5 -116.5t28.5 -132q0 -70 -27 -136.5t-74 -117.5t-116.5 -82t-149.5 -31h-364v-397h-164zM326 543h354q94 0 152.5 63t58.5 158q0 94 -65 156.5t-156 62.5h-344v-440z" />
<glyph horiz-adv-x="1329" d="M82 565q0 149 75.5 280t211.5 211.5t299 80.5q126 0 237 -50t185 -131t116.5 -184.5t42.5 -210.5q0 -109 -43.5 -211.5t-120.5 -181.5l134 -156l-91 -69l-133 149q-146 -100 -329 -100q-127 0 -237.5 48.5t-185.5 128.5t-118 183.5t-43 212.5zM248 563q0 -110 51 -206.5 t148.5 -157t220.5 -60.5q125 0 223 66l-141 160l94 71l135 -153q102 124 102 282q0 110 -51 206.5t-147.5 157t-216.5 60.5q-124 0 -221.5 -63.5t-147 -160t-49.5 -202.5z" />
<glyph horiz-adv-x="1179" d="M162 0v1128h532q79 0 150.5 -32t120.5 -83.5t77.5 -116.5t28.5 -132q0 -117 -71 -210.5t-185 -123.5l299 -430h-188l-279 397h-321v-397h-164zM326 543h368q92 0 151.5 65t59.5 156t-65 155t-156 64h-358v-440z" />
<glyph horiz-adv-x="1179" d="M162 0v1128h532q79 0 150.5 -32t120.5 -83.5t77.5 -116.5t28.5 -132q0 -117 -71 -210.5t-185 -123.5l299 -430h-188l-279 397h-321v-397h-164zM326 543h368q92 0 151.5 65t59.5 156t-65 155t-156 64h-358v-440zM549 1221l182 317h217l-297 -317h-102z" />
<glyph horiz-adv-x="1179" d="M162 0v1128h532q79 0 150.5 -32t120.5 -83.5t77.5 -116.5t28.5 -132q0 -117 -71 -210.5t-185 -123.5l299 -430h-188l-279 397h-321v-397h-164zM215 1538h217l158 -233l158 233h217l-297 -317h-156zM326 543h368q92 0 151.5 65t59.5 156t-65 155t-156 64h-358v-440z" />
<glyph horiz-adv-x="1075" d="M63 143l78 140q65 -62 179 -105t245 -43q125 0 194.5 40.5t69.5 117.5q0 35 -16 62.5t-41 46.5t-73 37t-95 30t-123 29q-197 44 -283.5 109.5t-86.5 195.5q0 158 122 246t316 88q232 0 401 -129l-73 -134q-51 49 -139.5 83t-190.5 34q-135 0 -201.5 -44t-66.5 -126 q0 -77 68.5 -113t248.5 -75q82 -18 139.5 -35t112 -43.5t87 -59t52 -79.5t19.5 -107q0 -82 -34 -144.5t-95 -100.5t-140.5 -57t-175.5 -19q-286 0 -498 155z" />
<glyph horiz-adv-x="1075" d="M63 143l78 140q65 -62 179 -105t245 -43q125 0 194.5 40.5t69.5 117.5q0 35 -16 62.5t-41 46.5t-73 37t-95 30t-123 29q-197 44 -283.5 109.5t-86.5 195.5q0 158 122 246t316 88q232 0 401 -129l-73 -134q-51 49 -139.5 83t-190.5 34q-135 0 -201.5 -44t-66.5 -126 q0 -77 68.5 -113t248.5 -75q82 -18 139.5 -35t112 -43.5t87 -59t52 -79.5t19.5 -107q0 -82 -34 -144.5t-95 -100.5t-140.5 -57t-175.5 -19q-286 0 -498 155zM459 1221l182 317h217l-297 -317h-102z" />
<glyph horiz-adv-x="1075" d="M63 143l78 140q65 -62 179 -105t245 -43q125 0 194.5 40.5t69.5 117.5q0 35 -16 62.5t-41 46.5t-73 37t-95 30t-123 29q-197 44 -283.5 109.5t-86.5 195.5q0 158 122 246t316 88q232 0 401 -129l-73 -134q-51 49 -139.5 83t-190.5 34q-135 0 -201.5 -44t-66.5 -126 q0 -77 68.5 -113t248.5 -75q82 -18 139.5 -35t112 -43.5t87 -59t52 -79.5t19.5 -107q0 -82 -34 -144.5t-95 -100.5t-140.5 -57t-175.5 -19q-286 0 -498 155zM164 1538h217l158 -233l157 233h217l-297 -317h-155z" />
<glyph horiz-adv-x="1075" d="M63 143l78 140q65 -62 179 -105t245 -43q125 0 194.5 40.5t69.5 117.5q0 35 -16 62.5t-41 46.5t-73 37t-95 30t-123 29q-197 44 -283.5 109.5t-86.5 195.5q0 158 122 246t316 88q232 0 401 -129l-73 -134q-51 49 -139.5 83t-190.5 34q-135 0 -201.5 -44t-66.5 -126 q0 -77 68.5 -113t248.5 -75q82 -18 139.5 -35t112 -43.5t87 -59t52 -79.5t19.5 -107q0 -82 -34 -144.5t-95 -100.5t-140.5 -57t-175.5 -19q-286 0 -498 155zM322 -334l40 76q29 -15 80 -27t101 -12q116 0 116 72q0 71 -104 71q-73 0 -164 -26l119 223l80 -29l-72 -112 q29 10 74 10q74 0 118 -33.5t44 -97.5q0 -72 -58.5 -113t-167.5 -41q-103 0 -206 39z" />
<glyph horiz-adv-x="1075" d="M63 143l78 140q65 -62 179 -105t245 -43q125 0 194.5 40.5t69.5 117.5q0 35 -16 62.5t-41 46.5t-73 37t-95 30t-123 29q-197 44 -283.5 109.5t-86.5 195.5q0 158 122 246t316 88q232 0 401 -129l-73 -134q-51 49 -139.5 83t-190.5 34q-135 0 -201.5 -44t-66.5 -126 q0 -77 68.5 -113t248.5 -75q82 -18 139.5 -35t112 -43.5t87 -59t52 -79.5t19.5 -107q0 -82 -34 -144.5t-95 -100.5t-140.5 -57t-175.5 -19q-286 0 -498 155zM164 1221l297 317h155l297 -317h-217l-157 233l-158 -233h-217z" />
<glyph horiz-adv-x="1099" d="M43 983v145h1014v-145h-424v-983h-164v983h-426z" />
<glyph horiz-adv-x="1099" d="M43 983v145h1014v-145h-424v-983h-164v983h-426zM176 1538h217l158 -233l158 233h217l-297 -317h-156z" />
<glyph horiz-adv-x="1337" d="M145 557v571h164v-571q0 -84 18.5 -155.5t58.5 -132.5t112 -95.5t170 -34.5q82 0 145.5 23.5t103 63t65.5 94.5t36 113t10 124v571h164v-571q0 -119 -29.5 -218.5t-89.5 -178.5t-163 -123.5t-240 -44.5q-113 0 -203.5 31t-149.5 83.5t-98.5 126t-56.5 154t-17 170.5z" />
<glyph horiz-adv-x="1337" d="M145 557v571h164v-571q0 -84 18.5 -155.5t58.5 -132.5t112 -95.5t170 -34.5q82 0 145.5 23.5t103 63t65.5 94.5t36 113t10 124v571h164v-571q0 -119 -29.5 -218.5t-89.5 -178.5t-163 -123.5t-240 -44.5q-113 0 -203.5 31t-149.5 83.5t-98.5 126t-56.5 154t-17 170.5z M629 1221l182 317h217l-297 -317h-102z" />
<glyph horiz-adv-x="1337" d="M145 557v571h164v-571q0 -84 18.5 -155.5t58.5 -132.5t112 -95.5t170 -34.5q82 0 145.5 23.5t103 63t65.5 94.5t36 113t10 124v571h164v-571q0 -119 -29.5 -218.5t-89.5 -178.5t-163 -123.5t-240 -44.5q-113 0 -203.5 31t-149.5 83.5t-98.5 126t-56.5 154t-17 170.5z M375 1538h137q0 -72 47 -127t107 -55q59 0 103.5 52t51.5 130h135q0 -127 -83.5 -213t-206.5 -86t-207 86t-84 213z" />
<glyph horiz-adv-x="1337" d="M145 557v571h164v-571q0 -84 18.5 -155.5t58.5 -132.5t112 -95.5t170 -34.5q82 0 145.5 23.5t103 63t65.5 94.5t36 113t10 124v571h164v-571q0 -119 -29.5 -218.5t-89.5 -178.5t-163 -123.5t-240 -44.5q-113 0 -203.5 31t-149.5 83.5t-98.5 126t-56.5 154t-17 170.5z M295 1221l297 317h156l296 -317h-217l-157 233l-158 -233h-217z" />
<glyph horiz-adv-x="1337" d="M145 557v571h164v-571q0 -84 18.5 -155.5t58.5 -132.5t112 -95.5t170 -34.5q82 0 145.5 23.5t103 63t65.5 94.5t36 113t10 124v571h164v-571q0 -119 -29.5 -218.5t-89.5 -178.5t-163 -123.5t-240 -44.5q-113 0 -203.5 31t-149.5 83.5t-98.5 126t-56.5 154t-17 170.5z M322 1376q0 48 34.5 83.5t81.5 35.5t82 -36t35 -83t-35 -83t-82 -36t-81.5 35.5t-34.5 83.5zM782 1372q0 47 35 83t82 36t82 -36t35 -83t-35 -83t-82 -36t-82 36t-35 83z" />
<glyph horiz-adv-x="1337" d="M145 557v571h164v-571q0 -84 18.5 -155.5t58.5 -132.5t112 -95.5t170 -34.5q82 0 145.5 23.5t103 63t65.5 94.5t36 113t10 124v571h164v-571q0 -119 -29.5 -218.5t-89.5 -178.5t-163 -123.5t-240 -44.5q-113 0 -203.5 31t-149.5 83.5t-98.5 126t-56.5 154t-17 170.5z M305 1538h217l183 -317h-103z" />
<glyph horiz-adv-x="1337" d="M145 557v571h164v-571q0 -84 18.5 -155.5t58.5 -132.5t112 -95.5t170 -34.5q82 0 145.5 23.5t103 63t65.5 94.5t36 113t10 124v571h164v-571q0 -119 -29.5 -218.5t-89.5 -178.5t-163 -123.5t-240 -44.5q-113 0 -203.5 31t-149.5 83.5t-98.5 126t-56.5 154t-17 170.5z M440 1221l183 317h217l-297 -317h-103zM782 1221l183 317h217l-297 -317h-103z" />
<glyph horiz-adv-x="1337" d="M145 557v571h164v-571q0 -84 18.5 -155.5t58.5 -132.5t112 -95.5t170 -34.5q82 0 145.5 23.5t103 63t65.5 94.5t36 113t10 124v571h164v-571q0 -119 -29.5 -218.5t-89.5 -178.5t-163 -123.5t-240 -44.5q-113 0 -203.5 31t-149.5 83.5t-98.5 126t-56.5 154t-17 170.5z M371 1339v119h598v-119h-598z" />
<glyph horiz-adv-x="1337" d="M145 557v571h164v-571q0 -84 18.5 -155.5t58.5 -132.5t112 -95.5t170 -34.5q82 0 145.5 23.5t103 63t65.5 94.5t36 113t10 124v571h164v-571q0 -119 -29.5 -218.5t-89.5 -178.5t-163 -123.5t-240 -44.5q-113 0 -203.5 31t-149.5 83.5t-98.5 126t-56.5 154t-17 170.5z M508 -213q0 126 219 250l53 -37q-89 -55 -128.5 -99.5t-39.5 -88.5q0 -76 113 -88l-45 -95q-83 15 -127.5 57.5t-44.5 100.5z" />
<glyph horiz-adv-x="1337" d="M145 557v571h164v-571q0 -84 18.5 -155.5t58.5 -132.5t112 -95.5t170 -34.5q82 0 145.5 23.5t103 63t65.5 94.5t36 113t10 124v571h164v-571q0 -119 -29.5 -218.5t-89.5 -178.5t-163 -123.5t-240 -44.5q-113 0 -203.5 31t-149.5 83.5t-98.5 126t-56.5 154t-17 170.5z M475 1380q0 72 52.5 116t134.5 44q85 0 136.5 -44t51.5 -116q0 -73 -51.5 -116t-136.5 -43q-83 0 -135 43t-52 116zM569 1380q0 -37 27.5 -62.5t65.5 -25.5t67 25.5t29 62.5q0 39 -27 63.5t-69 24.5q-38 0 -65.5 -24.5t-27.5 -63.5z" />
<glyph horiz-adv-x="1337" d="M145 557v571h164v-571q0 -84 18.5 -155.5t58.5 -132.5t112 -95.5t170 -34.5q82 0 145.5 23.5t103 63t65.5 94.5t36 113t10 124v571h164v-571q0 -119 -29.5 -218.5t-89.5 -178.5t-163 -123.5t-240 -44.5q-113 0 -203.5 31t-149.5 83.5t-98.5 126t-56.5 154t-17 170.5z M326 1272q0 18 9.5 48.5t30 69t63.5 66t99 27.5q49 0 94.5 -22t87.5 -44t83 -22q29 0 51.5 10t34 23t18.5 28.5t8.5 24.5t1.5 14h107q0 -12 -5.5 -34t-21 -53.5t-38.5 -58.5t-63 -46t-89 -19q-52 0 -100 21.5t-88.5 43t-76.5 21.5q-31 0 -53 -13.5t-31 -33t-12.5 -32 t-3.5 -19.5h-106z" />
<glyph d="M29 1128h174l403 -899l402 899h174l-506 -1128h-141z" />
<glyph horiz-adv-x="1744" d="M49 1128h160l283 -913l301 913h155l307 -913l283 913h164l-359 -1124h-149l-324 891l-317 -891h-147z" />
<glyph horiz-adv-x="1744" d="M49 1128h160l283 -913l301 913h155l307 -913l283 913h164l-359 -1124h-149l-324 891l-317 -891h-147zM498 1221l297 317h155l297 -317h-217l-158 233l-157 -233h-217z" />
<glyph horiz-adv-x="1146" d="M20 1128h183l370 -454l371 454h182l-464 -571l450 -557h-180l-359 438l-356 -438h-182l450 557z" />
<glyph horiz-adv-x="1138" d="M74 0v127l790 856h-774v145h967v-127l-776 -856h776v-145h-983z" />
<glyph horiz-adv-x="1161" d="M31 1128h178l371 -575l372 575h181l-471 -720v-408h-164v410zM541 1221l182 317h217l-297 -317h-102z" />
<glyph horiz-adv-x="1161" d="M31 1128h178l371 -575l372 575h181l-471 -720v-408h-164v410zM207 1221l297 317h155l297 -317h-217l-157 233l-158 -233h-217z" />
<glyph horiz-adv-x="1161" d="M31 1128h178l371 -575l372 575h181l-471 -720v-408h-164v410zM233 1376q0 47 35 83t82 36t82 -36t35 -83t-35 -83t-82 -36t-82 36t-35 83zM694 1372q0 47 35 83t82 36t82 -36t35 -83t-35 -83t-82 -36t-82 36t-35 83z" />
<glyph horiz-adv-x="1161" d="M31 1128h178l371 -575l372 575h181l-471 -720v-408h-164v410z" />
<glyph horiz-adv-x="1138" d="M74 0v127l790 856h-774v145h967v-127l-776 -856h776v-145h-983zM481 1221l183 317h217l-297 -317h-103z" />
<glyph horiz-adv-x="1138" d="M74 0v127l790 856h-774v145h967v-127l-776 -856h776v-145h-983zM195 1538h217l157 -233l158 233h217l-297 -317h-155z" />
<glyph horiz-adv-x="1138" d="M74 0v127l790 856h-774v145h967v-127l-776 -856h776v-145h-983zM453 1376q0 48 34.5 83.5t81.5 35.5t82 -36t35 -83t-35 -83t-82 -36t-81.5 35.5t-34.5 83.5z" />
</font>
</defs>
</svg>
